<?xml version="1.0" encoding="UTF-8" standalone="no"?>
<!-- Created with Inkscape (http://www.inkscape.org/) -->

<svg
   width="208.80452mm"
   height="82.998322mm"
   viewBox="0 0 208.80452 82.998322"
   version="1.1"
   id="svg1"
   xmlns="http://www.w3.org/2000/svg"
   xmlns:svg="http://www.w3.org/2000/svg">
  <defs
     id="defs1" />
  <g
     id="layer1"
     style="display:inline"
     transform="translate(-166.05447,-242.66878)">
    <path
       style="font-size:70.5556px;line-height:1.25;font-family:'Devinne Swash';-inkscape-font-specification:'Devinne Swash';fill:#171717;stroke-width:0.264584"
       d="m 280.80045,280.50501 v -1.19104 l -0.17002,-1.63345 q -0.47642,-1.19103 -0.74864,-1.66744 l -0.71464,-1.25912 -0.88479,-0.88475 -0.85072,-0.7827 -1.22509,-0.71462 -1.0209,-0.47643 -2.55223,-0.74867 -2.82446,-0.30628 -1.66749,0.0681 q -0.17027,0.0341 -0.30628,0.0341 -0.13596,0 -0.23812,0.0341 h -1.12298 l -2.79046,0.54447 -2.7224,0.91881 -2.34804,1.2591 -1.05492,0.78269 -0.85076,0.71462 1.46328,0.0681 0.74865,0.17002 0.7827,0.23812 0.40836,0.61253 q 0.13596,0.17027 0.23812,0.85073 l 0.0341,15.82392 -0.20407,1.25909 -0.34032,0.74868 -0.78268,0.27222 -0.88479,0.0341 v 1.12299 h 10.95762 l 0.0341,-1.15701 -1.22507,-0.10217 q -0.44238,-0.23812 -0.74866,-0.57853 l -0.20407,-0.6466 -0.0341,-16.98087 0.3403,-1.29314 q 0.23812,-0.47642 1.12298,-1.15702 l -2.14387,-0.44239 -1.39524,-0.17027 h -1.02089 l -1.56537,0.23813 -1.8036,0.37433 1.56537,-0.74864 1.8036,-0.71464 1.42927,-0.30628 1.42925,-0.17002 1.49729,0.0681 1.3612,0.20407 1.15704,0.4424 1.19103,0.57849 1.63343,1.4633 0.6806,1.05491 0.40835,0.91882 q 0.20432,1.22508 0.20432,1.80359 v 0.74864 l -0.34031,1.02089 -0.54447,0.91882 -0.91882,0.74865 -0.61253,0.40836 -1.15701,0.3403 -1.08894,0.20407 -1.39524,-0.10217 -1.22509,-0.23813 1.29315,1.32718 1.3612,0.95282 1.3612,0.54446 q 0.17026,0.0681 0.51043,0.13598 0.37433,0.0681 0.95283,0.20406 l 1.29314,-0.0341 1.39521,-0.20407 1.2251,-0.54448 1.15703,-0.61256 0.91878,-0.95281 0.85075,-0.98686 0.54448,-1.19104 q 0.13622,-0.23813 0.20407,-0.51047 0.0681,-0.20408 0.10217,-0.37432 0.0341,-0.20407 0.0681,-0.37432 z m 12.21674,14.73493 -1.22509,-0.10217 q -0.44237,-0.23814 -0.74865,-0.57852 l -0.20407,-19.73733 0.17003,-1.22506 0.37432,-0.74867 q 0.37431,-0.23812 0.71463,-0.23812 l 0.88478,-0.0341 v -1.08894 h -10.95763 l 0.0341,1.05489 1.19106,0.13596 0.74862,0.57853 0.13621,0.61254 q 0,-0.0341 0.0681,0.23812 l 0.0341,18.85255 -0.20407,1.25912 -0.3403,0.74865 q -0.23812,0.0681 -0.40834,0.13621 -0.17026,0.0681 -0.30628,0.13597 l -0.95283,0.0341 v 1.12298 h 10.95761 z m 29.02748,1.15703 v -1.12299 l -1.36118,-0.61255 -1.12301,-1.08894 -7.41848,-20.21376 v -0.44239 q 0,-0.34029 0,-0.54445 0.0341,-0.23812 0.13596,-0.40836 0.10217,-0.20407 0.27225,-0.40837 0.17002,-0.20406 0.47639,-0.51044 h -2.45013 l -2.68837,0.47642 -2.38208,0.91881 -0.95284,0.61252 -0.6806,0.64657 1.32717,0.17027 0.30627,0.54448 0.13598,0.74863 -7.92894,18.37614 -0.6466,0.64656 -0.71461,0.57851 -1.0209,0.3403 -1.05492,0.17027 v 1.12298 h 7.35046 l 0.0341,-1.15704 -1.32718,-0.13596 q -0.54448,-0.27225 -0.81671,-0.64656 l 0.0681,-0.57852 0.37431,-0.88478 0.54446,-1.4973 10.10689,-4.32183 2.04179,5.78512 q 0.20406,0.61251 0.17001,0.98687 l -0.0344,0.51044 -0.40836,0.40833 -0.47641,0.23814 q -0.4424,0.0681 -0.8167,0.1362 -0.34032,0.0341 -0.68062,0.0341 v 1.12299 z m -13.23761,-13.50988 -5.85314,2.55226 3.67521,-8.50747 z m 38.6239,8.03107 q -1.36124,-0.47642 -1.70151,-0.71463 l -1.15704,-1.19104 v -5.41075 l 0.0681,-4.08358 0.20407,-2.92658 0.30628,-1.97374 0.40834,-1.15702 0.47641,-0.64657 0.64659,-0.23812 h 0.74865 v -1.29311 h -7.38449 l 0.0681,1.25911 0.5785,0.0341 0.51048,0.10217 0.34025,0.17027 0.40836,0.4424 0.30628,0.71461 0.27226,1.05492 0.20406,1.53135 0.10217,2.04182 0.13622,2.14387 0.0338,7.11224 -10.78745,-14.32659 q -0.27226,-0.57851 -0.4424,-0.95281 -0.17001,-0.37437 -0.23812,-0.57853 l -0.20433,-1.56537 -2.55223,0.27224 -2.45015,0.74865 -0.98687,0.61254 -0.98686,0.71464 -0.61253,0.9188 -0.47642,0.91879 q 1.36117,0.44242 1.70148,0.64657 0.54447,0.34033 1.25912,1.25909 l -0.0341,5.51286 -0.0681,4.25375 -0.17001,3.26687 -0.23812,2.34804 -0.34029,1.76955 -0.40836,0.8848 -0.47642,0.4764 -0.54447,0.17026 -0.68061,0.0341 v 1.12302 h 7.35045 l 0.0341,-1.15704 h -0.51044 l -0.54447,-0.10217 -0.37434,-0.17027 -0.34028,-0.37433 -0.30628,-0.6806 -0.23812,-0.9188 -0.20433,-1.25909 -0.27222,-4.15166 -0.13596,-10.44718 13.27166,18.71643 0.71462,1.05496 q 0.10217,0.13596 0.5785,1.6334 l 0.44239,-1.39522 0.5785,-1.15701 0.8848,-1.3612 1.05491,-1.42925 z m 27.42805,-7.41855 -0.10217,-2.75641 -0.30628,-1.59939 -0.30625,-1.05492 -1.4633,-2.9606 -0.74866,-0.91882 -1.02089,-1.12297 -1.05493,-0.78269 -1.29314,-0.78267 q -0.95282,-0.37435 -0.98688,-0.37435 l -2.51821,-0.71462 -3.5391,-0.10217 -1.9397,0.68059 -1.63343,0.78268 q -0.47641,0.47643 -0.74865,0.78267 -0.27224,0.27225 -0.3403,0.37435 l -0.81672,1.25909 -0.20407,1.25912 v 1.63343 l 0.47642,1.19103 q 0.13596,0.37432 0.91879,1.36122 0.57852,0.54448 1.0209,0.68058 l 1.12299,0.4424 1.0209,0.10217 1.12297,-0.13596 0.85076,-0.4424 0.74866,-0.57851 -0.88478,0.0681 -1.05491,-0.23811 -0.47645,-0.57854 -0.17002,-0.74864 0.37434,-0.91882 0.51044,-0.64656 1.05493,-0.51046 q 0.47642,-0.17001 0.81672,-0.23811 0.37431,-0.10218 0.57851,-0.13597 h 1.29314 l 1.12298,0.0341 1.22509,0.13622 q 0.71462,0.27225 1.08896,0.44239 0.40833,0.17002 0.47641,0.23813 l 1.12295,0.61253 q 0.68062,0.68061 0.9869,1.123 l 0.71462,0.98686 0.47642,1.46329 0.30628,1.19104 -0.0344,1.59942 -0.20407,1.5994 -0.40836,1.2591 -0.68057,1.36119 -0.81675,1.05493 -1.12297,1.157 q -0.71464,0.54451 -1.15704,0.68062 l -1.53135,0.68059 -1.42925,0.23812 h -1.97371 l -1.97373,-0.54447 -1.46329,-0.61254 -1.56538,-0.91881 -1.123,-0.91878 -0.88475,-0.9869 -0.95284,-1.3952 -0.5445,-1.29314 -0.61253,-1.93971 -0.23812,-1.5994 v -1.70149 l 0.13596,-1.76955 0.37436,-1.73554 0.51042,-1.73551 0.74867,-1.90569 -1.56537,0.95284 -1.29315,0.95285 -1.02087,0.98686 -1.123,1.3612 -0.68059,1.15701 -0.68061,1.46329 -0.34029,1.22506 -0.30628,1.56539 v 0.98685 l 0.0341,0.91881 v 0.95284 l 0.20407,1.22508 0.40836,1.53135 0.95284,2.10985 0.85076,1.32718 0.78269,0.98686 0.98686,0.95281 1.15699,1.02092 1.46332,0.85073 1.22505,0.51045 1.70152,0.47642 1.32715,0.23812 h 1.83761 l 1.66745,-0.0341 1.63346,-0.3743 2.21193,-0.64659 1.42925,-0.64656 0.98688,-0.61254 1.19103,-1.02089 1.15704,-1.25912 0.64655,-0.91877 0.81671,-1.39526 0.98686,-2.58627 0.30628,-1.66745 z"
       id="path1"
       aria-label="PIANO" />
    <g
       id="g47"
       transform="translate(-2.5195488,-62.788456)">
      <g
         id="g43"
         style="display:inline"
         transform="translate(133.92317,122.51551)">
        <g
           id="g42">
          <path
             id="path2"
             style="display:inline;fill:#ededed;fill-opacity:1;stroke:none;stroke-width:1.9;stroke-linecap:round"
             d="m 76.076838,184.00006 a 80.951961,80.951961 0 0 0 -40.475565,10.84535 80.951956,80.951956 0 0 0 40.475565,70.10683 z" />
          <path
             id="path3"
             style="display:inline;fill:#ffffff;stroke:none;stroke-width:1.9;stroke-linecap:round"
             d="m 76.076838,184.00006 v 80.95217 A 80.951961,80.951961 0 0 0 116.55292,194.8454 80.951961,80.951961 0 0 0 76.076838,184.00006 Z" />
          <path
             id="path4"
             style="fill:none;stroke:#000000;stroke-width:1.9;stroke-linecap:round"
             transform="translate(30.158941,132.98937)"
             d="m 45.917892,131.85373 -4e-6,0 A 80.951956,80.951956 60.000001 0 1 5.441912,61.747278 l 7e-7,0 a 80.951961,80.951961 2.7925133e-7 0 1 80.9519603,0 80.951961,80.951961 120 0 1 -40.475981,70.106452 z" />
          <path
             style="fill:none;stroke:#000000;stroke-width:2;stroke-linecap:butt;stroke-linejoin:miter;stroke-dasharray:none;stroke-opacity:1"
             d="m 76.076828,264.8431 10e-6,-81.90138"
             id="path18" />
          <path
             style="display:inline;fill:none;stroke:#000000;stroke-width:2;stroke-linecap:butt;stroke-linejoin:miter;stroke-dasharray:none;stroke-opacity:1"
             d="m 76.076838,203.84884 39.961502,1e-5"
             id="path19" />
          <path
             style="display:inline;fill:none;stroke:#000000;stroke-width:2;stroke-linecap:butt;stroke-linejoin:miter;stroke-dasharray:none;stroke-opacity:1"
             d="m 76.076838,222.05316 35.727872,1e-5"
             id="path20" />
          <path
             style="display:inline;fill:none;stroke:#000000;stroke-width:2;stroke-linecap:butt;stroke-linejoin:miter;stroke-dasharray:none;stroke-opacity:1"
             d="m 76.076848,240.25748 26.464832,1e-5"
             id="path21" />
          <rect
             style="fill:#000000;stroke:none;stroke-width:1;stroke-linecap:round;stroke-dasharray:none"
             id="rect21"
             width="17.599957"
             height="7.5257282"
             x="76.34082"
             y="199.78514" />
          <rect
             style="fill:#000000;stroke:none;stroke-width:1;stroke-linecap:round;stroke-dasharray:none"
             id="rect22"
             width="17.599957"
             height="7.5257282"
             x="76.34082"
             y="218.2903" />
          <rect
             style="fill:#000000;stroke:none;stroke-width:1;stroke-linecap:round;stroke-dasharray:none"
             id="rect23"
             width="17.599957"
             height="7.5257282"
             x="76.34082"
             y="236.49461" />
          <g
             id="g38"
             transform="translate(-30.691602,88.191428)">
            <path
               style="fill:none;stroke:#666666;stroke-width:2;stroke-linecap:butt;stroke-linejoin:miter;stroke-dasharray:none;stroke-opacity:1"
               d="m 94.35607,108.82203 -14.739914,6.33538 14.739914,6.33538"
               id="path36" />
            <ellipse
               style="display:inline;opacity:1;fill:#da0037;fill-opacity:1;stroke:none;stroke-width:1;stroke-linecap:round;stroke-dasharray:none"
               id="ellipse36"
               cx="79.616158"
               cy="115.15742"
               rx="3.5909412"
               ry="3.6156795" />
            <ellipse
               style="display:inline;fill:#da0037;fill-opacity:1;stroke:none;stroke-width:1;stroke-linecap:round;stroke-dasharray:none"
               id="ellipse37"
               cx="94.356682"
               cy="108.36267"
               rx="3.5909412"
               ry="3.6156795" />
            <ellipse
               style="display:inline;fill:#da0037;fill-opacity:1;stroke:none;stroke-width:1;stroke-linecap:round;stroke-dasharray:none"
               id="ellipse38"
               cx="94.356682"
               cy="121.95216"
               rx="3.5909412"
               ry="3.6156795" />
          </g>
        </g>
      </g>
    </g>
  </g>
</svg>
