<?xml version="1.0" encoding="UTF-8" standalone="no"?>
<!-- Created with Inkscape (http://www.inkscape.org/) -->

<svg
   width="82.851952mm"
   height="82.998352mm"
   viewBox="0 0 82.851952 82.998352"
   version="1.1"
   id="svg1"
   xmlns="http://www.w3.org/2000/svg"
   xmlns:svg="http://www.w3.org/2000/svg">
  <defs
     id="defs1" />
  <g
     id="layer1"
     style="display:inline"
     transform="translate(-307.61304,-125.60176)">
    <g
       id="g37"
       transform="translate(109.35432,-79.185747)">
      <path
         id="path23"
         style="display:inline;fill:none;stroke:none;stroke-width:1.9;stroke-linecap:round"
         d="m 239.68468,205.84584 v 80.95217 a 80.951961,80.951961 0 0 0 40.47608,-70.10683 80.951961,80.951961 0 0 0 -40.47608,-10.84534 z" />
      <path
         id="path24"
         style="display:inline;fill:none;stroke:#000000;stroke-width:1.9;stroke-linecap:round"
         transform="translate(193.7668,154.83515)"
         d="m 45.917892,131.85373 -4e-6,0 A 80.951956,80.951956 60.000001 0 1 5.441912,61.747278 l 7e-7,0 a 80.951961,80.951961 2.7925133e-7 0 1 80.9519603,0 80.951961,80.951961 120 0 1 -40.475981,70.106452 z" />
      <path
         style="display:inline;fill:none;stroke:#000000;stroke-width:2;stroke-linecap:butt;stroke-linejoin:miter;stroke-dasharray:none;stroke-opacity:1"
         d="m 239.68467,286.68888 10e-6,-81.90138"
         id="path25" />
      <path
         style="display:inline;fill:none;stroke:#000000;stroke-width:2;stroke-linecap:butt;stroke-linejoin:miter;stroke-dasharray:none;stroke-opacity:1"
         d="m 239.68468,225.69462 39.9615,1e-5"
         id="path26" />
      <path
         style="display:inline;fill:none;stroke:#000000;stroke-width:2;stroke-linecap:butt;stroke-linejoin:miter;stroke-dasharray:none;stroke-opacity:1"
         d="m 239.68468,243.89894 35.72787,1e-5"
         id="path27" />
      <path
         style="display:inline;fill:none;stroke:#000000;stroke-width:2;stroke-linecap:butt;stroke-linejoin:miter;stroke-dasharray:none;stroke-opacity:1"
         d="m 239.68469,262.10326 26.46484,1e-5"
         id="path33" />
      <rect
         style="display:inline;fill:#000000;stroke:none;stroke-width:1;stroke-linecap:round;stroke-dasharray:none"
         id="rect33"
         width="17.599957"
         height="7.5257282"
         x="239.94865"
         y="221.63092" />
      <rect
         style="display:inline;fill:#000000;stroke:none;stroke-width:1;stroke-linecap:round;stroke-dasharray:none"
         id="use33"
         width="17.599957"
         height="7.5257282"
         x="239.94865"
         y="240.13608" />
      <rect
         style="display:inline;fill:#000000;stroke:none;stroke-width:1;stroke-linecap:round;stroke-dasharray:none"
         id="use34"
         width="17.599957"
         height="7.5257282"
         x="239.94865"
         y="258.34039" />
      <g
         id="g36"
         style="display:inline"
         transform="translate(35.463896,101.83512)">
        <path
           style="fill:none;stroke:#000000;stroke-width:2;stroke-linecap:butt;stroke-linejoin:miter;stroke-dasharray:none;stroke-opacity:1"
           d="m 191.80842,117.02412 -14.73991,6.33538 14.73991,6.33538"
           id="path35" />
        <ellipse
           style="display:inline;opacity:1;fill:#000000;stroke:none;stroke-width:1;stroke-linecap:round;stroke-dasharray:none"
           id="ellipse35"
           cx="177.06851"
           cy="123.35951"
           rx="3.5909412"
           ry="3.6156795" />
        <ellipse
           style="display:inline;fill:#000000;stroke:none;stroke-width:1;stroke-linecap:round;stroke-dasharray:none"
           id="use35"
           cx="191.80904"
           cy="116.56477"
           rx="3.5909412"
           ry="3.6156795" />
        <ellipse
           style="display:inline;fill:#000000;stroke:none;stroke-width:1;stroke-linecap:round;stroke-dasharray:none"
           id="use36"
           cx="191.80904"
           cy="130.15427"
           rx="3.5909412"
           ry="3.6156795" />
      </g>
    </g>
  </g>
</svg>
