<?xml version="1.0" encoding="UTF-8"?>
<svg id="Layer_2" data-name="Layer 2" xmlns="http://www.w3.org/2000/svg" viewBox="0 0 286.15 291.91">
  <defs>
    <style>
      .cls-1 {
        fill: #231f20;
        stroke-width: 0px;
      }
    </style>
  </defs>
  <g id="Layer_1-2" data-name="Layer 1">
    <g>
      <g>
        <path class="cls-1" d="M101.31,277.18l4.15-12.49-7.28-.94.38-1.14c2.77.05,4.84-.13,7.64-.69,1.91-.37,2.2-.45,3.36-.93l1.14.38-5.67,17.05,3.84,2.76-.33.98-12.1-4.02.33-.98,4.53.02Z"/>
        <path class="cls-1" d="M118.3,290.55l.69-5.88,1.48.17,1.04,4.29c.85.22,1.5.38,2.77.53,2.51.29,3.87.08,5.26-.76,1.35-.88,2.27-2.32,2.46-3.96.38-3.25-1.64-5.57-5.18-5.98l-1.36-.16.22-1.85.49.06c3.91.46,6.04-1.04,6.44-4.5.37-3.12-1.25-4.98-4.62-5.37-.99-.12-2.35-.19-3.19-.16l-2.42,4.64-1.44-.17.67-5.71c3.13-.43,6.07-.58,7.88-.37,5.1.6,7.95,3.26,7.52,6.96-.39,3.33-3.1,5.47-7.31,5.9,4.45.77,7.04,3.57,6.61,7.23-.54,4.6-5,7.08-11.37,6.34-1.77-.21-2.79-.37-6-1.12l-.65-.12Z"/>
        <path class="cls-1" d="M149.69,283.92l.67-1.11,2.02-3.3,2.18-3.81,2.53-4.39.38-.71,1.31,12.35-9.1.97ZM159.72,291.76l3.5-.37-.65-6.13,3.87-.41-.28-2.68-3.87.41-1.87-17.62-1.65.17-12.52,20.52.14,1.32,12.68-1.35.65,6.13Z"/>
        <path class="cls-1" d="M178.99,288.02l-1.92-5.6,1.41-.48,2.79,3.42c.86-.16,1.52-.3,2.73-.72,2.39-.82,3.52-1.6,4.41-2.96.84-1.38,1.05-3.07.51-4.64-1.06-3.09-3.88-4.31-7.25-3.16l-1.29.44-.6-1.76.47-.16c3.72-1.27,5-3.55,3.87-6.84-1.02-2.98-3.28-3.95-6.49-2.85-.94.32-2.21.84-2.95,1.23l-.18,5.22-1.37.47-1.86-5.44c2.64-1.74,5.22-3.14,6.95-3.73,4.86-1.66,8.58-.49,9.79,3.04,1.09,3.17-.43,6.27-4.05,8.48,4.35-1.23,7.9.18,9.09,3.67,1.5,4.39-1.45,8.55-7.52,10.62-1.68.58-2.68.87-5.89,1.58l-.64.18Z"/>
      </g>
      <g>
        <path class="cls-1" d="M56.74,253.87c-2.43-2.08-2.69-5.83-.55-8.33,2.13-2.49,5.89-2.81,8.31-.74,2.46,2.11,2.72,5.86.59,8.35s-5.89,2.81-8.35.71Z"/>
        <path class="cls-1" d="M49.95,216.31l-.9.57-3.17-2.23-19.72,12.42.64,3.82-.9.57-5.99-9.52.9-.57,3.19,2.27,19.72-12.42-.67-3.86.9-.57,5.99,9.52Z"/>
        <path class="cls-1" d="M41.57,203.85l-.99.38-2.67-2.81-21.76,8.35-.11,3.88-.99.38-2.52-6.56,13.62-21.83-16.79,6.44-.11,3.88-.99.38-3.42-8.91.99-.38,2.69,2.85,24.54-9.42.46,1.19-15.78,24.99,19.33-7.42.1-3.92.99-.38,3.42,8.91Z"/>
        <path class="cls-1" d="M27.75,159.85l-6.26.21-.05-1.53,5.21-2.27c.13-1.11.15-1.97.11-3.16-.13-3.96-1.78-5.99-4.76-5.89-2.09.07-3.04.83-4.86,3.83l-2.54,4.26c-1.33,2.3-1.98,3.05-3.23,3.9-1.08.72-2.18,1.05-3.59,1.1-4.47.15-7.61-3.02-7.77-7.92-.02-.72.06-2,.15-3.2.1-.94.2-1.71.31-2.23l.32-1.8.11-.6,6.05-.21.05,1.58-5.04,2.17-.03.34c-.05,1.11-.08,1.41-.05,2.18.14,4.26,1.53,6.21,4.34,6.12,1.96-.07,2.79-.73,4.56-3.74l2.7-4.61c1.65-2.78,1.9-3.13,3.06-3.98,1.16-.85,2.64-1.33,4.26-1.38,4.73-.16,7.87,3.27,8.06,8.81.04,1.32-.14,3.29-.51,5.13l-.47,2.4-.11.47Z"/>
        <path class="cls-1" d="M1.12,133.83l-1.05-.2,2.07-11.01,1.05.2.8,3.79,16.75,3.15c5.02.94,7.65-.82,8.57-5.67.96-5.11-.79-7.78-5.65-8.69l-16.96-3.19-2.13,3.24-1.05-.2,1.84-9.8,1.05.2.8,3.83,16.04,3.02c4.27.8,6.45,2.34,7.65,5.43.82,2.1.92,4.12.33,7.26-1.33,7.08-4.74,9.77-10.9,8.62l-17.08-3.21-2.13,3.24Z"/>
        <path class="cls-1" d="M13.16,90.48l1.18-2.69c.98-2.22,1.92-3.11,3.62-3.58,1.45-.34,3.03-.11,4.63.59,1.64.72,2.83,1.71,3.53,2.99.92,1.71.86,3.45-.3,6.1l-.79,1.79-11.86-5.2ZM39.4,97.15l-.98-.43-3.15,3.46-8.74-3.83,1.2-2.73c2.53-5.77,1.16-10.7-3.56-12.77-2.22-.98-4.3-1-6.3-.06-2.11.98-3.51,2.69-5.02,6.13l-4.33,9.87.98.43,2.8-2.68,21.34,9.36-.07,3.88.98.43,4.84-11.04Z"/>
        <path class="cls-1" d="M27.3,64.35l1.75-2.41c1.93-2.66,4.65-3,7.48-.95,2.86,2.08,3.58,5.23,1.73,7.78l-1.68,2.31-9.28-6.73ZM38.86,70.83l16.45.4,4-5.52-.86-.63-3.19,1.79-14.51.06c1.92-3.82,1.21-7.54-1.9-9.79-1.76-1.28-3.74-1.66-5.67-1.11-1.93.55-2.98,1.42-4.95,4.15l-6.78,9.35.86.62,3.31-2.02,18.87,13.68-.89,3.77.86.62,6.6-9.11-.86-.62-3.33,2.06-8.9-6.45.9-1.24Z"/>
        <path class="cls-1" d="M57.43,49.46l7.7,8.72,7.06-6.23-1.16-5.17,1.05-.93,3.87,5.34-15.26,13.49-.71-.8,1.69-3.49-15.43-17.46-3.67,1.25-.71-.8,15.13-13.37,4.23,4.79-1.05.93-4.6-2.19-6.86,6.07,7.59,8.59,5.78-5.11-1.45-3.83.96-.85,6.18,6.99-.96.85-3.6-1.88-5.78,5.11Z"/>
        <path class="cls-1" d="M91.04,34.18l-1.67-22.95,7.27-3.57.47.96-2.59,2.93,10.26,20.92,3.91-.26.47.96-10.1,4.95-.47-.96,2.59-2.93-9.25-18.86,1.79,25.6-.77.38-19-17.16,9.25,18.86,3.91-.26.47.96-8.57,4.2-.47-.96,2.56-2.91-10.26-20.92-3.87.24-.47-.96,7.54-3.7,17.01,15.43Z"/>
        <path class="cls-1" d="M119.77,16.79l4.11-12.81,1.63,12.03-5.74.78ZM127.09,27.71l-2.96,1.95.14,1.06,19-2.57-.16-6.6-1.52.21-1.95,4.95-8.49,1.15-1.5-11.1,6.84-.93,1.94,3.56,1.31-.18-1.25-9.25-1.31.18-.92,3.99-6.84.93-1.6-11.78,8.27-1.12,2.61,4.38,1.48-.2-.86-6.33-16.72,2.26-9.96,27.4-2.96,1.95.14,1.06,9.25-1.25-.14-1.06-3.38-1.13,3.4-10.44,6.8-.92,1.33,9.84Z"/>
        <path class="cls-1" d="M174.92,6.27l4.38,1.25c3.77,1.08,5.74,2.7,6.87,5.73.96,2.53.95,5.37-.03,8.81-1.15,4.01-2.99,6.59-5.87,8.29-2.6,1.52-4.69,1.67-8.21.67l-3.89-1.11,6.75-23.64ZM171.9,32.97c4.1,1.17,7.1,1.19,10.01.02,4-1.6,6.99-5.23,8.4-10.18,1.1-3.85.9-7.19-.57-10.26-1.63-3.44-4.1-5.2-9.42-6.72l-12.21-3.49-.29,1.02,3.03,2.42-6.4,22.41-3.85.45-.29,1.02,11.59,3.31Z"/>
        <path class="cls-1" d="M189.96,39.4l.5-.94,3.86.35,10.84-20.63-2.47-2.99.5-.94,9.96,5.23-.5.94-3.9-.37-10.84,20.63,2.51,3-.5.94-9.96-5.23Z"/>
        <path class="cls-1" d="M227.79,54.05l-5.05,6.22-.54-.22c-3.33-1.44-5.65-2.78-7.9-4.61-3.67-2.98-5.4-5.92-5.56-9.51-.15-3.53,1.08-6.87,3.68-10.07,3.04-3.74,6.81-5.88,10.85-6.12,3.73-.2,7.04,1,10.81,4.06,2.25,1.83,3.54,3.15,5.43,5.62l.35.45-4,4.93-1.26-1.02,1.82-5.28c-.63-.78-1.33-1.47-2.46-2.38-3.44-2.79-6.09-3.79-9.19-3.35-3.29.4-6.13,2.21-8.79,5.48-4.86,5.98-4.52,11.92.96,16.38,1.19.97,2.47,1.9,3.27,2.33l4.43-5.46-1.86-3.38.67-.83,8.73,7.09-.67.83-3.72-1.16Z"/>
        <path class="cls-1" d="M226.56,65.32l.86-.63,3.31,2.02,18.86-13.69-.89-3.77.86-.63,4.13,5.69-7.51,24.61,14.55-10.56-.89-3.77.86-.63,5.61,7.72-.86.63-3.33-2.06-21.28,15.44-.75-1.03,8.79-28.22-16.76,12.16.92,3.81-.86.63-5.6-7.72Z"/>
        <path class="cls-1" d="M244.22,91.67l.97-.45,2.85,2.62,21.16-9.76-.15-3.87.97-.45,4.71,10.21-.97.45-2.87-2.66-21.16,9.76.16,3.91-.97.45-4.71-10.21Z"/>
        <path class="cls-1" d="M255.38,113.11l23.11-6.28-1.69-6.21-5.41-.56-.4-1.48,6.74-1.83,6.19,22.78-6.74,1.83-.39-1.44,4.38-3.22-1.63-6-23.11,6.28-.27,4.71-1.03.28-3.4-12.5,1.03-.28,2.61,3.93Z"/>
        <path class="cls-1" d="M281.32,139.84c-1.34.45-2.01.7-3.77,1.38l-6.82,2.68-.37-7.62,10.97,3.56ZM269.09,144.62l-8.66,3.5-1.73-3.16-1.06.05.53,10.81,1.06-.05,1.42-3.31,25.5-10.59-.12-2.38-26.48-9.41-1.73-3.2-1.06.05.46,9.32,1.06-.05,1.42-3.31,8.97,2.8.44,8.94Z"/>
        <path class="cls-1" d="M258.8,165.88l23.63,3.89,1.04-6.35-4.68-2.76.25-1.51,6.89,1.13-3.83,23.29-6.89-1.13.24-1.47,5.32-1.11,1.01-6.14-23.63-3.89-2.2,4.17-1.05-.17,2.1-12.78,1.05.17.74,4.66Z"/>
        <path class="cls-1" d="M252.94,181.27l1.01.34.25,3.87,22.05,7.53,2.57-2.9,1.01.34-3.63,10.64-1.01-.34-.24-3.91-22.05-7.53-2.58,2.95-1.01-.34,3.63-10.64Z"/>
        <path class="cls-1" d="M248.39,197.44l5.53,2.95-.72,1.35-5.64-.64c-.67.9-1.11,1.63-1.67,2.68-1.86,3.5-1.46,6.08,1.18,7.48,1.84.98,3.05.8,6.12-.89l4.33-2.42c2.3-1.33,3.25-1.65,4.75-1.76,1.3-.08,2.42.18,3.66.84,3.95,2.11,5.07,6.42,2.77,10.75-.34.64-1.06,1.71-1.73,2.7-.55.77-1.03,1.38-1.38,1.77l-1.18,1.4-.39.47-5.34-2.85.74-1.39,5.45.64.2-.28c.6-.94.77-1.18,1.13-1.86,2-3.76,1.78-6.15-.7-7.47-1.73-.92-2.78-.76-5.82.95l-4.64,2.64c-2.82,1.58-3.21,1.76-4.64,1.92-1.43.15-2.95-.17-4.38-.93-4.17-2.23-5.18-6.77-2.57-11.66.62-1.16,1.77-2.77,3.01-4.19l1.61-1.84.33-.35Z"/>
        <path class="cls-1" d="M233.54,250.19c-2.34,2.17-6.1,2.01-8.34-.4-2.23-2.4-2.12-6.17.22-8.34,2.37-2.2,6.13-2.04,8.37.37,2.23,2.4,2.12,6.17-.25,8.37Z"/>
      </g>
      <g>
        <path class="cls-1" d="M135.62,155.84c0,.11.04.21.07.31-.02.11-.04.22-.04.32,0,.68.4,1.17.77,1.61l.43.57c.54.82,1.08,1.16,1.96,1.55.64.28,1.2.11,1.66-.03.4-.12.71-.22,1.06-.08l.5.34.85.52c.73.22,1.26-.07,1.74-.33l.92-.36,1.01-.07,1.35-.11.34-.05c1.07-.16,2.08-.3,2.43-.83,0,0,.11-.54.11-.54l-.7-.73-.25-.16-1.13-.5-.28-.08-.62-.29-1.29-.38-1.17.33-.78.26-1.5-.09-.28-.05-.8-.37-1.29-.49c-.78-.04-1.28.2-1.85.48l-.55.26-.44.14c-.68.03-.81-.05-1.26-.87.1-.2.58-1.08.58-1.08.08-.11,1.46-1.82,1.72-2.14,0,0,.03.02.03.02,0,0,0-.02.01-.03h0s.03-.08.05-.11c.09-.12.21-.25.21-.41,0-.1-.03-.19-.12-.29-.28-.3-.65-.05-.77.04-.39.27-2.69,2.28-2.69,3.72Z"/>
        <path class="cls-1" d="M132.93,145.43l.88-.09-.1.11c-.39.35-.69.63-.57,1.01.04.12.16.34.54.38.56.06.86-.3,1.08-.57l.26-.28.67-.46.96-.71.98-1.38c.33-.79.32-1.34.32-2.11,0,0-.37-1.83-.37-1.83l-.07-.21-.15-.48-.58-1.41c-.41-.7-1.42-2.27-2.12-1.89-.4.23-.41.61-.41.79v.13s-.38.16-.38.16c-.62.15-1.17-.17-1.87-.57-.58-.33-1.24-.71-2.03-.84-1.56-.25-2.51-.24-4.07.04-1.37.24-2.22.66-3.35,1.63-.67.58-1.2,1.04-1.59,2.01l-.67,2.22v-.04c-.02.32.12.5.23.6.11.09.23.12.34.13.15.42.74.83,2.23,1.77.74.46,3.09.89,4.37.88.01,0,.03,0,.03,0h.33s0-.06,0-.07c.04,0,.08-.01.11-.02,0,0,.04,0,.05,0,.08,0,.15.02.23.02.33,0,.64-.05.95-.12.84-.07,1.79-.15,1.79-.15l1.71-.38c.71-.21,1.27-.37,2.09-.22-.1.35-.24.73-.41,1.15,0,0,0,0,0-.02-.04-.35-.37-.61-.72-.57l-.83.09-1.61.24-2.31.56c-.34.08-.56.43-.47.78.09.34.43.55.78.47l2.32-.57,1.42-.21ZM123.8,142.45c-.42-.27-1.28-.82-1.6-1.1.04-.25.09-.47.15-.68.04-.08.08-.15.12-.23l.75-1.19c.4-.42.72-.75,1.05-1.02.06-.04.15-.08.23-.12-.28.58-.46,1.22-.46,1.92,0,1.09.4,2.07,1.05,2.84-.53-.1-1.01-.24-1.3-.42ZM129.41,139.97c-.29,0-.54-.25-.54-.57s.24-.57.54-.57.54.25.54.57-.24.57-.54.57ZM132.32,142.48l-.75.17c.54-.73.88-1.63.88-2.62,0-.67-.16-1.31-.43-1.87.33.13.63.26.9.4.23.19.46.4.68.65.82.94,1.19,1.82,1.41,2.87,0,.08-.02.16-.02.24-1.08-.18-1.92-.06-2.67.16Z"/>
        <path class="cls-1" d="M122.42,130.89c2.04-.45,3.22-.53,5.28-.32l1.02.07,1.76.23,2.06.71,1.24.48c.33.13.69-.04.82-.37.13-.33-.05-.71-.38-.84l-1.19-.46-2.23-.76-2.01-.26-.96-.07c-2.2-.22-3.53-.13-5.69.35-.35.08-.56.42-.49.77.08.35.42.56.77.49Z"/>
        <path class="cls-1" d="M147.4,174.11s0,0-.01.01c-.58.47-.88.7-1.5.88l-.37.11c-.77.23-.98.29-2.43.06l-1.07-.25-1.7-.29-.44-.02c-.86-.04-1.12-.05-1.24.3l-.09.27.24.22.59.53c.9.84,1.82,1.7,4.02,1.68l.82-.08.97-.02,1.26.55,1.22.69-.23-.99-.37-1.69s0-.05,0-.08c0-.47.29-.78.85-1.2h0s.01,0,.02-.01l-.53-.68Z"/>
        <path class="cls-1" d="M153.71,169.18h0l-.17-.33c-.3-.69-.43-1.11-.15-1.5l-.58-.61s-.07.09-.11.12h0s0,0,0,0c-.36.27-.69.71-.69,1.48,0,.23.04.5.11.79-.31.02-.6,0-.97-.1l-1.54-.74-1.35-1.3-.54-.58c-.43-.42-.89-.43-1.3-.43l-.43-.03c-.05,0-.71.02-1.24.13-.13.01-.27.03-.27.03.03,0,.05.04.08.04-.02,0-.04.01-.06.02,0,0,.02-.04.02-.04l-1.01.27s-.28-.04-.28-.04l-.38-.09-.43-.08-.95-.08-1.58.54-1.03.85-.48.47-.46.44-1.11.77c-.64.21-1.03.18-1.76.07l-.95-.26c.28-.69.09-1.28-.11-1.85l-.14-.4-.83.18c.04.34.07.63.07.89,0,.34-.09.6-.25.84h0l-.24.3c-.5.43-.94.66-1.38.66-.21-.04-.42-.05-.61-.13h0l-.34.79c.32.14.64.2.95.2.81.11,1.55-.09,2.12-.53.39.45.81.77,1.47,1.05,1.04.44,1.8.37,2.76.29l.44-.03,1.45-.21,1.77-.18.89.23,1.3.27,1.19-.39c.35-.19.57-.3.87-.25,0,0,.69.19,1.11.31.12.04.24.08.24.08.1.03.23.04.35,0,.3.04,1.66.25,1.66.25,1.49.19,2.76-.08,3.66-.78l.22-.26c.34.32.79.56,1.31.64.83.12,1.59-.16,1.99-.75l.47-.69-1.33.03c-.83.03-1.24-.01-1.46-.38Z"/>
        <path class="cls-1" d="M103.97,119.66c-.09,0,.09,0,0,0h0Z"/>
        <path class="cls-1" d="M163.66,136.32c-1.24-.39-1.96-.56-3.22-.58-1.87-.04-3.04-.06-4.8.59-1.11.41-1.92.76-2.91,1.73l-.51.48c-.68.62-1.32,1.2-1.52,2.34-.16.89-.15,1.44,0,2.26l.2.98,1.16-1.65c-.03.29-.07.58-.08.91l-.03.9.86-.26c1.12-.34,1.57-.19,2.25.02l1.18.31,1.59.37,2.73.44s.7,0,.7,0c1.12.02,2.08.04,3.34-.53l2.69-1.55-.04-.35s0-.03,0-.05l.35-.28c.62-.48-.12-2.73-.72-3.67-1.1-1.7-1.78-1.97-3.24-2.43ZM156.46,143.09l-1-.26c-.58-.19-1.21-.3-2.07-.19.12-.94.35-1.71.93-2.63.12-.19.25-.32.37-.48l.65-.53c.35-.3.65-.51.95-.68-.38.65-.62,1.4-.62,2.22,0,.96.32,1.84.84,2.56h-.05ZM161.19,140.62c-.3,0-.54-.25-.54-.57s.24-.57.54-.57.54.25.54.57-.24.57-.54.57ZM164.09,143.48c-.57.25-1.05.35-1.55.39.94-.79,1.55-1.98,1.55-3.33,0-.55-.11-1.07-.29-1.55.35.24.69.52,1.08.88.54.51.81,1.35.99,1.98.03.19.06.37.07.57-.48.28-1.84,1.07-1.84,1.07Z"/>
        <path class="cls-1" d="M158.99,145.7l-1.02-.4-2.08-.63s-2.72.08-2.72.08l-.69.09c-.35.05-.61.37-.56.72.05.35.36.6.72.55l.71-.1,2.37-.08,1.75.54,1.12.44c.33.13.67-.04.8-.38.13-.33-.06-.71-.4-.84Z"/>
        <path class="cls-1" d="M210.43,79.59c-.08-.02-.16-.04-.24-.05l-1.13-.15c-1.1-.23-2.2-.3-3.3-.26-2.03.07-4.04.58-5.93,1.47.05-.17.12-.34.16-.51.5-2.4-.08-4.94-1.6-7.52-2.77-4.7-8.73-9.53-17.31-13.89,1.51-1.17,2.47-3.01,2.47-5.05,0-.15,0-.29-.01-.44-.12-1.68-.9-3.15-2.05-4.22-.17-.23-.37-.44-.64-.56-.04-.02-.1-.03-.14-.05,0,0,.02,0,.03,0,0,0-.2-.08-.24-.09-.64-.4-1.34-.67-2.11-.8-.02,0-.16-.06-.16-.06.02,0,.02.02.04.03-.09-.02-.17-.06-.27-.07-9.1-3.1-23.06-3.43-38.42-.92-13.9-1.89-25.75-1.29-33.99,1.59-.06,0-.11.03-.16.04.01,0,.02-.02.04-.03,0,0-.13.05-.15.06-.76.14-1.46.4-2.11.8-.04.02-.23.09-.23.09.01,0,.02,0,.03,0-.04.02-.09.03-.14.05-.27.12-.47.33-.63.56-1.15,1.07-1.94,2.54-2.05,4.22-.01.2-.02.39-.02.59,0,1.68.5,3.12,1.38,4.19-10.12,5.37-16.69,11.58-17.81,17.39-.22,1.17-.24,2.33,0,3.45.04.21.13.41.19.62-1.27-.36-2.57-.56-3.88-.58-1.02-.01-2.05.08-3.07.29.12-.02-1.01.13-1.01.13-.08,0-.16.03-.24.05-7.28,2.06-13.62,8.18-18.45,17.02-.17.18-.29.4-.35.66-6.79,12.8-10.5,31.06-9.49,50.87.82,16.18,4.7,31.24,11.23,43.58,1.32,2.48,2.3,4.26,3.81,6.5-.02-.03,6.96,10.8,6.96,10.8,2.14,3.18,6.3,7.91,8.74,9.96-.03-.02-.2-.21-.23-.24l1.63,1.56,1.01.83c.06.05.21.16.28.21l2.32,1.39c2.37,1.23,3.91,1.76,6.52,1.6.39,0,.78-.03,1.17-.09,2.82-.41,5.45-2.3,6.98-5.15.03-.05.16-.32.16-.32.2-.41.36-.74.5-1.03,3.21,3,6.73,5.92,10.5,8.71-.59.97-.96,2.09-.96,3.29,0,.91.19,1.78.53,2.58-.72,0-1.43-.02-2.11-.05h0c-.68,0-1.33.09-1.96.22-3.79.81-6.58,3.89-6.58,7.57,0,2.22.91,4.17,2.33,5.59,1.03,1.03,2.31,1.8,3.76,2.17.11.07.19.19.32.23,1.24.38,2.56.67,3.91.92,9.6,1.75,21.88.09,34.85-4.49.08.04.13.1.22.13,14.54,5,27.82,6.14,37.47,3.26.1-.03.21-.04.3-.08.08-.02.14-.08.2-.13.28-.11.55-.22.83-.34.28-.1.56-.21.83-.34,2.67-1.29,4.55-3.96,4.55-7.18,0-3.43-2.42-6.31-5.76-7.36-.85-.26-1.74-.44-2.69-.44-.69.04-1.43.05-2.2.05.34-.8.53-1.67.53-2.57s-.38-1.99-.81-2.89c3.69-2.74,7.13-5.62,10.3-8.59.09.42.19.83.3,1.25l.24.97c.03.14.09.3.16.42,1.31,2.44,3.57,4.13,6.15,4.74.62.15,1.25.24,1.9.25,2.85.44,4.44-.23,6.52-1.3.09-.05,2.41-1.44,2.41-1.44.07-.04.21-.16.28-.21l1.09-.89,1.6-1.57s-.25.28-.28.3c2.43-2.04,6.59-6.78,8.72-9.93.02-.03,7-10.86,7-10.86,1.48-2.19,2.9-4.55,4.2-6.99,6.8-12.74,10.69-27.87,11.56-44.97,1-19.79-2.7-38.04-9.47-50.83v-.03c-.04-.49-.28-.87-.63-1.13-4.8-8.59-11.03-14.54-18.19-16.56ZM181.61,63.41c.72.05,1.4.26,2.03.63.08.05.18.06.26.09,8.08,4.83,12.83,9.99,12.83,14.19,0,.36-.04.72-.11,1.06-.28,1.37-1.17,2.64-2.57,3.76-2.07.81-4.1,1.01-6.02.56-.11-.03-.33-.04-.45-.05l-1.77-.05-3.43-.05c-2.85.31-9.5,1.47-11.54,5.46.02-.03.02-.05.04-.08-.07.09-.12.19-.18.29-.29.41-.48.81-.61,1.19-1.79-1.61-4.05-2.71-6.65-2.79l-.79-.02-1.48.02c-.55-1.13-1.07-2.73-1.02-3.47.09-1.39.59-2.53,1.39-3.21.67-.57,1.56-.81,2.63-.7.56.07,1.59.6,2.15.89l.44.23c.64.33,1.41.21,1.94-.29.53-.5.67-1.28.38-1.94-.4-.91-.76-2.05-.75-2.4.08-1.25.64-2.39,1.57-3.2.87-.76,1.98-1.13,3.11-1.05.72.05,1.43.29,2.04.69.67.44,1.57.35,2.14-.21.58-.57.68-1.46.24-2.14-.68-1.06-1.01-1.78-.94-2.77.09-1.38.71-2.62,1.72-3.51.96-.83,2.17-1.24,3.4-1.15ZM176.44,142.12c-.04-.08-1.84-2.67-1.84-2.67-.95-1.13-1.7-2.02-1.7-4.34,0-.54.08-1.24.16-1.96.59.05,1.16.03,1.67-.01.32,1.52,1.1,3.5,3.26,4.75.16.58.33,1.22.33,1.22.13.47.26.93.38,1.38.04.14.07.29.1.43.09.36.16.73.22,1.1.02.13.05.27.07.41.06.49.1.98.1,1.5,0,.05,0,.1,0,.15-.01.55-.06,1.11-.18,1.72-.27,1.45-.79,2.74-1.43,3.61-.21.29-.44.53-.67.72-.3.24-.58.37-.86.41-.65.08-1.11,0-1.36-.26-.1-.1-.13-.27-.2-.41.45-.13.92-.35,1.42-.82,1-.95,1.31-2.19,1.31-3.37,0-1.72-.66-3.3-.79-3.57ZM172.25,152.7c.26.26.6.53,1.02.76-.64,4.94-1.85,10.95-5.06,16.28-.42.7-.81,1.31-1.2,1.87-.14.14-.25.3-.33.48-1.35,1.89-2.66,3.2-4.64,4.97-1.71,1.53-2.75,2.31-4.83,3.64l-2.66,1.78c-3.23,2.22-5.48,3.73-9.33,3.85l1.19-.21,1.62-.34c.35-.07.65-.42.58-.77-.07-.35-.33-.58-.68-.51l-1.87.38-1.34.25-1.12-.25-2.17-.39c-.35-.06-.56.18-.63.53-.06.35.28.69.63.76l1.8.34,1.07.22s-.08,0-.12,0c-2.04-.06-3.56-.37-4.91-.85,0,0-.02,0-.03-.01-1.33-.48-2.51-1.12-3.86-1.87l-3.66-1.89-2.47-1.06c-2.08-.85-3.46-1.41-6.31-3.81-2.92-2.47-4.07-4.6-5.84-8.15-3.13-6.27-4.01-10.42-3.54-16.61.09-.08.19-.16.27-.24,1.81-1.83,1.48-4.77,1.43-5.1-.08-.59-.58-1-1.13-1.24-.49-.22-1.13-.07-1.61.21-.17-.17-.24-.47-.24-.85,0-.68.22-1.58.49-2.2,0,.02,1.33-1.85,1.33-1.85,1.46-1.74,3.12-3.7,2.26-9.53,0,0-.19-.52-.37-1.02.75-1.89.41-4.16.36-4.44-.09-.54-.44-1-.93-1.25-.49-.24-1.08-.24-1.56.02-.12.06-.26.08-.4.12h0c.14-.06.3-.12.3-.12.65-.23,1.68-.61,2.52-1.6l.09.06c1.75.9,4.5.91,6.38-.84,2.95-2.75,2.42-5.92,1.73-7.21-.12-.21-.28-.39-.47-.54.18.02.37.05.54.06,1.42.08,3.91-.08,6.22-1.6,1.28,1.07,2.85,1.74,4.24,1.74,2.95,0,5.39-1.42,6.81-3.89.38-.22.75-.47,1.09-.75,1.31,2.99,4,4.92,7.33,4.92,1.88,0,4.31-1.03,5.71-2.76,1.5,1.63,3.27,2.42,4.84,2.78-.05.06-.12.1-.16.18-.69,1.29-1.23,4.46,1.73,7.21,1.87,1.74,4.63,1.74,6.38.84l.09-.06c.84.99,1.87,1.37,2.52,1.6,0,0,.16.06.3.12h0c-.14-.03-.28-.05-.4-.12-.49-.25-1.07-.26-1.56-.02-.49.24-.84.7-.93,1.25-.11.65-.51,3.79,1.13,5.7l-.17.47c-.16,1.11-.24,2.08-.24,2.94,0,3.63,1.31,5.18,2.49,6.59l1.37,1.93c.25.57.46,1.44.46,2.11,0,.38-.07.69-.24.86-.48-.27-1.12-.42-1.61-.21-.55.24-1.05.65-1.13,1.24-.04.33-.38,3.27,1.43,5.1ZM160.8,206.12c-1.32,1.3-2.57,2.52-4.07,3.45-8.4,5.16-19.09,10.63-35.31,13.17-.75-.22-1.28-.95-1.28-1.79s.57-1.62,1.35-1.81c.01,0,.04-.01.07-.02.13-.02.24-.06.36-.11.37-.11.84-.25.84-.25,8.47-2.96,20.06-7.43,27.57-12.09,2.39-1.48,4.52-3.33,6.58-5.12l.33-.27c.59,2.06,2.09,3.7,4.04,4.43l-.48.43ZM163.2,208.57l1.38-1.24c.41,2.43,2.02,4.42,4.18,5.35l-4.66,3.02-1.56.97c-15.91,9.88-35.73,15.12-49.8,15.9-.79-.56-1.27-1.47-1.27-2.48,0-.78.35-1.51.9-2.07.17-.1.31-.23.45-.38.51-.37,1.12-.6,1.76-.6,21.1-1.97,34.05-8.46,43.95-14.54,1.83-1.14,3.27-2.55,4.67-3.92ZM126.89,212.23s.65.38,1.44.85c-2.12.8-4.31,1.61-6.63,2.42,0,0-.07.02-.17.05-1.6-1.02-3.17-2.08-4.71-3.16,2.09-.96,3.63-2.93,4.02-5.31l1.38,1.23c1.4,1.37,2.84,2.78,4.67,3.92ZM124.14,205.44c1.95-.73,3.45-2.37,4.04-4.43l.33.27c2.06,1.79,4.19,3.64,6.58,5.12,1.4.87,2.65,1.59,3.92,2.27-2.04.92-4.24,1.86-6.61,2.81l-3.7-2.18c-1.5-.93-2.75-2.15-4.07-3.45l-.48-.42ZM148.53,203.75c-1.6.99-3.49,2.03-5.62,3.08-2.08-1.02-3.86-2-6.01-3.34-1.04-.65-2.06-1.4-3.05-2.19.05,0,.11,0,.16-.01-.02,0-.04.01-.07.01.13,0,.26-.02.39-.05,4.59-.21,8.27-4.08,8.27-8.84,0-.84-.3-1.86-.67-2.83.67.08,1.36.14,2.13.17.78.02,1.5,0,2.19-.06-.28.84-.49,1.72-.49,2.5,0,4.2,2.86,7.71,6.69,8.63-1.27,1.06-2.58,2.08-3.94,2.92ZM110.17,148.2c.49.46.97.68,1.42.81-.06.14-.1.32-.2.41-.25.25-.71.34-1.36.26-.34-.04-.68-.23-1.05-.58-.86-.82-1.57-2.37-1.91-4.15-.13-.69-.19-1.33-.19-1.95,0-1.67.41-3.12.87-4.74l.33-1.22c1.39-1.21,1.97-2.71,2.25-3.94,0-.04.02-.08.03-.12.08,0,.16,0,.23.02.1,0,.2.01.31.02.12,0,.25,0,.37,0,.07,0,.14,0,.22,0,.12,0,.25,0,.38-.01.09,0,.19-.01.29-.02.1,0,.2-.02.31-.04.17-.02.34-.06.52-.1.03,0,.06,0,.09-.02.04.48.12,1.01.12,1.41,0,2.31-.75,3.2-1.7,4.33l-1.81,2.59c-.15.32-.82,1.92-.82,3.66,0,1.18.31,2.42,1.31,3.36ZM118.8,75.88c-.15-2.18-1.12-4.15-2.74-5.56-1.55-1.35-3.52-2.01-5.55-1.88.03-.27.15-.48.15-.77,0-.16,0-.32-.02-.48-.16-2.29-1.18-4.37-2.89-5.86-.24-.21-.5-.36-.75-.54-.28-.19-.56-.38-.85-.53.23-.11.41-.27.57-.47,1.6-.75,3.29-1.49,5.06-2.2-.03,0-.05.03-.08.03l1.23-.26c.69-.05,1.36.07,1.98.33.47.19.91.43,1.3.78.98.85,1.57,2.05,1.66,3.37.08,1.18-.25,2.34-.94,3.28-.42.57-.36,1.32.02,1.92.38.6,1.17.87,1.87.73l1.75-.36c.62-.04,1.3.17,1.84.64.67.58,1.07,1.51,1.15,2.63.03.41-.35,1-.72,1.58l-.3.49c-.38.61-.23,1.33.21,1.9.43.57,1.29.75,1.97.55l1.33-.4c.74-.05,1.46.19,2.03.69.61.53.98,1.29,1.04,2.12.04.66-.12,1.3-.46,1.85-.6.34-1.18.69-1.71,1.05-.36-.88-.9-1.68-1.62-2.36-1.55-1.46-3.77-2.16-6.11-1.93-.15.02-.29.09-.44.12,0-.08.05-.17.05-.24s0-.14,0-.21ZM133.44,62.19c6.16-1.51,11.69-2.5,16.49-2.94,7.86-.71,15.48-.69,22.25.06.08.04.14.1.22.13.87.31,1.47,1.13,1.54,2.1.09,1.32-.85,2.47-2.1,2.56,0,0-.44-.01-.44-.01-.04,0-3.59-.38-3.59-.38-5.47-.14-10.5.08-15.07.66-5.86.74-11.62,1.9-16.9,3.34,0-.11.02-.22.02-.33,0-2.18-.91-4.01-2.4-5.19ZM169.69,67.35c.69.07,1.3.14,1.3.14-.04,0,1.09.03,1.09.03.37-.03.73-.1,1.08-.19-.02.17-.07.33-.08.51-.01.16-.02.32-.02.48,0,.29.11.5.15.77-1.14-.07-2.25.13-3.28.54.04-.31.04-.63.02-.96-.03-.46-.12-.9-.25-1.31ZM164.95,76.97c-.14-.03-.27-.1-.41-.12-2.03-.2-3.83.32-5.22,1.49-.96.81-1.65,1.92-2.09,3.2-.63-.42-1.3-.84-2.01-1.25-.44-.59-.66-1.3-.61-2.06.06-.83.43-1.59,1.04-2.12.57-.5,1.29-.74,2.03-.68l1.33.4c.68.21,1.54.02,1.97-.55.26-.35.4-.75.4-1.15.91-.05,1.83-.09,2.74-.1.09,0,1.29-.08,1.29-.08.05,0,.09-.01.14-.02-.34.81-.58,1.68-.64,2.59,0,.07,0,.14,0,.21s.04.16.04.23ZM166.3,118.58c1.34-.75,1.87-2.08,1.87-3.37,0-.41-.08-.81-.19-1.19.61-.32,1.16-.71,1.66-1.13.14.38.26.81.34,1.31,0,.05.01.11.02.16.03.21.06.42.08.66.02.29.04.6.04.92l-.2,1.4s0,.02-.01.04c-.24.77-.71,1.41-1.48,1.98l-1.26.77c-.48.25-1.7.42-2.48-.3-.39-.37-.6-.7-.78-1.03.77.19,1.6.22,2.39-.22ZM164.03,115.2c.15-.03.39-.09.68-.15,0,.07.02.14.02.22,0,.09-.04.15-.07.21-.16-.04-.39-.14-.63-.28ZM167.82,98.86l-.17-.06c-.5-.18-1.05-.53-1.5-.24-.45.28-.74.35-.79.87l-.16,1.76c.07.41.11.73.11.98,0,.66-.28.85-.92,1.01-.68-.63-1.09-4.12-1.29-5.83l-.22-1.83c-.04-.33-.12-.68-.21-1.04,0-.02,0-.04-.02-.06-.28-1.08-.77-2.22-1.41-3.36.55,0,1.27,0,1.27,0l.81.02c3.39.1,6.2,3.13,7.2,6.17l.28,1.17s.02.03.02.05l.11.72s.04,1.41.05,1.86c-.76-.97-1.82-1.7-3.19-2.18ZM162.48,106.05c.79.54,1.72.71,2.71.46,1.35-.33,2.77-1.18,3.29-2.99.31.53.55,1.21.55,2.29,0,.67-.08,1.46-.27,2.41l-.37.94s0,.01-.01.02c-.73,1.3-2.16,1.96-2.95,2.24l-1.72.39c-2.32.12-5.4-.6-6.87-4.78,0,.02.06.21.06.24-.01-.03-.15-.45-.27-.82l-.06-.2s0-.04,0-.06l-.47-2.56c-.05-.48-.12-.94-.19-1.37-.55-3.17-1.78-5.24-3.89-6.62.02.02-.78-.43-1.2-.66-.03-.02-.05-.05-.09-.07l-.48-.24c-1.38-.67-2.15-1.04-2.49-2.53-.07-.29-.11-.57-.15-.84-.01-.11-.01-.21-.02-.31-.01-.16-.03-.32-.03-.48,0-.05,0-.09,0-.14,0-.37.05-.71.13-1.01.12-.21.56-.96.69-1.19.1-.07.21-.16.21-.16,3.48-1.98,6.57.72,8.1,2.51,1.7,1.98,2.63,4.17,2.8,5.47l.21,1.77c.41,3.58.8,6.95,2.77,8.32ZM117.68,117.27c.29.44.61.87,1.13,1.17.79.44,1.62.41,2.39.22-.18.33-.39.67-.78,1.03-.77.72-1.99.55-2.48.3,0,0-.17-.11-.37-.23.08-.57.13-1.18.13-1.86,0-.2-.02-.42-.02-.63ZM120.45,115.33c-.03-.06-.07-.11-.07-.21,0-.23.07-.49.07-.5.13-.41.21-.78.29-1.17.59.29,1.2.52,1.8.69-.26.07-.5.19-.7.37-.44.39-1.05.73-1.38.81ZM120.38,108.96c-.35-.45-.58-.92-.69-1.45-.19-.95-.27-1.74-.27-2.41,0-1.08.24-1.75.55-2.28.52,1.81,1.93,2.66,3.29,2.99.99.24,1.92.09,2.71-.46,1.97-1.37,2.36-4.75,2.77-8.32l.11-.95c.02-.15.1-.82.1-.82.13-1,.66-2.32,1.46-3.61.45-.74,4.54-7.15,9.44-4.36.82.47,1.16,1.49,1.01,3.03l-.17,1.1h0s0,0,0,0c-.22.96-.62,1.38-.97,1.66-.08.07-1.5.86-1.5.86-2.1,1.03-4.97,2.43-5.78,8.36h0s0,0,0,0l-.07.47c-.01.08-.02.14-.02.14-.12,1.14-.33,2.18-.65,3.16-.46,1.41-1.12,2.53-1.96,3.34-1.6,1.54-3.6,1.77-5,1.7-1.08-.06-3.22-.69-4.36-2.13ZM139.05,99.1c-.07.35-.14.7-.22,1.03-.59-.23-1.29-.38-2.09-.43.54-1.07,1.23-1.72,2.05-2.18l.27,1.58ZM133.58,110.04c.5.45,1.07.83,1.69,1.12-.08.02-.16.06-.25.06-.45,0-1.09-.33-1.71-.78.09-.13.19-.27.28-.41ZM135.15,106.4c.26-.95.47-1.93.59-2.98.18-.16.36-.34.52-.34,1.26,0,1.79.38,1.89.52l-.06-.14c.23.52.73.98,1.29,1.08.56.1,1.17,0,1.57-.41.19-.2.38-.56.55-.98.21.18.43.34.66.5-.02.34-.04.65-.06.93v.18c-.03.28-.04.54-.06.73-.47,1.17-1.22,2.04-2.2,2.49-.58.26-1.22.4-1.92.4-1.15,0-2.36-.92-2.77-1.97ZM142.13,97.04l.03-.25c.05-.41.16-1.22.19-1.51.44-.44.8-.93,1.08-1.49,0,.2.02.42.04.64,0,.07.01.14.02.21.02.21.04.42.07.64,0,.07.01.14.02.22.07.58.17,1.16.31,1.7.02.07.04.14.06.21.06.2.12.38.19.56.03.07.05.14.08.2.1.23.21.44.33.61.35.49.93.75,1.52.7.6-.05,1.12-.4,1.39-.94.34-.67.48-.83.53-.87.09,0,.41,0,1.21.28.18.08.69.36.69.36.1.07.23.2.33.44.01.02.02.06.03.08.03.1.05.22.07.36,0,.07.02.13.02.21,0,.2,0,.43-.03.72-.06.46-.24,1.84-2.67,1.77-1.08-.03-2.11-.28-2.98-.72-1.14-.56-1.91-1.42-2.28-2.54l-.28-1.61ZM145.5,105.07c.23.05.46.09.69.13.15.56.4,1.17.78,1.72.02.03.05.06.07.09.16.22.35.42.56.6.07.06.13.12.2.17.27.2.57.38.93.49.67.22,1.4,0,1.85-.53.41-.5.8-.74,1.17-.85.11-.03.21-.03.31-.04.07,0,.15-.03.21-.03.17,0,.33.03.49.06.31.07.46.19.59.46l.18.56s.11,1.3.11,1.3c0,.98-1.94,2.29-3.41,2.29-2.81,0-4.74-2.25-4.79-5.6,0,0,.02-.4.05-.85ZM165.02,70.55c-.27.02-1.02.06-1.02.06-5.14.06-10.45.67-15.69,1.82-2.75.6-5.33,1.29-7.76,2.03-.29,0-.58.07-.83.21-.1-1.61-.77-3-1.87-3.98,4.82-1.25,10.03-2.25,15.31-2.93,3.64-.46,7.6-.68,11.77-.67.2.21.43.38.73.47.53.16.82.6.87,1.31,0,.05,0,.11,0,.18,0,.41-.16,1.17-1.51,1.48ZM152.08,75.19c-.49.85-.81,1.8-.87,2.81,0,.07,0,.15,0,.22-1.11-.51-2.29-1-3.51-1.48l-.24-.58c.54-.13,1.05-.26,1.6-.38,1.01-.22,2.02-.41,3.04-.59ZM138.62,78.69c.68-.24,1.4-.47,2.12-.7,1.53.45,3.02.94,4.43,1.46.39.54,1.02.77,1.67.64,2.39.94,4.55,1.96,6.41,3.01.04.02.08.05.13.07,1.32.76,2.49,1.53,3.47,2.31.04.19.08.39.13.59-3.18-2.44-6.74-2.9-9.95-1.14-.09.01-.17.01-.26.04-1.07.37-2.1.96-3.06,1.73-.46-1.03-1.18-1.86-2.16-2.42-4.74-2.7-9.51-.33-12.69,3.6-.72-.2-1.55-.34-2.44-.43.66-1.18.9-2.25.98-3.09.75-.6,1.63-1.18,2.58-1.75.35-.07.69-.23.95-.52.02-.03.04-.06.06-.08,1.66-.92,3.59-1.79,5.72-2.61.74.22,1.52-.05,1.91-.72ZM126.86,90.98c-.51,1-.89,1.99-1.11,2.9-.08.32-.15.62-.19.92,0,0-.09.7-.09.7-.02.16-.13,1.13-.13,1.13-.2,1.71-.61,5.21-1.29,5.84-.63-.16-.92-.33-.92-.99,0-.25.04-.58.12-.99l-.16-1.75c-.05-.53-.34-.59-.78-.87-.45-.29-1,.07-1.5.24l-.17.06c-.45.16-.85.34-1.23.55-.12.07-.23.14-.34.21-.25.16-.5.32-.72.51-.11.09-.21.18-.32.28-.21.2-.41.42-.59.65-.07.09-.15.17-.21.26-.23.33-.43.68-.59,1.06-.03.07-.05.15-.08.22-.13.32-.23.66-.32,1.01-.03.14-.06.29-.08.44-.06.31-.09.63-.12.97-.01.16-.03.32-.03.49,0,.1-.02.18-.02.28,0,.26.03.54.05.81.01.18.01.35.03.54.06.56.14,1.15.26,1.76.01.07.05.14.07.21-.61.22-1.15.61-1.62,1.19,0,.01-.02.02-.02.03-.21.26-.4.55-.58.88-.04.08-.08.15-.12.23-.18.36-.36.76-.51,1.2l-.65,2.24c-.93,3.47-1.56,4.92-3.07,4.92-.81,0-1.52-.79-1.97-1.46l-.23-.36s-.84-1.77-.84-1.77c-.08-.21-.14-.39-.2-.55-.02-.05-.03-.09-.04-.13-.04-.12-.08-.24-.11-.34-.01-.04-.03-.08-.04-.12-.03-.12-.06-.23-.08-.34,0-.02,0-.03,0-.05-.02-.12-.03-.25-.03-.38,0-.03,0-.07,0-.1,0-.11,0-.23.02-.36,0-.05,0-.1.02-.15,0-.08.03-.18.04-.28.07-.2.1-.4.1-.61l.12-.64c.06-.28.26-.61.58-.92h0c.08-.08.17-.13.26-.2.93,1.44,2.24,1.44,3.04,1.27,3.25-.71,3.54-5.53,3.63-9.73,0-.28,0-.56.01-.83l.06-2.01.18-1.07c.77-3.51,4.05-6.54,7.63-7.06.03,0,.07,0,.11,0,.39.11.8.08,1.18-.1,1.22-.05,2.55.03,3.59.18ZM117.55,111.62c0,.22-.03.49-.08.81-.01-.2-.06-.38-.13-.54.12-.18.2-.26.21-.27,0,0,0,0,0,0ZM110.69,100.65c0,.2,0,.33,0,.33-.03,1.56-.13,5.21-.72,6.67-.08-.21-.17-.43-.17-.43-.24-.6-.68-.79-1.32-.85-.17-.02-.36.03-.54.05.04-.24.08-.49.16-.69l.42-1.03c.83-2.05,1.43-3.3,2.18-4.14,0,.04,0,.06,0,.09ZM109.63,96.95c-2.21,1.36-3.16,3.69-4.29,6.46l-.42,1.02c-.52,1.25-.57,2.54-.61,3.69l-.03.52c-.1.12-.18.24-.26.36-1.62-1.7-3.47-3.9-4.31-5.4-1.77-3.16-1.94-4.35-2.31-6.96l-.14-.98c-.25-1.4-.64-2.54-1.19-3.93-.73-1.87-1.69-3.55-2.82-5.05.96.01,1.91-.04,2.85-.23.14,0,1.92-.05,1.92-.05l2.96-.07c4.54.49,8.23,2.03,8.95,3.72.06.15.14.28.24.41.26.32.28.47.34,1.3,0,0,.05.55.09.93-.08.35-.66,2.89-.98,4.27ZM103.35,116.08c-.54-.18-.98-.62-1.15-.88-.12-.18-.11-.38-.2-.58.33.07.65.07.95.04.08.46.21.91.4,1.42ZM102.23,121.64c0-.7-.06-1.48-.17-2.33.4.15.8.25,1.23.29.23.04.45.07.69.06l.17.02s.05,0,.08,0c-.34,1.08-.72,2.19-1.15,3.26-.05.13-.12.25-.17.38-.17.4-.34.79-.53,1.16-.25.49-.52.96-.81,1.39-.02.03-.03.05-.04.08-.95,1.37-1.99,2.14-3.18,2.33-.02,0-.25.05-.25.05-.35.03-1.05.04-1.46-.37-.11-.11-.09-.39-.17-.56.35.11.7.22,1.12.19,1.49-.1,2.65-.65,3.44-1.63.82-1.01,1.23-2.41,1.23-4.32ZM101.89,130.4c.1.49.17.88.17,1.11s-.08.31-.18.4c-.03-.02-.39-.29-.39-.29-.31-.23-.67-.26-1.04-.2,0-.09-.01-.15-.02-.21.51-.21,1-.48,1.46-.81ZM101.46,145.6c1.08-.83,1.67-1.63,2.01-2.4.01.75.08,1.54.24,2.39,0,0,0,0,0,0,.22,1.18.76,3.17,1.94,4.83-.13.18-.28.39-.28.39-.25.29-.65.63-1.07.64-.38,0-.69-.25-.85-.41-.09-.1-.32-.45-.35-1.61-.02-.87-.84-1.66-1.71-1.74-.03,0-2.27-.41-2.8-2.01.31.19.64.33,1.01.39l1.85-.48ZM102.71,138.76c.46.05.91.04,1.36,0-.19.72-.35,1.46-.47,2.24-.16-.83-.49-1.58-.9-2.24ZM105.62,134.65c-.09.06-.33.21-.33.21-.94.49-2.11.65-2.69.37.39-.1.81-.16,1.1-.34,1.38-.89,1.78-2.1,1.78-3.36,0-.96-.23-1.95-.44-2.84,0,0-.14-.66-.25-1.22l-.05-.25c1.04-1.68,1.82-3.62,2.45-5.5.98.62,1.91.8,2.65.8.37,0,.71-.04,1.04-.1-.46.48-.83,1.15-.83,2.17,0,.17,0,.35.03.54.17,1.62,1,2.37,1.66,2.72.42.22.85.28,1.27.3-.05.42-.13.82-.29,1.07l-.11.14c-.51.43-2.01.26-2.72.17l-.94-.08c-.46-.04-.84.11-1.19.41-.35.3-.49.73-.52,1.18-.13,1.83-.62,2.94-1.6,3.61ZM172.39,110.03c.04.06.07.12.11.18.31.48.7.87,1.17,1.15.06.03.12.07.18.1.25.13.5.23.8.3.31.07.6.09.88.06.56-.05,1.05-.29,1.5-.7.22-.2.43-.45.62-.74.03.04.05.06.08.11l.6,1.13s.25.85.25.85c.03.09.04.17.07.25.1.37.19.7.25,1.02.02.09.03.18.05.27.05.3.09.59.09.87,0,.02,0,.05,0,.08,0,.24-.06.51-.1.76-.03.17-.02.33-.07.51,0,.01-.01.03-.01.04,0,0,0,0,0-.02l-.46,1.05s-.66.84-.66.85h0c-.35.34-.76.62-1.18.8-.21.09-.42.16-.63.21-.21.05-.42.07-.63.07-.59,0-1.27-.19-1.98-1.68,0-.04,0-.07.02-.11.1-.69.22-1.5.22-1.5,0-.67-.05-1.28-.13-1.86-.02-.11-.03-.23-.05-.33-.09-.56-.21-1.07-.35-1.54,0-.02-.01-.04-.02-.05-.32-1.01-.74-1.82-1.19-2.46.06-.17.13-.33.18-.47h0c.12.29.26.55.41.8ZM174.42,100.71c.76.83,1.35,2.09,2.18,4.14,0,0,.39.94.41,1-.04,0-.08,0-.12,0-.64.06-1.08.25-1.32.84l-.31.77c-.02.07-.07.21-.11.33-.6-1.45-.7-5.1-.72-6.67,0,0,0-.29-.01-.42ZM177.9,131.19c-.03-.46-.18-.88-.52-1.18-.35-.3-.73-.45-1.19-.41l-.93.08c-.74.08-1.96.23-2.6-.09l-.15-.08c-.21-.18-.32-.66-.39-1.2.42-.03.84-.08,1.26-.3.66-.35,1.49-1.1,1.66-2.72.02-.19.03-.37.03-.54,0-1.03-.37-1.7-.83-2.18.33.06.68.1,1.04.1.91,0,1.83-.23,2.71-.63.62,1.83,1.39,3.69,2.4,5.33l-.12.57c-.06.28-.12.55-.15.72l-.04.19c-.21.89-.44,1.88-.44,2.84,0,1.26.4,2.47,1.78,3.36.28.18.7.24,1.08.34-.52.24-1.46.16-2.37-.23-.15-.06-.31-.13-.31-.13-1.2-.63-1.78-1.78-1.92-3.82ZM182.42,138.86c-.15.23-.29.46-.42.72-.06-.22-.12-.44-.18-.65.03,0,.05-.01.07-.02.18,0,.35-.03.52-.05ZM182.38,146.45c.11-.58.17-1.14.2-1.67.3.32.65.65,1.08.98,0,0,1.85.48,1.85.48.39-.06.73-.22,1.05-.42-.47,1.62-2.81,2.04-2.83,2.04-.87.07-1.69.86-1.71,1.74-.03,1.16-.25,1.52-.35,1.61-.15.16-.46.42-.84.41-.17,0-.33-.07-.49-.16.95-1.3,1.67-3.03,2.04-5ZM184.66,131.56c-.37-.06-.73-.03-1.04.19,0,0-.37.28-.4.29-.09-.09-.17-.17-.17-.4s.07-.61.17-1.1c.47.33.96.6,1.46.81,0,.05-.01.12-.02.2ZM183.61,126.09s-.03-.05-.04-.07c-.29-.43-.57-.9-.82-1.4-.18-.35-.34-.73-.51-1.11-.06-.15-.13-.29-.2-.44-.43-1.06-.81-2.17-1.15-3.25l.25-.02c.23.01.46-.02.69-.06.42-.04.83-.14,1.23-.29-.11.85-.17,1.63-.17,2.33,0,1.91.4,3.31,1.23,4.32.8.98,1.96,1.53,3.45,1.63.41.03.77-.08,1.11-.19-.07.17-.06.45-.16.56-.41.4-1.1.4-1.48.36,0,0-.21-.04-.23-.04-1.19-.19-2.23-.96-3.18-2.33ZM182.44,114.85c.25,0,.51-.03.77-.1-.09.2-.17.41-.29.59,0,0,0,0,0,0,0,0,0,.01-.01.02-.1.15-.29.37-.52.57.03-.23.04-.46.05-.68.01-.1.03-.2.03-.3,0-.04-.02-.07-.02-.1ZM181.09,109.61c-.09-.17-.17-.34-.24-.49l-.05-.87c-.04-1.14-.09-2.43-.61-3.68l-.42-1.01c-1.37-3.35-2.5-6.04-5.9-7.17-.03-.08-.06-.17-.09-.25-.27-1.12-.61-2.53-.68-2.81.04-.38.09-.91.09-.91.06-.83.08-.98.34-1.3.1-.12.18-.26.24-.41.72-1.7,4.41-3.23,8.96-3.73,0,0,2.94.07,2.94.07,0,0,1.79.05,1.93.05,1.53.32,3.1.33,4.68.07-.86,1.28-1.61,2.68-2.21,4.2-.55,1.4-.93,2.54-1.18,3.88,0,.05-.15,1.03-.15,1.03-.37,2.6-.54,3.79-2.31,6.96-.89,1.59-3.43,4.44-5.36,6.38ZM177.25,60.61c.16.08.33.15.48.23-.14.07-.29.11-.43.19-.02-.14-.03-.28-.06-.42ZM132.68,51.25c2.34-.51,4.67-.96,6.98-1.34.02,0,.03,0,.05,0,.33.04.63-.03.92-.16,15.52-2.46,29.74-1.96,37.95,1.45.81.46,1.47,1.18,1.53,2.2,0,.07,0,.14,0,.21,0,1.51-1.12,2.79-2.57,2.9,0,0-.43,0-.43,0,0,0-1.52-.22-1.52-.22-3.92-.58-8.18-.9-12.64-.97-4.3-.07-8.78.1-13.34.51-5.2.47-11.21,1.56-17.9,3.24.03-.17.09-.32.11-.49.04-.33.06-.65.06-.97,0-1.33-.35-2.6-.99-3.72-.25-.44-.54-.86-.88-1.25-.21-.23-.46-.42-.69-.62,1.1-.27,2.21-.53,3.35-.78ZM126.56,63.09c.26.66.98,1.08,1.69,1.08h1.78c1.99.25,2.54,2.21,2.35,3.81-.05.4-.53.91-.99,1.4l-.39.42c-.48.52-.47,1.26-.16,1.9.32.64,1.12.98,1.82.92l1.38-.13c1.59.2,2.45,1.36,2.25,3.01,0,0-.09.22-.21.5-1.25.47-2.44.96-3.56,1.47,0-.04,0-.07,0-.11-.12-1.75-.9-3.34-2.21-4.47-1-.87-2.22-1.31-3.5-1.43.05-.25.17-.46.17-.73,0-.09,0-.18,0-.28-.14-2.03-.96-3.8-2.32-4.98-1.02-.89-2.28-1.33-3.64-1.41.14-.62.3-1.24.3-1.87,0-.19,0-.38-.02-.57-.13-1.99-.97-3.79-2.31-5.18-.17-.18-.32-.38-.51-.55-.22-.19-.46-.33-.7-.5,1.97-.67,4.02-1.31,6.14-1.91,0,0,.02,0,.03,0,1.22,0,2.29.38,3.09,1.06.15.13.31.24.44.39.77.87,1.12,2.03.97,3.26-.09.75-.36,1.45-.75,2.07-.3.2-.5.47-.63.8-.05.05-.09.11-.14.15-.52.48-.61,1.22-.35,1.88ZM103.6,54.06c.07-1.03.74-1.75,1.56-2.21,5.5-2.3,13.43-3.32,22.74-2.99-6.2,1.54-11.98,3.41-17.19,5.51-.11.02-.2.04-.2.04.03,0,.07,0,.1,0-1.99.8-3.91,1.64-5.72,2.51-1.11-.41-1.3-1.67-1.3-2.49,0-.13,0-.26.01-.37ZM90.98,70.12c2.1-2.16,5-4.38,8.6-6.55.17-.04.34-.08.49-.17.62-.37,1.3-.58,2.03-.63.26-.02.51,0,.77.02.96.09,1.88.47,2.64,1.13,1.02.89,1.63,2.13,1.72,3.5.07.99-.26,1.71-.94,2.78-.43.68-.33,1.57.24,2.14.58.57,1.47.65,2.14.21.62-.41,1.3-.64,2.03-.69,1.13-.08,2.23.29,3.11,1.05.93.81,1.49,1.95,1.57,3.2,0,.33-.36,1.48-.76,2.39-.29.66-.15,1.45.38,1.94.53.5,1.29.62,1.94.29l.45-.23c.55-.29,1.58-.82,2.17-.89,1.32-.13,2.56.24,3.39,1.01.73.69,1.09,1.64,1.05,2.75.04.67-.04,2.36-1.97,4.08-.19.02-.38.04-.55.06-2.9.42-5.57,1.99-7.54,4.17v-.16c-.07-.88-.18-1.88-.95-2.96-.05-.09-.09-.19-.16-.27.02.03.02.05.04.08-2.04-3.99-8.7-5.15-11.54-5.46l-3.44.06-1.77.05c-.12,0-.34.02-.45.05-1.92.46-3.95.26-6.02-.56-1.4-1.13-2.29-2.39-2.57-3.76-.07-.35-.11-.7-.11-1.06,0-2.28,1.39-4.87,4-7.56ZM57.59,103.96c.65,1.65,1.66,3,2.92,4,1.54,1.23,3.46,1.95,5.65,1.95.9,0,1.79-.16,2.65-.42,1.16,3.41,3.91,5.52,7.75,5.52,1.85,0,3.59-.63,5.06-1.67,1.28,3.56,4.41,6.1,8.12,6.1,3.05,0,5.87-1.56,7.54-4.18.51-.8.28-1.86-.52-2.37-.8-.51-1.86-.28-2.37.52-1.04,1.62-2.78,2.6-4.65,2.6-2.94,0-5.34-2.76-5.34-6.15,0-.76-.5-1.43-1.24-1.65-.73-.21-1.52.08-1.92.73-1.04,1.65-2.8,2.63-4.69,2.63-2.83,0-4.59-1.63-4.93-4.6-.07-.57-.42-1.07-.93-1.34-.52-.26-1.13-.24-1.63.05-.88.51-1.89.78-2.91.78-1.7,0-3.12-.61-4.16-1.72-1.03-1.1-1.68-2.69-1.84-4.66,0,0,.08-1.52.09-1.67,4.29-7.8,9.82-13.21,16.14-15.1.06-.02.13-.04.19-.06.24-.03.96-.13.96-.13,6.21-1.28,12.61,2.86,15.34,9.83.48,1.24.8,2.16,1,3.24,0,0,.13.91.13.91.4,2.76.63,4.42,2.71,8.14.69,1.24,1.9,2.81,3.17,4.28-.28.16-.52.39-.69.68-.17.28-.99,1.75-1.06,2.75-.07,1.11.22,2.3.78,3.39-.21.71-.36,1.43-.36,2.18,0,.35.02.7.07,1.06.11.82.15,1.49.15,2.03,0,1.41-.29,1.96-.45,2.16-.07.09-.28.28-.91.35-.13-.09-.38-.34-.59-.7-.29-.5-.86-.74-1.43-.77-.57-.03-1.17.29-1.52.75-.68-.09-1.37.23-1.72.87-1.07,1.95-3.08,3.16-5.23,3.16-3.32,0-6.02-2.81-6.02-6.27,0-.87-.65-1.6-1.51-1.7-.86-.1-1.66.46-1.87,1.3-.61,2.54-2.95,4.19-5.94,4.19-2.75,0-5.15-1.94-5.83-4.71-.13-.54-.52-.99-1.04-1.19-.52-.2-1.1-.14-1.57.17-1,.67-1.72.89-2.84.89s-2.54-.24-3.8-1.61c-.86-.93-1.65-2.39-2.24-4.68,0-.03-.03-.06-.04-.09.94-3.49,2.07-6.76,3.35-9.78ZM52.91,119.38c.78,1.21,1.66,2.1,2.58,2.73,1.6,1.09,3.33,1.44,4.84,1.44,1.09,0,2.02-.23,2.94-.58,1.57,3.23,4.71,5.42,8.34,5.42,2.83,0,5.25-1.14,6.98-2.92,1.56,3.17,4.67,5.41,8.36,5.41,2.28,0,4.43-.86,6.12-2.33.29.84.73,1.45,1.14,1.85.74.73,1.73,1.16,2.84,1.3l.1,1.04.21,1.94c.19,2.36,1.32,4.08,2.14,5.33.59.9.89,1.36.89,1.72,0,.22-.15.42-.38.64-.22-.27-.45-.57-.58-.76l-1.14-1.18c-.42-.44-.84-.27-1.42-.13-.59.14-.86.92-1.05,1.5l-.34,1.06-.5,1.84c0,.14-.01.28-.01.42,0,1.65.66,3.09,1.92,4.19.87.76,1.93,1.19,2.91,1.47.13.84.42,1.86,1.19,2.65.93.96,2.13,1.48,3.38,1.45.92-.02,2.28-.35,3.56-1.79,0,0,.13-.18.3-.41.45.2.92.35,1.4.41.16.02.3.02.44.03-.3,6.14.78,10.72,3.97,17.1.34.69.67,1.33,1,1.94-.52.2-1.08.32-1.66.34-2.11-.63-3.31-1.41-4.85-4.13-.03-.06-.07-.11-.1-.16l-1.48-2.04c-2.35-5.34-7.42-9.02-13.41-9.86-1.3-6.86-2.06-15.91-1.81-22.15.08-.25.17-.49.22-.75.19-.93-.4-1.83-1.33-2.03-.93-.19-1.83.4-2.03,1.33-.47,2.28-2.44,3.94-4.68,3.94-1.84,0-3.55-1.13-4.33-2.87-.33-.73-1.13-1.13-1.92-.97-.79.17-1.35.87-1.35,1.67,0,3-2.4,5.27-5.58,5.27-2.37,0-4.19-2.61-4.88-5.03-.22-.76-.92-1.27-1.71-1.24-.79.03-1.45.59-1.62,1.36-.6,2.81-2.77,4.78-5.29,4.78-1.8,0-3.37-1.06-4.49-2.83-.78-1.24-1.35-2.82-1.58-4.67,0-.04-.03-.07-.03-.1.37-4.4.97-8.63,1.79-12.65ZM99.95,183.73s0,.02.01.02c-.14,2.64-2.2,4.76-4.77,4.76-.52,0-1.01-.12-1.5-.29-.18-.17-.36-.33-.36-.33-.47-.43-1.14-.57-1.74-.35-.6.22-1.03.75-1.12,1.38-.32,2.33-2.03,3.72-4.58,3.72-1.52,0-2.66-.47-3.49-1.42-.06-.07-.13-.1-.19-.15-4.4-9.57-5.08-18.54-1.15-25.3.59-1.16,1.19-2.25,1.89-3.18.37-.2.63-.52.77-.9.62-.63,1.34-1.13,2.2-1.43,1.64-.68,2.95-.72,4.97-.72,5.83,0,10.94,3.22,13.02,8.21.05.12.12.24.2.35l1.5,2.06c.51.89,1.01,1.64,1.54,2.29.28.71.73,3.01.73,3.77,0,2.78-2.16,5.03-4.82,5.03l-.81-.15c-.29-.05-.95-.13-1.23-.03l-.21.07c-.49.17-.85.58-1.03,1.07-.06.18-.09.37-.09.56,0,.33.09.66.26.94ZM75.72,181.96c-.32-.7-1.33-2.95-1.33-2.95,0,0-2.07-4.73-2.07-4.73,0,0-.92-2.7-.92-2.7-.01-.03-2.04-5.89-2.04-5.89-2.43-8.22-3.1-16.7-3.26-24.35,1.27,1.11,2.81,1.84,4.61,1.84,2.35,0,4.41-.8,5.96-2.12.56,5.99,1.79,12.78,3.54,19.49-.86,1.14-1.56,2.39-2.17,3.59-2.94,5.05-3.62,11.18-2.33,17.82ZM79.97,138.97c1.18.7,2.52,1.11,3.94,1.11,1.59,0,3.09-.5,4.37-1.34.13,5.55.77,12.02,1.74,17.39-1.93.03-3.5.17-5.33.94-.58.21-1.11.49-1.6.79-1.61-6.56-2.7-13.23-3.12-18.9ZM94.93,217.6l-.13.27c-1.1,2.03-3.15,3.38-5.21,3.38-1.65.1-2.55-.1-3.97-.78-.24-.12-.5-.24-.78-.38,0,0-1.88-1.13-2.13-1.28-.28-.22-1.12-.91-1.12-.91l-.98-.95s-.2-.21-.23-.24c-2.21-1.85-6.13-6.33-8.08-9.22.02.03-6.96-10.8-6.96-10.8-1.44-2.13-2.38-3.84-3.64-6.22-6.29-11.89-10.03-26.46-10.83-42.14-.11-2.14-.16-4.27-.16-6.37,0-.7.01-1.39.02-2.08.5.59,1.04,1.11,1.62,1.55,1.41,1.05,3.07,1.63,4.87,1.63,2.07,0,3.95-.81,5.45-2.14.14,8.02.82,16.99,3.41,25.75l2.09,6.05s.92,2.71.92,2.71c.02.05,2.2,5.05,2.2,5.05l1.39,3.09c1.99,4.12,6.47,10.77,9.43,14.47,3.42,5.84,8.02,11.73,13.65,17.39-.13.74-.26,1.01-.84,2.18ZM103.84,218.11c-.18-.17-.39-.28-.61-.35-2.58-2.27-4.98-4.59-7.19-6.94,3.96-.41,7.08-3.81,7.08-7.98,0-.37-.09-.73-.14-1.1.08,0,.14.03.22.03,4.21,0,7.59-3.43,7.79-7.69.58.1,1.15.15,1.69.15,4.34,0,7.86-3.62,7.86-8.06,0-2.65-1.27-5.14-3.41-6.65-.77-.54-1.84-.36-2.39.41-.55.77-.36,1.84.41,2.39,1.22.87,1.96,2.31,1.96,3.85,0,2.56-1.99,4.64-4.44,4.64-1.4,0-2.08-.23-2.77-.94-.61-.63-1.6-.7-2.29-.15-.43.34-.65.84-.65,1.34,0,.32.09.64.27.92,0,0,.07.11.14.22.16.49.26,1,.26,1.52,0,2.56-1.99,4.64-4.44,4.64-1.04,0-1.61-.2-2.37-.84-.71-.59-1.73-.49-2.35.2-.62.69-.54,1.78.14,2.41l.58.55c.29.55.5,1.35.5,2.17,0,2.56-1.99,4.64-4.44,4.64-1.15,0-2.24-.46-3.07-1.29-.16-.17-.35-.29-.55-.37-2.51-3.08-4.69-6.18-6.51-9.25-.05-.21-.14-.4-.27-.58.35.04.69.1,1.06.1,3.45,0,6.07-1.75,7.28-4.52.66.17,1.32.38,2.01.38,4.14,0,7.42-3.19,8.01-7.27,4.48-.08,8.11-3.82,8.11-8.43,0-.22-.02-.52-.06-.83.46.18.94.34,1.47.49.15.04.31.07.46.07,1.26,0,2.49-.3,3.6-.83,1.02,1.5,2.23,2.87,3.94,4.32,3.26,2.75,5.01,3.47,7.22,4.37l2.33,1,3.44,1.78c1.31.72,2.55,1.39,3.95,1.93.74,1.34,1.5,3.2,1.5,3.88,0,3.01-2.34,5.46-5.23,5.46-.14,0-.29.02-.42.05-1.18.3-4.11-.49-4.85-.98,0,0,0,0,0,0l-.83-.69c-.49-1.06-1.23-1.99-2.19-2.68-.77-.55-1.84-.37-2.39.4-.55.77-.37,1.84.4,2.39.27.19.49.43.69.69.03.46.24.9.59,1.22.07.27.1.55.1.83,0,1.83-1.42,3.32-3.16,3.32-.99,0-1.9-.47-2.5-1.3-.46-.62-1.27-.86-1.99-.59-.72.28-1.17,1-1.09,1.77l.04.41c.03.33.16.64.36.89.57.72.83,1.42.83,2.25,0,2.07-1.61,3.75-3.58,3.75-.48,0-.93-.16-1.36-.36-.19-.15-.39-.3-.58-.45,0,0-.01-.02-.02-.03-.03-.03-.06-.03-.09-.06-.4-.31-.8-.62-1.2-.93-.74-.59-1.82-.48-2.41.26-.59.74-.48,1.82.26,2.41.32.26.66.52.99.78l.1.15c.06.1.16.16.24.25.73.84,1.19,1.89,1.19,3.03,0,2.52-1.96,4.57-4.37,4.57-1.06,0-2.08-.4-2.88-1.13ZM108.8,222.35c3.2-.92,5.57-3.86,5.68-7.41,1.18.83,2.37,1.65,3.58,2.45-.84.95-1.36,2.2-1.36,3.57,0,.84.2,1.64.55,2.35-.94.11-1.87.22-2.84.31-1.03,0-2.01.3-2.9.78-.92-.67-1.83-1.35-2.72-2.04ZM179.13,235.77c2.34,0,4.93,1.76,4.93,4.38s-2,4.69-4.47,4.71c-.05,0-.17.01-.17.01-.2.01-.32.16-.49.24-8.06,2.15-18.81,1.38-30.76-2.22,1.23-.5,2.47-1.03,3.71-1.58,4.19-1.87,8.4-4.01,12.57-6.43,3.65.52,7.25.83,10.41.92,1.54.04,2.99.04,4.28-.03ZM169.18,232c1.55-.98,3.07-1.99,4.55-3.02.13.34.22.66.22.84,0,1-.47,1.89-1.24,2.46-1.14-.07-2.32-.16-3.53-.28ZM166.12,229.89c-8.12,5.04-16.44,9.02-24.46,11.83-13.4,4.7-25.94,6.1-35.17,3.64-.17-.08-.3-.22-.49-.24,0,0-.12,0-.17-.01-2.47-.02-4.47-2.12-4.47-4.71s2.6-4.37,5.03-4.37c1.69.09,3.54.09,5.49,0,14.58-.61,35.66-6.04,52.47-16.46l1.56-.96,5.04-3.27c.18,3.48,2.52,6.35,5.68,7.26-3.29,2.55-6.79,4.99-10.5,7.29ZM186.18,198.13c-.64-.56-1.58-.57-2.23-.03q-.59.49-1.72.49c-2.45,0-4.44-2.08-4.44-4.64,0-.56.09-1.11.28-1.62.05-.14.08-.29.09-.43l.02-.28c.06-.72-.34-1.4-1-1.7-.66-.3-1.44-.15-1.94.37-.64.66-.99.77-2.5.77-2.45,0-4.44-2.08-4.44-4.64,0-1.54.73-2.98,1.96-3.85.77-.55.96-1.62.41-2.39-.55-.77-1.61-.96-2.39-.41-2.13,1.51-3.41,3.99-3.41,6.65,0,4.45,3.53,8.06,7.86,8.06.6,0,1.15-.04,1.7-.12.22,4.25,3.59,7.66,7.78,7.66.06,0,.1,0,.16,0-.05.4-.08.77-.08,1.07,0,4.17,3.11,7.57,7.08,7.98-.54.57-1.09,1.14-1.65,1.71-.32.17-.58.41-.74.74-1.53,1.52-3.13,3.01-4.81,4.49-.22.08-.42.19-.6.35-.8.73-1.82,1.13-2.88,1.13-2.41,0-4.38-2.05-4.38-4.57,0-.91.77-2.27,1.25-2.92.46-.62.45-1.49-.03-2.09-.49-.61-1.32-.82-2.03-.5l-.51.23c-.09.04-.17.09-.26.14q-.2.13-.67.12h-.62c-1.97-.01-3.58-1.7-3.58-3.77,0-.83.25-1.52.83-2.25.2-.26.33-.57.36-.9l.04-.41c.07-.77-.37-1.49-1.1-1.76-.72-.27-1.53-.03-1.99.59-.6.82-1.51,1.3-2.5,1.3-1.74,0-3.16-1.49-3.16-3.32,0-.29.04-.57.11-.84.36-.32.56-.76.6-1.22.2-.26.42-.5.69-.69.77-.55.95-1.62.4-2.39-.55-.77-1.62-.95-2.39-.4-.96.69-1.71,1.62-2.19,2.68l-.37.31s-.01,0-.01,0c-.83.54-1.78.82-2.76.82-2.89,0-5.23-2.45-5.23-5.46,0-.81.61-2.35,1.23-3.45,2.2-.83,4.06-2.09,6.05-3.46l2.57-1.72c2.24-1.43,3.42-2.32,5.27-3.97,1.6-1.43,2.85-2.65,4.04-4.09.96.68,1.97.75,3.2.72h.68c.15,0,.32-.03.47-.07.54-.15,1.03-.32,1.5-.51-.05.32-.09.61-.09.84,0,4.67,3.7,8.46,8.25,8.46h0c.75,3.88,3.93,6.88,7.94,6.88.53,0,1.03-.19,1.54-.29,1.06,2.95,3.8,4.79,7.68,4.79.37,0,.74-.03,1.11-.09-1.9,3.27-4.2,6.57-6.87,9.84-.19.08-.37.19-.52.35-.83.83-1.92,1.29-3.07,1.29-2.45,0-4.44-2.08-4.44-4.64,0-.65.21-1.62.33-2.09.17-.26.42-.66.42-.66.18-.28.27-.61.27-.93,0-.48-.2-.95-.58-1.29ZM207.32,164.31c-.48-.94-1.02-1.92-1.65-2.86.04-.08.09-.14.12-.23,1.93-6.85,3.2-13.82,3.73-20.48,1.55,1.31,3.6,2.09,5.92,2.09,1.97,0,3.63-.88,4.97-2.19-.28,9.22-1.49,17.51-3.62,24.7-.85,2.86-2.18,7.13-3.7,11.22h0c-1.28,3.45-2.44,6.07-3.44,7.79-.26.45-.56.93-.87,1.43,2.33-8.01,2.03-15.47-1.47-21.47ZM202.95,158.53c-.68-.5-1.44-.92-2.31-1.23-1.54-.65-2.9-.84-4.5-.89,1.14-5.88,1.79-12.12,1.88-17.92,1.25.78,2.7,1.24,4.24,1.24,1.43,0,2.78-.43,3.98-1.14-.39,6.43-1.5,13.22-3.28,19.94ZM199.41,160.49c2.4.85,3.68,3.07,4.9,5.46,3.94,6.78,3.29,15.69-1,25.13-.07.06-.15.09-.2.16-.91,1.05-2.22,1.66-3.58,1.66-1.61,0-4.34-.43-4.76-3.25v-.15c0-.57-.28-1.1-.75-1.42-.47-.32-1.07-.38-1.59-.17l-.42.17c-.54.21-1.12.32-1.71.32-2.47,0-4.44-1.97-4.71-4.48.16-.24.24-.51.24-.79,0-.36-.12-.72-.32-1.05-.36-.58-1.15-.86-1.82-.76l-1.33.19c-2.66,0-4.82-2.26-4.82-5.04,0-.64.85-3.56,1.24-4.42,0-.01,0-.03,0-.04.35-.48.69-1.01,1.03-1.61l1.49-2.06c1.94-3.11,5.96-8.06,12.3-8.51.02,0,.04.02.06.03.31.07.6.02.89-.07,2,0,3.31.03,4.86.68ZM235.46,141.6c0,2.1-.05,4.22-.16,6.37-.84,16.59-4.59,31.24-11.15,43.53-1.25,2.33-2.6,4.59-4.04,6.71-.02.03-7.01,10.86-7.01,10.86-1.93,2.86-5.86,7.34-8.06,9.19-.03.02-.25.28-.28.3l-.87.83s-.9.74-1.18.97c-.17.1-2.23,1.33-2.23,1.33-1.1.57-1.82.89-2.64.99-.5.05-1.04.03-1.73-.08-.09-.01-.18-.02-.27-.02-2.13,0-4.08-1.19-5.16-3.09-.08-.31-.18-.74-.18-.74-.24-.93-.42-1.62-.42-2.58,0-.3.03-.65.06-1.02,4.05-4.13,7.58-8.4,10.49-12.68.19-.1.36-.23.51-.4,3.92-4.62,8.96-11.65,11.49-15.99,1.1-1.89,2.34-4.68,3.69-8.32h0c1.55-4.18,2.91-8.53,3.77-11.45,2.2-7.44,3.46-15.99,3.76-25.47,1.44,1.16,3.19,1.86,5.11,1.86,1.73,0,3.4-.58,4.85-1.55.59-.39,1.14-.85,1.65-1.36,0,.6.02,1.21.02,1.82ZM235.11,132.51s0,.02,0,.02c0,1.57-.67,3.11-1.67,4.33-1.17,1.42-2.82,2.41-4.49,2.41-2.52,0-4.7-1.97-5.29-4.78-.16-.77-.83-1.33-1.62-1.36-.79-.03-1.49.49-1.71,1.24-.69,2.42-2.52,5.03-4.89,5.03-3.18,0-5.58-2.26-5.58-5.26,0-.81-.56-1.51-1.35-1.67-.79-.17-1.59.23-1.92.97-.79,1.74-2.49,2.87-4.33,2.87s-3.64-1.23-4.39-3.02c-.03-.1-.06-.2-.1-.29-.07-.2-.14-.4-.19-.62-.19-.93-1.1-1.52-2.03-1.33-.93.19-1.52,1.1-1.33,2.03.08.39.21.76.34,1.13.26,6.92-.44,14.95-1.93,22.33-5.56.65-10.53,4.1-14.16,9.94.07-.1-1.47,2.01-1.47,2.01-.04.05-.07.11-.11.16-1.56,2.76-2.77,3.53-4.95,4.16-.22,0-.47,0-.47,0-.57.01-.88.02-1.1-.08.25-.39.5-.79.77-1.22,3.53-5.85,4.84-12.31,5.52-17.59.31-.05.62-.14.92-.25,1.16,1.09,2.34,1.36,3.16,1.38,1.25.03,2.45-.49,3.38-1.45.77-.8,1.06-1.81,1.19-2.65.98-.28,2.03-.72,2.9-1.47,1.27-1.1,1.94-2.54,1.94-4.2,0-.14,0-.28-.01-.43l-.5-1.84-.34-1.07c-.18-.58-.46-1.36-1.05-1.5-.59-.14-1.01-.3-1.43.13l-1.13,1.18c-.13.19-.35.49-.58.76-.23-.22-.38-.41-.38-.64,0-.36.31-.83.89-1.72.82-1.26,1.95-2.98,2.14-5.33l.21-1.95.09-1.02c1.11-.14,2.09-.57,2.84-1.3.59-.58,1.24-1.55,1.42-3.09,1.77,1.93,4.24,3.07,6.88,3.07,3.63,0,6.81-2.09,8.38-5.22,1.73,1.71,4.19,2.73,6.96,2.73,3.56,0,6.65-2.25,8.24-5.57.88.41,1.84.73,3.04.73,1.61,0,3.28-.45,4.78-1.3,1.03-.58,1.97-1.35,2.75-2.29.82,4.1,1.4,8.42,1.74,12.91ZM226,99.87c0,1.83-.77,3.46-1.98,4.6-1.07,1.01-2.47,1.64-4.02,1.64-.95,0-2.11-.68-2.96-1.17-.5-.29-1.11-.31-1.63-.05-.52.26-.87.76-.93,1.33-.36,3.12-2.18,4.99-4.87,4.99-1.89,0-3.64-.98-4.69-2.63-.41-.64-1.19-.94-1.92-.73-.73.21-1.24.88-1.24,1.65,0,3.39-2.39,6.15-5.34,6.15-1.87,0-3.61-.97-4.65-2.6-.51-.8-1.57-1.03-2.37-.52-.8.51-1.03,1.57-.52,2.37,1.67,2.62,4.49,4.18,7.54,4.18,3.71,0,6.84-2.54,8.12-6.1,1.48,1.04,3.21,1.67,5.06,1.67,3.69,0,6.45-2.23,7.65-5.74.83.36,1.76.64,2.75.64,2.07,0,3.98-.7,5.54-1.86,1.34-1.01,2.42-2.36,3.09-3.94,1.34,3.19,2.5,6.65,3.47,10.35,0,.03-.03.06-.03.1-.19,1.83-1.17,3.27-2.46,4.24-1.13.85-2.5,1.33-3.78,1.33-1,0-1.77-.39-2.92-1.15-.46-.31-1.05-.37-1.57-.17-.52.2-.91.65-1.04,1.19-.71,2.88-3.13,4.97-5.76,4.97-2.79,0-5.01-1.41-5.79-3.68-.31-.89-1.28-1.37-2.18-1.06-.23.08-.43.2-.6.36-.42.28-.73.71-.79,1.25-.32,3.2-2.89,5.62-5.99,5.62-2.15,0-4.16-1.21-5.23-3.17-.46-.83-1.5-1.13-2.33-.68-.16.09-.29.22-.41.35l-.02-.03c-.34-.46-.95-.79-1.52-.76-.57.03-1.14.28-1.43.77-.21.36-.46.61-.59.7-.63-.07-.84-.26-.91-.35-.16-.2-.46-.75-.46-2.16,0-.54.04-1.21.15-2.03.05-.36.07-.71.07-1.06,0-.74-.15-1.46-.36-2.18.56-1.09.85-2.29.78-3.39-.06-.99-.89-2.46-1.06-2.75-.1-.17-.23-.32-.38-.45,1.58-1.73,3.14-3.63,3.91-5.01,2.08-3.72,2.32-5.38,2.71-8.14l.14-.96c.18-1.03.5-1.95.99-3.19,2.72-6.97,9.12-11.11,15.21-9.85.08.01.55.07.87.12.09.01.17.02.22.03,6.39,1.83,11.97,7.25,16.29,15.09l.13,1.87Z"/>
        <path class="cls-1" d="M153.92,132.32l.89-.48,1.48-.75c1.88-.83,3.13-.83,5.17-.75,1.01.04,1.71.27,2.53.55l1.57.47c.34.1.67-.1.77-.44.1-.34-.12-.71-.46-.81l-1.47-.44c-.87-.29-1.7-.57-2.89-.61-2.17-.08-3.61-.08-5.74.86l-1.58.81-.85.46c-.31.17-.44.56-.27.87.17.31.55.43.86.27Z"/>
      </g>
    </g>
  </g>
</svg>