<?xml version="1.0" encoding="UTF-8"?>
<svg id="Layer_2" data-name="Layer 2" xmlns="http://www.w3.org/2000/svg" viewBox="0 0 562.14 299.37">
  <defs>
    <style>
      .cls-1 {
        fill: #231f20;
        stroke-width: 0px;
      }
    </style>
  </defs>
  <g id="Layer_1-2" data-name="Layer 1">
    <g>
      <g>
        <path class="cls-1" d="M370.22,265.31h5.83c4.75,0,7.56,1.22,9.94,4.39,1.95,2.59,2.88,5.9,2.88,10.3,0,5.04-1.22,8.64-4.03,11.52-2.59,2.66-5.04,3.53-9.5,3.53h-5.11v-29.74ZM375.83,298.29c5.69,0,9.65-1.08,13.03-3.46,4.61-3.31,7.2-8.86,7.2-15.48,0-5.04-1.51-9.07-4.61-12.38-3.6-3.82-6.84-4.82-14.76-4.82h-18.29v1.58l5.4,2.16v28.66l-5.4,2.09v1.66h17.42Z"/>
        <path class="cls-1" d="M399.18,298.29v-1.66l5.4-2.09v-28.66l-5.4-2.16v-1.58h17.21v1.58l-5.4,2.16v28.66l5.4,2.09v1.66h-17.21Z"/>
        <path class="cls-1" d="M445.96,253.14h4.97c4.1,0,6.12.86,7.99,3.17,1.51,2.02,2.23,4.61,2.23,7.56s-.72,5.54-2.23,7.49c-2.02,2.59-4.75,3.67-9.65,3.67h-3.31v-21.89ZM453.45,298.29v-1.8l-7.49-2.52v-16.13h5.04c10.66,0,17.35-5.47,17.35-14.18,0-4.1-1.37-7.34-4.18-9.79-2.95-2.59-6.55-3.6-12.89-3.6h-18.22v1.8l6.05,2.52v39.38l-6.05,2.52v1.8h20.38Z"/>
        <path class="cls-1" d="M473.09,298.29v-1.66l5.4-2.09v-28.66l-5.4-2.16v-1.58h17.21v1.58l-5.4,2.16v28.66l5.4,2.09v1.66h-17.21Z"/>
        <path class="cls-1" d="M496.52,297.21v-8.57h2.23l2.81,6.48c2.23.5,3.31.65,4.82.65,4.75,0,7.34-2.02,7.34-5.76,0-2.59-.94-3.74-4.68-6.12l-5.62-3.46c-5.04-3.17-6.55-5.26-6.55-9.22,0-5.98,4.54-9.86,11.74-9.86,2.52,0,6.12.43,9.58,1.15l.86.22v8.35h-2.23l-2.74-6.19c-1.94-.22-2.95-.29-4.18-.29-4.82,0-7.34,1.73-7.34,4.97,0,2.16.72,3.02,4.46,5.33l5.97,3.82c6.12,3.74,7.49,5.69,7.49,10.08,0,6.19-5.04,10.22-12.82,10.22-2.37,0-6.12-.58-10.44-1.66l-.72-.14Z"/>
        <path class="cls-1" d="M541.26,268.55l.65,1.87.94,2.52,3.02,8.5h-9.79l5.19-12.89ZM546.52,283.96l3.81,10.58-4.46,2.09v1.66h16.27v-1.66l-4.82-2.09-12.38-32.76h-4.18l-13.75,32.76-4.82,2.09v1.66h13.32v-1.66l-4.39-2.09,3.96-10.58h11.45Z"/>
        <path class="cls-1" d="M0,252.07v-1.8h18.94v1.8l-6.05,2.52v28.8c0,8.64,3.74,12.46,12.1,12.46,8.78,0,12.67-3.74,12.67-12.1v-29.16l-6.05-2.52v-1.8h16.85v1.8l-6.12,2.52v27.58c0,7.34-1.87,11.45-6.62,14.4-3.24,2.02-6.55,2.81-11.95,2.81-12.17,0-17.71-4.82-17.71-15.41v-29.38l-6.05-2.52Z"/>
        <path class="cls-1" d="M48.12,298.29v-1.66l5.4-2.09v-28.66l-5.4-2.16v-1.58h10.87l19.94,25.85v-22.1l-5.4-2.16v-1.58h14.33v1.58l-5.33,2.16v32.76h-2.95l-22.46-29.52v25.42l5.33,2.09v1.66h-14.33Z"/>
        <path class="cls-1" d="M92.54,298.29v-1.66l5.4-2.09v-28.66l-5.4-2.16v-1.58h17.21v1.58l-5.4,2.16v28.66l5.4,2.09v1.66h-17.21Z"/>
        <path class="cls-1" d="M127.89,298.65l-12.67-32.76-4.46-2.16v-1.58h15.77v1.58l-4.46,2.16,7.56,21.31c.36,1.01.65,1.87,1.3,3.96l10.01-25.27-4.39-2.16v-1.58h12.89v1.58l-4.61,2.16-13.46,32.76h-3.46Z"/>
        <path class="cls-1" d="M162.45,281.08v14.33h12.02l3.38-5.33h2.16l-.86,8.21h-28.51v-1.66l5.4-2.09v-28.66l-5.4-2.16v-1.58h28.3v8.21h-2.23l-2.59-5.76h-11.66v13.97h9.5l1.94-4.61h2.16v11.81h-2.16l-1.94-4.68h-9.5Z"/>
        <path class="cls-1" d="M196.74,264.59h4.1c4.32,0,6.48,2.23,6.48,6.77s-2.45,7.2-6.62,7.2h-3.96v-13.97ZM198.83,281.08l12.67,17.21h9.07v-1.66l-4.25-2.09-10.66-14.26c5.76-1.94,8.5-5.04,8.5-9.58,0-2.81-1.22-5.18-3.38-6.7-2.09-1.51-3.89-1.87-8.71-1.87h-17.14v1.58l5.4,2.16v28.66l-5.4,2.09v1.66h17.21v-1.66l-5.4-2.09v-13.46h2.09Z"/>
        <path class="cls-1" d="M224.12,297.21v-8.57h2.23l2.81,6.48c2.23.5,3.31.65,4.82.65,4.75,0,7.34-2.02,7.34-5.76,0-2.59-.94-3.74-4.68-6.12l-5.62-3.46c-5.04-3.17-6.55-5.26-6.55-9.22,0-5.98,4.54-9.86,11.74-9.86,2.52,0,6.12.43,9.58,1.15l.86.22v8.35h-2.23l-2.74-6.19c-1.94-.22-2.95-.29-4.18-.29-4.82,0-7.34,1.73-7.34,4.97,0,2.16.72,3.02,4.46,5.33l5.98,3.82c6.12,3.74,7.49,5.69,7.49,10.08,0,6.19-5.04,10.22-12.82,10.22-2.38,0-6.12-.58-10.44-1.66l-.72-.14Z"/>
        <path class="cls-1" d="M252.74,298.29v-1.66l5.4-2.09v-28.66l-5.4-2.16v-1.58h17.21v1.58l-5.4,2.16v28.66l5.4,2.09v1.66h-17.21Z"/>
        <path class="cls-1" d="M286.3,294.54v-29.59h-7.85l-2.81,6.12h-2.23v-8.93h32.19v8.93h-2.16l-2.45-6.12h-8.28v29.59l5.76,2.09v1.66h-17.93v-1.66l5.76-2.09Z"/>
        <path class="cls-1" d="M322.26,268.55l.65,1.87.94,2.52,3.02,8.5h-9.79l5.19-12.89ZM327.52,283.96l3.82,10.58-4.46,2.09v1.66h16.27v-1.66l-4.82-2.09-12.38-32.76h-4.18l-13.75,32.76-4.82,2.09v1.66h13.32v-1.66l-4.39-2.09,3.96-10.58h11.45ZM319.53,248.46h-9.87l13.82,10.44h3.6l-7.56-10.44Z"/>
      </g>
      <g>
        <g>
          <path class="cls-1" d="M252.98,199.57l2.99-8.99-5.24-.68.27-.82c2,.04,3.49-.1,5.5-.49,1.38-.27,1.58-.32,2.42-.67l.82.27-4.08,12.27,2.76,1.99-.24.71-8.71-2.9.24-.71,3.26.02Z"/>
          <path class="cls-1" d="M265.21,209.19l.49-4.23,1.07.12.75,3.09c.61.16,1.08.28,1.99.38,1.81.21,2.79.06,3.79-.55.98-.64,1.64-1.67,1.77-2.85.27-2.34-1.18-4.01-3.73-4.31l-.98-.11.16-1.33.35.04c2.81.33,4.35-.75,4.64-3.24.26-2.25-.9-3.59-3.33-3.87-.71-.08-1.69-.14-2.3-.12l-1.74,3.34-1.04-.12.48-4.12c2.26-.31,4.37-.42,5.67-.27,3.67.43,5.73,2.35,5.42,5.01-.28,2.4-2.23,3.94-5.27,4.25,3.21.55,5.07,2.57,4.76,5.21-.39,3.31-3.6,5.1-8.18,4.56-1.27-.15-2.01-.26-4.32-.8l-.47-.08Z"/>
          <path class="cls-1" d="M287.81,204.42l.49-.8,1.45-2.37,1.56-2.74,1.82-3.16.28-.51.95,8.89-6.55.7ZM295.03,210.07l2.52-.27-.47-4.42,2.79-.29-.2-1.93-2.79.29-1.35-12.68-1.19.13-9.01,14.77.1.95,9.13-.97.47,4.41Z"/>
          <path class="cls-1" d="M308.91,207.38l-1.38-4.03,1.01-.35,2.01,2.46c.62-.12,1.09-.22,1.96-.52,1.72-.59,2.54-1.15,3.18-2.13.6-1,.75-2.21.37-3.34-.76-2.23-2.8-3.11-5.22-2.28l-.93.32-.44-1.27.34-.12c2.68-.92,3.6-2.56,2.79-4.92-.73-2.14-2.36-2.85-4.67-2.05-.68.23-1.59.61-2.12.88l-.13,3.76-.99.34-1.34-3.92c1.9-1.25,3.76-2.26,5-2.69,3.5-1.2,6.18-.35,7.05,2.19.78,2.29-.31,4.52-2.92,6.1,3.13-.88,5.68.13,6.54,2.64,1.08,3.16-1.04,6.15-5.41,7.65-1.21.41-1.93.63-4.24,1.14l-.46.13Z"/>
        </g>
        <g>
          <path class="cls-1" d="M220.89,182.79c-1.75-1.5-1.94-4.2-.4-6,1.54-1.79,4.24-2.02,5.99-.53,1.77,1.52,1.96,4.22.42,6.02-1.54,1.79-4.24,2.02-6.01.51Z"/>
          <path class="cls-1" d="M216,155.75l-.65.41-2.28-1.61-14.2,8.94.46,2.75-.65.41-4.31-6.85.65-.41,2.3,1.64,14.2-8.94-.48-2.78.65-.41,4.32,6.85Z"/>
          <path class="cls-1" d="M209.97,146.77l-.71.28-1.93-2.02-15.67,6.01-.08,2.79-.72.28-1.81-4.73,9.8-15.72-12.08,4.64-.08,2.79-.72.28-2.46-6.42.71-.27,1.94,2.05,17.67-6.78.33.86-11.36,17.99,13.92-5.34.07-2.82.72-.28,2.46,6.41Z"/>
          <path class="cls-1" d="M200.02,115.1l-4.51.15-.04-1.1,3.75-1.63c.1-.8.11-1.41.08-2.27-.1-2.85-1.28-4.31-3.43-4.24-1.5.05-2.19.6-3.5,2.76l-1.83,3.07c-.96,1.66-1.43,2.2-2.33,2.81-.78.52-1.57.76-2.58.79-3.22.11-5.48-2.18-5.6-5.7-.02-.52.04-1.44.11-2.31.07-.68.14-1.23.22-1.6l.23-1.3.08-.43,4.35-.15.04,1.13-3.63,1.57-.02.25c-.04.8-.06,1.01-.04,1.57.1,3.07,1.1,4.47,3.13,4.4,1.41-.05,2.01-.53,3.28-2.69l1.94-3.32c1.19-2,1.37-2.26,2.2-2.87.84-.61,1.9-.95,3.07-.99,3.4-.12,5.67,2.35,5.8,6.34.03.95-.1,2.37-.37,3.69l-.34,1.73-.08.34Z"/>
          <path class="cls-1" d="M180.85,96.36l-.75-.14,1.49-7.93.75.14.58,2.73,12.06,2.27c3.62.68,5.51-.59,6.17-4.08.69-3.68-.57-5.6-4.07-6.26l-12.21-2.29-1.53,2.33-.75-.14,1.33-7.06.75.14.57,2.76,11.55,2.17c3.07.58,4.65,1.68,5.51,3.91.59,1.52.66,2.97.23,5.23-.96,5.1-3.41,7.04-7.85,6.2l-12.3-2.31-1.53,2.33Z"/>
          <path class="cls-1" d="M189.51,65.14l.85-1.94c.7-1.6,1.38-2.24,2.6-2.58,1.05-.25,2.18-.08,3.33.42,1.18.52,2.04,1.23,2.54,2.15.67,1.23.62,2.48-.22,4.39l-.57,1.29-8.54-3.75ZM208.41,69.95l-.7-.31-2.26,2.49-6.29-2.76.86-1.97c1.83-4.16.84-7.71-2.56-9.2-1.6-.7-3.1-.72-4.54-.05-1.52.71-2.53,1.94-3.61,4.41l-3.12,7.11.7.31,2.02-1.93,15.37,6.74-.05,2.79.7.31,3.49-7.95Z"/>
          <path class="cls-1" d="M199.7,46.33l1.26-1.74c1.39-1.91,3.35-2.16,5.38-.68,2.06,1.49,2.58,3.76,1.25,5.6l-1.21,1.66-6.68-4.84ZM208.02,51l11.84.29,2.88-3.97-.62-.45-2.3,1.29-10.45.04c1.38-2.75.87-5.43-1.37-7.05-1.27-.92-2.69-1.2-4.08-.8-1.39.4-2.14,1.02-3.57,2.99l-4.88,6.73.62.45,2.38-1.46,13.59,9.85-.64,2.72.62.45,4.75-6.56-.62-.45-2.4,1.48-6.41-4.64.65-.89Z"/>
          <path class="cls-1" d="M221.39,35.61l5.54,6.28,5.08-4.49-.83-3.72.76-.67,2.78,3.84-10.99,9.71-.51-.57,1.22-2.51-11.11-12.57-2.64.9-.51-.58,10.9-9.63,3.05,3.45-.76.67-3.31-1.57-4.94,4.37,5.46,6.18,4.16-3.68-1.05-2.76.69-.61,4.45,5.03-.69.61-2.59-1.35-4.16,3.68Z"/>
          <path class="cls-1" d="M245.59,24.61l-1.21-16.53,5.23-2.57.34.69-1.87,2.11,7.39,15.06,2.81-.18.34.69-7.27,3.57-.34-.69,1.87-2.11-6.66-13.58,1.29,18.43-.55.27-13.68-12.35,6.66,13.58,2.81-.18.34.69-6.17,3.03-.34-.69,1.84-2.1-7.39-15.06-2.79.17-.34-.69,5.42-2.66,12.25,11.11Z"/>
          <path class="cls-1" d="M266.27,12.09l2.96-9.22,1.17,8.66-4.13.56ZM271.55,19.95l-2.13,1.4.1.76,13.68-1.85-.12-4.75-1.09.15-1.4,3.56-6.11.83-1.08-7.99,4.92-.67,1.4,2.57.94-.13-.9-6.66-.94.13-.66,2.88-4.93.67-1.15-8.48,5.96-.81,1.88,3.15,1.06-.14-.62-4.56-12.04,1.63-7.17,19.73-2.13,1.4.1.76,6.66-.9-.1-.76-2.43-.82,2.45-7.51,4.89-.66.96,7.08Z"/>
          <path class="cls-1" d="M305.98,4.51l3.15.9c2.71.78,4.13,1.95,4.95,4.12.69,1.83.68,3.86-.02,6.34-.83,2.89-2.15,4.75-4.23,5.97-1.87,1.09-3.37,1.2-5.91.48l-2.8-.8,4.86-17.02ZM303.81,23.74c2.95.84,5.12.86,7.21.02,2.88-1.15,5.03-3.76,6.05-7.33.79-2.77.65-5.17-.41-7.39-1.18-2.47-2.95-3.75-6.79-4.84l-8.79-2.51-.21.74,2.18,1.74-4.61,16.13-2.77.33-.21.74,8.35,2.38Z"/>
          <path class="cls-1" d="M316.81,28.37l.36-.68,2.78.25,7.81-14.85-1.78-2.15.36-.68,7.17,3.77-.36.68-2.81-.26-7.81,14.85,1.81,2.16-.36.68-7.17-3.77Z"/>
          <path class="cls-1" d="M344.05,38.91l-3.64,4.48-.39-.16c-2.4-1.04-4.07-2-5.69-3.32-2.64-2.15-3.89-4.27-4-6.85-.11-2.54.78-4.94,2.65-7.25,2.19-2.69,4.9-4.24,7.81-4.41,2.69-.15,5.07.72,7.78,2.93,1.62,1.32,2.54,2.27,3.9,4.04l.25.32-2.88,3.55-.9-.74,1.31-3.8c-.45-.56-.96-1.06-1.77-1.71-2.48-2.01-4.38-2.73-6.62-2.41-2.37.29-4.41,1.59-6.33,3.95-3.5,4.31-3.26,8.58.7,11.79.86.7,1.78,1.36,2.35,1.68l3.19-3.93-1.34-2.43.48-.59,6.28,5.11-.48.6-2.68-.84Z"/>
          <path class="cls-1" d="M343.16,47.03l.62-.45,2.38,1.46,13.58-9.86-.64-2.72.62-.45,2.97,4.1-5.41,17.72,10.48-7.6-.64-2.72.62-.45,4.04,5.56-.62.45-2.4-1.48-15.32,11.12-.54-.75,6.33-20.32-12.07,8.76.66,2.74-.62.45-4.04-5.56Z"/>
          <path class="cls-1" d="M355.87,66.01l.7-.32,2.05,1.89,15.24-7.03-.11-2.79.7-.32,3.39,7.35-.7.32-2.07-1.92-15.23,7.03.12,2.82-.7.32-3.39-7.35Z"/>
          <path class="cls-1" d="M363.91,81.44l16.63-4.52-1.21-4.47-3.89-.4-.29-1.07,4.85-1.32,4.46,16.4-4.85,1.32-.28-1.04,3.15-2.32-1.17-4.32-16.64,4.52-.19,3.39-.74.2-2.45-9,.74-.2,1.88,2.83Z"/>
          <path class="cls-1" d="M382.58,100.68c-.96.33-1.45.5-2.71.99l-4.91,1.93-.27-5.48,7.89,2.56ZM373.79,104.12l-6.23,2.52-1.25-2.27-.77.04.38,7.78.77-.04,1.02-2.38,18.36-7.62-.08-1.72-19.07-6.78-1.25-2.3-.77.04.33,6.71.77-.04,1.02-2.38,6.46,2.02.31,6.43Z"/>
          <path class="cls-1" d="M366.38,119.43l17.01,2.8.75-4.57-3.37-1.98.18-1.09,4.96.82-2.76,16.77-4.96-.82.17-1.06,3.83-.8.73-4.42-17.01-2.8-1.58,3-.76-.12,1.51-9.2.76.13.54,3.35Z"/>
          <path class="cls-1" d="M362.16,130.52l.72.25.18,2.78,15.88,5.42,1.85-2.09.73.25-2.62,7.66-.72-.25-.17-2.81-15.88-5.42-1.86,2.12-.72-.25,2.62-7.66Z"/>
          <path class="cls-1" d="M358.88,142.16l3.98,2.12-.52.98-4.06-.46c-.48.65-.8,1.17-1.21,1.93-1.34,2.52-1.05,4.38.85,5.39,1.33.71,2.2.58,4.41-.64l3.12-1.74c1.66-.96,2.34-1.19,3.42-1.27.94-.06,1.74.13,2.63.61,2.84,1.51,3.65,4.62,1.99,7.74-.24.46-.76,1.23-1.25,1.94-.4.55-.74,1-.99,1.28l-.85,1.01-.28.33-3.84-2.05.54-1,3.93.46.14-.2c.43-.67.56-.85.81-1.34,1.44-2.71,1.29-4.43-.5-5.38-1.25-.66-2-.55-4.19.69l-3.35,1.9c-2.03,1.14-2.31,1.27-3.34,1.38-1.03.11-2.12-.12-3.15-.67-3-1.6-3.73-4.87-1.85-8.39.45-.84,1.27-2,2.16-3.02l1.16-1.33.24-.25Z"/>
          <path class="cls-1" d="M348.19,180.14c-1.69,1.57-4.39,1.45-6-.29-1.61-1.73-1.53-4.44.15-6.01,1.71-1.59,4.42-1.47,6.03.26,1.61,1.73,1.53,4.44-.18,6.03Z"/>
        </g>
        <g>
          <path class="cls-1" d="M277.69,112.21c0,.08.03.15.05.22-.01.08-.02.16-.02.23,0,.49.29.84.55,1.16l.31.41c.39.59.78.84,1.41,1.11.46.2.87.08,1.19-.02.29-.09.51-.16.77-.06l.36.25.61.37c.53.16.91-.05,1.25-.23l.66-.26.73-.05.97-.08.25-.04c.77-.11,1.49-.22,1.75-.6,0,0,.08-.39.08-.39l-.5-.52-.18-.12-.81-.36-.2-.06-.45-.21-.93-.28-.84.24-.56.19-1.08-.06-.2-.04-.58-.27-.93-.35c-.56-.03-.92.15-1.33.34l-.39.19-.32.1c-.49.02-.58-.04-.9-.63.07-.14.41-.78.41-.78.06-.08,1.05-1.31,1.24-1.54,0,0,.02.02.02.02,0,0,0-.02.01-.02h0s.02-.05.04-.08c.07-.09.15-.18.15-.3,0-.07-.02-.14-.09-.21-.2-.22-.47-.03-.55.03-.28.2-1.94,1.64-1.94,2.68Z"/>
          <path class="cls-1" d="M275.75,104.71l.64-.07-.07.08c-.28.26-.5.46-.41.73.03.09.12.24.39.27.41.04.62-.22.78-.41l.19-.2.48-.33.69-.51.71-.99c.24-.57.23-.96.23-1.51,0,0-.26-1.32-.26-1.32l-.05-.15-.11-.34-.41-1.01c-.29-.5-1.02-1.64-1.52-1.36-.29.17-.29.44-.29.57v.09s-.27.11-.27.11c-.45.11-.84-.12-1.34-.41-.42-.24-.89-.51-1.46-.6-1.12-.18-1.81-.17-2.93.03-.99.18-1.59.47-2.41,1.18-.49.41-.86.75-1.15,1.45l-.49,1.6v-.03c-.01.23.08.36.17.43.08.06.16.08.25.09.11.3.54.6,1.61,1.27.53.33,2.22.64,3.14.63,0,0,.02,0,.02,0h.24s0-.04,0-.05c.03,0,.06,0,.08-.01,0,0,.03,0,.04,0,.06,0,.11.02.17.02.24,0,.46-.03.68-.09.61-.05,1.29-.11,1.29-.11l1.23-.27c.51-.15.91-.27,1.5-.16-.08.26-.17.53-.29.83h0c-.03-.27-.27-.45-.52-.42l-.6.06-1.16.17-1.67.41c-.25.06-.4.31-.34.56.06.25.31.4.56.34l1.67-.41,1.02-.15ZM269.18,102.56c-.3-.19-.92-.59-1.15-.79.03-.18.07-.34.11-.49.03-.06.06-.11.09-.16l.54-.86c.29-.3.52-.54.76-.73.05-.03.11-.06.16-.09-.2.42-.33.88-.33,1.38,0,.78.29,1.49.76,2.04-.38-.07-.73-.17-.93-.3ZM273.22,100.78c-.21,0-.39-.18-.39-.41s.17-.41.39-.41.39.18.39.41-.17.41-.39.41ZM275.31,102.59l-.54.12c.39-.53.63-1.18.63-1.89,0-.49-.12-.94-.31-1.35.24.09.46.19.65.29.16.14.33.29.49.47.59.67.86,1.31,1.02,2.07,0,.06-.02.12-.02.17-.78-.13-1.39-.04-1.92.11Z"/>
          <path class="cls-1" d="M268.18,94.25c1.46-.33,2.32-.38,3.8-.23l.73.05,1.27.16,1.49.51.89.35c.24.09.5-.03.59-.27.09-.24-.04-.51-.27-.6l-.86-.33-1.61-.55-1.45-.19-.69-.05c-1.58-.16-2.54-.1-4.1.25-.25.06-.41.3-.35.55.06.25.3.41.55.35Z"/>
          <path class="cls-1" d="M286.17,125.36s0,0-.01,0c-.41.34-.63.5-1.08.63l-.27.08c-.56.17-.71.21-1.75.04l-.77-.18-1.22-.21h-.32c-.62-.04-.8-.05-.89.2l-.07.19.17.16.43.38c.64.6,1.31,1.22,2.89,1.21l.59-.06.7-.02.9.4.88.5-.16-.71-.27-1.22s0-.04,0-.06c0-.34.21-.56.61-.86h0s0,0,.01,0l-.38-.49Z"/>
          <path class="cls-1" d="M290.71,121.81h0l-.12-.24c-.22-.49-.31-.8-.11-1.08l-.42-.44s-.05.06-.08.09h0s0,0,0,0c-.26.2-.5.51-.5,1.06,0,.17.03.36.07.57-.22.02-.43,0-.7-.07l-1.11-.53-.97-.94-.39-.42c-.31-.3-.64-.31-.93-.31l-.31-.02s-.51.01-.89.1c-.1,0-.19.02-.19.02.02,0,.04.03.06.03-.02,0-.03,0-.04.02,0,0,.01-.03.01-.03l-.73.2s-.2-.03-.2-.03l-.28-.06-.31-.06-.68-.06-1.14.39-.74.61-.34.34-.33.32-.8.55c-.46.15-.74.13-1.27.05l-.68-.19c.2-.5.06-.92-.08-1.33l-.1-.29-.6.13c.03.24.05.45.05.64,0,.24-.06.43-.18.6h0l-.17.22c-.36.31-.68.47-1,.47-.15-.02-.3-.03-.44-.09h0l-.24.56c.23.1.46.15.69.15.58.08,1.12-.06,1.53-.38.28.32.58.55,1.06.75.75.31,1.3.27,1.99.21l.32-.02,1.04-.15,1.28-.13.64.16.94.2.85-.28c.26-.14.41-.21.63-.18,0,0,.5.14.79.22.09.03.17.05.17.05.07.02.16.03.26,0,.22.03,1.19.18,1.19.18,1.07.14,1.98-.05,2.63-.56l.16-.18c.25.23.57.4.94.46.59.09,1.14-.12,1.43-.54l.34-.49-.95.02c-.6.02-.89,0-1.05-.27Z"/>
          <path class="cls-1" d="M254.9,86.15c-.07,0,.07,0,0,0h0Z"/>
          <path class="cls-1" d="M297.87,98.15c-.89-.28-1.41-.4-2.32-.42-1.35-.03-2.19-.04-3.46.43-.8.3-1.38.54-2.09,1.25l-.37.35c-.49.45-.95.87-1.09,1.69-.11.64-.11,1.04,0,1.63l.14.71.83-1.19c-.02.21-.05.42-.05.66l-.02.64.62-.19c.81-.24,1.13-.14,1.62.02l.85.22,1.14.27,1.97.32s.5,0,.5,0c.8.01,1.5.03,2.41-.38l1.94-1.12-.03-.25s0-.02,0-.03l.26-.2c.45-.35-.08-1.97-.52-2.65-.79-1.22-1.28-1.42-2.33-1.75ZM292.69,103.03l-.72-.19c-.42-.13-.87-.22-1.49-.14.09-.68.25-1.23.67-1.89.08-.13.18-.23.27-.34l.47-.38c.25-.21.46-.37.69-.49-.28.47-.44,1.01-.44,1.6,0,.69.23,1.33.6,1.85h-.04ZM296.09,101.25c-.21,0-.39-.18-.39-.41s.17-.41.39-.41.39.18.39.41-.17.41-.39.41ZM298.18,103.31c-.41.18-.76.25-1.12.28.68-.57,1.12-1.43,1.12-2.4,0-.39-.08-.77-.21-1.12.25.17.5.37.78.63.39.37.59.97.71,1.43.02.13.04.26.05.41-.35.2-1.33.77-1.33.77Z"/>
          <path class="cls-1" d="M294.51,104.91l-.74-.29-1.5-.45s-1.96.06-1.96.06l-.49.07c-.25.03-.43.27-.4.52.04.25.26.43.51.4l.51-.07,1.71-.06,1.26.39.8.31c.24.09.48-.03.58-.27.09-.24-.05-.51-.29-.61Z"/>
          <path class="cls-1" d="M331.55,57.3c-.06-.02-.12-.03-.18-.04l-.81-.11c-.79-.16-1.59-.22-2.38-.19-1.46.05-2.91.42-4.27,1.06.04-.12.09-.24.11-.37.36-1.73-.06-3.56-1.15-5.41-1.99-3.39-6.28-6.86-12.46-10,1.08-.84,1.78-2.17,1.78-3.64,0-.1,0-.21,0-.31-.09-1.21-.65-2.27-1.48-3.04-.12-.16-.26-.31-.46-.4-.03-.01-.07-.02-.1-.04,0,0,.02,0,.02,0,0,0-.14-.05-.17-.06-.46-.29-.96-.48-1.52-.58-.01,0-.11-.04-.11-.04.01,0,.02.02.03.02-.07-.01-.12-.04-.19-.05-6.55-2.23-16.61-2.47-27.66-.66-10.01-1.36-18.54-.93-24.47,1.14-.04,0-.08.02-.12.03,0,0,.01-.02.02-.02,0,0-.1.04-.11.04-.55.1-1.05.29-1.52.58-.03.01-.17.06-.17.06,0,0,.01,0,.02,0-.03.01-.07.02-.1.04-.19.09-.34.24-.45.4-.83.77-1.4,1.83-1.48,3.04,0,.14-.01.28-.01.42,0,1.21.36,2.25,1,3.01-7.29,3.87-12.02,8.33-12.82,12.52-.16.84-.17,1.67,0,2.49.03.15.1.3.14.45-.91-.26-1.85-.4-2.79-.41-.73,0-1.47.06-2.21.21.09-.02-.72.09-.72.09-.06,0-.12.02-.18.04-5.24,1.48-9.8,5.89-13.28,12.26-.12.13-.21.29-.25.48-4.89,9.22-7.56,22.36-6.83,36.63.59,11.65,3.39,22.5,8.08,31.37.95,1.78,1.66,3.07,2.75,4.68-.02-.02,5.01,7.78,5.01,7.78,1.54,2.29,4.54,5.7,6.29,7.17-.02-.02-.15-.15-.17-.17l1.17,1.13.73.59s.15.12.2.15l1.67,1c1.71.88,2.82,1.27,4.69,1.15.28,0,.56-.02.84-.07,2.03-.3,3.92-1.66,5.02-3.71.02-.04.12-.23.12-.23.15-.3.26-.53.36-.74,2.31,2.16,4.84,4.26,7.56,6.27-.43.7-.69,1.51-.69,2.37,0,.65.14,1.28.38,1.86-.52,0-1.03-.01-1.52-.04h0c-.49,0-.96.06-1.41.16-2.73.58-4.74,2.8-4.74,5.45,0,1.6.65,3,1.68,4.03.74.74,1.66,1.29,2.71,1.56.08.05.13.13.23.16.89.28,1.84.48,2.81.66,6.91,1.26,15.76.07,25.09-3.23.05.03.1.07.16.09,10.46,3.6,20.03,4.42,26.97,2.35.07-.02.15-.03.22-.05.06-.02.1-.06.14-.09.2-.08.4-.16.6-.24.2-.07.4-.15.59-.24,1.92-.93,3.28-2.85,3.28-5.17,0-2.47-1.74-4.54-4.15-5.29-.61-.19-1.25-.32-1.93-.32-.5.03-1.03.04-1.58.04.25-.57.38-1.2.38-1.85s-.27-1.43-.58-2.08c2.66-1.97,5.14-4.05,7.41-6.18.06.3.14.6.22.9l.18.69c.02.1.07.21.11.3.94,1.76,2.57,2.97,4.43,3.41.45.11.9.17,1.37.18,2.05.32,3.2-.16,4.69-.93.07-.04,1.73-1.04,1.73-1.04.05-.03.15-.11.2-.15l.79-.64,1.15-1.13s-.18.2-.21.22c1.75-1.47,4.75-4.88,6.28-7.15.01-.02,5.04-7.82,5.04-7.82,1.07-1.58,2.09-3.28,3.03-5.03,4.9-9.17,7.7-20.06,8.32-32.37.72-14.25-1.94-27.38-6.82-36.6v-.02c-.03-.35-.2-.63-.45-.81-3.46-6.18-7.94-10.47-13.09-11.92ZM310.8,45.66c.52.04,1.01.19,1.46.45.06.04.13.04.19.07,5.82,3.47,9.24,7.19,9.24,10.22,0,.26-.03.52-.08.77-.2.99-.84,1.9-1.85,2.71-1.49.59-2.95.73-4.33.4-.08-.02-.24-.03-.32-.03l-1.28-.04-2.47-.04c-2.05.22-6.84,1.06-8.31,3.93.01-.02.01-.04.03-.05-.05.07-.09.14-.13.21-.21.3-.35.58-.44.86-1.29-1.16-2.92-1.95-4.79-2.01l-.57-.02h-1.06c-.4-.8-.77-1.95-.73-2.48.07-1,.42-1.82,1-2.31.48-.41,1.12-.58,1.89-.51.4.05,1.15.43,1.54.64l.32.16c.46.24,1.02.15,1.4-.21.38-.36.48-.92.27-1.4-.29-.66-.55-1.48-.54-1.72.06-.9.46-1.72,1.13-2.3.63-.55,1.42-.81,2.24-.76.52.04,1.03.21,1.46.5.49.32,1.13.26,1.54-.15.42-.41.49-1.05.18-1.54-.49-.76-.73-1.28-.68-2,.07-.99.51-1.89,1.24-2.52.69-.6,1.56-.89,2.45-.83ZM307.07,102.33c-.03-.06-1.33-1.92-1.33-1.92-.69-.81-1.22-1.45-1.22-3.12,0-.39.05-.89.12-1.41.42.04.84.02,1.2,0,.23,1.1.79,2.52,2.35,3.42.11.42.24.88.24.88.1.34.19.67.27,1,.03.1.05.21.07.31.06.26.11.53.16.79.02.1.04.19.05.29.04.35.07.71.07,1.08,0,.04,0,.07,0,.11-.01.39-.05.8-.13,1.24-.2,1.04-.57,1.97-1.03,2.6-.15.21-.31.38-.48.52-.21.17-.42.27-.62.29-.47.06-.8,0-.98-.19-.07-.07-.09-.19-.14-.3.32-.09.66-.25,1.02-.59.72-.68.94-1.58.94-2.43,0-1.24-.48-2.37-.57-2.57ZM304.06,109.94c.19.19.43.38.74.54-.46,3.56-1.33,7.88-3.65,11.72-.3.5-.59.94-.86,1.35-.1.1-.18.21-.24.34-.97,1.36-1.92,2.3-3.34,3.58-1.23,1.1-1.98,1.66-3.48,2.62l-1.92,1.28c-2.33,1.6-3.94,2.69-6.71,2.77l.86-.15,1.16-.24c.25-.05.47-.3.42-.55-.05-.25-.24-.42-.49-.37l-1.35.28-.96.18-.81-.18-1.56-.28c-.25-.05-.41.13-.46.38-.04.25.2.5.46.55l1.3.24.77.16s-.06,0-.09,0c-1.47-.05-2.56-.27-3.53-.61,0,0-.01,0-.02,0-.96-.34-1.8-.81-2.78-1.34l-2.64-1.36-1.78-.76c-1.5-.61-2.49-1.02-4.54-2.75-2.1-1.78-2.93-3.31-4.21-5.87-2.25-4.51-2.89-7.5-2.54-11.96.07-.06.13-.12.19-.18,1.3-1.32,1.06-3.44,1.03-3.67-.06-.43-.42-.72-.81-.89-.35-.16-.81-.05-1.16.15-.12-.12-.17-.34-.17-.61,0-.49.16-1.13.36-1.58,0,.01.96-1.33.96-1.33,1.05-1.25,2.25-2.67,1.62-6.86,0,0-.14-.38-.26-.73.54-1.36.3-2.99.26-3.2-.07-.39-.32-.72-.67-.9-.35-.18-.78-.17-1.13.01-.09.05-.18.06-.29.09h0c.1-.04.21-.09.21-.09.47-.17,1.21-.44,1.81-1.15l.07.04c1.26.65,3.24.65,4.6-.6,2.13-1.98,1.74-4.26,1.24-5.19-.08-.15-.2-.28-.34-.39.13.02.26.04.39.04,1.02.05,2.82-.06,4.48-1.15.92.77,2.05,1.25,3.06,1.25,2.12,0,3.88-1.02,4.9-2.8.28-.16.54-.33.78-.54.95,2.15,2.88,3.54,5.28,3.54,1.35,0,3.1-.74,4.1-1.99,1.08,1.17,2.36,1.74,3.49,2-.03.04-.08.07-.11.13-.5.93-.89,3.21,1.24,5.19,1.35,1.25,3.33,1.25,4.59.6l.06-.04c.61.71,1.35.99,1.82,1.15,0,0,.11.04.21.08h0c-.1-.02-.2-.04-.29-.08-.35-.18-.77-.19-1.12-.01-.35.18-.61.51-.67.9-.08.47-.37,2.73.81,4.11l-.12.34c-.12.8-.17,1.5-.17,2.12,0,2.61.94,3.73,1.79,4.74l.99,1.39c.18.41.33,1.04.33,1.52,0,.27-.05.5-.17.62-.35-.2-.81-.31-1.16-.15-.39.17-.75.47-.81.89-.03.24-.28,2.36,1.03,3.68ZM295.81,148.41c-.95.93-1.85,1.81-2.93,2.49-6.05,3.72-13.74,7.65-25.42,9.48-.54-.16-.92-.68-.92-1.29s.41-1.16.97-1.3c0,0,.03,0,.05-.02.09-.02.18-.04.26-.08.27-.08.6-.18.6-.18,6.1-2.13,14.44-5.35,19.85-8.71,1.72-1.07,3.25-2.4,4.73-3.69l.23-.2c.42,1.48,1.51,2.66,2.91,3.19l-.34.31ZM297.54,150.17l.99-.89c.29,1.75,1.45,3.18,3.01,3.85l-3.36,2.17-1.12.7c-11.46,7.11-25.72,10.89-35.85,11.45-.57-.4-.91-1.06-.91-1.79,0-.56.26-1.09.65-1.49.12-.07.23-.16.32-.28.37-.27.81-.43,1.27-.43,15.19-1.42,24.51-6.09,31.64-10.47,1.32-.82,2.36-1.83,3.36-2.82ZM271.4,152.8s.46.27,1.04.61c-1.52.58-3.1,1.16-4.77,1.74,0,0-.05.01-.12.04-1.15-.74-2.29-1.49-3.39-2.28,1.51-.69,2.61-2.11,2.9-3.82l.99.89c1,.98,2.04,2,3.36,2.82ZM269.42,147.92c1.4-.53,2.48-1.71,2.91-3.19l.23.19c1.48,1.29,3.02,2.62,4.74,3.69,1.01.62,1.91,1.15,2.82,1.64-1.47.66-3.05,1.34-4.76,2.03l-2.67-1.57c-1.08-.67-1.98-1.55-2.93-2.48l-.34-.31ZM286.98,146.7c-1.15.71-2.51,1.46-4.04,2.22-1.5-.73-2.78-1.44-4.33-2.41-.75-.47-1.48-1.01-2.19-1.58.04,0,.08,0,.12-.01-.02,0-.03,0-.05,0,.1,0,.19-.01.28-.04,3.31-.16,5.95-2.93,5.95-6.36,0-.6-.21-1.34-.49-2.04.48.06.98.11,1.54.12.56.02,1.08,0,1.58-.05-.2.61-.35,1.24-.35,1.8,0,3.02,2.06,5.55,4.81,6.21-.92.76-1.85,1.5-2.83,2.1ZM259.36,106.71c.35.33.7.49,1.02.59-.05.1-.07.23-.14.3-.18.18-.51.24-.98.19-.24-.03-.49-.17-.76-.42-.62-.59-1.13-1.71-1.37-2.99-.09-.5-.13-.96-.13-1.4,0-1.2.3-2.25.63-3.41l.24-.88c1-.87,1.42-1.95,1.62-2.83,0-.03.02-.06.02-.08.05,0,.11,0,.17.01.07,0,.15.01.22.02.09,0,.18,0,.27,0h.16c.09,0,.18,0,.27,0,.07,0,.14,0,.2-.02.07,0,.15-.01.22-.03.12-.02.25-.04.37-.07.02,0,.04,0,.06-.01.03.34.09.73.09,1.01,0,1.66-.54,2.3-1.22,3.12l-1.3,1.87c-.1.23-.59,1.38-.59,2.63,0,.85.22,1.74.94,2.42ZM265.58,54.63c-.11-1.57-.81-2.99-1.97-4-1.12-.97-2.53-1.45-3.99-1.36.02-.19.11-.34.11-.55,0-.11,0-.23-.01-.35-.11-1.65-.85-3.15-2.08-4.22-.17-.15-.36-.26-.54-.39-.2-.14-.4-.27-.61-.38.16-.08.3-.2.41-.34,1.15-.54,2.37-1.07,3.64-1.58-.02,0-.03.02-.05.02l.88-.19c.5-.04.98.05,1.43.24.33.13.65.31.94.56.7.61,1.13,1.47,1.19,2.43.06.85-.18,1.69-.68,2.36-.3.41-.26.95.02,1.38.27.43.85.63,1.35.53l1.26-.26c.45-.03.93.12,1.32.46.48.42.77,1.09.83,1.89.02.29-.25.72-.52,1.14l-.22.35c-.27.44-.16.96.15,1.37.31.41.93.54,1.42.39l.96-.29c.53-.04,1.05.14,1.46.49.44.38.71.92.75,1.52.03.48-.09.94-.33,1.33-.43.25-.85.5-1.23.75-.26-.63-.65-1.21-1.17-1.7-1.11-1.05-2.72-1.55-4.4-1.39-.11.01-.21.07-.32.09,0-.06.03-.12.03-.17s0-.1,0-.15ZM276.12,44.78c4.43-1.09,8.42-1.8,11.87-2.11,5.65-.51,11.14-.49,16.01.04.05.03.1.07.16.09.62.22,1.06.81,1.11,1.51.06.95-.61,1.78-1.51,1.84,0,0-.31,0-.31,0-.03,0-2.59-.27-2.59-.27-3.94-.1-7.56.06-10.85.48-4.21.54-8.36,1.37-12.17,2.4,0-.08.01-.16.01-.24,0-1.57-.65-2.89-1.73-3.73ZM302.21,48.49c.5.05.93.1.93.1-.03,0,.78.02.78.02.27-.02.53-.07.78-.14-.02.12-.05.24-.06.37,0,.12-.01.23-.01.34,0,.21.08.36.11.55-.82-.05-1.62.09-2.36.39.03-.22.03-.45.01-.69-.02-.33-.09-.65-.18-.94ZM298.8,55.42c-.1-.02-.2-.07-.29-.08-1.46-.14-2.75.23-3.76,1.08-.69.58-1.18,1.39-1.5,2.31-.45-.3-.94-.6-1.45-.9-.31-.42-.47-.94-.44-1.48.04-.6.3-1.14.75-1.53.41-.36.93-.53,1.46-.49l.95.29c.49.15,1.11.01,1.42-.39.19-.25.29-.54.29-.83.66-.03,1.31-.07,1.97-.07.06,0,.93-.06.93-.06.04,0,.07,0,.1-.01-.24.59-.42,1.21-.46,1.86,0,.05,0,.1,0,.15s.03.11.03.17ZM299.78,85.38c.96-.54,1.34-1.5,1.34-2.42,0-.3-.06-.58-.14-.86.44-.23.83-.51,1.19-.81.1.27.19.58.25.94,0,.04,0,.08.01.11.02.15.04.31.06.47.02.21.03.43.03.66l-.14,1.01s0,.01,0,.03c-.17.56-.51,1.01-1.07,1.43l-.91.56c-.35.18-1.22.3-1.78-.22-.28-.26-.43-.51-.56-.74.56.14,1.16.16,1.72-.16ZM298.14,82.94c.1-.02.28-.06.49-.11,0,.05.02.1.02.16,0,.07-.03.11-.05.15-.12-.03-.28-.1-.45-.2ZM300.87,71.18l-.12-.04c-.36-.13-.76-.38-1.08-.18-.32.2-.53.25-.56.63l-.11,1.26c.05.29.08.52.08.7,0,.47-.2.61-.66.73-.49-.45-.79-2.97-.93-4.2l-.16-1.32c-.03-.24-.09-.49-.15-.75,0-.01,0-.03,0-.04-.21-.77-.55-1.6-1.02-2.42.39,0,.92,0,.92,0l.58.02c2.44.07,4.46,2.25,5.18,4.44l.21.84s.01.02.02.04l.08.52s.03,1.02.04,1.34c-.55-.7-1.31-1.22-2.29-1.57ZM297.02,76.36c.57.39,1.24.51,1.95.33.97-.24,1.99-.85,2.37-2.15.22.38.4.87.4,1.65,0,.48-.06,1.05-.2,1.74l-.27.67s0,0,0,.02c-.52.94-1.55,1.41-2.12,1.61l-1.24.28c-1.67.09-3.89-.43-4.95-3.44,0,.01.04.15.05.17,0-.02-.11-.33-.19-.59l-.04-.14s0-.03,0-.05l-.34-1.85c-.04-.34-.08-.67-.14-.99-.4-2.28-1.28-3.78-2.8-4.77.02.01-.56-.31-.86-.47-.03-.01-.04-.04-.07-.05l-.35-.17c-1-.48-1.54-.75-1.79-1.82-.05-.21-.08-.41-.11-.61,0-.08-.01-.15-.02-.23,0-.12-.02-.23-.02-.34,0-.03,0-.07,0-.1,0-.27.04-.51.09-.73.09-.15.4-.69.5-.85.07-.05.15-.11.15-.11,2.5-1.43,4.73.52,5.83,1.8,1.22,1.42,1.89,3,2.02,3.94l.15,1.27c.3,2.58.58,5.01,2,5.99ZM264.77,84.44c.21.32.44.62.82.84.57.32,1.16.3,1.72.16-.13.24-.28.48-.56.74-.56.52-1.44.4-1.78.22,0,0-.12-.08-.27-.16.06-.41.09-.85.09-1.34,0-.14-.01-.3-.02-.45ZM266.77,83.04s-.05-.08-.05-.15c0-.17.05-.36.05-.36.09-.29.15-.56.21-.84.43.21.86.38,1.3.5-.19.05-.36.14-.5.26-.32.28-.76.53-1,.58ZM266.71,78.45c-.25-.32-.42-.67-.49-1.05-.14-.68-.2-1.25-.2-1.74,0-.78.18-1.26.4-1.64.37,1.31,1.39,1.91,2.37,2.15.71.18,1.38.06,1.95-.33,1.42-.99,1.7-3.42,2-5.99l.08-.69c.01-.11.08-.59.08-.59.1-.72.48-1.67,1.05-2.6.32-.53,3.27-5.15,6.8-3.14.59.34.84,1.07.73,2.18l-.12.79h0s0,0,0,0c-.16.69-.44.99-.7,1.19-.05.05-1.08.62-1.08.62-1.51.74-3.58,1.75-4.16,6.02h0s0,0,0,0l-.05.34c0,.06-.02.1-.02.1-.09.82-.24,1.57-.47,2.27-.33,1.01-.81,1.82-1.41,2.4-1.15,1.11-2.59,1.28-3.6,1.22-.78-.04-2.32-.5-3.14-1.54ZM280.16,71.35c-.05.25-.1.5-.16.74-.43-.16-.93-.27-1.51-.31.39-.77.88-1.24,1.48-1.57l.19,1.14ZM276.22,79.23c.36.33.77.6,1.21.81-.06.02-.11.05-.18.05-.33,0-.78-.23-1.23-.56.07-.09.14-.19.2-.29ZM277.35,76.61c.19-.68.34-1.39.43-2.15.13-.11.26-.24.37-.24.9,0,1.29.27,1.36.38l-.04-.1c.16.38.52.7.93.78.4.08.84,0,1.13-.3.14-.14.27-.4.4-.71.15.13.31.25.48.36-.01.24-.03.47-.04.67v.13c-.02.21-.03.39-.04.52-.34.84-.87,1.47-1.58,1.79-.41.19-.88.28-1.39.28-.83,0-1.7-.66-2-1.42ZM282.37,69.87l.02-.18c.04-.3.11-.88.14-1.09.31-.31.57-.67.78-1.07,0,.14.02.3.03.46,0,.05,0,.1.01.15.01.15.03.3.05.46,0,.05,0,.1.02.16.05.41.13.83.23,1.23.01.05.03.1.04.16.04.14.09.28.14.4.02.05.04.1.06.15.07.16.15.31.24.44.25.35.67.54,1.1.5.43-.03.81-.29,1-.67.24-.48.35-.6.38-.63.07,0,.29,0,.87.2.13.06.5.26.5.26.07.05.17.14.24.32,0,.02.01.04.02.06.03.07.04.16.05.26,0,.05.01.09.01.15,0,.15,0,.31-.02.52-.04.33-.18,1.33-1.92,1.28-.78-.02-1.52-.2-2.15-.52-.82-.4-1.37-1.02-1.64-1.83l-.2-1.16ZM284.8,75.65c.16.04.33.07.5.09.11.4.29.84.56,1.24.02.02.04.04.05.07.12.16.25.3.41.43.05.04.09.08.15.12.2.14.41.27.67.36.48.16,1.01,0,1.33-.38.3-.36.58-.54.84-.61.08-.02.15-.02.23-.03.05,0,.11-.02.15-.02.12,0,.24.02.35.05.22.05.33.13.43.33l.13.4s.08.94.08.94c0,.71-1.4,1.65-2.45,1.65-2.03,0-3.41-1.62-3.45-4.03,0,0,.02-.29.03-.61ZM298.85,50.8c-.19.01-.73.05-.73.05-3.7.04-7.52.48-11.29,1.31-1.98.43-3.84.93-5.59,1.46-.21,0-.41.05-.59.15-.07-1.16-.56-2.16-1.35-2.87,3.47-.9,7.22-1.62,11.02-2.11,2.62-.33,5.47-.49,8.47-.48.14.15.31.28.52.34.38.12.59.43.62.95,0,.03,0,.08,0,.13,0,.3-.12.84-1.09,1.07ZM289.53,54.14c-.35.61-.58,1.29-.63,2.03,0,.05,0,.1,0,.16-.8-.37-1.65-.72-2.53-1.06l-.17-.42c.38-.09.76-.19,1.15-.27.73-.16,1.46-.29,2.18-.42ZM279.85,56.66c.49-.17,1.01-.34,1.53-.5,1.1.33,2.17.68,3.19,1.05.28.39.74.56,1.2.46,1.72.68,3.27,1.41,4.61,2.17.03.02.06.04.09.05.95.54,1.8,1.1,2.5,1.66.03.14.06.28.09.42-2.29-1.75-4.85-2.09-7.16-.82-.06.01-.12,0-.19.03-.77.26-1.51.69-2.2,1.25-.33-.74-.85-1.34-1.56-1.75-3.41-1.95-6.85-.24-9.14,2.59-.52-.14-1.12-.24-1.76-.31.47-.85.65-1.62.71-2.22.54-.43,1.17-.85,1.85-1.26.25-.05.5-.17.68-.38.02-.02.03-.04.04-.06,1.2-.66,2.59-1.29,4.12-1.88.53.16,1.09-.04,1.38-.52ZM271.38,65.5c-.37.72-.64,1.43-.8,2.09-.06.23-.11.45-.13.66,0,0-.06.5-.06.5-.02.12-.1.82-.1.82-.14,1.23-.44,3.75-.93,4.2-.46-.12-.66-.24-.66-.72,0-.18.03-.42.08-.71l-.11-1.26c-.04-.38-.24-.42-.57-.63s-.72.05-1.08.18l-.12.04c-.32.11-.61.25-.89.4-.09.05-.16.1-.24.15-.18.11-.36.23-.52.37-.08.06-.15.13-.23.2-.15.15-.29.3-.42.47-.05.06-.11.12-.15.19-.16.24-.31.49-.43.76-.02.05-.04.11-.05.16-.09.23-.17.47-.23.73-.02.1-.04.21-.06.32-.04.22-.07.46-.09.7,0,.12-.02.23-.02.35,0,.07-.01.13-.01.2,0,.19.02.39.03.58,0,.13,0,.25.02.39.04.41.1.83.19,1.27.01.05.04.1.05.15-.44.16-.83.44-1.17.86,0,0-.01.02-.02.02-.15.19-.29.4-.41.64-.03.05-.06.11-.09.16-.13.26-.26.54-.37.86l-.47,1.61c-.67,2.5-1.12,3.54-2.21,3.54-.58,0-1.09-.57-1.42-1.05l-.16-.26s-.61-1.27-.61-1.27c-.06-.15-.1-.28-.15-.4-.01-.04-.02-.07-.03-.1-.03-.09-.06-.17-.08-.25,0-.03-.02-.06-.03-.09-.02-.08-.04-.17-.05-.25,0-.01,0-.02,0-.03-.01-.09-.02-.18-.02-.27,0-.02,0-.05,0-.07,0-.08,0-.17.02-.26,0-.04,0-.07.01-.11,0-.06.02-.13.03-.2.05-.14.08-.29.07-.44l.09-.46c.04-.2.19-.44.42-.66h0c.06-.06.12-.09.19-.14.67,1.03,1.62,1.04,2.19.91,2.34-.51,2.55-3.98,2.61-7.01,0-.2,0-.4,0-.6l.04-1.45.13-.77c.55-2.53,2.92-4.71,5.49-5.08.02,0,.05,0,.08,0,.28.08.58.06.85-.07.88-.04,1.83.02,2.59.13ZM264.68,80.37c0,.16-.02.36-.06.58,0-.15-.04-.27-.09-.39.08-.13.15-.19.15-.19h0ZM259.74,72.47c0,.14,0,.24,0,.24-.02,1.12-.09,3.75-.52,4.8-.06-.15-.12-.31-.12-.31-.17-.43-.49-.57-.95-.61-.12-.01-.26.02-.39.04.03-.17.05-.35.11-.5l.31-.74c.6-1.47,1.03-2.38,1.57-2.98,0,.03,0,.04,0,.07ZM258.97,69.81c-1.59.98-2.28,2.66-3.09,4.65l-.3.73c-.37.9-.41,1.83-.44,2.65l-.02.38c-.07.08-.13.17-.19.26-1.16-1.22-2.5-2.81-3.1-3.89-1.27-2.28-1.4-3.13-1.66-5.01l-.1-.7c-.18-1.01-.46-1.83-.85-2.83-.53-1.34-1.22-2.56-2.03-3.64.69,0,1.37-.03,2.05-.17.1,0,1.38-.04,1.38-.04l2.13-.05c3.27.36,5.92,1.46,6.44,2.68.04.11.1.21.18.29.18.23.2.34.24.94,0,0,.04.4.07.67-.06.25-.48,2.08-.7,3.08ZM254.45,83.58c-.39-.13-.7-.45-.83-.63-.09-.13-.08-.28-.14-.42.24.05.47.05.68.03.06.33.16.66.29,1.02ZM253.64,87.58c0-.5-.04-1.06-.12-1.67.29.11.58.18.88.21.16.03.33.05.5.04h.12s.03.02.06.02c-.25.78-.52,1.58-.83,2.34-.04.09-.08.18-.12.28-.12.28-.25.56-.38.83-.18.35-.38.69-.59,1-.01.02-.02.04-.03.06-.69.99-1.43,1.54-2.29,1.68-.02,0-.18.04-.18.04-.25.03-.76.03-1.05-.26-.08-.08-.07-.28-.12-.4.25.08.51.16.8.14,1.07-.08,1.91-.47,2.48-1.17.59-.73.88-1.74.88-3.11ZM253.4,93.89c.07.35.12.63.12.8s-.06.23-.13.29c-.02-.01-.28-.21-.28-.21-.22-.16-.48-.18-.75-.14,0-.06,0-.11-.01-.15.37-.15.72-.35,1.05-.58ZM253.09,104.84c.78-.6,1.21-1.17,1.44-1.73,0,.54.06,1.11.18,1.72,0,0,0,0,0,0,.16.85.55,2.28,1.39,3.48-.09.13-.2.28-.2.28-.18.21-.47.46-.77.46-.27,0-.5-.18-.61-.3-.07-.07-.23-.32-.25-1.16-.02-.63-.6-1.2-1.23-1.25-.02,0-1.63-.29-2.01-1.45.22.13.46.24.73.28l1.33-.34ZM253.99,99.91c.33.04.66.03.98,0-.13.52-.25,1.05-.34,1.62-.12-.6-.35-1.14-.65-1.61ZM256.09,96.95c-.07.05-.23.15-.23.15-.67.35-1.52.47-1.94.27.28-.07.58-.11.79-.25.99-.64,1.28-1.51,1.28-2.42,0-.69-.17-1.4-.32-2.05,0,0-.1-.48-.18-.88l-.04-.18c.75-1.21,1.31-2.6,1.77-3.96.7.44,1.38.58,1.91.58.27,0,.51-.03.75-.07-.33.35-.6.83-.6,1.57,0,.12,0,.25.02.39.12,1.16.72,1.71,1.2,1.96.3.16.61.2.91.21-.03.3-.09.59-.21.77l-.08.1c-.37.31-1.44.19-1.96.13l-.68-.06c-.33-.03-.6.08-.85.29-.25.21-.35.52-.38.85-.09,1.32-.45,2.12-1.15,2.6ZM304.16,79.22s.05.09.08.13c.23.35.51.63.84.83.04.02.08.05.13.07.18.09.36.17.57.21.22.05.43.06.63.04.4-.04.76-.21,1.08-.51.16-.15.31-.33.45-.53.02.03.04.04.06.08l.43.82s.18.61.18.61c.02.07.03.12.05.18.07.27.13.51.18.73.01.07.03.13.04.2.04.22.06.42.06.63,0,.02,0,.04,0,.05,0,.18-.04.37-.07.55-.02.12-.02.24-.05.37,0,0,0,.02,0,.03s0,0,0-.02l-.33.76s-.47.61-.48.61h0c-.25.25-.55.44-.85.58-.15.07-.3.12-.46.15-.15.04-.3.05-.45.05-.43,0-.92-.14-1.42-1.21,0-.03,0-.05.01-.08.07-.49.16-1.08.16-1.08,0-.49-.04-.92-.1-1.34-.01-.08-.02-.16-.03-.24-.06-.4-.15-.77-.25-1.11,0-.01,0-.03-.01-.04-.23-.73-.54-1.31-.85-1.77.04-.12.09-.24.13-.34h0c.09.21.19.4.29.58ZM305.62,72.51c.54.6.97,1.5,1.57,2.98,0,0,.28.68.3.72-.03,0-.06,0-.08,0-.46.04-.78.18-.95.61l-.22.55c-.02.05-.05.15-.08.24-.43-1.04-.5-3.67-.52-4.8,0,0,0-.21,0-.3ZM308.12,94.46c-.02-.33-.12-.64-.37-.85-.25-.22-.52-.32-.86-.3l-.67.06c-.53.06-1.41.16-1.87-.07l-.11-.06c-.15-.13-.23-.48-.28-.87.3-.02.61-.06.91-.21.47-.25,1.07-.79,1.2-1.96.01-.14.02-.27.02-.39,0-.74-.27-1.22-.6-1.57.24.05.49.08.75.08.66,0,1.32-.16,1.95-.45.45,1.32,1,2.66,1.73,3.84l-.09.41c-.04.2-.08.4-.11.52l-.03.13c-.15.64-.32,1.36-.32,2.05,0,.91.29,1.78,1.28,2.42.2.13.5.17.77.24-.37.17-1.05.11-1.7-.17-.11-.04-.22-.09-.22-.09-.87-.46-1.28-1.28-1.39-2.75ZM311.38,99.98c-.1.17-.2.33-.3.52-.04-.16-.09-.31-.13-.47.02,0,.04,0,.05,0,.13,0,.25-.02.37-.04ZM311.35,105.44c.08-.42.12-.82.15-1.2.21.23.47.47.78.7,0,0,1.33.35,1.33.35.28-.04.53-.16.76-.3-.34,1.17-2.02,1.47-2.04,1.47-.63.05-1.22.62-1.23,1.25-.02.84-.18,1.09-.25,1.16-.11.11-.33.3-.61.3-.12,0-.24-.05-.35-.12.69-.93,1.2-2.18,1.47-3.6ZM312.99,94.72c-.26-.04-.53-.02-.74.14,0,0-.27.2-.29.21-.07-.06-.13-.12-.13-.29,0-.16.05-.44.12-.79.33.24.69.43,1.05.58,0,.04,0,.09-.01.15ZM312.24,90.78s-.02-.04-.03-.05c-.21-.31-.41-.65-.59-1-.13-.26-.25-.53-.37-.8-.04-.11-.1-.21-.14-.32-.31-.76-.58-1.57-.83-2.34h.18c.17,0,.33-.02.49-.06.3-.03.6-.1.88-.21-.08.61-.12,1.17-.12,1.68,0,1.38.29,2.38.88,3.11.57.7,1.41,1.1,2.48,1.17.3.02.55-.05.8-.14-.05.12-.04.33-.12.4-.29.29-.79.29-1.07.26,0,0-.15-.03-.17-.03-.86-.14-1.61-.69-2.29-1.68ZM311.39,82.69c.18,0,.37-.02.55-.07-.07.14-.12.29-.21.43,0,0,0,0,0,0,0,0,0,0,0,.01-.08.11-.21.27-.37.41.02-.17.03-.33.03-.49,0-.07.02-.15.02-.22,0-.02-.02-.05-.02-.07ZM310.42,78.92c-.06-.12-.12-.24-.18-.35l-.03-.63c-.03-.82-.06-1.75-.44-2.65l-.3-.73c-.98-2.41-1.8-4.35-4.25-5.16-.02-.06-.04-.12-.06-.18-.2-.81-.44-1.82-.49-2.02.03-.27.07-.66.07-.66.04-.59.06-.71.24-.94.07-.09.13-.19.17-.29.52-1.22,3.18-2.33,6.46-2.68,0,0,2.12.05,2.12.05,0,0,1.29.03,1.39.04,1.11.23,2.23.23,3.37.05-.62.92-1.16,1.93-1.59,3.03-.39,1.01-.67,1.83-.85,2.79,0,.04-.11.74-.11.74-.27,1.87-.39,2.73-1.67,5.01-.64,1.15-2.47,3.2-3.86,4.59ZM307.65,43.64c.12.05.23.11.35.16-.1.05-.21.08-.3.14-.01-.1-.03-.2-.04-.3ZM275.57,36.9c1.69-.37,3.37-.69,5.03-.97,0,0,.02,0,.04,0,.24.03.46-.02.66-.11,11.17-1.77,21.41-1.41,27.32,1.05.58.33,1.05.85,1.1,1.58,0,.05,0,.1,0,.15,0,1.09-.8,2.01-1.85,2.09,0,0-.31,0-.31,0,0,0-1.09-.16-1.09-.16-2.82-.42-5.89-.65-9.1-.7-3.09-.05-6.32.07-9.6.37-3.74.34-8.07,1.12-12.89,2.33.02-.12.07-.23.08-.35.03-.23.04-.47.04-.7,0-.96-.25-1.87-.71-2.68-.18-.32-.39-.62-.63-.9-.15-.17-.33-.3-.5-.45.79-.19,1.59-.38,2.41-.56ZM271.16,45.42c.19.47.7.78,1.21.78h1.28c1.43.18,1.83,1.59,1.69,2.74-.03.29-.38.66-.71,1.01l-.28.3c-.35.38-.34.91-.11,1.37.23.46.8.71,1.31.66l.99-.1c1.14.14,1.77.98,1.62,2.17,0,0-.07.16-.15.36-.9.34-1.76.69-2.57,1.06,0-.03,0-.05,0-.08-.08-1.26-.65-2.4-1.59-3.22-.72-.62-1.6-.94-2.52-1.03.03-.18.12-.33.12-.53,0-.07,0-.13,0-.2-.1-1.46-.69-2.74-1.67-3.59-.74-.64-1.64-.96-2.62-1.01.1-.44.21-.89.21-1.35,0-.14,0-.28-.01-.41-.1-1.43-.7-2.73-1.67-3.73-.12-.13-.23-.27-.37-.39-.16-.14-.33-.24-.5-.36,1.41-.48,2.89-.94,4.42-1.38,0,0,.01,0,.02,0,.88,0,1.65.28,2.23.76.11.09.22.18.32.28.55.62.8,1.46.7,2.35-.06.54-.26,1.04-.54,1.49-.21.14-.36.34-.45.57-.03.04-.06.08-.1.11-.37.35-.44.88-.25,1.35ZM254.64,38.92c.05-.74.53-1.26,1.12-1.59,3.96-1.65,9.67-2.39,16.37-2.15-4.46,1.11-8.63,2.46-12.37,3.97-.08.02-.14.03-.14.03.02,0,.05,0,.07,0-1.44.58-2.81,1.18-4.12,1.8-.8-.3-.94-1.2-.94-1.79,0-.1,0-.19,0-.26ZM245.55,50.49c1.51-1.56,3.6-3.16,6.19-4.72.12-.03.24-.06.36-.12.45-.26.94-.42,1.46-.45.19-.01.37,0,.55.02.69.07,1.35.34,1.9.81.73.64,1.17,1.53,1.24,2.52.05.71-.19,1.23-.68,2-.31.49-.24,1.13.17,1.54.41.41,1.06.47,1.54.15.44-.29.94-.46,1.46-.5.81-.06,1.61.21,2.24.75.67.58,1.07,1.4,1.13,2.31,0,.24-.26,1.06-.54,1.72-.21.48-.11,1.04.27,1.4.38.36.93.44,1.4.21l.33-.16c.4-.21,1.13-.59,1.56-.64.95-.09,1.85.17,2.44.73.53.49.79,1.18.75,1.98.03.48-.03,1.7-1.41,2.94-.13.01-.27.03-.4.04-2.08.3-4.01,1.43-5.43,3v-.12c-.05-.63-.13-1.35-.68-2.13-.04-.07-.07-.13-.12-.19.02.02.01.04.03.05-1.47-2.87-6.26-3.71-8.31-3.93l-2.48.04-1.27.04c-.08,0-.24.01-.32.03-1.38.33-2.84.19-4.33-.4-1.01-.81-1.65-1.72-1.85-2.71-.05-.25-.08-.51-.08-.77,0-1.64,1-3.51,2.88-5.44ZM221.5,74.85c.47,1.19,1.19,2.16,2.1,2.88,1.11.89,2.49,1.4,4.07,1.4.65,0,1.29-.12,1.91-.3.83,2.45,2.82,3.98,5.58,3.98,1.33,0,2.58-.46,3.65-1.21.92,2.56,3.18,4.4,5.85,4.4,2.19,0,4.22-1.13,5.43-3.01.37-.57.2-1.34-.37-1.7-.57-.37-1.34-.2-1.7.37-.75,1.17-2,1.87-3.35,1.87-2.12,0-3.84-1.99-3.84-4.43,0-.55-.36-1.03-.89-1.18-.53-.15-1.09.06-1.39.52-.75,1.19-2.01,1.9-3.37,1.9-2.04,0-3.3-1.18-3.55-3.31-.05-.41-.3-.77-.67-.96-.37-.18-.81-.17-1.17.04-.64.37-1.36.56-2.09.56-1.22,0-2.25-.44-3-1.24-.75-.79-1.21-1.94-1.32-3.35,0,0,.06-1.09.06-1.2,3.09-5.62,7.07-9.51,11.62-10.88.05-.01.09-.03.14-.05.18-.02.69-.09.69-.09,4.47-.92,9.08,2.06,11.04,7.08.35.89.58,1.56.72,2.33,0,0,.09.65.09.65.28,1.99.46,3.19,1.95,5.86.5.89,1.37,2.02,2.29,3.08-.2.11-.37.28-.49.49-.12.21-.72,1.26-.76,1.98-.05.8.16,1.66.56,2.44-.15.51-.26,1.03-.26,1.57,0,.25.02.51.05.76.08.59.11,1.07.11,1.46,0,1.01-.21,1.41-.33,1.56-.05.07-.2.2-.66.25-.1-.06-.27-.25-.42-.5-.21-.36-.62-.53-1.03-.56-.41-.02-.84.21-1.09.54-.49-.06-.99.17-1.24.62-.77,1.41-2.21,2.28-3.76,2.28-2.39,0-4.33-2.02-4.33-4.52,0-.62-.47-1.15-1.09-1.22-.62-.07-1.2.33-1.34.94-.44,1.83-2.12,3.01-4.28,3.01-1.98,0-3.71-1.39-4.2-3.39-.1-.39-.38-.71-.75-.86-.37-.15-.79-.1-1.13.12-.72.48-1.24.64-2.04.64s-1.83-.17-2.74-1.16c-.62-.67-1.19-1.72-1.61-3.37,0-.03-.02-.04-.03-.07.68-2.51,1.49-4.87,2.41-7.04ZM218.13,85.96c.56.87,1.19,1.51,1.86,1.96,1.15.79,2.4,1.03,3.48,1.03.78,0,1.45-.16,2.11-.42,1.13,2.33,3.39,3.9,6.01,3.9,2.04,0,3.78-.82,5.03-2.1,1.12,2.28,3.36,3.89,6.02,3.89,1.64,0,3.19-.62,4.41-1.68.21.61.52,1.04.82,1.33.53.53,1.24.84,2.04.94l.07.75.15,1.4c.14,1.7.95,2.94,1.54,3.84.42.64.64.98.64,1.24,0,.16-.11.3-.28.46-.16-.19-.32-.41-.41-.55l-.82-.85c-.3-.31-.6-.19-1.03-.09-.42.1-.62.67-.75,1.08l-.24.76-.36,1.32c0,.1-.01.2-.01.31,0,1.19.48,2.23,1.39,3.01.63.54,1.39.86,2.1,1.06.09.61.3,1.34.86,1.91.67.69,1.54,1.06,2.43,1.04.66-.01,1.64-.25,2.56-1.29,0,0,.09-.13.21-.3.33.15.66.25,1.01.29.11.01.21.01.32.02-.22,4.42.56,7.71,2.86,12.31.25.5.48.96.72,1.4-.37.15-.78.23-1.19.25-1.52-.45-2.39-1.01-3.49-2.97-.02-.04-.05-.08-.08-.12l-1.07-1.47c-1.69-3.84-5.34-6.5-9.66-7.1-.94-4.94-1.48-11.46-1.31-15.95.06-.18.12-.35.16-.54.14-.67-.29-1.32-.96-1.46-.67-.14-1.32.29-1.46.96-.34,1.64-1.76,2.83-3.37,2.83-1.33,0-2.55-.81-3.12-2.07-.24-.53-.82-.82-1.38-.7-.57.12-.97.62-.97,1.21,0,2.16-1.72,3.79-4.01,3.79-1.7,0-3.02-1.88-3.52-3.62-.16-.54-.66-.91-1.23-.89-.57.02-1.05.42-1.16.98-.43,2.03-2,3.44-3.81,3.44-1.29,0-2.42-.76-3.23-2.04-.56-.89-.97-2.03-1.14-3.36,0-.03-.02-.05-.02-.07.26-3.17.7-6.22,1.29-9.11ZM252,132.29s0,.01,0,.01c-.1,1.9-1.59,3.43-3.43,3.43-.37,0-.73-.08-1.08-.21-.13-.12-.26-.24-.26-.24-.34-.31-.82-.41-1.25-.25-.43.16-.74.54-.8.99-.23,1.68-1.46,2.68-3.3,2.68-1.09,0-1.91-.34-2.51-1.02-.04-.05-.09-.07-.14-.11-3.17-6.89-3.66-13.35-.83-18.21.43-.83.86-1.62,1.36-2.29.26-.15.45-.37.55-.65.45-.45.96-.81,1.58-1.03,1.18-.49,2.13-.52,3.58-.52,4.2,0,7.88,2.32,9.38,5.91.04.09.08.17.14.25l1.08,1.49c.37.64.73,1.18,1.11,1.65.2.51.53,2.17.53,2.72,0,2-1.56,3.62-3.47,3.62l-.59-.11c-.21-.04-.68-.09-.89-.02l-.15.05c-.35.12-.61.42-.74.77-.04.13-.07.27-.07.41,0,.24.07.48.19.68ZM234.56,131.01c-.23-.51-.96-2.13-.96-2.13l-1.49-3.4s-.66-1.94-.66-1.94c0-.02-1.47-4.24-1.47-4.24-1.75-5.91-2.23-12.03-2.35-17.53.91.8,2.02,1.33,3.32,1.33,1.69,0,3.17-.57,4.29-1.53.4,4.31,1.29,9.2,2.55,14.03-.62.82-1.12,1.72-1.56,2.59-2.12,3.64-2.61,8.05-1.68,12.83ZM237.62,100.06c.85.5,1.82.8,2.84.8,1.15,0,2.23-.36,3.15-.96.1,4,.56,8.66,1.25,12.52-1.39.02-2.52.12-3.84.68-.42.15-.8.35-1.16.57-1.16-4.72-1.95-9.53-2.24-13.61ZM248.39,156.67l-.09.19c-.79,1.46-2.27,2.44-3.75,2.44-1.19.07-1.83-.07-2.86-.56-.17-.08-.36-.17-.56-.28,0,0-1.35-.81-1.54-.92-.2-.16-.8-.66-.8-.66l-.71-.68s-.15-.15-.17-.17c-1.59-1.33-4.42-4.56-5.82-6.64.01.02-5.01-7.78-5.01-7.78-1.04-1.53-1.71-2.77-2.62-4.48-4.53-8.56-7.22-19.05-7.8-30.34-.08-1.54-.12-3.07-.12-4.58,0-.5,0-1,.02-1.5.36.43.75.8,1.17,1.12,1.02.75,2.21,1.17,3.51,1.17,1.49,0,2.84-.58,3.93-1.54.1,5.77.59,12.23,2.46,18.54l1.51,4.36s.66,1.95.66,1.95c.01.03,1.59,3.64,1.59,3.64l1,2.22c1.43,2.97,4.66,7.76,6.79,10.42,2.46,4.2,5.77,8.45,9.83,12.52-.09.53-.19.73-.6,1.57ZM254.8,157.04c-.13-.12-.28-.2-.44-.26-1.86-1.63-3.58-3.31-5.18-5,2.85-.3,5.1-2.74,5.1-5.75,0-.27-.06-.53-.1-.79.06,0,.1.02.16.02,3.03,0,5.46-2.47,5.61-5.54.42.07.83.11,1.22.11,3.12,0,5.66-2.6,5.66-5.81,0-1.91-.92-3.7-2.45-4.79-.56-.39-1.33-.26-1.72.3-.39.55-.26,1.33.29,1.72.88.62,1.41,1.66,1.41,2.77,0,1.84-1.43,3.34-3.2,3.34-1.01,0-1.5-.17-1.99-.68-.44-.46-1.15-.5-1.65-.11-.31.24-.47.6-.47.97,0,.23.06.46.2.66,0,0,.05.08.1.16.12.35.19.72.19,1.09,0,1.84-1.43,3.34-3.19,3.34-.75,0-1.16-.15-1.71-.61-.51-.43-1.25-.35-1.69.15-.44.5-.39,1.28.1,1.74l.42.4c.21.39.36.97.36,1.56,0,1.84-1.43,3.34-3.19,3.34-.83,0-1.61-.33-2.21-.93-.12-.12-.25-.21-.4-.27-1.81-2.22-3.37-4.45-4.69-6.66-.04-.15-.1-.29-.2-.42.25.03.5.07.76.07,2.48,0,4.37-1.26,5.24-3.25.48.13.95.28,1.45.28,2.98,0,5.35-2.3,5.77-5.24,3.23-.06,5.84-2.75,5.84-6.07,0-.16-.02-.37-.04-.6.33.13.68.25,1.06.35.11.03.22.05.33.05.9,0,1.79-.21,2.59-.59.74,1.08,1.6,2.07,2.83,3.11,2.34,1.98,3.61,2.5,5.2,3.15l1.68.72,2.48,1.28c.94.52,1.83,1,2.84,1.39.53.97,1.08,2.3,1.08,2.79,0,2.17-1.69,3.93-3.77,3.93-.1,0-.21.01-.3.04-.85.22-2.96-.35-3.5-.7,0,0,0,0,0,0l-.59-.5c-.35-.76-.88-1.43-1.58-1.93-.56-.39-1.33-.26-1.72.29-.39.55-.27,1.33.29,1.72.2.14.36.31.5.5.02.33.17.65.43.88.05.19.08.4.08.6,0,1.32-1.02,2.39-2.27,2.39-.71,0-1.37-.34-1.8-.93-.33-.45-.92-.62-1.43-.42-.52.2-.84.72-.79,1.27l.03.29c.02.23.11.46.26.64.41.52.6,1.02.6,1.62,0,1.49-1.16,2.7-2.58,2.7-.35,0-.67-.11-.98-.26-.14-.11-.28-.22-.42-.33,0,0,0-.01-.01-.02-.02-.02-.04-.03-.06-.04-.29-.22-.58-.45-.86-.67-.53-.43-1.31-.34-1.74.19-.43.53-.34,1.31.19,1.73.23.19.48.37.71.56l.07.11c.04.07.12.12.17.18.52.61.86,1.36.86,2.18,0,1.82-1.41,3.29-3.15,3.29-.76,0-1.5-.29-2.07-.82ZM258.38,160.09c2.3-.66,4.01-2.78,4.09-5.33.85.6,1.71,1.19,2.58,1.76-.6.68-.98,1.58-.98,2.57,0,.6.15,1.18.4,1.69-.67.08-1.35.16-2.05.22-.74,0-1.45.21-2.09.56-.66-.49-1.32-.97-1.96-1.47ZM309.01,169.76c1.68,0,3.55,1.26,3.55,3.15s-1.45,3.37-3.22,3.39c-.04,0-.13,0-.13,0-.14.01-.23.12-.35.17-5.81,1.55-13.54.99-22.14-1.6.89-.36,1.78-.74,2.67-1.14,3.01-1.34,6.05-2.89,9.05-4.63,2.63.37,5.22.6,7.5.66,1.11.03,2.16.03,3.08-.02ZM301.85,167.04c1.11-.71,2.21-1.43,3.27-2.17.09.25.16.47.16.61,0,.72-.34,1.36-.89,1.77-.82-.05-1.67-.12-2.54-.2ZM299.65,165.52c-5.85,3.63-11.83,6.5-17.61,8.52-9.65,3.38-18.67,4.39-25.32,2.62-.12-.05-.21-.16-.35-.17,0,0-.09,0-.12,0-1.78-.02-3.22-1.53-3.22-3.39s1.87-3.15,3.62-3.15c1.22.07,2.55.07,3.96,0,10.5-.44,25.68-4.35,37.78-11.85l1.12-.69,3.63-2.35c.13,2.51,1.81,4.58,4.09,5.23-2.37,1.83-4.89,3.6-7.56,5.25ZM314.09,142.65c-.46-.4-1.14-.41-1.61-.02q-.42.35-1.24.35c-1.76,0-3.2-1.5-3.2-3.34,0-.4.07-.8.2-1.17.04-.1.06-.21.07-.31l.02-.2c.04-.52-.24-1.01-.72-1.23-.47-.22-1.03-.11-1.4.26-.46.48-.71.55-1.8.55-1.76,0-3.2-1.5-3.2-3.34,0-1.11.53-2.15,1.41-2.77.55-.39.69-1.16.29-1.72-.39-.56-1.16-.69-1.72-.29-1.54,1.08-2.45,2.87-2.45,4.78,0,3.2,2.54,5.81,5.66,5.81.43,0,.83-.03,1.22-.08.16,3.06,2.58,5.51,5.61,5.51.04,0,.08,0,.12,0-.04.29-.06.56-.06.77,0,3,2.24,5.45,5.09,5.75-.39.41-.79.82-1.19,1.23-.23.12-.42.3-.53.54-1.1,1.09-2.25,2.17-3.46,3.23-.16.05-.3.14-.43.26-.57.53-1.31.82-2.07.82-1.74,0-3.15-1.48-3.15-3.29,0-.65.55-1.64.9-2.1.34-.45.33-1.07-.02-1.51-.35-.44-.95-.59-1.46-.36l-.37.16c-.06.03-.13.06-.19.1q-.14.1-.48.08h-.45c-1.42,0-2.58-1.22-2.58-2.71,0-.6.19-1.1.6-1.62.15-.19.24-.41.26-.65l.03-.29c.05-.55-.27-1.07-.79-1.27-.52-.2-1.1-.02-1.43.42-.43.59-1.09.93-1.8.93-1.25,0-2.27-1.07-2.27-2.39,0-.21.03-.41.08-.6.26-.23.41-.55.43-.88.14-.19.3-.36.49-.5.55-.39.68-1.16.29-1.72-.39-.56-1.16-.68-1.72-.29-.69.5-1.23,1.17-1.58,1.93l-.27.22s0,0,0,0c-.6.39-1.29.59-1.99.59-2.08,0-3.76-1.76-3.76-3.93,0-.58.44-1.69.88-2.48,1.58-.6,2.92-1.5,4.35-2.49l1.85-1.24c1.61-1.03,2.46-1.67,3.79-2.86,1.15-1.03,2.05-1.91,2.91-2.94.69.49,1.42.54,2.3.52h.49c.11,0,.23-.02.33-.05.39-.11.74-.23,1.08-.36-.04.23-.06.44-.06.61,0,3.36,2.66,6.09,5.94,6.09h0c.54,2.8,2.83,4.96,5.71,4.96.38,0,.74-.14,1.11-.21.76,2.12,2.74,3.45,5.53,3.45.27,0,.54-.02.8-.06-1.37,2.35-3.02,4.73-4.95,7.09-.14.06-.27.14-.38.25-.6.6-1.38.93-2.21.93-1.76,0-3.19-1.5-3.19-3.34,0-.47.15-1.17.23-1.5.12-.19.3-.47.3-.47.13-.21.2-.44.2-.67,0-.34-.14-.68-.42-.93ZM329.31,118.3c-.34-.68-.73-1.38-1.19-2.06.03-.06.07-.1.09-.17,1.39-4.93,2.3-9.95,2.69-14.74,1.12.94,2.59,1.5,4.26,1.5,1.42,0,2.62-.63,3.58-1.57-.2,6.64-1.08,12.61-2.61,17.78-.61,2.06-1.57,5.13-2.66,8.08h0c-.93,2.48-1.76,4.37-2.48,5.61-.19.32-.4.67-.62,1.03,1.68-5.77,1.46-11.14-1.05-15.46ZM326.16,114.14c-.49-.36-1.04-.66-1.66-.88-1.11-.47-2.09-.6-3.24-.64.82-4.24,1.29-8.73,1.35-12.9.9.56,1.95.89,3.05.89,1.03,0,2-.31,2.86-.82-.28,4.63-1.08,9.52-2.36,14.36ZM323.61,115.56c1.72.62,2.65,2.21,3.53,3.93,2.84,4.88,2.37,11.29-.72,18.1-.05.04-.11.07-.15.12-.66.76-1.6,1.2-2.58,1.2-1.16,0-3.12-.31-3.42-2.34v-.11c0-.41-.2-.79-.54-1.02-.34-.23-.77-.28-1.15-.12l-.3.12c-.39.15-.8.23-1.23.23-1.78,0-3.2-1.42-3.39-3.22.12-.17.17-.37.17-.57,0-.26-.09-.52-.23-.75-.26-.41-.83-.62-1.31-.55l-.96.14c-1.91,0-3.47-1.63-3.47-3.63,0-.46.61-2.56.89-3.18,0,0,0-.02,0-.03.25-.35.5-.73.74-1.16l1.08-1.48c1.39-2.24,4.29-5.81,8.85-6.13.02,0,.03.01.04.02.22.05.44.01.64-.05,1.44,0,2.38.02,3.5.49ZM349.57,101.95c0,1.51-.04,3.04-.12,4.58-.61,11.94-3.31,22.49-8.03,31.34-.9,1.68-1.87,3.31-2.91,4.83-.02.02-5.05,7.82-5.05,7.82-1.39,2.06-4.22,5.29-5.8,6.62-.02.02-.18.2-.2.22l-.62.6s-.65.53-.85.7c-.12.07-1.6.96-1.6.96-.79.41-1.31.64-1.9.71-.36.04-.75.02-1.25-.06-.06,0-.13-.01-.19-.01-1.53,0-2.94-.86-3.72-2.23-.05-.22-.13-.53-.13-.53-.17-.67-.3-1.16-.3-1.86,0-.22.02-.47.05-.73,2.92-2.98,5.46-6.05,7.55-9.13.13-.07.26-.16.37-.29,2.82-3.33,6.45-8.39,8.27-11.51.79-1.36,1.69-3.37,2.66-5.99h0c1.12-3.01,2.09-6.14,2.72-8.24,1.58-5.36,2.49-11.51,2.7-18.34,1.04.84,2.3,1.34,3.68,1.34,1.24,0,2.45-.42,3.49-1.12.42-.28.82-.61,1.19-.98,0,.44.01.87.01,1.31ZM349.32,95.41s0,.01,0,.02c0,1.13-.48,2.24-1.2,3.12-.85,1.02-2.03,1.73-3.23,1.73-1.81,0-3.38-1.41-3.81-3.44-.12-.56-.6-.96-1.16-.98-.57-.02-1.07.35-1.23.89-.5,1.74-1.81,3.62-3.52,3.62-2.29,0-4.02-1.63-4.02-3.79,0-.58-.4-1.08-.97-1.2-.57-.12-1.14.17-1.38.7-.57,1.25-1.79,2.07-3.12,2.07s-2.62-.88-3.16-2.18c-.02-.07-.04-.14-.07-.21-.05-.14-.1-.29-.13-.45-.14-.67-.79-1.09-1.46-.96-.67.14-1.1.79-.96,1.46.06.28.15.55.24.81.19,4.98-.32,10.76-1.39,16.08-4,.47-7.58,2.96-10.19,7.16.05-.08-1.06,1.45-1.06,1.45-.03.04-.05.08-.08.12-1.12,1.99-2,2.54-3.56,3-.16,0-.34,0-.34,0-.41,0-.63,0-.79-.06.18-.28.37-.57.55-.88,2.54-4.21,3.48-8.87,3.97-12.66.23-.04.45-.1.67-.18.84.79,1.68.98,2.27,1,.9.02,1.76-.35,2.43-1.05.56-.57.77-1.3.86-1.91.7-.2,1.46-.52,2.09-1.06.92-.79,1.39-1.83,1.39-3.02,0-.1,0-.2,0-.31l-.36-1.32-.25-.77c-.13-.42-.33-.98-.75-1.08-.42-.1-.72-.22-1.03.09l-.82.85c-.09.13-.25.35-.42.55-.17-.16-.28-.3-.28-.46,0-.26.22-.59.64-1.24.59-.91,1.4-2.14,1.54-3.84l.15-1.4.07-.74c.8-.1,1.51-.41,2.04-.94.43-.42.89-1.12,1.03-2.22,1.27,1.39,3.05,2.21,4.95,2.21,2.62,0,4.9-1.51,6.04-3.76,1.25,1.23,3.02,1.96,5.01,1.96,2.56,0,4.79-1.62,5.94-4.01.63.3,1.33.52,2.19.52,1.16,0,2.36-.32,3.44-.93.74-.42,1.42-.97,1.98-1.65.59,2.95,1.01,6.07,1.25,9.3ZM342.76,71.91c0,1.32-.56,2.49-1.42,3.31-.77.73-1.78,1.18-2.89,1.18-.68,0-1.52-.49-2.13-.84-.36-.21-.8-.22-1.17-.03-.37.19-.62.55-.67.96-.26,2.25-1.57,3.59-3.51,3.59-1.36,0-2.62-.71-3.37-1.9-.29-.46-.86-.68-1.38-.53-.53.15-.89.64-.89,1.19,0,2.44-1.72,4.43-3.84,4.43-1.35,0-2.6-.7-3.35-1.87-.37-.57-1.13-.74-1.7-.37-.57.37-.74,1.13-.37,1.7,1.2,1.88,3.23,3.01,5.43,3.01,2.67,0,4.93-1.83,5.85-4.39,1.06.75,2.31,1.21,3.64,1.21,2.66,0,4.65-1.61,5.51-4.13.6.26,1.26.46,1.98.46,1.49,0,2.87-.5,3.99-1.34.96-.72,1.74-1.7,2.23-2.84.96,2.29,1.8,4.79,2.5,7.45,0,.02-.02.04-.02.07-.13,1.32-.85,2.36-1.77,3.05-.82.61-1.8.96-2.72.96-.72,0-1.27-.28-2.1-.83-.34-.22-.76-.27-1.13-.12-.37.15-.65.46-.75.86-.51,2.07-2.25,3.58-4.14,3.58-2.01,0-3.61-1.02-4.17-2.65-.22-.64-.92-.99-1.57-.76-.16.06-.31.15-.43.26-.3.2-.53.51-.57.9-.23,2.31-2.08,4.05-4.31,4.05-1.55,0-2.99-.87-3.77-2.28-.33-.6-1.08-.81-1.68-.49-.12.07-.21.16-.29.25l-.02-.02c-.25-.33-.68-.57-1.1-.55-.41.03-.82.2-1.03.56-.15.26-.33.44-.42.5-.46-.05-.61-.19-.66-.25-.12-.14-.33-.54-.33-1.56,0-.39.03-.87.11-1.46.04-.26.05-.51.05-.76,0-.53-.11-1.05-.26-1.57.41-.79.62-1.65.56-2.44-.04-.71-.64-1.77-.76-1.98-.07-.12-.17-.23-.27-.32,1.13-1.25,2.26-2.61,2.81-3.61,1.5-2.68,1.67-3.88,1.96-5.86l.1-.69c.13-.74.36-1.41.71-2.3,1.96-5.02,6.57-8,10.95-7.09.06.01.39.05.62.08.06,0,.12.02.16.02,4.6,1.32,8.62,5.22,11.73,10.87l.09,1.35Z"/>
          <path class="cls-1" d="M290.86,95.27l.64-.35,1.06-.54c1.35-.6,2.25-.6,3.72-.54.73.03,1.23.2,1.82.39l1.13.34c.25.07.48-.07.55-.32.07-.24-.09-.51-.33-.58l-1.06-.32c-.63-.21-1.22-.41-2.08-.44-1.56-.06-2.6-.06-4.13.62l-1.14.58-.62.33c-.22.12-.31.41-.19.63.12.23.4.31.62.19Z"/>
        </g>
      </g>
    </g>
  </g>
</svg>