<svg xmlns="http://www.w3.org/2000/svg" viewBox="0 0 493 409"><defs><style>.cls-1,.cls-4,.cls-5,.cls-8{fill:none;}.cls-1,.cls-7,.cls-9{stroke:#000;}.cls-1,.cls-2,.cls-3,.cls-4,.cls-5,.cls-6,.cls-7,.cls-8,.cls-9{stroke-miterlimit:10;}.cls-1{stroke-width:5px;}.cls-2{fill:#604cc3;}.cls-2,.cls-4{stroke:#604cc3;}.cls-2,.cls-3,.cls-6{stroke-linecap:round;opacity:0.25;}.cls-2,.cls-3,.cls-4,.cls-5,.cls-6,.cls-8{stroke-width:4px;}.cls-3{fill:#eeccb4;}.cls-3,.cls-5{stroke:#eeccb4;}.cls-4,.cls-5,.cls-8{stroke-dasharray:12;}.cls-6,.cls-9{fill:#d83c65;}.cls-6,.cls-8{stroke:#d83c65;}.cls-7{fill:#fff;}.cls-7,.cls-9{stroke-width:2px;}</style></defs><g id="Layer_2" data-name="Layer 2"><g id="Layer_1-2" data-name="Layer 1"><line class="cls-1" x1="34.94" y1="76.71" x2="34.94" y2="345.4"/><polygon points="34.94 41.41 14.61 91.15 34.94 79.35 55.26 91.15 34.94 41.41"/><line class="cls-1" x1="319.64" y1="345.35" x2="34.94" y2="344.9"/><polygon points="354.94 345.4 305.23 325 317 345.35 305.16 365.65 354.94 345.4"/><circle class="cls-2" cx="272" cy="295" r="112"/><circle class="cls-3" cx="379" cy="158" r="112"/><line class="cls-4" x1="272" y1="294" x2="384" y2="294"/><line class="cls-5" x1="267" y1="158" x2="379" y2="158"/><circle class="cls-6" cx="114" cy="114" r="112"/><circle id="_1" data-name="1" class="cls-7" cx="182.44" cy="142.9" r="15"/><circle id="_1-2" data-name="1" class="cls-7" cx="272.32" cy="234.6" r="15"/><circle id="_1-3" data-name="1" class="cls-7" cx="379.32" cy="157.6" r="15"/><circle id="_1-4" data-name="1" class="cls-7" cx="230.32" cy="319.6" r="15"/><circle id="_2" data-name="2" class="cls-7" cx="99.44" cy="178.9" r="15"/><circle id="_3" data-name="3" class="cls-7" cx="156" cy="194" r="15"/><circle id="_4" data-name="4" class="cls-7" cx="272.44" cy="294.9" r="15"/><line class="cls-8" x1="114" y1="113" x2="226" y2="113"/><circle class="cls-9" cx="114.44" cy="112.9" r="15"/></g></g></svg>