<svg xmlns="http://www.w3.org/2000/svg" viewBox="0 0 426 475"><defs><style>.cls-1,.cls-8{fill:#4f1567;stroke:#4f1567;}.cls-1,.cls-2,.cls-7,.cls-8,.cls-9{stroke-miterlimit:10;}.cls-1,.cls-7,.cls-8,.cls-9{stroke-width:2px;}.cls-1{opacity:0.25;}.cls-2,.cls-3,.cls-4,.cls-5,.cls-6{fill:none;}.cls-2,.cls-6,.cls-7{stroke:#000;}.cls-2{stroke-width:5px;}.cls-3{stroke:#3cccb4;}.cls-3,.cls-4,.cls-5,.cls-6{stroke-linecap:round;stroke-linejoin:round;stroke-width:6px;}.cls-4,.cls-9{stroke:#eeccb4;}.cls-5{stroke:#d83c65;}.cls-7{fill:#fff;}.cls-9{fill:#eeccb4;}</style></defs><g id="Layer_2" data-name="Layer 2"><g id="Layer_1_copy_2" data-name="Layer 1 copy 2"><polyline class="cls-1" points="233 470 423 302 235 291 183 334"/><line class="cls-2" x1="56.62" y1="117.54" x2="56.62" y2="386.24"/><polygon points="56.62 82.24 36.29 131.99 56.62 120.18 76.94 131.99 56.62 82.24"/><line class="cls-2" x1="341.32" y1="386.19" x2="56.62" y2="385.74"/><polygon points="376.62 386.24 326.9 365.84 338.68 386.18 326.84 406.49 376.62 386.24"/><line id="line_4" data-name="line 4" class="cls-3" x1="75" y1="424" x2="394" y2="159"/><line id="line_4-2" data-name="line 4" class="cls-4" x1="423" y1="302" x2="3" y2="277"/><line id="line_4-3" data-name="line 4" class="cls-5" x1="38" y1="454" x2="268" y2="3"/><line id="line_4-4" data-name="line 4" class="cls-6" x1="28" y1="157" x2="415" y2="256"/><line id="line_4-5" data-name="line 4" class="cls-6" x1="234" y1="472" x2="91" y2="82"/><circle class="cls-7" cx="136.12" cy="153.74" r="15"/><circle id="_1" data-name="1" class="cls-7" cx="204.12" cy="183.74" r="15"/><circle id="_2" data-name="2" class="cls-7" cx="121.12" cy="219.74" r="15"/><circle id="_3" data-name="3" class="cls-7" cx="178.12" cy="260.74" r="15"/><circle id="_4" data-name="4" class="cls-8" cx="294.12" cy="335.74" r="15"/><line class="cls-9" x1="419.46" y1="301.79" x2="235.31" y2="290.83"/></g></g></svg>