<svg xmlns="http://www.w3.org/2000/svg" viewBox="0 0 380.71 324.24"><defs><style>.cls-1,.cls-2,.cls-3,.cls-4{fill:none;}.cls-1,.cls-2{stroke:#000;}.cls-1,.cls-5,.cls-6,.cls-7,.cls-8,.cls-9{stroke-miterlimit:10;}.cls-1{stroke-width:5px;}.cls-2,.cls-3,.cls-4{stroke-linecap:round;stroke-linejoin:round;stroke-width:6px;stroke-dasharray:12;}.cls-2{opacity:0.5;}.cls-3,.cls-5,.cls-8{stroke:#d83c65;}.cls-4,.cls-7,.cls-9{stroke:#604cc3;}.cls-5{fill:#d83c65;}.cls-5,.cls-6,.cls-7,.cls-8,.cls-9{stroke-width:2px;}.cls-6,.cls-7,.cls-8{fill:#fff;}.cls-6{stroke:gray;}.cls-9{fill:#604cc3;}</style></defs><g id="Layer_2" data-name="Layer 2"><g id="reach_1" data-name="reach 1"><line class="cls-1" x1="20.33" y1="35.3" x2="20.33" y2="304"/><polygon points="20.33 0 0 49.75 20.33 37.94 40.65 49.75 20.33 0"/><line class="cls-1" x1="305.03" y1="303.94" x2="20.33" y2="303.5"/><polygon points="340.33 304 290.62 283.6 302.39 303.94 290.55 324.24 340.33 304"/><line id="line_1" data-name="line 1" class="cls-2" x1="99.83" y1="74.5" x2="167.83" y2="101.5"/><line id="line_2" data-name="line 2" class="cls-3" x1="99.83" y1="71.5" x2="84.83" y2="137.5"/><line id="line_4" data-name="line 4" class="cls-4" x1="215.71" y1="278.19" x2="257.83" y2="253.5"/><line id="line_4-2" data-name="line 4" class="cls-2" x1="257.71" y1="193.19" x2="257.71" y2="253.19"/><line id="line_4-3" data-name="line 4" class="cls-2" x1="364.71" y1="116.19" x2="257.71" y2="253.19"/><line id="line_3" data-name="line 3" class="cls-2" x1="99.83" y1="71.5" x2="141.83" y2="178.5"/><circle class="cls-5" cx="99.83" cy="71.5" r="15"/><circle id="_1" data-name="1" class="cls-6" cx="167.83" cy="101.5" r="15"/><circle id="_1-2" data-name="1" class="cls-6" cx="257.71" cy="193.19" r="15"/><circle id="_1-3" data-name="1" class="cls-6" cx="364.71" cy="116.19" r="15"/><circle id="_1-4" data-name="1" class="cls-7" cx="215.71" cy="278.19" r="15"/><circle id="_2" data-name="2" class="cls-8" cx="84.83" cy="137.5" r="15"/><circle id="_3" data-name="3" class="cls-6" cx="141.83" cy="178.5" r="15"/><circle id="_4" data-name="4" class="cls-9" cx="257.83" cy="253.5" r="15"/></g></g></svg>