<svg xmlns="http://www.w3.org/2000/svg" viewBox="0 0 187.19 112.01"><defs><style>.cls-1{fill:none;stroke:#000;stroke-miterlimit:10;stroke-width:5px;}</style></defs><g id="Layer_2" data-name="Layer 2"><g id="frequency"><polyline class="cls-1" points="2.44 2.5 24.44 103.5 28.44 108.5 33.44 104.5 43.44 73.5 46.44 71.5 48.44 70.5 50.44 72.5 52.44 74.5 64.44 106.5 67.4 108.5 70.44 106.5 72.44 100.5 89.44 7.5 92.69 2.5 95.82 2.5 98.44 10.5 103.44 29.5 109.44 72.5 116.44 103.5 119.44 108.5 122.44 108.5 126.44 102.5 135.44 73.5 138.44 70.5 141.44 70.5 144.44 74.5 154.44 104.5 158.44 108.5 160.44 107.5 164.16 101.2 180.44 14.5 181.44 8.5 185.05 2.5"/></g></g></svg>