<svg xmlns="http://www.w3.org/2000/svg" viewBox="0 0 296.16 182.23"><defs><style>.cls-1{fill:none;stroke:#000;stroke-width:5px;}.cls-1,.cls-2,.cls-3,.cls-4,.cls-5{stroke-miterlimit:10;}.cls-2,.cls-3{stroke:#eeccb4;stroke-width:3px;}.cls-3{fill:#eeccb4;}.cls-4,.cls-5{fill:#fff;stroke-width:2px;}.cls-4{stroke:#604cc3;}.cls-5{stroke:#d83c65;}</style></defs><g id="Layer_2" data-name="Layer 2"><g id="dtw_3_4" data-name="dtw 3 4"><g id="y_axis" data-name="y axis"><line class="cls-1" x1="10.16" y1="24.75" x2="10.16" y2="174.1"/><polygon points="10.16 7.1 0 31.98 10.16 26.07 20.32 31.98 10.16 7.1"/></g><g id="x_axis" data-name="x axis"><line class="cls-1" x1="278.86" y1="172.22" x2="10.16" y2="174.1"/><polygon points="296.16 172.1 271.71 162.31 277.57 172.23 271.85 182.23 296.16 172.1"/></g><g id="dtw_connections_copy" data-name="dtw connections copy"><line class="cls-2" x1="86.16" y1="37.6" x2="38.16" y2="103.1"/><line class="cls-2" x1="133.16" y1="14.1" x2="86.16" y2="72.1"/><line class="cls-2" x1="185.16" y1="7.1" x2="86.16" y2="72.1"/><line class="cls-3" x1="237.16" y1="48.1" x2="134.16" y2="103.1"/></g><g id="bottom_copy_3" data-name="bottom copy 3"><circle id="_3" data-name="3" class="cls-4" cx="133.16" cy="105.59" r="9.6"/><circle class="cls-4" cx="37.52" cy="105.59" r="9.6"/><circle id="_2" data-name="2" class="cls-4" cx="86.17" cy="74.23" r="9.6"/></g><g id="top_copy_3" data-name="top copy 3"><circle id="_2-2" data-name="2" class="cls-5" cx="184.99" cy="10.6" r="9.6"/><circle id="_3-2" data-name="3" class="cls-5" cx="133.02" cy="17.44" r="9.6"/><circle id="_4" data-name="4" class="cls-5" cx="86.62" cy="40.53" r="9.6"/><circle class="cls-5" cx="237.3" cy="49.97" r="9.6"/></g></g></g></svg>