<svg xmlns="http://www.w3.org/2000/svg" viewBox="0 0 320.66 264.56"><defs><style>.cls-1{fill:none;stroke:#000;stroke-linecap:round;stroke-linejoin:round;stroke-width:5px;}</style></defs><g id="Layer_2" data-name="Layer 2"><g id="domain"><g id="_4f" data-name="4f"><path class="cls-1" d="M22.08,232.66l.05.37.05.36.05.36.06.36.05.36.05.36.05.36.06.36.05.35.05.36,0,.35.06.35.05.36,0,.35.06.35.05.34,0,.35.05.35.06.34.05.34.05.34.05.34.06.34.05.34.05.33.06.33.05.34.05.32.05.33.06.33.05.32.05.33,0,.32.06.31.05.32,0,.32.05.31.06.31.05.31.05.3.06.31.05.3.05.3.05.3.06.29.05.3.05.29.05.29.06.28.05.29.05.28,0,.28.06.27.05.28,0,.27.06.27,0,.26.05.27.05.26.06.25.05.26.05.25.05.25.06.25.05.24.05.24.06.24.05.24.05.23.05.23.06.23.05.22.05.22,0,.22.06.21,0,.22.05.21.05.2.06.2.05.2.05.2.06.19.05.19.05.19.05.18.06.18.05.18.05.17.05.17.06.17.05.16.05.16,0,.15.06.16,0,.15.05.14.06.15,0,.14.05.13.05.13.06.13.05.13.05.12.05.12.06.11.05.11.05.11.06.1.05.1.05.1.05.09L28,261l.05.09,0,.08.05.08.06.07,0,.07.05.07.05.06.06.06.05.06.05.05.06,0,.05.05.05,0,.05,0,.06,0,.05,0,.05,0,.05,0,.06,0h.47l.05,0,.06,0,.05,0,.05,0,.05,0,.06,0,.05,0,.05-.05.06,0,.05-.05.05-.06,0-.06.06-.06.05-.07,0-.07.05-.07.06-.08,0-.08.05-.09.05-.09.06-.09.05-.1.05-.1.06-.1.05-.11.05-.11.05-.11.06-.12L31,260l.05-.13,0-.12.06-.14.05-.13,0-.14.05-.14.06-.15,0-.15.05-.15.06-.16,0-.16.05-.16.05-.17.06-.17.05-.17.05-.18.05-.18.06-.18L32,257l.05-.19.06-.19,0-.19,0-.2.05-.21.06-.2.05-.21,0-.21.05-.22.06-.21.05-.22,0-.23,0-.23.06-.22.05-.24,0-.23.06-.24,0-.24,0-.25.05-.24.06-.25,0-.26,0-.25.05-.26.06-.26.05-.26,0-.27.05-.27.06-.27.05-.27,0-.28.06-.28,0-.28.05-.28,0-.29.06-.29,0-.29,0-.29.05-.3.06-.29,0-.3,0-.31.06-.3,0-.31.05-.31,0-.31.06-.31,0-.31.05-.32,0-.32.06-.32,0-.32.05-.33,0-.32.06-.33,0-.33,0-.33.06-.33.05-.34,0-.33,0-.34.06-.34,0-.34.05-.34,0-.35.06-.34,0-.35.05-.35,0-.35.06-.35,0-.35.05-.35.06-.36.05-.35,0-.36,0-.35.06-.36.05-.36,0-.36,0-.36.06-.37,0-.36.05-.36.06-.37.05-.36,0-.37.05-.36.06-.37.05-.37,0-.37.05-.36.06-.37.05-.37,0-.37,0-.37.06-.37.05-.37,0-.37.06-.38,0-.37,0-.37.05-.37.06-.37.05-.37,0-.37.05-.38.06-.37.05-.37,0-.37.05-.37.06-.37.05-.37,0-.37.06-.37,0-.37.05-.37,0-.37.06-.36,0-.37,0-.37.05-.36.06-.37.05-.36,0-.37.05-.36.06-.36.05-.36,0-.36.06-.36,0-.36.05-.36,0-.35.06-.36,0-.35.05-.36,0-.35.06-.35,0-.35,0-.34.06-.35,0-.35.05-.34,0-.34.06-.34,0-.34.05-.34,0-.34.06-.33,0-.33.05-.34,0-.33.06-.32,0-.33.05-.32.06-.33.05-.32,0-.32,0-.31.06-.32,0-.31.05-.31,0-.31.06-.31,0-.3.05-.3,0-.3.06-.3,0-.29.05-.3.06-.29L41,202l0-.28.05-.29.06-.28.05-.28,0-.27,0-.28.06-.27,0-.27.05-.26.06-.27,0-.26,0-.26.05-.25.06-.25.05-.25,0-.25.05-.25.06-.24L42,197l0-.23.05-.23.06-.23.05-.23,0-.22.06-.22,0-.22,0-.22.05-.21.06-.21,0-.2,0-.21.05-.19.06-.2.05-.19,0-.19.05-.19.06-.18L43,193l0-.18.06-.17,0-.17.05-.17,0-.16.06-.16,0-.16,0-.15.05-.15.06-.15,0-.14,0-.14.06-.14,0-.13.05-.13,0-.12.06-.12,0-.12.05-.12,0-.11.06-.1,0-.11.05-.1,0-.09.06-.1,0-.09,0-.08.06-.08.05-.08,0-.08,0-.07.06-.07,0-.06.05-.06,0-.06.06,0,0-.05.05,0,0,0,.06,0,0,0,.05,0,.06,0,.05,0,0,0,0,0h.37l.06,0,0,0,0,0,.05,0,.06,0,.05,0,0,0,.05,0,.06,0,.05.05,0,0,0,.06.06.06.05.06,0,.07.06.07,0,.07,0,.08.05.08.06.09,0,.09,0,.09.05.1.06.1.05.1,0,.11.05.11.06.11.05.12,0,.12.06.13,0,.13.05.13,0,.13.06.14,0,.14,0,.15.05.15.06.15,0,.16,0,.16.06.16,0,.17.05.17,0,.17.06.18,0,.18.05.18,0,.19.06.19,0,.19.05.19,0,.2.06.21,0,.2,0,.21.06.21.05.22,0,.21,0,.22L49,196l0,.22.05.23,0,.24.06.23,0,.24.05.24,0,.25.06.24,0,.25.05.26.06.25.05.26,0,.26,0,.26.06.27.05.27,0,.27,0,.27.06.28,0,.28.05.28.06.28.05.29,0,.29.05.29.06.29.05.29,0,.3.05.3.06.3.05.31,0,.3,0,.31.06.31.05.32,0,.31.06.32,0,.32,0,.32.05.32.06.32.05.33,0,.33.05.33.06.33.05.33,0,.34.05.33.06.34.05.34,0,.34.06.34,0,.35.05.34,0,.35.06.34,0,.35,0,.35.05.36.06.35.05.35,0,.36.06.35,0,.36.05.36,0,.36.06.36,0,.36.05.36,0,.37.06.36,0,.36.05.37,0,.36.06.37,0,.37,0,.36.06.37,0,.37.05.37,0,.37.06.37,0,.37.05.37,0,.37.06.37,0,.37.05.37,0,.38.06.37,0,.37.05.37.06.37.05.37,0,.37,0,.38.06.37,0,.37.05.37,0,.37.06.37,0,.37.05.37.06.36.05.37,0,.37.05.37.06.36.05.37,0,.36.05.37.06.36.05.37,0,.36,0,.36.06.36,0,.36.05.36.06.35,0,.36,0,.36.05.35.06.35.05.35,0,.35.05.35.06.35.05.35,0,.34.05.35.06.34.05.34,0,.34.06.34,0,.33,0,.34.05.33.06.33,0,.33,0,.33.05.33.06.32.05.32,0,.32.06.32,0,.32.05.31,0,.32.06.31,0,.31.05.3,0,.31.06.3,0,.3,0,.3.05.29.06.3,0,.29,0,.29.06.28,0,.29.05.28,0,.28.06.27,0,.28.05.27,0,.27.06.26,0,.27.05.26,0,.25.06.26,0,.25,0,.25.06.25.05.24,0,.25,0,.23.06.24,0,.23.05.23,0,.23.06.22,0,.22.05.22.06.22.05.21,0,.21.05.2.06.21.05.2,0,.19,0,.19.06.19.05.19,0,.18,0,.18.06.18,0,.17.05.17.06.17,0,.16,0,.16.05.16.06.15.05.15,0,.15.05.14.06.14.05.14,0,.13,0,.13.06.12.05.12,0,.12.06.12,0,.11,0,.11.05.1.06.1,0,.1,0,.09.05.09.06.08.05.09,0,.07.06.08,0,.07.05.07,0,.06.06.06,0,.06.05.05,0,0,.06,0,0,.05,0,0,.05,0,.06,0,0,0,0,0,.06,0h.47l.05,0,0,0,.06,0,0,0,0,0,.06,0,.05,0,0-.05,0,0,.06-.05,0-.05.05-.06,0-.07.06-.06,0-.07.05-.08.06-.08.05-.08,0-.08.05-.09.06-.1.05-.09,0-.1,0-.11.06-.1.05-.11,0-.12,0-.12.06-.12,0-.12.05-.13.06-.13.05-.14.05-.14,0-.14.06-.14,0-.15,0-.16,0-.15.06-.16,0-.17.05-.16,0-.17.06-.17,0-.18,0-.18.06-.18,0-.19,0-.19,0-.19.06-.2,0-.2L65,256l0-.2.06-.21,0-.21,0-.22.06-.22,0-.22,0-.22.05-.23.06-.23.05-.23,0-.23,0-.24.06-.24,0-.25,0-.25,0-.24.06-.26,0-.25.05-.26.06-.26.05-.26,0-.27,0-.27.06-.27,0-.27,0-.28.05-.28.06-.28.05-.28,0-.29,0-.29.06-.29,0-.29,0-.3.06-.29,0-.3,0-.31.05-.3.06-.31.05-.3,0-.31,0-.32.06-.31,0-.32,0-.32.06-.32,0-.32.05-.32,0-.33.06-.33,0-.33,0-.33,0-.33.06-.34,0-.33,0-.34.05-.34.06-.34.05-.34,0-.35.06-.34,0-.35,0-.35,0-.34.06-.35,0-.36.05-.35,0-.35.06-.36,0-.35,0-.36,0-.36.06-.36,0-.36,0-.36.06-.36,0-.37.05-.36,0-.36.06-.37,0-.36,0-.37,0-.37.06-.36,0-.37.05-.37,0-.37.06-.37,0-.37,0-.37.06-.37,0-.37,0-.37,0-.37.06-.37,0-.38.05-.37,0-.37.06-.37,0-.37,0-.37.06-.37,0-.38,0-.37.05-.37.06-.37.05-.37,0-.37,0-.37.06-.37,0-.36,0-.37,0-.37.06-.37,0-.36.05-.37.06-.36,0-.37,0-.36,0-.37.06-.36,0-.36,0-.36.05-.36.06-.36.05-.35,0-.36,0-.36.06-.35,0-.35,0-.35.06-.36,0-.34,0-.35.05-.35.06-.34,0-.35,0-.34,0-.34.06-.34,0-.34,0-.34.06-.33,0-.33.05-.33,0-.33.06-.33,0-.33,0-.32,0-.32.06-.33,0-.31,0-.32.05-.32.06-.31,0-.31,0-.31.06-.3,0-.31,0-.3,0-.3.06-.3,0-.29.05-.3,0-.29.06-.29,0-.28,0-.29,0-.28.06-.28,0-.27,0-.28.06-.27.05-.27,0-.26,0-.27.06-.26,0-.26,0-.25,0-.25.06-.25,0-.25.05-.25.06-.24.05-.24,0-.23,0-.24.06-.23,0-.22,0-.23,0-.22.06-.22.05-.21,0-.21,0-.21.06-.21,0-.2,0-.2.06-.19,0-.2,0-.19.05-.18.06-.19.05-.18,0-.17,0-.18.06-.17,0-.16,0-.17,0-.16.06-.15.05-.16,0-.15.06-.14,0-.15,0-.13,0-.14.06-.13,0-.13,0-.13.05-.12.06-.12.05-.11,0-.11.06-.11,0-.1,0-.1,0-.1.06-.09,0-.09.05-.09,0-.08.06-.08,0-.07,0-.08,0-.06.06-.07,0-.06,0,0,.06-.06,0,0,.05-.05,0,0,.06,0,0,0,0,0,0,0,.06,0,0,0,.05,0h.37l0,0,.06,0,0,0,.05,0,0,0,.06,0,0,0,0,0,.06,0,0,.05,0,0,.05.06.06.06.05.06,0,.07,0,.07.06.07,0,.08,0,.08,0,.09.06.08,0,.1.05.09.06.1.05.11,0,.1,0,.11.06.12,0,.12,0,.12.05.12.06.13.05.13,0,.14,0,.14.06.14,0,.15,0,.14.06.16,0,.15,0,.16.05.17.06.16.05.17,0,.18,0,.17.06.18,0,.18,0,.19.06.19,0,.19.05.2,0,.2.06.2,0,.2,0,.21,0,.21.06.22,0,.22,0,.22.05.22.06.23.05.23,0,.23.06.23,0,.24,0,.24,0,.25.06.24,0,.25.05.26,0,.25.06.26,0,.26,0,.26,0,.27.06.27,0,.27,0,.27.06.28,0,.28.05.28,0,.28.06.29,0,.29,0,.29,0,.29.06.29,0,.3.05.3.06.3.05.31,0,.3,0,.31.06.31,0,.32,0,.31,0,.32.06.31,0,.33.05.32,0,.32.06.33,0,.33,0,.32.06.34,0,.33,0,.33.05.34.06.34.05.34,0,.34,0,.34.06.34,0,.35,0,.34,0,.35.06.35,0,.35.05.35.06.36,0,.35,0,.36,0,.35.06.36,0,.36,0,.36.05.36.06.36.05.36,0,.36.06.37,0,.36,0,.37,0,.36.06.37,0,.36,0,.37.05.37.06.37,0,.37,0,.37,0,.37.06.37,0,.37,0,.37.06.37,0,.37.05.37,0,.37.06.37,0,.38,0,.37,0,.37.06.37,0,.37,0,.37.05.37.06.37,0,.37,0,.37.06.37,0,.37,0,.37,0,.37.06.37,0,.37.05.36,0,.37.06.37,0,.36,0,.37.06.36,0,.36,0,.36,0,.37.06.36.05.36,0,.35,0,.36.06.36,0,.35,0,.36,0,.35.06.35,0,.35.05.35.06.35.05.35,0,.34,0,.35.06.34,0,.34,0,.34,0,.34.06.33.05.34,0,.33,0,.33.06.33,0,.33,0,.33.06.32,0,.32,0,.32.05.32.06.32.05.31,0,.32,0,.31.06.31,0,.3,0,.31.06.3,0,.3.05.3,0,.29.06.3,0,.29,0,.29,0,.28.06.29,0,.28,0,.28.05.27.06.28.05.27,0,.27.06.26,0,.27,0,.26,0,.26.06.25,0,.25.05.25,0,.25.06.25,0,.24,0,.24,0,.23.06.23,0,.23,0,.23.06.23,0,.22.05.21,0,.22.06.21,0,.21,0,.21,0,.2.06.2,0,.19.05.2L92,257l.05.18,0,.19,0,.18.06.17,0,.18,0,.17,0,.16.06.17,0,.16.05.15,0,.16.06.15,0,.14,0,.15.06.14,0,.13,0,.13.05.13L93,260l.05.12,0,.12,0,.11.06.11,0,.11,0,.11,0,.1.06.09,0,.1.05.09.06.08.05.08,0,.08,0,.08.06.07,0,.07,0,.06.05.06.06.06.05.05,0,0,.06,0,0,0,0,0,0,0,.06,0,0,0,0,0h.05l.06,0H95l.05,0,0,0,.06,0,0,0,0,0,0,0,.06,0,0-.05,0,0,.05-.06.06-.05.05-.06,0-.06.06-.07,0-.07,0-.08,0-.07.06-.09,0-.08L96,261l0-.09.06-.1,0-.1,0-.1.06-.11,0-.11,0-.11,0-.12.06-.12,0-.13.05-.13,0-.13.06-.13,0-.14,0-.14,0-.15.06-.15,0-.15.05-.16.06-.16.05-.16,0-.17,0-.17.06-.17,0-.17,0-.18,0-.19.06-.18,0-.19.05-.19,0-.2.06-.2,0-.2,0-.21.06-.2,0-.22,0-.21L98,255l.06-.22.05-.22,0-.23,0-.23.06-.23,0-.24,0-.23.06-.25,0-.24,0-.25.05-.25.06-.25,0-.25,0-.26,0-.26.06-.26,0-.27,0-.27.05-.27.06-.27.05-.28,0-.28.06-.28,0-.28,0-.29,0-.29.06-.29,0-.29,0-.3.05-.29.06-.3,0-.3,0-.31,0-.31.06-.3,0-.31,0-.32.06-.31,0-.32.05-.32,0-.32.06-.32,0-.32,0-.33,0-.33.06-.33,0-.33,0-.33.05-.33.06-.34,0-.34,0-.34.06-.34,0-.34,0-.34,0-.35.06-.35,0-.34.05-.35,0-.35.06-.35,0-.36,0-.35.06-.36,0-.35,0-.36,0-.36.06-.36.05-.36,0-.36,0-.36.06-.36,0-.37,0-.36,0-.37.06-.36,0-.37"/><path class="cls-1" d="M87.56,232.66l0,.37.06.36,0,.36,0,.36,0,.36.06.36.05.36,0,.36.06.35,0,.36,0,.35,0,.35.06.36,0,.35,0,.35.05.34.06.35.05.35,0,.34,0,.34.06.34,0,.34,0,.34.06.34,0,.33.05.33,0,.34.06.32,0,.33,0,.33,0,.32.06.33,0,.32,0,.31.06.32,0,.32.05.31,0,.31.06.31,0,.3,0,.31,0,.3.06.3,0,.3.05.29,0,.3.06.29,0,.29,0,.28.06.29,0,.28,0,.28,0,.27.06.28,0,.27.05.27,0,.26.06.27,0,.26,0,.25,0,.26.06.25,0,.25.05.25.06.24.05.24,0,.24,0,.24.06.23,0,.23,0,.23,0,.22.06.22,0,.22.05.21.06.22.05.21,0,.2,0,.2.06.2,0,.2,0,.19.05.19.06.19.05.18,0,.18,0,.18.06.17,0,.17,0,.17.06.16,0,.16,0,.15.05.16.06.15.05.14,0,.15,0,.14.06.13,0,.13,0,.13.05.13.06.12.05.12,0,.11.06.11,0,.11,0,.1,0,.1.06.1,0,.09,0,.09.05.09.06.08.05.08,0,.07.06.07,0,.07,0,.06,0,.06.06.06,0,.05.05,0,0,.05.06,0,0,0,0,0,0,0,.06,0,0,0,0,0h.48l0,0,.05,0,0,0,.06,0,0,0,0,0,.06,0,0-.05,0,0,0-.05.06-.06,0-.06.05-.06,0-.07.06-.07,0-.07,0-.08.06-.08,0-.09,0-.09.05-.09.06-.1.05-.1,0-.1,0-.11.06-.11,0-.11,0-.12,0-.12.06-.13,0-.12.05-.14.06-.13,0-.14,0-.14,0-.15.06-.15,0-.15,0-.16.05-.16.06-.16.05-.17,0-.17,0-.17.06-.18,0-.18,0-.18.06-.19,0-.19,0-.19.05-.19.06-.2,0-.21,0-.2,0-.21.06-.21,0-.22,0-.21.05-.22.06-.23.05-.23,0-.22.06-.24,0-.23,0-.24,0-.24.06-.25,0-.24,0-.25.05-.26.06-.25,0-.26,0-.26.06-.26,0-.27,0-.27,0-.27.06-.27,0-.28.05-.28,0-.28.06-.28,0-.29,0-.29,0-.29.06-.29,0-.3,0-.29.06-.3.05-.31,0-.3,0-.31.06-.31,0-.31,0-.31,0-.31.06-.32,0-.32.05-.32,0-.32.06-.33,0-.32,0-.33.06-.33,0-.33,0-.33,0-.34.06-.33.05-.34,0-.34,0-.34.06-.34,0-.35,0-.34.06-.35,0-.35,0-.35.05-.35.06-.35.05-.35,0-.36,0-.35.06-.36,0-.35,0-.36,0-.36.06-.36.05-.36,0-.37.06-.36,0-.36,0-.37,0-.36.06-.37,0-.36,0-.37.05-.37.06-.37.05-.36,0-.37,0-.37.06-.37,0-.37,0-.37.06-.37,0-.37.05-.38,0-.37.06-.37,0-.37,0-.37,0-.37.06-.37,0-.38,0-.37.06-.37,0-.37.05-.37,0-.37.06-.37,0-.37,0-.37,0-.37.06-.37,0-.37.05-.36,0-.37.06-.37,0-.36,0-.37.06-.36,0-.37,0-.36,0-.36.06-.36,0-.36.05-.36,0-.36.06-.36,0-.35,0-.36,0-.35.06-.36,0-.35.05-.35.06-.35.05-.34,0-.35,0-.35.06-.34,0-.34,0-.34,0-.34.06-.34,0-.34.05-.33.06-.33.05-.34,0-.33,0-.32.06-.33,0-.32,0-.33.05-.32.06-.32.05-.31,0-.32,0-.31L106,205l0-.31,0-.31.06-.3,0-.3,0-.3.05-.3.06-.29.05-.3,0-.29,0-.29.06-.28,0-.29,0-.28.05-.28.06-.27.05-.28,0-.27.06-.27,0-.26,0-.27,0-.26.06-.26,0-.25,0-.25.05-.25.06-.25.05-.25,0-.24.06-.24,0-.23,0-.23,0-.23.06-.23,0-.22.05-.22,0-.22.06-.22,0-.21,0-.21,0-.2.06-.21,0-.19,0-.2.06-.19,0-.19.05-.19,0-.18.06-.18,0-.18,0-.17,0-.17.06-.17,0-.16.05-.16,0-.16.06-.15,0-.15,0-.15.06-.14,0-.14,0-.14,0-.13.06-.13,0-.12.05-.12,0-.12.06-.12,0-.11,0-.1.06-.11,0-.1,0-.09.05-.1.06-.09.05-.08,0-.08,0-.08.06-.08,0-.07,0-.07,0-.06.06-.06,0-.06.05,0,.06-.05,0,0,0,0,0,0,.06,0,0,0,0,0,.05,0,.06,0,.05,0h.37l0,0,.05,0,.06,0,0,0,0,0,0,0,.06,0,0,0,0,0,.06.05,0,0,.05.06,0,.06.06.06,0,.07,0,.07,0,.07.06.08,0,.08,0,.09.05.09.06.09,0,.1,0,.1.06.1,0,.11,0,.11,0,.11.06.12,0,.12.05.13,0,.13.06.13,0,.13,0,.14,0,.14.06.15,0,.15,0,.15.06.16.05.16,0,.16,0,.17.06.17,0,.17,0,.18,0,.18.06.18,0,.19.05.19.06.19.05.19,0,.2,0,.21.06.2,0,.21,0,.21,0,.22.06.21.05.22,0,.23,0,.22.06.23,0,.24,0,.23.06.24,0,.24,0,.25.05.24.06.25.05.26,0,.25,0,.26.06.26,0,.26,0,.27,0,.27.06.27.05.27,0,.28.06.28,0,.28,0,.28,0,.29.06.29,0,.29,0,.29.05.29.06.3.05.3,0,.3.06.31,0,.3,0,.31,0,.31.06.32,0,.31.05.32,0,.32.06.32,0,.32,0,.32,0,.33.06.33,0,.33,0,.33.06.33,0,.34.05.33,0,.34.06.34,0,.34,0,.34,0,.35.06.34,0,.35.05.34,0,.35.06.35,0,.36,0,.35.06.35,0,.36,0,.35,0,.36.06.36,0,.36.05.36,0,.36.06.36,0,.37,0,.36.06.36,0,.37,0,.36.05.37.06.37.05.36,0,.37,0,.37.06.37,0,.37,0,.37,0,.37.06.37,0,.37.05.37.06.37.05.37,0,.38,0,.37.06.37,0,.37,0,.37.05.37.06.37.05.38,0,.37,0,.37.06.37,0,.37,0,.37.06.37,0,.37,0,.36.05.37.06.37.05.37,0,.36,0,.37.06.36,0,.37,0,.36.06.37,0,.36.05.36,0,.36.06.36,0,.36,0,.35,0,.36.06.36,0,.35,0,.35.05.35.06.35.05.35,0,.35.06.35,0,.34,0,.35,0,.34.06.34,0,.34.05.34,0,.33.06.34,0,.33,0,.33,0,.33.06.33,0,.33,0,.32.06.32,0,.32.05.32,0,.32.06.31,0,.32,0,.31,0,.31.06.3,0,.31.05.3.06.3.05.3,0,.29,0,.3.06.29,0,.29,0,.28,0,.29.06.28,0,.28.05.27,0,.28.06.27,0,.27,0,.26.06.27,0,.26,0,.25.05.26.06.25.05.25,0,.25,0,.24.06.25,0,.23,0,.24,0,.23.06.23,0,.23.05.22.06.22,0,.22,0,.22,0,.21.06.21,0,.2,0,.21.05.2.06.19.05.19,0,.19.06.19,0,.18,0,.18,0,.18.06.17,0,.17,0,.17.05.16.06.16,0,.16,0,.15,0,.15.06.15,0,.14,0,.14.06.14,0,.13.05.13,0,.12.06.12,0,.12,0,.12,0,.11.06.11,0,.1,0,.1.05.1.06.09,0,.09,0,.08.06.09,0,.07,0,.08,0,.07.06.07,0,.06.05.06,0,.06.06.05,0,0,0,0,.06.05,0,0,0,0,0,0,.06,0,.05,0,0,0h.48l.05,0,0,0,0,0,.06,0,0,0,.05,0,0,0,.06-.05.05,0,0-.05.05-.05.06-.06,0-.07.05-.06.06-.07.05-.08,0-.08.05-.08.06-.08,0-.09.05-.1.05-.09.06-.1.05-.11.05-.1,0-.11.06-.12.05-.12,0-.12.06-.12.05-.13,0-.13.05-.14.06-.14.05-.14,0-.14.05-.15.06-.16,0-.15.05-.16.06-.17,0-.16.05-.17.05-.17.06-.18,0-.18.05-.18,0-.19.06-.19.05-.19,0-.2.05-.2.06-.2.05-.2,0-.21.06-.21.05-.22,0-.22.05-.22.06-.22,0-.23.05-.23.05-.23.06-.23,0-.24.05-.24,0-.25.06-.25.05-.24,0-.26.06-.25.05-.26.05-.26,0-.26.06-.27.05-.27,0-.27.05-.27.06-.28,0-.28.05-.28.06-.28.05-.29,0-.29.05-.29.06-.29,0-.3.05-.29,0-.3.06-.31.05-.3.05-.31,0-.3.06-.31.05-.32,0-.31.06-.32.05-.32,0-.32.05-.32.06-.32.05-.33,0-.33.05-.33.06-.33,0-.33.05-.34,0-.33.06-.34.05-.34.05-.34.06-.34,0-.35.05-.34,0-.35.06-.35.05-.34,0-.35L134,237l.06-.35.05-.35,0-.36.06-.35.05-.36,0-.36.05-.36.06-.36,0-.36.05-.36.05-.37.06-.36,0-.36.05-.37,0-.36.06-.37.05-.37,0-.36.06-.37.05-.37.05-.37,0-.37.06-.37.05-.37,0-.37.05-.37.06-.37,0-.37.05-.37.05-.38.06-.37,0-.37.05-.37.06-.37,0-.37.05-.37,0-.38.06-.37.05-.37.05-.37,0-.37.06-.37.05-.37,0-.37.06-.36.05-.37,0-.37.05-.37.06-.36.05-.37,0-.36.05-.37.06-.36,0-.37.05-.36,0-.36.06-.36.05-.36.05-.36.06-.35.05-.36.05-.36,0-.35.06-.35.05-.35,0-.36.05-.34.06-.35.05-.35,0-.34.05-.35.06-.34,0-.34.05-.34.06-.34,0-.34.05-.33.05-.33.06-.33.05-.33.05-.33,0-.33.06-.32.05-.32,0-.33.06-.31.05-.32.05-.32,0-.31.06-.31.05-.31,0-.3.05-.31.06-.3,0-.3.05-.3.05-.29.06-.3.05-.29.05-.29.06-.28,0-.29.05-.28,0-.28.06-.27.05-.28.05-.27,0-.27.06-.26.05-.27,0-.26.05-.26.06-.25,0-.25L140,198l.06-.25,0-.25.05-.24.05-.24.06-.23,0-.24.05-.23,0-.22.06-.23.05-.22.05-.22.06-.21.05-.21.05-.21,0-.21.06-.2.05-.2,0-.19.05-.2.06-.19,0-.18.05-.19.05-.18.06-.17,0-.18.05-.17.06-.16,0-.17.05-.16.05-.15.06-.16.05-.15.05-.14,0-.15.06-.13.05-.14,0-.13.05-.13.06-.13,0-.12.05-.12.06-.11.05-.11,0-.11.05-.1.06-.1,0-.1.05-.09.05-.09.06-.09.05-.08.05-.08.06-.07,0-.08.05-.06,0-.07L143,189l.05,0,0-.06.05,0,.06-.05.05,0,0,0,.05,0,.06,0,0,0,.05,0,.06,0,0,0H144l.05,0,0,0,.05,0,.06,0,.05,0,0,0,.06,0,.05,0,0,0,.05.05.06,0,0,.06.05.06.05.06.06.07,0,.07.05.07.06.08,0,.08.05.09,0,.08.06.1.05.09.05.1,0,.11.06.1.05.11,0,.12.05.12.06.12,0,.12.05.13.06.13.05.14,0,.14.05.14.06.15,0,.14.05.16,0,.15.06.16.05.17.05.16,0,.17.06.18.05.17,0,.18.06.18.05.19,0,.19.05.19.06.2.05.2,0,.2.05.2.06.21,0,.21.05.22.06.22,0,.22.05.22.05.23.06.23,0,.23.05.23,0,.24.06.24.05.25,0,.24.05.25.06.26.05.25,0,.26.06.26.05.26,0,.27.05.27.06.27,0,.27.05.28.05.28.06.28,0,.28.05.29,0,.29.06.29.05.29,0,.29.06.3.05.3.05.3,0,.31.06.3.05.31,0,.31.05.32.06.31,0,.32.05.31.06.33.05.32,0,.32.05.33.06.33,0,.32.05.34,0,.33.06.33.05.34.05.34,0,.34.06.34.05.34,0,.34.06.35.05.34,0,.35.05.35.06.35.05.35,0,.36.05.35.06.36,0,.35.05.36,0,.36.06.36.05.36.05.36.06.36.05.36.05.37,0,.36.06.37.05.36,0,.37.05.36.06.37.05.37,0,.37.06.37.05.37,0,.37.05.37.06.37,0,.37.05.37.05.37.06.37.05.37.05.37,0,.38.06.37.05.37,0,.37.06.37.05.37.05.37,0,.37.06.37.05.37,0,.37.05.37.06.37,0,.37.05.37.05.37.06.36.05.37.05.37.06.36,0,.37.05.36,0,.36.06.36.05.37.05.36,0,.36.06.35.05.36,0,.36.06.35.05.36,0,.35.05.35.06.35,0,.35.05.35.05.35.06.34,0,.35.05.34,0,.34.06.34.05.34.05.33.06.34.05.33.05.33,0,.33.06.33.05.33,0,.32.05.32.06.32,0,.32.05.32.05.31.06.32,0,.31.05.31.06.3,0,.31.05.3.05.3.06.3.05.29.05.3,0,.29.06.29.05.28,0,.29.06.28.05.28,0,.27.05.28.06.27.05.27,0,.26.05.27.06.26,0,.26.05.25.05.25.06.25.05.25.05.25.06.24,0,.24.05.23,0,.23.06.23.05.23,0,.23.05.22.06.21.05.22,0,.21.05.21.06.21,0,.2.05.2.06.19,0,.2.05.19.05.18.06.19,0,.18.05.17,0,.18.06.17.05.16,0,.17.06.16.05.15.05.16,0,.15.06.14.05.15,0,.14.05.13.06.13,0,.13.05.13.05.12.06.12,0,.11.05.11.06.11,0,.11.05.1,0,.09.06.1.05.09.05.08,0,.08.06.08.05.08,0,.07.05.07.06.06,0,.06.05.06.06.05.05,0,0,0,.05,0,.06,0,0,0,.05,0,0,0,.06,0H160l.05,0h.42l.06,0,.05,0,0,0,.05,0,.06,0,0,0,.05,0,.06-.05,0,0,.05-.06.05-.05.06-.06,0-.06.05-.07,0-.07.06-.08.05-.07,0-.09.05-.08.06-.09.05-.09,0-.1.06-.1.05-.1,0-.11.05-.11.06-.11,0-.12L162,260l.05-.13.06-.13,0-.13.05-.13,0-.14.06-.14.05-.15,0-.15.06-.15.05-.16.05-.16,0-.16.06-.17.05-.17,0-.17.05-.17.06-.18,0-.19L163,257l.06-.19.05-.19,0-.2.05-.2.06-.2,0-.21.05-.2,0-.22.06-.21.05-.22.05-.22,0-.22.06-.23.05-.23,0-.23.06-.24.05-.23,0-.25.05-.24.06-.25.05-.25,0-.25.05-.25.06-.26,0-.26.05-.26,0-.27.06-.27.05-.27.05-.27.06-.28.05-.28.05-.28,0-.28.06-.29.05-.29,0-.29.05-.29.06-.3.05-.29,0-.3.06-.3.05-.31,0-.31.05-.3.06-.31,0-.32.05-.31.05-.32.06-.32.05-.32.05-.32,0-.32.06-.33.05-.33,0-.33.06-.33.05-.33.05-.33,0-.34.06-.34.05-.34,0-.34.05-.34.06-.34,0-.35.05-.35.05-.34.06-.35.05-.35.05-.35.06-.36,0-.35.05-.36,0-.35.06-.36.05-.36.05-.36,0-.36.06-.36.05-.36,0-.36.06-.37.05-.36,0-.37.05-.36.06-.37"/><path class="cls-1" d="M153.08,232.66l0,.37.05.36,0,.36.06.36.05.36,0,.36.05.36.06.36.05.35,0,.36.05.35.06.35,0,.36.05.35.06.35,0,.34.05.35.05.35.06.34,0,.34.05.34,0,.34.06.34.05.34,0,.33.06.33.05.34.05.32,0,.33.06.33.05.32,0,.33.05.32.06.31,0,.32.05.32.05.31.06.31,0,.31.05.3.06.31,0,.3.05.3,0,.3.06.29.05.3.05.29,0,.29.06.28.05.29,0,.28.05.28.06.27,0,.28.05.27.06.27.05.26,0,.27.05.26.06.25,0,.26.05.25,0,.25.06.25.05.24.05.24.06.24,0,.24.05.23,0,.23.06.23.05.22,0,.22.05.22.06.21.05.22,0,.21.05.2.06.2,0,.2.05.2.06.19,0,.19.05.19.05.18.06.18,0,.18.05.17,0,.17.06.17.05.16,0,.16.05.15.06.16.05.15,0,.14.06.15.05.14,0,.13.05.13.06.13,0,.13.05.12.05.12.06.11,0,.11.05.11.06.1,0,.1.05.1,0,.09.06.09.05.09.05.08,0,.08.06.07.05.07,0,.07.05.06.06.06,0,.06.05.05.06,0,.05.05,0,0,.05,0,.06,0,0,0,.05,0,0,0,.06,0h.47l.05,0,.06,0,.05,0,0,0,.05,0,.06,0,0,0,.05-.05.06,0,0-.05.05-.06.05-.06.06-.06.05-.07.05-.07,0-.07.06-.08.05-.08,0-.09.05-.09.06-.09.05-.1,0-.1.06-.1.05-.11,0-.11.05-.11.06-.12,0-.12.05-.13.05-.12.06-.14.05-.13.05-.14,0-.14.06-.15.05-.15,0-.15.06-.16.05-.16.05-.16,0-.17.06-.17.05-.17,0-.18.05-.18.06-.18,0-.19.05-.19.06-.19,0-.19.05-.2.05-.21.06-.2,0-.21.05-.21,0-.22.06-.21.05-.22.05-.23,0-.23.06-.22.05-.24,0-.23.06-.24.05-.24,0-.25.05-.24.06-.25,0-.26.05-.25.05-.26.06-.26,0-.26.05-.27,0-.27.06-.27.05-.27.05-.28.06-.28.05-.28.05-.28,0-.29.06-.29.05-.29,0-.29.05-.3.06-.29,0-.3.05-.31.06-.3.05-.31,0-.31.05-.31.06-.31,0-.31.05-.32.05-.32.06-.32.05-.32.05-.33,0-.32.06-.33.05-.33,0-.33.06-.33.05-.34,0-.33.05-.34.06-.34.05-.34,0-.34.05-.35.06-.34,0-.35.05-.35.05-.35.06-.35.05-.35.05-.35.06-.36,0-.35.05-.36,0-.35.06-.36.05-.36,0-.36.05-.36.06-.37.05-.36,0-.36.06-.37.05-.36,0-.37.05-.36.06-.37,0-.37.05-.37.05-.36.06-.37,0-.37.05-.37,0-.37.06-.37.05-.37,0-.37.06-.38.05-.37.05-.37,0-.37.06-.37.05-.37,0-.37.05-.38.06-.37,0-.37.05-.37.05-.37.06-.37,0-.37.05-.37.06-.37,0-.37.05-.37,0-.37.06-.36.05-.37.05-.37,0-.36.06-.37.05-.36,0-.37.05-.36.06-.36,0-.36.05-.36.06-.36.05-.36,0-.36.05-.35.06-.36,0-.35.05-.36,0-.35.06-.35.05-.35.05-.34.06-.35,0-.35.05-.34,0-.34.06-.34.05-.34,0-.34.05-.34.06-.33.05-.33,0-.34.05-.33.06-.32,0-.33.05-.32.06-.33,0-.32.05-.32.05-.31.06-.32,0-.31.05-.31,0-.31.06-.31.05-.3,0-.3.05-.3.06-.3.05-.29,0-.3.06-.29L172,202l0-.28.05-.29.06-.28,0-.28.05-.27.05-.28.06-.27,0-.27.05-.26.06-.27,0-.26.05-.26,0-.25.06-.25.05-.25.05-.25,0-.25.06-.24L173,197l0-.23.05-.23.06-.23,0-.23.05-.22.06-.22.05-.22,0-.22.05-.21.06-.21,0-.2.05-.21,0-.19.06-.2.05-.19.05-.19,0-.19.06-.18L174,193l0-.18.06-.17.05-.17,0-.17.05-.16.06-.16.05-.16,0-.15.05-.15.06-.15,0-.14.05-.14.06-.14,0-.13.05-.13.05-.12.06-.12.05-.12.05-.12,0-.11.06-.1.05-.11,0-.1.05-.09.06-.1.05-.09,0-.08.06-.08.05-.08,0-.08.05-.07.06-.07,0-.06.05-.06.05-.06.06,0,.05-.05.05,0,0,0,.06,0,.05,0,0,0,.06,0,.05,0,.05,0,0,0h.37l.06,0,0,0,.05,0,.05,0,.06,0,0,0,.05,0,0,0,.06,0,.05.05.05,0,0,.06.06.06.05.06,0,.07.06.07.05.07,0,.08.05.08.06.09,0,.09.05.09.05.1.06.1,0,.1.05.11,0,.11.06.11.05.12.05.12.06.13.05.13.05.13,0,.13.06.14.05.14,0,.15.05.15.06.15,0,.16.05.16.06.16.05.17,0,.17.05.17.06.18,0,.18.05.18.05.19.06.19.05.19.05.19,0,.2.06.21.05.2,0,.21.06.21.05.22,0,.21.05.22.06.23.05.22,0,.23.05.24.06.23,0,.24.05.24.05.25.06.24.05.25.05.26.06.25,0,.26.05.26,0,.26.06.27.05.27,0,.27.05.27.06.28.05.28,0,.28.06.28.05.29,0,.29.05.29.06.29,0,.29.05.3.05.3.06.3,0,.31.05.3,0,.31.06.31.05.32,0,.31.06.32.05.32.05.32,0,.32.06.32.05.33,0,.33.05.33.06.33,0,.33.05.34.05.33.06.34,0,.34.05.34.06.34,0,.35.05.34,0,.35.06.34.05.35.05.35,0,.36.06.35.05.35,0,.36.06.35.05.36,0,.36.05.36.06.36.05.36,0,.36.05.37.06.36,0,.36.05.37,0,.36.06.37.05.37.05.36.06.37,0,.37.05.37,0,.37.06.37.05.37,0,.37.05.37.06.37.05.37,0,.37.05.38.06.37,0,.37.05.37.06.37,0,.37.05.37.05.38.06.37,0,.37.05.37,0,.37.06.37.05.37,0,.37.06.36.05.37.05.37,0,.37.06.36.05.37,0,.36.05.37.06.36,0,.37.05.36.05.36.06.36,0,.36.05.36.06.35,0,.36.05.36,0,.35.06.35.05.35.05.35,0,.35.06.35.05.35,0,.34.05.35.06.34,0,.34.05.34.06.34.05.33,0,.34.05.33.06.33,0,.33.05.33,0,.33.06.32.05.32.05.32.06.32.05.32.05.31,0,.32.06.31.05.31,0,.3.05.31.06.3.05.3,0,.3.05.29.06.3,0,.29.05.29.06.28,0,.29.05.28.05.28.06.27.05.28.05.27,0,.27.06.26.05.27,0,.26.05.25.06.26.05.25,0,.25.06.25.05.24,0,.25.05.23.06.24,0,.23.05.23.05.23.06.22.05.22.05.22.06.22,0,.21.05.21,0,.2.06.21.05.2.05.19,0,.19.06.19.05.19,0,.18.05.18.06.18,0,.17.05.17.06.17,0,.16.05.16.05.16.06.15,0,.15.05.15,0,.14.06.14.05.14.05.13,0,.13.06.12.05.12,0,.12.06.12.05.11,0,.11.05.1.06.1,0,.1.05.09.05.09.06.08,0,.09.05.07.06.08,0,.07.05.07.05.06.06.06.05.06.05.05,0,0,.06,0,.05.05,0,0,.05,0,.06,0,0,0,.05,0,.06,0h.47l.05,0,0,0,.06,0,.05,0,0,0,.06,0,.05,0,0-.05.05,0,.06-.05.05-.05,0-.06.05-.07.06-.06,0-.07.05-.08.06-.08,0-.08.05-.08.05-.09.06-.1,0-.09.05-.1,0-.11.06-.1.05-.11,0-.12.05-.12.06-.12.05-.12,0-.13.06-.13.05-.14,0-.14.05-.14.06-.14,0-.15.05-.16.05-.15.06-.16,0-.17.05-.16,0-.17.06-.17.05-.18,0-.18.06-.18.05-.19.05-.19,0-.19.06-.2.05-.2,0-.2.05-.2.06-.21,0-.21.05-.22.06-.22.05-.22,0-.22.05-.23.06-.23,0-.23.05-.23,0-.24.06-.24.05-.25.05-.25,0-.24.06-.26.05-.25,0-.26.06-.26.05-.26,0-.27.05-.27.06-.27.05-.27,0-.28.05-.28.06-.28,0-.28.05-.29,0-.29.06-.29.05-.29.05-.3.06-.29,0-.3.05-.31,0-.3.06-.31.05-.3,0-.31.05-.32.06-.31.05-.32,0-.32.06-.32.05-.32,0-.32.05-.33.06-.33,0-.33.05-.33.05-.33.06-.34,0-.33.05-.34,0-.34.06-.34.05-.34,0-.35.06-.34.05-.35.05-.35,0-.34.06-.35.05-.36,0-.35.05-.35.06-.36,0-.35.05-.36.05-.36.06-.36,0-.36.05-.36.06-.36,0-.37.05-.36,0-.36.06-.37.05-.36.05-.37,0-.37.06-.36.05-.37,0-.37.05-.37.06-.37,0-.37.05-.37.06-.37.05-.37,0-.37.05-.37.06-.37,0-.38.05-.37,0-.37.06-.37.05-.37.05-.37.06-.37.05-.38.05-.37,0-.37.06-.37.05-.37,0-.37.05-.37.06-.37.05-.36,0-.37.05-.37.06-.37,0-.36.05-.37.06-.36,0-.37.05-.36.05-.37.06-.36.05-.36.05-.36,0-.36.06-.36.05-.35,0-.36.05-.36.06-.35.05-.35,0-.35.06-.36.05-.34,0-.35.05-.35.06-.34,0-.35.05-.34.05-.34.06-.34.05-.34.05-.34.06-.33,0-.33.05-.33,0-.33.06-.33.05-.33.05-.32,0-.32.06-.33.05-.31,0-.32.05-.32.06-.31,0-.31.05-.31.06-.3,0-.31.05-.3.05-.3.06-.3,0-.29.05-.3,0-.29.06-.29.05-.28.05-.29,0-.28.06-.28.05-.27,0-.28.06-.27.05-.27,0-.26.05-.27.06-.26,0-.26.05-.25.05-.25.06-.25,0-.25.05-.25.06-.24,0-.24.05-.23.05-.24.06-.23.05-.22.05-.23,0-.22.06-.22.05-.21,0-.21.05-.21.06-.21,0-.2.05-.2.06-.19.05-.2,0-.19.05-.18.06-.19,0-.18.05-.17.05-.18.06-.17.05-.16.05-.17,0-.16.06-.15.05-.16,0-.15.06-.14.05-.15,0-.13.05-.14.06-.13.05-.13,0-.13.05-.12.06-.12,0-.11.05-.11.06-.11,0-.1.05-.1.05-.1.06-.09,0-.09.05-.09,0-.08.06-.08.05-.07,0-.08.05-.06.06-.07.05-.06,0,0,.06-.06.05,0,0-.05.05,0,.06,0,0,0,.05,0,.05,0,.06,0,0,0,.05,0h.37l0,0,.06,0,.05,0,0,0,.05,0,.06,0,0,0,.05,0,.06,0,.05.05,0,0,.05.06.06.06,0,.06.05.07,0,.07.06.07.05.08.05.08,0,.09.06.08.05.1,0,.09.06.1.05.11,0,.1.05.11.06.12.05.12,0,.12.05.12.06.13,0,.13.05.14,0,.14.06.14.05.15.05.14.06.16,0,.15.05.16,0,.17.06.16.05.17,0,.18.05.17.06.18.05.18,0,.19.06.19.05.19,0,.2.05.2.06.2,0,.2.05.21.05.21.06.22,0,.22.05.22,0,.22.06.23.05.23,0,.23.06.23.05.24.05.24,0,.25.06.24.05.25,0,.26.05.25.06.26,0,.26.05.26.05.27.06.27,0,.27.05.27.06.28,0,.28.05.28,0,.28.06.29.05.29.05.29,0,.29.06.29.05.3,0,.3.06.3.05.31,0,.3.05.31.06.31.05.32,0,.31.05.32.06.31,0,.33.05.32,0,.32.06.33.05.33.05.32.06.34.05.33.05.33,0,.34.06.34.05.34,0,.34.05.34.06.34.05.35,0,.34.05.35.06.35,0,.35.05.35.06.36,0,.35.05.36.05.35.06.36.05.36.05.36,0,.36.06.36.05.36,0,.36.06.37.05.36.05.37,0,.36.06.37.05.36,0,.37.05.37.06.37,0,.37.05.37.05.37.06.37.05.37.05.37.06.37,0,.37.05.37,0,.37.06.37.05.38.05.37,0,.37.06.37.05.37,0,.37.05.37.06.37,0,.37.05.37.06.37,0,.37.05.37.05.37.06.37,0,.37.05.36,0,.37.06.37.05.36.05.37.06.36.05.36.05.36,0,.37.06.36.05.36,0,.35.05.36.06.36,0,.35.05.36.05.35.06.35,0,.35.05.35.06.35,0,.35.05.34.05.35.06.34.05.34.05.34,0,.34.06.33.05.34,0,.33.05.33.06.33,0,.33.05.33.06.32.05.32,0,.32.05.32.06.32,0,.31.05.32.05.31.06.31.05.3.05.31.06.3,0,.3.05.3,0,.29.06.3.05.29,0,.29.05.28.06.29.05.28,0,.28.05.27.06.28,0,.27.05.27.06.26,0,.27.05.26.05.26.06.25,0,.25.05.25,0,.25.06.25.05.24,0,.24.05.23.06.23.05.23,0,.23.06.23.05.22,0,.21.05.22.06.21,0,.21.05.21.05.2.06.2,0,.19.05.2.06.19,0,.18.05.19,0,.18.06.17.05.18.05.17,0,.16.06.17.05.16,0,.15.05.16.06.15,0,.14.05.15.06.14.05.13,0,.13.05.13.06.13,0,.12.05.12,0,.11.06.11.05.11.05.11,0,.1.06.09.05.1,0,.09.06.08.05.08,0,.08.05.08.06.07.05.07,0,.06.05.06.06.06,0,.05.05,0,.06,0,0,0,.05,0,.05,0,.06,0,0,0,.05,0h0l.06,0H226l0,0,.05,0,.06,0,0,0,.05,0,.05,0,.06,0,0-.05.05,0,0-.06.06-.05.05-.06,0-.06.06-.07.05-.07.05-.08,0-.07.06-.09L227,261l0-.09.05-.09.06-.1,0-.1.05-.1.06-.11.05-.11,0-.11.05-.12.06-.12,0-.13.05-.13,0-.13.06-.13.05-.14.05-.14,0-.15.06-.15.05-.15,0-.16.06-.16.05-.16,0-.17.05-.17.06-.17.05-.17,0-.18.05-.19.06-.18,0-.19.05-.19,0-.2.06-.2.05-.2.05-.21.06-.2.05-.22.05-.21,0-.22.06-.22.05-.22,0-.23.05-.23.06-.23.05-.24,0-.23.06-.25.05-.24,0-.25.05-.25.06-.25,0-.25.05-.26.05-.26.06-.26.05-.27.05-.27,0-.27.06-.27.05-.28,0-.28.06-.28.05-.28.05-.29,0-.29.06-.29.05-.29,0-.3.05-.29.06-.3,0-.3.05-.31.05-.31.06-.3.05-.31L231,245l.06-.31,0-.32.05-.32,0-.32.06-.32.05-.32.05-.33,0-.33.06-.33.05-.33,0-.33.05-.33.06-.34,0-.34.05-.34.06-.34,0-.34.05-.34.05-.35.06-.35,0-.34.05-.35,0-.35.06-.35.05-.36.05-.35.06-.36.05-.35.05-.36,0-.36.06-.36.05-.36,0-.36.05-.36.06-.36,0-.37.05-.36L233,232l.06-.36,0-.37"/><path class="cls-1" d="M218.56,232.66l.05.37.06.36.05.36.05.36,0,.36.06.36.05.36,0,.36.06.35.05.36,0,.35.05.35.06.36.05.35,0,.35.05.34.06.35,0,.35.05.34.05.34.06.34.05.34.05.34.06.34,0,.33.05.33,0,.34.06.32.05.33,0,.33.05.32.06.33.05.32,0,.31.06.32.05.32,0,.31.05.31.06.31,0,.3.05.31.05.3.06.3,0,.3.05.29,0,.3.06.29.05.29,0,.28.06.29.05.28.05.28,0,.27.06.28.05.27,0,.27.05.26.06.27,0,.26.05.25.05.26.06.25,0,.25.05.25.06.24,0,.24.05.24,0,.24.06.23.05.23.05.23,0,.22.06.22.05.22,0,.21.06.22.05.21,0,.2.05.2.06.2.05.2,0,.19.05.19.06.19,0,.18.05.18,0,.18.06.17.05.17.05.17.06.16,0,.16.05.15,0,.16.06.15.05.14,0,.15.05.14.06.13.05.13,0,.13.05.13.06.12,0,.12.05.11.06.11,0,.11.05.1.05.1.06.1,0,.09.05.09,0,.09.06.08.05.08,0,.07.06.07.05.07.05.06,0,.06.06.06.05.05,0,0,.05.05.06,0,0,0,.05,0,.05,0,.06,0,0,0,.05,0h.48l.05,0,0,0,.05,0,.06,0,0,0,.05,0,.06,0,.05-.05,0,0,.05-.05.06-.06,0-.06.05-.06,0-.07.06-.07.05-.07.05-.08.06-.08.05-.09.05-.09,0-.09.06-.1.05-.1,0-.1.05-.11.06-.11.05-.11,0-.12.05-.12.06-.13,0-.12.05-.14.06-.13,0-.14.05-.14.05-.15.06-.15.05-.15.05-.16,0-.16.06-.16.05-.17,0-.17.05-.17.06-.18.05-.18,0-.18.06-.19.05-.19,0-.19.05-.19.06-.2,0-.21.05-.2.05-.21.06-.21.05-.22L229,255l0-.22.06-.23.05-.23,0-.22.06-.24.05-.23.05-.24,0-.24.06-.25.05-.24,0-.25.05-.26.06-.25,0-.26.05-.26.06-.26,0-.27.05-.27.05-.27.06-.27,0-.28.05-.28,0-.28.06-.28.05-.29.05-.29,0-.29.06-.29.05-.3,0-.29.06-.3.05-.31,0-.3.05-.31.06-.31,0-.31.05-.31.05-.31.06-.32,0-.32.05-.32,0-.32.06-.33.05-.32.05-.33.06-.33.05-.33.05-.33,0-.34.06-.33.05-.34,0-.34.05-.34.06-.34,0-.35.05-.34.06-.35.05-.35,0-.35.05-.35.06-.35,0-.35.05-.36.05-.35.06-.36.05-.35.05-.36,0-.36.06-.36.05-.36,0-.37.06-.36.05-.36,0-.37.05-.36.06-.37.05-.36,0-.37.05-.37.06-.37,0-.36.05-.37.05-.37.06-.37.05-.37.05-.37.06-.37,0-.37.05-.38,0-.37.06-.37.05-.37,0-.37.05-.37.06-.37.05-.38,0-.37.06-.37.05-.37,0-.37.05-.37.06-.37,0-.37.05-.37.05-.37.06-.37,0-.37.05-.36,0-.37.06-.37.05-.36,0-.37.06-.36.05-.37.05-.36,0-.36.06-.36.05-.36,0-.36.05-.36.06-.36,0-.35.05-.36.05-.35.06-.36,0-.35.05-.35.06-.35,0-.34.05-.35,0-.35.06-.34.05-.34.05-.34,0-.34.06-.34.05-.34,0-.33.06-.33.05-.34,0-.33.05-.32.06-.33.05-.32,0-.33.05-.32.06-.32,0-.31.05-.32,0-.31L237,205l.05-.31.05-.31.06-.3,0-.3.05-.3,0-.3.06-.29.05-.3,0-.29.05-.29.06-.28.05-.29,0-.28.05-.28.06-.27,0-.28.05-.27.06-.27,0-.26.05-.27.05-.26.06-.26,0-.25.05-.25,0-.25.06-.25.05-.25,0-.24.06-.24.05-.23.05-.23,0-.23.06-.23.05-.22,0-.22.05-.22.06-.22,0-.21.05-.21.05-.2.06-.21,0-.19.05-.2.06-.19,0-.19.05-.19,0-.18.06-.18.05-.18.05-.17,0-.17.06-.17.05-.16,0-.16.05-.16.06-.15,0-.15.05-.15.06-.14.05-.14,0-.14.05-.13.06-.13,0-.12.05-.12,0-.12.06-.12.05-.11.05-.1.06-.11.05-.1.05-.09,0-.1.06-.09.05-.08,0-.08.05-.08.06-.08.05-.07,0-.07.05-.06.06-.06,0-.06.05,0,.06-.05,0,0,.05,0,.05,0,.06,0,.05,0,.05,0,0,0,.06,0,.05,0h.37l0,0,.05,0,.06,0,0,0,.05,0,.05,0,.06,0,.05,0,.05,0,.06.05,0,0,.05.06,0,.06.06.06.05.07.05.07,0,.07.06.08.05.08,0,.09.05.09.06.09,0,.1.05.1.06.1,0,.11.05.11.05.11.06.12,0,.12.05.13,0,.13.06.13.05.13.05.14,0,.14.06.15.05.15,0,.15.06.16.05.16,0,.16.05.17.06.17,0,.17.05.18.05.18.06.18,0,.19.05.19.06.19,0,.19.05.2.05.21.06.2.05.21.05.21,0,.22.06.21.05.22,0,.23.05.22.06.23,0,.24.05.23.06.24.05.24,0,.25.05.24.06.25,0,.26.05.25.05.26.06.26.05.26.05.27,0,.27.06.27.05.27,0,.28.06.28.05.28,0,.28.05.29.06.29.05.29,0,.29.05.29.06.3,0,.3.05.3.06.31,0,.3.05.31.05.31.06.32,0,.31.05.32,0,.32.06.32.05.32,0,.32.05.33.06.33.05.33,0,.33.06.33.05.34,0,.33.05.34.06.34,0,.34.05.34.05.35.06.34,0,.35.05.34,0,.35.06.35.05.36,0,.35.06.35.05.36.05.35,0,.36.06.36.05.36,0,.36.05.36.06.36,0,.37.05.36.06.36.05.37,0,.36.05.37.06.37,0,.36.05.37,0,.37.06.37.05.37.05.37,0,.37.06.37.05.37,0,.37.06.37.05.37,0,.38.05.37.06.37.05.37,0,.37.05.37.06.37,0,.38.05.37,0,.37.06.37.05.37.05.37.06.37,0,.37.05.36,0,.37.06.37.05.37,0,.36.05.37.06.36.05.37,0,.36.06.37.05.36,0,.36.05.36.06.36,0,.36.05.35.05.36.06.36,0,.35.05.35,0,.35.06.35.05.35,0,.35.06.35.05.34.05.35,0,.34.06.34.05.34,0,.34.05.33.06.34,0,.33.05.33.05.33.06.33,0,.33.05.32.06.32,0,.32.05.32,0,.32.06.31.05.32.05.31,0,.31.06.3.05.31,0,.3.06.3.05.3,0,.29.05.3.06.29.05.29,0,.28.05.29.06.28,0,.28.05.27,0,.28.06.27.05.27.05.26.06.27.05.26.05.25,0,.26.06.25.05.25,0,.25.05.24.06.25.05.23,0,.24.05.23.06.23,0,.23.05.22.06.22,0,.22.05.22.05.21.06.21.05.2.05.21,0,.2.06.19.05.19,0,.19.06.19.05.18.05.18,0,.18.06.17,0,.17.05.17.05.16.06.16.05.16,0,.15.05.15.06.15.05.14.05.14.06.14.05.13,0,.13.05.12.06.12.05.12.05.12.05.11.06.11,0,.1.05.1.05.1.06.09.05.09,0,.08.06.09.05.07.05.08.05.07.06.07.05.06,0,.06.05.06.06.05.05,0,.05,0,.06.05.05,0,0,0,.05,0,.06,0,.05,0,.05,0h.48l.05,0,.05,0,.05,0,.06,0,.05,0,0,0,.05,0,.06-.05.05,0,.05-.05,0-.05.06-.06.05-.07.05-.06.06-.07.05-.08.05-.08,0-.08.06-.08.05-.09.05-.1.05-.09.06-.1.05-.11,0-.1.05-.11.06-.12.05-.12.05-.12.06-.12,0-.13.05-.13.05-.14.06-.14.05-.14.05-.14,0-.15.06-.16.05-.15.05-.16.06-.17.05-.16.05-.17,0-.17.06-.18.05-.18.05-.18.05-.19.06-.19,0-.19.05-.2.05-.2.06-.2.05-.2.05-.21.06-.21,0-.22.05-.22.05-.22.06-.22.05-.23.05-.23,0-.23.06-.23.05-.24.05-.24.05-.25.06-.25,0-.24.05-.26.06-.25.05-.26.05-.26.05-.26.06-.27,0-.27.05-.27.05-.27.06-.28.05-.28.05-.28.06-.28.05-.29.05-.29.05-.29.06-.29.05-.3,0-.29.05-.3.06-.31.05-.3.05-.31.05-.3.06-.31,0-.32.05-.31.06-.32.05-.32.05-.32.05-.32.06-.32.05-.33.05-.33.05-.33.06-.33.05-.33,0-.34.05-.33.06-.34.05-.34.05-.34.06-.34.05-.35,0-.34.05-.35.06-.35.05-.34.05-.35L265,237l.06-.35.05-.35.05-.36.06-.35.05-.36.05-.36,0-.36.06-.36.05-.36.05-.36.05-.37.06-.36.05-.36,0-.37.05-.36.06-.37.05-.37.05-.36.06-.37,0-.37.05-.37.05-.37.06-.37.05-.37.05-.37,0-.37.06-.37.05-.37.05-.37.05-.38.06-.37.05-.37,0-.37.06-.37.05-.37.05-.37.05-.38.06-.37,0-.37.05-.37.05-.37.06-.37.05-.37.05-.37.06-.36,0-.37.05-.37.05-.37.06-.36.05-.37.05-.36,0-.37.06-.36.05-.37.05-.36.05-.36.06-.36,0-.36.05-.36.06-.35.05-.36.05-.36.05-.35.06-.35,0-.35.05-.36.05-.34.06-.35.05-.35.05-.34,0-.35.06-.34.05-.34.05-.34.06-.34.05-.34,0-.33.05-.33.06-.33.05-.33.05-.33.05-.33.06-.32,0-.32.05-.33.06-.31.05-.32.05-.32.05-.31.06-.31,0-.31.05-.3.05-.31.06-.3.05-.3,0-.3.05-.29.06-.3.05-.29.05-.29.06-.28.05-.29,0-.28.05-.28.06-.27.05-.28.05-.27.05-.27.06-.26,0-.27.05-.26.05-.26.06-.25.05-.25,0-.25.06-.25.05-.25.05-.24.05-.24.06-.23.05-.24,0-.23.05-.22.06-.23.05-.22.05-.22.06-.21.05-.21,0-.21.05-.21.06-.2.05-.2L272,194l0-.2.06-.19.05-.18.05-.19.05-.18.06-.17.05-.18,0-.17.06-.16.05-.17.05-.16.05-.15.06-.16.05-.15,0-.14.05-.15.06-.13.05-.14.05-.13,0-.13.06-.13.05-.12.05-.12.06-.11.05-.11.05-.11,0-.1.06-.1.05-.1.05-.09.05-.09.06-.09.05-.08,0-.08.06-.07.05-.08.05-.06L274,189,274,189l0,0,.05-.06.05,0,.06-.05.05,0,.05,0,0,0,.06,0,.05,0,.05,0,.06,0,.05,0H275l0,0,.05,0,.05,0,.06,0,.05,0,.05,0,.06,0,0,0,.05,0,.05.05.06,0,.05.06.05.06,0,.06.06.07.05.07.05.07.06.08.05.08,0,.09.05.08.06.1.05.09.05.1.05.11.06.1,0,.11.05.12.05.12.06.12.05.12.05.13.06.13.05.14.05.14.05.14.06.15.05.14,0,.16.05.15.06.16.05.17.05.16.05.17.06.18,0,.17.05.18.06.18.05.19.05.19.05.19.06.2.05.2.05.2.05.2.06.21.05.21,0,.22.06.22.05.22.05.22.05.23.06.23.05.23,0,.23.05.24.06.24.05.25.05.24.05.25.06.26.05.25.05.26.06.26.05.26.05.27,0,.27.06.27.05.27.05.28.05.28.06.28.05.28,0,.29.05.29.06.29.05.29.05.29.06.3,0,.3.05.3.05.31.06.3.05.31.05.31,0,.32.06.31.05.32.05.31.06.33.05.32.05.32,0,.33.06.33.05.32.05.34.05.33.06.33,0,.34.05.34.05.34.06.34.05.34.05.34.06.35,0,.34.05.35.05.35.06.35.05.35.05.36,0,.35.06.36.05.35.05.36.05.36.06.36,0,.36.05.36.06.36.05.36.05.37.05.36.06.37,0,.36.05.37.05.36.06.37.05.37.05.37.06.37,0,.37.05.37.05.37.06.37.05.37,0,.37.05.37.06.37.05.37.05.37.05.38.06.37,0,.37.05.37.06.37.05.37.05.37.05.37.06.37,0,.37.05.37.05.37.06.37.05.37,0,.37.05.37.06.36.05.37.05.37.06.36.05.37,0,.36.05.36.06.36.05.37.05.36.05.36.06.35,0,.36.05.36.06.35.05.36.05.35,0,.35.06.35.05.35.05.35.05.35.06.34.05.35,0,.34.05.34.06.34.05.34.05.33.06.34.05.33,0,.33.05.33.06.33.05.33.05.32,0,.32.06.32.05.32.05.32.05.31.06.32.05.31,0,.31.06.3.05.31.05.3.05.3.06.3.05.29,0,.3.05.29.06.29.05.28.05.29.06.28,0,.28.05.27.05.28.06.27.05.27.05.26,0,.27.06.26.05.26.05.25.05.25.06.25.05.25,0,.25.06.24.05.24.05.23.05.23.06.23,0,.23.05.23.05.22.06.21.05.22.05.21,0,.21.06.21.05.2.05.2.06.19.05.2.05.19,0,.18.06.19.05.18.05.17.05.18.06.17,0,.16.05.17.06.16.05.15.05.16.05.15.06.14,0,.15.05.14.05.13.06.13.05.13.05.13,0,.12.06.12.05.11.05.11.06.11.05.11,0,.1.05.09.06.1.05.09.05.08.05.08.06.08,0,.08.05.07.05.07.06.06.05.06.05.06.06.05.05,0,.05,0,.05,0,.06,0,.05,0,0,0,.05,0,.06,0H291l.05,0h.42l.06,0,.05,0,.05,0,.05,0,.06,0,.05,0,0,0,.06-.05.05,0,.05-.06.05-.05.06-.06.05-.06,0-.07.05-.07.06-.08.05-.07.05-.09.05-.08.06-.09.05-.09.05-.1.06-.1.05-.1.05-.11,0-.11.06-.11.05-.12L293,260l.05-.13.06-.13.05-.13,0-.13.05-.14.06-.14.05-.15.05-.15.06-.15,0-.16.05-.16.05-.16.06-.17.05-.17.05-.17,0-.17.06-.18.05-.19L294,257l.06-.19.05-.19.05-.2,0-.2.06-.2.05-.21.05-.2.05-.22.06-.21,0-.22.05-.22.05-.22.06-.23.05-.23.05-.23.06-.24,0-.23.05-.25.05-.24.06-.25.05-.25.05-.25,0-.25.06-.26.05-.26.05-.26.05-.27.06-.27,0-.27.05-.27.06-.28.05-.28.05-.28.05-.28.06-.29,0-.29.05-.29.05-.29.06-.3.05-.29.05-.3.06-.3,0-.31.05-.31.05-.3.06-.31.05-.32,0-.31.05-.32.06-.32.05-.32.05-.32.05-.32.06-.33,0-.33.05-.33.06-.33.05-.33.05-.33.05-.34.06-.34,0-.34.05-.34.05-.34.06-.34.05-.35,0-.35.05-.34.06-.35.05-.35.05-.35.06-.36.05-.35,0-.36.05-.35.06-.36.05-.36.05-.36.05-.36.06-.36,0-.36.05-.36.06-.37.05-.36.05-.37,0-.36.06-.37"/></g><g id="_2f" data-name="2f"><path class="cls-1" d="M17,139.66l.1.37.11.36.1.36.11.36.1.36.1.36.11.36.1.36.1.35.11.36.1.35.11.35.1.36.1.35.11.35.1.34.1.35.11.35.1.34.11.34.1.34.1.34.11.34.1.34.11.33.1.33.1.34.11.32.1.33.1.33.11.32.1.33.11.32.1.31.1.32.11.32.1.31.1.31.11.31.1.3.11.31.1.3.1.3.11.3.1.29.1.3.11.29.1.29.11.28.1.29.1.28.11.28.1.27.1.28.11.27.1.27.11.26.1.27.1.26.11.25.1.26.1.25.11.25.1.25.11.24.1.24.1.24.11.24.1.23.11.23.1.23.1.22.11.22.1.22.1.21.11.22.1.21.11.2.1.2.1.2.11.2.1.19.1.19.11.19.1.18.11.18.1.18.1.17.11.17.1.17.1.16.11.16.1.15.11.16.1.15.1.14.11.15.1.14.1.13.11.13.1.13.11.13.1.12.1.12.11.11.1.11.1.11.11.1.1.1.11.1.1.09.1.09.11.09.1.08.11.08.1.07.1.07.11.07.1.06.1.06.11.06.1.05.11.05.1,0,.1,0,.11,0,.1,0,.1,0,.11,0,.1,0,.11,0h.93l.1,0,.11,0,.1,0,.1,0,.11,0,.1,0,.11,0,.1,0,.1-.05.11-.05.1-.06.1-.06.11-.06.1-.07.11-.07.1-.07.1-.08.11-.08.1-.09.11-.09.1-.09.1-.1.11-.1.1-.1.1-.11.11-.11.1-.11.11-.12.1-.12.1-.13.11-.12.1-.14.1-.13.11-.14.1-.14.11-.15.1-.15.1-.15.11-.16.1-.16.1-.16.11-.17.1-.17.11-.17.1-.18.1-.18.11-.18.1-.19.1-.19.11-.19.1-.19.11-.2L37,163l.1-.2.11-.21.1-.21.1-.22.11-.21.1-.22.11-.23.1-.23.1-.22.11-.24.1-.23.11-.24.1-.24.1-.25.11-.24.1-.25.1-.26.11-.25.1-.26.11-.26.1-.26.1-.27.11-.27.1-.27.1-.27.11-.28.1-.28.11-.28.1-.28.1-.29.11-.29.1-.29.1-.29.11-.3.1-.29.11-.3.1-.31.1-.3.11-.31.1-.31.1-.31.11-.31.1-.31.11-.32.1-.32.1-.32.11-.32.1-.33.11-.32.1-.33.1-.33.11-.33.1-.33.1-.34.11-.33.1-.34.11-.34.1-.34.1-.34.11-.35.1-.34.1-.35.11-.35.1-.35.11-.35.1-.35.1-.35.11-.36.1-.35.1-.36.11-.35.1-.36.11-.36.1-.36.1-.36.11-.37L45,140l.1-.36.11-.37.1-.36.11-.37.1-.36.1-.37.11-.37.1-.37.1-.36.11-.37.1-.37.11-.37.1-.37.1-.37.11-.37.1-.37.11-.38.1-.37L47,133l.11-.37.1-.37.1-.37.11-.37.1-.38.11-.37.1-.37.1-.37.11-.37.1-.37.1-.37.11-.37.1-.37.11-.37.1-.37.1-.37.11-.36.1-.37L49,126l.11-.36.1-.37.11-.36.1-.37.1-.36.11-.36.1-.36.1-.36.11-.36.1-.36.11-.36.1-.35.1-.36.11-.35.1-.36.1-.35.11-.35.1-.35.11-.34.1-.35.1-.35.11-.34.1-.34.11-.34.1-.34.1-.34.11-.34.1-.33.1-.33.11-.34.1-.33.11-.32.1-.33.1-.32.11-.33.1-.32.1-.32.11-.31.1-.32.11-.31.1-.31.1-.31.11-.31.1-.3.1-.3.11-.3.1-.3.11-.29.1-.3.1-.29.11-.29.1-.28.1-.29.11-.28.1-.28.11-.27.1-.28L55,107l.11-.27.1-.26.1-.27.11-.26.1-.26.11-.25.1-.25.1-.25.11-.25.1-.25.11-.24.1-.24.1-.23.11-.23.1-.23.1-.23.11-.22.1-.22.11-.22.1-.22.1-.21.11-.21.1-.2.1-.21.11-.19.1-.2.11-.19.1-.19.1-.19.11-.18.1-.18.1-.18.11-.17.1-.17.11-.17.1-.16.1-.16.11-.16.1-.15.1-.15.11-.15.1-.14.11-.14.1-.14.1-.13.11-.13.1-.12.11-.12.1-.12.1-.12.11-.11.1-.1.1-.11.11-.1.1-.09.11-.1.1-.09.1-.08.11-.08.1-.08.1-.08.11-.07.1-.07.11-.06.1-.06.1-.06.11,0,.1,0,.1,0,.11,0,.1,0,.11,0,.1,0,.1,0,.11,0,.1,0,.1,0h.73l.1,0,.11,0,.1,0,.11,0,.1,0,.1,0,.11,0,.1,0,.11,0,.1,0,.1,0L65,96l.1.06.1.06.11.07.1.07.11.07.1.08.1.08.11.09.1.09.1.09.11.1.1.1.11.1.1.11.1.11.11.11.1.12.1.12.11.13.1.13.11.13.1.13.1.14.11.14.1.15.1.15.11.15.1.16.11.16.1.16.1.17.11.17.1.17.1.18.11.18.1.18.11.19.1.19.1.19.11.19.1.2.11.21.1.2.1.21.11.21.1.22.1.21.11.22.1.23.11.22.1.23.1.24.11.23.1.24.1.24.11.25.1.24.11.25.1.26.1.25.11.26.1.26.1.26.11.27.1.27.11.27.1.27.1.28.11.28.1.28.1.28.11.29.1.29.11.29.1.29.1.29.11.3.1.3.1.3.11.31.1.3.11.31.1.31.1.32.11.31.1.32.11.32.1.32.1.32.11.32.1.33.1.33.11.33.1.33.11.33.1.34.1.33.11.34.1.34.1.34.11.34.1.35.11.34.1.35.1.34.11.35.1.35.1.36.11.35.1.35.11.36.1.35.1.36.11.36.1.36.1.36.11.36.1.36.11.37.1.36.1.36.11.37.1.36.1.37.11.37.1.36.11.37.1.37.1.37.11.37.1.37.11.37.1.37.1.37.11.37.1.37.1.37.11.38.1.37.11.37.1.37.1.37.11.37.1.37.1.38.11.37.1.37.11.37.1.37.1.37.11.37.1.37.1.36.11.37.1.37.11.37.1.36.1.37.11.36.1.37.1.36.11.37.1.36.11.36.1.36.1.36.11.36.1.35.11.36.1.36.1.35.11.35.1.35.1.35.11.35.1.35.11.35.1.34.1.35.11.34.1.34.1.34.11.34.1.33.11.34.1.33.1.33.11.33.1.33.1.33.11.32.1.32L85,151l.1.32.1.32.11.31.1.32.1.31.11.31.1.3.11.31.1.3.1.3.11.3.1.29.1.3.11.29.1.29.11.28.1.29.1.28.11.28.1.27.11.28.1.27.1.27.11.26.1.27.1.26.11.25.1.26.11.25.1.25.1.25.11.24.1.25.1.23.11.24.1.23.11.23.1.23.1.22.11.22.1.22.1.22.11.21.1.21.11.2.1.21.1.2.11.19.1.19.1.19.11.19.1.18.11.18.1.18.1.17.11.17.1.17.1.16.11.16.1.16.11.15.1.15.1.15.11.14.1.14.11.14.1.13.1.13.11.12.1.12.1.12.11.12.1.11.11.11.1.1.1.1.11.1.1.09.1.09.11.08.1.09.11.07.1.08.1.07.11.07.1.06.1.06.11.06.1.05.11.05.1,0,.1.05.11,0,.1,0,.1,0,.11,0,.1,0,.11,0h.93l.1,0,.11,0,.1,0,.11,0,.1,0,.1,0,.11,0,.1,0,.1-.05.11-.05.1,0,.11-.06.1-.07.1-.06.11-.07.1-.08.1-.08.11-.08.1-.08.11-.09.1-.1.1-.09.11-.1.1-.11.1-.1.11-.11.1-.12.11-.12.1-.12.1-.12.11-.13.1-.13.1-.14.11-.14.1-.14.11-.14.1-.15.1-.16.11-.15.1-.16.11-.17.1-.16.1-.17.11-.17.1-.18.1-.18.11-.18.1-.19.11-.19.1-.19.1-.2.11-.2.1-.2.1-.2.11-.21.1-.21.11-.22.1-.22.1-.22.11-.22.1-.23.1-.23.11-.23.1-.23.11-.24.1-.24.1-.25.11-.25.1-.24.1-.26.11-.25.1-.26.11-.26.1-.26.1-.27.11-.27.1-.27.1-.27.11-.28.1-.28.11-.28.1-.28.1-.29.11-.29.1-.29.11-.29.1-.3.1-.29.11-.3.1-.31.1-.3.11-.31.1-.3.11-.31.1-.32.1-.31.11-.32.1-.32.1-.32.11-.32.1-.32.11-.33.1-.33.1-.33.11-.33.1-.33.1-.34.11-.33.1-.34.11-.34.1-.34.1-.34.11-.35.1-.34.1-.35.11-.35.1-.34.11-.35.1-.36.1-.35.11-.35.1-.36.1-.35.11-.36.1-.36.11-.36.1-.36.1-.36.11-.36.1-.37.11-.36.1-.36.1-.37.11-.36.1-.37.1-.37.11-.36.1-.37.11-.37.1-.37.1-.37.11-.37.1-.37.1-.37.11-.37.1-.37.11-.37.1-.37.1-.38.11-.37.1-.37.1-.37.11-.37.1-.37.11-.37.1-.38.1-.37.11-.37.1-.37.1-.37.11-.37.1-.37.11-.37.1-.36.1-.37.11-.37.1-.37.1-.36.11-.37.1-.36.11-.37.1-.36.1-.37.11-.36.1-.36.11-.36.1-.36.1-.36.11-.35.1-.36.1-.36L115,121l.1-.35.11-.35.1-.36.1-.34.11-.35.1-.35.1-.34.11-.35.1-.34.11-.34.1-.34.1-.34.11-.34.1-.33.1-.33.11-.33.1-.33.11-.33.1-.33.1-.32.11-.32.1-.33.1-.31.11-.32.1-.32.11-.31.1-.31.1-.31.11-.3.1-.31.1-.3.11-.3.1-.3.11-.29.1-.3.1-.29.11-.29.1-.28.11-.29.1-.28.1-.28.11-.27.1-.28.1-.27.11-.27.1-.26.11-.27.1-.26.1-.26.11-.25.1-.25.1-.25.11-.25.1-.25.11-.24.1-.24.1-.23.11-.24.1-.23.1-.22.11-.23.1-.22.11-.22.1-.21.1-.21.11-.21.1-.21.1-.2.11-.2.1-.19.11-.2.1-.19.1-.18.11-.19.1-.18.11-.17.1-.18.1-.17.11-.16.1-.17.1-.16.11-.15.1-.16.11-.15.1-.14.1-.15.11-.13.1-.14.1-.13.11-.13.1-.13.11-.12.1-.12.1-.11.11-.11.1-.11.1-.1.11-.1.1-.1.11-.09.1-.09.1-.09.11-.08.1-.08.1-.07.11-.08.1-.06.11-.07.1-.06.1,0,.11-.06.1,0,.1,0,.11,0,.1,0,.11,0,.1,0,.1,0,.11,0,.1,0,.11,0h.72l.11,0,.1,0,.1,0,.11,0,.1,0,.1,0,.11,0,.1,0,.11.05.1,0,.1,0,.11.06.1.06.1.06.11.07.1.07.11.07.1.08.1.08.11.09.1.08.1.1.11.09.1.1.11.11.1.1.1.11.11.12.1.12.1.12.11.12.1.13.11.13.1.14.1.14.11.14.1.15.11.14.1.16.1.15.11.16.1.17.1.16.11.17.1.18.11.17.1.18.1.18.11.19.1.19.1.19.11.2.1.2.11.2.1.2.1.21.11.21.1.22.1.22.11.22.1.22.11.23.1.23.1.23.11.23.1.24.1.24.11.25.1.24.11.25.1.26.1.25.11.26.1.26.1.26.11.27.1.27.11.27.1.27.1.28.11.28.1.28.11.28.1.29.1.29.11.29.1.29.1.29.11.3.1.3.11.3.1.31.1.3.11.31.1.31.1.32.11.31.1.32.11.31.1.33.1.32.11.32.1.33.1.33.11.32.1.34.11.33.1.33.1.34.11.34.1.34.1.34.11.34.1.34.11.35.1.34.1.35.11.35.1.35.11.35.1.36.1.35.11.36.1.35.1.36.11.36.1.36.11.36.1.36.1.36.11.36.1.37.1.36.11.37.1.36.11.37.1.36.1.37.11.37.1.37.1.37.11.37.1.37.11.37.1.37.1.37.11.37.1.37.1.37.11.37.1.37.11.38.1.37.1.37.11.37.1.37.1.37.11.37.1.37.11.37.1.37.1.37.11.37.1.37.11.37.1.37.1.37.11.36.1.37.1.37.11.36.1.37.11.36.1.36.1.36.11.37.1.36.1.36.11.35.1.36.11.36.1.35.1.36.11.35.1.35.1.35.11.35.1.35.11.35.1.34.1.35.11.34.1.34.1.34.11.34.1.33.11.34.1.33.1.33.11.33.1.33.1.33.11.32.1.32.11.32.1.32.1.32.11.31.1.32.11.31.1.31.1.3.11.31.1.3.1.3.11.3.1.29.11.3.1.29.1.29.11.28.1.29.1.28.11.28.1.27.11.28.1.27.1.27.11.26.1.27.1.26.11.26.1.25.11.25.1.25.1.25.11.25.1.24.1.24.11.23.1.23.11.23.1.23.1.23.11.22.1.21.1.22.11.21.1.21.11.21.1.2.1.2.11.19.1.2.11.19.1.18.1.19.11.18.1.17.1.18.11.17.1.16.11.17.1.16.1.15.11.16.1.15.1.14.11.15.1.14.11.13.1.13.1.13.11.13.1.12.1.12.11.11.1.11.11.11.1.11.1.1.11.09.1.1.1.09.11.08.1.08.11.08.1.08.1.07.11.07.1.06.1.06.11.06.1.05.11.05.1,0,.1,0,.11,0,.1,0,.11,0,.1,0,.1,0h.11l.1,0h.83l.1,0,.11,0,.1,0,.11,0,.1,0,.1,0,.11,0,.1,0,.1,0,.11-.06.1,0,.11-.06.1-.06.1-.07.11-.07.1-.08.1-.07.11-.09.1-.08.11-.09.1-.09.1-.1.11-.1.1-.1.11-.11.1-.11.1-.11.11-.12.1-.12.1-.13.11-.13.1-.13.11-.13.1-.14.1-.14.11-.15.1-.15.1-.15.11-.16.1-.16.11-.16.1-.17.1-.17.11-.17.1-.17.1-.18.11-.19.1-.18.11-.19.1-.19.1-.2.11-.2.1-.2.1-.21.11-.2.1-.22.11-.21.1-.22.1-.22.11-.22.1-.23.1-.23.11-.23.1-.24.11-.23.1-.25.1-.24.11-.25.1-.25.11-.25.1-.25.1-.26.11-.26.1-.26.1-.27.11-.27.1-.27.11-.27.1-.28.1-.28.11-.28.1-.28.1-.29.11-.29.1-.29.11-.29.1-.3.1-.29.11-.3.1-.3.1-.31.11-.31.1-.3.11-.31.1-.32.1-.31.11-.32.1-.32.1-.32.11-.32.1-.32.11-.33.1-.33.1-.33.11-.33.1-.33.1-.33.11-.34.1-.34.11-.34.1-.34.1-.34.11-.34.1-.35.11-.35.1-.34.1-.35.11-.35.1-.35.1-.36.11-.35.1-.36.11-.35.1-.36.1-.36.11-.36.1-.36.1-.36.11-.36.1-.36.11-.37.1-.36.1-.37.11-.36.1-.37"/><path class="cls-1" d="M146,139.66l.1.37.11.36.1.36.11.36.1.36.1.36.11.36.1.36.1.35.11.36.1.35.11.35.1.36.1.35.11.35.1.34.1.35.11.35.1.34.11.34.1.34.1.34.11.34.1.34.11.33.1.33.1.34.11.32.1.33.1.33.11.32.1.33.11.32.1.31.1.32.11.32.1.31.1.31.11.31.1.3.11.31.1.3.1.3.11.3.1.29.1.3.11.29.1.29.11.28.1.29.1.28.11.28.1.27.1.28.11.27.1.27.11.26.1.27.1.26.11.25.1.26.1.25.11.25.1.25.11.24.1.24.1.24.11.24.1.23.11.23.1.23.1.22.11.22.1.22.1.21.11.22.1.21.11.2.1.2.1.2.11.2.1.19.1.19.11.19.1.18.11.18.1.18.1.17.11.17.1.17.1.16.11.16.1.15.11.16.1.15.1.14.11.15.1.14.1.13.11.13.1.13.11.13.1.12.1.12.11.11.1.11.1.11.11.1.1.1.11.1.1.09.1.09.11.09.1.08.11.08.1.07.1.07.11.07.1.06.1.06.11.06.1.05.11.05.1,0,.1,0,.11,0,.1,0,.1,0,.11,0,.1,0,.11,0h.93l.1,0,.11,0,.1,0,.1,0,.11,0,.1,0,.11,0,.1,0,.1-.05.11-.05.1-.06.1-.06.11-.06.1-.07.11-.07.1-.07.1-.08.11-.08.1-.09.11-.09.1-.09.1-.1.11-.1.1-.1.1-.11.11-.11.1-.11.11-.12.1-.12.1-.13.11-.12.1-.14.1-.13.11-.14.1-.14.11-.15.1-.15.1-.15.11-.16.1-.16.1-.16.11-.17.1-.17.11-.17.1-.18.1-.18.11-.18.1-.19.1-.19.11-.19.1-.19.11-.2.1-.21.1-.2.11-.21.1-.21.1-.22.11-.21.1-.22.11-.23.1-.23.1-.22.11-.24.1-.23.11-.24.1-.24.1-.25.11-.24.1-.25.1-.26.11-.25.1-.26.11-.26.1-.26.1-.27.11-.27.1-.27.1-.27.11-.28.1-.28.11-.28.1-.28.1-.29.11-.29.1-.29.1-.29.11-.3.1-.29.11-.3.1-.31.1-.3.11-.31.1-.31.1-.31.11-.31.1-.31.11-.32.1-.32.1-.32.11-.32.1-.33.11-.32.1-.33.1-.33.11-.33.1-.33.1-.34.11-.33.1-.34.11-.34.1-.34.1-.34.11-.35.1-.34.1-.35.11-.35.1-.35.11-.35.1-.35.1-.35.11-.36.1-.35.1-.36.11-.35.1-.36.11-.36.1-.36.1-.36.11-.37.1-.36.1-.36.11-.37.1-.36.11-.37.1-.36.1-.37.11-.37.1-.37.1-.36.11-.37.1-.37.11-.37.1-.37.1-.37.11-.37.1-.37.11-.38.1-.37.1-.37.11-.37.1-.37.1-.37.11-.37.1-.38.11-.37.1-.37.1-.37.11-.37.1-.37.1-.37.11-.37.1-.37.11-.37.1-.37.1-.37.11-.36.1-.37.1-.37.11-.36.1-.37.11-.36.1-.37.1-.36.11-.36.1-.36.1-.36.11-.36.1-.36.11-.36.1-.35.1-.36.11-.35.1-.36.1-.35.11-.35.1-.35.11-.34.1-.35.1-.35.11-.34.1-.34.11-.34.1-.34.1-.34.11-.34.1-.33.1-.33.11-.34.1-.33.11-.32.1-.33.1-.32.11-.33.1-.32.1-.32.11-.31.1-.32.11-.31.1-.31.1-.31.11-.31.1-.3.1-.3.11-.3.1-.3.11-.29.1-.3.1-.29.11-.29.1-.28.1-.29.11-.28.1-.28.11-.27.1-.28.1-.27.11-.27.1-.26.1-.27.11-.26.1-.26.11-.25.1-.25.1-.25.11-.25.1-.25.11-.24.1-.24.1-.23.11-.23.1-.23.1-.23.11-.22.1-.22.11-.22.1-.22.1-.21.11-.21.1-.2.1-.21.11-.19.1-.2.11-.19.1-.19.1-.19.11-.18.1-.18.1-.18.11-.17.1-.17.11-.17.1-.16.1-.16.11-.16.1-.15.1-.15.11-.15.1-.14.11-.14.1-.14.1-.13.11-.13.1-.12.11-.12.1-.12.1-.12.11-.11.1-.1.1-.11.11-.1.1-.09.11-.1.1-.09.1-.08.11-.08.1-.08.1-.08.11-.07.1-.07.11-.06.1-.06.1-.06.11,0,.1,0,.1,0,.11,0,.1,0,.11,0,.1,0,.1,0,.11,0,.1,0,.1,0h.73l.1,0,.11,0,.1,0,.11,0,.1,0,.1,0,.11,0,.1,0,.11,0,.1,0,.1,0L194,96l.1.06.1.06.11.07.1.07.11.07.1.08.1.08.11.09.1.09.1.09.11.1.1.1.11.1.1.11.1.11.11.11.1.12.1.12.11.13.1.13.11.13.1.13.1.14.11.14.1.15.1.15.11.15.1.16.11.16.1.16.1.17.11.17.1.17.1.18.11.18.1.18.11.19.1.19.1.19.11.19.1.2.11.21.1.2.1.21.11.21.1.22.1.21.11.22.1.23.11.22.1.23.1.24.11.23.1.24.1.24.11.25.1.24.11.25.1.26.1.25.11.26.1.26.1.26.11.27.1.27.11.27.1.27.1.28.11.28.1.28.1.28.11.29.1.29.11.29.1.29.1.29.11.3.1.3.1.3.11.31.1.3.11.31.1.31.1.32.11.31.1.32.11.32.1.32.1.32.11.32.1.33.1.33.11.33.1.33.11.33.1.34.1.33.11.34.1.34.1.34.11.34.1.35.11.34.1.35.1.34.11.35.1.35.1.36.11.35.1.35.11.36.1.35.1.36.11.36.1.36.1.36.11.36.1.36.11.37.1.36.1.36.11.37.1.36.1.37.11.37.1.36.11.37.1.37.1.37.11.37.1.37.11.37.1.37.1.37.11.37.1.37.1.37.11.38.1.37.11.37.1.37.1.37.11.37.1.37.1.38.11.37.1.37.11.37.1.37.1.37.11.37.1.37.1.36.11.37.1.37.11.37.1.36.1.37.11.36.1.37.1.36.11.37.1.36.11.36.1.36.1.36.11.36.1.35.11.36.1.36.1.35.11.35.1.35.1.35.11.35.1.35.11.35.1.34.1.35.11.34.1.34.1.34.11.34.1.33.11.34.1.33.1.33.11.33.1.33.1.33.11.32.1.32.11.32.1.32.1.32.11.31.1.32.1.31.11.31.1.3.11.31.1.3.1.3.11.3.1.29.1.3.11.29.1.29.11.28.1.29.1.28.11.28.1.27.11.28.1.27.1.27.11.26.1.27.1.26.11.25.1.26.11.25.1.25.1.25.11.24.1.25.1.23.11.24.1.23.11.23.1.23.1.22.11.22.1.22.1.22.11.21.1.21.11.2.1.21.1.2.11.19.1.19.1.19.11.19.1.18.11.18.1.18.1.17.11.17.1.17.1.16.11.16.1.16.11.15.1.15.1.15.11.14.1.14.11.14.1.13.1.13.11.12.1.12.1.12.11.12.1.11.11.11.1.1.1.1.11.1.1.09.1.09.11.08.1.09.11.07.1.08.1.07.11.07.1.06.1.06.11.06.1.05.11.05.1,0,.1.05.11,0,.1,0,.1,0,.11,0,.1,0,.11,0h.93l.1,0,.11,0,.1,0,.11,0,.1,0,.1,0,.11,0,.1,0,.1-.05.11-.05.1,0,.11-.06.1-.07.1-.06.11-.07.1-.08.1-.08.11-.08.1-.08.11-.09.1-.1.1-.09.11-.1.1-.11.1-.1.11-.11.1-.12.11-.12.1-.12.1-.12.11-.13.1-.13.1-.14.11-.14.1-.14.11-.14.1-.15.1-.16.11-.15.1-.16.11-.17.1-.16.1-.17.11-.17.1-.18.1-.18.11-.18.1-.19.11-.19.1-.19.1-.2.11-.2.1-.2.1-.2.11-.21.1-.21.11-.22.1-.22.1-.22.11-.22.1-.23.1-.23.11-.23.1-.23.11-.24.1-.24.1-.25.11-.25.1-.24.1-.26.11-.25.1-.26.11-.26.1-.26.1-.27.11-.27.1-.27.1-.27.11-.28.1-.28.11-.28.1-.28.1-.29.11-.29.1-.29.11-.29.1-.3.1-.29.11-.3.1-.31.1-.3.11-.31.1-.3.11-.31.1-.32.1-.31.11-.32.1-.32.1-.32.11-.32.1-.32.11-.33.1-.33.1-.33.11-.33.1-.33.1-.34.11-.33.1-.34.11-.34.1-.34.1-.34.11-.35.1-.34.1-.35.11-.35.1-.34.11-.35.1-.36.1-.35.11-.35.1-.36.1-.35.11-.36.1-.36.11-.36.1-.36.1-.36.11-.36.1-.37.11-.36.1-.36.1-.37.11-.36.1-.37.1-.37.11-.36.1-.37.11-.37.1-.37.1-.37.11-.37.1-.37.1-.37.11-.37.1-.37.11-.37.1-.37.1-.38.11-.37.1-.37.1-.37.11-.37.1-.37.11-.37.1-.38.1-.37.11-.37.1-.37.1-.37.11-.37.1-.37.11-.37.1-.36.1-.37.11-.37.1-.37.1-.36.11-.37.1-.36.11-.37.1-.36.1-.37.11-.36.1-.36.11-.36.1-.36.1-.36.11-.35.1-.36.1-.36L244,121l.1-.35.11-.35.1-.36.1-.34.11-.35.1-.35.1-.34.11-.35.1-.34.11-.34.1-.34.1-.34.11-.34.1-.33.1-.33.11-.33.1-.33.11-.33.1-.33.1-.32.11-.32.1-.33.1-.31.11-.32.1-.32.11-.31.1-.31.1-.31.11-.3.1-.31.1-.3.11-.3.1-.3.11-.29.1-.3.1-.29.11-.29.1-.28.11-.29.1-.28.1-.28.11-.27.1-.28.1-.27.11-.27.1-.26.11-.27.1-.26.1-.26.11-.25.1-.25.1-.25.11-.25.1-.25.11-.24.1-.24.1-.23.11-.24.1-.23.1-.22.11-.23.1-.22.11-.22.1-.21.1-.21.11-.21.1-.21.1-.2.11-.2.1-.19.11-.2.1-.19.1-.18.11-.19.1-.18.11-.17.1-.18.1-.17.11-.16.1-.17.1-.16.11-.15.1-.16.11-.15.1-.14.1-.15.11-.13.1-.14.1-.13.11-.13.1-.13.11-.12.1-.12.1-.11.11-.11.1-.11.1-.1.11-.1.1-.1.11-.09.1-.09.1-.09.11-.08.1-.08.1-.07.11-.08.1-.06.11-.07.1-.06.1,0,.11-.06.1,0,.1,0,.11,0,.1,0,.11,0,.1,0,.1,0,.11,0,.1,0,.11,0h.72l.11,0,.1,0,.1,0,.11,0,.1,0,.1,0,.11,0,.1,0,.11.05.1,0,.1,0,.11.06.1.06.1.06.11.07.1.07.11.07.1.08.1.08.11.09.1.08.1.1.11.09.1.1.11.11.1.1.1.11.11.12.1.12.1.12.11.12.1.13.11.13.1.14.1.14.11.14.1.15.11.14.1.16.1.15.11.16.1.17.1.16.11.17.1.18.11.17.1.18.1.18.11.19.1.19.1.19.11.2.1.2.11.2.1.2.1.21.11.21.1.22.1.22.11.22.1.22.11.23.1.23.1.23.11.23.1.24.1.24.11.25.1.24.11.25.1.26.1.25.11.26.1.26.1.26.11.27.1.27.11.27.1.27.1.28.11.28.1.28.11.28.1.29.1.29.11.29.1.29.1.29.11.3.1.3.11.3.1.31.1.3.11.31.1.31.1.32.11.31.1.32.11.31.1.33.1.32.11.32.1.33.1.33.11.32.1.34.11.33.1.33.1.34.11.34.1.34.1.34.11.34.1.34.11.35.1.34.1.35.11.35.1.35.11.35.1.36.1.35.11.36.1.35.1.36.11.36.1.36.11.36.1.36.1.36.11.36.1.37.1.36.11.37.1.36.11.37.1.36.1.37.11.37.1.37.1.37.11.37.1.37.11.37.1.37.1.37.11.37.1.37.1.37.11.37.1.37.11.38.1.37.1.37.11.37.1.37.1.37.11.37.1.37.11.37.1.37.1.37.11.37.1.37.11.37.1.37.1.37.11.36.1.37.1.37.11.36.1.37.11.36.1.36.1.36.11.37.1.36.1.36.11.35.1.36.11.36.1.35.1.36.11.35.1.35.1.35.11.35.1.35.11.35.1.34.1.35.11.34.1.34.1.34.11.34.1.33.11.34.1.33.1.33.11.33.1.33.1.33.11.32.1.32.11.32.1.32.1.32.11.31.1.32.11.31.1.31.1.3.11.31.1.3.1.3.11.3.1.29.11.3.1.29.1.29.11.28.1.29.1.28.11.28.1.27.11.28.1.27.1.27.11.26.1.27.1.26.11.26.1.25.11.25.1.25.1.25.11.25.1.24.1.24.11.23.1.23.11.23.1.23.1.23.11.22.1.21.1.22.11.21.1.21.11.21.1.2.1.2.11.19.1.2.11.19.1.18.1.19.11.18.1.17.1.18.11.17.1.16.11.17.1.16.1.15.11.16.1.15.1.14.11.15.1.14.11.13.1.13.1.13.11.13.1.12.1.12.11.11.1.11.11.11.1.11.1.1.11.09.1.1.1.09.11.08.1.08.11.08.1.08.1.07.11.07.1.06.1.06.11.06.1.05.11.05.1,0,.1,0,.11,0,.1,0,.11,0,.1,0,.1,0h.11l.1,0h.83l.1,0,.11,0,.1,0,.11,0,.1,0,.1,0,.11,0,.1,0,.1,0,.11-.06.1,0,.11-.06.1-.06.1-.07.11-.07.1-.08.1-.07.11-.09.1-.08.11-.09.1-.09.1-.1.11-.1.1-.1.11-.11.1-.11.1-.11.11-.12.1-.12.1-.13.11-.13.1-.13.11-.13.1-.14.1-.14.11-.15.1-.15.1-.15.11-.16.1-.16.11-.16.1-.17.1-.17.11-.17.1-.17.1-.18.11-.19.1-.18.11-.19.1-.19.1-.2.11-.2.1-.2.1-.21.11-.2.1-.22.11-.21.1-.22.1-.22.11-.22.1-.23.1-.23.11-.23.1-.24.11-.23.1-.25.1-.24.11-.25.1-.25.11-.25.1-.25.1-.26.11-.26.1-.26.1-.27.11-.27.1-.27.11-.27.1-.28.1-.28.11-.28.1-.28.1-.29.11-.29.1-.29.11-.29.1-.3.1-.29.11-.3.1-.3.1-.31.11-.31.1-.3.11-.31.1-.32.1-.31.11-.32.1-.32.1-.32.11-.32.1-.32.11-.33.1-.33.1-.33.11-.33.1-.33.1-.33.11-.34.1-.34.11-.34.1-.34.1-.34.11-.34.1-.35.11-.35.1-.34.1-.35.11-.35.1-.35.1-.36.11-.35.1-.36.11-.35.1-.36.1-.36.11-.36.1-.36.1-.36.11-.36.1-.36.11-.37.1-.36.1-.37.11-.36.1-.37"/></g><path class="cls-1" d="M2.5,46.66l.21.37.21.36.2.36.21.36.21.36.21.36.2.36.21.36.21.35.21.36.21.35L5,51l.21.36.21.35.21.35.2.34.21.35.21.35.21.34.21.34.2.34.21.34.21.34.21.34.21.33.2.33.21.34.21.32.21.33.2.33.21.32.21.33.21.32.21.31.2.32L10,59l.21.31.21.31.2.31.21.3.21.31.21.3.21.3.2.3.21.29.21.3.21.29.2.29.21.28.21.29.21.28.21.28.2.27.21.28.21.27.21.27.21.26.2.27.21.26.21.25.21.26.2.25.21.25.21.25.21.24.21.24.2.24.21.24.21.23.21.23.2.23.21.22.21.22.21.22.21.21.2.22.21.21.21.2.21.2.2.2.21.2.21.19.21.19.21.19.2.18.21.18.21.18.21.17.2.17.21.17.21.16.21.16.21.15.2.16.21.15.21.14.21.15.21.14.2.13.21.13.21.13.21.13.2.12.21.12.21.11.21.11.21.11.2.1.21.1.21.1.21.09.2.09.21.09.21.08.21.08.21.07.2.07.21.07.21.06.21.06.2.06.21,0,.21,0,.21,0,.21,0,.2,0,.21,0,.21,0,.21,0,.21,0,.2,0h1.87l.21,0L32,76l.21,0,.2,0,.21,0,.21,0,.21,0,.21,0,.2,0,.21,0,.21-.06.21-.06.2-.06.21-.07.21-.07.21-.07.21-.08.2-.08.21-.09.21-.09.21-.09.2-.1.21-.1.21-.1.21-.11.21-.11.2-.11.21-.12.21-.12.21-.13.21-.12.2-.14.21-.13.21-.14.21-.14.2-.15.21-.15.21-.15.21-.16.21-.16.2-.16.21-.17.21-.17.21-.17.2-.18.21-.18.21-.18.21-.19.21-.19.2-.19.21-.19.21-.2.21-.21.2-.2.21-.21.21-.21.21-.22.21-.21.2-.22.21-.23.21-.23.21-.22.21-.24.2-.23.21-.24.21-.24.21-.25.2-.24.21-.25.21-.26.21-.25.21-.26.2-.26L47,65.1l.21-.27.21-.27.2-.27L47.8,64l.21-.28.21-.28.21-.28.2-.28.21-.29.21-.29.21-.29.2-.29.21-.3.21-.29.21-.3.21-.31.2-.3.21-.31.21-.31.21-.31.21-.31.2-.31.21-.32.21-.32.21-.32.2-.32.21-.33.21-.32.21-.33.21-.33.2-.33.21-.33.21-.34.21-.33.2-.34.21-.34.21-.34.21-.34.21-.35.2-.34.21-.35L55.7,52l.21-.35.2-.35.21-.35.21-.35.21-.36.21-.35.2-.36.21-.35.21-.36.21-.36.2-.36.21-.36.21-.37.21-.36.21-.36.2-.37.21-.36.21-.37.21-.36.21-.37.2-.37.21-.37.21-.36.21-.37.2-.37.21-.37.21-.37.21-.37.21-.37.2-.37.21-.38.21-.37.21-.37.2-.37.21-.37.21-.37.21-.37.21-.38.2-.37.21-.37.21-.37.21-.37.2-.37.21-.37.21-.37.21-.37.21-.37.2-.37.21-.37.21-.36.21-.37.21-.37.2-.36.21-.37.21-.36.21-.37.2-.36.21-.36.21-.36.21-.36.21-.36.2-.36.21-.36.21-.35.21-.36.2-.35.21-.36.21-.35L70,26.9l.21-.35.2-.34.21-.35.21-.35.21-.34.2-.34.21-.34.21-.34.21-.34.21-.34.2-.33.21-.33.21-.34.21-.33.2-.32.21-.33.21-.32.21-.33.21-.32.2-.32.21-.31.21-.32.21-.31L75,19l.2-.31.21-.31.21-.3.21-.3.2-.3.21-.3.21-.29.21-.3.21-.29.2-.29.21-.28.21-.29.21-.28.2-.28.21-.27.21-.28.21-.27.21-.27.2-.26.21-.27.21-.26.21-.26.2-.25.21-.25.21-.25.21-.25.21-.25.2-.24.21-.24.21-.23.21-.23.21-.23.2-.23.21-.22.21-.22.21-.22.2-.22L82.92,9l.21-.21.21-.2.21-.21.2-.19.21-.2.21-.19.21-.19.2-.19.21-.18L85,7l.21-.18.21-.17.2-.17.21-.17L86,6.16,86.25,6l.2-.16.21-.15.21-.15.21-.15.21-.14.2-.14L87.7,5l.21-.13.21-.13.2-.12.21-.12.21-.12L89,4.23l.21-.11.2-.1.21-.11.21-.1L90,3.72l.21-.1.2-.09.21-.08.21-.08L91,3.29l.2-.08.21-.07.21-.07L91.86,3,92.07,3l.2-.06.21-.05.21,0,.21,0,.2,0,.21,0,.21,0,.21,0,.21,0,.2,0,.21,0,.21,0H96l.21,0,.21,0,.21,0,.21,0,.2,0,.21,0,.21,0,.21,0,.2,0,.21,0,.21.05.21.06.21.06.2.06.21.07.21.07.21.07.2.08.21.08.21.09.21.09.21.09.2.1.21.1.21.1.21.11.2.11.21.11.21.12.21.12.21.13.2.13.21.13.21.13.21.14.2.14.21.15.21.15.21.15.21.16.2.16.21.16.21.17.21.17.21.17.2.18.21.18.21.18.21.19.2.19.21.19.21.19.21.2.21.21.2.2.21.21.21.21.21.22.2.21.21.22.21.23.21.22.21.23.2.24.21.23.21.24.21.24.2.25.21.24.21.25.21.26.21.25.2.26.21.26.21.26.21.27L112,14l.2.27.21.27.21.28.21.28.2.28.21.28.21.29.21.29.21.29.2.29.21.29.21.3.21.3.2.3.21.31.21.3.21.31.21.31.2.32.21.31.21.32.21.32.2.32.21.32.21.32.21.33.21.33.2.33.21.33.21.33.21.34.21.33.2.34.21.34.21.34.21.34.2.35.21.34.21.35.21.34.21.35.2.35.21.36.21.35.21.35.2.36.21.35.21.36.21.36.21.36.2.36.21.36.21.36.21.37.2.36.21.36.21.37.21.36.21.37.2.37.21.36.21.37.21.37.2.37.21.37.21.37.21.37.21.37.2.37.21.37.21.37.21.37.21.38.2.37.21.37.21.37L128,40l.2.37.21.37.21.38.21.37.21.37.2.37.21.37.21.37.21.37.2.37.21.36.21.37.21.37.21.37.2.36.21.37.21.36.21.37.2.36.21.37.21.36.21.36.21.36.2.36.21.36.21.35.21.36.21.36.2.35.21.35.21.35.21.35.2.35.21.35.21.35.21.34.21.35.2.34.21.34.21.34.21.34.2.33.21.34.21.33.21.33.21.33.2.33.21.33.21.32.21.32.2.32.21.32.21.32.21.31.21.32.2.31.21.31.21.3.21.31.2.3.21.3.21.3.21.29.21.3.2.29.21.29.21.28.21.29.21.28.2.28.21.27.21.28.21.27.2.27.21.26.21.27.21.26.21.25.2.26.21.25.21.25.21.25.2.24.21.25.21.23.21.24.21.23.2.23.21.23.21.22.21.22.2.22.21.22.21.21.21.21.21.2.2.21.21.2.21.19.21.19L149,71l.2.19.21.18.21.18.21.18.2.17.21.17.21.17.21.16.21.16.2.16.21.15.21.15.21.15.2.14.21.14.21.14.21.13.21.13.2.12.21.12.21.12.21.12.2.11.21.11.21.1.21.1.21.1.2.09L155,75l.21.08.21.09.2.07.21.08.21.07.21.07.21.06.2.06.21.06.21,0,.21,0,.21,0,.2,0,.21,0,.21,0,.21,0,.2,0,.21,0,.21,0h1.87l.21,0,.21,0,.2,0,.21,0,.21,0,.21,0,.2,0,.21,0,.21,0,.21,0,.21,0,.2-.06.21-.07.21-.06.21-.07.21-.08.2-.08.21-.08.21-.08L165,75l.2-.1.21-.09.21-.1.21-.11.21-.1.2-.11.21-.12.21-.12.21-.12.2-.12.21-.13.21-.13.21-.14.21-.14.2-.14.21-.14.21-.15.21-.16.2-.15.21-.16.21-.17.21-.16.21-.17.2-.17.21-.18.21-.18.21-.18.2-.19.21-.19.21-.19.21-.2.21-.2.2-.2.21-.2.21-.21.21-.21.21-.22.2-.22.21-.22.21-.22.21-.23.2-.23.21-.23.21-.23.21-.24.21-.24.2-.25.21-.25.21-.24.21-.26.2-.25.21-.26.21-.26.21-.26.21-.27.2-.27.21-.27.21-.27.21-.28.2-.28.21-.28.21-.28.21-.29.21-.29.2-.29.21-.29.21-.3.21-.29.21-.3.2-.31.21-.3.21-.31.21-.3.2-.31.21-.32.21-.31.21-.32.21-.32.2-.32.21-.32.21-.32.21-.33.2-.33.21-.33.21-.33.21-.33.21-.34.2-.33.21-.34.21-.34.21-.34.2-.34.21-.35.21-.34.21-.35L185,52l.2-.34.21-.35.21-.36.21-.35.2-.35.21-.36.21-.35.21-.36.21-.36.2-.36.21-.36.21-.36.21-.36.21-.37.2-.36.21-.36.21-.37.21-.36.2-.37.21-.37.21-.36.21-.37.21-.37.2-.37.21-.37.21-.37.21-.37.2-.37.21-.37.21-.37.21-.37.21-.37.2-.38.21-.37.21-.37.21-.37.2-.37.21-.37.21-.37.21-.38.21-.37.2-.37.21-.37.21-.37.21-.37.21-.37.2-.37.21-.36.21-.37.21-.37.2-.37.21-.36.21-.37.21-.36.21-.37.2-.36.21-.37.21-.36.21-.36.2-.36.21-.36.21-.36.21-.35.21-.36.2-.36.21-.35.21-.35.21-.35.2-.36.21-.34.21-.35.21-.35.21-.34.2-.35.21-.34.21-.34.21-.34.21-.34.2-.34.21-.33.21-.33.21-.33.2-.33.21-.33.21-.33.21-.32.21-.32.2-.33.21-.31.21-.32.21-.32.2-.31.21-.31.21-.31.21-.3.21-.31.2-.3.21-.3.21-.3.21-.29.2-.3.21-.29.21-.29.21-.28.21-.29.2-.28.21-.28.21-.27.21-.28.2-.27.21-.27.21-.26.21-.27.21-.26.2-.26.21-.25.21-.25.21-.25.21-.25.2-.25.21-.24.21-.24.21-.23.2-.24.21-.23.21-.22.21-.23.21-.22.2-.22.21-.21.21-.21.21-.21.2-.21.21-.2.21-.2.21-.19.21-.2.2-.19.21-.18.21-.19.21-.18.2-.17.21-.18.21-.17.21-.16.21-.17.2-.16.21-.15.21-.16.21-.15.21-.14.2-.15.21-.13L217,5l.21-.13.2-.13.21-.13.21-.12.21-.12.21-.11.2-.11.21-.11.21-.1.21-.1.2-.1.21-.09.21-.09.21-.09.21-.08.2-.08.21-.07.21-.08.21-.06.2-.07.21-.06.21-.05.21-.06.21,0,.2,0,.21,0,.21,0,.21,0,.2,0,.21,0,.21,0,.21,0,.21,0h1.45l.21,0,.21,0,.2,0,.21,0,.21,0,.21,0,.21,0,.2,0,.21,0,.21,0,.21.05.2.06L228,3l.21.06.21.07.21.07.2.07.21.08.21.08.21.09.2.08.21.1.21.09.21.1.21.11.2.1.21.11.21.12.21.12.21.12.2.12.21.13.21.13.21.14.2.14.21.14.21.15.21.14.21.16.2.15.21.16.21.17.21.16.2.17.21.18.21.17.21.18.21.18.2.19.21.19.21.19.21.2.2.2.21.2.21.2.21.21.21.21.2.22.21.22.21.22L238,10l.2.23.21.23.21.23.21.23.21.24.2.24.21.25.21.24.21.25.21.26.2.25.21.26.21.26.21.26.2.27.21.27.21.27.21.27.21.28.2.28.21.28.21.28.21.29.2.29.21.29.21.29.21.29.21.3.2.3.21.3.21.31.21.3.2.31.21.31.21.32.21.31.21.32.2.31.21.33.21.32.21.32.21.33.2.33.21.32.21.34.21.33.2.33.21.34.21.34.21.34.21.34.2.34.21.34.21.35.21.34.2.35.21.35.21.35.21.35.21.36.2.35.21.36L251,29l.21.36.2.36.21.36.21.36.21.36.21.36.2.36.21.37.21.36.21.37.2.36.21.37.21.36.21.37.21.37.2.37.21.37.21.37.21.37.21.37.2.37.21.37.21.37.21.37.2.37.21.37.21.37.21.38.21.37.2.37.21.37.21.37.21.37.2.37.21.37.21.37.21.37.21.37.2.37.21.37.21.37.21.37.2.37.21.36.21.37.21.37.21.36.2.37.21.36.21.36.21.36.21.37.2.36.21.36.21.35.21.36.2.36.21.35.21.36.21.35.21.35.2.35.21.35.21.35.21.35.2.34.21.35.21.34.21.34.21.34.2.34.21.33.21.34.21.33.2.33.21.33.21.33.21.33.21.32.2.32.21.32.21.32.21.32.21.31.2.32.21.31.21.31.21.3.2.31.21.3.21.3.21.3.21.29.2.3.21.29.21.29.21.28.2.29.21.28.21.28L272,64l.21.28.2.27.21.27.21.26.21.27.2.26.21.26.21.25.21.25.21.25.2.25.21.25.21.24.21.24.2.23.21.23.21.23.21.23.21.23.2.22.21.21.21.22.21.21.21.21.2.21.21.2.21.2.21.19.2.2.21.19.21.18.21.19.21.18.2.17.21.18.21.17.21.16.2.17.21.16.21.15.21.16.21.15.2.14.21.15.21.14.21.13.2.13.21.13.21.13.21.12.21.12.2.11.21.11.21.11.21.11.21.1.2.09.21.1.21.09.21.08.2.08.21.08.21.08.21.07.21.07.2.06.21.06.21.06.21,0,.2,0,.21,0,.21,0,.21,0,.21,0,.2,0,.21,0,.21,0h.21l.2,0h1.67l.2,0,.21,0,.21,0,.21,0,.21,0,.2,0,.21,0,.21,0,.21,0,.21-.06.2,0,.21-.06.21-.06.21-.07.2-.07.21-.08.21-.07.21-.09.21-.08.2-.09.21-.09.21-.1.21-.1.2-.1.21-.11.21-.11.21-.11.21-.12.2-.12.21-.13.21-.13.21-.13.2-.13.21-.14.21-.14.21-.15.21-.15.2-.15.21-.16.21-.16.21-.16.21-.17.2-.17.21-.17.21-.17.21-.18.2-.19.21-.18.21-.19.21-.19.21-.2.2-.2.21-.2.21-.21.21-.2.2-.22.21-.21.21-.22.21-.22.21-.22.2-.23.21-.23.21-.23.21-.24.2-.23.21-.25.21-.24.21-.25.21-.25.2-.25.21-.25.21-.26.21-.26.2-.26.21-.27.21-.27.21-.27.21-.27.2-.28.21-.28.21-.28.21-.28.21-.29.2-.29.21-.29.21-.29.21-.3.2-.29.21-.3.21-.3.21-.31.21-.31.2-.3.21-.31.21-.32.21-.31.2-.32.21-.32.21-.32.21-.32.21-.32.2-.33.21-.33.21-.33.21-.33.2-.33.21-.33.21-.34.21-.34.21-.34.2-.34.21-.34.21-.34.21-.35.21-.35.2-.34.21-.35.21-.35.21-.35.2-.36.21-.35.21-.36.21-.35.21-.36.2-.36.21-.36.21-.36.21-.36.2-.36.21-.36.21-.37.21-.36.21-.37.2-.36.21-.37"/></g></g></svg>