<svg xmlns="http://www.w3.org/2000/svg" viewBox="0 0 279.53 172.37"><defs><style>.cls-1{fill:none;stroke:#000;stroke-width:5px;}</style></defs><g id="Layer_2" data-name="Layer 2"><g id="wavelets"><g id="mexican_hat" data-name="mexican hat"><polyline class="cls-1" points="0 118.23 0.09 118.23 0.17 118.23 0.34 118.23 0.68 118.23 1.36 118.24 1.45 118.24 1.53 118.24 1.7 118.24 2.04 118.24 2.72 118.24 2.81 118.24 2.89 118.24 3.06 118.24 3.4 118.24 4.08 118.24 4.17 118.24 4.25 118.24 4.42 118.25 4.76 118.25 5.44 118.25 5.53 118.25 5.63 118.25 5.81 118.25 6.18 118.25 6.92 118.25 7.01 118.26 7.1 118.26 7.29 118.26 7.65 118.26 8.39 118.26 8.48 118.26 8.58 118.27 8.76 118.27 9.13 118.27 9.87 118.27 9.96 118.27 10.05 118.27 10.23 118.28 10.6 118.28 11.34 118.28 11.43 118.29 11.51 118.29 11.69 118.29 12.03 118.29 12.72 118.3 12.8 118.3 12.89 118.3 13.06 118.3 13.41 118.31 14.1 118.32 14.18 118.32 14.27 118.32 14.44 118.32 14.78 118.33 15.47 118.34 15.56 118.34 15.64 118.34 15.82 118.34 16.16 118.35 16.85 118.36 16.93 118.36 17.02 118.36 17.19 118.37 17.52 118.38 18.2 118.39 18.28 118.39 18.37 118.39 18.54 118.4 18.87 118.41 19.55 118.42 19.63 118.43 19.72 118.43 19.89 118.43 20.23 118.44 20.9 118.46 22.25 118.51 22.34 118.52 22.43 118.52 22.61 118.53 22.98 118.54 23.71 118.57 23.8 118.58 23.9 118.58 24.08 118.59 24.45 118.61 25.18 118.65 25.27 118.65 25.36 118.66 25.55 118.67 25.91 118.69 26.64 118.73 28.11 118.83 28.19 118.84 28.28 118.85 28.45 118.86 28.79 118.89 29.48 118.95 29.56 118.95 29.64 118.96 29.82 118.98 30.16 119.01 30.84 119.08 30.93 119.09 31.01 119.09 31.18 119.11 31.52 119.15 32.21 119.23 33.58 119.4 33.67 119.42 33.76 119.43 33.95 119.45 34.31 119.51 35.06 119.62 35.15 119.64 35.24 119.65 35.43 119.68 35.8 119.75 36.54 119.88 36.63 119.89 36.72 119.91 36.91 119.95 37.28 120.02 38.02 120.17 39.5 120.51 39.59 120.53 39.68 120.56 39.86 120.6 40.23 120.69 40.95 120.89 41.04 120.92 41.13 120.94 41.32 120.99 41.68 121.1 42.41 121.32 42.5 121.35 42.59 121.38 42.77 121.44 43.13 121.56 43.86 121.82 45.32 122.37 45.4 122.41 45.48 122.44 45.66 122.51 45.99 122.66 46.67 122.96 48.03 123.6 48.11 123.65 48.2 123.69 48.37 123.78 48.71 123.95 49.38 124.32 50.74 125.11 50.83 125.17 50.92 125.23 51.11 125.34 51.48 125.58 52.21 126.06 53.68 127.11 53.77 127.18 53.87 127.25 54.05 127.39 54.42 127.68 55.15 128.27 56.63 129.53 56.71 129.61 56.8 129.68 56.97 129.84 57.31 130.16 58 130.81 59.37 132.18 62.12 135.23 62.2 135.33 62.29 135.43 62.45 135.63 62.79 136.03 63.46 136.86 64.81 138.59 67.5 142.28 73.34 151.12 73.43 151.25 73.52 151.39 73.69 151.65 74.03 152.19 74.71 153.25 76.07 155.37 76.16 155.5 76.24 155.63 76.41 155.9 76.75 156.42 77.43 157.45 78.8 159.47 78.89 159.61 78.98 159.74 79.17 160.01 79.53 160.53 80.27 161.56 81.75 163.51 81.84 163.63 81.94 163.74 82.12 163.97 82.49 164.42 83.23 165.28 83.32 165.38 83.41 165.48 83.6 165.68 83.97 166.08 84.7 166.82 84.8 166.9 84.89 166.99 85.07 167.16 85.43 167.48 85.52 167.56 85.61 167.63 85.79 167.78 86.16 168.07 86.25 168.14 86.34 168.21 86.52 168.34 86.88 168.59 86.97 168.65 87.06 168.7 87.24 168.81 87.61 169.02 87.7 169.07 87.79 169.12 87.97 169.21 88.06 169.25 88.15 169.29 88.33 169.37 88.42 169.41 88.51 169.45 88.69 169.52 88.78 169.55 88.87 169.58 89.06 169.64 89.15 169.66 89.24 169.69 89.33 169.71 89.42 169.73 89.51 169.75 89.6 169.77 89.69 169.79 89.78 169.8 89.87 169.81 89.96 169.83 90.05 169.84 90.14 169.85 90.23 169.85 90.33 169.86 90.42 169.86 90.51 169.87 90.59 169.87 90.67 169.87 90.76 169.86 90.84 169.86 90.93 169.85 91.01 169.85 91.1 169.84 91.18 169.83 91.27 169.82 91.35 169.81 91.44 169.79 91.52 169.78 91.61 169.76 91.69 169.74 91.86 169.7 91.94 169.68 92.03 169.65 92.2 169.6 92.28 169.57 92.36 169.54 92.53 169.47 92.62 169.44 92.7 169.4 92.87 169.32 93.21 169.14 93.3 169.09 93.38 169.04 93.55 168.94 93.89 168.7 93.97 168.64 94.06 168.58 94.22 168.44 94.56 168.16 94.65 168.08 94.73 168 94.9 167.84 95.24 167.5 95.92 166.72 96.01 166.61 96.1 166.49 96.28 166.25 96.65 165.75 96.74 165.61 96.83 165.48 97.02 165.21 97.38 164.63 97.47 164.48 97.57 164.33 97.75 164.02 98.12 163.37 98.85 161.96 98.94 161.78 99.03 161.59 99.22 161.21 99.58 160.41 100.32 158.71 101.78 154.85 101.87 154.6 101.95 154.36 102.13 153.86 102.47 152.84 103.15 150.71 104.52 146.05 104.61 145.74 104.69 145.43 104.86 144.81 105.21 143.53 105.89 140.9 107.26 135.26 107.35 134.86 107.45 134.46 107.63 133.65 108 132.01 108.74 128.64 110.23 121.54 113.19 106.11 119.02 73.09 119.11 72.61 119.19 72.12 119.36 71.14 119.7 69.2 120.38 65.33 121.74 57.69 121.82 57.22 121.91 56.75 122.08 55.81 122.42 53.95 123.1 50.27 124.46 43.13 124.55 42.66 124.64 42.19 124.83 41.26 125.19 39.41 125.93 35.81 127.4 29.02 127.5 28.61 127.59 28.21 127.77 27.41 128.14 25.85 128.88 22.84 130.35 17.36 130.44 17.06 130.52 16.77 130.69 16.19 131.04 15.06 131.73 12.94 131.81 12.69 131.9 12.44 132.07 11.95 132.41 11 133.1 9.25 133.19 9.04 133.27 8.84 133.44 8.44 133.79 7.69 133.88 7.51 133.96 7.33 134.13 6.98 134.48 6.33 134.56 6.17 134.65 6.02 134.82 5.72 135.16 5.17 135.25 5.04 135.34 4.91 135.51 4.67 135.85 4.21 135.94 4.11 136.02 4.01 136.19 3.82 136.27 3.73 136.36 3.65 136.53 3.48 136.61 3.4 136.69 3.33 136.86 3.19 136.95 3.13 137.03 3.06 137.2 2.95 137.28 2.9 137.37 2.85 137.45 2.8 137.54 2.76 137.62 2.72 137.71 2.69 137.79 2.65 137.88 2.62 137.96 2.6 138.04 2.57 138.13 2.55 138.21 2.54 138.3 2.52 138.38 2.51 138.47 2.5 138.55 2.5 138.63 2.5 138.72 2.5 138.8 2.51 138.89 2.52 138.97 2.53 139.06 2.54 139.14 2.56 139.22 2.58 139.31 2.61 139.39 2.64 139.48 2.67 139.56 2.7 139.65 2.74 139.73 2.78 139.9 2.87 139.98 2.92 140.07 2.98 140.24 3.09 140.32 3.16 140.4 3.22 140.57 3.37 140.66 3.44 140.74 3.52 140.91 3.69 141.25 4.06 141.34 4.17 141.43 4.29 141.61 4.52 141.98 5.04 142.07 5.18 142.16 5.33 142.34 5.62 142.71 6.26 142.8 6.42 142.89 6.6 143.07 6.95 143.44 7.7 144.17 9.37 144.26 9.59 144.36 9.82 144.54 10.28 144.9 11.25 145.64 13.35 145.73 13.62 145.82 13.9 146 14.47 146.37 15.65 147.1 18.14 147.18 18.45 147.27 18.75 147.44 19.37 147.78 20.64 148.46 23.3 149.83 29.05 149.91 29.43 150 29.81 150.17 30.57 150.51 32.13 151.19 35.33 152.56 42.07 152.65 42.54 152.75 43.01 152.93 43.96 153.3 45.88 154.04 49.8 155.52 57.87 158.48 74.67 164.29 107.51 164.37 107.97 164.46 108.42 164.63 109.33 164.97 111.13 165.64 114.68 167 121.55 167.08 121.96 167.17 122.38 167.34 123.21 167.68 124.84 168.35 128.05 169.71 134.15 169.8 134.55 169.89 134.95 170.08 135.73 170.44 137.28 171.18 140.28 172.65 145.85 172.74 146.18 172.83 146.51 173.01 147.16 173.38 148.43 174.12 150.85 175.59 155.26 175.67 155.5 175.76 155.73 175.93 156.2 176.27 157.11 176.96 158.83 177.04 159.03 177.13 159.24 177.3 159.64 177.64 160.41 178.33 161.87 178.41 162.04 178.5 162.22 178.67 162.55 179.01 163.2 179.7 164.4 179.79 164.54 179.87 164.68 180.04 164.95 180.39 165.47 181.07 166.42 181.16 166.53 181.24 166.64 181.41 166.84 181.75 167.23 181.83 167.33 181.91 167.42 182.08 167.6 182.42 167.93 182.5 168.01 182.59 168.09 182.75 168.24 183.09 168.51 183.17 168.58 183.26 168.64 183.43 168.77 183.76 168.99 183.85 169.04 183.93 169.09 184.1 169.19 184.18 169.23 184.27 169.28 184.44 169.36 184.52 169.4 184.6 169.44 184.77 169.5 184.85 169.54 184.94 169.57 185.11 169.63 185.19 169.65 185.28 169.68 185.36 169.7 185.44 169.72 185.53 169.74 185.61 169.76 185.69 169.78 185.78 169.79 185.86 169.81 185.95 169.82 186.03 169.83 186.12 169.84 186.2 169.85 186.28 169.85 186.37 169.86 186.45 169.86 186.54 169.87 186.63 169.87 186.72 169.87 186.82 169.86 186.91 169.86 187 169.85 187.09 169.85 187.18 169.84 187.27 169.83 187.36 169.81 187.46 169.8 187.55 169.78 187.64 169.77 187.73 169.75 187.91 169.71 188 169.68 188.09 169.66 188.28 169.6 188.37 169.57 188.46 169.54 188.64 169.48 188.73 169.44 188.82 169.4 189 169.33 189.37 169.15 189.46 169.11 189.55 169.06 189.73 168.96 190.1 168.74 190.19 168.69 190.28 168.63 190.46 168.51 190.83 168.25 190.92 168.18 191.01 168.12 191.19 167.97 191.56 167.68 192.29 167.04 192.37 166.96 192.46 166.88 192.63 166.71 192.97 166.38 193.65 165.66 195.01 164.09 195.1 163.98 195.18 163.88 195.35 163.67 195.69 163.24 196.37 162.35 197.73 160.47 197.82 160.34 197.92 160.21 198.1 159.95 198.47 159.41 199.21 158.33 200.68 156.09 203.64 151.5 209.15 143.11 209.23 142.99 209.32 142.87 209.49 142.62 209.82 142.14 210.5 141.19 211.85 139.34 211.93 139.22 212.02 139.11 212.19 138.89 212.53 138.44 213.2 137.57 214.55 135.89 214.64 135.78 214.74 135.67 214.92 135.45 215.28 135.02 216.02 134.18 217.48 132.57 217.57 132.47 217.67 132.38 217.85 132.19 218.22 131.81 218.95 131.08 220.41 129.7 220.5 129.62 220.59 129.54 220.75 129.39 221.1 129.09 221.78 128.51 223.15 127.41 223.23 127.35 223.32 127.28 223.49 127.15 223.83 126.9 224.52 126.41 225.88 125.49 225.98 125.43 226.07 125.37 226.25 125.26 226.63 125.03 227.37 124.59 228.85 123.78 228.94 123.73 229.03 123.69 229.22 123.59 229.59 123.41 230.33 123.06 231.81 122.41 231.9 122.38 232 122.34 232.18 122.27 232.54 122.12 233.27 121.85 233.36 121.82 233.45 121.78 233.63 121.72 234 121.59 234.72 121.35 234.81 121.33 234.91 121.3 235.09 121.24 235.45 121.13 236.18 120.92 237.63 120.53 237.72 120.51 237.8 120.49 237.97 120.45 238.31 120.37 238.99 120.22 239.08 120.2 239.16 120.18 239.33 120.14 239.67 120.08 240.35 119.94 240.43 119.92 240.52 119.91 240.69 119.88 241.03 119.82 241.71 119.7 243.06 119.49 243.16 119.47 243.25 119.46 243.43 119.43 243.8 119.38 244.53 119.29 244.63 119.28 244.72 119.27 244.9 119.24 245.27 119.2 246.01 119.12 246.1 119.11 246.19 119.1 246.37 119.08 246.74 119.04 247.48 118.97 248.95 118.85 249.04 118.84 249.12 118.83 249.29 118.82 249.64 118.8 250.32 118.75 250.41 118.74 250.5 118.74 250.67 118.73 251.01 118.71 251.7 118.67 251.78 118.66 251.87 118.66 252.04 118.65 252.38 118.63 253.07 118.59 254.45 118.53 254.53 118.53 254.61 118.53 254.78 118.52 255.12 118.51 255.79 118.48 255.88 118.48 255.96 118.48 256.13 118.47 256.47 118.46 257.14 118.44 257.22 118.44 257.31 118.43 257.48 118.43 257.81 118.42 258.49 118.4 258.57 118.4 258.66 118.4 258.82 118.39 259.16 118.39 259.83 118.37 259.93 118.37 260.02 118.37 260.2 118.36 260.56 118.36 261.3 118.34 261.39 118.34 261.48 118.34 261.66 118.34 262.03 118.33 262.76 118.32 262.85 118.32 262.94 118.32 263.12 118.32 263.49 118.31 264.22 118.3 264.31 118.3 264.4 118.3 264.58 118.3 264.95 118.3 265.68 118.29 265.77 118.29 265.85 118.29 266.02 118.28 266.36 118.28 267.04 118.28 267.13 118.28 267.21 118.27 267.38 118.27 267.73 118.27 268.41 118.27 268.49 118.27 268.58 118.27 268.75 118.26 269.09 118.26 269.77 118.26 269.86 118.26 269.94 118.26 270.11 118.26 270.45 118.25 271.14 118.25 271.23 118.25 271.33 118.25 271.52 118.25 271.9 118.25 272.66 118.25 272.75 118.25 272.85 118.25 273.04 118.24 273.42 118.24 274.18 118.24 274.28 118.24 274.37 118.24 274.56 118.24 274.94 118.24 275.7 118.24 275.8 118.24 275.89 118.24 276.08 118.24 276.46 118.23 276.56 118.23 276.65 118.23 276.84 118.23 276.94 118.23 277.04 118.23 277.13 118.23 277.23 118.23"/></g></g></g></svg>