<svg xmlns="http://www.w3.org/2000/svg" viewBox="0 0 277.6 176.29"><defs><style>.cls-1{fill:none;stroke:#000;stroke-width:5px;}</style></defs><g id="Layer_2" data-name="Layer 2"><g id="wavelets"><g id="meyer"><polyline class="cls-1" points="0.22 98.03 0.3 98.04 0.39 98.05 0.56 98.06 0.9 98.09 1.58 98.15 1.66 98.16 1.75 98.17 1.92 98.19 2 98.19 2.09 98.2 2.26 98.22 2.34 98.22 2.43 98.23 2.51 98.24 2.6 98.25 2.94 98.3 3.02 98.31 3.11 98.32 3.28 98.34 3.62 98.38 4.3 98.46 5.66 98.65 5.75 98.67 5.84 98.68 6.02 98.71 6.39 98.76 7.13 98.88 8.6 99.13 11.55 99.66 11.64 99.67 11.72 99.69 11.89 99.72 12.24 99.78 12.93 99.9 14.3 100.13 14.39 100.14 14.47 100.16 14.65 100.19 14.99 100.24 15.68 100.35 15.76 100.36 15.85 100.37 16.02 100.39 16.37 100.44 17.05 100.53 17.14 100.55 17.22 100.56 17.31 100.57 17.39 100.58 17.48 100.59 17.56 100.6 17.64 100.61 17.73 100.62 17.81 100.63 17.9 100.64 18.07 100.65 18.4 100.68 18.49 100.69 18.57 100.7 18.74 100.72 19.08 100.75 19.16 100.76 19.25 100.77 19.41 100.78 19.5 100.79 19.58 100.8 19.67 100.81 19.75 100.81 19.84 100.82 19.92 100.82 20.09 100.83 20.43 100.85 20.51 100.85 20.59 100.86 20.76 100.86 21.1 100.88 21.18 100.89 21.27 100.89 21.44 100.9 21.52 100.9 21.61 100.91 21.69 100.91 21.77 100.92 21.86 100.92 21.94 100.92 22.03 100.92 22.11 100.92 22.2 100.92 22.28 100.92 22.45 100.92 22.54 100.92 22.63 100.92 22.81 100.92 23.18 100.92 23.27 100.92 23.36 100.92 23.55 100.92 23.64 100.92 23.73 100.92 23.82 100.92 23.91 100.92 24 100.92 24.09 100.91 24.19 100.91 24.28 100.9 24.37 100.89 24.46 100.89 24.64 100.88 25.38 100.84 25.47 100.83 25.56 100.83 25.74 100.81 25.83 100.81 25.92 100.8 26.02 100.8 26.11 100.79 26.2 100.79 26.29 100.78 26.38 100.77 26.47 100.75 26.84 100.71 26.93 100.7 27.02 100.69 27.2 100.67 27.57 100.63 27.66 100.61 27.75 100.6 27.94 100.58 28.03 100.57 28.12 100.56 28.21 100.55 28.3 100.54 28.39 100.53 28.47 100.51 28.64 100.48 28.98 100.42 29.67 100.3 29.75 100.28 29.84 100.27 30.01 100.23 30.09 100.22 30.18 100.2 30.35 100.17 30.43 100.16 30.52 100.14 30.61 100.12 30.69 100.1 31.03 100.02 31.12 100 31.2 99.98 31.37 99.94 31.71 99.86 32.4 99.69 33.76 99.3 33.86 99.27 33.95 99.25 34.13 99.19 34.5 99.08 35.24 98.84 36.72 98.34 36.81 98.31 36.91 98.28 37.09 98.21 37.46 98.08 38.2 97.81 39.68 97.28 39.77 97.24 39.87 97.21 40.05 97.15 40.41 97.02 41.14 96.76 41.23 96.72 41.32 96.69 41.5 96.64 41.86 96.52 42.59 96.29 42.68 96.26 42.77 96.23 42.95 96.18 43.04 96.15 43.13 96.12 43.31 96.06 43.41 96.03 43.5 96.01 43.59 95.98 43.68 95.96 44.04 95.87 44.13 95.85 44.22 95.83 44.41 95.79 44.77 95.7 44.86 95.68 44.95 95.65 45.13 95.61 45.22 95.59 45.31 95.57 45.49 95.52 45.58 95.5 45.66 95.48 45.75 95.47 45.83 95.46 45.92 95.44 46 95.43 46.17 95.41 46.26 95.4 46.34 95.38 46.51 95.36 46.85 95.31 46.93 95.3 47.02 95.28 47.19 95.26 47.27 95.25 47.36 95.24 47.53 95.21 47.61 95.2 47.7 95.19 47.78 95.17 47.87 95.17 47.95 95.16 48.03 95.16 48.2 95.15 48.29 95.15 48.37 95.14 48.54 95.14 48.88 95.13 48.97 95.12 49.05 95.12 49.22 95.11 49.56 95.1 49.65 95.09 49.73 95.09 49.81 95.09 49.9 95.08 49.98 95.08 50.07 95.08 50.15 95.09 50.24 95.09 50.32 95.1 50.41 95.1 50.58 95.11 50.91 95.13 51.01 95.13 51.1 95.14 51.28 95.15 51.38 95.15 51.47 95.16 51.65 95.17 51.74 95.17 51.83 95.17 51.93 95.18 52.02 95.18 52.11 95.19 52.2 95.2 52.29 95.21 52.38 95.22 52.48 95.23 52.57 95.24 52.75 95.26 53.12 95.31 53.85 95.4 53.95 95.41 54.04 95.42 54.13 95.43 54.22 95.44 54.31 95.45 54.41 95.47 54.59 95.5 55.32 95.61 56.79 95.85 56.88 95.87 56.97 95.88 57.14 95.91 57.48 95.97 58.17 96.09 59.54 96.35 59.62 96.37 59.71 96.38 59.88 96.42 60.22 96.48 60.91 96.61 62.28 96.93 62.37 96.95 62.45 96.97 62.62 97.01 62.7 97.03 62.79 97.05 62.87 97.06 62.95 97.08 63.04 97.11 63.12 97.14 63.29 97.19 63.63 97.3 63.71 97.32 63.79 97.35 63.96 97.4 64.3 97.51 64.38 97.54 64.47 97.56 64.64 97.62 64.72 97.64 64.8 97.67 64.97 97.72 65.06 97.75 65.14 97.78 65.22 97.82 65.31 97.86 65.64 98.01 66.32 98.33 66.4 98.37 66.48 98.41 66.65 98.48 66.74 98.52 66.82 98.56 66.99 98.64 67.07 98.68 67.16 98.72 67.24 98.76 67.33 98.8 67.41 98.86 67.49 98.92 67.66 99.03 67.75 99.09 67.84 99.15 68.03 99.27 68.39 99.51 68.48 99.57 68.57 99.63 68.75 99.75 69.12 99.99 69.21 100.05 69.3 100.11 69.39 100.17 69.48 100.24 69.58 100.32 69.67 100.39 69.85 100.55 70.58 101.18 70.67 101.26 70.76 101.34 70.94 101.5 71.31 101.81 72.04 102.5 73.5 103.97 73.58 104.06 73.67 104.14 73.84 104.31 74.18 104.66 74.86 105.36 74.94 105.45 75.03 105.53 75.2 105.71 75.54 106.06 76.22 106.71 76.31 106.78 76.39 106.85 76.56 107 76.9 107.29 76.99 107.36 77.07 107.44 77.24 107.58 77.58 107.88 77.67 107.95 77.75 108.02 77.84 108.09 77.92 108.17 78.01 108.24 78.09 108.31 78.18 108.36 78.26 108.41 78.35 108.45 78.43 108.49 78.6 108.57 78.94 108.74 79.04 108.78 79.13 108.83 79.31 108.92 79.41 108.96 79.5 109.01 79.68 109.1 79.77 109.14 79.87 109.19 79.96 109.23 80.05 109.28 80.14 109.32 80.24 109.37 80.33 109.39 80.42 109.38 80.51 109.38 80.61 109.37 80.79 109.36 81.16 109.34 81.25 109.33 81.34 109.33 81.53 109.32 81.9 109.3 81.99 109.3 82.08 109.29 82.17 109.28 82.27 109.28 82.36 109.27 82.45 109.27 82.54 109.2 82.63 109.14 82.73 109.08 82.82 109.02 83 108.89 83.37 108.64 83.46 108.57 83.56 108.51 83.74 108.39 83.83 108.32 83.92 108.26 84.11 108.13 84.2 108.07 84.3 108.01 84.39 107.94 84.48 107.88 84.57 107.82 84.66 107.72 84.76 107.61 84.85 107.49 84.94 107.37 85.03 107.26 85.21 107.03 85.57 106.57 85.66 106.45 85.75 106.34 85.94 106.11 86.3 105.65 86.39 105.53 86.48 105.42 86.57 105.3 86.66 105.19 86.75 105.07 86.84 104.93 87.02 104.63 87.75 103.41 87.84 103.26 87.93 103.11 88.11 102.8 88.47 102.19 89.19 100.95 90.64 98.35 90.73 98.2 90.81 98.04 90.98 97.74 91.32 97.18 92 96.12 92.08 95.99 92.16 95.86 92.33 95.59 92.67 95.06 92.75 94.93 92.84 94.8 93.01 94.53 93.09 94.4 93.18 94.27 93.26 94.13 93.35 94.04 93.43 93.95 93.52 93.87 93.68 93.69 94.02 93.33 94.11 93.25 94.19 93.16 94.36 92.98 94.7 92.63 94.78 92.54 94.87 92.45 95.03 92.27 95.12 92.18 95.2 92.1 95.29 92.01 95.37 91.92 95.46 91.85 95.54 91.82 95.63 91.79 95.71 91.76 95.8 91.73 95.88 91.7 96.05 91.64 96.14 91.6 96.23 91.57 96.42 91.5 96.78 91.37 96.87 91.34 96.97 91.3 97.15 91.24 97.24 91.2 97.33 91.17 97.42 91.14 97.52 91.1 97.61 91.08 97.7 91.11 97.79 91.13 97.88 91.16 97.97 91.18 98.06 91.21 98.25 91.26 98.34 91.29 98.43 91.32 98.61 91.37 98.98 91.47 99.07 91.5 99.16 91.53 99.35 91.58 99.44 91.61 99.53 91.63 99.62 91.66 99.71 91.69 99.8 91.73 99.9 91.8 100.08 91.92 100.45 92.17 100.54 92.24 100.63 92.3 100.81 92.42 101.18 92.68 101.91 93.18 102 93.24 102.08 93.3 102.25 93.41 102.59 93.64 102.68 93.7 102.77 93.76 102.94 93.87 103.28 94.1 103.36 94.16 103.45 94.22 103.62 94.33 103.71 94.39 103.79 94.45 103.88 94.5 103.96 94.56 104.05 94.62 104.13 94.65 104.22 94.67 104.31 94.69 104.39 94.7 104.48 94.72 104.65 94.75 104.73 94.76 104.82 94.78 104.99 94.81 105.33 94.87 105.42 94.89 105.5 94.91 105.67 94.94 105.76 94.95 105.84 94.97 106.02 95 106.1 95.02 106.19 95.03 106.27 95.03 106.36 94.97 106.44 94.91 106.53 94.85 106.7 94.74 106.78 94.68 106.87 94.62 107.04 94.5 107.38 94.27 107.48 94.2 107.57 94.14 107.75 94.01 107.85 93.95 107.94 93.89 108.12 93.76 108.22 93.7 108.31 93.63 108.4 93.57 108.5 93.42 108.59 93.27 108.68 93.11 108.86 92.8 108.96 92.64 109.05 92.48 109.24 92.17 109.61 91.54 109.7 91.38 109.79 91.23 109.98 90.91 110.35 90.28 110.44 90.13 110.53 89.97 110.63 89.78 110.72 89.54 110.81 89.31 110.9 89.08 111.09 88.62 111.83 86.76 113.31 82.92 113.4 82.67 113.49 82.42 113.68 81.92 114.04 80.93 114.13 80.68 114.22 80.43 114.4 79.93 114.77 78.93 114.86 78.68 114.95 78.46 115.04 78.27 115.13 78.08 115.5 77.3 116.22 75.76 116.31 75.57 116.41 75.37 116.59 74.99 116.68 74.79 116.77 74.6 116.86 74.41 116.95 74.22 117.04 74.02 117.13 73.93 117.22 73.88 117.31 73.83 117.41 73.78 117.5 73.73 117.68 73.63 117.77 73.58 117.86 73.53 118.04 73.43 118.41 73.23 118.5 73.18 118.59 73.13 118.77 73.03 118.86 72.98 118.95 72.93 119.04 72.88 119.13 72.83 119.22 72.79 119.3 72.91 119.39 73.07 119.47 73.22 119.56 73.38 119.64 73.54 119.81 73.85 119.9 74 119.98 74.16 120.15 74.47 120.49 75.1 120.58 75.26 120.66 75.41 120.83 75.72 120.92 75.88 121 76.04 121.17 76.35 121.25 76.51 121.34 76.66 121.42 76.9 121.51 77.3 121.59 77.69 121.68 78.09 121.85 78.88 121.93 79.27 122.02 79.67 122.19 80.46 122.53 82.04 122.61 82.43 122.7 82.83 122.87 83.62 123.21 85.2 123.29 85.59 123.38 85.99 123.46 86.38 123.55 86.78 123.63 87.36 123.72 87.98 123.89 89.22 123.97 89.83 124.06 90.45 124.22 91.69 124.56 94.17 124.66 94.84 124.75 95.51 124.93 96.85 125.3 99.54 126.04 105.47 127.51 118.84 127.6 119.68 127.69 120.52 127.88 122.19 128.24 125.66 128.98 132.61 130.45 145.93 130.54 146.62 130.62 147.31 130.8 148.68 131.14 151.43 131.22 152.11 131.31 152.8 131.48 154.18 131.83 156.92 131.91 157.61 132 158.3 132.08 158.98 132.17 159.67 132.26 160.23 132.34 160.63 132.51 161.45 132.6 161.86 132.69 162.26 132.86 163.08 133.2 164.71 133.29 165.12 133.37 165.53 133.54 166.34 133.63 166.75 133.72 167.16 133.89 167.97 133.97 168.38 134.06 168.78 134.15 169.19 134.23 169.6 134.32 170.01 134.4 170.3 134.49 170.31 134.57 170.32 134.66 170.32 134.75 170.33 134.92 170.34 135.26 170.37 135.35 170.38 135.43 170.38 135.61 170.4 135.95 170.42 136.03 170.43 136.12 170.44 136.2 170.44 136.29 170.45 136.37 170.46 136.45 170.46 136.54 170.47 136.62 170.05 136.71 169.61 136.79 169.16 136.96 168.28 137.3 166.51 137.38 166.06 137.47 165.62 137.63 164.74 137.97 162.97 138.05 162.52 138.14 162.08 138.31 161.19 138.39 160.75 138.48 160.31 138.56 159.87 138.64 159.42 138.73 158.87 138.81 158.01 138.9 157.14 138.98 156.28 139.32 152.81 139.99 145.88 140.08 145.01 140.16 144.15 140.33 142.41 140.41 141.55 140.5 140.68 140.66 138.95 140.75 138.08 140.83 137.22 140.92 136.18 141 135 141.09 133.81 141.17 132.63 141.34 130.27 141.43 128.99 141.52 127.71 141.7 125.15 142.07 120.03 142.8 109.79 144.26 87.33 144.35 85.9 144.44 84.47 144.63 81.62 144.99 75.91 145.72 64.98 145.81 63.64 145.91 62.3 146.09 59.62 146.46 54.26 146.55 52.91 146.64 51.57 146.82 48.89 147.19 43.53 147.27 42.28 147.36 41.02 147.44 40.05 147.53 39.09 147.87 35.26 148.55 27.61 148.63 26.65 148.72 25.7 148.89 23.78 148.98 22.82 149.06 21.87 149.23 19.95 149.32 19 149.4 18.04 149.49 17.08 149.57 16.38 149.66 15.88 149.74 15.39 149.91 14.4 150 13.91 150.08 13.41 150.25 12.43 150.59 10.45 150.68 9.95 150.77 9.46 150.94 8.47 151.28 6.5 151.36 6 151.45 5.51 151.53 5.01 151.62 4.52 151.7 4.11 151.79 4.17 151.87 4.22 151.96 4.28 152.04 4.34 152.13 4.39 152.3 4.51 152.64 4.73 152.73 4.79 152.83 4.85 153.01 4.97 153.1 5.04 153.2 5.1 153.38 5.22 153.47 5.28 153.56 5.34 153.66 5.4 153.75 5.46 153.84 5.52 153.94 6.1 154.03 6.75 154.12 7.39 154.21 8.04 154.31 8.69 154.49 9.98 154.86 12.56 154.95 13.21 155.04 13.86 155.23 15.15 155.6 17.74 155.69 18.39 155.78 19.03 155.88 19.68 155.97 20.32 156.06 21.19 156.15 22.3 156.34 24.54 156.43 25.66 156.52 26.77 156.71 29.01 157.08 33.48 157.17 34.6 157.26 35.72 157.45 37.95 157.82 42.42 158.56 52.48 158.65 53.84 158.74 55.21 158.92 57.95 159.28 63.42 160.01 74.36 161.46 96.71 161.55 98.12 161.64 99.53 161.82 102.34 162.18 107.96 162.91 118.38 163 119.59 163.09 120.81 163.27 123.25 163.63 128.11 163.72 129.33 163.82 130.55 164 132.98 164.36 137.85 164.44 138.99 164.53 140.12 164.61 141.26 164.7 142.29 164.78 143.08 164.87 143.87 165.04 145.45 165.12 146.25 165.21 147.04 165.38 148.62 165.71 151.79 165.8 152.58 165.88 153.37 166.05 154.95 166.14 155.74 166.22 156.53 166.39 158.12 166.48 158.91 166.56 159.7 166.65 160.49 166.73 161.28 166.81 162.08 166.9 162.55 166.98 162.9 167.07 163.26 167.15 163.61 167.24 163.97 167.41 164.67 167.75 166.09 167.83 166.44 167.91 166.8 168.08 167.5 168.42 168.92 168.51 169.27 168.59 169.63 168.68 169.98 168.76 170.33 168.84 170.69 168.93 171.04 169.01 171.33 169.1 171.24 169.18 171.14 169.27 171.05 169.44 170.87 169.78 170.5 169.87 170.4 169.96 170.29 170.14 170.09 170.23 170 170.33 169.89 170.51 169.69 170.6 169.59 170.69 169.49 170.78 169.39 170.88 169.29 170.97 169.19 171.06 169.09 171.15 168.99 171.24 168.54 171.34 168.04 171.43 167.53 171.61 166.51 171.98 164.49 172.71 160.43 172.8 159.92 172.9 159.42 173.08 158.4 173.17 157.89 173.26 157.39 173.35 156.81 173.44 156.03 173.54 155.26 173.63 154.49 173.81 152.94 174.18 149.84 175.65 137.29 175.73 136.47 175.82 135.66 175.99 134.03 176.33 130.77 177.02 124.26 178.39 111.72 178.47 110.97 178.56 110.21 178.73 108.7 179.07 105.67 179.16 104.92 179.25 104.16 179.42 102.65 179.5 101.89 179.59 101.14 179.76 99.63 179.84 98.92 179.93 98.33 180.1 97.17 180.44 94.83 181.13 90.16 181.21 89.59 181.3 89.02 181.47 87.88 181.55 87.3 181.63 86.73 181.8 85.59 181.88 85.02 181.97 84.44 182.05 84.06 182.14 83.72 182.22 83.37 182.31 83.03 182.47 82.34 182.56 82 182.64 81.66 182.81 80.97 183.14 79.6 183.23 79.25 183.31 78.91 183.48 78.23 183.82 76.85 183.9 76.51 183.98 76.17 184.07 75.83 184.15 75.49 184.24 75.38 184.32 75.27 184.49 75.05 184.57 74.94 184.66 74.83 184.82 74.61 185.16 74.17 185.24 74.06 185.33 73.94 185.5 73.72 185.58 73.61 185.66 73.5 185.83 73.28 185.91 73.17 186 73.06 186.08 72.95 186.17 72.84 186.25 72.73 186.34 72.67 186.42 72.75 186.5 72.83 186.59 72.91 186.69 73 186.87 73.17 187.23 73.51 187.32 73.6 187.41 73.68 187.6 73.85 187.96 74.19 188.05 74.28 188.14 74.36 188.23 74.45 188.32 74.53 188.42 74.62 188.51 74.75 188.6 74.96 188.69 75.17 188.78 75.38 188.87 75.59 189.05 76.02 189.42 76.86 189.51 77.08 189.6 77.29 189.78 77.71 190.15 78.56 190.88 80.35 192.33 84.36 192.42 84.6 192.5 84.83 192.67 85.3 193.01 86.16 193.69 87.77 193.78 87.97 193.86 88.18 194.03 88.58 194.37 89.39 194.46 89.59 194.54 89.79 194.71 90.19 194.8 90.4 194.88 90.6 194.97 90.8 195.05 90.92 195.14 91.05 195.22 91.18 195.39 91.43 195.73 91.94 195.82 92.07 195.9 92.2 196.07 92.45 196.41 92.96 196.5 93.09 196.58 93.22 196.75 93.47 196.84 93.6 196.92 93.72 197.01 93.85 197.09 93.98 197.18 94.06 197.26 94.1 197.35 94.14 197.43 94.18 197.52 94.22 197.6 94.27 197.77 94.35 197.87 94.39 197.96 94.44 198.14 94.53 198.51 94.71 198.6 94.75 198.7 94.8 198.88 94.89 198.97 94.94 199.06 94.98 199.16 95.03 199.25 95.07 199.34 95.08 199.43 95.05 199.53 95.02 199.62 94.99 199.71 94.96 199.8 94.93 199.99 94.87 200.08 94.84 200.17 94.81 200.35 94.76 200.72 94.64 200.81 94.61 200.91 94.58 201.09 94.52 201.18 94.49 201.28 94.46 201.37 94.44 201.46 94.41 201.55 94.34 201.65 94.27 201.83 94.14 202.2 93.88 202.29 93.81 202.38 93.75 202.57 93.61 202.93 93.35 203.67 92.83 203.76 92.78 203.84 92.72 204.02 92.61 204.36 92.39 204.45 92.34 204.53 92.28 204.71 92.17 205.05 91.95 205.13 91.9 205.22 91.84 205.39 91.73 205.48 91.68 205.56 91.62 205.65 91.57 205.74 91.51 205.82 91.47 205.91 91.46 206 91.45 206.08 91.43 206.17 91.42 206.25 91.4 206.43 91.37 206.51 91.36 206.6 91.34 206.77 91.31 207.11 91.25 207.2 91.24 207.29 91.22 207.46 91.19 207.54 91.18 207.63 91.17 207.72 91.15 207.8 91.14 207.89 91.12 207.97 91.12 208.06 91.17 208.15 91.21 208.23 91.25 208.32 91.3 208.49 91.38 208.58 91.43 208.66 91.47 208.84 91.56 209.18 91.73 209.26 91.77 209.35 91.81 209.52 91.9 209.6 91.94 209.69 91.98 209.85 92.07 209.94 92.11 210.02 92.15 210.11 92.2 210.19 92.29 210.28 92.39 210.36 92.49 210.53 92.69 210.61 92.78 210.7 92.88 210.87 93.08 211.2 93.48 211.88 94.27 211.96 94.36 212.05 94.46 212.13 94.56 212.22 94.66 212.3 94.77 212.38 94.91 212.55 95.19 212.64 95.32 212.72 95.46 212.89 95.74 213.23 96.29 214.58 98.53 214.67 98.69 214.76 98.86 214.94 99.19 215.31 99.85 216.04 101.16 216.13 101.33 216.22 101.49 216.41 101.82 216.77 102.45 217.51 103.63 217.6 103.78 217.69 103.93 217.87 104.22 218.24 104.82 218.33 104.97 218.42 105.11 218.6 105.41 218.97 105.91 219.06 106.02 219.15 106.12 219.34 106.34 219.7 106.76 220.44 107.61 220.52 107.71 220.61 107.81 220.69 107.91 220.78 108.01 220.86 108.11 220.95 108.2 221.03 108.25 221.12 108.3 221.2 108.34 221.29 108.39 221.46 108.49 221.8 108.68 221.89 108.73 221.97 108.77 222.14 108.87 222.48 109.06 222.57 109.11 222.66 109.15 222.74 109.2 222.83 109.25 222.91 109.3 223 109.34 223.08 109.39 223.17 109.39 223.25 109.39 223.34 109.38 223.51 109.37 223.85 109.35 223.94 109.35 224.02 109.34 224.19 109.33 224.53 109.31 224.62 109.3 224.71 109.3 224.88 109.29 224.96 109.28 225.05 109.28 225.13 109.27 225.22 109.27 225.3 109.24 225.39 109.19 225.47 109.14 225.56 109.09 225.9 108.89 225.99 108.84 226.09 108.79 226.27 108.68 226.64 108.47 226.73 108.41 226.83 108.36 227.01 108.25 227.1 108.2 227.2 108.15 227.29 108.09 227.38 108.04 227.47 107.97 227.57 107.89 227.75 107.72 228.12 107.38 228.86 106.71 228.95 106.63 229.05 106.54 229.23 106.38 229.6 106.04 230.34 105.27 231.82 103.75 231.91 103.66 232 103.57 232.19 103.39 232.55 103.03 233.28 102.31 233.37 102.22 233.46 102.13 233.64 101.95 234 101.61 234.73 101.01 234.82 100.94 234.91 100.86 235.09 100.71 235.46 100.41 235.55 100.33 235.64 100.26 235.82 100.11 235.91 100.03 236 99.96 236.19 99.83 236.28 99.78 236.37 99.72 236.55 99.61 236.91 99.38 237.64 98.93 237.72 98.88 237.81 98.82 237.98 98.72 238.06 98.67 238.15 98.61 238.23 98.56 238.32 98.52 238.4 98.48 238.49 98.45 238.66 98.38 239 98.23 239.08 98.19 239.16 98.16 239.33 98.08 239.67 97.94 239.76 97.9 239.84 97.86 240.01 97.79 240.1 97.75 240.18 97.72 240.27 97.68 240.35 97.64 240.44 97.61 240.52 97.58 240.69 97.53 241.03 97.43 241.71 97.23 241.79 97.21 241.88 97.18 242.05 97.13 242.13 97.11 242.22 97.08 242.38 97.03 242.47 97.01 242.56 96.98 242.64 96.96 242.72 96.94 242.81 96.93 242.89 96.91 243.06 96.87 243.16 96.85 243.25 96.83 243.43 96.79 243.8 96.71 244.53 96.55 246 96.27 246.1 96.25 246.19 96.23 246.37 96.2 246.74 96.13 247.47 96 248.94 95.75 249.03 95.73 249.12 95.72 249.29 95.69 249.63 95.64 250.32 95.53 250.4 95.52 250.49 95.51 250.66 95.48 250.75 95.47 250.83 95.45 251 95.43 251.09 95.41 251.18 95.4 251.26 95.39 251.35 95.38 251.43 95.37 251.52 95.36 251.69 95.34 251.78 95.33 251.86 95.32 252.03 95.3 252.38 95.27 252.46 95.26 252.55 95.25 252.72 95.23 253.06 95.19 253.15 95.18 253.24 95.17 253.32 95.16 253.41 95.15 253.49 95.15 253.58 95.15 253.75 95.14 253.84 95.14 253.92 95.14 254.09 95.13 254.44 95.12 254.52 95.11 254.6 95.11 254.77 95.11 254.86 95.1 254.94 95.1 255.11 95.09 255.19 95.09 255.28 95.09 255.36 95.09 255.45 95.08 255.53 95.08 255.61 95.08 255.7 95.09 255.78 95.09 255.87 95.1 255.95 95.1 256.12 95.11 256.45 95.14 256.54 95.14 256.62 95.14 256.79 95.16 257.13 95.18 257.21 95.18 257.3 95.19 257.38 95.19 257.46 95.2 257.55 95.2 257.63 95.21 257.72 95.21 257.8 95.23 257.89 95.24 257.97 95.25 258.14 95.28 258.47 95.34 258.56 95.35 258.64 95.37 258.81 95.39 259.15 95.45 259.23 95.46 259.31 95.48 259.48 95.51 259.57 95.52 259.65 95.53 259.74 95.55 259.82 95.56 259.91 95.58 260 95.6 260.19 95.65 260.55 95.74 261.28 95.93 262.74 96.36 262.83 96.39 262.92 96.42 263.11 96.48 263.47 96.59 264.2 96.83 265.66 97.36 265.75 97.39 265.83 97.42 266 97.48 266.34 97.6 267.02 97.85 268.39 98.34 268.47 98.37 268.56 98.4 268.73 98.46 269.07 98.57 269.75 98.8 271.11 99.23 271.21 99.26 271.3 99.29 271.49 99.34 271.87 99.45 271.97 99.48 272.06 99.51 272.25 99.56 272.63 99.67 272.73 99.7 272.82 99.72 273.01 99.77 273.39 99.86 274.15 100.03 274.25 100.05 274.34 100.08 274.53 100.12 274.63 100.14 274.72 100.16 274.91 100.21 275.01 100.23 275.1 100.25 275.2 100.26 275.29 100.28 275.67 100.34 275.77 100.36 275.86 100.37 276.05 100.4 276.43 100.47 276.53 100.48 276.62 100.5 276.81 100.53 276.91 100.55 277 100.56 277.1 100.58 277.19 100.59"/></g></g></g></svg>