<svg xmlns="http://www.w3.org/2000/svg" xmlns:xlink="http://www.w3.org/1999/xlink" viewBox="0 0 299.73 175.13"><defs><style>.cls-1,.cls-2,.cls-3,.cls-4,.cls-5,.cls-6{fill:none;}.cls-1{stroke:#000;}.cls-1,.cls-2,.cls-3,.cls-4,.cls-5,.cls-6,.cls-7,.cls-8,.cls-9{stroke-miterlimit:10;}.cls-1,.cls-4,.cls-5,.cls-6{stroke-width:5px;}.cls-2,.cls-3,.cls-9{stroke:#eeccb4;}.cls-2,.cls-3{stroke-width:4px;}.cls-3{stroke-dasharray:12.16 12.16;}.cls-4{stroke:url(#linear-gradient);}.cls-5{stroke-dasharray:12.02 12.02;stroke:url(#linear-gradient-2);}.cls-6{stroke:url(#linear-gradient-3);}.cls-7{fill:#604cc3;stroke:#604cc3;}.cls-7,.cls-8,.cls-9{stroke-width:2px;}.cls-8{fill:#d83c65;stroke:#d83c65;}.cls-9{fill:#eeccb4;}</style><linearGradient id="linear-gradient" x1="170.99" y1="129.18" x2="216.61" y2="15.13" gradientUnits="userSpaceOnUse"><stop offset="0" stop-color="#d83c65"/><stop offset="1" stop-color="#604cc3"/></linearGradient><linearGradient id="linear-gradient-2" x1="87.02" y1="95.59" x2="132.64" y2="-18.46" xlink:href="#linear-gradient"/><linearGradient id="linear-gradient-3" x1="7.71" y1="63.87" x2="53.33" y2="-50.18" xlink:href="#linear-gradient"/></defs><g id="Layer_2" data-name="Layer 2"><g id="dtw"><g id="y_axis" data-name="y axis"><line class="cls-1" x1="10.16" y1="17.65" x2="10.16" y2="167"/><polygon points="10.16 0 0 24.87 10.16 18.97 20.32 24.87 10.16 0"/></g><g id="x_axis" data-name="x axis"><line class="cls-1" x1="278.86" y1="165.12" x2="10.16" y2="167"/><polygon points="296.16 165 271.71 155.21 277.57 165.13 271.85 175.13 296.16 165"/></g><g id="models"><line class="cls-2" x1="216.66" y1="77.5" x2="221.73" y2="74.29"/><line class="cls-3" x1="231.99" y1="67.78" x2="288.46" y2="31.97"/><line class="cls-2" x1="293.59" y1="28.71" x2="298.66" y2="25.5"/><line class="cls-4" x1="218.16" y1="18" x2="212.28" y2="19.19"/><line class="cls-5" x1="200.5" y1="21.58" x2="17.93" y2="58.61"/><line class="cls-6" x1="12.04" y1="59.81" x2="6.16" y2="61"/></g><g id="top_segments" data-name="top segments"><circle id="_2" data-name="2" class="cls-7" cx="183.99" cy="25.49" r="9.6"/><circle id="_1" data-name="1" class="cls-8" cx="36.21" cy="55.43" r="9.6"/><circle id="_3" data-name="3" class="cls-7" cx="132.02" cy="32.34" r="9.6"/><circle id="_4" data-name="4" class="cls-8" cx="85.62" cy="55.43" r="9.6"/><circle class="cls-9" cx="236.3" cy="64.87" r="9.6"/><circle class="cls-9" cx="279.77" cy="37.87" r="9.6"/></g></g></g></svg>