<svg xmlns="http://www.w3.org/2000/svg" viewBox="0 0 320.66 78.56"><defs><style>.cls-1{fill:none;stroke:#000;stroke-linecap:round;stroke-linejoin:round;stroke-width:5px;}</style></defs><g id="Layer_2" data-name="Layer 2"><g id="frequency"><g id="base"><path class="cls-1" d="M2.5,46.66l.21.37.21.36.2.36.21.36.21.36.21.36.2.36.21.36.21.35.21.36.21.35L5,51l.21.36.21.35.21.35.2.34.21.35.21.35.21.34.21.34.2.34.21.34.21.34.21.34.21.33.2.33.21.34.21.32.21.33.2.33.21.32.21.33.21.32.21.31.2.32L10,59l.21.31.21.31.2.31.21.3.21.31.21.3.21.3.2.3.21.29.21.3.21.29.2.29.21.28.21.29.21.28.21.28.2.27.21.28.21.27.21.27.21.26.2.27.21.26.21.25.21.26.2.25.21.25.21.25.21.24.21.24.2.24.21.24.21.23.21.23.2.23.21.22.21.22.21.22.21.21.2.22.21.21.21.2.21.2.2.2.21.2.21.19.21.19.21.19.2.18.21.18.21.18.21.17.2.17.21.17.21.16.21.16.21.15.2.16.21.15.21.14.21.15.21.14.2.13.21.13.21.13.21.13.2.12.21.12.21.11.21.11.21.11.2.1.21.1.21.1.21.09.2.09.21.09.21.08.21.08.21.07.2.07.21.07.21.06.21.06.2.06.21,0,.21,0,.21,0,.21,0,.2,0,.21,0,.21,0,.21,0,.21,0,.2,0h1.87l.21,0L32,76l.21,0,.2,0,.21,0,.21,0,.21,0,.21,0,.2,0,.21,0,.21-.06.21-.06.2-.06.21-.07.21-.07.21-.07.21-.08.2-.08.21-.09.21-.09.21-.09.2-.1.21-.1.21-.1.21-.11.21-.11.2-.11.21-.12.21-.12.21-.13.21-.12.2-.14.21-.13.21-.14.21-.14.2-.15.21-.15.21-.15.21-.16.21-.16.2-.16.21-.17.21-.17.21-.17.2-.18.21-.18.21-.18.21-.19.21-.19.2-.19.21-.19.21-.2.21-.21.2-.2.21-.21.21-.21.21-.22.21-.21.2-.22.21-.23.21-.23.21-.22.21-.24.2-.23.21-.24.21-.24.21-.25.2-.24.21-.25.21-.26.21-.25.21-.26.2-.26L47,65.1l.21-.27.21-.27.2-.27L47.8,64l.21-.28.21-.28.21-.28.2-.28.21-.29.21-.29.21-.29.2-.29.21-.3.21-.29.21-.3.21-.31.2-.3.21-.31.21-.31.21-.31.21-.31.2-.31.21-.32.21-.32.21-.32.2-.32.21-.33.21-.32.21-.33.21-.33.2-.33.21-.33.21-.34.21-.33.2-.34.21-.34.21-.34.21-.34.21-.35.2-.34.21-.35L55.7,52l.21-.35.2-.35.21-.35.21-.35.21-.36.21-.35.2-.36.21-.35.21-.36.21-.36.2-.36.21-.36.21-.37.21-.36.21-.36.2-.37.21-.36.21-.37.21-.36.21-.37.2-.37.21-.37.21-.36.21-.37.2-.37.21-.37.21-.37.21-.37.21-.37.2-.37.21-.38.21-.37.21-.37.2-.37.21-.37.21-.37.21-.37.21-.38.2-.37.21-.37.21-.37.21-.37.2-.37.21-.37.21-.37.21-.37.21-.37.2-.37.21-.37.21-.36.21-.37.21-.37.2-.36.21-.37.21-.36.21-.37.2-.36.21-.36.21-.36.21-.36.21-.36.2-.36.21-.36.21-.35.21-.36.2-.35.21-.36.21-.35L70,26.9l.21-.35.2-.34.21-.35.21-.35.21-.34.2-.34.21-.34.21-.34.21-.34.21-.34.2-.33.21-.33.21-.34.21-.33.2-.32.21-.33.21-.32.21-.33.21-.32.2-.32.21-.31.21-.32.21-.31L75,19l.2-.31.21-.31.21-.3.21-.3.2-.3.21-.3.21-.29.21-.3.21-.29.2-.29.21-.28.21-.29.21-.28.2-.28.21-.27.21-.28.21-.27.21-.27.2-.26.21-.27.21-.26.21-.26.2-.25.21-.25.21-.25.21-.25.21-.25.2-.24.21-.24.21-.23.21-.23.21-.23.2-.23.21-.22.21-.22.21-.22.2-.22L82.92,9l.21-.21.21-.2.21-.21.2-.19.21-.2.21-.19.21-.19.2-.19.21-.18L85,7l.21-.18.21-.17.2-.17.21-.17L86,6.16,86.25,6l.2-.16.21-.15.21-.15.21-.15.21-.14.2-.14L87.7,5l.21-.13.21-.13.2-.12.21-.12.21-.12L89,4.23l.21-.11.2-.1.21-.11.21-.1L90,3.72l.21-.1.2-.09.21-.08.21-.08L91,3.29l.2-.08.21-.07.21-.07L91.86,3,92.07,3l.2-.06.21-.05.21,0,.21,0,.2,0,.21,0,.21,0,.21,0,.21,0,.2,0,.21,0,.21,0H96l.21,0,.21,0,.21,0,.21,0,.2,0,.21,0,.21,0,.21,0,.2,0,.21,0,.21.05.21.06.21.06.2.06.21.07.21.07.21.07.2.08.21.08.21.09.21.09.21.09.2.1.21.1.21.1.21.11.2.11.21.11.21.12.21.12.21.13.2.13.21.13.21.13.21.14.2.14.21.15.21.15.21.15.21.16.2.16.21.16.21.17.21.17.21.17.2.18.21.18.21.18.21.19.2.19.21.19.21.19.21.2.21.21.2.2.21.21.21.21.21.22.2.21.21.22.21.23.21.22.21.23.2.24.21.23.21.24.21.24.2.25.21.24.21.25.21.26.21.25.2.26.21.26.21.26.21.27L112,14l.2.27.21.27.21.28.21.28.2.28.21.28.21.29.21.29.21.29.2.29.21.29.21.3.21.3.2.3.21.31.21.3.21.31.21.31.2.32.21.31.21.32.21.32.2.32.21.32.21.32.21.33.21.33.2.33.21.33.21.33.21.34.21.33.2.34.21.34.21.34.21.34.2.35.21.34.21.35.21.34.21.35.2.35.21.36.21.35.21.35.2.36.21.35.21.36.21.36.21.36.2.36.21.36.21.36.21.37.2.36.21.36.21.37.21.36.21.37.2.37.21.36.21.37.21.37.2.37.21.37.21.37.21.37.21.37.2.37.21.37.21.37.21.37.21.38.2.37.21.37.21.37L128,40l.2.37.21.37.21.38.21.37.21.37.2.37.21.37.21.37.21.37.2.37.21.36.21.37.21.37.21.37.2.36.21.37.21.36.21.37.2.36.21.37.21.36.21.36.21.36.2.36.21.36.21.35.21.36.21.36.2.35.21.35.21.35.21.35.2.35.21.35.21.35.21.34.21.35.2.34.21.34.21.34.21.34.2.33.21.34.21.33.21.33.21.33.2.33.21.33.21.32.21.32.2.32.21.32.21.32.21.31.21.32.2.31.21.31.21.3.21.31.2.3.21.3.21.3.21.29.21.3.2.29.21.29.21.28.21.29.21.28.2.28.21.27.21.28.21.27.2.27.21.26.21.27.21.26.21.25.2.26.21.25.21.25.21.25.2.24.21.25.21.23.21.24.21.23.2.23.21.23.21.22.21.22.2.22.21.22.21.21.21.21.21.2.2.21.21.2.21.19.21.19L149,71l.2.19.21.18.21.18.21.18.2.17.21.17.21.17.21.16.21.16.2.16.21.15.21.15.21.15.2.14.21.14.21.14.21.13.21.13.2.12.21.12.21.12.21.12.2.11.21.11.21.1.21.1.21.1.2.09L155,75l.21.08.21.09.2.07.21.08.21.07.21.07.21.06.2.06.21.06.21,0,.21,0,.21,0,.2,0,.21,0,.21,0,.21,0,.2,0,.21,0,.21,0h1.87l.21,0,.21,0,.2,0,.21,0,.21,0,.21,0,.2,0,.21,0,.21,0,.21,0,.21,0,.2-.06.21-.07.21-.06.21-.07.21-.08.2-.08.21-.08.21-.08L165,75l.2-.1.21-.09.21-.1.21-.11.21-.1.2-.11.21-.12.21-.12.21-.12.2-.12.21-.13.21-.13.21-.14.21-.14.2-.14.21-.14.21-.15.21-.16.2-.15.21-.16.21-.17.21-.16.21-.17.2-.17.21-.18.21-.18.21-.18.2-.19.21-.19.21-.19.21-.2.21-.2.2-.2.21-.2.21-.21.21-.21.21-.22.2-.22.21-.22.21-.22.21-.23.2-.23.21-.23.21-.23.21-.24.21-.24.2-.25.21-.25.21-.24.21-.26.2-.25.21-.26.21-.26.21-.26.21-.27.2-.27.21-.27.21-.27.21-.28.2-.28.21-.28.21-.28.21-.29.21-.29.2-.29.21-.29.21-.3.21-.29.21-.3.2-.31.21-.3.21-.31.21-.3.2-.31.21-.32.21-.31.21-.32.21-.32.2-.32.21-.32.21-.32.21-.33.2-.33.21-.33.21-.33.21-.33.21-.34.2-.33.21-.34.21-.34.21-.34.2-.34.21-.35.21-.34.21-.35L185,52l.2-.34.21-.35.21-.36.21-.35.2-.35.21-.36.21-.35.21-.36.21-.36.2-.36.21-.36.21-.36.21-.36.21-.37.2-.36.21-.36.21-.37.21-.36.2-.37.21-.37.21-.36.21-.37.21-.37.2-.37.21-.37.21-.37.21-.37.2-.37.21-.37.21-.37.21-.37.21-.37.2-.38.21-.37.21-.37.21-.37.2-.37.21-.37.21-.37.21-.38.21-.37.2-.37.21-.37.21-.37.21-.37.21-.37.2-.37.21-.36.21-.37.21-.37.2-.37.21-.36.21-.37.21-.36.21-.37.2-.36.21-.37.21-.36.21-.36.2-.36.21-.36.21-.36.21-.35.21-.36.2-.36.21-.35.21-.35.21-.35.2-.36.21-.34.21-.35.21-.35.21-.34.2-.35.21-.34.21-.34.21-.34.21-.34.2-.34.21-.33.21-.33.21-.33.2-.33.21-.33.21-.33.21-.32.21-.32.2-.33.21-.31.21-.32.21-.32.2-.31.21-.31.21-.31.21-.3.21-.31.2-.3.21-.3.21-.3.21-.29.2-.3.21-.29.21-.29.21-.28.21-.29.2-.28.21-.28.21-.27.21-.28.2-.27.21-.27.21-.26.21-.27.21-.26.2-.26.21-.25.21-.25.21-.25.21-.25.2-.25.21-.24.21-.24.21-.23.2-.24.21-.23.21-.22.21-.23.21-.22.2-.22.21-.21.21-.21.21-.21.2-.21.21-.2.21-.2.21-.19.21-.2.2-.19.21-.18.21-.19.21-.18.2-.17.21-.18.21-.17.21-.16.21-.17.2-.16.21-.15.21-.16.21-.15.21-.14.2-.15.21-.13L217,5l.21-.13.2-.13.21-.13.21-.12.21-.12.21-.11.2-.11.21-.11.21-.1.21-.1.2-.1.21-.09.21-.09.21-.09.21-.08.2-.08.21-.07.21-.08.21-.06.2-.07.21-.06.21-.05.21-.06.21,0,.2,0,.21,0,.21,0,.21,0,.2,0,.21,0,.21,0,.21,0,.21,0h1.45l.21,0,.21,0,.2,0,.21,0,.21,0,.21,0,.21,0,.2,0,.21,0,.21,0,.21.05.2.06L228,3l.21.06.21.07.21.07.2.07.21.08.21.08.21.09.2.08.21.1.21.09.21.1.21.11.2.1.21.11.21.12.21.12.21.12.2.12.21.13.21.13.21.14.2.14.21.14.21.15.21.14.21.16.2.15.21.16.21.17.21.16.2.17.21.18.21.17.21.18.21.18.2.19.21.19.21.19.21.2.2.2.21.2.21.2.21.21.21.21.2.22.21.22.21.22L238,10l.2.23.21.23.21.23.21.23.21.24.2.24.21.25.21.24.21.25.21.26.2.25.21.26.21.26.21.26.2.27.21.27.21.27.21.27.21.28.2.28.21.28.21.28.21.29.2.29.21.29.21.29.21.29.21.3.2.3.21.3.21.31.21.3.2.31.21.31.21.32.21.31.21.32.2.31.21.33.21.32.21.32.21.33.2.33.21.32.21.34.21.33.2.33.21.34.21.34.21.34.21.34.2.34.21.34.21.35.21.34.2.35.21.35.21.35.21.35.21.36.2.35.21.36L251,29l.21.36.2.36.21.36.21.36.21.36.21.36.2.36.21.37.21.36.21.37.2.36.21.37.21.36.21.37.21.37.2.37.21.37.21.37.21.37.21.37.2.37.21.37.21.37.21.37.2.37.21.37.21.37.21.38.21.37.2.37.21.37.21.37.21.37.2.37.21.37.21.37.21.37.21.37.2.37.21.37.21.37.21.37.2.37.21.36.21.37.21.37.21.36.2.37.21.36.21.36.21.36.21.37.2.36.21.36.21.35.21.36.2.36.21.35.21.36.21.35.21.35.2.35.21.35.21.35.21.35.2.34.21.35.21.34.21.34.21.34.2.34.21.33.21.34.21.33.2.33.21.33.21.33.21.33.21.32.2.32.21.32.21.32.21.32.21.31.2.32.21.31.21.31.21.3.2.31.21.3.21.3.21.3.21.29.2.3.21.29.21.29.21.28.2.29.21.28.21.28L272,64l.21.28.2.27.21.27.21.26.21.27.2.26.21.26.21.25.21.25.21.25.2.25.21.25.21.24.21.24.2.23.21.23.21.23.21.23.21.23.2.22.21.21.21.22.21.21.21.21.2.21.21.2.21.2.21.19.2.2.21.19.21.18.21.19.21.18.2.17.21.18.21.17.21.16.2.17.21.16.21.15.21.16.21.15.2.14.21.15.21.14.21.13.2.13.21.13.21.13.21.12.21.12.2.11.21.11.21.11.21.11.21.1.2.09.21.1.21.09.21.08.2.08.21.08.21.08.21.07.21.07.2.06.21.06.21.06.21,0,.2,0,.21,0,.21,0,.21,0,.21,0,.2,0,.21,0,.21,0h.21l.2,0h1.67l.2,0,.21,0,.21,0,.21,0,.21,0,.2,0,.21,0,.21,0,.21,0,.21-.06.2,0,.21-.06.21-.06.21-.07.2-.07.21-.08.21-.07.21-.09.21-.08.2-.09.21-.09.21-.1.21-.1.2-.1.21-.11.21-.11.21-.11.21-.12.2-.12.21-.13.21-.13.21-.13.2-.13.21-.14.21-.14.21-.15.21-.15.2-.15.21-.16.21-.16.21-.16.21-.17.2-.17.21-.17.21-.17.21-.18.2-.19.21-.18.21-.19.21-.19.21-.2.2-.2.21-.2.21-.21.21-.2.2-.22.21-.21.21-.22.21-.22.21-.22.2-.23.21-.23.21-.23.21-.24.2-.23.21-.25.21-.24.21-.25.21-.25.2-.25.21-.25.21-.26.21-.26.2-.26.21-.27.21-.27.21-.27.21-.27.2-.28.21-.28.21-.28.21-.28.21-.29.2-.29.21-.29.21-.29.21-.3.2-.29.21-.3.21-.3.21-.31.21-.31.2-.3.21-.31.21-.32.21-.31.2-.32.21-.32.21-.32.21-.32.21-.32.2-.33.21-.33.21-.33.21-.33.2-.33.21-.33.21-.34.21-.34.21-.34.2-.34.21-.34.21-.34.21-.35.21-.35.2-.34.21-.35.21-.35.21-.35.2-.36.21-.35.21-.36.21-.35.21-.36.2-.36.21-.36.21-.36.21-.36.2-.36.21-.36.21-.37.21-.36.21-.37.2-.36.21-.37"/></g></g></g></svg>