<svg xmlns="http://www.w3.org/2000/svg" viewBox="0 0 296.16 176.7"><defs><style>.cls-1{fill:none;stroke:#000;stroke-width:5px;}.cls-1,.cls-2,.cls-3,.cls-4,.cls-5{stroke-miterlimit:10;}.cls-2,.cls-3{stroke:#eeccb4;stroke-width:3px;}.cls-3{fill:#eeccb4;}.cls-4,.cls-5{fill:#fff;stroke-width:2px;}.cls-4{stroke:#604cc3;}.cls-5{stroke:#d83c65;}</style></defs><g id="Layer_2" data-name="Layer 2"><g id="dtw"><g id="y_axis" data-name="y axis"><line class="cls-1" x1="10.16" y1="17.65" x2="10.16" y2="167"/><polygon points="10.16 0 0 24.87 10.16 18.97 20.32 24.87 10.16 0"/></g><g id="x_axis" data-name="x axis"><line class="cls-1" x1="278.86" y1="165.12" x2="10.16" y2="167"/><polygon points="296.16 165 271.71 155.21 277.57 165.13 271.85 175.13 296.16 165"/></g><g id="straight_match_connections" data-name="straight match connections"><line class="cls-2" x1="36.66" y1="58.5" x2="36.66" y2="124"/><line class="cls-2" x1="85.16" y1="58.5" x2="85.16" y2="93"/><line class="cls-2" x1="132.16" y1="35" x2="132.16" y2="124"/><line class="cls-2" x1="184.16" y1="28" x2="184.16" y2="169.5"/><line class="cls-3" x1="236.16" y1="69" x2="236.16" y2="124"/><line class="cls-3" x1="280.16" y1="38" x2="280.16" y2="106"/></g><g id="bottom_copy_2" data-name="bottom copy 2"><circle id="_1" data-name="1" class="cls-4" cx="235.77" cy="120.48" r="9.6"/><circle id="_1-2" data-name="1" class="cls-4" cx="279.77" cy="106.48" r="9.6"/><circle id="_3" data-name="3" class="cls-4" cx="132.16" cy="120.48" r="9.6"/><circle id="_4" data-name="4" class="cls-4" cx="184.4" cy="166.1" r="9.6"/><circle class="cls-4" cx="36.52" cy="120.48" r="9.6"/><circle id="_2" data-name="2" class="cls-4" cx="85.17" cy="89.12" r="9.6"/></g><g id="top_copy_2" data-name="top copy 2"><circle id="_2-2" data-name="2" class="cls-5" cx="183.99" cy="25.49" r="9.6"/><circle id="_1-3" data-name="1" class="cls-5" cx="36.21" cy="55.43" r="9.6"/><circle id="_3-2" data-name="3" class="cls-5" cx="132.02" cy="32.34" r="9.6"/><circle id="_4-2" data-name="4" class="cls-5" cx="85.62" cy="55.43" r="9.6"/><circle class="cls-5" cx="236.3" cy="64.87" r="9.6"/><circle class="cls-5" cx="279.77" cy="37.87" r="9.6"/></g></g></g></svg>