<svg xmlns="http://www.w3.org/2000/svg" viewBox="0 0 295.19 568.34"><defs><style>.cls-1{fill:none;stroke:#000;stroke-width:5px;}</style></defs><g id="Layer_2" data-name="Layer 2"><g id="wavelets"><g id="morlet"><polyline class="cls-1" points="12.32 488.23 12.41 488.23 12.49 488.23 12.66 488.23 13.01 488.23 13.1 488.23 13.18 488.23 13.35 488.23 13.7 488.23 13.78 488.23 13.87 488.23 14.04 488.23 14.38 488.23 15.07 488.23 15.16 488.23 15.24 488.23 15.42 488.23 15.76 488.23 16.45 488.23 16.54 488.23 16.62 488.23 16.79 488.23 17.14 488.23 17.83 488.23 17.92 488.23 18.01 488.23 18.2 488.23 18.57 488.23 19.32 488.23 19.41 488.23 19.5 488.23 19.69 488.23 20.06 488.23 20.81 488.23 20.9 488.23 21 488.23 21.18 488.23 21.56 488.23 21.65 488.23 21.74 488.23 21.93 488.23 22.3 488.23 22.39 488.23 22.49 488.23 22.68 488.23 22.77 488.23 22.86 488.23 23.05 488.23 23.14 488.23 23.23 488.23 23.33 488.23 23.42 488.23 23.51 488.23 23.61 488.23 23.7 488.23 23.79 488.23 23.88 488.23 23.97 488.23 24.05 488.23 24.14 488.23 24.23 488.23 24.32 488.23 24.4 488.23 24.49 488.23 24.58 488.23 24.66 488.23 24.75 488.23 24.84 488.23 24.93 488.23 25.01 488.23 25.1 488.23 25.19 488.23 25.27 488.23 25.36 488.23 25.45 488.23 25.54 488.23 25.62 488.23 25.71 488.23 25.88 488.23 25.97 488.23 26.06 488.23 26.23 488.23 26.32 488.23 26.41 488.23 26.58 488.23 26.67 488.23 26.75 488.23 26.93 488.23 27.02 488.23 27.1 488.23 27.28 488.23 27.36 488.23 27.45 488.23 27.63 488.23 27.97 488.23 28.06 488.23 28.15 488.23 28.32 488.23 28.67 488.23 28.76 488.23 28.84 488.23 29.02 488.23 29.37 488.23 29.45 488.23 29.54 488.23 29.71 488.23 30.05 488.23 30.14 488.23 30.22 488.23 30.39 488.23 30.73 488.24 30.82 488.24 30.9 488.24 31.07 488.24 31.42 488.24 32.1 488.24 32.18 488.24 32.27 488.24 32.44 488.24 32.78 488.24 33.46 488.24 34.83 488.24 34.92 488.25 35.02 488.25 35.2 488.25 35.57 488.25 36.31 488.25 36.4 488.25 36.5 488.25 36.68 488.25 37.05 488.25 37.79 488.25 37.89 488.25 37.98 488.25 38.16 488.25 38.26 488.25 38.35 488.25 38.53 488.25 38.63 488.25 38.72 488.25 38.9 488.25 39 488.25 39.09 488.25 39.27 488.26 39.37 488.26 39.46 488.26 39.55 488.26 39.65 488.26 39.74 488.26 39.83 488.26 39.92 488.26 40.02 488.26 40.11 488.26 40.2 488.26 40.29 488.26 40.39 488.26 40.48 488.26 40.57 488.26 40.66 488.26 40.76 488.26 40.84 488.26 40.93 488.26 41.02 488.26 41.1 488.26 41.19 488.26 41.27 488.26 41.36 488.26 41.45 488.25 41.53 488.25 41.62 488.25 41.71 488.25 41.79 488.25 41.88 488.25 41.97 488.25 42.14 488.25 42.23 488.25 42.31 488.25 42.48 488.25 42.57 488.25 42.66 488.25 42.83 488.25 42.92 488.25 43 488.25 43.18 488.25 43.52 488.25 43.61 488.25 43.7 488.25 43.87 488.25 44.21 488.24 44.3 488.24 44.39 488.24 44.56 488.24 44.91 488.24 44.99 488.24 45.08 488.23 45.25 488.23 45.6 488.23 46.29 488.22 46.38 488.22 46.48 488.21 46.66 488.21 47.04 488.21 47.79 488.19 47.88 488.19 47.97 488.19 48.16 488.18 48.53 488.18 49.28 488.16 49.38 488.16 49.47 488.15 49.66 488.15 50.03 488.14 50.78 488.12 52.28 488.08 52.37 488.08 52.47 488.08 52.65 488.07 53.02 488.06 53.11 488.06 53.2 488.06 53.38 488.06 53.75 488.05 53.84 488.05 53.94 488.04 54.12 488.04 54.21 488.04 54.3 488.04 54.49 488.03 54.58 488.03 54.67 488.03 54.86 488.03 54.95 488.02 55.04 488.02 55.22 488.02 55.32 488.02 55.41 488.02 55.5 488.02 55.59 488.02 55.68 488.02 55.77 488.02 55.87 488.01 55.96 488.01 56.05 488.01 56.14 488.01 56.23 488.01 56.33 488.01 56.42 488.01 56.51 488.01 56.6 488.01 56.7 488.01 56.79 488.01 56.88 488.01 56.97 488.01 57.06 488.01 57.16 488.02 57.25 488.02 57.34 488.02 57.43 488.02 57.52 488.02 57.62 488.02 57.71 488.02 57.8 488.02 57.89 488.02 57.98 488.03 58.17 488.03 58.25 488.03 58.34 488.04 58.51 488.04 58.59 488.04 58.68 488.05 58.85 488.05 58.94 488.05 59.02 488.06 59.2 488.06 59.54 488.08 59.62 488.08 59.71 488.09 59.88 488.1 60.23 488.12 60.31 488.12 60.4 488.13 60.57 488.14 60.91 488.16 61 488.17 61.08 488.18 61.25 488.19 61.6 488.22 61.68 488.23 61.77 488.24 61.94 488.25 62.28 488.29 62.37 488.29 62.45 488.3 62.63 488.32 62.97 488.36 63.66 488.45 63.75 488.46 63.84 488.47 64.03 488.5 64.4 488.55 65.14 488.66 66.63 488.91 66.72 488.92 66.82 488.94 67 488.97 67.38 489.03 68.12 489.16 68.21 489.17 68.31 489.19 68.49 489.22 68.86 489.28 69.61 489.38 69.69 489.4 69.78 489.41 69.95 489.43 70.3 489.47 70.39 489.48 70.48 489.49 70.65 489.51 70.74 489.52 70.82 489.53 71 489.55 71.08 489.55 71.17 489.56 71.26 489.57 71.34 489.57 71.43 489.58 71.52 489.58 71.61 489.59 71.69 489.6 71.78 489.6 71.86 489.6 71.95 489.61 72.04 489.61 72.13 489.61 72.21 489.62 72.3 489.62 72.39 489.62 72.47 489.62 72.56 489.62 72.65 489.62 72.73 489.62 72.82 489.62 72.91 489.62 72.99 489.61 73.08 489.61 73.17 489.61 73.25 489.6 73.34 489.6 73.43 489.59 73.52 489.59 73.6 489.58 73.69 489.58 73.78 489.57 73.86 489.56 73.95 489.55 74.04 489.54 74.12 489.53 74.21 489.52 74.3 489.51 74.47 489.49 74.56 489.47 74.64 489.46 74.82 489.43 74.9 489.41 74.99 489.4 75.16 489.36 75.25 489.34 75.33 489.32 75.5 489.28 75.59 489.26 75.67 489.24 75.85 489.19 75.93 489.17 76.02 489.15 76.19 489.1 76.53 488.98 76.61 488.95 76.7 488.92 76.87 488.86 77.21 488.72 77.89 488.42 77.97 488.37 78.06 488.33 78.23 488.25 78.57 488.06 79.25 487.66 79.33 487.61 79.42 487.56 79.59 487.45 79.93 487.22 80.61 486.75 80.7 486.68 80.8 486.61 80.98 486.48 81.35 486.2 82.09 485.63 83.57 484.46 83.66 484.39 83.75 484.31 83.94 484.17 84.31 483.89 84.4 483.82 84.49 483.76 84.68 483.62 85.05 483.36 85.14 483.3 85.23 483.24 85.41 483.12 85.78 482.89 85.88 482.84 85.97 482.78 86.15 482.68 86.52 482.49 86.61 482.45 86.69 482.41 86.87 482.34 86.95 482.3 87.04 482.27 87.21 482.21 87.3 482.18 87.38 482.15 87.47 482.12 87.56 482.1 87.64 482.08 87.73 482.06 87.81 482.04 87.9 482.02 87.99 482 88.07 481.99 88.16 481.98 88.25 481.97 88.33 481.96 88.42 481.96 88.5 481.95 88.59 481.95 88.68 481.95 88.76 481.95 88.85 481.96 88.94 481.96 89.02 481.97 89.11 481.98 89.19 481.99 89.28 482.01 89.37 482.03 89.45 482.05 89.54 482.07 89.63 482.09 89.71 482.12 89.8 482.15 89.97 482.21 90.06 482.25 90.14 482.29 90.31 482.37 90.4 482.42 90.49 482.47 90.66 482.57 90.75 482.63 90.83 482.69 91 482.82 91.09 482.88 91.18 482.95 91.35 483.1 91.43 483.18 91.52 483.26 91.69 483.43 92.04 483.8 92.13 483.9 92.22 484.01 92.41 484.25 92.78 484.75 92.88 484.88 92.97 485.02 93.16 485.3 93.53 485.9 93.63 486.06 93.72 486.22 93.91 486.56 94.28 487.26 95.03 488.79 95.12 488.99 95.21 489.2 95.4 489.62 95.77 490.49 96.52 492.32 98.02 496.26 98.11 496.51 98.2 496.76 98.38 497.26 98.75 498.25 99.48 500.2 99.58 500.44 99.67 500.68 99.85 501.16 100.22 502.08 100.95 503.82 101.04 504.03 101.13 504.23 101.32 504.62 101.68 505.37 101.78 505.55 101.87 505.72 102.05 506.06 102.42 506.67 102.51 506.81 102.6 506.95 102.78 507.21 102.88 507.33 102.97 507.45 103.15 507.67 103.24 507.77 103.33 507.87 103.43 507.95 103.52 508.04 103.61 508.12 103.7 508.19 103.79 508.25 103.89 508.31 103.97 508.36 104.06 508.4 104.14 508.44 104.23 508.47 104.31 508.5 104.4 508.52 104.48 508.54 104.57 508.54 104.65 508.55 104.74 508.54 104.83 508.53 104.91 508.52 105 508.5 105.08 508.47 105.17 508.43 105.25 508.39 105.34 508.34 105.42 508.29 105.51 508.23 105.59 508.16 105.68 508.08 105.77 508 105.94 507.82 106.02 507.72 106.11 507.61 106.28 507.37 106.36 507.24 106.45 507.11 106.62 506.81 106.71 506.65 106.79 506.49 106.96 506.14 107.05 505.95 107.13 505.76 107.31 505.35 107.39 505.13 107.48 504.91 107.65 504.44 107.99 503.43 108.08 503.15 108.16 502.87 108.33 502.29 108.67 501.05 109.36 498.23 109.45 497.82 109.54 497.39 109.73 496.53 110.1 494.7 110.84 490.74 110.93 490.21 111.03 489.68 111.21 488.6 111.58 486.38 112.33 481.72 112.42 481.12 112.51 480.52 112.7 479.3 113.07 476.84 113.81 471.85 115.29 461.96 115.38 461.4 115.47 460.85 115.64 459.75 115.99 457.61 116.07 457.08 116.16 456.56 116.33 455.54 116.68 453.57 116.77 453.09 116.85 452.62 117.03 451.69 117.37 449.94 117.46 449.52 117.55 449.11 117.72 448.31 118.06 446.83 118.15 446.48 118.24 446.14 118.41 445.5 118.5 445.19 118.58 444.89 118.76 444.33 118.84 444.06 118.93 443.81 119.1 443.34 119.19 443.12 119.28 442.91 119.45 442.53 119.54 442.36 119.62 442.2 119.71 442.05 119.8 441.91 119.88 441.79 119.97 441.68 120.06 441.59 120.14 441.5 120.23 441.43 120.31 441.38 120.4 441.33 120.49 441.3 120.58 441.29 120.66 441.28 120.75 441.29 120.83 441.32 120.93 441.36 121.02 441.42 121.12 441.5 121.21 441.59 121.3 441.7 121.4 441.83 121.49 441.97 121.58 442.13 121.68 442.31 121.77 442.5 121.87 442.71 121.96 442.94 122.05 443.19 122.15 443.45 122.34 444.03 122.43 444.35 122.52 444.68 122.71 445.4 122.81 445.78 122.9 446.18 123.09 447.04 123.18 447.49 123.27 447.97 123.46 448.96 123.84 451.15 123.93 451.74 124.02 452.35 124.21 453.61 124.59 456.32 124.68 457.04 124.78 457.78 124.96 459.29 125.34 462.49 125.43 463.33 125.53 464.18 125.71 465.92 126.09 469.57 126.84 477.42 126.93 478.43 127.02 479.45 127.21 481.52 127.58 485.75 128.31 494.54 129.79 512.73 129.88 513.87 129.97 515 130.15 517.27 130.52 521.75 131.26 530.43 131.35 531.49 131.44 532.53 131.63 534.59 132 538.58 132.73 545.99 132.82 546.8 132.91 547.59 133.08 549.14 133.42 552.06 133.51 552.76 133.59 553.44 133.76 554.75 134.11 557.18 134.19 557.74 134.28 558.29 134.45 559.33 134.54 559.83 134.62 560.3 134.79 561.2 134.88 561.62 134.97 562.02 135.14 562.77 135.22 563.11 135.31 563.43 135.48 564.02 135.57 564.28 135.66 564.53 135.74 564.75 135.83 564.95 135.91 565.13 136 565.29 136.08 565.43 136.17 565.55 136.26 565.65 136.34 565.73 136.43 565.78 136.51 565.81 136.6 565.82 136.69 565.81 136.77 565.78 136.86 565.73 136.94 565.65 137.03 565.55 137.12 565.43 137.2 565.29 137.29 565.13 137.37 564.94 137.46 564.73 137.54 564.5 137.63 564.25 137.72 563.97 137.8 563.68 137.89 563.36 137.97 563.02 138.06 562.65 138.23 561.86 138.32 561.4 138.42 560.9 138.6 559.85 138.7 559.28 138.79 558.69 138.98 557.43 139.07 556.76 139.16 556.07 139.35 554.61 139.72 551.41 139.82 550.55 139.91 549.66 140.1 547.83 140.47 543.9 141.21 535.04 141.31 533.85 141.4 532.64 141.59 530.16 141.96 525 142.7 513.99 144.19 489.96 144.28 488.51 144.37 487.05 144.54 484.14 144.89 478.29 145.59 466.65 145.67 465.2 145.76 463.77 145.93 460.9 146.28 455.25 146.98 444.33 147.06 443.01 147.15 441.7 147.33 439.12 147.67 434.11 147.76 432.89 147.85 431.68 148.02 429.32 148.37 424.77 148.46 423.68 148.54 422.61 148.72 420.5 149.06 416.53 149.15 415.58 149.24 414.66 149.41 412.87 149.76 409.54 149.85 408.77 149.93 408.03 150.1 406.61 150.19 405.93 150.27 405.28 150.44 404.03 150.53 403.44 150.61 402.88 150.78 401.82 150.87 401.32 150.96 400.85 151.13 399.98 151.21 399.58 151.3 399.2 151.38 398.85 151.47 398.52 151.55 398.22 151.64 397.94 151.72 397.68 151.81 397.45 151.89 397.25 151.98 397.07 152.06 396.91 152.15 396.78 152.23 396.68 152.32 396.59 152.41 396.54 152.49 396.51 152.57 396.5 152.66 396.52 152.75 396.56 152.83 396.63 152.92 396.73 153 396.84 153.09 396.99 153.17 397.16 153.26 397.35 153.34 397.57 153.43 397.81 153.51 398.08 153.6 398.37 153.68 398.69 153.85 399.39 153.94 399.78 154.03 400.19 154.19 401.09 154.28 401.57 154.37 402.08 154.54 403.16 154.62 403.74 154.71 404.34 154.88 405.61 155.22 408.4 155.31 409.22 155.4 410.06 155.59 411.82 155.96 415.63 156.05 416.63 156.14 417.66 156.33 419.79 156.7 424.28 156.79 425.46 156.88 426.65 157.07 429.09 157.44 434.18 158.18 445.09 158.27 446.51 158.36 447.95 158.55 450.85 158.92 456.76 159.66 468.94 161.14 493.72 161.22 495.15 161.31 496.57 161.48 499.4 161.83 504.99 162.52 515.78 162.61 517.08 162.69 518.37 162.87 520.93 163.21 525.89 163.9 535.14 163.99 536.23 164.07 537.3 164.25 539.4 164.59 543.38 164.68 544.33 164.76 545.26 164.94 547.08 165.28 550.47 165.37 551.27 165.46 552.05 165.63 553.54 165.71 554.26 165.8 554.96 165.97 556.29 166.06 556.93 166.15 557.54 166.32 558.7 166.41 559.25 166.49 559.78 166.66 560.77 166.76 561.27 166.85 561.75 166.94 562.19 167.04 562.62 167.13 563.01 167.22 563.38 167.41 564.04 167.51 564.34 167.6 564.6 167.69 564.84 167.79 565.05 167.88 565.24 167.97 565.4 168.07 565.54 168.16 565.65 168.25 565.73 168.35 565.79 168.44 565.82 168.53 565.82 168.63 565.8 168.72 565.75 168.81 565.68 168.91 565.59 169 565.46 169.1 565.32 169.19 565.14 169.28 564.95 169.38 564.73 169.47 564.48 169.56 564.21 169.66 563.91 169.75 563.6 169.84 563.25 170.03 562.5 170.13 562.09 170.22 561.65 170.41 560.72 170.5 560.21 170.59 559.69 170.78 558.58 171.16 556.11 171.25 555.44 171.34 554.75 171.53 553.32 171.9 550.25 172.65 543.3 172.74 542.38 172.84 541.45 173.02 539.55 173.39 535.61 174.12 527.26 175.59 509.38 175.68 508.25 175.78 507.11 175.96 504.82 176.32 500.28 177.06 491.32 178.53 474.6 178.62 473.69 178.7 472.8 178.87 471.04 179.22 467.63 179.3 466.8 179.39 465.99 179.56 464.39 179.9 461.34 179.99 460.61 180.07 459.89 180.24 458.48 180.59 455.82 180.67 455.19 180.76 454.57 180.93 453.37 181.27 451.14 181.36 450.62 181.44 450.11 181.61 449.13 181.7 448.66 181.79 448.21 181.96 447.35 182.04 446.94 182.13 446.54 182.3 445.79 182.38 445.44 182.47 445.1 182.64 444.47 182.73 444.17 182.81 443.89 182.9 443.63 182.99 443.38 183.07 443.14 183.16 442.92 183.33 442.51 183.41 442.33 183.5 442.17 183.59 442.02 183.67 441.88 183.76 441.76 183.84 441.65 183.93 441.56 184.01 441.48 184.11 441.41 184.2 441.35 184.29 441.31 184.38 441.29 184.48 441.28 184.57 441.29 184.66 441.32 184.76 441.36 184.85 441.41 184.94 441.48 185.03 441.57 185.13 441.67 185.22 441.79 185.31 441.92 185.41 442.06 185.5 442.22 185.59 442.4 185.69 442.59 185.87 443.01 185.96 443.24 186.06 443.48 186.24 444 186.34 444.29 186.43 444.58 186.62 445.21 186.99 446.6 187.08 446.98 187.17 447.37 187.36 448.18 187.73 449.91 188.47 453.82 188.57 454.34 188.66 454.87 188.84 455.95 189.22 458.19 189.96 462.91 190.05 463.47 190.13 464.04 190.31 465.19 190.65 467.51 191.35 472.19 192.74 481.42 192.82 481.98 192.91 482.54 193.08 483.64 193.43 485.8 194.12 489.93 194.21 490.42 194.3 490.91 194.47 491.87 194.82 493.72 195.51 497.15 195.59 497.54 195.68 497.92 195.85 498.67 196.19 500.1 196.28 500.44 196.36 500.77 196.53 501.41 196.87 502.62 196.96 502.9 197.04 503.18 197.21 503.71 197.29 503.97 197.38 504.22 197.55 504.7 197.64 504.92 197.72 505.14 197.89 505.56 198.23 506.32 198.31 506.49 198.4 506.65 198.57 506.96 198.66 507.1 198.74 507.24 198.91 507.49 199 507.61 199.08 507.71 199.17 507.82 199.25 507.91 199.34 508 199.42 508.08 199.51 508.15 199.59 508.22 199.68 508.28 199.76 508.34 199.85 508.39 199.93 508.43 200.02 508.46 200.1 508.49 200.19 508.52 200.27 508.53 200.36 508.54 200.44 508.55 200.53 508.55 200.61 508.54 200.7 508.52 200.78 508.5 200.87 508.48 200.95 508.45 201.04 508.41 201.14 508.36 201.23 508.31 201.32 508.25 201.41 508.18 201.5 508.11 201.69 507.95 201.78 507.86 201.87 507.76 202.06 507.55 202.15 507.44 202.24 507.32 202.43 507.07 202.52 506.93 202.61 506.79 202.8 506.5 203.16 505.86 203.26 505.69 203.35 505.51 203.53 505.15 203.9 504.38 204 504.18 204.09 503.98 204.27 503.56 204.64 502.69 205.38 500.84 206.86 496.9 206.94 496.67 207.03 496.43 207.2 495.97 207.54 495.04 208.23 493.23 208.32 493 208.41 492.78 208.58 492.34 208.92 491.48 209.61 489.84 209.7 489.64 209.78 489.45 209.96 489.06 210.3 488.32 210.38 488.14 210.47 487.96 210.64 487.62 210.99 486.95 211.07 486.79 211.16 486.63 211.33 486.32 211.68 485.74 211.76 485.6 211.85 485.46 212.02 485.19 212.37 484.69 212.46 484.56 212.55 484.44 212.74 484.19 212.83 484.08 212.92 483.96 213.11 483.75 213.21 483.65 213.3 483.55 213.48 483.36 213.86 483.01 213.95 482.94 214.04 482.86 214.23 482.72 214.32 482.66 214.42 482.59 214.6 482.48 214.7 482.43 214.79 482.38 214.88 482.33 214.98 482.28 215.07 482.24 215.16 482.2 215.26 482.17 215.35 482.13 215.44 482.11 215.54 482.08 215.63 482.05 215.72 482.03 215.82 482.01 215.91 482 216 481.98 216.1 481.97 216.19 481.96 216.28 481.95 216.38 481.95 216.47 481.95 216.56 481.95 216.66 481.95 216.75 481.96 216.84 481.97 216.94 481.98 217.03 481.99 217.12 482.01 217.22 482.02 217.31 482.04 217.4 482.06 217.5 482.09 217.59 482.11 217.68 482.14 217.78 482.17 217.96 482.23 218.06 482.26 218.15 482.3 218.34 482.38 218.42 482.42 218.51 482.46 218.69 482.54 219.03 482.72 219.12 482.77 219.21 482.82 219.38 482.93 219.73 483.14 219.82 483.2 219.91 483.26 220.08 483.38 220.43 483.62 221.13 484.14 221.21 484.2 221.3 484.27 221.47 484.41 221.82 484.68 222.52 485.23 223.91 486.32 224 486.38 224.08 486.45 224.25 486.57 224.6 486.82 225.28 487.29 225.37 487.35 225.45 487.41 225.62 487.52 225.96 487.73 226.65 488.12 226.73 488.17 226.82 488.21 226.99 488.3 227.33 488.47 227.41 488.51 227.5 488.55 227.67 488.63 228.01 488.77 228.1 488.8 228.18 488.84 228.36 488.9 228.7 489.02 228.78 489.05 228.87 489.08 229.04 489.13 229.38 489.23 229.47 489.25 229.57 489.28 229.75 489.32 229.84 489.34 229.94 489.36 230.12 489.4 230.21 489.42 230.31 489.43 230.49 489.46 230.59 489.48 230.68 489.49 230.86 489.52 230.96 489.53 231.05 489.54 231.14 489.55 231.23 489.56 231.33 489.57 231.42 489.58 231.51 489.58 231.6 489.59 231.7 489.6 231.79 489.6 231.88 489.61 231.97 489.61 232.07 489.61 232.16 489.62 232.25 489.62 232.34 489.62 232.44 489.62 232.53 489.62 232.62 489.62 232.72 489.62 232.81 489.62 232.9 489.62 232.99 489.61 233.09 489.61 233.18 489.61 233.27 489.6 233.37 489.6 233.46 489.59 233.55 489.59 233.64 489.58 233.83 489.57 233.92 489.56 234.01 489.55 234.2 489.54 234.29 489.53 234.38 489.52 234.57 489.5 234.66 489.49 234.75 489.48 234.94 489.46 235.31 489.41 235.4 489.4 235.48 489.39 235.66 489.36 236 489.31 236.69 489.2 238.08 488.97 238.16 488.96 238.25 488.94 238.42 488.91 238.77 488.86 239.46 488.74 240.84 488.53 240.94 488.52 241.03 488.5 241.22 488.48 241.59 488.43 241.69 488.42 241.78 488.4 241.97 488.38 242.34 488.34 242.44 488.33 242.53 488.32 242.72 488.3 243.09 488.26 243.19 488.25 243.28 488.24 243.47 488.22 243.84 488.19 243.94 488.18 244.03 488.18 244.22 488.16 244.31 488.15 244.41 488.15 244.59 488.13 244.69 488.13 244.78 488.12 244.97 488.11 245.34 488.09 245.44 488.08 245.53 488.08 245.72 488.07 245.81 488.07 245.91 488.06 246.09 488.06 246.19 488.05 246.28 488.05 246.47 488.04 246.56 488.04 246.66 488.04 246.84 488.03 246.94 488.03 247.03 488.03 247.12 488.03 247.21 488.03 247.3 488.02 247.4 488.02 247.49 488.02 247.58 488.02 247.67 488.02 247.76 488.02 247.85 488.02 247.95 488.02 248.04 488.01 248.13 488.01 248.22 488.01 248.31 488.01 248.41 488.01 248.5 488.01 248.59 488.01 248.68 488.01 248.78 488.01 248.87 488.01 248.96 488.01 249.05 488.01 249.14 488.01 249.24 488.01 249.33 488.02 249.42 488.02 249.51 488.02 249.6 488.02 249.79 488.02 249.88 488.02 249.97 488.02 250.16 488.02 250.25 488.03 250.34 488.03 250.52 488.03 250.62 488.03 250.71 488.03 250.89 488.04 251.26 488.05 251.35 488.05 251.44 488.05 251.63 488.05 252 488.06 252.73 488.08 252.82 488.08 252.9 488.08 253.07 488.09 253.42 488.1 254.1 488.12 254.19 488.12 254.28 488.12 254.45 488.13 254.79 488.13 255.48 488.15 255.56 488.15 255.65 488.15 255.82 488.16 256.17 488.17 256.85 488.18 256.94 488.18 257.02 488.19 257.19 488.19 257.54 488.2 258.22 488.21 258.32 488.21 258.41 488.21 258.6 488.21 258.97 488.22 259.06 488.22 259.16 488.22 259.34 488.23 259.71 488.23 259.81 488.23 259.9 488.23 260.09 488.23 260.46 488.24 260.55 488.24 260.64 488.24 260.83 488.24 261.2 488.24 261.3 488.25 261.39 488.25 261.57 488.25 261.67 488.25 261.76 488.25 261.95 488.25 262.04 488.25 262.13 488.25 262.32 488.25 262.41 488.25 262.5 488.25 262.69 488.25 262.79 488.25 262.88 488.25 262.97 488.25 263.06 488.25 263.16 488.25 263.25 488.25 263.44 488.25 263.53 488.25 263.62 488.25 263.71 488.25 263.81 488.26 263.9 488.26 263.99 488.26 264.09 488.26 264.18 488.26 264.27 488.26 264.36 488.26 264.44 488.26 264.53 488.26 264.62 488.26 264.7 488.26 264.79 488.26 264.88 488.26 264.96 488.26 265.05 488.26 265.14 488.26 265.22 488.26 265.31 488.26 265.4 488.26 265.48 488.26 265.57 488.26 265.66 488.26 265.75 488.26 265.92 488.25 266 488.25 266.09 488.25 266.27 488.25 266.35 488.25 266.44 488.25 266.61 488.25 266.96 488.25 267.05 488.25 267.13 488.25 267.31 488.25 267.66 488.25 268.35 488.25 269.74 488.25 269.83 488.25 269.91 488.25 270.08 488.25 270.42 488.24 271.1 488.24 271.19 488.24 271.27 488.24 271.44 488.24 271.79 488.24 272.47 488.24 272.55 488.24 272.64 488.24 272.81 488.24 273.15 488.24 273.23 488.24 273.32 488.24 273.49 488.24 273.83 488.24 273.92 488.24 274 488.24 274.17 488.24 274.51 488.24 275.19 488.23 275.29 488.23 275.38 488.23 275.56 488.23 275.93 488.23 276.02 488.23 276.12 488.23 276.3 488.23 276.67 488.23 276.76 488.23 276.86 488.23 277.04 488.23 277.13 488.23 277.23 488.23 277.41 488.23 277.5 488.23 277.6 488.23 277.78 488.23 277.87 488.23 277.96 488.23 278.15 488.23 278.24 488.23 278.33 488.23 278.52 488.23 278.61 488.23 278.7 488.23 278.89 488.23 278.98 488.23 279.07 488.23 279.17 488.23 279.26 488.23 279.35 488.23 279.44 488.23 279.63 488.23 279.72 488.23 279.81 488.23 279.9 488.23 280 488.23 280.09 488.23 280.18 488.23 280.27 488.23 280.37 488.23 280.46 488.23 280.55 488.23 280.64 488.23 280.74 488.23 280.83 488.23 280.92 488.23 281.01 488.23 281.11 488.23 281.19 488.23 281.28 488.23 281.37 488.23 281.45 488.23 281.54 488.23 281.62 488.23 281.71 488.23 281.8 488.23 281.88 488.23 281.97 488.23 282.14 488.23 282.23 488.23 282.31 488.23 282.49 488.23 282.57 488.23 282.66 488.23 282.83 488.23 283.18 488.23 283.26 488.23 283.35 488.23 283.52 488.23 283.87 488.23 283.95 488.23 284.04 488.23 284.21 488.23 284.56 488.23 285.25 488.23 286.63 488.23 286.72 488.23 286.82 488.23 287.01 488.23 287.39 488.23 288.17 488.23 288.26 488.23 288.36 488.23 288.55 488.23 288.94 488.23 289.71 488.23 289.8 488.23 289.9 488.23 290.09 488.23 290.48 488.23 290.57 488.23 290.67 488.23 290.86 488.23 291.25 488.23 291.34 488.23 291.44 488.23 291.63 488.23 292.02 488.23 292.11 488.23 292.21 488.23 292.4 488.23 292.5 488.23 292.59 488.23 292.69 488.23 292.79 488.23"/></g><g id="meyer"><polyline class="cls-1" points="0.22 294.55 0.3 294.56 0.39 294.56 0.56 294.58 0.9 294.61 1.58 294.67 1.66 294.68 1.75 294.69 1.92 294.7 2 294.71 2.09 294.72 2.26 294.73 2.34 294.74 2.43 294.75 2.51 294.76 2.6 294.77 2.94 294.81 3.02 294.82 3.11 294.83 3.28 294.85 3.62 294.89 4.3 294.98 5.66 295.17 5.75 295.19 5.84 295.2 6.02 295.23 6.39 295.28 7.13 295.4 8.6 295.65 11.55 296.17 11.64 296.19 11.72 296.2 11.89 296.23 12.24 296.3 12.93 296.42 14.3 296.65 14.39 296.66 14.47 296.68 14.65 296.7 14.99 296.76 15.68 296.86 15.76 296.88 15.85 296.89 16.02 296.91 16.37 296.96 17.05 297.05 17.14 297.06 17.22 297.07 17.31 297.09 17.39 297.1 17.48 297.11 17.56 297.12 17.64 297.13 17.73 297.13 17.81 297.14 17.9 297.15 18.07 297.17 18.4 297.2 18.49 297.21 18.57 297.22 18.74 297.23 19.08 297.27 19.16 297.27 19.25 297.28 19.41 297.3 19.5 297.31 19.58 297.32 19.67 297.32 19.75 297.33 19.84 297.33 19.92 297.34 20.09 297.35 20.43 297.36 20.51 297.37 20.59 297.37 20.76 297.38 21.1 297.4 21.18 297.4 21.27 297.41 21.44 297.42 21.52 297.42 21.61 297.42 21.69 297.43 21.77 297.43 21.86 297.44 21.94 297.44 22.03 297.44 22.11 297.44 22.2 297.44 22.28 297.44 22.45 297.44 22.54 297.44 22.63 297.44 22.81 297.44 23.18 297.44 23.27 297.43 23.36 297.43 23.55 297.43 23.64 297.43 23.73 297.43 23.82 297.43 23.91 297.43 24 297.43 24.09 297.43 24.19 297.42 24.28 297.42 24.37 297.41 24.46 297.41 24.64 297.4 25.38 297.35 25.47 297.35 25.56 297.34 25.74 297.33 25.83 297.33 25.92 297.32 26.02 297.32 26.11 297.31 26.2 297.31 26.29 297.29 26.38 297.28 26.47 297.27 26.84 297.23 26.93 297.22 27.02 297.21 27.2 297.19 27.57 297.14 27.66 297.13 27.75 297.12 27.94 297.1 28.03 297.09 28.12 297.08 28.21 297.07 28.3 297.06 28.39 297.04 28.47 297.03 28.64 297 28.98 296.94 29.67 296.81 29.75 296.8 29.84 296.78 30.01 296.75 30.09 296.74 30.18 296.72 30.35 296.69 30.43 296.68 30.52 296.66 30.61 296.64 30.69 296.62 31.03 296.54 31.12 296.52 31.2 296.5 31.37 296.45 31.71 296.37 32.4 296.21 33.76 295.82 33.86 295.79 33.95 295.76 34.13 295.71 34.5 295.6 35.24 295.36 36.72 294.86 36.81 294.82 36.91 294.79 37.09 294.73 37.46 294.59 38.2 294.33 39.68 293.79 39.77 293.76 39.87 293.73 40.05 293.66 40.41 293.53 41.14 293.27 41.23 293.24 41.32 293.21 41.5 293.15 41.86 293.04 42.59 292.81 42.68 292.78 42.77 292.75 42.95 292.69 43.04 292.67 43.13 292.64 43.31 292.58 43.41 292.55 43.5 292.52 43.59 292.5 43.68 292.48 44.04 292.39 44.13 292.37 44.22 292.35 44.41 292.3 44.77 292.22 44.86 292.19 44.95 292.17 45.13 292.13 45.22 292.11 45.31 292.08 45.49 292.04 45.58 292.02 45.66 292 45.75 291.99 45.83 291.98 45.92 291.96 46 291.95 46.17 291.93 46.26 291.91 46.34 291.9 46.51 291.88 46.85 291.83 46.93 291.81 47.02 291.8 47.19 291.78 47.27 291.76 47.36 291.75 47.53 291.73 47.61 291.72 47.7 291.7 47.78 291.69 47.87 291.68 47.95 291.68 48.03 291.68 48.2 291.67 48.29 291.67 48.37 291.66 48.54 291.65 48.88 291.64 48.97 291.64 49.05 291.63 49.22 291.63 49.56 291.61 49.65 291.61 49.73 291.61 49.81 291.6 49.9 291.6 49.98 291.6 50.07 291.6 50.15 291.6 50.24 291.61 50.32 291.61 50.41 291.62 50.58 291.63 50.91 291.64 51.01 291.65 51.1 291.65 51.28 291.66 51.38 291.67 51.47 291.67 51.65 291.68 51.74 291.69 51.83 291.69 51.93 291.7 52.02 291.7 52.11 291.71 52.2 291.71 52.29 291.73 52.38 291.74 52.48 291.75 52.57 291.76 52.75 291.78 53.12 291.82 53.85 291.91 53.95 291.93 54.04 291.94 54.13 291.95 54.22 291.96 54.31 291.97 54.41 291.99 54.59 292.01 55.32 292.13 56.79 292.37 56.88 292.39 56.97 292.4 57.14 292.43 57.48 292.49 58.17 292.61 59.54 292.87 59.62 292.88 59.71 292.9 59.88 292.93 60.22 293 60.91 293.13 62.28 293.45 62.37 293.47 62.45 293.49 62.62 293.52 62.7 293.54 62.79 293.56 62.87 293.58 62.95 293.6 63.04 293.63 63.12 293.65 63.29 293.71 63.63 293.81 63.71 293.84 63.79 293.87 63.96 293.92 64.3 294.03 64.38 294.05 64.47 294.08 64.64 294.13 64.72 294.16 64.8 294.19 64.97 294.24 65.06 294.27 65.14 294.3 65.22 294.33 65.31 294.37 65.64 294.53 66.32 294.84 66.4 294.88 66.48 294.92 66.65 295 66.74 295.04 66.82 295.08 66.99 295.16 67.07 295.2 67.16 295.24 67.24 295.28 67.33 295.32 67.41 295.38 67.49 295.43 67.66 295.54 67.75 295.6 67.84 295.66 68.03 295.78 68.39 296.03 68.48 296.09 68.57 296.15 68.75 296.27 69.12 296.51 69.21 296.57 69.3 296.63 69.39 296.69 69.48 296.75 69.58 296.83 69.67 296.91 69.85 297.07 70.58 297.7 70.67 297.78 70.76 297.86 70.94 298.01 71.31 298.33 72.04 299.02 73.5 300.49 73.58 300.57 73.67 300.66 73.84 300.83 74.18 301.18 74.86 301.88 74.94 301.96 75.03 302.05 75.2 302.22 75.54 302.57 76.22 303.23 76.31 303.3 76.39 303.37 76.56 303.52 76.9 303.81 76.99 303.88 77.07 303.95 77.24 304.1 77.58 304.39 77.67 304.46 77.75 304.54 77.84 304.61 77.92 304.68 78.01 304.76 78.09 304.83 78.18 304.88 78.26 304.92 78.35 304.96 78.43 305 78.6 305.09 78.94 305.25 79.04 305.3 79.13 305.34 79.31 305.43 79.41 305.48 79.5 305.52 79.68 305.61 79.77 305.66 79.87 305.7 79.96 305.75 80.05 305.79 80.14 305.84 80.24 305.88 80.33 305.9 80.42 305.9 80.51 305.89 80.61 305.89 80.79 305.88 81.16 305.86 81.25 305.85 81.34 305.85 81.53 305.84 81.9 305.82 81.99 305.81 82.08 305.81 82.17 305.8 82.27 305.8 82.36 305.79 82.45 305.79 82.54 305.72 82.63 305.66 82.73 305.6 82.82 305.53 83 305.41 83.37 305.15 83.46 305.09 83.56 305.03 83.74 304.9 83.83 304.84 83.92 304.78 84.11 304.65 84.2 304.59 84.3 304.52 84.39 304.46 84.48 304.4 84.57 304.33 84.66 304.24 84.76 304.12 84.85 304 84.94 303.89 85.03 303.77 85.21 303.55 85.57 303.08 85.66 302.97 85.75 302.86 85.94 302.62 86.3 302.16 86.39 302.05 86.48 301.93 86.57 301.82 86.66 301.7 86.75 301.59 86.84 301.45 87.02 301.14 87.75 299.93 87.84 299.77 87.93 299.62 88.11 299.32 88.47 298.71 89.19 297.46 90.64 294.87 90.73 294.71 90.81 294.56 90.98 294.26 91.32 293.7 92 292.64 92.08 292.51 92.16 292.38 92.33 292.11 92.67 291.58 92.75 291.45 92.84 291.31 93.01 291.05 93.09 290.92 93.18 290.78 93.26 290.65 93.35 290.56 93.43 290.47 93.52 290.38 93.68 290.21 94.02 289.85 94.11 289.76 94.19 289.68 94.36 289.5 94.7 289.14 94.78 289.06 94.87 288.97 95.03 288.79 95.12 288.7 95.2 288.61 95.29 288.52 95.37 288.44 95.46 288.37 95.54 288.34 95.63 288.31 95.71 288.27 95.8 288.24 95.88 288.21 96.05 288.15 96.14 288.12 96.23 288.09 96.42 288.02 96.78 287.89 96.87 287.85 96.97 287.82 97.15 287.75 97.24 287.72 97.33 287.69 97.42 287.65 97.52 287.62 97.61 287.6 97.7 287.62 97.79 287.65 97.88 287.68 97.97 287.7 98.06 287.73 98.25 287.78 98.34 287.81 98.43 287.83 98.61 287.89 98.98 287.99 99.07 288.02 99.16 288.05 99.35 288.1 99.44 288.12 99.53 288.15 99.62 288.18 99.71 288.2 99.8 288.25 99.9 288.31 100.08 288.44 100.45 288.69 100.54 288.75 100.63 288.82 100.81 288.94 101.18 289.19 101.91 289.7 102 289.76 102.08 289.81 102.25 289.93 102.59 290.16 102.68 290.22 102.77 290.27 102.94 290.39 103.28 290.62 103.36 290.68 103.45 290.73 103.62 290.85 103.71 290.91 103.79 290.96 103.88 291.02 103.96 291.08 104.05 291.14 104.13 291.17 104.22 291.19 104.31 291.2 104.39 291.22 104.48 291.23 104.65 291.26 104.73 291.28 104.82 291.3 104.99 291.33 105.33 291.39 105.42 291.41 105.5 291.42 105.67 291.45 105.76 291.47 105.84 291.49 106.02 291.52 106.1 291.53 106.19 291.55 106.27 291.55 106.36 291.49 106.44 291.43 106.53 291.37 106.7 291.25 106.78 291.19 106.87 291.14 107.04 291.02 107.38 290.79 107.48 290.72 107.57 290.66 107.75 290.53 107.85 290.47 107.94 290.4 108.12 290.28 108.22 290.21 108.31 290.15 108.4 290.09 108.5 289.94 108.59 289.79 108.68 289.63 108.86 289.31 108.96 289.16 109.05 289 109.24 288.69 109.61 288.06 109.7 287.9 109.79 287.74 109.98 287.43 110.35 286.8 110.44 286.65 110.53 286.49 110.63 286.29 110.72 286.06 110.81 285.83 110.9 285.6 111.09 285.13 111.83 283.28 113.31 279.44 113.4 279.19 113.49 278.94 113.68 278.44 114.04 277.44 114.13 277.19 114.22 276.94 114.4 276.45 114.77 275.45 114.86 275.2 114.95 274.98 115.04 274.79 115.13 274.59 115.5 273.82 116.22 272.28 116.31 272.08 116.41 271.89 116.59 271.5 116.68 271.31 116.77 271.12 116.86 270.93 116.95 270.73 117.04 270.54 117.13 270.45 117.22 270.4 117.31 270.35 117.41 270.3 117.5 270.25 117.68 270.15 117.77 270.1 117.86 270.05 118.04 269.95 118.41 269.75 118.5 269.7 118.59 269.65 118.77 269.55 118.86 269.5 118.95 269.45 119.04 269.4 119.13 269.35 119.22 269.3 119.3 269.43 119.39 269.58 119.47 269.74 119.56 269.9 119.64 270.05 119.81 270.37 119.9 270.52 119.98 270.68 120.15 270.99 120.49 271.62 120.58 271.77 120.66 271.93 120.83 272.24 120.92 272.4 121 272.56 121.17 272.87 121.25 273.02 121.34 273.18 121.42 273.42 121.51 273.81 121.59 274.21 121.68 274.6 121.85 275.39 121.93 275.79 122.02 276.18 122.19 276.97 122.53 278.55 122.61 278.95 122.7 279.34 122.87 280.13 123.21 281.71 123.29 282.11 123.38 282.5 123.46 282.9 123.55 283.29 123.63 283.88 123.72 284.5 123.89 285.73 123.97 286.35 124.06 286.97 124.22 288.21 124.56 290.69 124.66 291.36 124.75 292.03 124.93 293.37 125.3 296.05 126.04 301.98 127.51 315.36 127.6 316.2 127.69 317.03 127.88 318.7 128.24 322.18 128.98 329.13 130.45 342.45 130.54 343.13 130.62 343.82 130.8 345.2 131.14 347.94 131.22 348.63 131.31 349.32 131.48 350.69 131.83 353.44 131.91 354.13 132 354.81 132.08 355.5 132.17 356.19 132.26 356.74 132.34 357.15 132.51 357.97 132.6 358.37 132.69 358.78 132.86 359.6 133.2 361.23 133.29 361.63 133.37 362.04 133.54 362.86 133.63 363.26 133.72 363.67 133.89 364.49 133.97 364.89 134.06 365.3 134.15 365.71 134.23 366.12 134.32 366.52 134.4 366.82 134.49 366.83 134.57 366.83 134.66 366.84 134.75 366.85 134.92 366.86 135.26 366.89 135.35 366.89 135.43 366.9 135.61 366.91 135.95 366.94 136.03 366.95 136.12 366.95 136.2 366.96 136.29 366.97 136.37 366.97 136.45 366.98 136.54 366.99 136.62 366.57 136.71 366.12 136.79 365.68 136.96 364.8 137.3 363.02 137.38 362.58 137.47 362.14 137.63 361.25 137.97 359.48 138.05 359.04 138.14 358.6 138.31 357.71 138.39 357.27 138.48 356.83 138.56 356.38 138.64 355.94 138.73 355.39 138.81 354.52 138.9 353.66 138.98 352.79 139.32 349.33 139.99 342.4 140.08 341.53 140.16 340.66 140.33 338.93 140.41 338.06 140.5 337.2 140.66 335.47 140.75 334.6 140.83 333.73 140.92 332.69 141 331.51 141.09 330.33 141.17 329.15 141.34 326.79 141.43 325.51 141.52 324.23 141.7 321.67 142.07 316.55 142.8 306.31 144.26 283.84 144.35 282.42 144.44 280.99 144.63 278.13 144.99 272.42 145.72 261.5 145.81 260.16 145.91 258.82 146.09 256.14 146.46 250.77 146.55 249.43 146.64 248.09 146.82 245.41 147.19 240.04 147.27 238.79 147.36 237.54 147.44 236.56 147.53 235.61 147.87 231.78 148.55 224.13 148.63 223.17 148.72 222.21 148.89 220.3 148.98 219.34 149.06 218.38 149.23 216.47 149.32 215.51 149.4 214.56 149.49 213.6 149.57 212.9 149.66 212.4 149.74 211.91 149.91 210.92 150 210.42 150.08 209.93 150.25 208.94 150.59 206.97 150.68 206.47 150.77 205.98 150.94 204.99 151.28 203.01 151.36 202.52 151.45 202.02 151.53 201.53 151.62 201.03 151.7 200.63 151.79 200.69 151.87 200.74 151.96 200.8 152.04 200.85 152.13 200.91 152.3 201.02 152.64 201.25 152.73 201.31 152.83 201.37 153.01 201.49 153.1 201.55 153.2 201.61 153.38 201.74 153.47 201.8 153.56 201.86 153.66 201.92 153.75 201.98 153.84 202.04 153.94 202.62 154.03 203.26 154.12 203.91 154.21 204.56 154.31 205.2 154.49 206.5 154.86 209.08 154.95 209.73 155.04 210.38 155.23 211.67 155.6 214.25 155.69 214.9 155.78 215.55 155.88 216.19 155.97 216.84 156.06 217.7 156.15 218.82 156.34 221.06 156.43 222.18 156.52 223.29 156.71 225.53 157.08 230 157.17 231.12 157.26 232.23 157.45 234.47 157.82 238.94 158.56 248.99 158.65 250.36 158.74 251.73 158.92 254.46 159.28 259.93 160.01 270.88 161.46 293.23 161.55 294.64 161.64 296.04 161.82 298.85 162.18 304.48 162.91 314.89 163 316.11 163.09 317.33 163.27 319.76 163.63 324.63 163.72 325.85 163.82 327.06 164 329.5 164.36 334.37 164.44 335.5 164.53 336.64 164.61 337.77 164.7 338.81 164.78 339.6 164.87 340.39 165.04 341.97 165.12 342.76 165.21 343.55 165.38 345.14 165.71 348.3 165.8 349.1 165.88 349.89 166.05 351.47 166.14 352.26 166.22 353.05 166.39 354.64 166.48 355.43 166.56 356.22 166.65 357.01 166.73 357.8 166.81 358.59 166.9 359.07 166.98 359.42 167.07 359.77 167.15 360.13 167.24 360.48 167.41 361.19 167.75 362.61 167.83 362.96 167.91 363.31 168.08 364.02 168.42 365.44 168.51 365.79 168.59 366.14 168.68 366.5 168.76 366.85 168.84 367.2 168.93 367.56 169.01 367.85 169.1 367.75 169.18 367.66 169.27 367.57 169.44 367.38 169.78 367.01 169.87 366.91 169.96 366.81 170.14 366.61 170.23 366.51 170.33 366.41 170.51 366.21 170.6 366.11 170.69 366.01 170.78 365.91 170.88 365.81 170.97 365.71 171.06 365.61 171.15 365.51 171.24 365.06 171.34 364.55 171.43 364.05 171.61 363.03 171.98 361 172.71 356.95 172.8 356.44 172.9 355.93 173.08 354.92 173.17 354.41 173.26 353.9 173.35 353.32 173.44 352.55 173.54 351.78 173.63 351 173.81 349.45 174.18 346.36 175.65 333.81 175.73 332.99 175.82 332.18 175.99 330.55 176.33 327.29 177.02 320.77 178.39 308.24 178.47 307.49 178.56 306.73 178.73 305.22 179.07 302.19 179.16 301.44 179.25 300.68 179.42 299.17 179.5 298.41 179.59 297.65 179.76 296.14 179.84 295.43 179.93 294.85 180.1 293.68 180.44 291.35 181.13 286.68 181.21 286.11 181.3 285.54 181.47 284.39 181.55 283.82 181.63 283.25 181.8 282.11 181.88 281.53 181.97 280.96 182.05 280.57 182.14 280.23 182.22 279.89 182.31 279.55 182.47 278.86 182.56 278.52 182.64 278.17 182.81 277.49 183.14 276.12 183.23 275.77 183.31 275.43 183.48 274.74 183.82 273.37 183.9 273.03 183.98 272.69 184.07 272.34 184.15 272.01 184.24 271.9 184.32 271.79 184.49 271.57 184.57 271.46 184.66 271.35 184.82 271.13 185.16 270.68 185.24 270.57 185.33 270.46 185.5 270.24 185.58 270.13 185.66 270.02 185.83 269.8 185.91 269.69 186 269.58 186.08 269.47 186.17 269.36 186.25 269.25 186.34 269.19 186.42 269.27 186.5 269.35 186.59 269.43 186.69 269.52 186.87 269.69 187.23 270.03 187.32 270.11 187.41 270.2 187.6 270.37 187.96 270.71 188.05 270.8 188.14 270.88 188.23 270.97 188.32 271.05 188.42 271.14 188.51 271.27 188.6 271.48 188.69 271.69 188.78 271.9 188.87 272.11 189.05 272.54 189.42 273.38 189.51 273.59 189.6 273.81 189.78 274.23 190.15 275.07 190.88 276.87 192.33 280.88 192.42 281.12 192.5 281.35 192.67 281.82 193.01 282.67 193.69 284.29 193.78 284.49 193.86 284.69 194.03 285.1 194.37 285.9 194.46 286.11 194.54 286.31 194.71 286.71 194.8 286.91 194.88 287.12 194.97 287.31 195.05 287.44 195.14 287.57 195.22 287.7 195.39 287.95 195.73 288.46 195.82 288.59 195.9 288.71 196.07 288.97 196.41 289.48 196.5 289.61 196.58 289.73 196.75 289.99 196.84 290.11 196.92 290.24 197.01 290.37 197.09 290.5 197.18 290.57 197.26 290.62 197.35 290.66 197.43 290.7 197.52 290.74 197.6 290.78 197.77 290.87 197.87 290.91 197.96 290.96 198.14 291.05 198.51 291.23 198.6 291.27 198.7 291.32 198.88 291.41 198.97 291.45 199.06 291.5 199.16 291.54 199.25 291.59 199.34 291.6 199.43 291.57 199.53 291.54 199.62 291.51 199.71 291.48 199.8 291.45 199.99 291.39 200.08 291.36 200.17 291.33 200.35 291.27 200.72 291.16 200.81 291.13 200.91 291.1 201.09 291.04 201.18 291.01 201.28 290.98 201.37 290.95 201.46 290.92 201.55 290.86 201.65 290.79 201.83 290.66 202.2 290.4 202.29 290.33 202.38 290.26 202.57 290.13 202.93 289.87 203.67 289.35 203.76 289.29 203.84 289.24 204.02 289.13 204.36 288.91 204.45 288.85 204.53 288.8 204.71 288.69 205.05 288.47 205.13 288.42 205.22 288.36 205.39 288.25 205.48 288.19 205.56 288.14 205.65 288.08 205.74 288.03 205.82 287.99 205.91 287.98 206 287.96 206.08 287.95 206.17 287.93 206.25 287.92 206.43 287.89 206.51 287.87 206.6 287.86 206.77 287.83 207.11 287.77 207.2 287.76 207.29 287.74 207.46 287.71 207.54 287.7 207.63 287.68 207.72 287.67 207.8 287.65 207.89 287.64 207.97 287.64 208.06 287.68 208.15 287.73 208.23 287.77 208.32 287.81 208.49 287.9 208.58 287.94 208.66 287.99 208.84 288.07 209.18 288.25 209.26 288.29 209.35 288.33 209.52 288.42 209.6 288.46 209.69 288.5 209.85 288.59 209.94 288.63 210.02 288.67 210.11 288.71 210.19 288.81 210.28 288.91 210.36 289 210.53 289.2 210.61 289.3 210.7 289.4 210.87 289.6 211.2 289.99 211.88 290.78 211.96 290.88 212.05 290.98 212.13 291.08 212.22 291.18 212.3 291.29 212.38 291.43 212.55 291.7 212.64 291.84 212.72 291.98 212.89 292.26 213.23 292.81 214.58 295.05 214.67 295.21 214.76 295.38 214.94 295.7 215.31 296.36 216.04 297.68 216.13 297.84 216.22 298.01 216.41 298.34 216.77 298.97 217.51 300.15 217.6 300.3 217.69 300.45 217.87 300.74 218.24 301.33 218.33 301.48 218.42 301.63 218.6 301.93 218.97 302.43 219.06 302.53 219.15 302.64 219.34 302.85 219.7 303.28 220.44 304.13 220.52 304.23 220.61 304.33 220.69 304.43 220.78 304.53 220.86 304.63 220.95 304.72 221.03 304.77 221.12 304.81 221.2 304.86 221.29 304.91 221.46 305 221.8 305.19 221.89 305.24 221.97 305.29 222.14 305.38 222.48 305.57 222.57 305.62 222.66 305.67 222.74 305.72 222.83 305.77 222.91 305.81 223 305.86 223.08 305.91 223.17 305.91 223.25 305.91 223.34 305.9 223.51 305.89 223.85 305.87 223.94 305.86 224.02 305.86 224.19 305.85 224.53 305.83 224.62 305.82 224.71 305.81 224.88 305.8 224.96 305.8 225.05 305.79 225.13 305.79 225.22 305.78 225.3 305.75 225.39 305.71 225.47 305.66 225.56 305.61 225.9 305.41 225.99 305.36 226.09 305.3 226.27 305.2 226.64 304.98 226.73 304.93 226.83 304.88 227.01 304.77 227.1 304.72 227.2 304.66 227.29 304.61 227.38 304.56 227.47 304.49 227.57 304.4 227.75 304.24 228.12 303.9 228.86 303.23 228.95 303.14 229.05 303.06 229.23 302.89 229.6 302.56 230.34 301.79 231.82 300.26 231.91 300.17 232 300.08 232.19 299.9 232.55 299.55 233.28 298.83 233.37 298.74 233.46 298.65 233.64 298.47 234 298.13 234.73 297.53 234.82 297.45 234.91 297.38 235.09 297.23 235.46 296.93 235.55 296.85 235.64 296.78 235.82 296.63 235.91 296.55 236 296.48 236.19 296.35 236.28 296.29 236.37 296.24 236.55 296.12 236.91 295.9 237.64 295.45 237.72 295.39 237.81 295.34 237.98 295.24 238.06 295.18 238.15 295.13 238.23 295.08 238.32 295.04 238.4 295 238.49 294.97 238.66 294.89 239 294.75 239.08 294.71 239.16 294.67 239.33 294.6 239.67 294.45 239.76 294.42 239.84 294.38 240.01 294.31 240.1 294.27 240.18 294.23 240.27 294.19 240.35 294.16 240.44 294.13 240.52 294.1 240.69 294.05 241.03 293.95 241.71 293.75 241.79 293.73 241.88 293.7 242.05 293.65 242.13 293.63 242.22 293.6 242.38 293.55 242.47 293.52 242.56 293.5 242.64 293.48 242.72 293.46 242.81 293.44 242.89 293.42 243.06 293.39 243.16 293.37 243.25 293.35 243.43 293.31 243.8 293.23 244.53 293.07 246 292.79 246.1 292.77 246.19 292.75 246.37 292.72 246.74 292.65 247.47 292.52 248.94 292.26 249.03 292.25 249.12 292.24 249.29 292.21 249.63 292.15 250.32 292.05 250.4 292.04 250.49 292.02 250.66 292 250.75 291.98 250.83 291.97 251 291.94 251.09 291.93 251.18 291.92 251.26 291.91 251.35 291.9 251.43 291.89 251.52 291.88 251.69 291.86 251.78 291.85 251.86 291.84 252.03 291.82 252.38 291.78 252.46 291.77 252.55 291.76 252.72 291.75 253.06 291.71 253.15 291.7 253.24 291.69 253.32 291.68 253.41 291.67 253.49 291.67 253.58 291.67 253.75 291.66 253.84 291.66 253.92 291.65 254.09 291.65 254.44 291.64 254.52 291.63 254.6 291.63 254.77 291.62 254.86 291.62 254.94 291.62 255.11 291.61 255.19 291.61 255.28 291.61 255.36 291.6 255.45 291.6 255.53 291.6 255.61 291.6 255.7 291.61 255.78 291.61 255.87 291.62 255.95 291.62 256.12 291.63 256.45 291.65 256.54 291.66 256.62 291.66 256.79 291.67 257.13 291.69 257.21 291.7 257.3 291.7 257.38 291.71 257.46 291.71 257.55 291.72 257.63 291.73 257.72 291.73 257.8 291.74 257.89 291.76 257.97 291.77 258.14 291.8 258.47 291.86 258.56 291.87 258.64 291.88 258.81 291.91 259.15 291.97 259.23 291.98 259.31 292 259.48 292.02 259.57 292.04 259.65 292.05 259.74 292.06 259.82 292.08 259.91 292.1 260 292.12 260.19 292.17 260.55 292.26 261.28 292.45 262.74 292.87 262.83 292.9 262.92 292.93 263.11 292.99 263.47 293.11 264.2 293.35 265.66 293.88 265.75 293.91 265.83 293.94 266 294 266.34 294.12 267.02 294.37 268.39 294.86 268.47 294.89 268.56 294.92 268.73 294.98 269.07 295.09 269.75 295.32 271.11 295.75 271.21 295.78 271.3 295.81 271.49 295.86 271.87 295.97 271.97 296 272.06 296.02 272.25 296.08 272.63 296.19 272.73 296.21 272.82 296.24 273.01 296.29 273.39 296.38 274.15 296.55 274.25 296.57 274.34 296.59 274.53 296.64 274.63 296.66 274.72 296.68 274.91 296.72 275.01 296.75 275.1 296.76 275.2 296.78 275.29 296.79 275.67 296.86 275.77 296.87 275.86 296.89 276.05 296.92 276.43 296.99 276.53 297 276.62 297.02 276.81 297.05 276.91 297.06 277 297.08 277.1 297.1 277.19 297.11"/></g><g id="mexican_hat" data-name="mexican hat"><polyline class="cls-1" points="13.92 118.23 14.01 118.23 14.09 118.23 14.26 118.23 14.6 118.23 15.28 118.24 15.37 118.24 15.45 118.24 15.62 118.24 15.96 118.24 16.64 118.24 16.73 118.24 16.81 118.24 16.98 118.24 17.32 118.24 18 118.24 18.09 118.24 18.17 118.24 18.34 118.25 18.68 118.25 19.36 118.25 19.46 118.25 19.55 118.25 19.73 118.25 20.1 118.25 20.84 118.25 20.93 118.26 21.02 118.26 21.21 118.26 21.57 118.26 22.31 118.26 22.41 118.26 22.5 118.27 22.68 118.27 23.05 118.27 23.79 118.27 23.88 118.27 23.97 118.27 24.16 118.28 24.52 118.28 25.26 118.28 25.35 118.29 25.43 118.29 25.61 118.29 25.95 118.29 26.64 118.3 26.73 118.3 26.81 118.3 26.98 118.3 27.33 118.31 28.02 118.32 28.1 118.32 28.19 118.32 28.36 118.32 28.7 118.33 29.39 118.34 29.48 118.34 29.57 118.34 29.74 118.34 30.08 118.35 30.77 118.36 30.86 118.36 30.94 118.36 31.11 118.37 31.45 118.38 32.12 118.39 32.2 118.39 32.29 118.39 32.46 118.4 32.8 118.41 33.47 118.42 33.55 118.43 33.64 118.43 33.81 118.43 34.15 118.44 34.82 118.46 36.17 118.51 36.26 118.52 36.35 118.52 36.54 118.53 36.9 118.54 37.63 118.57 37.73 118.58 37.82 118.58 38 118.59 38.37 118.61 39.1 118.65 39.19 118.65 39.28 118.66 39.47 118.67 39.83 118.69 40.56 118.73 42.03 118.83 42.12 118.84 42.2 118.85 42.37 118.86 42.71 118.89 43.4 118.95 43.48 118.95 43.57 118.96 43.74 118.98 44.08 119.01 44.76 119.08 44.85 119.09 44.93 119.09 45.1 119.11 45.45 119.15 46.13 119.23 47.5 119.4 47.59 119.42 47.68 119.43 47.87 119.45 48.24 119.51 48.98 119.62 49.07 119.64 49.16 119.65 49.35 119.68 49.72 119.75 50.46 119.88 50.55 119.89 50.64 119.91 50.83 119.95 51.2 120.02 51.94 120.17 53.42 120.51 53.51 120.53 53.6 120.56 53.78 120.6 54.15 120.69 54.88 120.89 54.97 120.92 55.06 120.94 55.24 120.99 55.6 121.1 56.33 121.32 56.42 121.35 56.51 121.38 56.69 121.44 57.06 121.56 57.78 121.82 59.24 122.37 59.32 122.41 59.41 122.44 59.58 122.51 59.92 122.66 60.59 122.96 61.95 123.6 62.03 123.65 62.12 123.69 62.29 123.78 62.63 123.95 63.31 124.32 64.66 125.11 64.75 125.17 64.85 125.23 65.03 125.34 65.4 125.58 66.13 126.06 67.61 127.11 67.7 127.18 67.79 127.25 67.97 127.39 68.34 127.68 69.08 128.27 70.55 129.53 70.63 129.61 70.72 129.68 70.89 129.84 71.23 130.16 71.92 130.81 73.29 132.18 76.04 135.23 76.12 135.33 76.21 135.43 76.38 135.63 76.71 136.03 77.39 136.86 78.73 138.59 81.42 142.28 87.27 151.12 87.35 151.25 87.44 151.39 87.61 151.65 87.95 152.19 88.63 153.25 89.99 155.37 90.08 155.5 90.16 155.63 90.33 155.9 90.67 156.42 91.36 157.45 92.72 159.47 92.81 159.61 92.9 159.74 93.09 160.01 93.46 160.53 94.19 161.56 95.67 163.51 95.76 163.63 95.86 163.74 96.04 163.97 96.41 164.42 97.15 165.28 97.24 165.38 97.33 165.48 97.52 165.68 97.89 166.08 98.63 166.82 98.72 166.9 98.81 166.99 98.99 167.16 99.35 167.48 99.44 167.56 99.53 167.63 99.71 167.78 100.08 168.07 100.17 168.14 100.26 168.21 100.44 168.34 100.8 168.59 100.89 168.65 100.98 168.7 101.16 168.81 101.53 169.02 101.62 169.07 101.71 169.12 101.89 169.21 101.98 169.25 102.07 169.29 102.25 169.37 102.34 169.41 102.43 169.45 102.61 169.52 102.7 169.55 102.8 169.58 102.98 169.64 103.07 169.66 103.16 169.69 103.25 169.71 103.34 169.73 103.43 169.75 103.52 169.77 103.61 169.79 103.7 169.8 103.79 169.81 103.88 169.83 103.97 169.84 104.06 169.85 104.16 169.85 104.25 169.86 104.34 169.86 104.43 169.87 104.51 169.87 104.6 169.87 104.68 169.86 104.77 169.86 104.85 169.85 104.94 169.85 105.02 169.84 105.1 169.83 105.19 169.82 105.27 169.81 105.36 169.79 105.44 169.78 105.53 169.76 105.61 169.74 105.78 169.7 105.86 169.68 105.95 169.65 106.12 169.6 106.2 169.57 106.29 169.54 106.46 169.47 106.54 169.44 106.63 169.4 106.79 169.32 107.13 169.14 107.22 169.09 107.3 169.04 107.47 168.94 107.81 168.7 107.89 168.64 107.98 168.58 108.15 168.44 108.48 168.16 108.57 168.08 108.65 168 108.82 167.84 109.16 167.5 109.84 166.72 109.93 166.61 110.02 166.49 110.2 166.25 110.57 165.75 110.66 165.61 110.75 165.48 110.94 165.21 111.3 164.63 111.4 164.48 111.49 164.33 111.67 164.02 112.04 163.37 112.77 161.96 112.86 161.78 112.95 161.59 113.14 161.21 113.5 160.41 114.24 158.71 115.7 154.85 115.79 154.6 115.88 154.36 116.05 153.86 116.39 152.84 117.07 150.71 118.44 146.05 118.53 145.74 118.61 145.43 118.79 144.81 119.13 143.53 119.81 140.9 121.18 135.26 121.28 134.86 121.37 134.46 121.55 133.65 121.92 132.01 122.67 128.64 124.15 121.54 127.12 106.11 132.94 73.09 133.03 72.61 133.11 72.12 133.28 71.14 133.62 69.2 134.3 65.33 135.66 57.69 135.75 57.22 135.83 56.75 136 55.81 136.34 53.95 137.02 50.27 138.38 43.13 138.47 42.66 138.56 42.19 138.75 41.26 139.12 39.41 139.85 35.81 141.32 29.02 141.42 28.61 141.51 28.21 141.69 27.41 142.06 25.85 142.8 22.84 144.27 17.36 144.36 17.06 144.44 16.77 144.62 16.19 144.96 15.06 145.65 12.94 145.73 12.69 145.82 12.44 145.99 11.95 146.34 11 147.02 9.25 147.11 9.04 147.19 8.84 147.37 8.44 147.71 7.69 147.8 7.51 147.88 7.33 148.05 6.98 148.4 6.33 148.48 6.17 148.57 6.02 148.74 5.72 149.09 5.17 149.17 5.04 149.26 4.91 149.43 4.67 149.77 4.21 149.86 4.11 149.94 4.01 150.11 3.82 150.19 3.73 150.28 3.65 150.45 3.48 150.53 3.4 150.62 3.33 150.78 3.19 150.87 3.13 150.95 3.06 151.12 2.95 151.21 2.9 151.29 2.85 151.38 2.8 151.46 2.76 151.54 2.72 151.63 2.69 151.71 2.65 151.8 2.62 151.88 2.6 151.97 2.57 152.05 2.55 152.13 2.54 152.22 2.52 152.3 2.51 152.39 2.5 152.47 2.5 152.56 2.5 152.64 2.5 152.72 2.51 152.81 2.52 152.89 2.53 152.98 2.54 153.06 2.56 153.15 2.58 153.23 2.61 153.31 2.64 153.4 2.67 153.48 2.7 153.57 2.74 153.65 2.78 153.82 2.87 153.9 2.92 153.99 2.98 154.16 3.09 154.24 3.16 154.32 3.22 154.49 3.37 154.58 3.44 154.66 3.52 154.83 3.69 155.17 4.06 155.26 4.17 155.35 4.29 155.53 4.52 155.9 5.04 155.99 5.18 156.08 5.33 156.26 5.62 156.63 6.26 156.72 6.42 156.81 6.6 157 6.95 157.36 7.7 158.09 9.37 158.19 9.59 158.28 9.82 158.46 10.28 158.83 11.25 159.56 13.35 159.65 13.62 159.74 13.9 159.92 14.47 160.29 15.65 161.02 18.14 161.1 18.45 161.19 18.75 161.36 19.37 161.7 20.64 162.38 23.3 163.75 29.05 163.84 29.43 163.92 29.81 164.09 30.57 164.43 32.13 165.12 35.33 166.48 42.07 166.57 42.54 166.67 43.01 166.85 43.96 167.22 45.88 167.96 49.8 169.44 57.87 172.4 74.67 178.21 107.51 178.29 107.97 178.38 108.42 178.55 109.33 178.89 111.13 179.57 114.68 180.92 121.55 181 121.96 181.09 122.38 181.26 123.21 181.6 124.84 182.28 128.05 183.63 134.15 183.72 134.55 183.81 134.95 184 135.73 184.37 137.28 185.1 140.28 186.57 145.85 186.66 146.18 186.75 146.51 186.94 147.16 187.3 148.43 188.04 150.85 189.51 155.26 189.59 155.5 189.68 155.73 189.85 156.2 190.19 157.11 190.88 158.83 190.97 159.03 191.05 159.24 191.22 159.64 191.56 160.41 192.25 161.87 192.34 162.04 192.42 162.22 192.59 162.55 192.94 163.2 193.62 164.4 193.71 164.54 193.79 164.68 193.97 164.95 194.31 165.47 194.99 166.42 195.08 166.53 195.16 166.64 195.33 166.84 195.67 167.23 195.75 167.33 195.84 167.42 196 167.6 196.34 167.93 196.42 168.01 196.51 168.09 196.68 168.24 197.01 168.51 197.09 168.58 197.18 168.64 197.35 168.77 197.68 168.99 197.77 169.04 197.85 169.09 198.02 169.19 198.1 169.23 198.19 169.28 198.36 169.36 198.44 169.4 198.52 169.44 198.69 169.5 198.78 169.54 198.86 169.57 199.03 169.63 199.11 169.65 199.2 169.68 199.28 169.7 199.37 169.72 199.45 169.74 199.53 169.76 199.62 169.78 199.7 169.79 199.78 169.81 199.87 169.82 199.95 169.83 200.04 169.84 200.12 169.85 200.2 169.85 200.29 169.86 200.37 169.86 200.46 169.87 200.56 169.87 200.65 169.87 200.74 169.86 200.83 169.86 200.92 169.85 201.01 169.85 201.1 169.84 201.19 169.83 201.28 169.81 201.38 169.8 201.47 169.78 201.56 169.77 201.65 169.75 201.83 169.71 201.92 169.68 202.01 169.66 202.2 169.6 202.29 169.57 202.38 169.54 202.56 169.48 202.65 169.44 202.74 169.4 202.93 169.33 203.29 169.15 203.38 169.11 203.47 169.06 203.66 168.96 204.02 168.74 204.11 168.69 204.2 168.63 204.38 168.51 204.75 168.25 204.84 168.18 204.93 168.12 205.12 167.97 205.48 167.68 206.21 167.04 206.29 166.96 206.38 166.88 206.55 166.71 206.89 166.38 207.57 165.66 208.93 164.09 209.02 163.98 209.1 163.88 209.27 163.67 209.61 163.24 210.29 162.35 211.65 160.47 211.75 160.34 211.84 160.21 212.02 159.95 212.39 159.41 213.13 158.33 214.61 156.09 217.56 151.5 223.07 143.11 223.15 142.99 223.24 142.87 223.41 142.62 223.75 142.14 224.42 141.19 225.77 139.34 225.85 139.22 225.94 139.11 226.11 138.89 226.45 138.44 227.12 137.57 228.47 135.89 228.56 135.78 228.66 135.67 228.84 135.45 229.21 135.02 229.94 134.18 231.4 132.57 231.5 132.47 231.59 132.38 231.77 132.19 232.14 131.81 232.87 131.08 234.34 129.7 234.42 129.62 234.51 129.54 234.68 129.39 235.02 129.09 235.7 128.51 237.07 127.41 237.16 127.35 237.24 127.28 237.41 127.15 237.75 126.9 238.44 126.41 239.81 125.49 239.9 125.43 239.99 125.37 240.18 125.26 240.55 125.03 241.29 124.59 242.77 123.78 242.86 123.73 242.96 123.69 243.14 123.59 243.51 123.41 244.25 123.06 245.73 122.41 245.82 122.38 245.92 122.34 246.1 122.27 246.46 122.12 247.19 121.85 247.28 121.82 247.37 121.78 247.55 121.72 247.92 121.59 248.64 121.35 248.74 121.33 248.83 121.3 249.01 121.24 249.37 121.13 250.1 120.92 251.56 120.53 251.64 120.51 251.72 120.49 251.89 120.45 252.23 120.37 252.91 120.22 253 120.2 253.08 120.18 253.25 120.14 253.59 120.08 254.27 119.94 254.35 119.92 254.44 119.91 254.61 119.88 254.95 119.82 255.63 119.7 256.98 119.49 257.08 119.47 257.17 119.46 257.35 119.43 257.72 119.38 258.46 119.29 258.55 119.28 258.64 119.27 258.82 119.24 259.19 119.2 259.93 119.12 260.02 119.11 260.11 119.1 260.3 119.08 260.66 119.04 261.4 118.97 262.87 118.85 262.96 118.84 263.04 118.83 263.21 118.82 263.56 118.8 264.25 118.75 264.33 118.74 264.42 118.74 264.59 118.73 264.93 118.71 265.62 118.67 265.71 118.66 265.79 118.66 265.96 118.65 266.31 118.63 266.99 118.59 268.37 118.53 268.45 118.53 268.54 118.53 268.7 118.52 269.04 118.51 269.71 118.48 269.8 118.48 269.88 118.48 270.05 118.47 270.39 118.46 271.06 118.44 271.15 118.44 271.23 118.43 271.4 118.43 271.74 118.42 272.41 118.4 272.49 118.4 272.58 118.4 272.75 118.39 273.08 118.39 273.76 118.37 273.85 118.37 273.94 118.37 274.12 118.36 274.49 118.36 275.22 118.34 275.31 118.34 275.4 118.34 275.58 118.34 275.95 118.33 276.68 118.32 276.77 118.32 276.86 118.32 277.04 118.32 277.41 118.31 278.14 118.3 278.23 118.3 278.32 118.3 278.51 118.3 278.87 118.3 279.6 118.29 279.69 118.29 279.77 118.29 279.94 118.28 280.28 118.28 280.96 118.28 281.05 118.28 281.14 118.27 281.31 118.27 281.65 118.27 282.33 118.27 282.42 118.27 282.5 118.27 282.67 118.26 283.01 118.26 283.69 118.26 283.78 118.26 283.86 118.26 284.03 118.26 284.38 118.25 285.06 118.25 285.15 118.25 285.25 118.25 285.44 118.25 285.82 118.25 286.58 118.25 286.67 118.25 286.77 118.25 286.96 118.24 287.34 118.24 288.1 118.24 288.2 118.24 288.29 118.24 288.48 118.24 288.86 118.24 289.62 118.24 289.72 118.24 289.81 118.24 290 118.24 290.38 118.23 290.48 118.23 290.58 118.23 290.77 118.23 290.86 118.23 290.96 118.23 291.05 118.23 291.15 118.23"/></g></g></g></svg>