<?xml version="1.0" encoding="UTF-8"?>
<svg id="Layer_2" data-name="Layer 2" xmlns="http://www.w3.org/2000/svg" xmlns:xlink="http://www.w3.org/1999/xlink" viewBox="0 0 334.35 630.24">
  <defs>
    <style>
      .cls-1 {
        fill: #78579c;
      }

      .cls-1, .cls-2, .cls-3, .cls-4, .cls-5 {
        stroke-width: 0px;
      }

      .cls-2 {
        fill: #64a5da;
      }

      .cls-3 {
        fill: none;
      }

      .cls-4 {
        fill: #f6af58;
      }

      .cls-5 {
        fill: #e86766;
      }

      .cls-6 {
        clip-path: url(#clippath);
      }
    </style>
    <clipPath id="clippath">
      <rect class="cls-3" x=".53" y=".28" width="333.29" height="629.67" transform="translate(-.53 .28) rotate(-.1)"/>
    </clipPath>
  </defs>
  <g id="Livello_1" data-name="Livello 1">
    <g id="DISEGNO">
      <g class="cls-6">
        <path class="cls-4" d="M215.88,74.5l29.29-39.44,27.25,48.33-56.54-8.89ZM253.2,102.62l-35.76-26.37,54.76,8.61-19,17.76ZM265.3,104.62l-10.41-1.54,17.09-15.98-6.68,17.52ZM254.2,104.48l10.84,1.61.17,52.42-11.01-54.03ZM209.46,119.69l43.24-15.12,12.14,59.55-55.38-44.43ZM186.42,168.85l21.82-48.24,55.73,44.72-77.56,3.52ZM185.02,168.34l-47.27-48.97,69.06.79-21.8,48.18ZM138.29,72.05l35.12,28.72-36.65,16.66,1.53-45.38ZM199.36,48.52l-24.81,51.26-35.48-29.01,60.29-22.25ZM160.43,40.5l37.6,6.93-58.39,21.55,20.79-28.48ZM156.24,3.13l42.4,42.9-37.86-6.98-4.54-35.92ZM242.9,33.64l-41.86,12.7L158.07,2.87l84.83,30.77ZM214.68,73.63l-12.8-25.98,41.43-12.57-28.63,38.56ZM211.38,101.44l3.72-25.06,35.79,26.39-39.51-1.33ZM211.16,102.91l38.11,1.28-40.4,14.13,2.29-15.41ZM177.85,101.8l31.82,1.07-2.29,15.39-29.53-16.46ZM205.06,118.65l-65.74-.75,35.45-16.12,30.29,16.87ZM213.57,76.57l-3.68,24.82-32.7-1.1,36.39-23.72ZM176.64,98.87l24.2-49.99,12.76,25.91-36.95,24.09ZM274.55,84.23s-.02-.1-.04-.14c0,0,0,0,0,0-.01-.03-.03-.06-.04-.08l-28.56-50.66c-.03-.05-.06-.1-.1-.14h0s0,0,0,0c-.07-.08-.16-.14-.26-.18h0s0,0,0,0c-.01,0-.02,0-.03-.01L155.49.35c-.08-.03-.17-.05-.27-.05-.04,0-.09,0-.13.01-.14.02-.26.08-.35.17-.05.04-.09.09-.13.14-.08.12-.13.27-.13.42,0,.03,0,.05,0,.07h0s0,.01,0,.02l4.85,38.34-22.34,30.6c-.06.08-.1.17-.13.27h0s0,0,0,0c0,.02-.01.05-.01.07h0s0,0,0,0h0s0,.04,0,.07l-1.62,48.07c0,.06,0,.11.01.17h0s0,0,0,0h0s0,.01,0,.01h0s0,0,0,0c0,0,0,0,0,0h0c.03.14.1.26.19.35l49.26,51.04c.15.15.34.23.54.23h.04s80.73-3.66,80.73-3.66c0,0,0,0,0,0,0,0,0,0,0,0h0s0,0,0,0h0c.16-.01.31-.07.42-.17.05-.04.09-.08.13-.14.08-.11.13-.23.14-.37,0-.03,0-.05,0-.08l-.2-60.4,7.98-20.94s.01-.04.02-.06c0,0,0,0,0,0,.04-.11.04-.23.02-.34,0,0,0,0,0,0Z"/>
        <path class="cls-2" d="M204.92,560.34l-30.69-40.7,69.1,27.46-38.41,13.24ZM188.7,600.31l-15.32-79.33,30.43,40.36-15.11,38.97ZM136.67,575.21l35-55.25,15.77,81.67-50.77-26.41ZM143.04,628.19l-6.51-51.38,50.38,26.21-43.87,25.17ZM99.27,549.25l35.64,26.65,6.3,49.71-41.95-76.36ZM63.1,598.12l33.81-50.1,43.92,79.95-77.72-29.85ZM17.11,505.01l78.79,41.85-33.83,50.14-44.95-91.99ZM83.78,487.05l12.14,58.14-78.42-41.66,66.28-16.48ZM74.53,473.57l8.59,12.12-61.71,15.34,53.12-27.46ZM89.12,455.4l-5.19,28.87-8.24-11.63,13.43-17.24ZM90.81,454.42l42.84,59.51-48.47-28.18,5.64-31.34ZM113.24,535.01l22.29-17.15-.62,54.91-21.66-37.75ZM112.05,535.92l21.13,36.83-34.99-26.16,13.86-10.67ZM86.37,488.17l48.59,28.24-22.46,17.29-26.12-45.53ZM111.31,534.62l-13.85,10.66-11.42-54.72,25.27,44.05ZM156.63,460.38l-20.55,54.39-44.12-61.29,64.66,6.9ZM170.73,518.66l-34.35,54.23.63-55.78,33.72,1.55ZM171.09,517.19l-33.75-1.55,20.17-53.4,13.57,54.95ZM242.38,545.13l-69.7-27.7-13.66-55.29,83.36,82.99ZM246.18,546.97c-.01-.05-.03-.1-.06-.15-.04-.08-.09-.14-.15-.2l-87.79-87.4s-.02-.02-.03-.03c0,0,0,0,0,0-.12-.11-.27-.17-.42-.19l-67.26-7.17s-.1-.01-.15,0h0c-.06,0-.12.02-.18.04,0,0,0,0,0,0h0c-.11.04-.21.1-.29.18h0,0s-.04.04-.05.06l-15.52,19.92-59.18,30.59s-.04.02-.05.03c-.12.08-.22.19-.28.31-.02.05-.04.1-.05.15h0c-.03.15-.02.31.04.46h0s0,0,0,0c0,.01.01.03.02.04l46.52,95.2s0,0,0,0c0,.02,0,0,0,0,.07.15.2.27.36.34.01,0,.03.01.04.02l80.48,30.91s.02,0,.03.01t0,0s0,0,0,0h0c.07.02.15.03.22.03s.15-.01.23-.04c.05-.02.1-.04.15-.07l46-26.39s.03-.02.04-.03c0,0,0,0,0,0,0,0,0,0,0,0,.02-.01.04-.03.05-.04h0s0,0,0,0t0,0s0,0,0,0c.07-.06.12-.12.16-.19t0,0h0s0,0,0,0h0s.03-.06.04-.1l16.07-41.45,40.49-13.95s.02,0,.02,0c.16-.06.3-.18.38-.32.03-.06.06-.12.08-.19.01-.06.02-.12.02-.18,0-.06,0-.13-.02-.19Z"/>
        <path class="cls-5" d="M214.96,196.19l-44.43-25.91,80.32-6.52-35.89,32.43ZM210.52,244.55l-40.44-72.82,44.2,25.78-3.76,47.04ZM148.96,244.77l19.4-73.08,41.42,74.59-60.82-1.51ZM171.7,294.88l-22.52-48.62,60.37,1.5-37.84,47.12ZM79.86,304.07l19.74-67.26,70.1,58.9-89.83,8.36ZM78.46,303.54L3.58,232.99l94.64,3.21-19.76,67.33ZM67.47,182.09l30.42,52.63-94.17-3.2,63.75-49.42ZM53.78,173.08l12.61,7.96L7.1,227.01l46.69-53.93ZM63.29,147.54l3.49,32-12.24-7.73,8.75-24.27ZM127.65,184.74l-59.29-4.45-3.78-34.59,63.07,39.04ZM134.63,119.38l-4.66,65.04-64.6-39.99,69.26-25.06ZM131.52,186.13l35.49-15.13-19.04,71.71-16.44-56.58ZM147.49,246.14l21.97,47.42-67.53-56.74,45.56,9.32ZM111.62,217.22l33.53,26.93-44.75-9.14,11.22-17.78ZM110.45,216.28l-11.22,17.79-28.91-50.02,40.14,32.24ZM130.37,187.5l16.26,55.94-34.21-27.48,17.96-28.46ZM111.25,215.02l-41.24-33.12,59.33,4.45-18.09,28.67ZM136.04,120.59l30.99,48.79-35.57,15.16,4.58-63.95ZM249.63,162.36l-81.13,6.58-31.23-49.17,112.35,42.58ZM253.71,162.72c-.02-.12-.07-.25-.16-.35-.03-.03-.05-.06-.08-.09,0,0,0,0,0,0-.07-.06-.15-.11-.24-.14l-117.5-44.54s-.04-.01-.05-.02c0,0,0,0,0,0-.11-.03-.23-.04-.34-.02h0s0,0,0,0h0s0,0,0,0c0,0,0,0,0,0h0s0,0,0,0,0,0,0,0c0,0-.01,0-.02,0,0,0,0,0,0,0h0s0,0,0,0,0,0,0,0h0s-.03,0-.04.01l-71.77,25.97s-.07.03-.1.04h0s-.07.04-.11.07c0,0,0,0,0,0h0c-.09.07-.16.16-.21.26h0s-.02.05-.03.07l-9.99,27.71L1.08,231.69s-.04.04-.05.07c-.08.11-.12.24-.13.37h0c0,.06,0,.12,0,.17.02.14.09.28.2.39h0s.02.02.03.03l77.19,72.72c.14.13.32.21.51.21.01,0,.03,0,.04,0h0s0,0,0,0c0,0,.01,0,.02,0l92.69-8.63c.14-.01.27-.06.39-.15,0,0,0,0,0,0,0,0,0,0,0,0h0s0,0,0,0c.05-.04.09-.08.12-.13l39.53-49.21s.06-.08.08-.13c0,0,0,0,0,0,0,0,0,0,0,0,.04-.09.07-.18.07-.27l3.97-49.66,37.7-34.06c.14-.12.21-.28.24-.45h0c.01-.07.01-.14,0-.21Z"/>
        <path class="cls-1" d="M232.96,302.11l6.28-86.08,91.37,48.57-97.65,37.51ZM275.48,350.81l-42.07-47.29,97.12-37.29-55.05,84.58ZM291.32,355.23l-14.56-3.66,51.16-78.61-36.6,82.27ZM286.96,388.69l-10.31-35.62,14.28,3.6-3.97,32.02ZM213.05,373.79l62.03-20.81,11.11,38.37-73.14-17.56ZM219.94,451.74l-8.72-76.86,74.48,17.89-65.76,58.97ZM176.44,408.49l33.35-32.98,8.59,75.68-41.93-42.7ZM93.22,452.42l82.03-43.03,42.34,43.11-124.37-.09ZM122.21,398.29l51,10.5-81.1,42.54,30.11-53.04ZM116.58,340.78l56.85,66.54-50.91-10.48-5.94-56.06ZM179.47,314.04l-4.72,92.54-57.92-67.8,62.65-24.74ZM145.94,266.44l33.17,46.14-62.18,24.56,29.01-70.7ZM224.57,330.3l7.89-25.61,40.42,45.43-48.31-19.82ZM224.13,331.72l49.32,20.23-61.96,20.78,12.64-41.02ZM181.81,314.36l40.95,16.8-12.55,40.75-28.39-57.54ZM180.87,315.81l28.59,57.94-33.22,32.85,4.63-90.79ZM231.07,304.15l-7.88,25.58-40.31-16.54,48.19-9.04ZM180.6,312.11l-32.64-45.4,81.69,36.21-49.05,9.19ZM237.74,216.14l-6.27,85.96-84.03-37.24,90.3-48.72ZM333.07,264.38s0,0,0,0c-.06-.11-.14-.21-.25-.28-.02-.02-.05-.03-.07-.04l-93.8-49.86s-.08-.04-.12-.05h0s-.04-.01-.07-.02c-.16-.04-.33-.02-.49.05h0s-.02.01-.03.02l-92.81,50.08c-.08.04-.15.1-.21.17,0,0,0,0,0,0h0s0,0,0,0c0,0-.01.02-.02.03,0,0,0,0,0,0,0,0,0,0,0,0h0s0,0,0,0c0,0,0,0,0,0-.04.05-.07.11-.09.17l-30.17,73.54s-.03.07-.04.11c-.02.08-.03.17-.02.25h0s6.22,58.75,6.22,58.75l-31.51,55.49s0,0,0,.01h0s0,0,0,0c-.06.11-.09.23-.09.35,0,.07,0,.14.03.21h0s0,0,0,0h0s.02.07.04.11c.06.12.15.23.28.31h0s.05.03.08.04c.1.05.21.08.32.07l129.13.09h0s.05,0,.06,0c0,0,0,0,0,0,.06,0,.13-.02.19-.04,0,0,0,0,0,0,.09-.03.17-.08.24-.14l67.89-60.88s.06-.06.09-.09c0,0,0,0,0,0,0,0,0,0,0,0,.08-.1.13-.23.15-.37l4.48-36.16,40.61-91.28s.02-.05.03-.08c.04-.14.05-.28.01-.41,0-.05-.03-.1-.05-.15Z"/>
      </g>
    </g>
  </g>
</svg>