<?xml version="1.0" encoding="UTF-8"?>
<svg id="Layer_1" data-name="Layer 1" xmlns="http://www.w3.org/2000/svg" xmlns:xlink="http://www.w3.org/1999/xlink" viewBox="0 0 70 13.81">
  <defs>
    <style>
      .cls-1 {
        fill: #22905d;
      }

      .cls-1, .cls-2, .cls-3, .cls-4, .cls-5, .cls-6, .cls-7, .cls-8, .cls-9, .cls-10 {
        stroke-width: 0px;
      }

      .cls-2 {
        fill: #dfe0d9;
      }

      .cls-2, .cls-3, .cls-6, .cls-8, .cls-10 {
        fill-rule: evenodd;
      }

      .cls-3, .cls-7 {
        fill: #44b868;
      }

      .cls-11 {
        clip-path: url(#clippath-2);
      }

      .cls-5 {
        fill: none;
      }

      .cls-6 {
        fill: #21905d;
      }

      .cls-12 {
        clip-path: url(#clippath-1);
      }

      .cls-8 {
        fill: #db3037;
      }

      .cls-9 {
        fill: #fff;
      }

      .cls-13 {
        clip-path: url(#clippath);
      }

      .cls-14 {
        clip-path: url(#clippath-3);
      }

      .cls-10 {
        fill: #90262f;
      }
    </style>
    <clipPath id="clippath">
      <rect class="cls-5" y="0" width="70" height="13.81"/>
    </clipPath>
    <clipPath id="clippath-1">
      <path class="cls-5" d="M7.88,11.92h0c.38-.05.75-.11,1.13-.16V3.66c-.38-.03-.76-.06-1.13-.09v8.35Z"/>
    </clipPath>
    <clipPath id="clippath-2">
      <rect class="cls-5" y="3.69" width="1.1" height="1.2"/>
    </clipPath>
    <clipPath id="clippath-3">
      <rect class="cls-5" y="0" width="70" height="13.81"/>
    </clipPath>
  </defs>
  <g class="cls-13">
    <path class="cls-4" d="M22.21,6.91v-.18c-.2-.01-.35-.03-.45-.07-.1-.03-.17-.11-.2-.21s-.05-.26-.05-.47V1.64c0-.22.02-.38.05-.48s.1-.17.2-.21c.1-.04.25-.06.45-.07v-.18c-.13,0-.3.01-.5.02-.2,0-.4,0-.61,0-.23,0-.44,0-.64,0-.2,0-.36-.01-.48-.02v.18c.2,0,.35.03.45.07s.17.11.2.21c.04.1.05.26.05.48v4.34c0,.21-.02.37-.05.47-.04.11-.1.18-.21.21-.1.04-.25.06-.45.07v.18c.12-.01.28-.02.48-.02.2,0,.41,0,.64,0,.2,0,.41,0,.61,0,.2,0,.37.01.5.02M24.52,7.03c.35,0,.62-.12.79-.35.17-.23.29-.52.35-.86l-.18-.04c-.09.34-.2.58-.33.72-.13.14-.28.21-.45.21s-.31-.06-.41-.17c-.1-.11-.15-.3-.15-.58v-3.39h1.3v-.18h-1.3V.95c-.11.04-.23.07-.37.09-.13.02-.27.03-.42.03v1.34h-.84v.18h.84v2.93c0,.31.03.56.07.74.05.19.14.35.27.48.1.09.21.16.34.21.13.05.29.07.49.07h0ZM29.13,6.97c.19,0,.34-.03.45-.09.11-.06.23-.14.35-.23l-.1-.15-.18.13-.21.05c-.1,0-.17-.03-.21-.1s-.06-.17-.06-.31v-2.43c0-.28-.02-.52-.07-.72-.05-.2-.15-.37-.3-.51-.11-.11-.25-.19-.42-.24-.17-.06-.37-.08-.61-.08-.27,0-.51.03-.72.1-.21.07-.39.15-.52.24-.12.08-.21.17-.29.26-.08.09-.11.22-.11.37,0,.13.04.26.12.36.08.11.2.16.37.16.15,0,.27-.04.36-.13.09-.08.14-.2.14-.35s-.04-.27-.12-.36c-.08-.09-.18-.15-.29-.18.1-.13.23-.21.4-.25s.32-.06.47-.06.29.02.41.06c.12.04.22.13.29.26.07.13.11.32.11.56v.54c0,.13-.06.25-.18.33-.12.09-.27.17-.46.24s-.38.14-.59.21-.4.16-.59.26c-.19.1-.34.23-.46.39-.12.16-.18.36-.18.61,0,.31.09.57.26.76.17.19.45.28.83.28.26,0,.5-.05.74-.16.24-.11.45-.31.64-.62,0,.2.05.38.15.54.1.16.3.24.6.24M27.39,6.62c-.2,0-.37-.07-.5-.2-.13-.13-.2-.33-.2-.6,0-.29.07-.51.21-.66s.31-.28.5-.37c.2-.09.39-.17.57-.25.18-.08.32-.18.41-.31v1.72c-.15.24-.3.41-.47.51-.17.1-.34.15-.52.15M32.25,6.91v-.18c-.24,0-.41-.04-.51-.13-.1-.09-.15-.25-.15-.5V.04c-.13.04-.27.07-.42.09-.15.02-.32.03-.49.03s-.36,0-.54-.03v.18c.26,0,.43.06.52.19.09.13.14.32.14.58v5c0,.24-.05.41-.15.5-.1.09-.27.13-.51.13v.18c.1,0,.25-.01.45-.02.2,0,.41-.01.6-.01s.41,0,.61.01c.2,0,.35.02.45.02M33.7,1.33c.15,0,.28-.06.39-.17.11-.11.17-.24.17-.39s-.06-.28-.17-.39-.24-.17-.39-.17-.28.05-.39.17-.17.24-.17.39.06.28.17.39c.11.11.24.17.39.17M34.82,6.91v-.18c-.24,0-.41-.04-.51-.13-.1-.09-.15-.25-.15-.5v-3.79c-.13.04-.27.07-.42.09-.16.02-.32.03-.49.03s-.36,0-.54-.03v.18c.26,0,.43.06.52.19.09.12.14.32.14.58v2.74c0,.24-.05.41-.15.5-.1.09-.27.13-.51.13v.18c.1,0,.25-.01.45-.02.2,0,.41-.01.6-.01s.41,0,.61.01c.2,0,.35.02.45.02h0ZM38.57,6.97c.19,0,.34-.03.45-.09.11-.06.23-.14.35-.23l-.1-.15-.18.13-.22.05c-.1,0-.17-.03-.21-.1-.04-.07-.06-.17-.06-.31v-2.43c0-.28-.02-.52-.07-.72-.05-.2-.15-.37-.3-.51-.11-.11-.25-.19-.42-.24-.17-.06-.37-.08-.61-.08-.27,0-.51.03-.72.1-.21.07-.39.15-.52.24-.12.08-.21.17-.29.26-.08.09-.11.22-.11.37,0,.13.04.26.12.36.08.11.2.16.37.16.15,0,.26-.04.36-.13.09-.08.14-.2.14-.35s-.04-.27-.12-.36c-.08-.09-.18-.15-.29-.18.1-.13.23-.21.4-.25s.32-.06.47-.06.29.02.41.06c.12.04.22.13.29.26.07.13.11.32.11.56v.54c0,.13-.06.25-.18.33-.12.09-.27.17-.46.24-.19.07-.38.14-.59.21-.21.07-.4.16-.59.26-.19.1-.34.23-.46.39-.12.16-.18.36-.18.61,0,.31.09.57.26.76.17.19.45.28.83.28.26,0,.5-.05.74-.16.24-.11.45-.31.63-.62,0,.2.05.38.15.54.1.16.3.24.6.24M36.83,6.62c-.2,0-.36-.07-.5-.2-.13-.13-.2-.33-.2-.6,0-.29.07-.51.21-.66s.31-.28.5-.37c.2-.09.39-.17.57-.25.18-.08.32-.18.41-.31v1.72c-.15.24-.3.41-.47.51-.17.1-.34.15-.52.15M41.5,7.03c.31,0,.57-.08.77-.24.16-.13.28-.3.37-.53v-.02s0,.75,0,.75c.15-.04.3-.07.47-.08h.12c.21-.03.44-.04.69-.04.18,0,.36,0,.54.03v-.18c-.21,0-.36-.06-.44-.19-.08-.12-.12-.32-.12-.58V.05c-.18.04-.38.07-.59.09-.22.02-.44.03-.68.03-.17,0-.36,0-.54-.03v.18c.22,0,.36.06.44.19.08.12.12.32.12.58v1.48h0s-.22-.17-.22-.17l-.06-.03c-.19-.09-.42-.13-.68-.13-.37,0-.71.09-1,.26-.29.18-.53.44-.69.78-.17.35-.25.79-.25,1.32,0,.56.08,1.02.23,1.37.15.35.36.61.63.78.27.17.58.25.92.25M41.86,6.65c-.16,0-.31-.06-.43-.19-.13-.13-.22-.34-.29-.64-.07-.29-.1-.69-.1-1.18,0-.72.08-1.26.25-1.61.17-.35.41-.52.71-.52.14,0,.27.03.4.09l.23.19v.02s0,3.07,0,3.07v.05c-.03.17-.1.32-.2.44l-.04.05c-.16.16-.34.24-.53.24M47.09,7.03c.43,0,.8-.08,1.12-.24.32-.16.57-.41.75-.76.18-.35.27-.81.27-1.39s-.09-1.04-.27-1.39c-.18-.35-.43-.6-.75-.76-.32-.16-.69-.24-1.12-.24s-.78.08-1.11.24c-.32.16-.58.41-.76.76-.18.35-.28.81-.28,1.39s.09,1.04.28,1.39c.18.35.44.6.76.76.32.16.69.24,1.11.24h0ZM47.09,6.85c-.23,0-.43-.17-.59-.52-.16-.34-.24-.91-.24-1.69s.08-1.35.24-1.69c.16-.35.35-.52.59-.52s.44.17.59.52c.15.35.23.91.23,1.69s-.08,1.34-.23,1.69-.35.52-.59.52M57.38,6.91v-.18c-.2,0-.35-.04-.43-.13-.08-.09-.13-.25-.13-.5v-2.35c0-.29-.02-.53-.06-.7-.04-.18-.11-.32-.2-.43-.09-.11-.22-.19-.37-.25-.15-.06-.35-.09-.6-.09-.3,0-.58.06-.84.18-.26.12-.47.36-.63.71v-.02s0-.03,0-.03v-.07c-.05-.18-.12-.32-.22-.43-.09-.11-.22-.19-.37-.25-.15-.06-.35-.09-.59-.09-.29,0-.55.06-.79.19-.24.13-.43.33-.57.63v-.79c-.18.04-.38.07-.59.09-.21.02-.44.03-.69.03-.18,0-.36,0-.54-.03v.18c.22,0,.36.06.44.19.08.12.12.32.12.58v2.76c0,.24-.04.41-.13.5-.08.09-.23.13-.43.13v.18c.12,0,.29-.01.53-.02.23,0,.46-.01.68-.01.2,0,.4,0,.6.01.2,0,.34.02.43.02v-.18c-.15,0-.26-.04-.32-.13-.06-.09-.1-.25-.1-.5v-2.43c0-.19.04-.37.12-.52.08-.15.18-.28.31-.36.13-.09.27-.13.42-.13.13,0,.24.03.3.09.07.06.11.15.14.25.02.11.03.23.03.38v2.72c0,.24-.03.41-.09.5-.06.09-.17.13-.33.13v.18c.11,0,.26-.01.46-.02.21,0,.41-.01.62-.01s.41,0,.63.01c.21,0,.37.02.48.02v-.18c-.19,0-.32-.04-.39-.13-.08-.09-.11-.25-.11-.5v-2.46s0-.05,0-.05v-.06c.03-.19.1-.36.21-.51l.05-.06c.17-.2.37-.3.59-.3.15,0,.26.03.34.09.07.06.12.15.15.25.03.11.04.23.04.38v2.72c0,.24-.03.41-.09.5-.06.09-.17.13-.33.13v.18c.1,0,.26-.01.46-.02.21,0,.41-.01.62-.01s.43,0,.66.01c.22,0,.39.02.5.02M61.02,6.97c.2,0,.38-.03.54-.08.16-.05.3-.13.42-.24l-.09-.15-.15.11-.17.04-.15-.09c-.03-.06-.04-.16-.04-.3v-2.38c0-.3-.02-.54-.06-.74-.04-.19-.13-.36-.26-.49-.15-.15-.33-.25-.54-.3-.22-.05-.46-.08-.73-.08s-.52.03-.75.08c-.23.05-.43.12-.59.22-.15.1-.27.2-.35.32s-.13.25-.13.42c0,.19.05.35.16.48.11.13.27.2.48.2.19,0,.35-.06.49-.18.14-.12.2-.27.2-.47,0-.15-.04-.29-.13-.41-.09-.12-.22-.21-.38-.27.08-.08.17-.13.29-.16.12-.03.23-.05.35-.05.16,0,.3.03.4.1.1.06.18.16.23.28.05.12.07.26.07.41v.68c0,.13-.06.24-.17.33-.11.09-.26.16-.45.23-.18.07-.38.13-.58.2-.2.07-.39.15-.57.25-.18.1-.33.23-.44.39-.11.16-.17.36-.17.61,0,.29.09.54.26.74.17.2.46.31.85.31.29,0,.53-.06.75-.18.21-.12.39-.29.54-.53,0,.19.07.35.18.49.11.14.35.21.7.21M59.53,6.41c-.15,0-.28-.05-.39-.16-.1-.11-.16-.29-.16-.54,0-.23.04-.42.13-.56.09-.14.2-.26.33-.34.13-.09.26-.18.38-.25.12-.08.22-.18.29-.29v1.79c-.09.13-.19.23-.28.28-.1.05-.2.08-.31.08M67.29,6.91v-.18c-.2,0-.35-.04-.43-.13-.08-.09-.13-.25-.13-.5v-2.35c0-.3-.02-.53-.07-.71s-.11-.32-.21-.43c-.09-.11-.21-.19-.36-.25-.15-.06-.35-.09-.6-.09-.31,0-.59.06-.84.18-.25.12-.45.33-.6.63v-.79c-.18.04-.38.07-.59.09-.21.02-.44.03-.69.03-.17,0-.36,0-.54-.03v.18c.22,0,.36.06.44.19.08.12.12.32.12.58v2.76c0,.24-.04.41-.13.5-.08.09-.23.13-.43.13v.18c.12,0,.29-.01.53-.02.23,0,.46-.01.68-.01s.42,0,.63.01c.2,0,.35.02.46.02v-.18c-.17,0-.29-.04-.36-.13-.07-.09-.11-.25-.11-.5v-2.43c0-.29.08-.53.25-.73.17-.19.37-.29.62-.29.15,0,.26.03.34.09.08.06.13.15.16.25.03.11.04.23.04.38v2.72c0,.24-.03.41-.1.5-.07.09-.19.13-.37.13v.18c.11,0,.27-.01.49-.02.21,0,.43-.01.65-.01s.43,0,.66.01c.22,0,.39.02.5.02M68.76,1.47c.24,0,.44-.06.58-.18.14-.12.21-.28.21-.49s-.07-.38-.21-.49c-.14-.12-.34-.18-.58-.18s-.44.06-.58.18c-.14.12-.21.28-.21.49s.07.37.21.49c.14.12.34.18.58.18M70,6.91v-.18c-.2,0-.35-.04-.43-.13-.08-.09-.13-.25-.13-.5v-3.81c-.18.04-.38.07-.59.09-.21.02-.44.03-.69.03-.18,0-.36,0-.54-.03v.18c.22,0,.36.06.44.19.08.12.12.32.12.58v2.76c0,.24-.04.41-.13.5-.08.09-.23.13-.43.13v.18c.12,0,.29-.01.53-.02.23,0,.46-.01.69-.01s.45,0,.67.01c.22,0,.39.02.49.02M20.46,11.89v-.6h.46c.38,0,.57-.2.57-.61,0-.2-.05-.34-.14-.44s-.24-.14-.43-.14h-.66v1.79h.2ZM20.91,11.11h-.45v-.84h.45c.13,0,.22.03.28.1.06.07.09.17.09.31,0,.29-.12.43-.37.43M21.99,10.1h-.2v1.79h.2v-1.79ZM22.47,11.89l.13-.46h.77l.13.46h.2l-.49-1.79h-.44l-.49,1.79h.2ZM23.32,11.25h-.68l.27-.98h.13l.27.98ZM24.17,11.89v-1.62h.05l.7,1.62h.37v-1.79h-.2v1.62h-.06l-.69-1.62h-.37v1.79h.2ZM26.36,11.92c.27,0,.45-.07.56-.21.1-.14.15-.38.15-.7s-.05-.56-.16-.71c-.1-.15-.29-.23-.55-.23s-.45.08-.55.23c-.1.15-.16.39-.16.7s.05.55.15.69c.1.15.29.22.56.22M26.36,11.74c-.2,0-.33-.06-.4-.17-.07-.11-.1-.3-.1-.57s.03-.45.1-.57c.07-.12.2-.18.4-.18s.33.06.4.18.11.31.11.58-.03.45-.1.57c-.07.11-.2.17-.4.17M28.2,11.89v-1.62h.05l.7,1.62h.37v-1.79h-.2v1.62h-.05l-.69-1.62h-.37v1.79h.2ZM29.8,11.89l.13-.46h.77l.13.46h.2l-.49-1.79h-.44l-.49,1.79h.2ZM30.65,11.25h-.68l.27-.98h.13l.27.98ZM32.36,11.89v-.18h-.94v-.05l.94-1.33v-.23h-1.17v.18h.94v.06l-.94,1.33v.23h1.17ZM32.89,10.1h-.2v1.79h.2v-1.79ZM33.96,11.92c.27,0,.45-.07.56-.21.1-.14.15-.38.15-.7s-.05-.56-.16-.71c-.1-.15-.29-.23-.55-.23s-.45.08-.55.23c-.1.15-.15.39-.15.7s.05.55.15.69c.1.15.29.22.56.22M33.96,11.74c-.2,0-.33-.06-.4-.17-.07-.11-.1-.3-.1-.57s.03-.45.1-.57c.07-.12.2-.18.4-.18s.33.06.4.18c.07.12.11.31.11.58s-.03.45-.1.57c-.07.11-.2.17-.4.17M35.24,11.89v-1.62h.05l.7,1.62h.36v-1.79h-.2v1.62h-.05l-.69-1.62h-.37v1.79h.2ZM36.83,11.89l.13-.46h.77l.13.46h.2l-.49-1.79h-.43l-.49,1.79h.2ZM37.68,11.25h-.68l.27-.98h.14l.27.98ZM39.32,11.89v-.18h-.79v-1.61h-.2v1.79h.99ZM40.66,11.89v-.18h-.89v-.65h.74v-.17h-.74v-.62h.89v-.18h-1.09v1.79h1.09ZM42.22,11.89c.13,0,.24-.02.33-.07.22-.12.34-.4.34-.85,0-.22-.03-.39-.08-.52-.1-.23-.29-.35-.58-.35h-.64v1.79h.64ZM42.22,11.71h-.44v-1.44h.44l.23.05c.15.09.23.3.23.64,0,.5-.15.75-.46.75M43.45,10.1h-.2v1.79h.2v-1.79ZM44.65,11.89v-.69h.51l.32.69h.22l-.35-.73c.22-.07.33-.24.33-.52,0-.19-.05-.32-.14-.41-.1-.09-.24-.13-.43-.13h-.66v1.79h.2ZM45.12,11.03h-.47v-.75h.46c.24,0,.37.13.37.38s-.12.38-.37.38M46.25,10.1h-.2v1.79h.2v-1.79ZM46.89,11.89v-.6h.46c.38,0,.57-.2.57-.61,0-.2-.05-.34-.14-.44-.09-.1-.24-.14-.43-.14h-.65v1.79h.2ZM47.34,11.11h-.45v-.84h.45c.13,0,.22.03.28.1.06.07.09.17.09.31,0,.29-.12.43-.37.43M48.42,11.89v-.69h.51l.32.69h.22l-.35-.73c.22-.07.33-.24.33-.52,0-.19-.05-.32-.14-.41-.1-.09-.24-.13-.43-.13h-.66v1.79h.2ZM48.89,11.03h-.47v-.75h.46c.25,0,.37.13.37.38s-.12.38-.37.38M50.91,11.89v-.18h-.89v-.65h.74v-.17h-.74v-.62h.89v-.18h-1.09v1.79h1.09ZM51.74,11.91c.38,0,.57-.18.57-.55,0-.15-.04-.25-.11-.32-.08-.06-.2-.12-.39-.16-.18-.04-.3-.08-.36-.12-.06-.04-.09-.12-.09-.22,0-.2.13-.29.39-.29.1,0,.27.01.51.04l.02-.17h-.09c-.18-.04-.33-.05-.45-.05-.39,0-.58.16-.58.48,0,.16.04.28.13.34.08.07.23.12.43.17.15.03.26.07.31.11.06.04.08.11.08.21,0,.24-.13.36-.38.36-.12,0-.3-.01-.54-.05l-.02.17h.09c.19.04.35.06.47.06M52.7,11.89l.13-.46h.77l.13.46h.2l-.49-1.79h-.43l-.49,1.79h.2ZM53.55,11.25h-.68l.27-.98h.14l.27.98ZM55.86,11.89v-.18h-.89v-.65h.74v-.17h-.74v-.62h.89v-.18h-1.09v1.79h1.09ZM56.97,11.89v-.69h.51l.32.69h.22l-.34-.73c.22-.07.33-.24.33-.52,0-.19-.05-.32-.14-.41-.1-.09-.24-.13-.43-.13h-.66v1.79h.2ZM57.44,11.03h-.47v-.75h.46c.24,0,.37.13.37.38s-.12.38-.37.38M59.46,11.89v-.18h-.89v-.65h.74v-.17h-.74v-.62h.89v-.18h-1.09v1.79h1.09ZM60.29,11.91c.38,0,.57-.18.57-.55,0-.15-.04-.25-.11-.32-.08-.06-.21-.12-.39-.16-.18-.04-.3-.08-.36-.12-.06-.04-.09-.12-.09-.22,0-.2.13-.29.39-.29.1,0,.27.01.51.04l.02-.17h-.09c-.18-.04-.33-.05-.45-.05-.39,0-.58.16-.58.48,0,.16.04.28.13.34.08.07.23.12.43.17.15.03.26.07.31.11.06.04.08.11.08.21,0,.24-.13.36-.38.36-.12,0-.3-.01-.54-.05l-.02.17h.09c.19.04.35.06.47.06M61.41,10.1h-.2v1.79h.2v-1.79ZM62.83,11.89v-.18h-.79v-1.61h-.2v1.79h.99ZM63.28,10.1h-.2v1.79h.2v-1.79ZM64.81,11.89v-.18h-.89v-.65h.73v-.17h-.73v-.62h.89v-.18h-1.09v1.79h1.09ZM65.35,11.89v-1.62h.05l.7,1.62h.37v-1.79h-.2v1.62h-.05l-.69-1.62h-.37v1.79h.2ZM67.96,11.89v-.18h-.94v-.05l.94-1.33v-.23h-1.17v.18h.94v.06l-.94,1.33v.23h1.17ZM68.33,11.89l.13-.46h.77l.13.46h.2l-.49-1.79h-.44l-.49,1.79h.2ZM69.19,11.25h-.68l.27-.98h.14l.27.98Z"/>
    <path class="cls-8" d="M15.77.87C14.27.58,12.77.29,11.28,0v3.84c.38.03.76.06,1.13.09v5.19c1.12-.09,2.24-.17,3.35-.26V.87Z"/>
    <path class="cls-2" d="M11.28,3.84c-.76-.06-1.51-.12-2.27-.18v8.1c-.38.05-.76.11-1.13.16v1.89c1.51-.29,3.02-.58,4.53-.88v-3.81c-.38.03-.76.06-1.13.09V3.84Z"/>
    <path class="cls-10" d="M11.28,3.84v5.38c.38-.03.76-.06,1.13-.09V3.93c-.38-.03-.76-.06-1.13-.09"/>
    <path class="cls-6" d="M9.01,3.66v-1.83c-1.51-.2-3.02-.4-4.53-.59v11.17c1.13-.16,2.27-.32,3.4-.48V3.57c.38.03.76.06,1.14.09"/>
  </g>
  <g class="cls-12">
    <rect class="cls-7" x="7.88" y="3.57" width="1.13" height="8.35"/>
  </g>
  <g class="cls-11">
    <polygon class="cls-9" points="0 4.85 0 4.85 0 3.69 0 3.69 0 4.85"/>
    <path class="cls-1" d="M1.1,4.89h0c-.37-.01-.73-.03-1.09-.04v-1.16c.36.02.73.04,1.09.06v1.13Z"/>
  </g>
  <g class="cls-14">
    <path class="cls-6" d="M2.43,6.25c-.37,0-.74,0-1.1-.01v-1.13c.37.01.74.02,1.1.04v1.11Z"/>
    <path class="cls-6" d="M5.09,6.28c-.37,0-.74,0-1.1-.01v-1.07l1.1.04v1.05Z"/>
    <path class="cls-3" d="M5.09,3.41c-.37-.03-.74-.05-1.1-.08v-1.07c.37.03.74.07,1.1.1v1.05Z"/>
    <path class="cls-3" d="M1.12,7.58c-.37,0-.74.01-1.1.02v-1.16c.37,0,.74,0,1.1,0v1.13Z"/>
    <path class="cls-6" d="M3.76,8.82c-.37.02-.74.03-1.1.05v-1.1c.37,0,.74-.01,1.1-.02v1.08Z"/>
    <path class="cls-3" d="M5.09,10.01c-.37.02-.74.05-1.1.07v-1.07c.37-.02.74-.03,1.1-.05v1.05Z"/>
    <path class="cls-3" d="M2.43,11.5c-.37.03-.74.07-1.1.1v-1.13c.37-.03.74-.05,1.1-.08v1.11Z"/>
    <path class="cls-6" d="M5.05,11.26c-.37.03-.74.07-1.1.1v-1.07l1.1-.08v1.05Z"/>
    <path class="cls-8" d="M9.64,1.44v-.84c-.27-.04-.55-.08-.82-.11v.86c.27.03.55.06.82.09"/>
    <path class="cls-8" d="M10.62,2.51v-.81c-.27-.03-.55-.06-.82-.09v.83c.27.02.55.04.82.06"/>
    <path class="cls-10" d="M10.62,4.46v-.81c-.27,0-.55-.02-.82-.03v.83c.27,0,.55,0,.82,0"/>
    <path class="cls-10" d="M11.06,6.73v-.79c-.27.01-.55.03-.82.04v.82c.27-.02.55-.05.82-.07"/>
    <path class="cls-10" d="M11.59,1.66v-.78c-.27-.04-.55-.08-.82-.11v.8c.27.03.55.06.82.09"/>
    <path class="cls-8" d="M11.59,5.4v-.78c-.27,0-.55,0-.82,0v.8c.27,0,.55-.02.82-.03"/>
    <path class="cls-8" d="M11.59,8.21v-.78c-.27.03-.55.06-.82.09v.8c.27-.04.55-.08.82-.11"/>
  </g>
</svg>