<?xml version="1.0" encoding="utf-8"?>
<!-- Generator: Adobe Illustrator 25.2.0, SVG Export Plug-In . SVG Version: 6.00 Build 0)  -->
<svg version="1.1" id="Layer_1" xmlns="http://www.w3.org/2000/svg" xmlns:xlink="http://www.w3.org/1999/xlink" x="0px" y="0px"
	 viewBox="0 0 70 13.8" style="enable-background:new 0 0 70 13.8;" xml:space="preserve">
<style type="text/css">
	.st0{fill:#F4DD4D;}
	.st1{clip-path:url(#SVGID_2_);}
	.st2{fill-rule:evenodd;clip-rule:evenodd;fill:#DB3037;}
	.st3{fill-rule:evenodd;clip-rule:evenodd;fill:#DFE0D9;}
	.st4{fill-rule:evenodd;clip-rule:evenodd;fill:#90262F;}
	.st5{fill-rule:evenodd;clip-rule:evenodd;fill:#21905D;}
	.st6{clip-path:url(#SVGID_4_);}
	.st7{fill:#44B868;}
	.st8{clip-path:url(#SVGID_6_);}
	.st9{fill:#FFFFFF;}
	.st10{fill:#22905D;}
	.st11{clip-path:url(#SVGID_8_);}
	.st12{fill-rule:evenodd;clip-rule:evenodd;fill:#44B868;}
</style>
<rect y="0" class="st0" width="70" height="13.8"/>
<g>
	<defs>
		<rect id="SVGID_1_" y="0" width="70" height="13.8"/>
	</defs>
	<clipPath id="SVGID_2_">
		<use xlink:href="#SVGID_1_"  style="overflow:visible;"/>
	</clipPath>
	<g class="st1">
		<path d="M22.2,6.9V6.7c-0.2,0-0.4,0-0.5-0.1c-0.1,0-0.2-0.1-0.2-0.2s0-0.3,0-0.5V1.6c0-0.2,0-0.4,0-0.5s0.1-0.2,0.2-0.2
			c0.1,0,0.2-0.1,0.5-0.1V0.7c-0.1,0-0.3,0-0.5,0c-0.2,0-0.4,0-0.6,0c-0.2,0-0.4,0-0.6,0c-0.2,0-0.4,0-0.5,0v0.2
			c0.2,0,0.4,0,0.5,0.1s0.2,0.1,0.2,0.2c0,0.1,0,0.3,0,0.5V6c0,0.2,0,0.4,0,0.5c0,0.1-0.1,0.2-0.2,0.2c-0.1,0-0.2,0.1-0.5,0.1v0.2
			c0.1,0,0.3,0,0.5,0c0.2,0,0.4,0,0.6,0c0.2,0,0.4,0,0.6,0S22.1,6.9,22.2,6.9 M24.5,7c0.4,0,0.6-0.1,0.8-0.3s0.3-0.5,0.4-0.9l-0.2,0
			c-0.1,0.3-0.2,0.6-0.3,0.7s-0.3,0.2-0.5,0.2s-0.3-0.1-0.4-0.2S24.1,6.2,24.1,6V2.6h1.3V2.4h-1.3V0.9C24,1,23.9,1,23.8,1
			c-0.1,0-0.3,0-0.4,0v1.3h-0.8v0.2h0.8v2.9c0,0.3,0,0.6,0.1,0.7c0,0.2,0.1,0.3,0.3,0.5c0.1,0.1,0.2,0.2,0.3,0.2
			C24.2,7,24.3,7,24.5,7L24.5,7L24.5,7z M29.1,7c0.2,0,0.3,0,0.5-0.1s0.2-0.1,0.4-0.2l-0.1-0.2l-0.2,0.1l-0.2,0.1
			c-0.1,0-0.2,0-0.2-0.1s-0.1-0.2-0.1-0.3V3.8c0-0.3,0-0.5-0.1-0.7S29,2.7,28.8,2.6c-0.1-0.1-0.2-0.2-0.4-0.2
			c-0.2-0.1-0.4-0.1-0.6-0.1c-0.3,0-0.5,0-0.7,0.1s-0.4,0.2-0.5,0.2c-0.1,0.1-0.2,0.2-0.3,0.3c-0.1,0.1-0.1,0.2-0.1,0.4
			c0,0.1,0,0.3,0.1,0.4c0.1,0.1,0.2,0.2,0.4,0.2c0.1,0,0.3,0,0.4-0.1c0.1-0.1,0.1-0.2,0.1-0.3s0-0.3-0.1-0.4
			c-0.1-0.1-0.2-0.2-0.3-0.2c0.1-0.1,0.2-0.2,0.4-0.2s0.3-0.1,0.5-0.1s0.3,0,0.4,0.1c0.1,0,0.2,0.1,0.3,0.3c0.1,0.1,0.1,0.3,0.1,0.6
			v0.5c0,0.1-0.1,0.2-0.2,0.3c-0.1,0.1-0.3,0.2-0.5,0.2s-0.4,0.1-0.6,0.2s-0.4,0.2-0.6,0.3c-0.2,0.1-0.3,0.2-0.5,0.4
			c-0.1,0.2-0.2,0.4-0.2,0.6c0,0.3,0.1,0.6,0.3,0.8s0.5,0.3,0.8,0.3c0.3,0,0.5-0.1,0.7-0.2c0.2-0.1,0.5-0.3,0.6-0.6
			c0,0.2,0,0.4,0.1,0.5S28.9,6.9,29.1,7 M27.4,6.6c-0.2,0-0.4-0.1-0.5-0.2c-0.1-0.1-0.2-0.3-0.2-0.6c0-0.3,0.1-0.5,0.2-0.7
			s0.3-0.3,0.5-0.4c0.2-0.1,0.4-0.2,0.6-0.2s0.3-0.2,0.4-0.3v1.7c-0.1,0.2-0.3,0.4-0.5,0.5C27.7,6.6,27.6,6.6,27.4,6.6 M32.2,6.9
			V6.7c-0.2,0-0.4,0-0.5-0.1s-0.1-0.2-0.1-0.5V0c-0.1,0-0.3,0.1-0.4,0.1s-0.3,0-0.5,0s-0.4,0-0.5,0v0.2c0.3,0,0.4,0.1,0.5,0.2
			s0.1,0.3,0.1,0.6v5c0,0.2,0,0.4-0.1,0.5s-0.3,0.1-0.5,0.1v0.2c0.1,0,0.2,0,0.5,0c0.2,0,0.4,0,0.6,0s0.4,0,0.6,0
			C32,6.9,32.2,6.9,32.2,6.9 M33.7,1.3c0.2,0,0.3-0.1,0.4-0.2s0.2-0.2,0.2-0.4s-0.1-0.3-0.2-0.4s-0.2-0.2-0.4-0.2s-0.3,0-0.4,0.2
			s-0.2,0.2-0.2,0.4s0.1,0.3,0.2,0.4C33.4,1.3,33.6,1.3,33.7,1.3 M34.8,6.9V6.7c-0.2,0-0.4,0-0.5-0.1s-0.2-0.2-0.2-0.5V2.3
			c-0.1,0-0.3,0.1-0.4,0.1c-0.2,0-0.3,0-0.5,0s-0.4,0-0.5,0v0.2c0.3,0,0.4,0.1,0.5,0.2c0.1,0.1,0.1,0.3,0.1,0.6v2.7
			c0,0.2,0,0.4-0.2,0.5c-0.1,0.1-0.3,0.1-0.5,0.1v0.2c0.1,0,0.2,0,0.5,0c0.2,0,0.4,0,0.6,0s0.4,0,0.6,0C34.6,6.9,34.7,6.9,34.8,6.9
			L34.8,6.9L34.8,6.9z M38.6,7c0.2,0,0.3,0,0.5-0.1s0.2-0.1,0.3-0.2l-0.1-0.2l-0.2,0.1l-0.2,0.1c-0.1,0-0.2,0-0.2-0.1
			c0-0.1-0.1-0.2-0.1-0.3V3.8c0-0.3,0-0.5-0.1-0.7s-0.2-0.4-0.3-0.5c-0.1-0.1-0.2-0.2-0.4-0.2c-0.2-0.1-0.4-0.1-0.6-0.1
			c-0.3,0-0.5,0-0.7,0.1c-0.2,0.1-0.4,0.2-0.5,0.2c-0.1,0.1-0.2,0.2-0.3,0.3s-0.1,0.2-0.1,0.4c0,0.1,0,0.3,0.1,0.4
			c0.1,0.1,0.2,0.2,0.4,0.2c0.2,0,0.3,0,0.4-0.1c0.1-0.1,0.1-0.2,0.1-0.3s0-0.3-0.1-0.4c-0.1-0.1-0.2-0.2-0.3-0.2
			c0.1-0.1,0.2-0.2,0.4-0.2s0.3-0.1,0.5-0.1s0.3,0,0.4,0.1s0.2,0.1,0.3,0.3s0.1,0.3,0.1,0.6v0.5c0,0.1-0.1,0.2-0.2,0.3
			c-0.1,0.1-0.3,0.2-0.5,0.2c-0.2,0.1-0.4,0.1-0.6,0.2S36.2,4.8,36,4.9c-0.2,0.1-0.3,0.2-0.5,0.4s-0.2,0.4-0.2,0.6
			c0,0.3,0.1,0.6,0.3,0.8s0.5,0.3,0.8,0.3c0.3,0,0.5-0.1,0.7-0.2c0.2-0.1,0.5-0.3,0.6-0.6c0,0.2,0,0.4,0.2,0.5
			C38.1,6.9,38.3,6.9,38.6,7 M36.8,6.6c-0.2,0-0.4-0.1-0.5-0.2c-0.1-0.1-0.2-0.3-0.2-0.6c0-0.3,0.1-0.5,0.2-0.7s0.3-0.3,0.5-0.4
			c0.2-0.1,0.4-0.2,0.6-0.2s0.3-0.2,0.4-0.3v1.7c-0.2,0.2-0.3,0.4-0.5,0.5C37.2,6.6,37,6.6,36.8,6.6 M41.5,7c0.3,0,0.6-0.1,0.8-0.2
			c0.2-0.1,0.3-0.3,0.4-0.5v0V7c0.2,0,0.3-0.1,0.5-0.1h0.1c0.2,0,0.4,0,0.7,0c0.2,0,0.4,0,0.5,0V6.7c-0.2,0-0.4-0.1-0.4-0.2
			c-0.1-0.1-0.1-0.3-0.1-0.6V0c-0.2,0-0.4,0.1-0.6,0.1c-0.2,0-0.4,0-0.7,0c-0.2,0-0.4,0-0.5,0v0.2c0.2,0,0.4,0.1,0.4,0.2
			c0.1,0.1,0.1,0.3,0.1,0.6v1.5l0,0l-0.2-0.2l-0.1,0c-0.2-0.1-0.4-0.1-0.7-0.1c-0.4,0-0.7,0.1-1,0.3c-0.3,0.2-0.5,0.4-0.7,0.8
			c-0.2,0.3-0.2,0.8-0.2,1.3c0,0.6,0.1,1,0.2,1.4c0.2,0.3,0.4,0.6,0.6,0.8S41.2,7,41.5,7 M41.9,6.6c-0.2,0-0.3-0.1-0.4-0.2
			c-0.1-0.1-0.2-0.3-0.3-0.6C41.1,5.5,41,5.1,41,4.6c0-0.7,0.1-1.3,0.2-1.6s0.4-0.5,0.7-0.5c0.1,0,0.3,0,0.4,0.1l0.2,0.2v0v3.1v0.1
			c0,0.2-0.1,0.3-0.2,0.4l0,0.1C42.2,6.6,42,6.7,41.9,6.6 M47.1,7c0.4,0,0.8-0.1,1.1-0.2S48.8,6.4,49,6s0.3-0.8,0.3-1.4
			s-0.1-1-0.3-1.4s-0.4-0.6-0.8-0.8s-0.7-0.2-1.1-0.2S46.3,2.3,46,2.5c-0.3,0.2-0.6,0.4-0.8,0.8c-0.2,0.3-0.3,0.8-0.3,1.4
			s0.1,1,0.3,1.4c0.2,0.3,0.4,0.6,0.8,0.8C46.3,6.9,46.7,7,47.1,7C47.1,7,47.1,7,47.1,7z M47.1,6.8c-0.2,0-0.4-0.2-0.6-0.5
			c-0.2-0.3-0.2-0.9-0.2-1.7s0.1-1.3,0.2-1.7c0.2-0.3,0.3-0.5,0.6-0.5s0.4,0.2,0.6,0.5s0.2,0.9,0.2,1.7S47.8,6,47.7,6.3
			S47.3,6.8,47.1,6.8 M57.4,6.9V6.7c-0.2,0-0.3,0-0.4-0.1s-0.1-0.2-0.1-0.5V3.7c0-0.3,0-0.5-0.1-0.7c0-0.2-0.1-0.3-0.2-0.4
			c-0.1-0.1-0.2-0.2-0.4-0.2c-0.2-0.1-0.3-0.1-0.6-0.1c-0.3,0-0.6,0.1-0.8,0.2c-0.3,0.1-0.5,0.4-0.6,0.7v0v0V3
			c0-0.2-0.1-0.3-0.2-0.4c-0.1-0.1-0.2-0.2-0.4-0.2c-0.2-0.1-0.3-0.1-0.6-0.1c-0.3,0-0.5,0.1-0.8,0.2s-0.4,0.3-0.6,0.6V2.3
			c-0.2,0-0.4,0.1-0.6,0.1s-0.4,0-0.7,0c-0.2,0-0.4,0-0.5,0v0.2c0.2,0,0.4,0.1,0.4,0.2c0.1,0.1,0.1,0.3,0.1,0.6v2.8
			c0,0.2,0,0.4-0.1,0.5c-0.1,0.1-0.2,0.1-0.4,0.1v0.2c0.1,0,0.3,0,0.5,0c0.2,0,0.5,0,0.7,0c0.2,0,0.4,0,0.6,0c0.2,0,0.3,0,0.4,0V6.7
			c-0.2,0-0.3,0-0.3-0.1s-0.1-0.2-0.1-0.5V3.7c0-0.2,0-0.4,0.1-0.5C51.8,3,51.9,2.9,52,2.8c0.1-0.1,0.3-0.1,0.4-0.1
			c0.1,0,0.2,0,0.3,0.1c0.1,0.1,0.1,0.2,0.1,0.2c0,0.1,0,0.2,0,0.4v2.7c0,0.2,0,0.4-0.1,0.5s-0.2,0.1-0.3,0.1v0.2c0.1,0,0.3,0,0.5,0
			c0.2,0,0.4,0,0.6,0s0.4,0,0.6,0c0.2,0,0.4,0,0.5,0V6.7c-0.2,0-0.3,0-0.4-0.1c-0.1-0.1-0.1-0.2-0.1-0.5V3.6v0V3.5
			c0-0.2,0.1-0.4,0.2-0.5l0-0.1c0.2-0.2,0.4-0.3,0.6-0.3c0.2,0,0.3,0,0.3,0.1c0.1,0.1,0.1,0.2,0.2,0.2c0,0.1,0,0.2,0,0.4v2.7
			c0,0.2,0,0.4-0.1,0.5s-0.2,0.1-0.3,0.1v0.2c0.1,0,0.3,0,0.5,0c0.2,0,0.4,0,0.6,0s0.4,0,0.7,0C57.1,6.9,57.3,6.9,57.4,6.9 M61,7
			c0.2,0,0.4,0,0.5-0.1c0.2-0.1,0.3-0.1,0.4-0.2l-0.1-0.2l-0.2,0.1l-0.2,0l-0.2-0.1c0-0.1,0-0.2,0-0.3V3.9c0-0.3,0-0.5-0.1-0.7
			c0-0.2-0.1-0.4-0.3-0.5c-0.2-0.2-0.3-0.2-0.5-0.3c-0.2,0-0.5-0.1-0.7-0.1s-0.5,0-0.8,0.1s-0.4,0.1-0.6,0.2
			c-0.2,0.1-0.3,0.2-0.3,0.3S58,3.1,58,3.3c0,0.2,0,0.3,0.2,0.5C58.2,3.9,58.4,4,58.6,4c0.2,0,0.3-0.1,0.5-0.2
			c0.1-0.1,0.2-0.3,0.2-0.5c0-0.2,0-0.3-0.1-0.4c-0.1-0.1-0.2-0.2-0.4-0.3c0.1-0.1,0.2-0.1,0.3-0.2c0.1,0,0.2,0,0.3,0
			c0.2,0,0.3,0,0.4,0.1c0.1,0.1,0.2,0.2,0.2,0.3s0.1,0.3,0.1,0.4v0.7c0,0.1-0.1,0.2-0.2,0.3c-0.1,0.1-0.3,0.2-0.5,0.2
			c-0.2,0.1-0.4,0.1-0.6,0.2c-0.2,0.1-0.4,0.2-0.6,0.2S58,5.2,57.9,5.3c-0.1,0.2-0.2,0.4-0.2,0.6c0,0.3,0.1,0.5,0.3,0.7
			S58.5,7,58.9,7c0.3,0,0.5-0.1,0.8-0.2c0.2-0.1,0.4-0.3,0.5-0.5c0,0.2,0.1,0.3,0.2,0.5S60.7,7,61,7 M59.5,6.4
			c-0.2,0-0.3-0.1-0.4-0.2C59,6.1,59,6,59,5.7c0-0.2,0-0.4,0.1-0.6s0.2-0.3,0.3-0.3c0.1-0.1,0.3-0.2,0.4-0.2
			c0.1-0.1,0.2-0.2,0.3-0.3v1.8c-0.1,0.1-0.2,0.2-0.3,0.3C59.7,6.4,59.6,6.4,59.5,6.4 M67.3,6.9V6.7c-0.2,0-0.3,0-0.4-0.1
			s-0.1-0.2-0.1-0.5V3.7c0-0.3,0-0.5-0.1-0.7s-0.1-0.3-0.2-0.4c-0.1-0.1-0.2-0.2-0.4-0.2s-0.3-0.1-0.6-0.1c-0.3,0-0.6,0.1-0.8,0.2
			c-0.2,0.1-0.4,0.3-0.6,0.6V2.3c-0.2,0-0.4,0.1-0.6,0.1s-0.4,0-0.7,0c-0.2,0-0.4,0-0.5,0v0.2c0.2,0,0.4,0.1,0.4,0.2
			c0.1,0.1,0.1,0.3,0.1,0.6v2.8c0,0.2,0,0.4-0.1,0.5c-0.1,0.1-0.2,0.1-0.4,0.1v0.2c0.1,0,0.3,0,0.5,0c0.2,0,0.5,0,0.7,0s0.4,0,0.6,0
			c0.2,0,0.3,0,0.5,0V6.7c-0.2,0-0.3,0-0.4-0.1s-0.1-0.2-0.1-0.5V3.7c0-0.3,0.1-0.5,0.2-0.7c0.2-0.2,0.4-0.3,0.6-0.3
			c0.2,0,0.3,0,0.3,0.1c0.1,0.1,0.1,0.2,0.2,0.2c0,0.1,0,0.2,0,0.4v2.7c0,0.2,0,0.4-0.1,0.5S65.2,6.7,65,6.7v0.2c0.1,0,0.3,0,0.5,0
			c0.2,0,0.4,0,0.7,0s0.4,0,0.7,0C67,6.9,67.2,6.9,67.3,6.9 M68.8,1.5c0.2,0,0.4-0.1,0.6-0.2s0.2-0.3,0.2-0.5s-0.1-0.4-0.2-0.5
			c-0.1-0.1-0.3-0.2-0.6-0.2s-0.4,0.1-0.6,0.2S68,0.6,68,0.8s0.1,0.4,0.2,0.5S68.5,1.5,68.8,1.5 M70,6.9V6.7c-0.2,0-0.3,0-0.4-0.1
			s-0.1-0.2-0.1-0.5V2.3c-0.2,0-0.4,0.1-0.6,0.1s-0.4,0-0.7,0c-0.2,0-0.4,0-0.5,0v0.2c0.2,0,0.4,0.1,0.4,0.2
			c0.1,0.1,0.1,0.3,0.1,0.6v2.8c0,0.2,0,0.4-0.1,0.5c-0.1,0.1-0.2,0.1-0.4,0.1v0.2c0.1,0,0.3,0,0.5,0c0.2,0,0.5,0,0.7,0s0.4,0,0.7,0
			C69.7,6.9,69.9,6.9,70,6.9 M20.5,11.9v-0.6h0.5c0.4,0,0.6-0.2,0.6-0.6c0-0.2,0-0.3-0.1-0.4s-0.2-0.1-0.4-0.1h-0.7v1.8H20.5z
			 M20.9,11.1h-0.5v-0.8h0.5c0.1,0,0.2,0,0.3,0.1c0.1,0.1,0.1,0.2,0.1,0.3C21.3,11,21.2,11.1,20.9,11.1 M22,10.1h-0.2v1.8H22V10.1z
			 M22.5,11.9l0.1-0.5h0.8l0.1,0.5h0.2l-0.5-1.8h-0.4l-0.5,1.8H22.5L22.5,11.9z M23.3,11.2h-0.7l0.3-1H23L23.3,11.2L23.3,11.2z
			 M24.2,11.9v-1.6h0l0.7,1.6h0.4v-1.8h-0.2v1.6H25l-0.7-1.6H24v1.8H24.2z M26.4,11.9c0.3,0,0.5-0.1,0.6-0.2
			c0.1-0.1,0.1-0.4,0.1-0.7s0-0.6-0.2-0.7c-0.1-0.1-0.3-0.2-0.5-0.2s-0.5,0.1-0.5,0.2c-0.1,0.1-0.2,0.4-0.2,0.7s0,0.6,0.1,0.7
			C25.9,11.8,26.1,11.9,26.4,11.9 M26.4,11.7c-0.2,0-0.3-0.1-0.4-0.2s-0.1-0.3-0.1-0.6s0-0.4,0.1-0.6s0.2-0.2,0.4-0.2
			s0.3,0.1,0.4,0.2s0.1,0.3,0.1,0.6s0,0.4-0.1,0.6C26.7,11.7,26.6,11.7,26.4,11.7 M28.2,11.9v-1.6h0l0.7,1.6h0.4v-1.8h-0.2v1.6h0
			l-0.7-1.6H28v1.8H28.2L28.2,11.9z M29.8,11.9l0.1-0.5h0.8l0.1,0.5H31l-0.5-1.8h-0.4l-0.5,1.8H29.8L29.8,11.9z M30.6,11.2H30l0.3-1
			h0.1L30.6,11.2L30.6,11.2z M32.4,11.9v-0.2h-0.9v-0.1l0.9-1.3v-0.2h-1.2v0.2h0.9v0.1l-0.9,1.3v0.2L32.4,11.9L32.4,11.9z
			 M32.9,10.1h-0.2v1.8h0.2V10.1z M34,11.9c0.3,0,0.5-0.1,0.6-0.2c0.1-0.1,0.2-0.4,0.2-0.7s0-0.6-0.2-0.7c-0.1-0.1-0.3-0.2-0.5-0.2
			s-0.5,0.1-0.5,0.2s-0.2,0.4-0.2,0.7s0,0.6,0.2,0.7C33.5,11.8,33.7,11.9,34,11.9 M34,11.7c-0.2,0-0.3-0.1-0.4-0.2s-0.1-0.3-0.1-0.6
			s0-0.4,0.1-0.6s0.2-0.2,0.4-0.2s0.3,0.1,0.4,0.2s0.1,0.3,0.1,0.6s0,0.4-0.1,0.6C34.3,11.7,34.2,11.7,34,11.7 M35.2,11.9v-1.6h0
			l0.7,1.6h0.4v-1.8h-0.2v1.6h0l-0.7-1.6H35v1.8C35,11.9,35.2,11.9,35.2,11.9z M36.8,11.9l0.1-0.5h0.8l0.1,0.5h0.2l-0.5-1.8h-0.4
			l-0.5,1.8H36.8L36.8,11.9z M37.7,11.2H37l0.3-1h0.1L37.7,11.2z M39.3,11.9v-0.2h-0.8v-1.6h-0.2v1.8H39.3z M40.7,11.9v-0.2h-0.9
			v-0.6h0.7v-0.2h-0.7v-0.6h0.9v-0.2h-1.1v1.8L40.7,11.9L40.7,11.9z M42.2,11.9c0.1,0,0.2,0,0.3-0.1c0.2-0.1,0.3-0.4,0.3-0.9
			c0-0.2,0-0.4-0.1-0.5c-0.1-0.2-0.3-0.4-0.6-0.4h-0.6v1.8H42.2L42.2,11.9z M42.2,11.7h-0.4v-1.4h0.4l0.2,0.1
			c0.2,0.1,0.2,0.3,0.2,0.6C42.7,11.5,42.5,11.7,42.2,11.7 M43.5,10.1h-0.2v1.8h0.2V10.1z M44.7,11.9v-0.7h0.5l0.3,0.7h0.2l-0.3-0.7
			c0.2-0.1,0.3-0.2,0.3-0.5c0-0.2,0-0.3-0.1-0.4c-0.1-0.1-0.2-0.1-0.4-0.1h-0.7v1.8C44.5,11.9,44.7,11.9,44.7,11.9z M45.1,11h-0.5
			v-0.8h0.5c0.2,0,0.4,0.1,0.4,0.4S45.4,11,45.1,11 M46.2,10.1H46v1.8h0.2V10.1z M46.9,11.9v-0.6h0.5c0.4,0,0.6-0.2,0.6-0.6
			c0-0.2,0-0.3-0.1-0.4c-0.1-0.1-0.2-0.1-0.4-0.1h-0.7v1.8H46.9L46.9,11.9z M47.3,11.1h-0.5v-0.8h0.5c0.1,0,0.2,0,0.3,0.1
			c0.1,0.1,0.1,0.2,0.1,0.3C47.7,11,47.6,11.1,47.3,11.1 M48.4,11.9v-0.7h0.5l0.3,0.7h0.2l-0.3-0.7c0.2-0.1,0.3-0.2,0.3-0.5
			c0-0.2,0-0.3-0.1-0.4c-0.1-0.1-0.2-0.1-0.4-0.1h-0.7v1.8C48.2,11.9,48.4,11.9,48.4,11.9z M48.9,11h-0.5v-0.8h0.5
			c0.2,0,0.4,0.1,0.4,0.4S49.1,11,48.9,11 M50.9,11.9v-0.2H50v-0.6h0.7v-0.2H50v-0.6h0.9v-0.2h-1.1v1.8L50.9,11.9L50.9,11.9z
			 M51.7,11.9c0.4,0,0.6-0.2,0.6-0.6c0-0.1,0-0.2-0.1-0.3c-0.1-0.1-0.2-0.1-0.4-0.2c-0.2,0-0.3-0.1-0.4-0.1s-0.1-0.1-0.1-0.2
			c0-0.2,0.1-0.3,0.4-0.3c0.1,0,0.3,0,0.5,0l0-0.2h-0.1c-0.2,0-0.3-0.1-0.5-0.1c-0.4,0-0.6,0.2-0.6,0.5c0,0.2,0,0.3,0.1,0.3
			c0.1,0.1,0.2,0.1,0.4,0.2c0.2,0,0.3,0.1,0.3,0.1c0.1,0,0.1,0.1,0.1,0.2c0,0.2-0.1,0.4-0.4,0.4c-0.1,0-0.3,0-0.5-0.1l0,0.2h0.1
			C51.4,11.9,51.6,11.9,51.7,11.9 M52.7,11.9l0.1-0.5h0.8l0.1,0.5h0.2l-0.5-1.8H53l-0.5,1.8H52.7L52.7,11.9z M53.5,11.2h-0.7l0.3-1
			h0.1L53.5,11.2z M55.9,11.9v-0.2H55v-0.6h0.7v-0.2H55v-0.6h0.9v-0.2h-1.1v1.8L55.9,11.9L55.9,11.9z M57,11.9v-0.7h0.5l0.3,0.7H58
			l-0.3-0.7c0.2-0.1,0.3-0.2,0.3-0.5c0-0.2,0-0.3-0.1-0.4c-0.1-0.1-0.2-0.1-0.4-0.1h-0.7v1.8L57,11.9L57,11.9z M57.4,11H57v-0.8h0.5
			c0.2,0,0.4,0.1,0.4,0.4S57.7,11,57.4,11 M59.5,11.9v-0.2h-0.9v-0.6h0.7v-0.2h-0.7v-0.6h0.9v-0.2h-1.1v1.8L59.5,11.9L59.5,11.9z
			 M60.3,11.9c0.4,0,0.6-0.2,0.6-0.6c0-0.1,0-0.2-0.1-0.3c-0.1-0.1-0.2-0.1-0.4-0.2s-0.3-0.1-0.4-0.1s-0.1-0.1-0.1-0.2
			c0-0.2,0.1-0.3,0.4-0.3c0.1,0,0.3,0,0.5,0l0-0.2h-0.1c-0.2,0-0.3-0.1-0.5-0.1c-0.4,0-0.6,0.2-0.6,0.5c0,0.2,0,0.3,0.1,0.3
			c0.1,0.1,0.2,0.1,0.4,0.2c0.2,0,0.3,0.1,0.3,0.1c0.1,0,0.1,0.1,0.1,0.2c0,0.2-0.1,0.4-0.4,0.4c-0.1,0-0.3,0-0.5-0.1l0,0.2h0.1
			C60,11.9,60.2,11.9,60.3,11.9 M61.4,10.1h-0.2v1.8h0.2V10.1z M62.8,11.9v-0.2H62v-1.6h-0.2v1.8H62.8z M63.3,10.1h-0.2v1.8h0.2
			V10.1z M64.8,11.9v-0.2h-0.9v-0.6h0.7v-0.2h-0.7v-0.6h0.9v-0.2h-1.1v1.8L64.8,11.9L64.8,11.9z M65.3,11.9v-1.6h0.1l0.7,1.6h0.4
			v-1.8h-0.2v1.6h-0.1l-0.7-1.6h-0.4v1.8H65.3L65.3,11.9z M68,11.9v-0.2H67v-0.1l0.9-1.3v-0.2h-1.2v0.2h0.9v0.1l-0.9,1.3v0.2
			L68,11.9L68,11.9z M68.3,11.9l0.1-0.5h0.8l0.1,0.5h0.2l-0.5-1.8h-0.4l-0.5,1.8H68.3L68.3,11.9z M69.2,11.2h-0.7l0.3-1h0.1
			C68.9,10.3,69.2,11.2,69.2,11.2z"/>
		<path class="st2" d="M15.8,0.9c-1.5-0.3-3-0.6-4.5-0.9v3.8c0.4,0,0.8,0.1,1.1,0.1v5.2c1.1-0.1,2.2-0.2,3.4-0.3L15.8,0.9L15.8,0.9z
			"/>
		<path class="st3" d="M11.3,3.8C10.5,3.8,9.8,3.7,9,3.7v8.1c-0.4,0.1-0.8,0.1-1.1,0.2v1.9c1.5-0.3,3-0.6,4.5-0.9V9.1
			c-0.4,0-0.8,0.1-1.1,0.1V3.8z"/>
		<path class="st4" d="M11.3,3.8v5.4c0.4,0,0.8-0.1,1.1-0.1V3.9C12,3.9,11.6,3.9,11.3,3.8"/>
		<path class="st5" d="M9,3.7V1.8C7.5,1.6,6,1.4,4.5,1.2v11.2c1.1-0.2,2.3-0.3,3.4-0.5V3.6C8.3,3.6,8.6,3.6,9,3.7"/>
	</g>
</g>
<g>
	<defs>
		<path id="SVGID_3_" d="M7.9,11.9L7.9,11.9c0.4-0.1,0.8-0.1,1.1-0.2V3.7c-0.4,0-0.8-0.1-1.1-0.1V11.9z"/>
	</defs>
	<clipPath id="SVGID_4_">
		<use xlink:href="#SVGID_3_"  style="overflow:visible;"/>
	</clipPath>
	<g class="st6">
		<rect x="7.9" y="3.6" class="st7" width="1.1" height="8.4"/>
	</g>
</g>
<g>
	<defs>
		<rect id="SVGID_5_" y="3.7" width="1.1" height="1.2"/>
	</defs>
	<clipPath id="SVGID_6_">
		<use xlink:href="#SVGID_5_"  style="overflow:visible;"/>
	</clipPath>
	<g class="st8">
		<polygon class="st9" points="0,4.8 0,4.8 0,3.7 0,3.7 		"/>
		<path class="st10" d="M1.1,4.9L1.1,4.9c-0.4,0-0.7,0-1.1,0V3.7c0.4,0,0.7,0,1.1,0.1V4.9L1.1,4.9z"/>
	</g>
</g>
<g>
	<defs>
		<rect id="SVGID_7_" y="0" width="70" height="13.8"/>
	</defs>
	<clipPath id="SVGID_8_">
		<use xlink:href="#SVGID_7_"  style="overflow:visible;"/>
	</clipPath>
	<g class="st11">
		<path class="st5" d="M2.4,6.2c-0.4,0-0.7,0-1.1,0V5.1c0.4,0,0.7,0,1.1,0V6.2L2.4,6.2z"/>
		<path class="st5" d="M5.1,6.3c-0.4,0-0.7,0-1.1,0V5.2l1.1,0V6.3L5.1,6.3z"/>
		<path class="st12" d="M5.1,3.4c-0.4,0-0.7,0-1.1-0.1V2.3c0.4,0,0.7,0.1,1.1,0.1V3.4z"/>
		<path class="st12" d="M1.1,7.6c-0.4,0-0.7,0-1.1,0V6.4c0.4,0,0.7,0,1.1,0V7.6L1.1,7.6z"/>
		<path class="st5" d="M3.8,8.8c-0.4,0-0.7,0-1.1,0.1V7.8c0.4,0,0.7,0,1.1,0L3.8,8.8L3.8,8.8z"/>
		<path class="st12" d="M5.1,10c-0.4,0-0.7,0.1-1.1,0.1V9C4.4,9,4.7,9,5.1,9V10z"/>
		<path class="st12" d="M2.4,11.5c-0.4,0-0.7,0.1-1.1,0.1v-1.1c0.4,0,0.7-0.1,1.1-0.1V11.5z"/>
		<path class="st5" d="M5.1,11.3c-0.4,0-0.7,0.1-1.1,0.1v-1.1l1.1-0.1C5.1,10.2,5.1,11.3,5.1,11.3z"/>
		<path class="st2" d="M9.6,1.4V0.6c-0.3,0-0.6-0.1-0.8-0.1v0.9C9.1,1.4,9.4,1.4,9.6,1.4"/>
		<path class="st2" d="M10.6,2.5V1.7c-0.3,0-0.6-0.1-0.8-0.1v0.8C10.1,2.5,10.4,2.5,10.6,2.5"/>
		<path class="st4" d="M10.6,4.5V3.6c-0.3,0-0.6,0-0.8,0v0.8C10.1,4.4,10.4,4.4,10.6,4.5"/>
		<path class="st4" d="M11.1,6.7V5.9c-0.3,0-0.6,0-0.8,0v0.8C10.5,6.8,10.8,6.7,11.1,6.7"/>
		<path class="st4" d="M11.6,1.7V0.9c-0.3,0-0.6-0.1-0.8-0.1v0.8C11,1.6,11.3,1.6,11.6,1.7"/>
		<path class="st2" d="M11.6,5.4V4.6c-0.3,0-0.6,0-0.8,0v0.8C11,5.4,11.3,5.4,11.6,5.4"/>
		<path class="st2" d="M11.6,8.2V7.4c-0.3,0-0.6,0.1-0.8,0.1v0.8C11,8.3,11.3,8.2,11.6,8.2"/>
	</g>
</g>
</svg>
