<svg xmlns="http://www.w3.org/2000/svg" viewBox="0 0 528 215.87"><defs><style>.cls-1{fill:#fff;stroke-width:5px;}.cls-1,.cls-2,.cls-6{stroke:#000;}.cls-1,.cls-3,.cls-4,.cls-5,.cls-6{stroke-miterlimit:10;}.cls-2{fill:none;stroke-linecap:round;stroke-linejoin:round;stroke-width:3px;}.cls-3{fill:#d83c65;stroke:#d83c65;}.cls-3,.cls-4,.cls-5,.cls-6{stroke-width:2px;}.cls-4{fill:#604cc3;stroke:#604cc3;}.cls-5{fill:#eeccb4;stroke:#eeccb4;}</style></defs><g id="Layer_2" data-name="Layer 2"><g id="bagging"><path class="cls-1" d="M525.46,201.08c-163.14-.32-151.74-186.27-262-186.27s-98.84,186-262,186.27"/><line id="base" class="cls-2" x1="1.5" y1="209.6" x2="525.5" y2="209.6"/><g id="coloredbags"><g id="redbag"><circle id="_4" data-name="4" class="cls-3" cx="124.57" cy="142.43" r="13.43"/><circle id="_4-2" data-name="4" class="cls-3" cx="303.57" cy="23.43" r="13.43"/><circle id="_4-3" data-name="4" class="cls-3" cx="372.57" cy="100.43" r="13.43"/><circle id="_4-4" data-name="4" class="cls-3" cx="403.57" cy="145.43" r="13.43"/></g><g id="bluebag"><circle id="_4-5" data-name="4" class="cls-4" cx="446.57" cy="180.43" r="13.43"/><circle id="_4-6" data-name="4" class="cls-4" cx="359.57" cy="87.43" r="13.43"/><circle id="_4-7" data-name="4" class="cls-4" cx="181.57" cy="60.43" r="13.43"/><circle id="_4-8" data-name="4" class="cls-4" cx="268.57" cy="14.43" r="13.43"/></g><g id="beigebag"><circle id="_4-9" data-name="4" class="cls-5" cx="82.57" cy="180.43" r="13.43"/><circle id="_4-10" data-name="4" class="cls-5" cx="208.57" cy="30.43" r="13.43"/><circle id="_4-11" data-name="4" class="cls-5" cx="284.57" cy="14.43" r="13.43"/><circle id="_4-12" data-name="4" class="cls-5" cx="334.57" cy="50.43" r="13.43"/></g><g id="blackbag"><circle id="_4-13" data-name="4" class="cls-6" cx="16.57" cy="196.43" r="13.43"/><circle id="_4-14" data-name="4" class="cls-6" cx="235.57" cy="17.43" r="13.43"/><circle id="_4-15" data-name="4" class="cls-6" cx="156.57" cy="100.43" r="13.43"/><circle id="_4-16" data-name="4" class="cls-6" cx="513.57" cy="201.43" r="13.43"/></g></g></g></g></svg>