<svg xmlns="http://www.w3.org/2000/svg" viewBox="0 0 432 132"><defs><style>.cls-1{fill:#fff;}.cls-2{font-size:16px;}.cls-2,.cls-4{font-family:Arvo;}.cls-3{fill:none;stroke:#000;stroke-miterlimit:10;}.cls-4{font-size:14px;}.cls-5{letter-spacing:-0.13em;}</style></defs><g id="Layer_2" data-name="Layer 2"><g id="Layer_1-2" data-name="Layer 1"><rect class="cls-1" x="1.5" y="1.5" width="429" height="129"/><path d="M429,3V129H3V3H429m3-3H0V132H432V0Z"/><g id="program"><rect class="cls-1" x="292.5" y="11" width="110" height="110"/><path d="M401,12.5v107H294V12.5H401m3-3H291v113H404V9.5Z"/><text class="cls-2" transform="translate(342.16 78.28)">...</text><text class="cls-2" transform="translate(342.16 52.28)">...</text><line class="cls-3" x1="294" y1="36" x2="404" y2="36"/><line class="cls-3" x1="294" y1="58.5" x2="404" y2="58.5"/><line class="cls-3" x1="294" y1="98.5" x2="404" y2="98.5"/><text class="cls-4" transform="translate(327.3 28.66) scale(1.14 1)">var A</text></g><g id="table"><rect class="cls-1" x="161" y="11" width="110" height="110"/><path d="M269.5,12.5v107h-107V12.5h107m3-3h-113v113h113V9.5Z"/><text class="cls-2" transform="translate(210.66 78.28)">...</text><text class="cls-2" transform="translate(210.66 52.28)">...</text><line class="cls-3" x1="162.5" y1="36" x2="272.5" y2="36"/><line class="cls-3" x1="162.5" y1="58.5" x2="272.5" y2="58.5"/><line class="cls-3" x1="162.5" y1="98.5" x2="272.5" y2="98.5"/><text class="cls-4" transform="translate(170.5 28.66) scale(1.14 1)"><tspan xml:space="preserve">A  0x0...1 int</tspan></text></g><g id="memory"><rect class="cls-1" x="29.5" y="11" width="110" height="110"/><path d="M138,12.5v107H31V12.5H138m3-3H28v113H141V9.5Z"/><text class="cls-2" transform="translate(59.31 29.28)">0x0...0</text><text class="cls-2" transform="translate(61.16 52.28)">0x0...1</text><text class="cls-2" transform="translate(60.99 115.28)">0x<tspan class="cls-5" x="18.91" y="0">F</tspan><tspan x="26.62" y="0">...F</tspan></text><text class="cls-2" transform="translate(79.16 78.28)">...</text><line class="cls-3" x1="31" y1="36" x2="141" y2="36"/><line class="cls-3" x1="31" y1="58.5" x2="141" y2="58.5"/><line class="cls-3" x1="31" y1="98.5" x2="141" y2="98.5"/></g></g></g></svg>