<svg xmlns="http://www.w3.org/2000/svg" viewBox="0 0 876.56 211.06"><defs><style>.cls-1{fill:none;}.cls-2{font-size:51px;font-family:ArialMT, Arial;}</style></defs><g id="Layer_2" data-name="Layer 2"><g id="visuals"><rect class="cls-1" width="294.95" height="200.28"/><path d="M5.67,8.39V197.46h283.6V8.39Zm70,91.73,7.49,0L85.47,93l2.3,7.16h7.48l-6.07,4.37,2.27,7.06-6-4.37-6,4.37,2.28-7.06Zm24.08,42.45-6-4.37-6,4.37,2.28-7.06L84,131.14h7.49l2.3-7.16,2.29,7.15h7.49l-6.08,4.37Zm-2.28-69,2.28,7.06-6-4.37-6,4.37,2.28-7.06L84,69.19h7.49L93.79,62l2.29,7.16h7.49Zm16.66-27.07,2.29-7.17,2.29,7.16h7.5l-6.08,4.37,2.28,7.06-6-4.37-6,4.37,2.27-7.06-6.07-4.37Zm8.32,118.79-6-4.37-6,4.37,2.27-7.07-6.07-4.36h7.49l2.29-7.15,2.29,7.15h7.49l-6.07,4.36ZM145.12,38.17,147.41,31l2.3,7.15h7.49l-6.08,4.37,2.28,7.06-6-4.37-6,4.37,2.28-7.06-6.08-4.37ZM153.4,173.5l-6-4.36-6,4.36,2.27-7.06-6.07-4.37h7.49l2.29-7.16,2.29,7.15h7.49l-6.08,4.37Zm30.94-8.22-6-4.37-6,4.37,2.27-7.07-6.07-4.36h7.49l2.29-7.15,2.29,7.15h7.49l-6.07,4.36ZM182.15,50.85l2.27,7.07-6-4.38-6,4.38,2.28-7.07-6.07-4.37h7.49l2.29-7.16,2.29,7.15h7.5Zm16.61,18.26L201.05,62l2.3,7.15h7.49l-6.08,4.36L207,80.53l-6-4.37-6,4.37,2.28-7.07-6.08-4.36ZM207,142.57l-6-4.37-6,4.37,2.28-7.06-6.08-4.37h7.49l2.3-7.16,2.29,7.15h7.49l-6.08,4.37Zm8.22-31.11-6-4.37-6,4.37,2.27-7.06L199.49,100H207l2.28-7.16,2.3,7.15h7.49L213,104.4Z" transform="translate(0 -2.9)"/><text class="cls-2" transform="translate(320.45 194.5)">NextGenerationEU</text><path d="M324.38,50.62V8.38h29v7.15H332.91v10h17.63v7.15H332.91V50.62Z" transform="translate(0 -2.9)"/><path d="M380.44,50.62V46a11.72,11.72,0,0,1-4.39,3.86,12.31,12.31,0,0,1-5.75,1.41A11.16,11.16,0,0,1,364.77,50a8,8,0,0,1-3.54-3.8,17,17,0,0,1-1.09-6.77V20h8.09V34.08q0,6.45.45,7.91a4.26,4.26,0,0,0,1.62,2.3,5,5,0,0,0,3,.85A6.46,6.46,0,0,0,377,44a5.77,5.77,0,0,0,2.24-2.83q.62-1.68.61-8.25V20H388v30.6Z" transform="translate(0 -2.9)"/><path d="M424.18,50.62h-8.1V35a23.94,23.94,0,0,0-.52-6.41,4.45,4.45,0,0,0-1.68-2.26,4.82,4.82,0,0,0-2.81-.81,6.52,6.52,0,0,0-3.78,1.16A5.85,5.85,0,0,0,405,29.73a26.65,26.65,0,0,0-.61,7V50.62h-8.1V20h7.52v4.5a12.25,12.25,0,0,1,10.08-5.19,12,12,0,0,1,4.9,1,8.18,8.18,0,0,1,3.36,2.46,9.07,9.07,0,0,1,1.58,3.4,25.08,25.08,0,0,1,.45,5.44Z" transform="translate(0 -2.9)"/><path d="M460.45,50.62h-7.52v-4.5A12.2,12.2,0,0,1,448.51,50a11.43,11.43,0,0,1-5.15,1.28,11.67,11.67,0,0,1-9-4.25q-3.75-4.25-3.76-11.86,0-7.77,3.66-11.82a11.92,11.92,0,0,1,9.25-4.05,11.44,11.44,0,0,1,8.87,4.26V8.38h8.1Zm-21.61-16q0,4.89,1.35,7.08a6.11,6.11,0,0,0,5.48,3.17,6,6,0,0,0,4.75-2.37q2-2.38,2-7.11,0-5.26-1.9-7.59a6.24,6.24,0,0,0-9.69,0Q438.84,30.11,438.84,34.66Z" transform="translate(0 -2.9)"/><path d="M486.14,40.88l8.07,1.35A13.25,13.25,0,0,1,489.3,49a14.42,14.42,0,0,1-8.4,2.32q-8,0-11.81-5.22a17.48,17.48,0,0,1-3-10.54q0-7.6,4-11.91a13.09,13.09,0,0,1,10-4.31q6.84,0,10.78,4.51t3.77,13.81H474.36a8.22,8.22,0,0,0,2,5.61,6.14,6.14,0,0,0,4.67,2,5,5,0,0,0,3.2-1A6.39,6.39,0,0,0,486.14,40.88Zm.47-8.18a7.82,7.82,0,0,0-1.82-5.35,5.56,5.56,0,0,0-4.21-1.83,5.63,5.63,0,0,0-4.37,1.93,7.45,7.45,0,0,0-1.7,5.25Z" transform="translate(0 -2.9)"/><path d="M529.3,50.62h-7.52v-4.5A12.2,12.2,0,0,1,517.36,50a11.42,11.42,0,0,1-5.14,1.28,11.68,11.68,0,0,1-9-4.25q-3.75-4.25-3.76-11.86,0-7.77,3.66-11.82a11.92,11.92,0,0,1,9.25-4.05,11.44,11.44,0,0,1,8.87,4.26V8.38h8.1Zm-21.61-16q0,4.89,1.36,7.08a6.1,6.1,0,0,0,5.47,3.17,6,6,0,0,0,4.75-2.37q2-2.38,2-7.11,0-5.26-1.9-7.59a6.24,6.24,0,0,0-9.69,0Q507.69,30.11,507.69,34.66Z" transform="translate(0 -2.9)"/><path d="M553.32,50.62V8.38h8.1V23.59a11.46,11.46,0,0,1,8.87-4.26,11.92,11.92,0,0,1,9.25,4.05Q583.2,27.43,583.2,35q0,7.84-3.73,12.07a11.63,11.63,0,0,1-9.06,4.24A11.24,11.24,0,0,1,565.24,50a12.46,12.46,0,0,1-4.4-3.88v4.5Zm8-16q0,4.76,1.5,7a6.4,6.4,0,0,0,5.59,3.22A5.72,5.72,0,0,0,573,42.62c1.25-1.52,1.88-3.93,1.88-7.21q0-5.25-1.9-7.57a6,6,0,0,0-4.87-2.32,6.11,6.11,0,0,0-4.84,2.27C562,29.29,561.36,31.58,561.36,34.66Z" transform="translate(0 -2.9)"/><path d="M585.88,20h8.61l7.32,21.72L609,20h8.39L606.53,49.46l-1.92,5.33a21.67,21.67,0,0,1-2,4.09,8.84,8.84,0,0,1-2.21,2.3,9.76,9.76,0,0,1-3.09,1.36,15.81,15.81,0,0,1-4.13.49,21.2,21.2,0,0,1-4.58-.49l-.72-6.33a17.87,17.87,0,0,0,3.43.37,5,5,0,0,0,4.17-1.66,11.35,11.35,0,0,0,2.08-4.22Z" transform="translate(0 -2.9)"/><path d="M338.3,90.82v6.45h-5.53V109.6a29.87,29.87,0,0,0,.16,4.37,1.74,1.74,0,0,0,.72,1,2.26,2.26,0,0,0,1.36.41,10.46,10.46,0,0,0,3.26-.78l.69,6.28a16.18,16.18,0,0,1-6.39,1.21,10.15,10.15,0,0,1-3.95-.74,5.77,5.77,0,0,1-2.58-1.9,7.47,7.47,0,0,1-1.14-3.15,39.65,39.65,0,0,1-.26-5.71V97.27h-3.71V90.82h3.71V84.74L332.77,80v10.8Z" transform="translate(0 -2.9)"/><path d="M352,79.18V94.71a12.13,12.13,0,0,1,14.41-3.54,8.23,8.23,0,0,1,3.38,2.65,9.54,9.54,0,0,1,1.56,3.57,31.78,31.78,0,0,1,.42,6.08v18h-8.1V105.25a23.76,23.76,0,0,0-.46-6.1,4,4,0,0,0-1.63-2.06,5.22,5.22,0,0,0-2.92-.77,6.7,6.7,0,0,0-3.6,1,5.66,5.66,0,0,0-2.32,3,17.57,17.57,0,0,0-.74,5.83v15.33h-8.09V79.18Z" transform="translate(0 -2.9)"/><path d="M397.67,111.68l8.07,1.35a13.25,13.25,0,0,1-4.91,6.76,14.49,14.49,0,0,1-8.4,2.32q-8,0-11.81-5.22a17.48,17.48,0,0,1-3-10.54q0-7.6,4-11.91a13.09,13.09,0,0,1,10.05-4.31q6.84,0,10.78,4.51t3.77,13.81H385.89a8.22,8.22,0,0,0,2,5.61,6.14,6.14,0,0,0,4.67,2,5,5,0,0,0,3.19-1A6.33,6.33,0,0,0,397.67,111.68Zm.46-8.18a7.77,7.77,0,0,0-1.81-5.35,5.56,5.56,0,0,0-4.21-1.83,5.63,5.63,0,0,0-4.37,1.93A7.5,7.5,0,0,0,386,103.5Z" transform="translate(0 -2.9)"/><path d="M429.22,121.42V79.18h31.31v7.15H437.75v9.36H459v7.12h-21.2V114.3h23.59v7.12Z" transform="translate(0 -2.9)"/><path d="M488.65,121.42v-4.58a11.8,11.8,0,0,1-4.39,3.86,12.34,12.34,0,0,1-5.75,1.41,11.14,11.14,0,0,1-5.53-1.36,8,8,0,0,1-3.55-3.8,17,17,0,0,1-1.09-6.77V90.82h8.1v14.06c0,4.3.14,6.94.44,7.91a4.28,4.28,0,0,0,1.63,2.3,5,5,0,0,0,3,.85,6.4,6.4,0,0,0,3.71-1.13,5.78,5.78,0,0,0,2.25-2.83q.6-1.68.6-8.25V90.82h8.1v30.6Z" transform="translate(0 -2.9)"/><path d="M512.3,121.42h-8.09V90.82h7.52v4.35a13,13,0,0,1,3.47-4.06,6.41,6.41,0,0,1,3.5-1A10.27,10.27,0,0,1,524,91.66l-2.51,7.06a7,7,0,0,0-3.8-1.33,4.43,4.43,0,0,0-2.88.94,6.35,6.35,0,0,0-1.86,3.38q-.68,2.45-.68,10.26Z" transform="translate(0 -2.9)"/><path d="M525.64,105.69a16.52,16.52,0,0,1,2-7.81,13.55,13.55,0,0,1,5.63-5.76,16.66,16.66,0,0,1,8.14-2,15.26,15.26,0,0,1,11.38,4.51A15.56,15.56,0,0,1,557.21,106a15.77,15.77,0,0,1-4.47,11.51,15.13,15.13,0,0,1-11.28,4.57,17.89,17.89,0,0,1-8-1.9,13,13,0,0,1-5.8-5.58A18.51,18.51,0,0,1,525.64,105.69Zm8.3.43c0,3,.72,5.36,2.16,7a7.06,7.06,0,0,0,10.64,0c1.43-1.61,2.15-4,2.15-7s-.72-5.3-2.15-6.91a7.06,7.06,0,0,0-10.64,0Q533.94,101.57,533.94,106.12Z" transform="translate(0 -2.9)"/><path d="M563.32,90.82h7.55v4.5a11.3,11.3,0,0,1,4-3.75,11,11,0,0,1,5.56-1.44,11.65,11.65,0,0,1,9,4.18q3.72,4.17,3.72,11.64,0,7.67-3.75,11.91a11.66,11.66,0,0,1-9.07,4.25,10.38,10.38,0,0,1-4.6-1,15.26,15.26,0,0,1-4.33-3.46v15.42h-8.1Zm8,14.78q0,5.16,2,7.62a6.25,6.25,0,0,0,5,2.46,5.85,5.85,0,0,0,4.7-2.26c1.24-1.51,1.87-4,1.87-7.42,0-3.2-.65-5.58-1.93-7.14a6,6,0,0,0-4.78-2.33,6.21,6.21,0,0,0-4.93,2.29Q571.33,101.1,571.33,105.6Z" transform="translate(0 -2.9)"/><path d="M617.31,111.68l8.07,1.35a13.26,13.26,0,0,1-4.92,6.76,14.44,14.44,0,0,1-8.39,2.32q-8,0-11.81-5.22a17.48,17.48,0,0,1-3-10.54q0-7.6,4-11.91a13.09,13.09,0,0,1,10-4.31q6.82,0,10.77,4.51c2.64,3,3.89,7.61,3.78,13.81H605.53a8.18,8.18,0,0,0,2,5.61,6.13,6.13,0,0,0,4.66,2,5,5,0,0,0,3.2-1A6.33,6.33,0,0,0,617.31,111.68Zm.46-8.18A7.82,7.82,0,0,0,616,98.15a5.85,5.85,0,0,0-8.59.1,7.5,7.5,0,0,0-1.7,5.25Z" transform="translate(0 -2.9)"/><path d="M638.46,100.16l-7.35-1.33a11.43,11.43,0,0,1,4.26-6.57q3-2.13,9-2.13,5.42,0,8.07,1.28a8.09,8.09,0,0,1,3.73,3.26c.72,1.31,1.08,3.73,1.08,7.24l-.09,9.45a32.74,32.74,0,0,0,.39,6,17,17,0,0,0,1.46,4.11h-8c-.21-.54-.47-1.34-.78-2.39-.14-.48-.23-.8-.29-1a14.47,14.47,0,0,1-4.43,3,12.79,12.79,0,0,1-5,1,10.4,10.4,0,0,1-7.44-2.57,8.51,8.51,0,0,1-2.73-6.48,8.73,8.73,0,0,1,1.24-4.62,8.06,8.06,0,0,1,3.47-3.11,27.32,27.32,0,0,1,6.44-1.89,43.47,43.47,0,0,0,7.87-2v-.8a4.22,4.22,0,0,0-1.15-3.33c-.77-.66-2.22-1-4.36-1a4.83,4.83,0,0,0-5.32,3.84Zm10.83,6.56a49.37,49.37,0,0,1-4.93,1.24,15,15,0,0,0-4.41,1.41,3.39,3.39,0,0,0-1.58,2.86,4,4,0,0,0,1.27,2.94,4.43,4.43,0,0,0,3.22,1.23A7,7,0,0,0,647,115a5.07,5.07,0,0,0,1.93-2.68,15.93,15.93,0,0,0,.32-3.94Z" transform="translate(0 -2.9)"/><path d="M693.05,121.42H685V105.8a23.94,23.94,0,0,0-.52-6.41,4.45,4.45,0,0,0-1.68-2.26,4.82,4.82,0,0,0-2.81-.81,6.52,6.52,0,0,0-3.78,1.16,5.85,5.85,0,0,0-2.29,3,26.65,26.65,0,0,0-.61,7v13.86h-8.1V90.82h7.52v4.5a12.25,12.25,0,0,1,10.08-5.19,12,12,0,0,1,4.9,1A8.18,8.18,0,0,1,691,93.56,9.07,9.07,0,0,1,692.6,97a25.08,25.08,0,0,1,.45,5.44Z" transform="translate(0 -2.9)"/><path d="M717.65,79.18h8.53v22.88a48.07,48.07,0,0,0,.31,7.06,6.91,6.91,0,0,0,2.61,4.16,9.05,9.05,0,0,0,5.63,1.57,8.61,8.61,0,0,0,5.48-1.49,5.77,5.77,0,0,0,2.21-3.64,47.24,47.24,0,0,0,.38-7.17V79.18h8.53v22.19a57,57,0,0,1-.69,10.74,12,12,0,0,1-2.55,5.3,12.88,12.88,0,0,1-5,3.44,21.56,21.56,0,0,1-8.13,1.29q-6,0-9.17-1.4a13,13,0,0,1-4.94-3.63,11.6,11.6,0,0,1-2.39-4.68,51,51,0,0,1-.84-10.72Z" transform="translate(0 -2.9)"/><path d="M788.09,121.42H780V105.8a23.94,23.94,0,0,0-.52-6.41,4.45,4.45,0,0,0-1.68-2.26,4.82,4.82,0,0,0-2.81-.81,6.52,6.52,0,0,0-3.78,1.16,5.85,5.85,0,0,0-2.29,3,26.65,26.65,0,0,0-.61,7v13.86h-8.1V90.82h7.52v4.5a12.25,12.25,0,0,1,10.08-5.19,12,12,0,0,1,4.9,1,8.18,8.18,0,0,1,3.36,2.46,9.07,9.07,0,0,1,1.58,3.4,25.08,25.08,0,0,1,.45,5.44Z" transform="translate(0 -2.9)"/><path d="M796.3,86.67V79.18h8.09v7.49Zm0,34.75V90.82h8.09v30.6Z" transform="translate(0 -2.9)"/><path d="M810.82,105.69a16.62,16.62,0,0,1,2-7.81,13.63,13.63,0,0,1,5.64-5.76,16.66,16.66,0,0,1,8.14-2A15.24,15.24,0,0,1,838,94.64,15.57,15.57,0,0,1,842.39,106a15.74,15.74,0,0,1-4.48,11.51,15.12,15.12,0,0,1-11.28,4.57,17.85,17.85,0,0,1-8-1.9,13.12,13.12,0,0,1-5.81-5.58A18.63,18.63,0,0,1,810.82,105.69Zm8.29.43c0,3,.72,5.36,2.17,7a7.06,7.06,0,0,0,10.64,0c1.43-1.61,2.15-4,2.15-7s-.72-5.3-2.15-6.91a7.06,7.06,0,0,0-10.64,0Q819.11,101.57,819.11,106.12Z" transform="translate(0 -2.9)"/><path d="M876.56,121.42h-8.1V105.8a23.94,23.94,0,0,0-.52-6.41,4.45,4.45,0,0,0-1.68-2.26,4.8,4.8,0,0,0-2.81-.81,6.47,6.47,0,0,0-3.77,1.16,5.75,5.75,0,0,0-2.29,3,26.1,26.1,0,0,0-.62,7v13.86h-8.1V90.82h7.52v4.5a12.25,12.25,0,0,1,10.08-5.19,12,12,0,0,1,4.9,1,8.18,8.18,0,0,1,3.36,2.46,8.92,8.92,0,0,1,1.58,3.4,25.08,25.08,0,0,1,.45,5.44Z" transform="translate(0 -2.9)"/></g></g></svg>