<svg xmlns="http://www.w3.org/2000/svg" viewBox="0 0 132.1 32.32"><defs><style>.cls-1{fill:#fd0;}.cls-2{fill:#1e3e83;}.cls-3,.cls-4{isolation:isolate;}.cls-3{font-size:7.71px;font-family:ArialMT, Arial;}.cls-4{font-size:8.91px;font-family:Arial-BoldMT, Arial;font-weight:700;}</style></defs><g id="Layer_2" data-name="Layer 2"><g id="Layer_1-2" data-name="Layer 1"><rect id="yellow" class="cls-1" x="4.5" y="3.29" width="31" height="24"/><path id="flag" class="cls-2" d="M21.4,23.39l.4,1.1h1.1l-.9.7.3,1.1-.9-.7-.9.7.3-1.1-.9-.7H21Zm-4.7-1.2.4,1.1h1.1l-.9.7.3,1.1-.9-.7-.9.6.3-1.1-.9-.7h1.1Zm9.4,0,.3,1.1h1.1l-.9.7.3,1.1-.9-.7-.9.6.3-1.1-.9-.7h1.1l.5-1Zm-12.8-3.5.4,1.1h1.1l-.9.7.4,1.1-.9-.7-.9.7.3-1.1-.9-.7H13l.3-1.1Zm16.2,0,.4,1.1H31l-.9.7.3,1.1-.9-.7-.9.7.3-1.1-.9-.7h1.1l.4-1.1ZM12,14l.4,1.1h1.1l-.9.7.3,1.1-.9-.7-.9.7.3-1.1-.9-.7h1.1A4.87,4.87,0,0,0,12,14Zm18.7,0,.4,1.1h1.1l-.9.7.3,1.1-.9-.7-.9.7.3-1.1-.9-.7h1.1A4.87,4.87,0,0,0,30.7,14ZM13.3,9.39l.4,1.1h1.1l-.9.7.4,1.1-.9-.7-.9.7.3-1.1-.9-.7H13l.3-1.1Zm16.2,0,.4,1.1H31l-.9.7.3,1.1-.9-.7-.9.7.3-1.1-.9-.7h1.1l.4-1.1Zm-3.4-3.5L26.4,7h1.1l-.9.7.3,1.1-.8-.7-1,.7.3-1.1L24.6,7h1.1l.4-1.1Zm-9.4,0L17,7h1.1l-.9.7.3,1.1-.9-.7-.9.7.4-1.1L15.2,7h1.1Zm4.7-1.2.4,1.1h1.1l-.9.7.3,1.1-.9-.7-.9.7.3-1.1-.9-.7H21l.4-1.1ZM0,29.79H42.8V1.29H0v28.5Z"/><g id="text"><text class="cls-3" transform="translate(47.52 29.81)">NextGenerationEU</text><text class="cls-4" transform="translate(47.45 7.64)">Funded by</text><text class="cls-4" transform="translate(47.45 18.33)">the European Union</text></g></g></g></svg>