<svg id="MUR_logo" data-name="MUR logo" xmlns="http://www.w3.org/2000/svg" width="500" height="500" viewBox="0 0 500 500">
  <defs>
    <style>
      .cls-1 {
        fill: #b5b11b;
      }

      .cls-2 {
        fill: #3bbff0;
      }

      .cls-3 {
        fill: #e83e8c;
      }

      .cls-4 {
        fill: #2e65ae;
      }
    </style>
  </defs>
  <g id="cerchio">
    <path class="cls-1" d="M250.0005,500C112.14977,500,0,387.85023,0,250H17.10344c0,128.41964,104.47692,232.89656,232.89706,232.89656Z"/>
    <path class="cls-2" d="M17.10344,250H0C0,112.14977,112.14977,0,250.0005,0V17.10344C121.58036,17.10344,17.10344,121.58036,17.10344,250Z"/>
    <path class="cls-3" d="M500,250H482.89656c0-128.41964-104.47692-232.89656-232.89606-232.89656V0C387.85023,0,500,112.14977,500,250Z"/>
  </g>
  <g id="repubblica_italiana" data-name="repubblica italiana">
    <path id="Sottrazione_1" data-name="Sottrazione 1" class="cls-4" d="M102.21637,305.44436a7.86662,7.86662,0,0,1-1.5288-.20386l-2.95567-1.73265-1.0192-1.22305a2.696,2.696,0,0,1-1.73265-1.42687,2.54842,2.54842,0,0,1,0-1.93648,1.25447,1.25447,0,0,1,1.0192-.50959.61276.61276,0,0,0,.40767.10192,13.12623,13.12623,0,0,0,4.99408-2.64992l-.10193-.91728c-9.37665,1.42688-14.67647,2.14033-15.69567,2.14033h-.10192a131.42727,131.42727,0,0,1-11.92464-6.1152c-3.46527-2.0384-6.01327-3.5672-7.33823-4.5864a38.33723,38.33723,0,0,1-3.15952-2.548,16.12138,16.12138,0,0,1-2.95568-3.46527,1.923,1.923,0,0,1-.30576-1.63072,19.976,19.976,0,0,0,2.95567-6.1152,3.88548,3.88548,0,0,0,.10193-1.5288,3.47526,3.47526,0,0,1,.20384-3.15953,2.78443,2.78443,0,0,1,1.93647-.81534h.10192l7.94976-.20386v-.5096l.91728-1.52879.71343.30574-1.223,2.34415a.807.807,0,0,1-.81537.5096H70.21348c-1.63072,0-3.26143.10193-4.89216.20385a1.68789,1.68789,0,0,0-1.223.5096,2.8552,2.8552,0,0,0,0,2.24225,4.82565,4.82565,0,0,1-.10192,1.73265,26.6943,26.6943,0,0,1-2.75184,6.01328c-.40767.5096.40768,1.83454,2.548,4.07679a59.12373,59.12373,0,0,0,9.6824,6.82865,86.518,86.518,0,0,0,11.8227,6.1152c5.40175-.61152,10.90545-1.42687,16.3072-2.44607,2.34414-.5096,4.79025-1.0192,7.44014-1.63073a121.95941,121.95941,0,0,0,13.45345-4.38254c.40767-.10193.5096-.61153.40767-1.63073a24.07726,24.07726,0,0,0-2.548-6.82865c-1.5288.20385-3.0576.30575-4.68832.40768a28.82506,28.82506,0,0,0-4.17873.30574c-3.0576.40768-5.91134.81535-8.66319,1.325l-6.82865,1.22305a89.71657,89.71657,0,0,1-10.39585,1.0192c-2.548-1.83455-6.1152-4.17872-10.7016-7.1344-3.26143-2.03839-6.52287-3.97487-9.98815-5.70752a.68817.68817,0,0,1-.40768-.61153.97033.97033,0,0,1,.20384-.71345,7.03755,7.03755,0,0,1,2.548-.40767h.61152q.7644,0,.91728.30575v.30574a1.07037,1.07037,0,0,1-.91728.5096h-.10192c-.40768,0-.81537.10193-1.223.10193a69.08024,69.08024,0,0,1,8.969,4.89215l-.10193-4.0768a7.62441,7.62441,0,0,1,.91728-3.97487c.20383-.91728-.91728-1.63073-3.0576-2.24226h-.20384a.21922.21922,0,0,0-.20384.20386v-.30575a.61277.61277,0,0,0-.10192-.40768c-.10193-.20385-.10193-.40767.10192-.40767a5.82039,5.82039,0,0,1,3.15953,1.0192,2.72335,2.72335,0,0,1,1.5288,2.44607,7.08487,7.08487,0,0,0-.91727,4.0768l.20383,4.68833c3.873,2.548,6.62478,4.58639,8.66318,6.01327,2.44608-.10193,4.89215-.30575,7.23633-.61153l1.5288-4.28065a38.81288,38.81288,0,0,1-4.38255-3.77105l-1.22305.20385a2.62952,2.62952,0,0,1-2.548-1.93647,4.77212,4.77212,0,0,1-3.97487-2.75185,53.65573,53.65573,0,0,1-4.99407-6.6248,2.82152,2.82152,0,0,1-.91728.10193,3.90337,3.90337,0,0,1-1.93647-.5096,13.38323,13.38323,0,0,1-3.26144-2.548l-5.70752-6.82865a36.49905,36.49905,0,0,1-8.6632-23.64544,20.18737,20.18737,0,0,1,0-3.66913,2.42374,2.42374,0,0,1,1.63073-2.24225c.10193,0,.30576-.10193.40767-.10193,1.73264,0,3.97487,3.15953,6.72673,9.37665,1.63072,3.66913,3.66912,9.27472,6.11519,16.51105a19.90395,19.90395,0,0,1,.30577-3.46527,29.64944,29.64944,0,0,1-2.75184-7.03248,2.57169,2.57169,0,0,0-1.0192-1.52879,1.4187,1.4187,0,0,1-.5096-1.42688,8.84194,8.84194,0,0,0-.5096-2.85374,57.867,57.867,0,0,0-1.93647-5.70753,5.149,5.149,0,0,1-2.34416-2.75185,36.78833,36.78833,0,0,1-2.548-7.33825,31.63419,31.63419,0,0,1-.61153-9.27472,65.86932,65.86932,0,0,1,1.83456-10.90543,38.60737,38.60737,0,0,1,2.85377-7.1344,26.54831,26.54831,0,0,1,2.85376-4.5864c.81536-1.12112,1.63072-2.14032,2.44607-3.36336a10.50128,10.50128,0,0,1,2.548-2.64993,1.44854,1.44854,0,0,1,.61153-.20383.77041.77041,0,0,1,.40767.10192,1.23119,1.23119,0,0,1,.71344.71344,13.74066,13.74066,0,0,1,.10192,6.1152,53.77909,53.77909,0,0,1,3.873-8.56127,38.12336,38.12336,0,0,1,6.421-9.1728,13.063,13.063,0,0,1,4.5864-3.26143,1.1081,1.1081,0,0,1,.5096-.10193,1.25441,1.25441,0,0,1,1.0192.5096,4.56458,4.56458,0,0,1,0,2.34416c-.91727,2.34416-1.73265,4.38256-2.548,6.1152l-1.5288,3.66912a36.78233,36.78233,0,0,1,5.19793-7.74592,33.44332,33.44332,0,0,1,7.33825-6.319,28.75584,28.75584,0,0,1,9.37664-4.17873,18.96819,18.96819,0,0,1,3.46528-.40767,3.68078,3.68078,0,0,1,2.75185.81536,4.91652,4.91652,0,0,1-1.5288,3.26144h.61152a5.05179,5.05179,0,0,1,2.64993.81536,8.54,8.54,0,0,1-3.36335,5.70752,27.00653,27.00653,0,0,1-6.319,3.873l-3.15952,1.73263c-.5096.20384-1.0192.5096-1.5288.71344l-.10193.10192c-1.63072.81537-3.36334,1.5288-5.29985,2.34417l-.81534.30576-.71346.20384c-.30574.81536-.71345,1.63072-1.0192,2.44607l.10193-.10193a2.132,2.132,0,0,1,.61153-.40767l.30574-.20384,3.46528,3.15953a48.30178,48.30178,0,0,1,5.096-2.64993l-.5096-4.5864.30575-.10192c.91728-.40768,4.79025-1.63073,5.70753-1.83456l.30574-.10193,2.34415,4.0768a51.26735,51.26735,0,0,1,5.70752-.91728l.91728-4.48447h3.26142c.5096,0,2.34414,0,3.0576.10193h.30574l.91728,4.48447a51.27079,51.27079,0,0,1,5.70752.91727l2.24225-4.07679.30575.10192c1.0192.20384,4.89214,1.5288,5.70752,1.83456l.30575.10193-.5096,4.5864c1.73265.81536,3.46527,1.63072,5.19792,2.64992l2.548-2.44607a1.1502,1.1502,0,0,1,.30575-1.12113,7.69632,7.69632,0,0,1,1.42687-1.12112l-1.22305-.5096a3.59638,3.59638,0,0,1-2.0384-3.15953l-3.0576-1.223.20386-1.5288a4.563,4.563,0,0,1-2.0384.40767,4.93394,4.93394,0,0,1-3.66913-1.63072,1.57808,1.57808,0,0,1-1.12112-.81537,1.75332,1.75332,0,0,1-.10193-1.42687,7.92053,7.92053,0,0,1-1.63072.20384,6.39977,6.39977,0,0,1-1.93648-.30577,3.156,3.156,0,0,1-2.548-1.93647,2.13055,2.13055,0,0,1,.40768-1.73263,4.58723,4.58723,0,0,1-2.34415-2.44608,1.89775,1.89775,0,0,1,.5096-2.34416,7.955,7.955,0,0,1,3.66913-1.0192h.20385a2.00886,2.00886,0,0,1,.30574-1.5288,1.53275,1.53275,0,0,1,1.12113-.40767h.10193c.71345.20384,1.63072.5096,2.548.71343a5.06393,5.06393,0,0,1,2.548,1.5288,2.177,2.177,0,0,1,1.73266-.81536,1.77948,1.77948,0,0,1,1.22305.40768,22.36878,22.36878,0,0,1,6.6248,5.29983,3.4516,3.4516,0,0,1,1.52879-.61153c.81535,0,1.325.61153,1.63073,1.83457l.20385,1.63072a3.39079,3.39079,0,0,1,2.14033-1.12112,3.95331,3.95331,0,0,1,2.75185,1.5288,3.93971,3.93971,0,0,1,2.14032.81536,1.83766,1.83766,0,0,1,1.0192-.20384h.30575a2.98277,2.98277,0,0,1,2.75185,1.93647,14.00027,14.00027,0,0,1,1.12113,3.66913c.30575-1.12113.81535-1.73264,1.42687-1.73264a.76367.76367,0,0,1,.5096.10193,8.93435,8.93435,0,0,1,1.73265,4.17872,5.70628,5.70628,0,0,1,1.325,3.5672,1.98688,1.98688,0,0,1,.81535-.10192c1.5288,0,3.26145,1.325,4.99407,3.873a.92693.92693,0,0,1,.81535-.40768c.61152,0,1.32494.61153,2.24225,1.93648a12.69666,12.69666,0,0,1,1.5288,4.68832.91873.91873,0,0,1,.5096-.10193c1.0192,0,1.5288,1.325,1.63072,3.97488a14.73984,14.73984,0,0,1,1.42688,4.68832,4.41662,4.41662,0,0,1-.40768,1.93647.92532.92532,0,0,1,.71345-.30576h.30575a1.23121,1.23121,0,0,1,.71345.71344,5.8928,5.8928,0,0,1,1.22306,3.66912,6.015,6.015,0,0,1-2.24226,3.5672,9.17805,9.17805,0,0,1,1.63073-.30576,1.02469,1.02469,0,0,1,1.12113.5096q.45861.7644-.30575,2.44607a18.04656,18.04656,0,0,0-2.75185,5.40175,7.15918,7.15918,0,0,1-.61153,3.56719,4.83287,4.83287,0,0,1-2.64992,2.0384,2.30665,2.30665,0,0,1-.10193,1.83455,4.91187,4.91187,0,0,1,2.85375-1.5288,1.4732,1.4732,0,0,1,.71345.20385,3.04719,3.04719,0,0,1,2.34414-1.12112,2.87625,2.87625,0,0,1,1.5288.40767c1.0192.71345,1.325,2.548.91728,5.40175a4.91438,4.91438,0,0,1-.5096,5.80945,2.51,2.51,0,0,1,.91727,1.93647,2.84555,2.84555,0,0,1-.61152,1.83455,15.88245,15.88245,0,0,1-2.0384,1.63072,12.09243,12.09243,0,0,1,.10192,4.28065,15.73126,15.73126,0,0,1-3.5672,6.01327,4.68633,4.68633,0,0,1-.61152,4.17873,27.78285,27.78285,0,0,1-4.89215,4.89214,2.148,2.148,0,0,1,0,2.44608,18.88306,18.88306,0,0,1-8.15359,3.56719,8.39943,8.39943,0,0,0-4.79025,2.24226l-4.5864,5.50367a2.386,2.386,0,0,1-1.5288,1.73265,1.84367,1.84367,0,0,1-1.0192,1.93647,10.35016,10.35016,0,0,1-2.548.61153c-1.325,1.0192-2.75185,1.93647-4.17873,2.85374a6.602,6.602,0,0,0,1.83455,3.77106,20.10433,20.10433,0,0,0,4.89215.61152,19.63669,19.63669,0,0,0,2.44607-.10193,60.95209,60.95209,0,0,0,7.84785-5.60559q.6115-3.51623.91727-7.03247a2.315,2.315,0,0,0-.91727-1.83455,2.42971,2.42971,0,0,1-.61153-1.12113,1.48473,1.48473,0,0,1,.5096-1.22305,8.93443,8.93443,0,0,1,4.17873-1.73265h.20385c.20385,0,.30575,0,.40767.20385a.99059.99059,0,0,1,.10193.91728l-.10193,1.93647a1.83378,1.83378,0,0,0,1.5288.71345h.20385c1.12113-.10193,2.14033-.20385,3.26146-.20385a19.6386,19.6386,0,0,1,2.44607.10192h0a2.23541,2.23541,0,0,1,1.73265.71346,2.15227,2.15227,0,0,1,.71345,2.0384,6.5968,6.5968,0,0,0,.10193,2.44607,13.78037,13.78037,0,0,0,1.12112,3.46527,11.22492,11.22492,0,0,0,2.0384,3.15953,15.52148,15.52148,0,0,1-3.15952,4.89214c-9.1728,6.52287-14.2688,10.192-16.00145,11.41505a6.06028,6.06028,0,0,1-4.0768,1.63072h.50964c-7.1344-.40767-14.2688-1.22305-21.4032-2.34414l1.22306.91727a33.94847,33.94847,0,0,0,5.70752,3.66913l1.5288.40767.71345.71345a2.24194,2.24194,0,0,1-1.22305,2.0384l-1.73265.5096a6.68293,6.68293,0,0,1-4.48447,1.73265h-.10193l-1.12113-.40767-1.12112-2.0384a5.12834,5.12834,0,0,1-2.95567-1.22305,2.64834,2.64834,0,0,1-.91728-1.63073c-4.5864-4.0768-7.84785-6.42094-9.68239-6.82865l-2.0384,1.22305a4.22479,4.22479,0,0,1-1.63073.30575,3.66375,3.66375,0,0,1-1.12112-.20385,11.73975,11.73975,0,0,0-3.26145-1.42687c-.10193,0-.10193,0-.20386.10192l-2.75185,1.93648a1.96868,1.96868,0,0,0-.71345,1.5288,4.644,4.644,0,0,1-3.46527,1.93647l-2.24225,1.73265-3.15953,3.15952-.30575.30575a3.20068,3.20068,0,0,1-1.93647,2.44608C103.33747,305.34246,102.82787,305.44436,102.21637,305.44436Zm-5.80945-5.50367h0l-.30574.71345.81534.61152a4.92359,4.92359,0,0,1,2.0384,1.42688l1.93648,1.0192a2.13708,2.13708,0,0,0,1.12112.40767h.20385a1.89043,1.89043,0,0,0,1.22306-.71345,2.1613,2.1613,0,0,0-1.22306-1.93648l-1.73265-.20385-.40767-.5096,2.24225-1.12112a39.82257,39.82257,0,0,0,4.48447-2.64993,29.30535,29.30535,0,0,0,3.46527-2.75185l.71346.10193-1.325,1.5288c-3.0576,2.24225-5.29985,3.87294-6.93055,4.89214l.91728.30575a61.80508,61.80508,0,0,0,7.54207-6.1152h0c.40767-.40767.71345-.71345.61152-1.0192a1.0776,1.0776,0,0,0-.61152-.71345,10.518,10.518,0,0,0-3.97487,1.12113,5.65343,5.65343,0,0,1-2.85375.71345,4.18043,4.18043,0,0,1-1.12113-.10193l-.20385,1.42687a1.15174,1.15174,0,0,1-.91727,1.325L99.26073,299.431l.40768,1.5288H98.955l-2.548-1.01913Zm48.51391.5096a13.57425,13.57425,0,0,0-1.93647.5096,2.99658,2.99658,0,0,0-1.22306,1.01919l.30575.91728,1.325.20385a7.60266,7.60266,0,0,0,3.15952-1.5288l2.0384-.61152.30575-.40768-.91727-.20385-1.22306.30575Zm-9.47858-6.1152a6.72867,6.72867,0,0,0-1.42687.10192l3.66913,3.15953a22.80974,22.80974,0,0,1,3.66912,3.36335h1.12113a6.33984,6.33984,0,0,1,2.64992-.91728l-6.72672-5.096a6.97057,6.97057,0,0,0-2.95571-.61152Zm-4.28062-14.98222-1.22305.20386v.5096a9.12961,9.12961,0,0,1,2.95568,4.89214,7.98457,7.98457,0,0,1,.40767,2.64993,11.095,11.095,0,0,1-1.42687,2.34414l-.5096.5096,1.22305.30575a107.36487,107.36487,0,0,0,15.08414,3.26145,99.11856,99.11856,0,0,0,14.57454,1.0192h1.0192c6.01327-3.97487,10.80352-7.33825,14.37072-9.88625l4.0768-2.64992a12.40254,12.40254,0,0,0,2.0384-3.26145,16.85492,16.85492,0,0,1-2.64993-6.421,9.0038,9.0038,0,0,1-.20385-2.85375,1.15733,1.15733,0,0,0-.30575-.81534,4.36238,4.36238,0,0,0-2.95567-.81535l-1.93647.10193L171.42,268.2436a2.34227,2.34227,0,0,1-1.73265-1.22305l-.20386-.81535,1.42688.40768v-1.73265l-1.0192.30574q-1.37592.45862-1.5288.91728a.76375.76375,0,0,0,.10192.5096,3.91419,3.91419,0,0,1,.91728,2.548c-.10193,2.0384-.30575,4.17872-.5096,6.21712a49.56066,49.56066,0,0,1,8.86705-5.50367,4.33422,4.33422,0,0,0-1.12113-.20385h-.5096c-.30575-.10193-.5096-.30575-.5096-.40768a.737.737,0,0,1,.40767-.61152h.5096a11.212,11.212,0,0,1,3.15953.40767c.40767.10193.5096.20385.61152.40767,0,.20386-.20385.40768-.71345.71346A56.32949,56.32949,0,0,0,168.77,276.90677a50.2125,50.2125,0,0,1-8.76512,6.52287,8.48875,8.48875,0,0,1-2.24225.30575,4.96193,4.96193,0,0,1-1.22306-.10193c-1.52879-.10192-4.07679-.5096-7.44014-1.12112-3.46527-.5096-6.52287-1.12113-9.1728-1.73266a42.51943,42.51943,0,0,0-8.765-1.42681Zm-9.98817,11.00735-1.42687.71345,2.75185,1.325h.40767a3.23675,3.23675,0,0,0,2.0384-.81535l1.73265-1.12113,2.14033-2.64992.40767,1.22305h0a.37441.37441,0,0,0,.30575.10193q.6115,0,1.83455-1.5288a5.219,5.219,0,0,0-.10193-3.0576,23.60442,23.60442,0,0,0-4.5864-5.91135l-.5096-.5096-1.0192.40768-1.93647-.81535a5.485,5.485,0,0,0-2.24225-.40768,6.67706,6.67706,0,0,0-2.548.5096,13.65936,13.65936,0,0,1,2.0384-.10192c1.0192,0,1.5288.10192,1.5288.5096a22.13716,22.13716,0,0,1,1.93647,4.17872,12.60577,12.60577,0,0,1,1.0192,5.50367l-2.44607,2.34415c-.5096.5096-.81535.81535-.91728.81535h-.10192a1.36385,1.36385,0,0,1,.10192-.5096l-.40767-.20385ZM146.75538,279.251l-2.75186.91727c3.0576.61153,5.19793,1.0192,6.6248,1.22305h0a8.21778,8.21778,0,0,1-1.325-3.0576,1.29619,1.29619,0,0,1-1.52879,1.0192,1.67668,1.67668,0,0,1-1.0192-.10192Zm-50.75613-1.42688-1.12113,3.15953,4.68833-.81535-3.5672-2.34418Zm-5.6056-7.33825a.927.927,0,0,1,.81535.40768l1.0192,1.32494,5.40174,3.66913,5.91135,3.5672,3.46527-.61153a35.66058,35.66058,0,0,1-3.5672-2.548,3.03885,3.03885,0,0,0-1.22305-1.73265l-.91727.20385.40767,1.93648-1.5288-.30575a2.48316,2.48316,0,0,0-1.5288-2.0384c-1.0192-.61153-2.24225-1.5288-4.0768-2.75185a26.411,26.411,0,0,1-4.68832-4.17873,10.96665,10.96665,0,0,1-2.44607-3.26145,1.98188,1.98188,0,0,0-.91728-1.42687,1.11478,1.11478,0,0,1-.40767-1.325l.20385-.91727.5096-3.0576-.71345-.40767-.5096,1.5288c0,.30574-.10193.40767-.30575.40767-.30574,0-.71345-.5096-1.32494-1.5288-1.5288-2.24225-3.0576-4.48447-4.79024-6.6248l-2.548-3.05759-.20383.91727c1.223,1.83455,2.34416,3.46527,3.15952,4.99407s1.63073,2.75185,2.14033,3.771a42.53031,42.53031,0,0,0,2.95567,4.48447l1.63072,3.26145,2.95568,2.75186.10192,1.83454a7.7807,7.7807,0,0,0-1.5288-2.34414.92519.92519,0,0,0-.71345-.30575.76375.76375,0,0,0-.5096.10192,1.18179,1.18179,0,0,1-1.0192.40768c-.81535,0-1.83455-.81535-2.85374-2.44607-.91728-1.325-1.83457-2.75186-2.64993-4.17873a2.70324,2.70324,0,0,1,1.223-2.0384l-.61153-.71345-.91727.71345-3.5672-5.096.5096-.71345-.5096-.71345-.5096.40767-.91727-1.63072-.30577.91727.5096,1.12113-.61152.30574h0c-.10193,0-.20384,0-.20384-.10192-.20384-.30575-.20384-1.22305.20384-2.75185.91727-2.64993,2.34416-6.21713,4.28063-10.59967a30.41121,30.41121,0,0,1,.40768-4.28065,58.75042,58.75042,0,0,0-4.99408,11.61887,41.75153,41.75153,0,0,0-1.0192,4.89214,1.41411,1.41411,0,0,0,0,.91727c0,.10193.10193.20386.10193.30575s.10193.20385.10193.30575c.10192.10193.10192.20385.20383.20385l.20384.20385c.10193,0,.20384.10193.40767.10193a.37442.37442,0,0,1,.30577.10193h.20385c.10192,0,.20384-.10193.40767-.10193a.91873.91873,0,0,1,.5096.10193l2.85376,5.19792a1.15723,1.15723,0,0,1-.81536.30575,4.63945,4.63945,0,0,1-1.93647-.81535,9.85718,9.85718,0,0,1-2.85376-3.873c-.61153-1.22305-1.12113-2.44607-1.63073-3.66912-.40767-1.22305-.91727-2.64993-1.325-4.28065s-1.63073-4.99407-3.5672-10.29392a45.12129,45.12129,0,0,0-4.5864-10.09007,5.66474,5.66474,0,0,0-2.14032-2.24225h-.20384c-.40767,0-.71344.40767-.91727,1.0192a24.26541,24.26541,0,0,0-.10193,3.87294,21.10376,21.10376,0,0,0,.5096,5.096,39.42159,39.42159,0,0,0,3.46527,10.09007,46.377,46.377,0,0,0,8.45936,11.82272,108.7463,108.7463,0,0,1-5.096-9.78432,86.971,86.971,0,0,1-4.07679-10.09007,35.18133,35.18133,0,0,1-1.223-4.38255v-.5096h0c.10193,0,.10193.20386.30576.5096.30577.71346.81537,2.34415,1.63073,4.89215A130.78182,130.78182,0,0,0,68.78661,251.019a49.7378,49.7378,0,0,0,4.68832,8.1536,5.84377,5.84377,0,0,0,3.36336,2.0384H77.246a1.77944,1.77944,0,0,0,1.223-.40767l.91728.61152,2.44607,4.17873,2.548,3.15952A3.20334,3.20334,0,0,0,87.03027,270.18a2.99082,2.99082,0,0,0,1.63073-.40767c.20385.71345.61153,1.0192,1.0192,1.0192a.37435.37435,0,0,0,.30575-.10193.77321.77321,0,0,1,.4077-.20376Zm49.32926,6.72673h0l-2.75186,1.32494,2.548.40768c.10193,0,.30575-.10193.40768-.10193s.30574-.10192.40767-.10192v.20385h.40767v-.30575a7.27361,7.27361,0,0,0,3.46528-2.34415c.30574-1.12112.30574-1.83454.10192-2.03839,0-.10193-.10192-.10193-.20385-.10193h-.30575a3.65217,3.65217,0,0,0-2.44607.91727,1.82022,1.82022,0,0,0-.91727,2.24225l.40767,1.325-.40767.10193-.71342-1.5288Zm-15.7976-1.12113a2.65414,2.65414,0,0,1,1.5288.40768,19.84311,19.84311,0,0,1,2.64993,2.44607h3.05759a11.17269,11.17269,0,0,1,3.97488-4.68833A105.21277,105.21277,0,0,1,145.94,269.05892h.20385a.56052.56052,0,0,1,.5096.30575,4.51262,4.51262,0,0,1,1.22305,1.5288,6.36659,6.36659,0,0,0,3.0576-3.0576,14.84717,14.84717,0,0,1,2.95567-4.17873,4.799,4.799,0,0,0,1.93648-4.07679l-.30575-2.95568a22.37882,22.37882,0,0,1,1.42687-1.83454.44815.44815,0,0,1,.5096-.10193,2.71412,2.71412,0,0,1,1.22305.30575c.10193,0,.30575.10192.40768.10192h0a.6127.6127,0,0,0,.40767.10193h0s.40768-.71345,1.0192-1.63073c-.10192.10193-.10192.20386-.20385.20386h0l-.20385.30574-4.28065-1.93647a38.4952,38.4952,0,0,1-4.0768,4.0768l1.93647,4.28065-.30575.20385c-.81534.61153-3.97487,2.95567-4.89214,3.5672l-.30575.20385L144.717,261.313a48.30659,48.30659,0,0,1-5.096,2.64992l.5096,4.5864-.30575.10193c-.91727.30574-4.68832,1.5288-5.70752,1.83454l-.30575.10193-2.34415-4.0768a51.26465,51.26465,0,0,1-5.70752.91728l-.91727,4.58639H118.014l-.91727-4.58639a55.38928,55.38928,0,0,1-5.70753-.91728l-2.24225,4.0768-.30575-.10193c-.91727-.30574-4.68832-1.5288-5.70752-1.83454l-.30575-.10193.5096-4.68832c-1.73265-.81535-3.46527-1.63073-5.19792-2.64993l-3.46528,3.15953-.30574-.20386c-.91728-.61152-4.0768-2.95567-4.89215-3.56719l-.30575-.20386,1.93648-4.28065a51.283,51.283,0,0,1-4.0768-4.0768l-4.0768,1.83455q.91729,1.223,1.83455,2.44607c.30575-1.0192.5096-1.32494.71345-1.32494h.10193a4.35567,4.35567,0,0,1,2.14032,1.12112.95765.95765,0,0,1,.10193.91728l-.40768,2.44607a6.7369,6.7369,0,0,0,2.24226,5.70752l2.44607,2.75185a17.14613,17.14613,0,0,0,3.5672,3.0576,4.176,4.176,0,0,1,1.73265-2.0384c.10192,0,.20385-.10192.30575,0,1.32494,0,5.60559,1.5288,12.74,4.5864l3.873,4.17873a3.40021,3.40021,0,0,0,2.24222-.20382,6.0004,6.0004,0,0,1,3.46527-1.0192,6.88144,6.88144,0,0,1,1.42687.20385,6.14071,6.14071,0,0,1,2.446-.61153Zm-24.86846-5.6056a3.08,3.08,0,0,1,1.63072.5096,6.6745,6.6745,0,0,1,1.83455,1.5288c1.0192,1.12113,1.93647,2.34415,2.95567,3.5672l3.36335,2.34415h0a28.19435,28.19435,0,0,0,4.28065-.30575,24.11438,24.11438,0,0,0-2.95567-3.46527l-6.52287-2.44607-3.771-1.83455a2.07732,2.07732,0,0,0-1.73266-.20382,2.801,2.801,0,0,0-1.0192,1.63072l.10193.20386a2.60384,2.60384,0,0,1,1.22305-1.5288l.61153-.00007Zm46.5774-.10192h-.20385a62.686,62.686,0,0,0-8.96895,3.87294,11.38378,11.38378,0,0,0-2.44607,1.93648l-1.22305,1.73265,2.44607.20385c.91728-.5096,2.0384-1.0192,3.15953-1.63072a1.8989,1.8989,0,0,0,.91727-1.22306,2.502,2.502,0,0,1,1.93647-2.0384,8.43809,8.43809,0,0,1,2.75185-.71345h.30575a2.76772,2.76772,0,0,0,1.73265-.61152l.91728-.5096-.61153-.81535a2.5927,2.5927,0,0,0-.71342-.20382ZM124.333,277.11062h0l1.73265.81535.10192.10192h.10193l-.20385-.10192-.81535-.81535Zm32.51246-19.46672h0l.20385,1.93648-.10193,1.93647a6.64778,6.64778,0,0,1-1.83455,3.15952,14.70992,14.70992,0,0,0-2.34414,3.26146c-.61153,1.52879-2.64993,3.36334-6.319,5.19792l-.91727.81535a7.60015,7.60015,0,0,1-.40768,2.64992l2.64993-1.12112,5.29985-3.26146.30574-1.93647a3.03011,3.03011,0,0,0,2.0384.81535,3.62115,3.62115,0,0,0,1.0192-.20385,4.14671,4.14671,0,0,0,2.24225-1.93648,37.48606,37.48606,0,0,1,3.15953-3.87294,15.61521,15.61521,0,0,1,4.28065-3.46527,3.59071,3.59071,0,0,1,1.0192-3.66913l2.64992-2.34415a3.92991,3.92991,0,0,1,1.0192-4.58639,5.05417,5.05417,0,0,1,.10193-3.66913c-2.24225,4.79025-3.5672,7.54207-4.0768,8.45935s-.91727,1.32494-1.12112,1.32494h-.10193a3.14906,3.14906,0,0,1-.40767-2.548l-.91728,1.5288.10193,2.75185c-3.77105,4.89215-6.21712,7.644-7.44015,8.1536a6.69558,6.69558,0,0,0-1.73265,1.22305,1.29258,1.29258,0,0,1-.61152.10193c-.10193,0-.20386,0-.20386-.10193-.10192-.10192,0-.30574.10193-.61152a6.52825,6.52825,0,0,1,1.93647-1.325,7.63877,7.63877,0,0,0,2.548-3.15953,62.71618,62.71618,0,0,1,5.40175-9.58046,76.54728,76.54728,0,0,1,5.91134-7.94975l.10193-1.93647c-1.0192,1.0192-2.14033,2.24225-3.66913,3.87294-1.42687,1.5288-2.75185,3.15953-4.07679,4.89215a66.60259,66.60259,0,0,0-3.5672,5.70752,1.10089,1.10089,0,0,1-.71345.30575,1.797,1.797,0,0,1-1.52883-.81535Zm-45.55821,7.84785h0l.30575.10193a32.71531,32.71531,0,0,0,6.21712.91727h.30575l.91728,4.5864h5.19792l.91727-4.48447h.30575a41.63556,41.63556,0,0,0,6.21712-1.0192l.30575-.10193,2.24225,4.0768c1.22305-.40767,3.873-1.22305,4.99407-1.63072l-.5096-4.5864.30575-.10193a48.15719,48.15719,0,0,0,5.6056-2.85375l.30575-.20385,3.46527,3.15953c1.0192-.71345,3.26145-2.34415,4.17872-3.0576l-1.93647-4.17873.20385-.20385a46.55738,46.55738,0,0,0,4.48447-4.48447l.20386-.30575,4.28065,1.93648c.5096-.61153,1.5288-2.0384,2.34414-3.15953a1.41535,1.41535,0,0,1-.20385-1.12113,19.56618,19.56618,0,0,0-1.5288-1.42687c-1.93647-1.73265-3.5672-3.26145-3.26145-5.29985a7.68779,7.68779,0,0,1-.81535-2.44607,2.09011,2.09011,0,0,1,1.325-1.93647,1.73434,1.73434,0,0,1,.71345-.10193,1.83375,1.83375,0,0,1,1.5288.71345,12.9103,12.9103,0,0,0-1.83454-3.97487h0c-.30575-.61153-.71346-1.22305-1.0192-1.83455a37.00041,37.00041,0,0,1-8.35745,14.67647l-.5096.5096L136.8691,230.63511l5.91134,19.77247.40768,1.42687-1.22306-.81534-17.12254-11.82272,12.53615,16.30719-.61153.30575a36.97244,36.97244,0,0,1-15.18607,3.26145h0a36.40719,36.40719,0,0,1-15.38992-3.36335l-.61152-.30575,12.74-16.00144L101.4009,251.121l-1.223.81535.40767-1.42687,6.01327-19.97632-11.72067,16.7149-.5096-.5096a38.93741,38.93741,0,0,1-6.52287-10.09007,7.14673,7.14673,0,0,1-1.22305,2.85374c-.10192.10193-.20385.30575-.30575.40768A36.45022,36.45022,0,0,1,85.19573,247.35a14.75153,14.75153,0,0,1-2.24225,4.99407l.30574.40768.10193.20385,4.17872-1.93647.20386.20385c1.42687,1.5288,2.95567,3.0576,4.48447,4.48447l.20385.20385L90.49558,260.09c.91727.71345,3.15952,2.34414,4.17872,3.0576l3.36335-3.15953.30575.20385a41.436,41.436,0,0,0,5.60559,2.85375l.30575.10193-.20382,4.79022c1.12113.40767,3.771,1.22305,4.99407,1.63072l2.24225-4.0768ZM82.342,260.09h0l-.91727,1.12112,1.325,1.83455,1.22305,1.63072a5.03881,5.03881,0,0,0,1.93647,1.63073l-.40767-1.22305-1.22306-2.14033L82.342,260.09Zm97.02778-9.58047h.20385c0,.10192-.20385.30574-.71345.61152a11.39515,11.39515,0,0,0-2.95567,1.93648,15.93788,15.93788,0,0,1-6.31905,8.25552,32.25523,32.25523,0,0,0,5.096-2.24225,2.04215,2.04215,0,0,0,1.22305-1.0192,2.25066,2.25066,0,0,0,0-1.63073,49.79376,49.79376,0,0,0,4.5864-4.68832,2.9263,2.9263,0,0,0,.30575-3.36335c-.40768-.5096.5096-1.93647,2.64992-4.38254a8.039,8.039,0,0,0,1.325-3.36335h0a2.86336,2.86336,0,0,0-.10193-2.24225h-.20385a1.2984,1.2984,0,0,1-1.12113-.5096,5.12611,5.12611,0,0,1-.71345-3.46527c-.30575-1.5288-.61152-2.34415-1.12112-2.34415a.5605.5605,0,0,0-.5096.30575c-.61153,1.22305-1.22306,1.93647-1.83455,1.93647a.77029.77029,0,0,1-.40767-.10193,1.73455,1.73455,0,0,0-.71346-.10192c-.20385,0-.5096.10192-.5096.40767V234.61a4.0998,4.0998,0,0,1-.61152,2.64992.92525.92525,0,0,1-.71345.30575,1.73439,1.73439,0,0,1-.71346-.10193l-2.0384-1.22305a2.97582,2.97582,0,0,0-.91727-.20385.72649.72649,0,0,0-.61153.30575c-.20385.40767-.10192,1.12112.40768,2.24225l1.325,1.83454c.30574.91728.40767,1.5288.20385,1.83455a.52952.52952,0,0,1-.40768.20385c-.20385,0-.5096-.10192-.71345-.10192a.9773.9773,0,0,0-1.12112,1.12112,6.50353,6.50353,0,0,0,1.5288,3.77105,1.64342,1.64342,0,0,1,.61152,1.325c0,.30575-.20385.5096-.5096.71345a2.97588,2.97588,0,0,0-.91727-.20385,1.51459,1.51459,0,0,0-.91728.20385,6.29891,6.29891,0,0,0,.91728,2.75185.37444.37444,0,0,1,.10192.30575,1.00848,1.00848,0,0,1-.71345.5096,1.30927,1.30927,0,0,0-1.0192,1.0192,9.15973,9.15973,0,0,1-1.22305,6.52287A20.96674,20.96674,0,0,0,172.541,257.44a13.52407,13.52407,0,0,0,2.44607-3.97487,15.88176,15.88176,0,0,0-1.63072-2.0384c-.30575-.30575-.40768-.5096-.40768-.61153h0c.10193,0,.20386.10193.30575.10193a5.0483,5.0483,0,0,1,1.93647,1.93647,35.90333,35.90333,0,0,0,2.24225-6.31905,22.74982,22.74982,0,0,0-2.95567-6.82865c-.30575-.61152-.5096-.91727-.40767-.91727h0c.10192,0,.40767.40767,1.0192,1.0192a23.32686,23.32686,0,0,1,2.95567,5.70752,50.39093,50.39093,0,0,0,1.5288-5.6056l-1.0192-3.26145a6.54262,6.54262,0,0,1,1.22305,2.548l.81535-2.75185.30575-.61152h0a7.71311,7.71311,0,0,1-.10193,1.52879c-.5096,2.548-1.22305,5.096-1.93647,7.54208a20.3835,20.3835,0,0,0,3.66912-4.17873.9312.9312,0,0,1,.5096-.30575h0c0,.10193-.10192.40768-.61152,1.0192a17.31539,17.31539,0,0,1-3.873,4.68833,25.74734,25.74734,0,0,1-2.14032,6.52287,12.46522,12.46522,0,0,1,2.95567-1.73265l.00012-.40758Zm-57.6867-13.7592-.20385.10193-14.06494,17.836a35.77035,35.77035,0,0,0,14.26879,2.95567h.10193a37.28527,37.28527,0,0,0,14.06494-2.85374l-13.86112-17.93792Zm-43.41789,16.511-.5096.5096,2.44607,3.66912.20384-.5096-2.14031-3.66912Zm5.096-29.96446h0a3.46728,3.46728,0,0,1-.10192,1.0192c-.40768,4.28065-.61153,8.15359-.71346,11.51694-.10192,3.46527-.10192,6.1152-.20385,8.1536S82.24,248.573,82.24,251.73256l.20386-.20385.81534-1.83455a22.56117,22.56117,0,0,0,2.14033-8.56127,51.53643,51.53643,0,0,0,0-11.2112,34.18731,34.18731,0,0,0-1.42687-8.45934c-1.0192.30575-2.0384,2.548-3.15953,6.93054a61.613,61.613,0,0,0-1.42687,9.6824,55.85713,55.85713,0,0,0,.91727,11.61887l1.0192,1.22305.10193-6.1152.10192-4.48447a93.83,93.83,0,0,1,1.5288-16.81679c.20386-.102.20386-.20385.30578-.20385Zm-9.47857,18.44748h0a34.04165,34.04165,0,0,0-1.12113,9.07087,28.89865,28.89865,0,0,1,.81536-4.28065A57.10025,57.10025,0,0,1,78.9786,234.61a18.97718,18.97718,0,0,1,.91728-4.79025c-.61153.71345-1.12113,1.52879-1.73264,2.34414l.10193.30575-.40768.20385a28.94205,28.94205,0,0,0-3.97488,9.07093Zm87.855,2.14033a10.1865,10.1865,0,0,1-.81535,1.42687l3.15953,3.46527-.20385.30575c-.10193.10193-.20385.30575-.40768.5096.5096-.61152,1.0192-1.22305,1.5288-1.93647a1.65463,1.65463,0,0,0-.5096-.91727,23.28366,23.28366,0,0,0-2.24225-2.24226,1.35883,1.35883,0,0,0-.5096-.61149ZM112.51026,211.0665l-22.62624.5096,18.03985,13.7592,1.63072.61152-.91727,1.42687-6.52287,21.70894,18.65134-12.94384,1.0192-1.325h0l1.0192,1.22305,18.75326,12.94385-6.42094-21.607-1.0192-1.42687,1.5288-.5096L153.686,211.5761l-22.52432-.5096-1.73265.5096v-1.73265l-7.54207-21.40319h0l-7.54207,21.40319-.10192,1.73265ZM78.57093,242.96744h0l-1.223,3.15952,1.73264,2.24225h0a19.07947,19.07947,0,0,1-.5096-5.40177Zm88.87422-2.44608h0c-.20386.5096-.40768,1.12113-.61153,1.73265a9.036,9.036,0,0,1-.81535,1.73266,4.24271,4.24271,0,0,0,0,2.75185,46.59464,46.59464,0,0,1,4.38255-4.5864c.30575-2.548.30575-4.0768-.10193-4.48447-.10192-.10193-.10192-.10193-.20385-.10193-.61153,0-1.0192.61153-1.22305,1.73265a3.18619,3.18619,0,0,1-.20385.71346,1.76386,1.76386,0,0,1-.10193-.71346,4.74,4.74,0,0,1-.30575.91728l-.10192.30574Zm-3.873-.40767h0c-.5096,1.0192-1.0192,2.14032-1.5288,3.15952l.30575.20386a15.75727,15.75727,0,0,1,2.75185,2.44607,56.14542,56.14542,0,0,0-.61153-5.80945Zm-6.319-21.3013h0l-21.40319,7.644-.10193.10193.10193.20385,12.53614,18.95712a36.12763,36.12763,0,0,0,7.94975-14.98225,2.71344,2.71344,0,0,1-.30575-1.22305c-.10193-.81535.20385-1.42687.91727-1.5288a34.6084,34.6084,0,0,0,.30578-9.1728Zm1.0192,19.46672a.72649.72649,0,0,0-.61153.30575,1.71164,1.71164,0,0,0-.20385,1.83455,8.80181,8.80181,0,0,0,1.0192,1.63072,2.63256,2.63256,0,0,0,1.22305,3.15953l.10193.10192.20385.20385-.20385-.20385.20385-.30574a11.61933,11.61933,0,0,0,1.0192-1.93648c-.5096-.5096-1.0192-1.12112-1.5288-1.73265-.20385-.20385-.20385-.30575-.20385-.40767h0c.20385,0,.30575.10192.5096.20385a9.4429,9.4429,0,0,0,1.42687,1.42687,9.03415,9.03415,0,0,0,.81535-1.73265,1.73434,1.73434,0,0,1-.10193-.71345,13.683,13.683,0,0,0,.40768-3.5672l-.30575-.30575.30575-.30574a12.66821,12.66821,0,0,0-.10193-4.38255,8.34231,8.34231,0,0,0-1.0192-3.0576.56046.56046,0,0,0-.5096-.30575q-.7644,0-2.14032,1.5288a1.48433,1.48433,0,0,0-.91728-.61152,8.49246,8.49246,0,0,1-.40767,1.5288c.10193.10192.10193.30574.20385.40767a21.13884,21.13884,0,0,1,1.93647,3.26145,11.15594,11.15594,0,0,1,.91728,2.34415,3.65366,3.65366,0,0,1,0,2.548,4.76613,4.76613,0,0,0-2.03837-.91731ZM88.45718,226.25257h0a1.48528,1.48528,0,0,1,.71345,1.325,28.40351,28.40351,0,0,1-.81535,7.13439,35.63548,35.63548,0,0,0,6.421,10.7016l12.84192-18.75327v-.20385l-.20385-.10193L86.113,218.40472a39.492,39.492,0,0,0-.10192,6.01327,4.08939,4.08939,0,0,1,1.5288-.30575,1.73434,1.73434,0,0,1,.71345.10193,1.07159,1.07159,0,0,1,0,1.325l-.5096.91727a2.593,2.593,0,0,1,.71342-.20382ZM164.999,240.31751c.20385,1.0192.40768,1.93647.61153,2.95567a10.1845,10.1845,0,0,0,.81535-1.42687l.30574-.61153.10193-.20385.20385-.40767.10193-.20385ZM71.64037,218.81239c-.40767.81535-.71344,1.63073-1.12113,2.44608a16.43414,16.43414,0,0,0-1.325,4.99407,22.00523,22.00523,0,0,0,2.0384,7.1344,1.5807,1.5807,0,0,1,.40768,2.03839,5.58358,5.58358,0,0,0,.40767,2.85375,11.68676,11.68676,0,0,0,1.12112,3.15953c.30577-1.12113.61153-2.24226,1.0192-3.46528-.5096-1.42687-.91727-2.85374-1.12112-3.36334l-.10193-.30575,4.0768-2.34415a55.38405,55.38405,0,0,1-.91727-5.70752l-4.5864-.91727v-6.42095l.10194-.102Zm90.19918,8.1536a.86481.86481,0,0,1,.81535.71345,9.54446,9.54446,0,0,0,.40767,1.63073,10.75306,10.75306,0,0,1,.40767,3.15952,19.63677,19.63677,0,0,0,.10193,2.44608,1.43887,1.43887,0,0,1-.10193.91727,1.00692,1.00692,0,0,1-.71345.71345c.40767,0,.40767.10193.40767.30575h0a9.54435,9.54435,0,0,1-.40767,1.63072,13.99515,13.99515,0,0,0-.5096,1.83455v.5096c.10193-.30575.30575-.71345.5096-1.22305l.10193-.30575,1.22305.10193h0v-.40771a4.57,4.57,0,0,1-.10193-1.12112h0c.10193,0,.20385.40767.40768,1.12112.10192.20386.10192.40768.20385.61153l2.85374.30575a.35588.35588,0,0,0,.10193-.20386c.20385-.61152.5096-1.42687.71345-2.24225a2.13251,2.13251,0,0,0-.40767-.61152H167.649a1.81091,1.81091,0,0,0-1.0192.40767,2.42971,2.42971,0,0,1-1.12113.61153c-.30575,0-.5096-1.325-.61152-4.0768a3.66382,3.66382,0,0,1,.20385-1.12113l-.10193-.10192.10193-.30575a40.81672,40.81672,0,0,0,.81535-4.89215c0-.30574-.10193-.61152-.10193-1.0192a8.96888,8.96888,0,0,0-.5096-1.5288,1.6264,1.6264,0,0,0-.71345-.91727h-.20386q-.30578,0-.61152.61153c-.20385.30574-.30575.40767-.5096.40767a.21922.21922,0,0,1-.20385-.20385,2.45656,2.45656,0,0,0-1.0192-1.0192.76369.76369,0,0,0-.5096-.10193c-.40768,0-.71345.30575-1.12113.81535a14.15637,14.15637,0,0,0-1.42687,4.5864,3.5806,3.5806,0,0,1,2.44607-1.73265c.30584-.30569.40777-.30569.40777-.30569Zm-75.5227,5.096h0a38.42546,38.42546,0,0,1,.40768,5.91134c.20385-.91727.5096-1.83454.71345-2.75185a19.53165,19.53165,0,0,1-1.12113-3.15949Zm85.51084-11.82269h0v4.99407l-4.5864.91727a2.53275,2.53275,0,0,1-.10192.81535,8.01137,8.01137,0,0,1-.10193,4.38255c-.10193.20385-.30575.5096-.40767.71345l3.77105,2.14032-.10193.30575q-.15288.6115-.61152,2.14033a1.44851,1.44851,0,0,1,.61152-.20386.61273.61273,0,0,1,.40768.10193c.20385-1.12113.5096-2.24225,1.63072-2.24225a2.04846,2.04846,0,0,1,1.325.40767,31.79426,31.79426,0,0,0,1.325-7.03247,19.78967,19.78967,0,0,1,.20385-2.44607,19.592,19.592,0,0,0-2.85375-4.28065,1.82768,1.82768,0,0,1-.5096-.71339Zm-95.499,13.24959h0l-2.14032,1.22305c.20384.5096.40767,1.22306.61153,1.93648a18.06253,18.06253,0,0,1,1.52879-3.15953Zm89.79148-.61152h0a6.0645,6.0645,0,0,0-.10193,2.34414,2.82144,2.82144,0,0,0,.30575,1.325,8.91729,8.91729,0,0,0,1.0192-.81535h.10192a1.10822,1.10822,0,0,1,.5096-.10192,1.47314,1.47314,0,0,1,.71346.20385c.10192,0,.10192.10193.20385.10193.20385-.5096.30575-.91728.40767-1.22306l-3.15952-1.83454Zm10.29392-7.94978a72.55089,72.55089,0,0,1-1.63073,10.49774l1.12113.61153c.5096-2.24225,1.325-5.91134,2.24225-11.10927h-1.73265Zm7.84785,5.096h0a6.49866,6.49866,0,0,0-1.42687.81535c.10192.20385.30574.40767.40767.61152a1.676,1.676,0,0,0,.20385,1.0192,1.82833,1.82833,0,0,0,.5096.71345,5.81087,5.81087,0,0,1,.10193,1.325l.91727,1.63073a3.91316,3.91316,0,0,0,1.83455-.91728,1.605,1.605,0,0,0,.40767-1.32494h0a1.8128,1.8128,0,0,0-.71345-.81535,1.94071,1.94071,0,0,0,.5096-1.93647,8.65078,8.65078,0,0,0,.91727-2.24226,1.07034,1.07034,0,0,0-.5096-.91727,1.15725,1.15725,0,0,0-.81534-.30575h-.30575a7.46272,7.46272,0,0,0,.81535-2.548,4.73452,4.73452,0,0,0-.61153-2.34414,2.82108,2.82108,0,0,0-1.325-.30575,2.51,2.51,0,0,0-1.93647.91727,1.98688,1.98688,0,0,0-.81535-.10192,3.002,3.002,0,0,0-2.44607,1.32494c-.71345,2.75186-1.22305,5.40175-1.63073,7.94975.10193.10193.20386.10193.40768.10193.61152,0,1.42687-.71346,2.44607-2.24226a7.97738,7.97738,0,0,1-.71345-2.548c0-.40767.10192-.71345.20385-.71345s.20385.30575.30575.81535a4.57725,4.57725,0,0,0,.71345,1.83455,31.26389,31.26389,0,0,1,2.34415-3.97488c.20385-.30574.40767-.5096.5096-.5096h0a1.3637,1.3637,0,0,1-.10193.5096,13.45782,13.45782,0,0,0-2.24225,5.096h.10192c.30575,0,.5096-.20385.81535-.40767a3.76849,3.76849,0,0,1,1.12116-.5096Zm-97.33356-.40767h0a1.10808,1.10808,0,0,1,.10193.5096h0c.20385.91727.5096,1.93647.81534,2.85374.20386-1.22305.40768-2.548.5096-3.87294,0-.81535,0-1.325-.20385-1.5288,0-.10193-.10193-.10193-.20385-.10193a.83807.83807,0,0,0-.61153.40767l-.61152.71346a1.83782,1.83782,0,0,0,.20388,1.0192Zm7.94974-48.92158c-.40767.30576-1.12112.71343-1.73265,1.223a50.44417,50.44417,0,0,1-3.77105,6.421c1.12113,6.421-7.94976,19.059-12.12847,22.72814l.81537.40767-.10193.30575a32.71449,32.71449,0,0,0-.91727,6.21713v.30574l-4.5864.91728V224.418l4.5864.91727v.30575a40.89694,40.89694,0,0,0,.71343,5.096,23.51062,23.51062,0,0,1,1.42688-1.93647l.61152-.61153c.81536-3.771,1.83456-6.6248,3.97487-7.94974a.37442.37442,0,0,1,.30575-.10193c.10193,0,.10193,0,.10193.10193.20385.40767.30574.91727.5096,1.32494,0-1.42687.10192-2.85374.20385-4.28065l.10193-.71345,19.16094,7.1344L87.7437,211.27023l-1.22306-.91727h1.5288l20.89359-.5096-19.77246-5.80944.40767-.61152a36.60635,36.60635,0,0,1,24.76654-17.73407l.71345-.10193-.91727,20.48592,6.82865-19.46672.5096-1.42687.5096,1.42687,6.93054,19.67056-.61152-20.58783.71345.10193A36.33448,36.33448,0,0,1,153.584,203.932l.30575.61153-19.67054,5.50367,20.58785.5096h1.5288l-1.22306.91727-16.61294,12.74,19.46672-6.93055.10193.71345a33.5352,33.5352,0,0,1-.30575,10.09007c.20385.10193.5096.20386.61153.40768a7.65325,7.65325,0,0,1,1.63072-5.29985,1.94663,1.94663,0,0,1,1.42687-.71346h.30575a1.89427,1.89427,0,0,1,1.5288.91728,1.45122,1.45122,0,0,1,1.325-.91728h.20385a1.98925,1.98925,0,0,1,1.22305,1.32495c.10193.5096.30575,1.0192.40768,1.5288l4.07679-.81535V219.3219l-4.58639-.91727v-.30575a41.63664,41.63664,0,0,0-1.0192-6.21712l-.10193-.30575,1.93647-1.0192v-.10193a3.15435,3.15435,0,0,1-2.24225-1.83454,17.036,17.036,0,0,1-1.32494-2.0384,1.82807,1.82807,0,0,0-.5096-.71344,22.53846,22.53846,0,0,0-4.0768-2.85376,2.259,2.259,0,0,1-1.73265-1.42688,2.48973,2.48973,0,0,1,.10192-2.24223,4.76123,4.76123,0,0,1,1.0192-.5096c-.10192-.20384-.30575-.5096-.40767-.71344-.71345-1.0192-1.83455-2.548-1.0192-3.771a2.02883,2.02883,0,0,1,1.22305-.81537,8.96907,8.96907,0,0,1-.5096-1.52879l-1.73265.81536-.20385-.30577a46.5609,46.5609,0,0,0-4.48448-4.48447l-.20385-.20383,1.93647-4.17873c-.71345-.5096-2.14032-1.63072-3.26145-2.44607-.20385,0-.5096-.10193-.81534-.10193a.77851.77851,0,0,1-.5096-.20383L145.02272,183.65l-.30574-.20383a41.43913,41.43913,0,0,0-5.6056-2.85377l-.30575-.10192.5096-4.5864c-1.12112-.40767-3.77105-1.325-4.99407-1.63073l-2.24225,4.0768-.30575-.10192a43.90191,43.90191,0,0,0-6.21712-1.0192h-.30575l-.91727-4.48448h-5.19793l-.91727,4.48448h-.30575a41.6332,41.6332,0,0,0-6.21712,1.0192l-.30575.10192-2.34415-4.0768c-1.12112.30577-3.77105,1.223-4.89214,1.63073l.5096,4.5864-.30575.10192a36.20628,36.20628,0,0,0-5.6056,2.85377l-.30574.20383ZM87.03027,224.8257h0a4.13054,4.13054,0,0,0-.91727.5096c.10193.71345.10193,1.32494.20385,2.03839l1.0192-1.52879c.20386-.40768.30575-.71346.20386-.81535a.37442.37442,0,0,0-.30575-.10193c0-.10192-.102-.10192-.20389-.10192ZM72.2519,180.59243c-.30577,0-.71344.30576-1.325,1.01919a38.23549,38.23549,0,0,0-8.05167,14.98224,75.60832,75.60832,0,0,0-1.73263,11.72079,35.14517,35.14517,0,0,0,.71343,8.6632,39.33138,39.33138,0,0,0,1.73264,5.91134,5.80529,5.80529,0,0,0,3.0576,3.15953,10.04253,10.04253,0,0,1,.20384-1.73265,1.44862,1.44862,0,0,1-.61153.20385.7637.7637,0,0,1-.5096-.10193,4.82887,4.82887,0,0,1-1.83456-2.85375,26.88459,26.88459,0,0,1-.61153-8.05167c.5096-10.59966,2.44607-18.75326,5.6056-24.257a6.24149,6.24149,0,0,1,.5096-.61152h0a3.00359,3.00359,0,0,1-.5096,1.325,52.09138,52.09138,0,0,0-3.46527,14.77839,50.51516,50.51516,0,0,0-.71344,13.55534h0c.91727-4.48447,1.83456-8.15359,2.64993-10.90543.40767-2.34416,1.63072-7.03247,3.66912-13.86112a36.75167,36.75167,0,0,0,1.5288-6.6248,30.65234,30.65234,0,0,0,0-6.11519c0-.10191-.10193-.20382-.30576-.20382Zm15.49183,8.2555h0a8.12571,8.12571,0,0,0-4.89215,3.46527,103.902,103.902,0,0,0-7.23632,11.517l-3.26144,7.54209-2.75183,7.1344a12.32339,12.32339,0,0,0-.5096,1.83454,7.65527,7.65527,0,0,1-2.0384,4.28065v1.22306a12.47471,12.47471,0,0,0,2.44607-5.40175,33.65806,33.65806,0,0,1,2.34416-4.17872c.91728-1.73266,2.0384-3.66913,3.15953-5.70753,1.0192-2.0384,4.17872-6.93056,9.58048-15.08415.10193-.10193.20386-.10193.30575-.20384h0c.10193.10192-.20385.81536-.91727,2.0384l-2.64993,4.68832L76.12486,210.455h.20383a50.26839,50.26839,0,0,0,9.47856-13.14767h0l.10193-.10193a30.82409,30.82409,0,0,0,1.93647-5.096,5.11084,5.11084,0,0,0-.10192-3.26145Zm86.02043,32.41057c.61153.81534,1.42688,2.0384,2.34415,3.46527l1.93647-.10193.30575-3.77105a2.704,2.704,0,0,0,2.24225-2.24225,27.34673,27.34673,0,0,0-.71345-8.1536,26.62413,26.62413,0,0,0-5.29985-5.40176,2.88017,2.88017,0,0,1-.5096-.61152h0l.61153.30576a33.91211,33.91211,0,0,1,4.68832,3.66913l-1.22305-4.79024a25.22512,25.22512,0,0,1-4.0768-4.5864,2.82045,2.82045,0,0,1-.40767-.71343h0a2.26228,2.26228,0,0,1,.5096.40767,14.83989,14.83989,0,0,0,3.66912,3.46527c-.61152-1.73263-1.12112-3.46527-1.83455-5.40176a22.3318,22.3318,0,0,0-5.096-4.68832c-.5096-.40768-.81535-.61153-.71346-.71344h.10193a1.44883,1.44883,0,0,1,.61153.20384,14.49764,14.49764,0,0,1,4.17872,2.85376c-.61152-1.73264-1.325-3.46527-2.0384-5.19793a22.48139,22.48139,0,0,0-2.95567-3.26143c-.20385-.20384-.20385-.30576-.20385-.40767h0l.61152.30576a13.28592,13.28592,0,0,1,2.24225,1.93647l-1.01919-3.26143v-.61153h0c.10192,0,.20385.20384.40767.61153l1.12112,2.548,1.73266,4.38256a8.79367,8.79367,0,0,0,.40767-2.85377c.10193-.61152.20385-1.01919.20385-1.01919.10193,0,.10193.40767.10193,1.12112a12.21543,12.21543,0,0,1-.30575,3.873c.81535,1.93648,1.5288,4.0768,2.24225,6.21713a10.88753,10.88753,0,0,0,1.73265-4.68833c.10193-.61152.20386-1.0192.30575-1.0192h0a2.90869,2.90869,0,0,1,0,1.325,10.99043,10.99043,0,0,1-1.5288,4.99408c.71345,2.75183,1.325,5.19792,1.93648,7.13439a6.696,6.696,0,0,0,1.73265-2.95567,3.6799,3.6799,0,0,1,.40767-.5096h0a2.35712,2.35712,0,0,1-.20385.91727,10.11979,10.11979,0,0,1-1.73265,3.66913,49.50173,49.50173,0,0,1,1.0192,5.60558,24.9071,24.9071,0,0,1,.10192,4.79025,2.68524,2.68524,0,0,0,.61153-2.14032,5.5548,5.5548,0,0,1,.5096-2.24226,36.07319,36.07319,0,0,1,1.63072-3.46527c.40768-.81534.61153-1.32494.40768-1.63072a.52954.52954,0,0,0-.40768-.20386h-.10192l-1.42688.40768h-.10192a.52952.52952,0,0,1-.40768-.20385.77852.77852,0,0,1-.20385-.5096,3.77458,3.77458,0,0,1,1.22305-2.44608,2.3193,2.3193,0,0,0,1.0192-1.93647,5.31034,5.31034,0,0,0-.91727-2.95567,3.81012,3.81012,0,0,0-2.0384,1.223c-.20385.20384-.30575.40768-.40767.40768s-.10193-.10193-.10193-.30577a4.4671,4.4671,0,0,1,.71345-1.93647,4.328,4.328,0,0,0,.5096-2.75183,19.67859,19.67859,0,0,0-1.5288-4.0768,2.96609,2.96609,0,0,0,0-2.34416.72643.72643,0,0,0-.61152-.30577,2.4352,2.4352,0,0,0-1.42688.5096,8.12817,8.12817,0,0,0-1.12112-5.29983q-.7644-1.5288-1.5288-1.5288a1.07032,1.07032,0,0,0-.91727.5096,14.808,14.808,0,0,0-3.77105-4.17873,2.39861,2.39861,0,0,0-.81535-.20383c-.20385,0-.5096.10192-.5096.40767a14.44105,14.44105,0,0,1-.81535,1.83456,5.06214,5.06214,0,0,0,0,3.46528c-1.12112.30576-1.63072.91727-1.42687,1.73263l.81535,2.44607a5.55529,5.55529,0,0,1,1.22305,2.44608,3.94651,3.94651,0,0,1-.30575,2.64992,4.1276,4.1276,0,0,1,2.14033-.71343,1.17083,1.17083,0,0,1,1.12112.61152,4.52591,4.52591,0,0,1,.10193,2.0384c-.10193,1.12113-.10193,2.24224-.10193,3.26144,0,.40767.40767.71343,1.325,1.0192a1.29657,1.29657,0,0,1,.91727.71343.99061.99061,0,0,1-.10192.91728.37444.37444,0,0,1-.30575.10192,1.6286,1.6286,0,0,1-1.0192-.5096,3.62023,3.62023,0,0,0-.91728-.40767.56049.56049,0,0,0-.5096.30576,1.96638,1.96638,0,0,0-.30574,1.0192,3.82038,3.82038,0,0,0,1.83454,2.14033c2.85375,1.93648,4.28065,3.05761,4.28065,3.56721,0,.10193,0,.10193-.10192.20385h0a1.07034,1.07034,0,0,0-.91727.5096,1.10406,1.10406,0,0,0,0,1.12113,3.57593,3.57593,0,0,0,1.93647,1.73265,2.96145,2.96145,0,0,1,1.22305,3.15952,2.54471,2.54471,0,0,1-1.63073,2.548,13.76349,13.76349,0,0,1-.40767-2.85374,1.41717,1.41717,0,0,0-1.0192-1.22305c-.71345-.30575-1.73265-2.75186-2.95567-7.1344l-1.63073-.10193c1.5288,5.096,2.548,7.74593,2.95568,7.84785a2.45274,2.45274,0,0,1,1.22305,1.63073,17.42316,17.42316,0,0,1,0,3.26145A2.13059,2.13059,0,0,0,176.72,221.972a1.51786,1.51786,0,0,0,.91727.40767h.10193l-.71345.91728a2.48081,2.48081,0,0,1-1.42687-1.0192,4.181,4.181,0,0,1-.71346-2.24225V217.6913q0-.9173-.61152-.91727c-.20385,0-.40768.10192-.61153.10192a1.64378,1.64378,0,0,1-.91727.30575.8635.8635,0,0,1-1.0192-1.0192,6.58707,6.58707,0,0,1,.61152-2.14033,2.97288,2.97288,0,0,0-.10192-1.63072,1.81076,1.81076,0,0,0-1.0192-.40767.91882.91882,0,0,0-.5096.10192h-.10193a.77847.77847,0,0,1-.5096-.20385,2.38775,2.38775,0,0,1-.10192-2.0384l.10192-.5096-1.42687.81535a4.47272,4.47272,0,0,0,.30575,2.85374c.71345,1.42688,1.42687,2.75185,2.24225,4.0768,1.223,2.03843,2.0383,3.36338,2.5479,4.17876ZM67.25781,212.90105c-1.42687,5.6056-1.93647,8.76512-1.63073,9.27472l.30577.61153c.30576-2.34418.81536-5.50371,1.325-9.88625Zm4.28065-2.0384-1.223.20385-.5096,2.24225-.5096,2.24225-.40767,3.15953,1.12113-3.66913Zm4.99407.81535a2.55467,2.55467,0,0,1-.71343.40767A3.91174,3.91174,0,0,0,74.698,213.2068a47.17407,47.17407,0,0,0-2.95567,5.50367l4.48447-.91728a55.38677,55.38677,0,0,1,.91727-5.70752Zm90.81069-.30575h0l-1.12113.61153a51.26232,51.26232,0,0,1,.91728,5.70752l3.46527.71345a55.22924,55.22924,0,0,1-3.26142-7.0325Zm-37.60846-24.257.61153,22.62622.10192.20386h.20386l21.91279-6.1152a36.34728,36.34728,0,0,0-22.8301-16.71488Zm-15.6957,0a35.80346,35.80346,0,0,0-22.932,16.511h0l21.81087,6.42094h.20385l.10193-.20385.81534-22.72812ZM167.649,204.33978l-.5096.10192a10.66186,10.66186,0,0,0-.40768,1.73264l1.325,3.873.5096-.30575c.10193-.40767.30575-.71345.40767-1.12112a44.13922,44.13922,0,0,0-1.32494-4.28065Zm2.24225,2.75183h0a.76369.76369,0,0,1-.10193.5096h0c.20385.71344.40768,1.325.5096,1.63071l.10193.20386.81535-2.85377a1.98764,1.98764,0,0,0-.10193-1.325c-.10193-.10192-.20385-.20384-.40767-.10192a2.71755,2.71755,0,0,0-1.42688.71343,11.07487,11.07487,0,0,0,.5096,1.42688v-.10193a.09981.09981,0,0,1,.10193-.1019Zm-4.89218-2.44608h0l-1.93647.20383a17.7164,17.7164,0,0,1,1.325,1.5288,4.821,4.821,0,0,0,2.24225,2.64991l-1.42688-4.28062Zm-89.89338-2.34415-1.5288.30576-1.63073,5.096.61153.10191a33.83362,33.83362,0,0,1,2.548-5.50367Zm-4.68833-1.63073h0c-.61152,2.14033-1.12112,4.28064-1.52879,6.52287l2.14032-5.70752-.61153-.81535Zm97.84316,2.64993h0l.10193.30576c.10193.30576.40767,1.0192.71345,2.0384a5.19742,5.19742,0,0,1,1.42687-2.64992,2.41062,2.41062,0,0,0,.91728-2.24224,10.65385,10.65385,0,0,1,0-2.548,1.40893,1.40893,0,0,0-.40768-1.63072h-.10192c-1.12113,0-2.44607,1.12112-4.17873,3.36336l.91728-2.24224a7.91326,7.91326,0,0,0,.5096-5.50367,4.36251,4.36251,0,0,0-1.63073-1.42687,4.98451,4.98451,0,0,0-1.63072,1.63072c-.40768.5096-.71346.71344-1.0192.71344q-.15289,0-.30575-.30576l.40767-2.44608a2.377,2.377,0,0,0-1.32494-2.14032c-.81535-.40768-1.73266-.91728-2.75186-1.42688a14.85738,14.85738,0,0,1-.71345,1.93648,6.47847,6.47847,0,0,0-.61152,1.83456l1.63072-.71344.20385.30577a11.18124,11.18124,0,0,0,.81535,1.0192l.20385.10192v.20385c0,.10193,0,.10193.10193.20384,1.0192,1.325,2.14033,2.95567,2.44607,3.46527l.20385.30577-1.22305,1.325c.20386.91727.40768,1.5288.5096,2.24223a16.63039,16.63039,0,0,1,1.83455-4.38256,4.79147,4.79147,0,0,1,.91727-1.223h0a3.05271,3.05271,0,0,1-.40767,1.0192,15.79092,15.79092,0,0,0-1.93647,5.70752l1.63072,3.66913,1.32495-.20384a15.03625,15.03625,0,0,1,2.548-4.48447,1.76369,1.76369,0,0,1,.5096-.5096h0a3.05213,3.05213,0,0,1-.40768.81536,16.20665,16.20665,0,0,0-2.14032,4.17872l.9173-.30582Zm-1.63072,1.12111-.61153.10193.40768.91727a3.01578,3.01578,0,0,1,.20385-1.0192Zm-7.644-4.68831c-.81535,0-1.22305.20384-1.325.71344a1.39472,1.39472,0,0,0,.91728,1.63072,11.891,11.891,0,0,1,4.48447,2.64993l-.10193-.20384c-.30574-.81536-.71345-1.5288-1.0192-2.34416a12.14587,12.14587,0,0,0-2.0384-.81536c-.40767-.20384-.61152-.30577-.61152-.40768h.10192a.76366.76366,0,0,1,.5096.10193c.61153.20384,1.22306.5096,1.83455.71344-.5096-1.0192-1.0192-1.93648-1.63072-2.95568l-.20386-.30576.91728-1.0192a9.30425,9.30425,0,0,0-1.325-.81536,5.87413,5.87413,0,0,1-.5096-.40768h0c.20385.10193.30575.10193.5096.20384a11.13948,11.13948,0,0,1,1.5288.81536l1.0192-1.12112c-.30575-1.12113-.61153-2.34416-.81535-3.46527-.5096-.71344-1.0192-1.42688-1.325-1.83457l-1.42687.61153h0a3.05574,3.05574,0,0,0,.71345,2.44607h0a1.96917,1.96917,0,0,0-1.73265.61153c-.30575.40767-.20385,1.12112.20385,1.93647l.61153.91727a7.1196,7.1196,0,0,1,1.12113,2.14033c-.10193.20382-.20386.20382-.40771.20382Zm4.28065,3.36335a7.01624,7.01624,0,0,1,.30575.81536l.5096-.10193a5.82665,5.82665,0,0,0-.81535-.71343Zm-1.73265-4.99408h0l-.5096.61153c.71345,1.223,1.42687,2.44607,2.0384,3.771a15.34342,15.34342,0,0,1,1.73265,1.0192c-.61153-1.5288-1.22305-2.85377-1.73265-3.97488a9.78611,9.78611,0,0,0-1.5288-1.42689ZM93.85892,173.3561a2.49895,2.49895,0,0,0-1.63072.61153,28.73091,28.73091,0,0,0-7.44015,8.969l-4.58639,8.56127-4.68833,8.35743-.40767,1.223c2.548-3.873,4.48447-6.82864,5.29983-8.1536l1.223-1.93647c3.26145-5.50367,5.91134-9.58047,7.84785-12.2304a52.98931,52.98931,0,0,1,3.5672-4.48447c.10192-.10193.20385-.20384.30574-.20384h0a2.54564,2.54564,0,0,1-.40767.81537c-2.85375,4.17872-4.89214,7.33823-6.21712,9.47856-1.325,2.0384-2.44608,3.97487-3.46527,5.60559a10.80679,10.80679,0,0,1,5.80945-2.85376l2.95567-5.70752a28.02644,28.02644,0,0,0,2.0384-5.80944,5.06807,5.06807,0,0,0-.10193-2.14032l-.10193-.10193Zm68.49023,23.84928h0l-.61153.61153c.40768.30576.71345.61152,1.12113.91727-.20385-.5096-.30578-1.0192-.5096-1.5288Zm-77.663-25.58191h0c.10192.10192,0,.40767-.20385.91727a40.12594,40.12594,0,0,0-3.97488,6.21712,149.765,149.765,0,0,1-7.54207,14.47263l-1.5288,2.34417-.30576,1.325a13.28018,13.28018,0,0,1,1.0192-1.5288c.40767-.5096,1.5288-1.73264,3.26144-3.66913a109.48637,109.48637,0,0,0,9.98814-15.288l3.87295-9.98816a1.11386,1.11386,0,0,0-.20386-1.0192,8.14363,8.14363,0,0,0-3.26145,2.24224,35.92449,35.92449,0,0,0-2.85374,3.36336,37.64591,37.64591,0,0,0-4.17873,7.03247,57.24181,57.24181,0,0,0-2.548,5.70752l-1.5288,3.771a83.823,83.823,0,0,1,8.969-15.18607c.50966-.30576.81541-.71343,1.01926-.71343Zm77.56109,22.52431h0c.10193.5096.30575,1.0192.40768,1.42688l.30574-.40768a10.0013,10.0013,0,0,0-.71342-1.0192ZM153.686,183.75193h0l-1.73265,3.873a38.49228,38.49228,0,0,1,4.0768,4.07679l1.42687-.71343a2.87626,2.87626,0,0,1,.40768-1.5288,12.1494,12.1494,0,0,1,.81534-2.0384,13.86391,13.86391,0,0,1-3.87294-2.44607,4.34471,4.34471,0,0,1-1.1211-1.22306Zm5.70749,1.42689h0a13.54542,13.54542,0,0,1,5.40175,3.5672,1.67215,1.67215,0,0,1,.20385,1.93647c.5096-.71343,1.0192-1.12112,1.42688-1.12112a.56048.56048,0,0,1,.50959.30576l-.50959-1.63072a2.13056,2.13056,0,0,1,.40767-1.73264l-.10193-.5096a15.80331,15.80331,0,0,0-5.6056-2.24224,9.88756,9.88756,0,0,1-3.36334-1.01919,4.03429,4.03429,0,0,1-.71345-.5096h0a3.65136,3.65136,0,0,1,1.12112.40767,8.67029,8.67029,0,0,0,3.15953.91727,16.28063,16.28063,0,0,1,4.89214,1.63073l-.91727-2.14033a12.02592,12.02592,0,0,0-2.75185-3.26143,14.68905,14.68905,0,0,0-4.0768-1.325,6.73085,6.73085,0,0,1-2.85375-.91727c-.40767-.30576-.71345-.5096-.61152-.5096l.10192-.10192a.61277.61277,0,0,1,.40768.10192,9.4164,9.4164,0,0,0,2.75185.81536,20.195,20.195,0,0,1,3.5672.81537c-.81535-.81537-1.73265-1.83457-2.64993-2.95568a29.06013,29.06013,0,0,1-3.15952-4.68832v-.20384h0c.10192,0,.20385.20384.5096.71344a34.82662,34.82662,0,0,0,4.28065,5.29983,15.79366,15.79366,0,0,1-.10193-4.38256,1.05412,1.05412,0,0,1,.10193-.40767q.15288,0,.30574,1.223a13.10918,13.10918,0,0,0,.30575,3.97487,42.99568,42.99568,0,0,1,4.5864,4.99407,16.42516,16.42516,0,0,1,.10193-3.873c0-.40768.10192-.5096.10192-.5096a1.23651,1.23651,0,0,1,.10193.5096,16.66344,16.66344,0,0,0,.5096,4.99407l.61152,1.42687a5.266,5.266,0,0,1,1.12113-3.26143,5.74365,5.74365,0,0,0-1.5288-4.68833c-.40767-1.73263-.81535-2.64992-1.22305-2.64992a2.30682,2.30682,0,0,0-1.0192,1.5288l-1.22305-.5096c-.81535-3.5672-1.63073-5.6056-2.548-5.91136a1.51112,1.51112,0,0,0-.71345-.10193c-.5096,0-.71346.30576-.81535.81536a5.70625,5.70625,0,0,0-3.5672-1.325h-.61153a2.66931,2.66931,0,0,0-1.22305,2.95567l.71346,2.75184-.5096.71344-1.22306.30576a1.04385,1.04385,0,0,0-.5096.61153,1.68771,1.68771,0,0,0,.5096,1.325,8.24108,8.24108,0,0,0,3.771,2.64992c.40768.30577.5096.5096.5096.61153,0,.20384-.40767.30576-1.0192.30576a2.30317,2.30317,0,0,0-1.52879.5096,1.09269,1.09269,0,0,0-.20386.61153h0a6.29006,6.29006,0,0,0,4.28065,4.17872l.50963-1.01917Zm-8.35741-3.771c.81534.61152,1.5288,1.12112,2.0384,1.5288a5.89267,5.89267,0,0,1-.5096-1.42688h-.10193a6.72867,6.72867,0,0,0-1.42687-.10192Zm-1.83458-13.45345a1.68146,1.68146,0,0,0-1.5288.91727,3.55124,3.55124,0,0,0,1.0192,2.95568.68814.68814,0,0,1,.40767.61152,1.63674,1.63674,0,0,1-.5096,1.12113l-1.42687.5096a4.56991,4.56991,0,0,0,3.36335,3.873l-.5096.91727c-1.0192.61153-1.0192.91728-.91728,1.223.10193.40767.5096.5096,2.34415.5096h1.325a1.01233,1.01233,0,0,1,.81534-.61153,8.726,8.726,0,0,1-1.93647-1.93647,6.26349,6.26349,0,0,1-.5096-3.0576,3.23912,3.23912,0,0,1-1.42687.20384,2.24386,2.24386,0,0,1-.81535-.10193c-.30575,0-.5096-.10192-.5096-.20383s.10193-.10193.30575-.20384h.40767a5.5352,5.5352,0,0,0,3.46527-1.223,20.79951,20.79951,0,0,0-2.34414-2.75183c-.40768-.40768-.5096-.61153-.5096-.71344h.10192a6.23607,6.23607,0,0,1,1.22306.5096,7.00276,7.00276,0,0,1,1.93647,1.93647,7.72007,7.72007,0,0,1,0-3.0576,2.30383,2.30383,0,0,1,2.34414-1.93647h.30575a2.71369,2.71369,0,0,0-1.223-.30576c-.91727,0-1.73265.71344-2.44607,2.0384a3.802,3.802,0,0,0-2.75179-1.223Zm-38.22-2.64991c.20386,0,.40768,0,.40768.10193s-.20385.40767-.71345.61152a107.06543,107.06543,0,0,0-14.57455,9.78433v.5096q2.44609-1.22306,4.5864-2.14033h0c2.14033-1.0192,4.17873-1.93647,5.80945-2.85376a31.25825,31.25825,0,0,0,6.82865-4.68833,4.7272,4.7272,0,0,0,1.73265-3.26143,8.68755,8.68755,0,0,0-2.34414-.30576,7.94843,7.94843,0,0,0-2.24225.30576,56.27951,56.27951,0,0,0-14.7784,10.192l-.10192.91728c3.56719-2.34416,6.52287-4.28064,9.17279-6.1152,2.0384-1.223,3.66913-2.14032,5.19793-2.95567.30574,0,.71342-.10193,1.01916-.10193Zm1.325-6.319a16.24925,16.24925,0,0,0-4.89214.71343,32.36383,32.36383,0,0,0-10.29392,5.50368,52.28849,52.28849,0,0,0-8.25553,8.867l4.68833-4.17873a116.28122,116.28122,0,0,1,10.39585-7.03247,20.96584,20.96584,0,0,1,4.89214-2.14032,14.958,14.958,0,0,1-4.0768,2.44607,93.60165,93.60165,0,0,0-12.63807,9.27472,3.11552,3.11552,0,0,1,2.0384-.71343,4.33487,4.33487,0,0,1,1.12113.20383l1.12112-.71343a64.98432,64.98432,0,0,1,8.56127-6.1152,20.81525,20.81525,0,0,1,6.21713-2.64993l1.73265-2.24223a.76938.76938,0,0,0,.10193-.81536.838.838,0,0,0-.61153-.40768Zm31.799,11.21119h0l-.20385,1.83457,2.75185.81536.91727-.30577a8.05316,8.05316,0,0,1-1.0192-4.28063l-1.32494-.5096a7.2039,7.2039,0,0,0-3.77105,1.223,1.15737,1.15737,0,0,1-.81535.30576h-.10193c0-.10193,0-.20384.20385-.40767a10.30389,10.30389,0,0,1,3.36335-1.63073,43.29577,43.29577,0,0,1-4.99407-2.14033,12.75121,12.75121,0,0,1-4.38255.71344,6.72867,6.72867,0,0,1-1.42687-.10192,1.64387,1.64387,0,0,1-.91727-.30577,1.92009,1.92009,0,0,1,.81534-.20383,1.29271,1.29271,0,0,1,.61153.10192h.30575a9.96991,9.96991,0,0,0,4.17872-.91727,5.78371,5.78371,0,0,0-1.83454-1.223,22.9666,22.9666,0,0,0-4.48448-1.42687,1.11588,1.11588,0,0,1-.40767-.20384,1.23667,1.23667,0,0,1,.5096-.10192,13.88345,13.88345,0,0,1,4.5864,1.223c.71345.40768,1.5288.71344,2.34414,1.12113a11.302,11.302,0,0,1-2.548-3.26144v-.71343h.10192c.10193,0,.30575.20383.61153.71343.81534,1.0192,1.63072,2.0384,2.44607,2.95567a12.01945,12.01945,0,0,0,5.096,2.85377,8.5503,8.5503,0,0,1-1.93648-3.97488c0-.40767,0-.71343.10193-.71343s.20385.30576.40767,1.0192a16.50134,16.50134,0,0,0,2.75186,4.17872l1.12112.5096a3.44375,3.44375,0,0,1,2.0384-.61152,3.16189,3.16189,0,0,1,2.24225.91727l-.20385-1.93647a1.19419,1.19419,0,0,0-1.12113-.91728,2.89743,2.89743,0,0,0-1.22305.40768,19.14912,19.14912,0,0,0-3.5672-3.46528,18.877,18.877,0,0,0-3.36334-2.14032,1.88941,1.88941,0,0,0-.71345-.20384,1.53723,1.53723,0,0,0-1.42688.91728l-1.5288-.91728a11.28942,11.28942,0,0,0-3.66912-1.325.47086.47086,0,0,0-.5096.30576,1.77242,1.77242,0,0,0,.40767,1.83457,8.97508,8.97508,0,0,0-1.73265-.20384,7.4067,7.4067,0,0,0-2.548.40767,1.007,1.007,0,0,0-.71345.71344,1.16855,1.16855,0,0,0,.10193,1.0192,4.66828,4.66828,0,0,0,2.64992,1.93647,1.60312,1.60312,0,0,0-.61153,1.93647,4.08178,4.08178,0,0,0,2.95568,1.223l2.24225-.20384a.77856.77856,0,0,1,.5096.20384,1.25809,1.25809,0,0,1-.10193,1.0192,1.43891,1.43891,0,0,0,.10193.91727.63021.63021,0,0,0,.71345.20384h.40767a4.17932,4.17932,0,0,0,3.15953,1.42687,3.66437,3.66437,0,0,0,1.12112-.20383l1.32492-.40768ZM156.0301,293.01014h0c0-.20385-.40768-.20385-.40768-.20385-.91727-.20385-1.73265-.30575-2.548-.40767h0c-.81535-.10193-1.73266-.30575-2.548-.40768v-.20385h.20385a1.245,1.245,0,0,0,.91727-.40767,5.84326,5.84326,0,0,1,.40768-1.42688l.5096-3.15952h0a2.53278,2.53278,0,0,1,.10192-.81535h0c0-.30575.10193-.5096.10193-.81535a1.0704,1.0704,0,0,0-.91728-.5096l.20386-.20385a1.29258,1.29258,0,0,1,.61152.10193h0c.20386,0,.40768.10192.61153.10192a5.96426,5.96426,0,0,0,1.325.20386h.30574l-.20385.40767h-.30575a1.44863,1.44863,0,0,0-.61152.20385c-.10193.20385-.10193.5096-.20385.81535a2.39844,2.39844,0,0,1-.20386.81535l-.5096,3.36334c-.20385,1.42688,0,1.73265,1.0192,1.93648.20386,0,.5096.10192.71346.10192a1.47786,1.47786,0,0,0,1.63072-1.5288h.40767Zm3.0576,0h-.20386v-.20385h.10193a.37435.37435,0,0,0,.30575-.10193.52953.52953,0,0,0,.20385-.40767,3.36724,3.36724,0,0,0,0-1.42687l-.20385-3.36335a2.82137,2.82137,0,0,0-.10193-.91727h0a4.41331,4.41331,0,0,0-.10192-.5096.52012.52012,0,0,0-.5096-.40768h-.40771v-.4077h1.42687a1.2926,1.2926,0,0,0,.61153-.10193,2.53287,2.53287,0,0,1,.81535-.10192v.40767h-.20385a.76948.76948,0,0,0-.71346.40767v1.63073l.30575,3.15952a4.48809,4.48809,0,0,0,.20385,1.63073.858.858,0,0,0,.71346.40767h.20385v.20385h-1.42688c-.20379,0-.61146.10193-1.01913.10193Zm-70.9363-.20385h0v-.20385a4.13091,4.13091,0,0,0,.91727-.5096,1.73455,1.73455,0,0,0-.10192-.71346h0c0-.20385-.10193-.5096-.10193-.81534l-.61152-3.15953h0a2.53246,2.53246,0,0,0-.10193-.81534h0c0-.20386-.10193-.5096-.10193-.71346a1.40664,1.40664,0,0,0-.40767-.30574h-.10193a.61276.61276,0,0,0-.40767.10192v-.40767h.10193a4.33449,4.33449,0,0,0,1.12112-.20385h.20385a3.62081,3.62081,0,0,0,1.0192-.20386,1.29275,1.29275,0,0,1,.61153-.10192,1.96666,1.96666,0,0,1,1.0192.30574,2.00142,2.00142,0,0,1,.91727,1.325,1.61465,1.61465,0,0,1-1.0192,1.93647h.40768a3.621,3.621,0,0,1,1.0192.20386,1.89425,1.89425,0,0,1,.91727,1.5288,1.86689,1.86689,0,0,1-.61153,1.73265,2.14418,2.14418,0,0,1-1.5288.5096H91.107a3.01506,3.01506,0,0,0-1.0192.20385,2.82143,2.82143,0,0,0-.91727.10193,4.48472,4.48472,0,0,1-1.01917.20385Zm1.42687-3.97487h0l.20386,1.42687a3.77938,3.77938,0,0,0,.40767,1.42687,1.40661,1.40661,0,0,0,.40767.30575h.10193a.61269.61269,0,0,0,.40767-.10193.92694.92694,0,0,0,.81535-.40767,1.73444,1.73444,0,0,0,.20385-1.42687,1.62437,1.62437,0,0,0-.91727-1.22305,1.2926,1.2926,0,0,0-.61153-.10193,1.73434,1.73434,0,0,0-.71345.10193Zm.30578-3.46528H89.5783a.77842.77842,0,0,0-.50959.20386v.30574l.40767,2.44608h0l.30575-.20386h.10192a.76944.76944,0,0,0,.71345-.40767,1.33947,1.33947,0,0,0,.30575-1.22305c-.10192-.71342-.5096-1.1211-1.0192-1.1211Zm4.17873,6.52288h0v-.30575h.10192a.52424.52424,0,0,0,.61153-.5096,1.73434,1.73434,0,0,0-.10193-.71345h0c0-.20386-.10192-.40768-.10192-.61153l-.40768-3.26145h0a3.77938,3.77938,0,0,0-.40767-1.42687.92519.92519,0,0,0-.71345-.30575h-.20386v-.20385a5.11519,5.11519,0,0,1,1.22306-.20386h.10192a.76372.76372,0,0,0,.5096-.10192.91876.91876,0,0,1,.5096-.10193,1.7345,1.7345,0,0,1,.71345-.10192,1.91983,1.91983,0,0,1,.81535.20385A1.62441,1.62441,0,0,1,97.63,285.468a1.865,1.865,0,0,1-1.22306,1.93647h.30575a2.05481,2.05481,0,0,1,1.12113.30575,2.818,2.818,0,0,1,1.12112,1.325,2.57183,2.57183,0,0,1-.61152,1.73265,2.24724,2.24724,0,0,1-1.5288.61152h-.20386a2.97555,2.97555,0,0,1-.91727.20386h-.20385a4.00131,4.00131,0,0,0-1.42684.30578Zm2.34414-4.17873a1.73434,1.73434,0,0,0-.71345.10193h-.30575l.20386,1.5288h0c.10192.20385.10192.40767.20385.61152a1.44853,1.44853,0,0,0,.20385.61153.858.858,0,0,0,.71345.40767h.20386a1.81283,1.81283,0,0,0,.81534-.71345,1.1897,1.1897,0,0,0,0-1.0192,2.14121,2.14121,0,0,0-.71345-1.42687,1.10352,1.10352,0,0,1-.61156-.10193Zm-.91727-3.36335h0a1.4485,1.4485,0,0,1-.61153.20386v.5096l.40768,2.24225h.20385a3.62077,3.62077,0,0,0,.91727-.40768,1.76875,1.76875,0,0,0,.30575-1.42687.927.927,0,0,0-.40767-.81535,1.15712,1.15712,0,0,0-.81535-.30581Zm68.796,7.44015h0l-.20385-.20385a1.16976,1.16976,0,0,0,.40767-1.22306,6.31939,6.31939,0,0,0-.40767-2.34414l-.91727-4.79022h.40767l4.5864,4.0768c.30574.30574.71345.61152,1.0192.91727.10192,0,.30574.10193.40767.10193a.61269.61269,0,0,0,.40767-.10193l.20386.20385a557062.16533,557062.16533,0,0,1-2.44611,1.42691l-.20385-.40768h0a.52945.52945,0,0,0,.40767-.20385.76367.76367,0,0,0,.10193-.5096,2.38144,2.38144,0,0,0-.71345-.71345l-.91728-.71345-2.14032,1.0192.20385.40767h0a8.7512,8.7512,0,0,0,.30575,1.73265.5295.5295,0,0,0,.40767.20385.77845.77845,0,0,0,.5096-.20385l.20385.20385c-.10192.10193-.30574.20386-.40767.30575s-.30575.20385-.40767.30575a2.21957,2.21957,0,0,0-.81532.5096Zm-.40767-6.93055.5096,3.0576,1.73265-.91727Zm-14.065,6.93055h0a.76369.76369,0,0,1-.5096-.10193,2.53278,2.53278,0,0,0-.81534-.10192,4.33417,4.33417,0,0,0-1.12113-.20386h-.30575l.20386-.40767h.40767c.20385,0,.30575-.10193.30575-.20385v-1.0192l-.20385-1.22305-2.44608-.40768-.20385.40768h0a6.01069,6.01069,0,0,1-.40767.81534h0a2.43674,2.43674,0,0,1-.30575.71346,1.007,1.007,0,0,0,.71345.71345v.20385a.76369.76369,0,0,1-.5096-.10193,4.41421,4.41421,0,0,1-.5096-.10192.76369.76369,0,0,1-.5096-.10193.76373.76373,0,0,0-.5096-.10192l.20385-.20386a1.01249,1.01249,0,0,0,1.0192-.71345,20.3664,20.3664,0,0,0,1.0192-2.14032l2.14033-4.28065.30575.20385,1.0192,6.01327c.10192.20385.10192.5096.20385.71345a1.88943,1.88943,0,0,0,.20385.71345.76645.76645,0,0,0,.71345.5096l-.102.40774Zm-2.85374-6.72672h0l-1.42687,2.85374,1.93647.30575-.5096-3.15949Zm-66.65566,6.21712h0l-.40768-.20385,1.223-6.52287a1.38739,1.38739,0,0,0-.30576-1.73266l.20383-.20385a2.229,2.229,0,0,1,.5096.30575l.61153.30575a5.26963,5.26963,0,0,0,1.325.61152l-.20386.20386a.77258.77258,0,0,0-.40767-.20386h0a.52946.52946,0,0,0-.40767.20386c-.10193.20385-.30575,1.12112-.5096,1.83454h0a5.16967,5.16967,0,0,0-.20386.91728l-.5096,3.05759,2.24226-1.93647a17.44331,17.44331,0,0,0,1.83454-2.0384.76367.76367,0,0,0,.10193-.5096c0-.20385-.20385-.30575-.30575-.40767v-.30575a2.13193,2.13193,0,0,0,.61153.40767h0c.10192.10193.20385.10193.30575.20386a4.13054,4.13054,0,0,1,.91727.5096v.20385a.61271.61271,0,0,0-.40767-.10193c-.40768,0-.81535.40768-1.22306.81535l-.40767.40767-4.58638,4.17876Zm19.3648-.61153h0v-.20385c.10193,0,.20386-.10193.30575-.10193.20385-.10192.40768-.20385.40768-.40767a3.86022,3.86022,0,0,0,0-1.5288l-.61153-3.15952c0-.30575-.10193-.5096-.10193-.81535h0c0-.20385-.10192-.5096-.10192-.71345a1.40685,1.40685,0,0,0-.40768-.30575h-.10192a.77034.77034,0,0,0-.40768.10193l-.20385-.30575h.20385a5.11617,5.11617,0,0,0,1.22306-.20385h.20385a5.11561,5.11561,0,0,0,1.22305-.20386l.20385.30575H101.401a.76947.76947,0,0,0-.71346.40768,1.73434,1.73434,0,0,0,.10193.71345h0c0,.30574.10193.5096.10193.81534l.40767,3.26146c.20385,1.22305.5096,1.52879,1.22305,1.52879h.61153a6.23472,6.23472,0,0,0,1.22305-.50959,1.76882,1.76882,0,0,0,.30575-1.42688l.30574-.20385.20386,2.0384h-.5096c-.81535.10192-1.73265.30575-2.548.40767-.81541.20389-1.73268.40774-2.44611.50963Zm42.39868-.20382h0a2.65416,2.65416,0,0,1-1.5288-.40767h-.30575a5.96483,5.96483,0,0,1-1.32494-.20385v-.20386h0c1.0192,0,1.22305-.20385,1.42687-1.0192l.71345-5.50367V283.022c0-.10193-.5096-.20386-.71345-.20386s-.40767-.10192-.71345-.10192c-.61153,0-.81535.30575-.91727,1.325l-.40768-.20386.40768-1.83454,6.01327,1.0192-.40768,1.83454-.20385-.20385a1.40223,1.40223,0,0,0-.10193-1.12113,1.25446,1.25446,0,0,0-1.01919-.5096h-.71343c-.20385,0-.30574,0-.30574.20386l-.91728,5.50367a.99063.99063,0,0,0,.10193.91727.9078.9078,0,0,0,.81535.5096l.10189.30584Zm-5.6056-.81538h0c-.20385-.10192-.5096-.10192-.71345-.20385a2.59259,2.59259,0,0,1-.71345-.20385h-.20385a3.66412,3.66412,0,0,1-1.12113-.20385v-.20386h.20385a.76946.76946,0,0,0,.71346-.40767,3.31745,3.31745,0,0,0,.40767-1.42687l.5096-3.36335a3.36724,3.36724,0,0,0,0-1.42687.52952.52952,0,0,0-.20385-.40768c-.10193-.10192-.20386-.10192-.40768-.10192h-.10192v-.40768a5.84173,5.84173,0,0,0,1.42687.40768,2.24407,2.24407,0,0,1,.81535.10192,2.24386,2.24386,0,0,0,.81535.10193l-.20386.20385h-.10192a.68245.68245,0,0,0-.71346.40768c-.10192.20385-.10192.5096-.20385.71345h0a1.88943,1.88943,0,0,1-.20385.71345l-.40767,3.36335a6.88146,6.88146,0,0,0-.20386,1.42687c0,.5096.40768.5096.71346.5096l-.10181.40767Zm-30.576-.10189h-.20386V289.341a.91873.91873,0,0,0,.5096-.10193.59891.59891,0,0,0,.20386-.5096,3.36756,3.36756,0,0,0,0-1.42687l-.61153-3.26145h0a1.73439,1.73439,0,0,0-.10193-.71346c0-.20385-.10192-.40767-.10192-.61152a1.15726,1.15726,0,0,0-.81535-.30575h-.10192l-.20386-.20385a5.96442,5.96442,0,0,1,1.325-.20385h.10193a2.24381,2.24381,0,0,0,.81534-.10193h0c.20386,0,.40768-.10193.61153-.10193v.20386a1.82812,1.82812,0,0,0-.71345.5096,6.88144,6.88144,0,0,0,.20385,1.42687l.40767,3.26145a2.54772,2.54772,0,0,0,.40768,1.42687.92519.92519,0,0,0,.71345.30575h.20385v.40767h-1.42687a5.11176,5.11176,0,0,1-1.223.20392Zm5.70752-.81538a3.843,3.843,0,0,1-2.14032-.71345,3.3622,3.3622,0,0,1-1.22306-2.44607,3.71458,3.71458,0,0,1,.40768-2.75186,3.62676,3.62676,0,0,1,2.24225-1.63072,1.73434,1.73434,0,0,1,.71345-.10193,2.34,2.34,0,0,1,1.42687.40768v-.5096h.10193l.40767,2.24225h-.20385a2.275,2.275,0,0,0-2.14032-1.83455h-.10193a1.38226,1.38226,0,0,0-1.12113.61153,5.48748,5.48748,0,0,0-.5096,3.36334c.30575,1.42688.91728,3.26145,2.548,3.26145h.30575a2.54006,2.54006,0,0,0,1.5288-2.85374l.20385-.20385.40768,2.548-.40768-.5096a2.92006,2.92006,0,0,1-1.93647,1.12113Zm-36.38542-.5096h0a5.778,5.778,0,0,0-1.325-.81535l-.61153-.30574a2.22823,2.22823,0,0,1-.5096-.30575v-.40768a.35579.35579,0,0,1,.20384.10193c.10192.10193.30576.10193.40767.20385a.2192.2192,0,0,0,.20384-.20385,4.20394,4.20394,0,0,0,1.0192-1.325l1.63072-2.75185a5.77792,5.77792,0,0,1,.81537-1.32494c.10192-.5096-.20384-.71346-.61153-.81535l.20384-.20385a2.13183,2.13183,0,0,0,.61152.40767,2.13289,2.13289,0,0,1,.61153.40767l.61152.30575a2.22743,2.22743,0,0,1,.5096.30575,1.923,1.923,0,0,1,1.12113,1.22305A1.59652,1.59652,0,0,1,79.794,284.347a2.10732,2.10732,0,0,1-1.42688,1.0192h-.30576a2.43528,2.43528,0,0,1-1.42687-.5096,2.22931,2.22931,0,0,1-.5096-.30575L75.3095,285.672h0a4.31639,4.31639,0,0,0-.61153,1.42688c-.10193.30574.10193.5096.40767.71345.10193,0,.10193.10193.20384.20385l-.10191.20376Zm3.15952-6.6248c-.10192,0-.20383.10193-.40767.40768l-1.325,2.24225h0c.10192.10192.20383.30575.40767.30575a.97026.97026,0,0,0,.71344.20385.61269.61269,0,0,0,.40767-.10193,1.106,1.106,0,0,0,.81536-.81535,1.53268,1.53268,0,0,0,.40768-1.12112,1.47324,1.47324,0,0,0-.71344-1.0192c-.20384-.10193-.30575-.20385-.30575-.10193Zm36.58928,6.319h-.10193v-.20385a1.08332,1.08332,0,0,0,.81535-.91727,4.57016,4.57016,0,0,0,.10193-1.12113h0c0-.40767.10192-.71345.10192-1.12112l.71345-4.68833h.30575l2.75185,5.29985a2.1326,2.1326,0,0,0,.40768.61153h0c.10192.20385.30574.40767.40767.61152a1.4485,1.4485,0,0,0,.61153.20386h.20385v.30574h.10189a3.6638,3.6638,0,0,0-1.12112.20386,2.24407,2.24407,0,0,0-.81535.10192h0a4.41383,4.41383,0,0,0-.5096.10193v-.20385c.10193,0,.10193-.10193.20385-.10193a.45113.45113,0,0,0,.30575-.61153.37433.37433,0,0,0-.10193-.30574c0-.10193-.10192-.20386-.10192-.30575l-.71345-1.22305-2.24226.40767v.40767h0a4.97255,4.97255,0,0,0-.10192,1.73266.37334.37334,0,0,0,.40767.40767h.5096v.40767h-2.14026Zm2.0384-6.52287h0l-.40768,2.95567,1.93648-.20385-1.5288-2.75182Zm54.01757,6.319h0l-.20385-.20385a.87927.87927,0,0,0,.40768-1.0192,2.78275,2.78275,0,0,0-.91728-1.22305l-2.44607-3.5672a.76369.76369,0,0,0-.5096-.10193.92537.92537,0,0,0-.71345.30575l-.20385-.40767a1.17972,1.17972,0,0,0,.71345-.5096,1.03179,1.03179,0,0,0,.71345-.40768l6.93054,2.34415-1.93647-2.64993a1.82811,1.82811,0,0,1-.5096-.71345h0a3.09693,3.09693,0,0,0-.5096-.71345,1.01918,1.01918,0,0,0-1.22305,0l-.20385-.20385.40767-.20385h.10193l.61152-.30575a1.23122,1.23122,0,0,1,.71346-.71345l.20385.20385c0,.10192-.10193.20385-.20385.30575a.38409.38409,0,0,0-.10193.61152,4.52639,4.52639,0,0,0,.81535,1.12113,1.49791,1.49791,0,0,0,.5096.61152l2.85374,3.97488-.20385.20385a1.81091,1.81091,0,0,1-1.0192-.40768l-6.42094-2.14032,2.34414,3.15952a4.07858,4.07858,0,0,0,1.0192,1.22306c.10193,0,.20385.10192.40768.10192a1.88943,1.88943,0,0,0,.71345-.20385v.20385a1.62657,1.62657,0,0,1-.91728.71345,1.99509,1.99509,0,0,0-1.223.61156ZM72.2519,286.28342h0l-4.48448-2.95567.20384-.20386a.7785.7785,0,0,0,.5096.20386.77036.77036,0,0,0,.40768-.10193c.10192-.10193.10192-.20385.20383-.30575l.10193-.10192a5.60051,5.60051,0,0,1,.71343-.91728l1.63073-2.548h0a5.77824,5.77824,0,0,1,.81536-1.32494c.10193-.5096-.20383-.71346-.61152-.81535l.30576-.20385,3.873,2.44607-1.0192,1.5288-.20384-.20385c.61153-1.12113.30577-1.42688-.61152-2.14033l-.61153-.30575c-.10192-.10192-.10192-.10192-.20383-.10192s-.10193.10192-.40768.30574l-1.5288,2.44608a1.10668,1.10668,0,0,0,.91728.40767h.20383a1.47313,1.47313,0,0,0,1.0192-.71345h.20384c-.10193.20385-.30576.5096-.40767.71345a2.13252,2.13252,0,0,1-.40768.61153,5.77789,5.77789,0,0,1-.81536,1.32494l-.20384-.20385a1.459,1.459,0,0,0,.30577-1.12112c-.10193-.30575-.40768-.5096-.91728-.81535l-1.0192,1.63072a3.76818,3.76818,0,0,0-.5096,1.12113.99252.99252,0,0,0,.81537,1.0192,1.81076,1.81076,0,0,0,1.0192.40767h.20383a1.77128,1.77128,0,0,0,1.12113-.61152h.20384l-.81538,1.52883Zm104.46794-2.64993h0l-.20386-.40767a1.03409,1.03409,0,0,0,.30575-1.0192,15.75656,15.75656,0,0,1-.71345-2.34415l-1.42687-4.5864.20385-.20385,5.096,3.5672a6.18789,6.18789,0,0,0,1.0192.71345c.10192,0,.20385.10193.40767,0a1.88943,1.88943,0,0,0,.71345-.20385v.40767a3.66056,3.66056,0,0,0-1.0192.71346,1.78914,1.78914,0,0,1-.5096.40767h0a2.22348,2.22348,0,0,0-.5096.40767l-.20385-.20385a.7739.7739,0,0,0,.30575-.91727,1.40671,1.40671,0,0,0-.40768-.30575h0l-.30574-.30575-1.0192-.71345-1.93648,1.42687.20386.20386h0a6.18677,6.18677,0,0,0,.5096,1.83454c.10192.10193.20385.10193.40767.10193h.10193c.20385,0,.30574-.10193.40767-.30575l.20385.40768a2.67208,2.67208,0,0,1-.91727.5096,5.10556,5.10556,0,0,0-.71345.81534Zm-1.223-7.03247,1.0192,3.0576,1.5288-1.22305ZM67.46166,283.12389h0c-.20383-.20385-.40767-.30574-.61152-.5096-.10193-.10192-.20384-.10192-.40768-.20385-.10192,0-.20383-.10193-.40767-.10193l.10192-.91727v-2.85375a.887.887,0,0,0-.40767-.91727l-.81536,1.12113a2.55491,2.55491,0,0,1-.40768.71345c-.10192.20385-.30576.5096-.40767.71345a.74449.74449,0,0,0,.61153.71345l-.20384.20386-.61153-.30575h0c-.20383-.10193-.30576-.20385-.5096-.30575a3.59581,3.59581,0,0,0-1.325-.81535l.10193-.20385a1.09263,1.09263,0,0,0,.61152.20385.37444.37444,0,0,0,.30577-.10192,3.31114,3.31114,0,0,0,1.0192-1.325L65.93291,275.48a5.778,5.778,0,0,0,.81536-1.325.49491.49491,0,0,0-.30576-.61152l-.10193-.10193v-.40767a4.31373,4.31373,0,0,1,.71344.5096h0a3.09659,3.09659,0,0,1,.71344.5096l.91727.61152a1.923,1.923,0,0,1,1.12113,1.22305,1.8739,1.8739,0,0,1-.20384,1.63073,1.65268,1.65268,0,0,1-1.12113.91727c-.10192,0-.30576.10193-.40767,0A1.722,1.722,0,0,1,67.054,278.13v3.56719h0a.969.969,0,0,0,.40767,1.0192l0,.40755Zm-1.22305-5.91134h0l.10193.10192a2.325,2.325,0,0,0,1.223.61153c.40768,0,.71344-.20385,1.12113-.81535a1.81077,1.81077,0,0,0,.40767-1.0192,1.29183,1.29183,0,0,0-.40767-.91727c-.20384-.10193-.30576-.20385-.5096-.30575-.10193,0-.10193,0-.20384.10193s-.10192.10192-.20384.10192l-1.52881,2.14027Zm118.83868-43.72366a1.53282,1.53282,0,0,1-1.12113-.40767,5.19125,5.19125,0,0,0-.71345-1.73265,1.84051,1.84051,0,0,1,1.0192-1.42688h0l.20385-.10192.10193-.10193a1.10817,1.10817,0,0,1,.5096-.10192,1.77684,1.77684,0,0,1,1.73265,1.22305h0a6.20362,6.20362,0,0,1-1.63073,1.63072h.10193a1.722,1.722,0,0,1,1.0192.30575c-.20385.10193-.40768.30575-.61153.40767-.10192.30578-.30578.30578-.61152.30578Z"/>
  </g>
  <g id="MUR">
    <g>
      <path class="cls-4" d="M219.73007,272.72808V194.86123h15.69567l22.01472,46.67933,22.01471-46.67934h15.69567v77.86686h-8.6632V204.034h-1.5288L262.3326,250.71336h-9.68239L230.024,204.034h-1.63069v68.69406Z"/>
      <path class="cls-4" d="M296.561,274.13867h-11.4834V207.02148l-21.86182,45.10157H251.76709l-21.96387-45.31153v67.32715h-11.4834v-80.6875h18l21.12061,44.78418L278.561,193.45117h18Zm-8.66309-2.82031h5.84277V196.27148h-13.3916l-22.90869,48.5752-22.90869-48.5752h-13.3916v75.04688h5.84277V202.624h3.92432l22.62646,46.67871h7.91553L284.07568,202.624H287.898Z"/>
    </g>
    <g>
      <path class="cls-4" d="M323.5865,249.38838c0,11.2112,6.1152,16.91872,18.24367,16.91872,6.31905,0,11.00734-1.325,14.26879-3.97487s4.79025-6.93055,4.79025-12.84192V194.96313h8.5613v54.22143c0,8.6632-2.34414,14.98225-6.93054,18.85519s-11.41505,5.80945-20.384,5.80945-15.7976-1.93647-20.28207-5.80945c-4.5864-3.87294-6.82865-10.192-6.82865-18.85519V194.96315h8.6632l-.102,54.42523Z"/>
      <path class="cls-4" d="M342.13574,275.25977c-9.34277,0-16.47656-2.07032-21.20312-6.15235-4.85157-4.09668-7.31739-10.80273-7.31739-19.92285V193.55273h11.48584l-.10449,55.8379c.00049,10.43457,5.50684,15.50585,16.8335,15.50585,5.97314,0,10.3501-1.19628,13.37988-3.65918,2.87256-2.333,4.269-6.17578,4.269-11.74707v-55.9375h11.38184v55.63184c0,9.0625-2.50049,15.76856-7.43115,19.93262C358.60352,273.19336,351.439,275.25977,342.13574,275.25977Zm-25.70019-78.88672v52.81152c0,8.251,2.1289,14.23242,6.32812,17.77832,4.21192,3.6377,10.72559,5.47656,19.37207,5.47656,8.61865,0,15.1709-1.84277,19.47461-5.47656,4.2666-3.60351,6.43018-9.585,6.43018-17.77832V196.37305h-5.74121v53.11718c0,6.47461-1.73731,11.03321-5.311,13.93653-3.55273,2.88672-8.51123,4.29-15.1582,4.29-12.85742,0-19.65381-6.33789-19.65381-18.32813v-.00293l.09961-53.01269Z"/>
    </g>
    <g>
      <path class="cls-4" d="M397.78425,242.96744V272.83h-8.6632V194.96313h28.84334c8.25549,0,14.47264,1.93647,18.65134,5.70752s6.21709,9.78433,6.21709,17.93792c0,12.02654-4.79025,19.56865-14.26879,22.62625L443.54627,272.83h-9.5805l-14.06494-29.86253-22.11658,0Zm20.18014-7.644c10.5997,0,15.89949-5.50367,15.89949-16.40912S428.564,202.5052,417.86243,202.5052H397.68229v32.81824Z"/>
      <path class="cls-4" d="M445.77539,274.24023h-12.7041l-14.06494-29.8623h-19.812v29.8623h-11.4834v-80.6875h30.25342c8.53955,0,15.1333,2.043,19.59619,6.07129,4.43457,4.002,6.68261,10.38868,6.68261,18.98438,0,11.99512-4.62011,19.87012-13.73632,23.43066Zm-10.915-2.82031h6.45606l-14.71485-31.03418,1.53028-.49316c8.94336-2.88477,13.291-9.84766,13.291-21.28418,0-7.76367-1.93457-13.44629-5.751-16.89063-3.92969-3.54687-9.8877-5.34472-17.70752-5.34472H390.53125v75.04687H396.374v-29.8623h24.42139Zm-16.896-34.68652H396.272V201.09473H417.8623c11.39063,0,17.41211,6.16211,17.41211,17.81933S429.28906,236.7334,417.96436,236.7334Zm-18.87207-2.82031h18.87207c9.75048,0,14.48974-4.90625,14.48974-14.999,0-10.2334-4.63672-14.999-14.5918-14.999h-18.77Z"/>
    </g>
  </g>
  <g id="ministero_dell_Universit_e_della_Ricerca" data-name="ministero dell&apos;Universit e della Ricerca">
    <path class="cls-4" d="M60.22534,335.7146V318.28628h3.46527l4.89216,14.67647,4.89216-14.67647h3.46528V335.7146H75.00373V320.32468h-.40767l-5.096,14.67646H67.35974l-5.096-14.67646h-.40768v15.288l-1.63072.10193Z"/>
    <path class="cls-4" d="M80.40549,320.22275v-2.14032h1.83457v2.14032Zm0,15.49185V323.17845h1.83457V335.7146Z"/>
    <path class="cls-4" d="M87.23413,335.7146H85.29765V323.17845H87.1322v.91728a8.34716,8.34716,0,0,1,3.873-1.12113c1.63072,0,2.85374.40768,3.36334,1.325a9.19028,9.19028,0,0,1,.91728,4.79025v6.6248H93.45122v-6.6248a9.017,9.017,0,0,0-.5096-3.5672,2.38615,2.38615,0,0,0-2.24225-1.0192,11.34939,11.34939,0,0,0-1.73265.20385,6.00236,6.00236,0,0,0-1.325.5096l-.5096.20386.102,10.29389Z"/>
    <path class="cls-4" d="M98.3434,320.22275v-2.14032h1.93647v2.14032Zm0,15.49185V323.17845h1.93647V335.7146Z"/>
    <path class="cls-4" d="M107.21045,324.5034c-1.83455,0-2.75186.61153-2.75186,1.93647a1.23262,1.23262,0,0,0,.61153,1.22306,10.979,10.979,0,0,0,2.85375.71345,6.642,6.642,0,0,1,3.15952,1.12112,3.19671,3.19671,0,0,1,.91727,2.64993,3.29336,3.29336,0,0,1-1.22305,2.85375,6.08307,6.08307,0,0,1-3.66912.91727,17.46,17.46,0,0,1-3.66913-.40767l-.71345-.10193.10193-1.63073a28.72646,28.72646,0,0,0,4.28065.40768,3.66945,3.66945,0,0,0,2.24225-.5096,1.67657,1.67657,0,0,0,.81535-1.5288,1.78852,1.78852,0,0,0-.61153-1.5288,10.979,10.979,0,0,0-2.85375-.71345,8.142,8.142,0,0,1-3.15952-1.0192,2.96873,2.96873,0,0,1-.91727-2.548,3.04929,3.04929,0,0,1,1.32494-2.75185,5.59112,5.59112,0,0,1,3.26145-.91728,19.99391,19.99391,0,0,1,3.873.40768l.71345.10192v1.63073C109.75844,324.70725,108.33157,324.5034,107.21045,324.5034Z"/>
    <path class="cls-4" d="M120.96964,324.70725h-3.97487v6.01328a8.70906,8.70906,0,0,0,.30574,2.85374,1.5914,1.5914,0,0,0,1.5288.71345l2.24226-.10192.10192,1.5288a15.14955,15.14955,0,0,1-2.548.30574,3.43568,3.43568,0,0,1-2.75185-.91727c-.5096-.61153-.71345-1.83455-.71345-3.66912v-6.6248h-1.83455v-1.63073h1.83455v-3.87294h1.83455v3.87294h3.97487v1.52883Z"/>
    <path class="cls-4" d="M131.26356,334.08387l.71345-.10192v1.52879a31.38858,31.38858,0,0,1-4.89214.40768,4.57693,4.57693,0,0,1-3.87295-1.5288c-.81535-1.0192-1.12112-2.64993-1.12112-4.89215,0-4.38254,1.73265-6.62479,5.29985-6.62479a4.76334,4.76334,0,0,1,3.77105,1.42687,6.73906,6.73906,0,0,1,1.22305,4.48447l-.10193,1.42687H124.0273a4.8293,4.8293,0,0,0,.71345,3.0576,3.36354,3.36354,0,0,0,2.64993,1.0192C128.71556,334.28772,129.93858,334.1858,131.26356,334.08387Zm-.71345-5.40174a5.32558,5.32558,0,0,0-.71345-3.26146,3.00958,3.00958,0,0,0-2.44608-.91727,3.09864,3.09864,0,0,0-2.548,1.0192,5.40746,5.40746,0,0,0-.91728,3.26145h6.6248Z"/>
    <path class="cls-4" d="M134.83076,335.7146V323.17845h1.83455v1.73266a13.206,13.206,0,0,1,4.58639-2.0384v1.93647a10.60752,10.60752,0,0,0-2.24225.61153,18.67365,18.67365,0,0,0-1.73265.71345l-.61152.30575v9.27472l-1.83452,0Z"/>
    <path class="cls-4" d="M142.169,329.39555c0-2.24225.40767-3.97488,1.22305-4.99407s2.24225-1.5288,4.17872-1.5288,3.36335.5096,4.17873,1.5288,1.22305,2.64992,1.22305,4.99407a8.80314,8.80314,0,0,1-1.12113,4.99407c-.71345,1.0192-2.14032,1.5288-4.17872,1.5288s-3.46527-.5096-4.17872-1.5288C142.57665,333.26852,142.169,331.6378,142.169,329.39555Zm1.93647-.1019a8.63641,8.63641,0,0,0,.61153,3.873,3.05708,3.05708,0,0,0,2.75185,1.12112c1.42687,0,2.34414-.40767,2.75185-1.12112a8.63664,8.63664,0,0,0,.61153-3.873c0-1.83454-.20386-3.15952-.71346-3.77105a3.36355,3.36355,0,0,0-2.64992-1.0192,3.27032,3.27032,0,0,0-2.75185,1.0192A9.77093,9.77093,0,0,0,144.10545,329.29365Z"/>
    <path class="cls-4" d="M170.095,317.57286V335.6127h-1.83455v-.81535a7.31233,7.31233,0,0,1-5.60559.91728,4.27523,4.27523,0,0,1-1.42688-.91728c-.91727-.91727-1.32494-2.548-1.32494-4.99407s.40767-4.17872,1.22305-5.29985,2.14032-1.63072,4.0768-1.63072a15.55693,15.55693,0,0,1,3.05759.30574v-5.60559Zm-6.52287,16.511a3.66363,3.66363,0,0,0,1.12112.20385,11.76839,11.76839,0,0,0,1.63073-.20385,11.0726,11.0726,0,0,0,1.42687-.5096l.5096-.20385v-8.56127a15.32815,15.32815,0,0,0-2.95567-.30575,2.91217,2.91217,0,0,0-2.64992,1.22305,7.26517,7.26517,0,0,0-.71346,3.77105q0,2.90472.91728,3.97488A1.43415,1.43415,0,0,0,163.57217,334.08387Z"/>
    <path class="cls-4" d="M181.81583,334.08387l.71346-.10192v1.52879a31.38869,31.38869,0,0,1-4.89215.40768,4.57689,4.57689,0,0,1-3.87294-1.5288c-.81535-1.0192-1.12113-2.64993-1.12113-4.89215,0-4.38254,1.73265-6.62479,5.29985-6.62479a4.76334,4.76334,0,0,1,3.77105,1.42687A6.739,6.739,0,0,1,182.937,328.784l-.10192,1.42687h-8.25553a4.82929,4.82929,0,0,0,.71346,3.0576,3.36352,3.36352,0,0,0,2.64992,1.0192C179.26784,334.28772,180.49089,334.1858,181.81583,334.08387Zm-.71342-5.40174a5.32558,5.32558,0,0,0-.71345-3.26146,3.00958,3.00958,0,0,0-2.44607-.91727,3.09866,3.09866,0,0,0-2.548,1.0192,5.40739,5.40739,0,0,0-.91727,3.26145h6.62479Z"/>
    <path class="cls-4" d="M185.485,335.7146V317.67475h1.93647V335.7146Z"/>
    <path class="cls-4" d="M190.78481,335.7146V317.67475h1.93647V335.7146Z"/>
    <path class="cls-4" d="M202.91328,330.41475c0,2.548,1.325,3.771,4.0768,3.771a4.67744,4.67744,0,0,0,3.15952-.91728,3.49319,3.49319,0,0,0,1.0192-2.85374V318.28631h1.93647v12.12847c0,1.93647-.5096,3.36334-1.5288,4.17872a7.23077,7.23077,0,0,1-4.58639,1.325,6.66513,6.66513,0,0,1-4.5864-1.325,5.2454,5.2454,0,0,1-1.5288-4.17872V318.28631h1.93647l.10193,12.12844Z"/>
    <path class="cls-4" d="M218.3032,335.7146h-1.93647V323.17845h1.83454v.91728a8.34716,8.34716,0,0,1,3.873-1.12113c1.63072,0,2.85374.40768,3.36334,1.325a9.19028,9.19028,0,0,1,.91728,4.79025v6.6248h-1.83455v-6.6248a9.017,9.017,0,0,0-.5096-3.5672,2.38614,2.38614,0,0,0-2.24225-1.0192,11.34939,11.34939,0,0,0-1.73265.20385,6.00236,6.00236,0,0,0-1.325.5096l-.5096.20386.102,10.29389Z"/>
    <path class="cls-4" d="M229.41247,320.22275v-2.14032h1.93647v2.14032Zm0,15.49185V323.17845h1.93647V335.7146Z"/>
    <path class="cls-4" d="M233.08159,323.07653H235.12l2.95567,10.90545h.91728l3.0576-10.90545H243.987l-3.5672,12.53614h-3.77105Z"/>
    <path class="cls-4" d="M254.179,334.08387l.71346-.10192v1.52879a31.38869,31.38869,0,0,1-4.89215.40768,4.57689,4.57689,0,0,1-3.87294-1.5288c-.81535-1.0192-1.12113-2.64993-1.12113-4.89215,0-4.38254,1.73265-6.62479,5.29985-6.62479a4.76334,4.76334,0,0,1,3.77105,1.42687,6.739,6.739,0,0,1,1.223,4.48447l-.10192,1.42687h-8.25553a4.82929,4.82929,0,0,0,.71346,3.0576,3.36352,3.36352,0,0,0,2.64992,1.0192C251.631,334.28772,252.85406,334.1858,254.179,334.08387Zm-.71342-5.40174a5.32558,5.32558,0,0,0-.71345-3.26146,3.00958,3.00958,0,0,0-2.44607-.91727,3.09866,3.09866,0,0,0-2.548,1.0192,5.40739,5.40739,0,0,0-.91727,3.26145h6.62479Z"/>
    <path class="cls-4" d="M257.7462,335.7146V323.17845h1.83455v1.73266a13.206,13.206,0,0,1,4.5864-2.0384v1.93647a10.60736,10.60736,0,0,0-2.24225.61153,18.6741,18.6741,0,0,0-1.73266.71345l-.61152.30575v9.27472l-1.83452,0Z"/>
    <path class="cls-4" d="M269.8747,324.5034c-1.83454,0-2.75185.61153-2.75185,1.93647a1.2326,1.2326,0,0,0,.61153,1.22306,10.979,10.979,0,0,0,2.85374.71345,6.642,6.642,0,0,1,3.15953,1.12112,3.19674,3.19674,0,0,1,.91727,2.64993,3.29336,3.29336,0,0,1-1.22305,2.85375,6.08307,6.08307,0,0,1-3.66912.91727,17.46,17.46,0,0,1-3.66913-.40767l-.71345-.10193.10192-1.63073a28.72668,28.72668,0,0,0,4.28066.40768,3.491,3.491,0,0,0,2.24225-.5096,1.67656,1.67656,0,0,0,.81534-1.5288,1.78852,1.78852,0,0,0-.61152-1.5288,10.97922,10.97922,0,0,0-2.85375-.71345,7.56126,7.56126,0,0,1-3.15952-1.0192,2.96873,2.96873,0,0,1-.91728-2.548,3.04929,3.04929,0,0,1,1.325-2.75185,5.59108,5.59108,0,0,1,3.26145-.91728,19.99391,19.99391,0,0,1,3.873.40768l.71345.10192v1.63073C272.4227,324.70725,270.9958,324.5034,269.8747,324.5034Z"/>
    <path class="cls-4" d="M277.111,320.22275v-2.14032h1.93648v2.14032Zm0,15.49185V323.17845h1.93648V335.7146Z"/>
    <path class="cls-4" d="M288.526,324.70725h-3.97487v6.01328a8.709,8.709,0,0,0,.30575,2.85374,1.59138,1.59138,0,0,0,1.5288.71345l2.24225-.10192.10192,1.5288a15.14957,15.14957,0,0,1-2.548.30574,3.43569,3.43569,0,0,1-2.75186-.91727c-.5096-.61153-.71345-1.83455-.71345-3.66912v-6.6248h-1.83454v-1.63073h1.83454v-3.87294h1.83455v3.87294H288.526v1.52883Z"/>
    <path class="cls-4" d="M299.22764,326.84755v6.42094c0,.61153.5096,1.0192,1.42687,1.12113l-.10193,1.5288a3.72557,3.72557,0,0,1-2.95567-1.0192,10.58144,10.58144,0,0,1-4.48447,1.0192,3.315,3.315,0,0,1-2.64992-1.0192,4.00215,4.00215,0,0,1-.91728-2.85375,3.33589,3.33589,0,0,1,.91728-2.64992,4.63122,4.63122,0,0,1,2.95567-1.0192l3.97487-.40768v-1.12112a3.02633,3.02633,0,0,0-.5096-1.83455,2.00148,2.00148,0,0,0-1.5288-.5096c-1.325,0-2.75185.10193-4.17872.20385l-.81535.10193-.10193-1.42687a22.16575,22.16575,0,0,1,4.89215-.5096,3.8251,3.8251,0,0,1,3.0576,1.0192A4.12252,4.12252,0,0,1,299.22764,326.84755Zm-7.74593,5.19792c0,1.5288.61153,2.34415,1.93648,2.34415a9.78419,9.78419,0,0,0,3.36334-.61153l.61153-.20385v-4.17872l-3.66912.30574a3.03789,3.03789,0,0,0-1.63073.61153A2.155,2.155,0,0,0,291.48171,332.04547Zm.71346-14.98221,5.40174,2.44607-.5096,1.325-5.6056-2.14033Z"/>
    <path class="cls-4" d="M315.84058,334.08387l.71345-.10192v1.52879a31.38858,31.38858,0,0,1-4.89214.40768,4.57693,4.57693,0,0,1-3.873-1.5288c-.81535-1.0192-1.12113-2.64993-1.12113-4.89215,0-4.38254,1.73266-6.62479,5.29985-6.62479a4.76331,4.76331,0,0,1,3.77105,1.42687,6.739,6.739,0,0,1,1.22306,4.48447l-.10193,1.42687h-8.25552a4.8293,4.8293,0,0,0,.71345,3.0576,3.36352,3.36352,0,0,0,2.64992,1.0192C313.19075,334.28769,314.61756,334.1858,315.84058,334.08387Zm-.6115-5.40174a5.32558,5.32558,0,0,0-.71345-3.26146,3.00958,3.00958,0,0,0-2.44607-.91727,3.09866,3.09866,0,0,0-2.548,1.0192,5.40739,5.40739,0,0,0-.91727,3.26145h6.62479Z"/>
    <path class="cls-4" d="M334.08428,317.57286V335.6127h-1.83455v-.81535a7.31235,7.31235,0,0,1-5.6056.91728,4.27509,4.27509,0,0,1-1.42687-.91728c-.91728-.91727-1.325-2.548-1.325-4.99407s.40767-4.17872,1.22305-5.29985,2.14033-1.63072,4.0768-1.63072a15.557,15.557,0,0,1,3.0576.30574v-5.60559Zm-6.52291,16.511a3.6637,3.6637,0,0,0,1.12113.20385,11.76827,11.76827,0,0,0,1.63072-.20385,4.6532,4.6532,0,0,0,1.42688-.5096l.5096-.20385v-8.56127a15.32815,15.32815,0,0,0-2.95567-.30575,2.91218,2.91218,0,0,0-2.64993,1.22305,7.26519,7.26519,0,0,0-.71345,3.77105q0,2.90472.91727,3.97488A1.43436,1.43436,0,0,0,327.56137,334.08387Z"/>
    <path class="cls-4" d="M345.80507,334.08387l.71345-.10192v1.52879a31.38885,31.38885,0,0,1-4.89214.40768,4.57693,4.57693,0,0,1-3.873-1.5288c-.81535-1.0192-1.12112-2.64993-1.12112-4.89215,0-4.38254,1.73265-6.62479,5.29985-6.62479a4.76327,4.76327,0,0,1,3.771,1.42687,6.73906,6.73906,0,0,1,1.22305,4.48447l-.1019,1.42687h-8.25552a4.8293,4.8293,0,0,0,.71345,3.0576,3.36353,3.36353,0,0,0,2.64993,1.0192C343.25707,334.28772,344.48012,334.1858,345.80507,334.08387Zm-.71345-5.40174a5.32558,5.32558,0,0,0-.71345-3.26146,3.00958,3.00958,0,0,0-2.44608-.91727,3.09867,3.09867,0,0,0-2.548,1.0192,5.40753,5.40753,0,0,0-.91727,3.26145h6.6248Z"/>
    <path class="cls-4" d="M349.47416,335.7146V317.67475h1.83455V335.7146Z"/>
    <path class="cls-4" d="M354.774,335.7146V317.67475h1.83455V335.7146Z"/>
    <path class="cls-4" d="M368.73706,326.84755v6.42094c0,.61153.5096,1.0192,1.42691,1.12113l-.1019,1.5288a3.72565,3.72565,0,0,1-2.9557-1.0192,10.58148,10.58148,0,0,1-4.48451,1.0192,3.31494,3.31494,0,0,1-2.64989-1.0192,4.00229,4.00229,0,0,1-.9173-2.85375,3.33579,3.33579,0,0,1,.9173-2.64992,5.30323,5.30323,0,0,1,2.9557-1.0192l3.97491-.40768v-1.12112a3.0264,3.0264,0,0,0-.5096-1.83455,1.87216,1.87216,0,0,0-1.5288-.5096c-1.325,0-2.75185.10193-4.1787.20385l-.81534.10193-.1019-1.42687a22.16593,22.16593,0,0,1,4.89215-.5096,3.8251,3.8251,0,0,1,3.0576,1.0192A3.72584,3.72584,0,0,1,368.73706,326.84755Zm-7.74595,5.19792c0,1.5288.61149,2.34415,1.9365,2.34415a9.78437,9.78437,0,0,0,3.36335-.61153l.61149-.20385v-4.17872l-3.77105.30574a3.03764,3.03764,0,0,0-1.63069.61153A3.159,3.159,0,0,0,360.99111,332.04547Z"/>
    <path class="cls-4" d="M379.13291,328.98787v6.6248H377.1964V318.18435h6.421a5.72454,5.72454,0,0,1,4.17869,1.325,5.08948,5.08948,0,0,1,1.42691,3.97487c0,2.64993-1.0192,4.38255-3.1595,5.096l3.36335,7.03247h-2.14029l-3.1595-6.6248-4.9941,0Zm4.5864-1.73262c2.34414,0,3.5672-1.22305,3.5672-3.66912s-1.22306-3.66913-3.5672-3.66913H379.2348v7.33825Z"/>
    <path class="cls-4" d="M391.8729,320.22275v-2.14032h1.83455v2.14032Zm0,15.49185V323.17845h1.83455V335.7146Z"/>
    <path class="cls-4" d="M401.45334,322.87268a22.61264,22.61264,0,0,1,2.85375.30574l.61149.10193-.10189,1.5288c-1.325-.10193-2.34415-.20385-2.95571-.20385-1.4269,0-2.34414.30574-2.85374,1.0192a6.64975,6.64975,0,0,0-.81535,3.77105,7.21047,7.21047,0,0,0,.71345,3.87294,3.35244,3.35244,0,0,0,2.95571,1.12113l2.9557-.20385.1019,1.5288c-1.5288.20385-2.75186.40767-3.46531.40767-1.9365,0-3.26145-.5096-4.0768-1.5288-.71345-1.0192-1.12109-2.64993-1.12109-5.096,0-2.34414.4077-4.0768,1.22305-4.99407C398.29385,323.28035,399.6188,322.87268,401.45334,322.87268Z"/>
    <path class="cls-4" d="M415.62024,334.08387l.71345-.10192v1.52879a31.38885,31.38885,0,0,1-4.89214.40768,4.57693,4.57693,0,0,1-3.873-1.5288,8.65259,8.65259,0,0,1-1.12109-4.89215c0-4.38254,1.73265-6.62479,5.29985-6.62479a4.7633,4.7633,0,0,1,3.77105,1.42687,6.739,6.739,0,0,1,1.22305,4.48447l-.10189,1.42687h-8.2555a4.82929,4.82929,0,0,0,.71346,3.0576,3.21641,3.21641,0,0,0,2.64989,1.0192C413.07237,334.28769,414.29529,334.1858,415.62024,334.08387Zm-.71345-5.40174a5.32558,5.32558,0,0,0-.71345-3.26146,3.00961,3.00961,0,0,0-2.44611-.91727,3.09867,3.09867,0,0,0-2.548,1.0192,4.81922,4.81922,0,0,0-.81534,3.26145h6.5229Z"/>
    <path class="cls-4" d="M419.18744,335.7146V323.17845H421.022v1.73266a13.20649,13.20649,0,0,1,4.58639-2.0384v1.93647a10.607,10.607,0,0,0-2.24225.61153,18.6784,18.6784,0,0,0-1.73265.71345l-.61149.30575v9.27472l-1.83455,0Z"/>
    <path class="cls-4" d="M431.82548,322.87268a22.61235,22.61235,0,0,1,2.85374.30574l.6115.10193-.1019,1.5288c-1.32494-.10193-2.34414-.20385-2.9557-.20385-1.4269,0-2.34415.30574-2.85375,1.0192a6.64977,6.64977,0,0,0-.81534,3.77105,7.21047,7.21047,0,0,0,.71345,3.87294,3.35242,3.35242,0,0,0,2.9557,1.12113l2.95571-.20385.10189,1.5288c-1.5288.20385-2.75185.40767-3.4653.40767-1.93651,0-3.26145-.5096-4.0768-1.5288-.71345-1.0192-1.1211-2.64993-1.1211-5.096,0-2.34414.40771-4.0768,1.22306-4.99407C428.56409,323.28035,429.889,322.87268,431.82548,322.87268Z"/>
    <path class="cls-4" d="M446.40008,326.84755v6.42094c0,.61153.5096,1.0192,1.4269,1.12113l-.10189,1.5288a3.72565,3.72565,0,0,1-2.9557-1.0192,10.58148,10.58148,0,0,1-4.48451,1.0192,3.31494,3.31494,0,0,1-2.64989-1.0192,4.0023,4.0023,0,0,1-.91731-2.85375,3.33579,3.33579,0,0,1,.91731-2.64992,5.30323,5.30323,0,0,1,2.9557-1.0192l3.97491-.40768v-1.12112a3.0264,3.0264,0,0,0-.5096-1.83455,1.87216,1.87216,0,0,0-1.5288-.5096c-1.325,0-2.75185.10193-4.1787.20385l-.81534.10193-.1019-1.42687a22.16587,22.16587,0,0,1,4.89215-.5096,3.8251,3.8251,0,0,1,3.0576,1.0192A3.72605,3.72605,0,0,1,446.40008,326.84755Zm-7.74595,5.19792c0,1.5288.61149,2.34415,1.9365,2.34415a9.78437,9.78437,0,0,0,3.36335-.61153l.61149-.20385v-4.17872l-3.77105.30574a3.03764,3.03764,0,0,0-1.63069.61153A3.159,3.159,0,0,0,438.65413,332.04547Z"/>
    <path class="cls-4" d="M195.37121,323.38228l1.12112-5.50368h2.0384L196.9,323.38228Z"/>
  </g>
</svg>
