<svg xmlns="http://www.w3.org/2000/svg" viewBox="0 0 100.66 61.02"><defs><style>.cls-1{fill:#ddd;stroke:#dbdbdb;}.cls-1,.cls-2{stroke-miterlimit:10;}.cls-2{fill:none;stroke:#1d1d1b;stroke-width:1.5px;}.cls-3{fill:#1d1d1b;}</style></defs><g id="Layer_2" data-name="Layer 2"><g id="Livello_1" data-name="Livello 1"><circle class="cls-1" cx="38.21" cy="32.62" r="27.9"/><path class="cls-2" d="M57.13,30.24c0,.24.29.47.28.71s-.71.43-.72.67.48.49.46.73.71.54.68.78-1.14.34-1.17.58-.24.42-.28.66,1,.64,1,.88.4.57.35.81.9.72.84.95-.85.31-.91.55-2.4-.18-2.47,0S58,39,57.92,39.2s-1.26.11-1.34.34-1.19.07-1.28.3,1.89,1.27,1.8,1.49-.5.35-.59.57-2.34-.54-2.45-.32.85.92.74,1.14S56,43.89,55.86,44.1s-1,0-1.16.21S53,43.83,52.82,44s1,1.17.88,1.37.76,1.1.62,1.3-1.39-.36-1.53-.16-.07.55-.22.74-.5.23-.65.41-1.55-.67-1.7-.48-.23.39-.39.57.43,1,.26,1.18.16.81,0,1-1.34-.67-1.51-.51-.39.24-.56.41.3,1,.12,1.18-.89-.33-1.08-.18,0,.71-.2.86.13.94-.07,1.08.13,1-.07,1.15-1.94-2-2.14-1.84-.12.62-.33.75-.47.09-.67.22.17,1.2,0,1.32-1-.82-1.18-.71-.27.44-.49.55-.39.22-.61.32.24,1.67,0,1.76,0,1.29-.23,1.38S39.87,56,39.64,56.13s.09,1.71-.13,1.78-.39.47-.62.54-1.23-2.35-1.46-2.28-.09,1.45-.32,1.51-.7-.84-.93-.78-.19,1.37-.42,1.42-.85-1.87-1.08-1.83-.13,2-.37,2.09-.52-.12-.76-.09-.47.28-.71.3-.59-1.2-.83-1.18-.49-.53-.73-.52-.4,2.12-.64,2.12-.51-1-.75-1-.5.81-.74.81-.41-1.72-.65-1.73-.44-.28-.68-.29-.46.09-.7.07-.79,2.55-1,2.52-.06-3.06-.29-3.09-.77,1.74-1,1.69-.36-.66-.6-.71-.45-.15-.69-.21-.3-.73-.53-.79-1.07,2-1.3,2,.24-2.44,0-2.51-.55.2-.78.12-.54.12-.76,0-.27-.59-.49-.68-.17-.75-.39-.84-1,1.09-1.22,1-.39-.28-.61-.39-.24-.56-.45-.67-.75.38-1,.26,0-.94-.21-1.06-1,.71-1.2.58-.77.26-1,.13.1-1-.09-1.16-.41-.27-.6-.41-1.25.79-1.44.64,1.51-2.63,1.33-2.78-1.51,1-1.69.88S10,52.16,9.77,52s1.7-2.49,1.53-2.66-1.42.76-1.59.59.61-1.23.45-1.4S9,49,8.8,48.8s-1.23.4-1.39.22.79-1.28.64-1.46-.17-.47-.31-.66-1,.17-1.19,0-.1-.53-.23-.73,1-1.22.88-1.42.09-.58,0-.79-.87,0-1-.22-.61-.19-.73-.41-2,.46-2.08.25S5.11,42.16,5,41.94s-1-.06-1.11-.28.94-.91.85-1.13-1.36,0-1.45-.2-1-.16-1.11-.39-.05-.52-.12-.75,0-.52-.11-.75,2-1.06,2-1.29S2.43,37,2.38,36.8s.6-.62.55-.86.2-.51.16-.75S1.25,35,1.22,34.77s2.5-.83,2.47-1.07-1.92-.25-1.95-.48-1-.42-1-.66S3,31.93,3,31.69s.49-.47.49-.71-2.34-.44-2.34-.68,2.17-.44,2.18-.68-1.13-.5-1.12-.74.5-.44.52-.68-.21-.48-.18-.72-1.51-.67-1.48-.9-.29-.56-.25-.8.06-.52.1-.75,1.71-.17,1.76-.41.08-.47.13-.7S1.22,23,1.28,22.77s2.26.11,2.33-.12-1.91-1.1-1.84-1.33,2.56.34,2.64.11.66-.24.74-.46S5,20.41,5,20.19s-.17-.57-.07-.79-1.08-1-1-1.23-.7-.91-.6-1.12.69-.22.8-.44.38-.37.5-.58,2.06.65,2.18.44.36-.31.49-.51.52-.19.65-.39.25-.36.39-.56-.19-.69-.05-.88.4-.26.55-.45.38-.27.53-.45-.34-.9-.19-1.08.27-.38.44-.56-1.17-1.8-1-2,.87.14,1,0,.31-.41.49-.57.51-.18.69-.34.44-.25.63-.41,1.2.71,1.39.56.77.26,1,.11-.63-1.65-.43-1.79,1.21.92,1.41.79S14.26,6.12,14.46,6s1.1.86,1.31.74.33-.37.53-.49.93.75,1.15.64-.32-1.62-.1-1.73.62.19.84.09.88.84,1.1.75-.17-1.59.05-1.68,1,1.34,1.24,1.25-.14-1.73.09-1.81,1,1.46,1.2,1.39.16-1,.39-1.09.52.16.75.1.26-.87.5-.92.77,1.36,1,1.31S24.5,2,24.73,2s.39-.73.63-.77.52,0,.76-.06S26.8,2.7,27,2.68s.33-1.91.57-1.93.62,2,.86,2,.46-.49.7-.5.48.54.72.54.47,0,.71,0,.55-1.61.79-1.59.42,1.2.66,1.22.35,1.31.59,1.34.41.34.65.37.66-1.35.89-1.31.36.7.6.75.81-1.62,1-1.57.41.47.64.53-.09,2.3.14,2.37,1-1.79,1.21-1.72.62-.33.85-.25.47.19.69.27.39.4.61.48-.29,2-.07,2.12.79-.69,1-.59.9-.82,1.12-.72.28.56.49.66.68-.25.89-.13-.71,2.26-.5,2.37,1.76-2.08,2-1.95-1,2.49-.78,2.62,1.34-1.2,1.54-1.06.89-.41,1.08-.27-.5,1.5-.31,1.65.83-.29,1-.14.79-.18,1,0-.2,1,0,1.15,1.09-.47,1.27-.31-1.08,1.84-.91,2,.72-.07.89.1,1.11-.39,1.28-.21-1.38,1.87-1.22,2.05,1.44-.63,1.59-.45-.36.89-.21,1.08,1.68-.69,1.82-.5-.77,1.16-.63,1.36.93-.06,1.06.13,1-.07,1.15.13.07.55.19.76-.11.64,0,.85-1.46,1.34-1.35,1.55,1.25-.13,1.36.08-.46.74-.36,1,1.44-.14,1.54.08-.63.79-.54,1,2.12-.3,2.2-.08-1.82,1.18-1.74,1.41.93.19,1,.42-.13.54-.06.77-.84.71-.77.95,2.32-.08,2.38.15S56,24.59,56,24.82,59,24.74,59,25s-1.9.82-1.86,1.06,2,.22,2,.46-2.84.81-2.82,1.05.92.38.94.62-.16.48-.15.72,0,.46,0,.7,0,.46,0,.7Z"/><path class="cls-3" d="M79.07,7.62l1.84-6.41H85V18.27H82v-5l.14-8-2.24,7.41H78.25l-2-7.09.14,7.66v5h-3V1.21h4.09l1.62,6.41Z"/><path class="cls-3" d="M98.41,1.21V3.87H95.08V15.62h3.33v2.65H88.54V15.62h3.25V3.87H88.54V1.21Z"/><path class="cls-3" d="M79.07,28.62l1.84-6.41H85V39.27H82V34.22l.14-8-2.24,7.41H78.25l-2-7.09.14,7.66v5.05h-3V22.21h4.09l1.62,6.41Z"/><path class="cls-3" d="M99.52,34.08A8.51,8.51,0,0,1,99,35.91a7.52,7.52,0,0,1-1,1.55,5.5,5.5,0,0,1-1.34,1.17,6,6,0,0,1-1.49.64,6.55,6.55,0,0,1-1.75.23,6.34,6.34,0,0,1-1.84-.26A5.59,5.59,0,0,1,90,38.51a6,6,0,0,1-1.22-1.19,6.76,6.76,0,0,1-.9-1.58,9,9,0,0,1-.5-1.76,10.79,10.79,0,0,1-.17-2V29.5a11.18,11.18,0,0,1,.19-2.13A8.78,8.78,0,0,1,88,25.51a6.83,6.83,0,0,1,.88-1.46,5.55,5.55,0,0,1,1.2-1.12,5.43,5.43,0,0,1,1.5-.7,6.47,6.47,0,0,1,1.8-.25,6.61,6.61,0,0,1,1.85.25,5.52,5.52,0,0,1,1.55.72A5.21,5.21,0,0,1,98,24a7.7,7.7,0,0,1,.9,1.39,9,9,0,0,1,.63,1.9,10.29,10.29,0,0,1,.22,2.19V32A10.82,10.82,0,0,1,99.52,34.08Zm-3.21-5.85a6.13,6.13,0,0,0-.21-1.1A4.62,4.62,0,0,0,95.63,26a3.08,3.08,0,0,0-.69-.81,2.27,2.27,0,0,0-.71-.36,2.94,2.94,0,0,0-.87-.13,2.64,2.64,0,0,0-.83.12,2.06,2.06,0,0,0-.66.34,2.71,2.71,0,0,0-.67.82,4.44,4.44,0,0,0-.43,1.15,8.48,8.48,0,0,0-.17,1.1c0,.4,0,.82,0,1.25V32c0,.41,0,.81,0,1.2a8.05,8.05,0,0,0,.16,1.07,4.84,4.84,0,0,0,.38,1.13,3,3,0,0,0,.59.83,2.19,2.19,0,0,0,.72.43,2.65,2.65,0,0,0,.92.15,2.79,2.79,0,0,0,.9-.14,2.19,2.19,0,0,0,.73-.41,2.63,2.63,0,0,0,.67-.83,5.21,5.21,0,0,0,.44-1.13,6.72,6.72,0,0,0,.19-1.08A12,12,0,0,0,96.36,32V29.48a12.47,12.47,0,0,0-.06-1.25Z"/><path class="cls-3" d="M82.11,55a2.07,2.07,0,0,0-.53-.75,4.09,4.09,0,0,0-1-.63,9.27,9.27,0,0,0-1.53-.53,12.58,12.58,0,0,1-2.49-.94,7.36,7.36,0,0,1-1.75-1.21,4.76,4.76,0,0,1-1-1.45,4.43,4.43,0,0,1,.11-3.69,4.47,4.47,0,0,1,1.27-1.5,6.23,6.23,0,0,1,1.91-1A7.94,7.94,0,0,1,79.46,43a7.39,7.39,0,0,1,2.44.39,5.89,5.89,0,0,1,1.9,1.08A4.92,4.92,0,0,1,85,46.1a5,5,0,0,1,.45,2.11H82.28a3.22,3.22,0,0,0-.21-1.05,2.46,2.46,0,0,0-.53-.83,2.5,2.5,0,0,0-.9-.53,3.65,3.65,0,0,0-1.25-.19,3.81,3.81,0,0,0-1.17.16,2.58,2.58,0,0,0-.86.44,2,2,0,0,0-.53.69,2,2,0,0,0-.18.85,1.63,1.63,0,0,0,.24.87,2.2,2.2,0,0,0,.7.69,5.21,5.21,0,0,0,1.11.57,15,15,0,0,0,1.47.48,11.53,11.53,0,0,1,1.68.6,8.48,8.48,0,0,1,1.46.81,6.06,6.06,0,0,1,1.61,1.75,4.38,4.38,0,0,1,.6,2.3,4.16,4.16,0,0,1-1.7,3.47,5.51,5.51,0,0,1-1.9.92A9,9,0,0,1,77,60.14,6.29,6.29,0,0,1,74.82,59a5.32,5.32,0,0,1-1.39-1.71A5,5,0,0,1,72.92,55h3.23a3.59,3.59,0,0,0,.27,1.32,2.29,2.29,0,0,0,.69.9,2.87,2.87,0,0,0,1,.52,5.21,5.21,0,0,0,1.35.16,4.15,4.15,0,0,0,1.17-.15,2.56,2.56,0,0,0,.86-.42,2,2,0,0,0,.54-.65,1.79,1.79,0,0,0,.19-.84,2.23,2.23,0,0,0-.16-.86Z"/><path class="cls-3" d="M91.08,56.71l-1,3.56H86.6l5.59-17.06h3l5.48,17.06H97.19l-1-3.56H91.08Zm4.35-2.8-1.75-6.28-1.79,6.28Z"/></g></g></svg>