<svg xmlns="http://www.w3.org/2000/svg" xmlns:xlink="http://www.w3.org/1999/xlink" viewBox="0 0 70 13.9"><defs><style>.cls-1{fill:none;}.cls-2{clip-path:url(#clip-path);}.cls-3{fill:#db3037;}.cls-12,.cls-3,.cls-4,.cls-5,.cls-6{fill-rule:evenodd;}.cls-4{fill:#dfe0d9;}.cls-5{fill:#90262f;}.cls-6{fill:#21905d;}.cls-7{clip-path:url(#clip-path-2);}.cls-12,.cls-8{fill:#44b868;}.cls-9{clip-path:url(#clip-path-3);}.cls-10{fill:#fff;}.cls-11{fill:#22905d;}</style><clipPath id="clip-path"><rect class="cls-1" width="70" height="13.8"/></clipPath><clipPath id="clip-path-2"><path class="cls-1" d="M7.9,11.9h0c.4-.1.8-.1,1.1-.2v-8c-.4,0-.8-.1-1.1-.1Z"/></clipPath><clipPath id="clip-path-3"><rect class="cls-1" y="3.7" width="1.1" height="1.2"/></clipPath></defs><g id="Layer_2" data-name="Layer 2"><g id="Layer_1-2" data-name="Layer 1"><g class="cls-2"><path d="M22.2,6.9V6.7a.75.75,0,0,1-.5-.1.22.22,0,0,1-.2-.2V1.1a.22.22,0,0,1,.2-.2,2,2,0,0,1,.5-.1V.7H20V.9a.75.75,0,0,1,.5.1c.1.1.2.1.2.2V6.5a.22.22,0,0,1-.2.2,2,2,0,0,1-.5.1V7h1.7a4.33,4.33,0,0,0,.5-.1m2.3.1a1,1,0,0,0,.8-.3,1.88,1.88,0,0,0,.4-.9h-.2a2.39,2.39,0,0,1-.3.7.76.76,0,0,1-.5.2.52.52,0,0,1-.4-.2.76.76,0,0,1-.2-.5V2.6h1.3V2.4H24.1V.9a.37.37,0,0,1-.3.1h-.4V2.3h-.8v.2h.8V5.4c0,.3,0,.6.1.7s.1.3.3.5.2.2.3.2c.1.2.2.2.4.2Zm4.6,0a.9.9,0,0,0,.5-.1l.4-.2-.1-.2-.2.1-.2.1c-.1,0-.2,0-.2-.1s-.1-.2-.1-.3V3.8a1.48,1.48,0,0,0-.1-.7c-.1-.2-.1-.4-.3-.5a.52.52,0,0,0-.4-.2,1.27,1.27,0,0,0-.6-.1,1.48,1.48,0,0,0-.7.1,1.69,1.69,0,0,1-.5.2l-.3.3c-.1.1-.1.2-.1.4a.6.6,0,0,0,.1.4.52.52,0,0,0,.4.2.6.6,0,0,0,.4-.1.37.37,0,0,0,.1-.3.6.6,0,0,0-.1-.4c-.1-.1-.2-.2-.3-.2a.52.52,0,0,1,.4-.2c.2,0,.3-.1.5-.1s.3,0,.4.1.2.1.3.3.1.3.1.6v.5c0,.1-.1.2-.2.3a.76.76,0,0,1-.5.2,1.42,1.42,0,0,0-.6.2l-.6.3a1.76,1.76,0,0,0-.5.4,1.42,1.42,0,0,0-.2.6,1.14,1.14,0,0,0,.3.8,1.14,1.14,0,0,0,.8.3,1.45,1.45,0,0,0,.7-.2,1.17,1.17,0,0,0,.6-.6.75.75,0,0,0,.1.5c.1.1.5,0,.7.1m-1.7-.4a.76.76,0,0,1-.5-.2.85.85,0,0,1-.2-.6,1.45,1.45,0,0,1,.2-.7,1,1,0,0,1,.5-.4,1.42,1.42,0,0,1,.6-.2c.2,0,.3-.2.4-.3V5.9a1.21,1.21,0,0,1-.5.5.55.55,0,0,1-.5.2m4.8.3V6.7a.75.75,0,0,1-.5-.1c-.1-.1-.1-.2-.1-.5V0c-.1,0-.3.1-.4.1h-1V.3a.59.59,0,0,1,.5.2c.1.1.1.3.1.6v5a.75.75,0,0,1-.1.5.75.75,0,0,1-.5.1v.2h2m1.5-5.6a.52.52,0,0,0,.4-.2.52.52,0,0,0,.2-.4.52.52,0,0,0-.2-.4.52.52,0,0,0-.4-.2c-.2,0-.3,0-.4.2s-.2.2-.2.4a.52.52,0,0,0,.2.4.4.4,0,0,0,.4.2m1.1,5.6V6.7a.75.75,0,0,1-.5-.1.59.59,0,0,1-.2-.5V2.3c-.1,0-.3.1-.4.1h-1v.2a.59.59,0,0,1,.5.2c.1.1.1.3.1.6V6.1c0,.2,0,.4-.2.5a.75.75,0,0,1-.5.1v.2h2.2Zm3.8.1a.9.9,0,0,0,.5-.1.77.77,0,0,0,.3-.2l-.1-.2-.2.1-.2.1c-.1,0-.2,0-.2-.1s-.1-.2-.1-.3V3.8a1.48,1.48,0,0,0-.1-.7,2.19,2.19,0,0,0-.3-.5.52.52,0,0,0-.4-.2,1.27,1.27,0,0,0-.6-.1,1.48,1.48,0,0,0-.7.1,1.69,1.69,0,0,1-.5.2l-.3.3c-.1.1-.1.2-.1.4a.6.6,0,0,0,.1.4.52.52,0,0,0,.4.2c.2,0,.3,0,.4-.1a.37.37,0,0,0,.1-.3.6.6,0,0,0-.1-.4c-.1-.1-.2-.2-.3-.2a.52.52,0,0,1,.4-.2c.2,0,.3-.1.5-.1s.3,0,.4.1.2.1.3.3a1.08,1.08,0,0,1,.1.6v.5c0,.1-.1.2-.2.3a.76.76,0,0,1-.5.2c-.2.1-.4.1-.6.2s-.4,0-.6.1a1.76,1.76,0,0,0-.5.4.73.73,0,0,0-.2.6,1.14,1.14,0,0,0,.3.8,1.14,1.14,0,0,0,.8.3,1.45,1.45,0,0,0,.7-.2,1.17,1.17,0,0,0,.6-.6c0,.2,0,.4.2.5s.4.2.7.3m-1.8-.4a.76.76,0,0,1-.5-.2.85.85,0,0,1-.2-.6,1.45,1.45,0,0,1,.2-.7,1,1,0,0,1,.5-.4,1.42,1.42,0,0,1,.6-.2c.2,0,.3-.2.4-.3V5.9c-.2.2-.3.4-.5.5s-.3.2-.5.2m4.7.4a1.88,1.88,0,0,0,.8-.2,1,1,0,0,0,.4-.5h0V7c.2,0,.3-.1.5-.1h1.3V6.7c-.2,0-.4-.1-.4-.2s-.1-.3-.1-.6V0c-.2,0-.4.1-.6.1H42.2V.3c.2,0,.4.1.4.2s.1.3.1.6V2.6h0l-.2-.2h-.1a1.48,1.48,0,0,0-.7-.1,1.69,1.69,0,0,0-1,.3,1.85,1.85,0,0,0-.7.8,2.55,2.55,0,0,0-.2,1.3A5.21,5.21,0,0,0,40,6.1a5.55,5.55,0,0,0,.6.8c.2.2.6.1.9.1m.4-.4a.52.52,0,0,1-.4-.2,1.63,1.63,0,0,1-.3-.6A3.73,3.73,0,0,1,41,4.6,5.67,5.67,0,0,1,41.2,3a.75.75,0,0,1,.7-.5.6.6,0,0,1,.4.1l.2.2h0V6a.52.52,0,0,1-.2.4v.1c-.1.1-.3.2-.4.1m5.2.4a3.59,3.59,0,0,0,1.1-.2A1.55,1.55,0,0,0,49,6a2.9,2.9,0,0,0,.3-1.4A2.9,2.9,0,0,0,49,3.2a1.56,1.56,0,0,0-.8-.8,2.15,2.15,0,0,0-1.1-.2,2,2,0,0,0-1.1.3,2,2,0,0,0-.8.8,2.65,2.65,0,0,0-.3,1.4,2.9,2.9,0,0,0,.3,1.4,2,2,0,0,0,.8.8c.3,0,.7.1,1.1.1Zm0-.2c-.2,0-.4-.2-.6-.5a3.69,3.69,0,0,1-.2-1.7,6.53,6.53,0,0,1,.2-1.7c.2-.3.3-.5.6-.5s.4.2.6.5a3.69,3.69,0,0,1,.2,1.7,5.94,5.94,0,0,1-.2,1.7.74.74,0,0,1-.6.5m10.3.1V6.7c-.2,0-.3,0-.4-.1s-.1-.2-.1-.5V3.7a1.48,1.48,0,0,0-.1-.7.52.52,0,0,0-.2-.4.52.52,0,0,0-.4-.2,1.08,1.08,0,0,0-.6-.1,1.88,1.88,0,0,0-.8.2,1.06,1.06,0,0,0-.6.7h0V3a.52.52,0,0,0-.2-.4.52.52,0,0,0-.4-.2,1.08,1.08,0,0,0-.6-.1,2.35,2.35,0,0,0-.8.2c-.3.1-.4.3-.6.6V2.3c-.2,0-.4.1-.6.1H49.8v.2c.2,0,.4.1.4.2s.1.3.1.6V6.2a.75.75,0,0,1-.1.5c-.1.1-.2.1-.4.1V7H52V6.7c-.2,0-.3,0-.3-.1a2,2,0,0,1-.1-.5V3.7a.75.75,0,0,1,.1-.5,1.38,1.38,0,0,1,.3-.4.6.6,0,0,1,.4-.1.37.37,0,0,1,.3.1.31.31,0,0,1,.1.2V6.1a.75.75,0,0,1-.1.5.37.37,0,0,1-.3.1v.2h2.2V6.7c-.2,0-.3,0-.4-.1s-.1-.2-.1-.5V3.6h0V3.5a.76.76,0,0,1,.2-.5V2.9a.86.86,0,0,1,.6-.3c.2,0,.3,0,.3.1s.1.2.2.2V6a.75.75,0,0,1-.1.5.37.37,0,0,1-.3.1v.2h1.8a1.76,1.76,0,0,0,.6.1M61,7a.75.75,0,0,0,.5-.1c.2-.1.3-.1.4-.2l-.1-.2-.2.1h-.2l-.2-.1V3.9a1.48,1.48,0,0,0-.1-.7.55.55,0,0,0-.3-.5,1.33,1.33,0,0,0-.5-.3c-.2,0-.5-.1-.7-.1a2.49,2.49,0,0,0-.8.1,4.17,4.17,0,0,0-.6.2q-.3.15-.3.3c0,.1.1.2.1.4a.55.55,0,0,0,.2.5c0,.1.2.2.4.2s.3-.1.5-.2a.76.76,0,0,0,.2-.5c0-.2,0-.3-.1-.4a1.38,1.38,0,0,0-.4-.3c.1-.1.2-.1.3-.2h.3c.2,0,.3,0,.4.1s.2.2.2.3.1.3.1.4v.7c0,.1-.1.2-.2.3a.76.76,0,0,1-.5.2c-.2.1-.4.1-.6.2a1.42,1.42,0,0,1-.6.2c-.2,0-.2.4-.3.5a1.42,1.42,0,0,0-.2.6.91.91,0,0,0,.3.7,1.27,1.27,0,0,0,.9.4,2.35,2.35,0,0,0,.8-.2,1.21,1.21,0,0,0,.5-.5c0,.2.1.3.2.5s.3.2.6.2m-1.5-.6a.52.52,0,0,1-.4-.2C59,6.1,59,6,59,5.7a1.27,1.27,0,0,1,.1-.6q.15-.3.3-.3a.76.76,0,0,1,.4-.2l.3-.3V6.1l-.3.3h-.3m7.8.5V6.7c-.2,0-.3,0-.4-.1s-.1-.2-.1-.5V3.7a1.48,1.48,0,0,0-.1-.7c-.1-.2-.1-.3-.2-.4a.52.52,0,0,0-.4-.2c-.2,0-.3-.1-.6-.1a1.88,1.88,0,0,0-.8.2,1.7,1.7,0,0,0-.6.6V2.3c-.2,0-.4.1-.6.1H62.3v.2c.2,0,.4.1.4.2s.1.3.1.6V6.2a.75.75,0,0,1-.1.5c-.1.1-.2.1-.4.1V7h2.3V6.7c-.2,0-.3,0-.4-.1s-.1-.2-.1-.5V3.7a1.45,1.45,0,0,1,.2-.7.86.86,0,0,1,.6-.3c.2,0,.3,0,.3.1s.1.2.2.2V6.1a.75.75,0,0,1-.1.5c-.1.1-.1.1-.3.1v.2h2.3m1.5-5.4a1.42,1.42,0,0,0,.6-.2c.2-.1.2-.3.2-.5a.76.76,0,0,0-.2-.5.85.85,0,0,0-.6-.2,1.07,1.07,0,0,0-.6.2c-.2.1-.2.3-.2.5a.76.76,0,0,0,.2.5.85.85,0,0,0,.6.2M70,6.9V6.7c-.2,0-.3,0-.4-.1s-.1-.2-.1-.5V2.3c-.2,0-.4.1-.6.1H67.7v.2c.2,0,.4.1.4.2s.1.3.1.6V6.2a.75.75,0,0,1-.1.5c-.1.1-.2.1-.4.1V7h1.9a.6.6,0,0,1,.4-.1m-49.5,5v-.6H21a.53.53,0,0,0,.6-.6c0-.2,0-.3-.1-.4s-.2-.1-.4-.1h-.7V12h.1Zm.4-.8h-.5v-.8h.5a.35.35,0,0,1,.4.4c0,.3-.1.4-.4.4m1.1-1h-.2v1.8H22Zm.5,1.8.1-.5h.8l.1.5h.2l-.5-1.8h-.4l-.5,1.8Zm.8-.7h-.7l.3-1H23l.3,1Zm.9.7V10.3h0l.7,1.6h.4V10.1h-.2v1.6H25l-.7-1.6H24v1.8Zm2.2,0a.85.85,0,0,0,.6-.2c.1-.1.1-.4.1-.7s0-.6-.2-.7a.76.76,0,0,0-.5-.2c-.2,0-.5.1-.5.2a1.17,1.17,0,0,0-.2.7c0,.3,0,.6.1.7a.85.85,0,0,0,.6.2m0-.2a.52.52,0,0,1-.4-.2c-.1-.1-.1-.3-.1-.6a1.08,1.08,0,0,1,.1-.6c.1-.2.2-.2.4-.2a.52.52,0,0,1,.4.2c.1.1.1.3.1.6a1.08,1.08,0,0,1-.1.6c-.1.2-.2.2-.4.2m1.8.2V10.3h0l.7,1.6h.4V10.1h-.2v1.6h0l-.7-1.6H28v1.8Zm1.6,0,.1-.5h.8l.1.5H31l-.5-1.8h-.4l-.5,1.8Zm.8-.7H30l.3-1h.1l.2,1Zm1.8.7v-.2h-.9v-.1l.9-1.3v-.2H31.2v.2h.9v.1l-.9,1.3v.2Zm.5-1.8h-.2v1.8h.2ZM34,11.9a.85.85,0,0,0,.6-.2,1.17,1.17,0,0,0,.2-.7c0-.3,0-.6-.2-.7a.76.76,0,0,0-.5-.2c-.2,0-.5.1-.5.2a3.1,3.1,0,0,0-.2.7c0,.3,0,.6.2.7-.1.1.1.2.4.2m0-.2a.52.52,0,0,1-.4-.2c-.1-.1-.1-.3-.1-.6a1.08,1.08,0,0,1,.1-.6c.1-.2.2-.2.4-.2a.52.52,0,0,1,.4.2c.1.1.1.3.1.6a1.08,1.08,0,0,1-.1.6c-.1.2-.2.2-.4.2m1.2.2V10.3h0l.7,1.6h.4V10.1h-.2v1.6h0l-.7-1.6H35v1.8Zm1.6,0,.1-.5h.8l.1.5H38l-.5-1.8h-.4l-.5,1.8Zm.9-.7H37l.3-1h.1Zm1.6.7v-.2h-.8V10.1h-.2v1.8Zm1.4,0v-.2h-.9v-.6h.7v-.2h-.7v-.6h.9v-.2H39.6v1.8Zm1.5,0a.37.37,0,0,0,.3-.1q.3-.15.3-.9a.75.75,0,0,0-.1-.5.68.68,0,0,0-.6-.4h-.6v1.8h.7Zm0-.2h-.4V10.3h.4l.2.1c.2.1.2.3.2.6.1.5-.1.7-.4.7m1.3-1.6h-.2v1.8h.2Zm1.2,1.8v-.7h.5l.3.7h.2l-.3-.7a.46.46,0,0,0,.3-.5c0-.2,0-.3-.1-.4s-.2-.1-.4-.1h-.7V12C44.5,11.9,44.7,11.9,44.7,11.9Zm.4-.9h-.5v-.8h.5a.37.37,0,0,1,.4.4c0,.3-.1.4-.4.4m1.1-.9H46v1.8h.2Zm.7,1.8v-.6h.5a.53.53,0,0,0,.6-.6c0-.2,0-.3-.1-.4s-.2-.1-.4-.1h-.7V12h.1Zm.4-.8h-.5v-.8h.5a.35.35,0,0,1,.4.4c0,.3-.1.4-.4.4m1.1.8v-.7h.5l.3.7h.2l-.3-.7a.46.46,0,0,0,.3-.5c0-.2,0-.3-.1-.4s-.2-.1-.4-.1h-.7V12C48.2,11.9,48.4,11.9,48.4,11.9Zm.5-.9h-.5v-.8h.5a.4.4,0,1,1,0,.8m2,.9v-.2H50v-.6h.7v-.2H50v-.6h.9v-.2H49.8v1.8Zm.8,0a.53.53,0,0,0,.6-.6.37.37,0,0,0-.1-.3c-.1-.1-.2-.1-.4-.2s-.3-.1-.4-.1-.1-.1-.1-.2.1-.3.4-.3h.5V10h-.1c-.2,0-.3-.1-.5-.1-.4,0-.6.2-.6.5s0,.3.1.3.2.1.4.2a.44.44,0,0,1,.3.1c.1,0,.1.1.1.2a.37.37,0,0,1-.4.4,1.09,1.09,0,0,1-.5-.1v.2h.1a1,1,0,0,0,.6.2m1,0,.1-.5h.8l.1.5h.2l-.5-1.8H53l-.5,1.8Zm.8-.7h-.7l.3-1h.1Zm2.4.7v-.2H55v-.6h.7v-.2H55v-.6h.9v-.2H54.8v1.8Zm1.1,0v-.7h.5l.3.7H58l-.3-.7a.46.46,0,0,0,.3-.5c0-.2,0-.3-.1-.4s-.2-.1-.4-.1h-.7V12l.2-.1Zm.4-.9H57v-.8h.5a.37.37,0,0,1,.4.4c0,.3-.2.4-.5.4m2.1.9v-.2h-.9v-.6h.7v-.2h-.7v-.6h.9v-.2H58.4v1.8Zm.8,0a.53.53,0,0,0,.6-.6.37.37,0,0,0-.1-.3c-.1-.1-.2-.1-.4-.2a.76.76,0,0,0-.4-.1c-.1,0-.1-.1-.1-.2s.1-.3.4-.3h.5V10h-.1c-.2,0-.3-.1-.5-.1-.4,0-.6.2-.6.5s0,.3.1.3.2.1.4.2a.44.44,0,0,1,.3.1c.1,0,.1.1.1.2a.37.37,0,0,1-.4.4,1.09,1.09,0,0,1-.5-.1v.2h.1a1,1,0,0,0,.6.2m1.1-1.8h-.2v1.8h.2Zm1.4,1.8v-.2H62V10.1h-.2v1.8Zm.5-1.8h-.2v1.8h.2Zm1.5,1.8v-.2h-.9v-.6h.7v-.2h-.7v-.6h.9v-.2H63.7v1.8Zm.5,0V10.3h.1l.7,1.6h.4V10.1h-.2v1.6h-.1l-.7-1.6h-.4v1.8Zm2.7,0v-.2H67v-.1l.9-1.3v-.2H66.7v.2h.9v.1l-.9,1.3v.2Zm.3,0,.1-.5h.8l.1.5h.2L69,10.1h-.4l-.5,1.8Zm.9-.7h-.7l.3-1h.1C68.9,10.3,69.2,11.2,69.2,11.2Z"/><path class="cls-3" d="M15.8.9,11.3,0V3.8c.4,0,.8.1,1.1.1V9.1l3.4-.3V.9Z"/><path class="cls-4" d="M11.3,3.8c-.8,0-1.5-.1-2.3-.1v8.1c-.4.1-.8.1-1.1.2v1.9l4.5-.9V9.1c-.4,0-.8.1-1.1.1Z"/><path class="cls-5" d="M11.3,3.8V9.2c.4,0,.8-.1,1.1-.1V3.9a3.75,3.75,0,0,1-1.1-.1"/><path class="cls-6" d="M9,3.7V1.8L4.5,1.2V12.4c1.1-.2,2.3-.3,3.4-.5V3.6A4.1,4.1,0,0,1,9,3.7"/></g><g class="cls-7"><rect class="cls-8" x="7.9" y="3.6" width="1.1" height="8.4"/></g><g class="cls-9"><polygon class="cls-10" points="0 4.8 0 4.8 0 3.7 0 3.7 0 4.8"/><path class="cls-11" d="M1.1,4.9H0V3.7a4.1,4.1,0,0,1,1.1.1V4.9Z"/></g><g class="cls-2"><path class="cls-6" d="M2.4,6.2H1.3V5.1H2.4V6.2Z"/><path class="cls-6" d="M5.1,6.3H4V5.2H5.1V6.3Z"/><path class="cls-12" d="M5.1,3.4A4.1,4.1,0,0,1,4,3.3v-1c.4,0,.7.1,1.1.1Z"/><path class="cls-12" d="M1.1,7.6H0V6.4H1.1V7.6Z"/><path class="cls-6" d="M3.8,8.8a4.1,4.1,0,0,0-1.1.1V7.8H3.8v1Z"/><path class="cls-12" d="M5.1,10c-.4,0-.7.1-1.1.1V9H5.1Z"/><path class="cls-12" d="M2.4,11.5c-.4,0-.7.1-1.1.1V10.5c.4,0,.7-.1,1.1-.1Z"/><path class="cls-6" d="M5.1,11.3c-.4,0-.7.1-1.1.1V10.3l1.1-.1Z"/><path class="cls-3" d="M9.6,1.4V.6C9.3.6,9,.5,8.8.5v.9h.8"/><path class="cls-3" d="M10.6,2.5V1.7c-.3,0-.6-.1-.8-.1v.8a2.49,2.49,0,0,0,.8.1"/><path class="cls-5" d="M10.6,4.5V3.6H9.8v.8a2,2,0,0,1,.8.1"/><path class="cls-5" d="M11.1,6.7V5.9h-.8v.8c.2.1.5,0,.8,0"/><path class="cls-5" d="M11.6,1.7V.9c-.3,0-.6-.1-.8-.1v.8a2.49,2.49,0,0,1,.8.1"/><path class="cls-3" d="M11.6,5.4V4.6h-.8v.8h.8"/><path class="cls-3" d="M11.6,8.2V7.4c-.3,0-.6.1-.8.1v.8c.2,0,.5-.1.8-.1"/></g></g></g></svg>