<svg xmlns="http://www.w3.org/2000/svg" xmlns:xlink="http://www.w3.org/1999/xlink" viewBox="0 0 70 13.81"><defs><style>.cls-1{fill:none;}.cls-2{fill:#f4dd4d;}.cls-3{clip-path:url(#clip-path);}.cls-4{fill:#db3037;}.cls-13,.cls-4,.cls-5,.cls-6,.cls-7{fill-rule:evenodd;}.cls-5{fill:#dfe0d9;}.cls-6{fill:#90262f;}.cls-7{fill:#21905d;}.cls-8{clip-path:url(#clip-path-2);}.cls-13,.cls-9{fill:#44b868;}.cls-10{clip-path:url(#clip-path-3);}.cls-11{fill:#fff;}.cls-12{fill:#22905d;}</style><clipPath id="clip-path"><rect class="cls-1" width="70" height="13.81"/></clipPath><clipPath id="clip-path-2"><path class="cls-1" d="M7.88,11.92h0L9,11.76V3.66L7.88,3.57Z"/></clipPath><clipPath id="clip-path-3"><rect class="cls-1" y="3.69" width="1.1" height="1.2"/></clipPath></defs><g id="Layer_2" data-name="Layer 2"><g id="Layer_1-2" data-name="Layer 1"><rect class="cls-2" width="70" height="13.81"/><g class="cls-3"><path d="M22.21,6.91V6.73a1.51,1.51,0,0,1-.45-.07.3.3,0,0,1-.2-.21,1.75,1.75,0,0,1,0-.47V1.64a1.79,1.79,0,0,1,0-.48.32.32,0,0,1,.2-.21,1.51,1.51,0,0,1,.45-.07V.7l-.5,0H20.46L20,.7V.88a1.24,1.24,0,0,1,.45.07.32.32,0,0,1,.2.21,1.45,1.45,0,0,1,.05.48V6a1.75,1.75,0,0,1-.05.47.3.3,0,0,1-.21.21,1.51,1.51,0,0,1-.45.07v.18l.48,0H21.7l.5,0M24.52,7a.93.93,0,0,0,.79-.35,2,2,0,0,0,.35-.86l-.18,0a1.73,1.73,0,0,1-.33.72.6.6,0,0,1-.45.21.53.53,0,0,1-.41-.17A.86.86,0,0,1,24.14,6V2.57h1.3V2.39h-1.3V1a1.82,1.82,0,0,1-.37.09,2.77,2.77,0,0,1-.42,0V2.41h-.84v.18h.84V5.52a3.49,3.49,0,0,0,.07.74,1,1,0,0,0,.27.48A1.08,1.08,0,0,0,24,7a1.37,1.37,0,0,0,.49.07h0ZM29.13,7a1,1,0,0,0,.45-.09,3,3,0,0,0,.35-.23l-.1-.15-.18.13-.21,0a.22.22,0,0,1-.21-.1.63.63,0,0,1-.06-.31V3.84a3,3,0,0,0-.07-.72,1,1,0,0,0-.3-.51,1,1,0,0,0-.42-.24,1.84,1.84,0,0,0-.61-.08,2.28,2.28,0,0,0-.72.1,2.11,2.11,0,0,0-.52.24,1.48,1.48,0,0,0-.29.26.54.54,0,0,0-.11.37.58.58,0,0,0,.12.36.42.42,0,0,0,.37.16A.48.48,0,0,0,27,3.65a.45.45,0,0,0,.14-.35A.52.52,0,0,0,27,2.94a.59.59,0,0,0-.29-.18.67.67,0,0,1,.4-.25,2,2,0,0,1,.47-.06,1.31,1.31,0,0,1,.41.06.52.52,0,0,1,.29.26,1.21,1.21,0,0,1,.11.56v.54a.39.39,0,0,1-.18.33,1.79,1.79,0,0,1-.46.24l-.59.21a3.91,3.91,0,0,0-.59.26,1.35,1.35,0,0,0-.46.39,1,1,0,0,0-.18.61,1.11,1.11,0,0,0,.26.76A1.07,1.07,0,0,0,27,7a1.73,1.73,0,0,0,.74-.16,1.51,1.51,0,0,0,.64-.62,1,1,0,0,0,.15.54.65.65,0,0,0,.6.24m-1.76-.33a.69.69,0,0,1-.5-.2.82.82,0,0,1-.2-.6.93.93,0,0,1,.21-.66,1.67,1.67,0,0,1,.5-.37L28,4.54a1,1,0,0,0,.41-.31V6a1.47,1.47,0,0,1-.47.51,1,1,0,0,1-.52.15m4.86.3V6.73a.76.76,0,0,1-.51-.13.65.65,0,0,1-.15-.5V0a2.59,2.59,0,0,1-.42.09,3.79,3.79,0,0,1-.49,0,3.32,3.32,0,0,1-.54,0V.31a.59.59,0,0,1,.52.19,1,1,0,0,1,.14.58v5a.66.66,0,0,1-.15.5.76.76,0,0,1-.51.13v.18l.45,0H31.8l.45,0M33.7,1.33a.54.54,0,0,0,.39-.17.53.53,0,0,0,0-.78A.54.54,0,0,0,33.7.21a.5.5,0,0,0-.39.17.56.56,0,0,0-.17.39.54.54,0,0,0,.17.39.54.54,0,0,0,.39.17m1.12,5.58V6.73a.76.76,0,0,1-.51-.13.65.65,0,0,1-.15-.5V2.31a2.59,2.59,0,0,1-.42.09,3.91,3.91,0,0,1-.49,0,3.32,3.32,0,0,1-.54,0v.18a.59.59,0,0,1,.52.19,1,1,0,0,1,.14.58V6.09a.66.66,0,0,1-.15.5.76.76,0,0,1-.51.13V6.9l.45,0h1.21l.45,0h0ZM38.57,7A1,1,0,0,0,39,6.88a3,3,0,0,0,.35-.23l-.1-.15-.18.13-.22,0a.22.22,0,0,1-.21-.1.63.63,0,0,1-.06-.31V3.84a3,3,0,0,0-.07-.72,1,1,0,0,0-.3-.51,1,1,0,0,0-.42-.24,1.84,1.84,0,0,0-.61-.08,2.28,2.28,0,0,0-.72.1,2.11,2.11,0,0,0-.52.24,1.48,1.48,0,0,0-.29.26.54.54,0,0,0-.11.37.58.58,0,0,0,.12.36.42.42,0,0,0,.37.16.5.5,0,0,0,.36-.13.45.45,0,0,0,.14-.35.52.52,0,0,0-.12-.36.59.59,0,0,0-.29-.18.67.67,0,0,1,.4-.25A2,2,0,0,1,37,2.45a1.31,1.31,0,0,1,.41.06.52.52,0,0,1,.29.26,1.21,1.21,0,0,1,.11.56v.54a.39.39,0,0,1-.18.33,1.79,1.79,0,0,1-.46.24l-.59.21a3.91,3.91,0,0,0-.59.26,1.35,1.35,0,0,0-.46.39,1,1,0,0,0-.18.61,1.11,1.11,0,0,0,.26.76,1.07,1.07,0,0,0,.83.28,1.73,1.73,0,0,0,.74-.16,1.44,1.44,0,0,0,.63-.62,1,1,0,0,0,.15.54.65.65,0,0,0,.6.24m-1.74-.33a.7.7,0,0,1-.5-.2.82.82,0,0,1-.2-.6.93.93,0,0,1,.21-.66,1.67,1.67,0,0,1,.5-.37l.57-.25a1,1,0,0,0,.41-.31V6a1.47,1.47,0,0,1-.47.51,1,1,0,0,1-.52.15M41.5,7a1.2,1.2,0,0,0,.77-.24,1.23,1.23,0,0,0,.37-.53V7a2.31,2.31,0,0,1,.47-.08h.12a4.93,4.93,0,0,1,.69,0,3.26,3.26,0,0,1,.54,0V6.72A.48.48,0,0,1,44,6.53,1.09,1.09,0,0,1,43.9,6V.05a4.89,4.89,0,0,1-.59.09c-.22,0-.44,0-.68,0a3.32,3.32,0,0,1-.54,0V.32a.47.47,0,0,1,.44.19,1.09,1.09,0,0,1,.12.58V2.57h0l-.22-.17-.06,0a1.59,1.59,0,0,0-.68-.13,2,2,0,0,0-1,.26,1.81,1.81,0,0,0-.69.78,3,3,0,0,0-.25,1.32A3.52,3.52,0,0,0,40,6a1.66,1.66,0,0,0,.63.78,1.69,1.69,0,0,0,.92.25m.33-.35a.57.57,0,0,1-.43-.19,1.32,1.32,0,0,1-.29-.64A5.33,5.33,0,0,1,41,4.64,3.88,3.88,0,0,1,41.29,3,.78.78,0,0,1,42,2.51a.93.93,0,0,1,.4.09l.23.19V5.93a.94.94,0,0,1-.2.44l0,0a.74.74,0,0,1-.53.24M47.09,7a2.46,2.46,0,0,0,1.12-.24A1.67,1.67,0,0,0,49,6a3,3,0,0,0,.27-1.39A3,3,0,0,0,49,3.25a1.67,1.67,0,0,0-.75-.76,2.71,2.71,0,0,0-2.23,0,1.69,1.69,0,0,0-.76.76,3,3,0,0,0-.28,1.39A2.91,2.91,0,0,0,45.22,6a1.69,1.69,0,0,0,.76.76A2.45,2.45,0,0,0,47.09,7Zm0-.18c-.23,0-.43-.17-.59-.52a4.31,4.31,0,0,1-.24-1.69A4.31,4.31,0,0,1,46.5,3c.16-.35.35-.52.59-.52s.44.17.59.52a4.58,4.58,0,0,1,.23,1.69,4.58,4.58,0,0,1-.23,1.69c-.15.35-.35.52-.59.52m10.29.06V6.73A.57.57,0,0,1,57,6.6a.75.75,0,0,1-.13-.5V3.75a3.24,3.24,0,0,0-.06-.7,1,1,0,0,0-.2-.43.9.9,0,0,0-.37-.25,1.65,1.65,0,0,0-.6-.09,2,2,0,0,0-.84.18,1.35,1.35,0,0,0-.63.71V3.05a1,1,0,0,0-.22-.43.9.9,0,0,0-.37-.25,1.83,1.83,0,0,0-1.38.1,1.31,1.31,0,0,0-.57.63V2.31A4.89,4.89,0,0,1,51,2.4q-.32,0-.69,0a3.26,3.26,0,0,1-.54,0v.18a.47.47,0,0,1,.44.19,1.09,1.09,0,0,1,.12.58V6.11a.71.71,0,0,1-.13.5.57.57,0,0,1-.43.13v.18l.53,0h1.28l.43,0V6.74a.36.36,0,0,1-.32-.13.94.94,0,0,1-.1-.5V3.68a1.11,1.11,0,0,1,.12-.52A.92.92,0,0,1,52,2.8a.72.72,0,0,1,.42-.13.43.43,0,0,1,.3.09.51.51,0,0,1,.14.25,2.09,2.09,0,0,1,0,.38V6.11a1,1,0,0,1-.09.5.37.37,0,0,1-.33.13v.18l.46,0h1.25l.48,0V6.74a.47.47,0,0,1-.39-.13.77.77,0,0,1-.11-.5V3.54A1.15,1.15,0,0,1,54.38,3l0-.06a.76.76,0,0,1,.59-.3.55.55,0,0,1,.34.09.53.53,0,0,1,.15.25,1.43,1.43,0,0,1,0,.38V6.11a1,1,0,0,1-.09.5.37.37,0,0,1-.33.13v.18l.46,0h1.28l.5,0M61,7a1.8,1.8,0,0,0,.54-.08A1.1,1.1,0,0,0,62,6.65l-.09-.15-.15.11-.17,0-.15-.09a.74.74,0,0,1,0-.3V3.88a3.8,3.8,0,0,0-.06-.74,1,1,0,0,0-.26-.49,1.11,1.11,0,0,0-.54-.3,3.26,3.26,0,0,0-.73-.08,3.52,3.52,0,0,0-.75.08,1.86,1.86,0,0,0-.59.22,1.22,1.22,0,0,0-.35.32.72.72,0,0,0-.13.42.71.71,0,0,0,.16.48.6.6,0,0,0,.48.2.72.72,0,0,0,.49-.18.57.57,0,0,0,.2-.47.67.67,0,0,0-.13-.41.83.83,0,0,0-.38-.27.59.59,0,0,1,.29-.16,1.41,1.41,0,0,1,.35,0,.7.7,0,0,1,.4.1.58.58,0,0,1,.23.28,1.07,1.07,0,0,1,.07.41v.68a.42.42,0,0,1-.17.33,1.57,1.57,0,0,1-.45.23l-.58.2a3.64,3.64,0,0,0-.57.25,1.28,1.28,0,0,0-.44.39,1,1,0,0,0-.17.61,1.11,1.11,0,0,0,.26.74,1.07,1.07,0,0,0,.85.31,1.43,1.43,0,0,0,1.29-.71.78.78,0,0,0,.18.49A.88.88,0,0,0,61,7m-1.5-.56a.53.53,0,0,1-.39-.16A.79.79,0,0,1,59,5.71a1,1,0,0,1,.13-.56,1.07,1.07,0,0,1,.33-.34l.38-.25a1,1,0,0,0,.29-.29V6.06a.92.92,0,0,1-.28.28.68.68,0,0,1-.31.08m7.77.49V6.73a.57.57,0,0,1-.43-.13.75.75,0,0,1-.13-.5V3.75A2.73,2.73,0,0,0,66.66,3a1,1,0,0,0-.21-.43.86.86,0,0,0-.36-.25,1.65,1.65,0,0,0-.6-.09,1.92,1.92,0,0,0-.84.18,1.32,1.32,0,0,0-.6.63V2.29a4.89,4.89,0,0,1-.59.09q-.32,0-.69,0a3.32,3.32,0,0,1-.54,0v.18a.47.47,0,0,1,.44.19,1.09,1.09,0,0,1,.12.58V6.09a.71.71,0,0,1-.13.5.57.57,0,0,1-.43.13V6.9l.53,0h1.31l.46,0V6.72a.43.43,0,0,1-.36-.13.83.83,0,0,1-.11-.5V3.66a1.08,1.08,0,0,1,.25-.73.8.8,0,0,1,.62-.29.55.55,0,0,1,.34.09.47.47,0,0,1,.16.25,1.43,1.43,0,0,1,0,.38V6.08a.87.87,0,0,1-.1.5.44.44,0,0,1-.37.13v.18l.49,0H66.8l.5,0m1.46-5.42a.87.87,0,0,0,.58-.18A.61.61,0,0,0,69.55.8a.59.59,0,0,0-.21-.49,1,1,0,0,0-1.16,0A.61.61,0,0,0,68,.8a.61.61,0,0,0,.21.49.87.87,0,0,0,.58.18M70,6.91V6.73a.57.57,0,0,1-.43-.13.75.75,0,0,1-.13-.5V2.29a4.89,4.89,0,0,1-.59.09q-.31,0-.69,0a3.26,3.26,0,0,1-.54,0v.18a.47.47,0,0,1,.44.19,1.09,1.09,0,0,1,.12.58V6.09a.71.71,0,0,1-.13.5.57.57,0,0,1-.43.13V6.9l.53,0h1.36l.49,0m-49.54,5v-.6h.46c.38,0,.57-.2.57-.61a.63.63,0,0,0-.14-.44.56.56,0,0,0-.43-.14h-.66v1.79Zm.45-.78h-.45v-.84h.45a.34.34,0,0,1,.28.1.46.46,0,0,1,.09.31c0,.29-.12.43-.37.43m1.08-1h-.2v1.79H22Zm.48,1.79.13-.46h.77l.13.46h.2l-.49-1.79h-.44l-.49,1.79h.19Zm.85-.64h-.68l.27-1H23l.27,1Zm.85.64V10.27h0l.7,1.62h.37V10.1h-.2v1.62H25l-.69-1.62H24v1.79Zm2.19,0a.66.66,0,0,0,.56-.21,1.25,1.25,0,0,0,.15-.7,1.22,1.22,0,0,0-.16-.71.77.77,0,0,0-1.1,0,1.29,1.29,0,0,0-.16.7,1.24,1.24,0,0,0,.15.69.63.63,0,0,0,.56.22m0-.17a.44.44,0,0,1-.4-.17,1.13,1.13,0,0,1-.1-.57,1.16,1.16,0,0,1,.1-.57.53.53,0,0,1,.8,0,1.19,1.19,0,0,1,.11.58,1.16,1.16,0,0,1-.1.57.44.44,0,0,1-.4.17m1.83.14V10.27h.05l.7,1.62h.37V10.1h-.2v1.62h-.05l-.69-1.62H28v1.79h.19Zm1.6,0,.13-.46h.77l.13.46H31l-.49-1.79H30.1l-.49,1.79h.19Zm.85-.64H30l.27-1h.13l.27,1Zm1.71.64v-.18h-.94v-.05l.94-1.33V10.1H31.19v.18h.94v.06l-.94,1.33v.23h1.17Zm.53-1.79h-.2v1.79h.2ZM34,11.92a.66.66,0,0,0,.56-.21,1.25,1.25,0,0,0,.15-.7,1.22,1.22,0,0,0-.16-.71.77.77,0,0,0-1.1,0,1.3,1.3,0,0,0-.15.7,1.24,1.24,0,0,0,.15.69.63.63,0,0,0,.56.22m0-.17a.44.44,0,0,1-.4-.17,1.13,1.13,0,0,1-.1-.57,1.16,1.16,0,0,1,.1-.57.53.53,0,0,1,.8,0,1.19,1.19,0,0,1,.11.58,1.16,1.16,0,0,1-.1.57.44.44,0,0,1-.4.17m1.27.14V10.27h0l.7,1.62h.36V10.1h-.2v1.62h0l-.69-1.62H35v1.79Zm1.59,0,.13-.46h.77l.13.46h.2l-.49-1.79h-.43l-.49,1.79h.18Zm.85-.64H37l.27-1h.14Zm1.64.64v-.18h-.79V10.1h-.2v1.79Zm1.34,0v-.18h-.89v-.65h.74v-.17h-.74v-.62h.89v-.18H39.57v1.79h1.09Zm1.56,0a.67.67,0,0,0,.33-.07c.22-.12.34-.4.34-.85a1.45,1.45,0,0,0-.08-.52.57.57,0,0,0-.58-.35h-.64v1.79h.63Zm0-.18h-.44V10.27h.44l.23.05c.15.09.23.3.23.64,0,.5-.15.75-.46.75m1.23-1.61h-.2v1.79h.2Zm1.2,1.79V11.2h.51l.32.69h.22l-.35-.73a.48.48,0,0,0,.33-.52.55.55,0,0,0-.14-.41.61.61,0,0,0-.43-.13h-.66v1.79Zm.47-.86h-.47v-.75h.46a.34.34,0,0,1,.37.38.33.33,0,0,1-.37.38m1.14-.94h-.2v1.79h.2Zm.64,1.79v-.6h.46c.38,0,.57-.2.57-.61a.63.63,0,0,0-.14-.44.56.56,0,0,0-.43-.14H46.7v1.79h.19Zm.45-.78h-.45v-.84h.45a.34.34,0,0,1,.28.1.46.46,0,0,1,.09.31c0,.29-.12.43-.37.43m1.08.78V11.2h.51l.32.69h.22l-.35-.73a.48.48,0,0,0,.33-.52.55.55,0,0,0-.14-.41.61.61,0,0,0-.43-.13h-.66v1.79Zm.47-.86h-.47v-.75h.46a.38.38,0,0,1,0,.76m2,.85v-.18H50v-.65h.74v-.17H50v-.62h.89v-.18H49.82v1.79h1.09Zm.83,0c.38,0,.57-.18.57-.55A.43.43,0,0,0,52.2,11a1,1,0,0,0-.39-.16,1.21,1.21,0,0,1-.36-.12.25.25,0,0,1-.09-.22c0-.2.13-.29.39-.29a4.41,4.41,0,0,1,.51,0l0-.17h-.09a2,2,0,0,0-.45,0c-.39,0-.58.16-.58.48a.39.39,0,0,0,.13.34,1.12,1.12,0,0,0,.43.17.81.81,0,0,1,.31.11.23.23,0,0,1,.08.21c0,.24-.13.36-.38.36a3.31,3.31,0,0,1-.54-.05l0,.17h.09a2.4,2.4,0,0,0,.47.06m1,0,.13-.46h.77l.13.46h.2l-.49-1.79H53l-.49,1.79h.18Zm.85-.64h-.68l.27-1h.14Zm2.31.64v-.18H55v-.65h.74v-.17H55v-.62h.89v-.18H54.77v1.79h1.09Zm1.11,0V11.2h.51l.32.69H58l-.34-.73a.48.48,0,0,0,.33-.52.55.55,0,0,0-.14-.41.61.61,0,0,0-.43-.13h-.66v1.79H57Zm.47-.86H57v-.75h.46a.34.34,0,0,1,.37.38.33.33,0,0,1-.37.38m2,.85v-.18h-.89v-.65h.74v-.17h-.74v-.62h.89v-.18H58.37v1.79h1.09Zm.83,0c.38,0,.57-.18.57-.55a.43.43,0,0,0-.11-.32,1,1,0,0,0-.39-.16,1.21,1.21,0,0,1-.36-.12.25.25,0,0,1-.09-.22c0-.2.13-.29.39-.29a4.41,4.41,0,0,1,.51,0l0-.17h-.09a2,2,0,0,0-.45,0c-.39,0-.58.16-.58.48a.39.39,0,0,0,.13.34,1.12,1.12,0,0,0,.43.17.81.81,0,0,1,.31.11.23.23,0,0,1,.08.21c0,.24-.13.36-.38.36a3.31,3.31,0,0,1-.54-.05l0,.17h.09a2.4,2.4,0,0,0,.47.06m1.13-1.82h-.2v1.79h.2Zm1.42,1.79v-.18H62V10.1h-.2v1.79Zm.45-1.79h-.2v1.79h.2Zm1.53,1.79v-.18h-.89v-.65h.73v-.17h-.73v-.62h.89v-.18H63.72v1.79h1.09Zm.54,0V10.27h.05l.7,1.62h.37V10.1h-.2v1.62h0l-.69-1.62h-.37v1.79h.19Zm2.61,0v-.18H67v-.05L68,10.33V10.1H66.79v.18h.94v.06l-.94,1.33v.23H68Zm.37,0,.13-.46h.77l.13.46h.2l-.49-1.79h-.44l-.49,1.79h.19Zm.86-.64h-.68l.27-1h.14Z"/><path class="cls-4" d="M15.77.87,11.28,0V3.84l1.13.09V9.12l3.35-.26v-8Z"/><path class="cls-5" d="M11.28,3.84,9,3.66v8.1l-1.13.16v1.89l4.53-.88V9.12l-1.13.09Z"/><path class="cls-6" d="M11.28,3.84V9.22l1.13-.09V3.93l-1.13-.09"/><path class="cls-7" d="M9,3.66V1.83L4.48,1.24V12.41l3.4-.48V3.57L9,3.66"/></g><g class="cls-8"><rect class="cls-9" x="7.88" y="3.57" width="1.13" height="8.35"/></g><g class="cls-10"><polygon class="cls-11" points="0 4.85 0 4.85 0 3.69 0 3.69 0 4.85"/><path class="cls-12" d="M1.1,4.89h0L0,4.85V3.69l1.09.06V4.88Z"/></g><g class="cls-3"><path class="cls-7" d="M2.43,6.25H1.33V5.11l1.1,0V6.26Z"/><path class="cls-7" d="M5.09,6.28H4V5.2l1.1,0v1Z"/><path class="cls-13" d="M5.09,3.41,4,3.33V2.26l1.1.1Z"/><path class="cls-13" d="M1.12,7.58,0,7.6V6.44h1.1V7.57Z"/><path class="cls-7" d="M3.76,8.82l-1.1,0V7.77l1.1,0V8.83Z"/><path class="cls-13" d="M5.09,10,4,10.08V9l1.1,0Z"/><path class="cls-13" d="M2.43,11.5l-1.1.1V10.47l1.1-.08Z"/><path class="cls-7" d="M5.05,11.26l-1.1.1V10.29l1.1-.08Z"/><path class="cls-4" d="M9.64,1.44V.6L8.82.49v.86l.82.09"/><path class="cls-4" d="M10.62,2.51V1.7L9.8,1.61v.83l.82.06"/><path class="cls-6" d="M10.62,4.46V3.65l-.82,0v.83h.82"/><path class="cls-6" d="M11.06,6.73V5.94l-.82,0V6.8l.82-.07"/><path class="cls-6" d="M11.59,1.66V.88L10.77.77v.8l.82.09"/><path class="cls-4" d="M11.59,5.4V4.62h-.82v.8l.82,0"/><path class="cls-4" d="M11.59,8.21V7.43l-.82.09v.8l.82-.11"/></g></g></g></svg>