<?xml version="1.0" encoding="utf-8"?>
<!-- Generator: Adobe Illustrator 25.2.0, SVG Export Plug-In . SVG Version: 6.00 Build 0)  -->
<svg version="1.1" id="Layer_1" xmlns="http://www.w3.org/2000/svg" xmlns:xlink="http://www.w3.org/1999/xlink" x="0px" y="0px"
	 viewBox="0 0 133 32.3" style="enable-background:new 0 0 133 32.3;" xml:space="preserve">
<style type="text/css">
	.st0{fill:#FFDD00;}
	.st1{fill:#1E3E83;}
	.st2{font-family:'ArialMT';}
	.st3{font-size:7.71px;}
	.st4{font-family:'Arial-BoldMT';}
	.st5{font-size:8.91px;}
</style>
<rect id="yellow" x="5.4" y="3.3" class="st0" width="31" height="24"/>
<path id="flag" class="st1" d="M22.3,23.4l0.4,1.1h1.1l-0.9,0.7l0.3,1.1l-0.9-0.7l-0.9,0.7l0.3-1.1l-0.9-0.7h1.1L22.3,23.4z
	 M17.6,22.2l0.4,1.1h1.1l-0.9,0.7l0.3,1.1l-0.9-0.7L16.7,25l0.3-1.1l-0.9-0.7h1.1L17.6,22.2z M27,22.2l0.3,1.1h1.1l-0.9,0.7l0.3,1.1
	l-0.9-0.7L26,25l0.3-1.1l-0.9-0.7h1.1L27,22.2L27,22.2z M14.2,18.7l0.4,1.1h1.1l-0.9,0.7l0.4,1.1l-0.9-0.7l-0.9,0.7l0.3-1.1
	l-0.9-0.7h1.1L14.2,18.7L14.2,18.7z M30.4,18.7l0.4,1.1h1.1l-0.9,0.7l0.3,1.1l-0.9-0.7l-0.9,0.7l0.3-1.1l-0.9-0.7H30L30.4,18.7
	L30.4,18.7z M12.9,14l0.4,1.1h1.1l-0.9,0.7l0.3,1.1l-0.9-0.7L12,16.9l0.3-1.1l-0.9-0.7h1.1C12.6,15.1,12.9,14,12.9,14z M31.6,14
	l0.4,1.1h1.1l-0.9,0.7l0.3,1.1l-0.9-0.7l-0.9,0.7l0.3-1.1l-0.9-0.7h1.1C31.3,15.1,31.6,14,31.6,14z M14.2,9.4l0.4,1.1h1.1l-0.9,0.7
	l0.4,1.1l-0.9-0.7l-0.9,0.7l0.3-1.1l-0.9-0.7h1.1L14.2,9.4L14.2,9.4z M30.4,9.4l0.4,1.1h1.1l-0.9,0.7l0.3,1.1l-0.9-0.7l-0.9,0.7
	l0.3-1.1l-0.9-0.7H30L30.4,9.4L30.4,9.4z M27,5.9L27.3,7h1.1l-0.9,0.7l0.3,1.1L27,8.1L26,8.8l0.3-1.1L25.5,7h1.1L27,5.9L27,5.9z
	 M17.6,5.9L17.9,7h1.1l-0.9,0.7l0.3,1.1l-0.9-0.7l-0.9,0.7L17,7.7L16.1,7h1.1L17.6,5.9z M22.3,4.7l0.4,1.1h1.1l-0.9,0.7l0.3,1.1
	l-0.9-0.7l-0.9,0.7l0.3-1.1l-0.9-0.7h1.1L22.3,4.7L22.3,4.7z M0.9,29.8h42.8V1.3H0.9V29.8L0.9,29.8z"/>
<g id="text">
	<g>
		<text transform="matrix(1 0 0 1 48.42 29.82)" class="st2 st3">NextGenerationEU</text>
		<text transform="matrix(1 0 0 1 48.35 7.65)" class="st4 st5">Funded by</text>
		<text transform="matrix(1 0 0 1 48.35 18.34)" class="st4 st5">the European Union</text>
	</g>
</g>
</svg>
