<svg xmlns="http://www.w3.org/2000/svg" xmlns:xlink="http://www.w3.org/1999/xlink" viewBox="0 0 278.47 195.84"><defs><style>.cls-1{fill:#d83c65;stroke:#d83c65;}.cls-1,.cls-2,.cls-3,.cls-4{stroke-miterlimit:10;}.cls-1,.cls-2{stroke-width:2px;opacity:0.5;}.cls-2{fill:#604cc3;stroke:#604cc3;}.cls-3{fill:none;stroke-width:5px;}.cls-3,.cls-4{stroke:#000;}.cls-4{fill:url(#linear-gradient);}</style><linearGradient id="linear-gradient" x1="112.47" y1="151.6" x2="153.47" y2="151.6" gradientUnits="userSpaceOnUse"><stop offset="0" stop-color="#d83c65"/><stop offset="1" stop-color="#604cc3"/></linearGradient></defs><g id="Layer_2" data-name="Layer 2"><g id="biasvariance"><path class="cls-1" d="M22.47,8.1c3.05,13.44,23.71,97.86,106,142,56.26,30.17,110.34,24.89,130,22v15L9.75,185.68,9.47,7.1Z"/><path class="cls-2" d="M246,7.1c-3.06,13.44-23.71,97.86-106,142C83.71,179.27,29.62,174,10,171.1v15s248.93-1.33,248.72-1.42S259,6.1,259,6.1Z"/><line class="cls-3" x1="9.96" y1="17.3" x2="9.96" y2="187.1"/><polygon points="9.96 0 0 24.38 9.96 18.59 19.92 24.38 9.96 0"/><line class="cls-3" x1="260.82" y1="185.68" x2="9.47" y2="185.68"/><polygon points="278.47 185.68 253.59 175.52 259.5 185.68 253.59 195.84 278.47 185.68"/><circle class="cls-4" cx="132.97" cy="151.6" r="20.5"/></g></g></svg>