<svg xmlns="http://www.w3.org/2000/svg" viewBox="0 0 338 192.47"><defs><style>.cls-1,.cls-4{fill:#fff;}.cls-1{stroke:#d83c65;}.cls-1,.cls-2,.cls-3,.cls-4{stroke-miterlimit:10;stroke-width:2px;}.cls-2,.cls-3{fill:none;}.cls-2{stroke:#943c65;}.cls-3{stroke:#764cc3;}.cls-4{stroke:#000;}</style></defs><g id="Layer_2" data-name="Layer 2"><g id="fit"><g id="boosting"><path class="cls-1" d="M30.89,60c2-1,306.22,0,307.11,0"/><path class="cls-2" d="M289.89,191c0,3-10-102.2-80.89-102.2"/><path class="cls-2" d="M129,191c0,3,10-102.2,80.89-102.2"/><path class="cls-3" d="M119.39,191.4c0,3.45-7.38-117.61-59.52-117.61"/><path class="cls-3" d="M1,191.4C1,194.85,8.38,73.79,60.52,73.79"/></g><g id="data"><circle class="cls-4" cx="209.41" cy="88.89" r="9.6"/><circle id="_1" data-name="1" class="cls-4" cx="299.87" cy="10.6" r="9.6"/><circle id="_2" data-name="2" class="cls-4" cx="257.09" cy="109.52" r="9.6"/><circle id="_4" data-name="4" class="cls-4" cx="280.51" cy="149.12" r="9.6"/><circle id="_1-2" data-name="1" class="cls-4" cx="97.31" cy="124.45" r="9.6"/><circle id="_3" data-name="3" class="cls-4" cx="165.12" cy="111.37" r="9.6"/><circle id="_4-2" data-name="4" class="cls-4" cx="77.73" cy="83.56" r="9.6"/></g></g></g></svg>