<svg xmlns="http://www.w3.org/2000/svg" viewBox="0 0 74.86 127.47"><defs><style>.cls-1{fill:#fff;stroke:#d83c65;stroke-miterlimit:10;stroke-width:3px;}</style></defs><g id="Layer_2" data-name="Layer 2"><g id="cancer"><path class="cls-1" d="M65.8,31.26a16.55,16.55,0,0,1,1.62,8.25,16.72,16.72,0,0,1-2.65,8L51.87,67.34,38,49.31,54.49,27.88a16.07,16.07,0,0,0,1-1.54.16.16,0,0,0,0-.07,17.52,17.52,0,0,0,2.54-9.06A17.28,17.28,0,0,0,58,15.05ZM19.32,10A13.37,13.37,0,0,1,25.1,4.17,25.69,25.69,0,0,1,37.43,1.5,25.66,25.66,0,0,1,49.76,4.17,13.39,13.39,0,0,1,55.55,10h0a16.63,16.63,0,0,1-.45,15.27A21.23,21.23,0,0,0,51,21.88,24.93,24.93,0,0,0,37.43,18a24.86,24.86,0,0,0-13.54,3.88,20.91,20.91,0,0,0-4.12,3.4A16.57,16.57,0,0,1,19.32,10ZM14.79,124.39l-13-27.91L22.93,68.93l14,21.47Zm45.29,0L37.82,90.15h0L10.1,47.5a16.58,16.58,0,0,1-1-16.24l7.82-16.21a17.28,17.28,0,0,0-.13,2.16,17.67,17.67,0,0,0,2.53,9.07l0,.06a16.17,16.17,0,0,0,1.06,1.54L37.07,49.59,51.54,68.42,73.12,96.48Z"/></g></g></svg>