<svg xmlns="http://www.w3.org/2000/svg" viewBox="0 0 197.96 195.84"><defs><style>.cls-1,.cls-2,.cls-4,.cls-6{fill:none;stroke-miterlimit:10;}.cls-1{stroke:#000;stroke-width:5px;}.cls-2{stroke:#604cc3;}.cls-3{fill:#604cc3;}.cls-4{stroke:#eeccb4;}.cls-5{fill:#eeccb4;}.cls-6{stroke:#d83c65;}.cls-7{fill:#d83c65;}</style></defs><g id="Layer_2" data-name="Layer 2"><g id="trees_actual" data-name="trees actual"><line class="cls-1" x1="10.16" y1="17.65" x2="10.16" y2="185.52"/><polygon points="10.16 0 0 24.87 10.16 18.97 20.32 24.87 10.16 0"/><line class="cls-1" x1="180.31" y1="185.68" x2="8.92" y2="185.68"/><polygon points="197.96 185.68 173.09 175.52 178.99 185.68 173.09 195.84 197.96 185.68"/><g id="beigetree"><line class="cls-2" x1="32.18" y1="61.16" x2="50.53" y2="48.95"/><line class="cls-3" x1="32.18" y1="61.16" x2="50.53" y2="48.95"/><line class="cls-2" x1="50.53" y1="48.95" x2="69.37" y2="61.16"/><line class="cls-3" x1="50.53" y1="48.95" x2="69.37" y2="61.16"/><circle class="cls-3" cx="50.53" cy="48.92" r="2.84"/><path class="cls-3" d="M50.53,46.58a2.34,2.34,0,1,1-2.34,2.34,2.34,2.34,0,0,1,2.34-2.34m0-1a3.34,3.34,0,1,0,3.34,3.34,3.35,3.35,0,0,0-3.34-3.34Z"/><circle class="cls-3" cx="32.16" cy="61.14" r="2.84"/><path class="cls-3" d="M32.16,58.8a2.34,2.34,0,1,1-2.34,2.34,2.33,2.33,0,0,1,2.34-2.34m0-1a3.34,3.34,0,1,0,3.33,3.34,3.33,3.33,0,0,0-3.33-3.34Z"/><circle class="cls-3" cx="69.34" cy="61.14" r="2.84"/><path class="cls-3" d="M69.34,58.8A2.34,2.34,0,1,1,67,61.14a2.34,2.34,0,0,1,2.33-2.34m0-1a3.34,3.34,0,1,0,3.34,3.34,3.33,3.33,0,0,0-3.34-3.34Z"/><circle class="cls-3" cx="108.08" cy="48.92" r="2.84"/><path class="cls-3" d="M108.08,46.58a2.34,2.34,0,1,1-2.34,2.34,2.34,2.34,0,0,1,2.34-2.34m0-1a3.34,3.34,0,1,0,3.34,3.34,3.34,3.34,0,0,0-3.34-3.34Z"/><line class="cls-2" x1="50.43" y1="48.84" x2="85.03" y2="34.22"/><line class="cls-3" x1="50.43" y1="48.84" x2="85.03" y2="34.22"/><line class="cls-2" x1="85.03" y1="34.22" x2="108.17" y2="48.84"/><line class="cls-3" x1="85.03" y1="34.22" x2="108.17" y2="48.84"/><circle class="cls-3" cx="85.06" cy="34.22" r="2.84"/><path class="cls-3" d="M85.06,31.88a2.34,2.34,0,1,1-2.34,2.34,2.34,2.34,0,0,1,2.34-2.34m0-1a3.34,3.34,0,1,0,3.34,3.34,3.34,3.34,0,0,0-3.34-3.34Z"/></g><g id="blacktree"><line class="cls-4" x1="69.9" y1="137.49" x2="86.44" y2="126.48"/><line class="cls-5" x1="69.9" y1="137.49" x2="86.44" y2="126.48"/><line class="cls-4" x1="86.44" y1="126.48" x2="103.43" y2="137.49"/><line class="cls-5" x1="86.44" y1="126.48" x2="103.43" y2="137.49"/><path class="cls-5" d="M34.56,129a2.51,2.51,0,1,1,2.51-2.51A2.51,2.51,0,0,1,34.56,129Z"/><path class="cls-5" d="M34.56,124.44a2,2,0,1,1-2,2,2,2,0,0,1,2-2m0-1a3,3,0,1,0,3,3,3,3,0,0,0-3-3Z"/><path class="cls-5" d="M86.44,129A2.51,2.51,0,1,1,89,126.45,2.51,2.51,0,0,1,86.44,129Z"/><path class="cls-5" d="M86.44,124.44a2,2,0,1,1-2,2,2,2,0,0,1,2-2m0-1a3,3,0,1,0,3,3,3,3,0,0,0-3-3Z"/><path class="cls-5" d="M103.41,140a2.51,2.51,0,1,1,2.51-2.51A2.51,2.51,0,0,1,103.41,140Z"/><path class="cls-5" d="M103.41,135.46a2,2,0,1,1-2,2,2,2,0,0,1,2-2m0-1a3,3,0,1,0,3,3,3,3,0,0,0-3-3Z"/><path class="cls-5" d="M69.88,140a2.51,2.51,0,1,1,2.51-2.51A2.51,2.51,0,0,1,69.88,140Z"/><path class="cls-5" d="M69.88,135.46a2,2,0,1,1-2,2,2,2,0,0,1,2-2m0-1a3,3,0,1,0,3,3,3,3,0,0,0-3-3Z"/><line class="cls-4" x1="34.47" y1="126.38" x2="65.66" y2="113.2"/><line class="cls-5" x1="34.47" y1="126.38" x2="65.66" y2="113.2"/><line class="cls-4" x1="65.66" y1="113.2" x2="86.53" y2="126.38"/><line class="cls-5" x1="65.66" y1="113.2" x2="86.53" y2="126.38"/><circle class="cls-5" cx="65.69" cy="113.19" r="2.51"/><path class="cls-5" d="M65.69,111.18a2,2,0,1,1-2,2,2,2,0,0,1,2-2m0-1a3,3,0,1,0,3,3,3,3,0,0,0-3-3Z"/></g><g id="bluetree"><line class="cls-6" x1="100.18" y1="99.8" x2="117.82" y2="88.06"/><line class="cls-7" x1="100.18" y1="99.8" x2="117.82" y2="88.06"/><line class="cls-6" x1="117.82" y1="88.06" x2="135.93" y2="99.8"/><line class="cls-7" x1="117.82" y1="88.06" x2="135.93" y2="99.8"/><line class="cls-6" x1="123.98" y1="111.64" x2="135.85" y2="99.77"/><line class="cls-7" x1="123.98" y1="111.64" x2="135.85" y2="99.77"/><line class="cls-6" x1="148.21" y1="112.45" x2="135.56" y2="99.8"/><line class="cls-7" x1="148.21" y1="112.45" x2="135.56" y2="99.8"/><line class="cls-6" x1="155.49" y1="99.8" x2="173.13" y2="88.06"/><line class="cls-7" x1="155.49" y1="99.8" x2="173.13" y2="88.06"/><line class="cls-6" x1="173.13" y1="88.06" x2="191.23" y2="99.8"/><line class="cls-7" x1="173.13" y1="88.06" x2="191.23" y2="99.8"/><path class="cls-7" d="M117.82,90.74A2.71,2.71,0,1,1,120.53,88,2.72,2.72,0,0,1,117.82,90.74Z"/><path class="cls-7" d="M117.82,85.82A2.21,2.21,0,1,1,115.61,88a2.21,2.21,0,0,1,2.21-2.21m0-1A3.21,3.21,0,1,0,121,88a3.21,3.21,0,0,0-3.21-3.21Z"/><circle class="cls-7" cx="100.16" cy="99.77" r="2.71"/><path class="cls-7" d="M100.16,97.56A2.21,2.21,0,1,1,98,99.77a2.21,2.21,0,0,1,2.21-2.21m0-1a3.21,3.21,0,1,0,3.2,3.21,3.21,3.21,0,0,0-3.2-3.21Z"/><circle class="cls-7" cx="135.9" cy="99.77" r="2.71"/><path class="cls-7" d="M135.9,97.56a2.21,2.21,0,1,1-2.21,2.21,2.21,2.21,0,0,1,2.21-2.21m0-1a3.21,3.21,0,1,0,3.21,3.21,3.21,3.21,0,0,0-3.21-3.21Z"/><path class="cls-7" d="M124.84,113.49a2.71,2.71,0,1,1,2.71-2.71A2.71,2.71,0,0,1,124.84,113.49Z"/><path class="cls-7" d="M124.84,108.57a2.21,2.21,0,1,1-2.21,2.21,2.21,2.21,0,0,1,2.21-2.21m0-1a3.21,3.21,0,1,0,3.21,3.21,3.21,3.21,0,0,0-3.21-3.21Z"/><path class="cls-7" d="M146.54,113.49a2.71,2.71,0,1,1,2.71-2.71A2.72,2.72,0,0,1,146.54,113.49Z"/><path class="cls-7" d="M146.54,108.57a2.21,2.21,0,1,1-2.2,2.21,2.21,2.21,0,0,1,2.2-2.21m0-1a3.21,3.21,0,1,0,3.21,3.21,3.21,3.21,0,0,0-3.21-3.21Z"/><path class="cls-7" d="M173.13,90.74a2.71,2.71,0,1,1,2.7-2.71A2.71,2.71,0,0,1,173.13,90.74Z"/><path class="cls-7" d="M173.13,85.82A2.21,2.21,0,1,1,170.92,88a2.22,2.22,0,0,1,2.21-2.21m0-1A3.21,3.21,0,1,0,176.34,88a3.21,3.21,0,0,0-3.21-3.21Z"/><circle class="cls-7" cx="191.21" cy="99.77" r="2.71"/><path class="cls-7" d="M191.21,97.56A2.21,2.21,0,1,1,189,99.77a2.22,2.22,0,0,1,2.21-2.21m0-1a3.21,3.21,0,1,0,3.21,3.21,3.21,3.21,0,0,0-3.21-3.21Z"/><circle class="cls-7" cx="155.46" cy="99.77" r="2.71"/><path class="cls-7" d="M155.46,97.56a2.21,2.21,0,1,1-2.21,2.21,2.21,2.21,0,0,1,2.21-2.21m0-1a3.21,3.21,0,1,0,3.21,3.21,3.21,3.21,0,0,0-3.21-3.21Z"/><line class="cls-6" x1="117.72" y1="87.95" x2="150.97" y2="73.9"/><line class="cls-7" x1="117.72" y1="87.95" x2="150.97" y2="73.9"/><line class="cls-6" x1="150.97" y1="73.9" x2="173.22" y2="87.95"/><line class="cls-7" x1="150.97" y1="73.9" x2="173.22" y2="87.95"/><path class="cls-7" d="M151,76.6a2.71,2.71,0,1,1,2.71-2.7A2.71,2.71,0,0,1,151,76.6Z"/><path class="cls-7" d="M151,71.69a2.21,2.21,0,1,1-2.21,2.21A2.21,2.21,0,0,1,151,71.69m0-1a3.21,3.21,0,1,0,3.21,3.21A3.21,3.21,0,0,0,151,70.69Z"/></g></g></g></svg>