<svg xmlns="http://www.w3.org/2000/svg" viewBox="0 0 250.99 196.25"><defs><style>.cls-1{fill:none;stroke:#604cc3;}.cls-1,.cls-2{stroke-miterlimit:10;stroke-width:2px;}.cls-2{fill:#fff;stroke:#000;}</style></defs><g id="Layer_2" data-name="Layer 2"><g id="fit"><path id="overfit" class="cls-1" d="M.91,80c4.11,9.18,10.14,23,17,40,12.77,31.65,13.22,36.72,20,41,18.63,11.74,50.53-4.25,68-13,25.88-13,27.79-21.91,44-23,25.12-1.7,45.12,18.07,48,21,18.92,19.22,17.55,40.22,23,40,13.55-.57,18.67-130,19-139,.74-19.75,1-36,1-47"/><circle class="cls-2" cx="149.93" cy="125.43" r="9.6"/><circle id="_1" data-name="1" class="cls-2" cx="240.39" cy="47.13" r="9.6"/><circle id="_2" data-name="2" class="cls-2" cx="197.62" cy="146.05" r="9.6"/><circle id="_4" data-name="4" class="cls-2" cx="221.03" cy="185.65" r="9.6"/><circle id="_1-2" data-name="1" class="cls-2" cx="37.84" cy="160.98" r="9.6"/><circle id="_3" data-name="3" class="cls-2" cx="105.64" cy="147.9" r="9.6"/><circle id="_4-2" data-name="4" class="cls-2" cx="18.25" cy="120.09" r="9.6"/></g></g></svg>