<svg xmlns="http://www.w3.org/2000/svg" viewBox="0 0 276.65 171.98"><defs><style>.cls-1{fill:none;stroke:#3a9f5d;}.cls-1,.cls-2{stroke-miterlimit:10;stroke-width:2px;}.cls-2{fill:#fff;stroke:#000;}</style></defs><g id="Layer_2" data-name="Layer 2"><g id="fit"><path id="proper" class="cls-1" d="M.67,65.23a128.5,128.5,0,0,1,25,31c13.31,23.2,9.49,33.94,20,41,16.52,11.11,45.32-2.38,68-13,26.06-12.2,26.44-18.81,44-23,26.93-6.41,39.94,5.84,57,3,18.83-3.13,41.91-24.52,61-104"/><circle class="cls-2" cx="157.19" cy="101.15" r="9.6"/><circle id="_1" data-name="1" class="cls-2" cx="247.65" cy="22.86" r="9.6"/><circle id="_2" data-name="2" class="cls-2" cx="204.88" cy="121.78" r="9.6"/><circle id="_4" data-name="4" class="cls-2" cx="228.29" cy="161.38" r="9.6"/><circle id="_1-2" data-name="1" class="cls-2" cx="45.1" cy="136.71" r="9.6"/><circle id="_3" data-name="3" class="cls-2" cx="112.9" cy="123.62" r="9.6"/><circle id="_4-2" data-name="4" class="cls-2" cx="25.51" cy="95.82" r="9.6"/></g></g></svg>