<svg xmlns="http://www.w3.org/2000/svg" viewBox="0 0 192 152"><defs><style>.cls-1,.cls-3,.cls-5{fill:none;}.cls-1,.cls-8{stroke:#604cc3;}.cls-1,.cls-10,.cls-11,.cls-12,.cls-3,.cls-5,.cls-7,.cls-8,.cls-9{stroke-miterlimit:10;}.cls-1,.cls-10,.cls-3,.cls-5,.cls-7,.cls-8,.cls-9{stroke-width:3px;}.cls-2{fill:#604cc3;}.cls-10,.cls-11,.cls-3{stroke:#d83c65;}.cls-4{fill:#d83c65;}.cls-5,.cls-9{stroke:#eeccb4;}.cls-6{fill:#eeccb4;}.cls-10,.cls-11,.cls-12,.cls-7,.cls-8,.cls-9{fill:#fff;}.cls-7{stroke:#000;}.cls-12{stroke:#3a9f5d;}</style></defs><g id="Layer_2" data-name="Layer 2"><g id="split"><line class="cls-1" x1="95.5" y1="60.5" x2="40.06" y2="86.94"/><polygon class="cls-2" points="30.5 91.5 41.34 79.57 40.77 86.6 46.59 90.58 30.5 91.5"/><line class="cls-3" x1="95.5" y1="60.5" x2="95.5" y2="80.91"/><polygon class="cls-4" points="95.5 91.5 89.4 76.58 95.5 80.12 101.6 76.58 95.5 91.5"/><line class="cls-5" x1="95.5" y1="60.5" x2="150.94" y2="86.94"/><polygon class="cls-6" points="160.5 91.5 144.41 90.58 150.23 86.6 149.65 79.57 160.5 91.5"/><rect class="cls-7" x="7.5" y="1.5" width="177" height="59"/><rect class="cls-8" x="1.5" y="91.5" width="59" height="59"/><rect class="cls-9" x="131.5" y="91.5" width="59" height="59"/><rect class="cls-10" x="66.5" y="91.5" width="59" height="59"/><g id="instances"><path class="cls-11" d="M71.42,37.72a2.32,2.32,0,0,1,.23,1.16A2.44,2.44,0,0,1,71.28,40l-1.81,2.78-2-2.52,2.32-3A1.64,1.64,0,0,0,70,37h0a2.45,2.45,0,0,0,.35-1.27c0-.1,0-.2,0-.3Zm-6.52-3a1.88,1.88,0,0,1,.81-.82,4.23,4.23,0,0,1,3.46,0,1.88,1.88,0,0,1,.81.82h0a2.2,2.2,0,0,1,.23,1,2.32,2.32,0,0,1-.29,1.13,3.24,3.24,0,0,0-.58-.47,3.56,3.56,0,0,0-3.8,0,4.24,4.24,0,0,0-.58.47,2.34,2.34,0,0,1-.06-2.14Zm-.63,16-1.83-3.92,3-3.86,2,3Zm6.35,0L67.5,46h0l-3.89-6a2.23,2.23,0,0,1-.37-1.12,2.32,2.32,0,0,1,.22-1.16l1.1-2.27c0,.1,0,.2,0,.3A2.46,2.46,0,0,0,64.9,37h0l.15.22,2.34,3,2,2.65,3,3.93Z"/><path class="cls-12" d="M128.54,37.72a2.32,2.32,0,0,1,.22,1.16,2.23,2.23,0,0,1-.37,1.12l-1.81,2.78-1.94-2.52,2.31-3,.15-.22h0a2.46,2.46,0,0,0,.36-1.27c0-.1,0-.2,0-.3Zm-6.52-3a1.88,1.88,0,0,1,.81-.82,4.23,4.23,0,0,1,3.46,0,1.88,1.88,0,0,1,.81.82h0a2.34,2.34,0,0,1-.06,2.14,4.24,4.24,0,0,0-.58-.47,3.56,3.56,0,0,0-3.8,0,3.24,3.24,0,0,0-.58.47,2.32,2.32,0,0,1-.29-1.13A2.2,2.2,0,0,1,122,34.74Zm-.64,16-1.83-3.92,3-3.86,2,3Zm6.35,0L124.61,46h0l-3.89-6a2.44,2.44,0,0,1-.37-1.12,2.32,2.32,0,0,1,.23-1.16l1.09-2.27c0,.1,0,.2,0,.3A2.45,2.45,0,0,0,122,37h0a1.64,1.64,0,0,0,.14.22l2.35,3,2,2.65,3,3.93Z"/><path class="cls-12" d="M90.46,37.72A2.32,2.32,0,0,1,90.32,40l-1.81,2.78-2-2.52,2.31-3A1.07,1.07,0,0,0,89,37h0a2.45,2.45,0,0,0,.35-1.27,1.51,1.51,0,0,0,0-.3Zm-6.52-3a1.88,1.88,0,0,1,.81-.82,4.23,4.23,0,0,1,3.46,0,1.88,1.88,0,0,1,.81.82h0A2.34,2.34,0,0,1,89,36.88a3.24,3.24,0,0,0-.58-.47,3.56,3.56,0,0,0-3.8,0,3.68,3.68,0,0,0-.58.47,2.34,2.34,0,0,1-.06-2.14Zm-.64,16-1.83-3.92,3-3.86,2,3Zm6.36,0L86.54,46h0l-3.88-6a2.34,2.34,0,0,1-.38-1.12,2.44,2.44,0,0,1,.23-1.16l1.1-2.27c0,.1,0,.2,0,.3A2.45,2.45,0,0,0,83.93,37h0a1.7,1.7,0,0,0,.15.22l2.34,3,2,2.65,3,3.93Z"/><path class="cls-11" d="M109.5,37.72a2.44,2.44,0,0,1,.23,1.16,2.34,2.34,0,0,1-.38,1.12l-1.8,2.78-2-2.52,2.31-3a1.7,1.7,0,0,0,.15-.22h0a2.45,2.45,0,0,0,.35-1.27c0-.1,0-.2,0-.3Zm-6.52-3a1.88,1.88,0,0,1,.81-.82,4.23,4.23,0,0,1,3.46,0,1.88,1.88,0,0,1,.81.82h0a2.34,2.34,0,0,1-.06,2.14,3.68,3.68,0,0,0-.58-.47,3.56,3.56,0,0,0-3.8,0,3.24,3.24,0,0,0-.58.47,2.34,2.34,0,0,1-.06-2.14Zm-.64,16-1.83-3.92,3-3.86,2,3Zm6.36,0L105.57,46h0l-3.89-6a2.32,2.32,0,0,1-.14-2.28l1.1-2.27a1.51,1.51,0,0,0,0,.3A2.45,2.45,0,0,0,103,37h0a1.07,1.07,0,0,0,.15.22l2.34,3,2,2.65,3,3.93Z"/><path class="cls-12" d="M100,15.39a2.29,2.29,0,0,1-.15,2.28L98,20.45l-2-2.53,2.31-3a1.37,1.37,0,0,0,.15-.21h0a2.48,2.48,0,0,0,.35-1.27,1.56,1.56,0,0,0,0-.31Zm-6.52-3a1.83,1.83,0,0,1,.81-.82,4.13,4.13,0,0,1,3.46,0,1.83,1.83,0,0,1,.81.82h0a2.33,2.33,0,0,1,.23,1,2.38,2.38,0,0,1-.29,1.13,2.8,2.8,0,0,0-.58-.48,3.61,3.61,0,0,0-3.8,0,2.8,2.8,0,0,0-.58.48,2.38,2.38,0,0,1-.29-1.13A2.33,2.33,0,0,1,93.46,12.41Zm-.64,16L91,24.54l3-3.87,2,3Zm6.36,0-3.13-4.8h0l-3.88-6A2.29,2.29,0,0,1,92,15.39l1.1-2.28a1.56,1.56,0,0,0,0,.31,2.48,2.48,0,0,0,.35,1.27h0a1.37,1.37,0,0,0,.15.21L96,18l2,2.64,3,3.94Z"/><path class="cls-12" d="M138.06,15.39a2.36,2.36,0,0,1-.15,2.28l-1.81,2.78-1.94-2.53,2.31-3,.15-.21h0a2.49,2.49,0,0,0,.36-1.27,3,3,0,0,0,0-.31Zm-6.52-3a1.83,1.83,0,0,1,.81-.82,3.55,3.55,0,0,1,1.73-.38,3.6,3.6,0,0,1,1.73.38,1.83,1.83,0,0,1,.81.82h0a2.33,2.33,0,0,1,.23,1,2.28,2.28,0,0,1-.3,1.13,3,3,0,0,0-.57-.48,3.61,3.61,0,0,0-3.8,0,2.8,2.8,0,0,0-.58.48,2.39,2.39,0,0,1-.3-1.13A2.21,2.21,0,0,1,131.54,12.41Zm-.64,16-1.83-3.91,3-3.87,2,3Zm6.35,0-3.12-4.8h0l-3.89-6a2.4,2.4,0,0,1-.37-1.12,2.32,2.32,0,0,1,.23-1.16l1.09-2.28a3,3,0,0,0,0,.31,2.49,2.49,0,0,0,.36,1.27h0l.14.21L134,18l2,2.64,3,3.94Z"/><path class="cls-11" d="M119,15.39a2.36,2.36,0,0,1-.15,2.28l-1.81,2.78-1.94-2.53,2.31-3,.15-.21h0a2.4,2.4,0,0,0,.36-1.27,3,3,0,0,0,0-.31Zm-6.52-3a1.83,1.83,0,0,1,.81-.82,4.13,4.13,0,0,1,3.46,0,1.83,1.83,0,0,1,.81.82h0a2.33,2.33,0,0,1,.23,1,2.38,2.38,0,0,1-.29,1.13,3.12,3.12,0,0,0-.58-.48,3.61,3.61,0,0,0-3.8,0,2.8,2.8,0,0,0-.58.48,2.38,2.38,0,0,1-.29-1.13A2.33,2.33,0,0,1,112.5,12.41Zm-.64,16L110,24.54l3-3.87,2,3Zm6.35,0-3.12-4.8h0l-3.89-6a2.52,2.52,0,0,1-.37-1.12,2.44,2.44,0,0,1,.23-1.16l1.1-2.28a1.56,1.56,0,0,0,0,.31,2.48,2.48,0,0,0,.35,1.27h0a1.37,1.37,0,0,0,.15.21L115,18l2,2.64,3,3.94Z"/><path class="cls-12" d="M80.94,15.39a2.44,2.44,0,0,1,.23,1.16,2.52,2.52,0,0,1-.37,1.12L79,20.45,77,17.92l2.31-3a1.37,1.37,0,0,0,.15-.21h0a2.48,2.48,0,0,0,.35-1.27,1.56,1.56,0,0,0,0-.31Zm-6.52-3a1.83,1.83,0,0,1,.81-.82,4.13,4.13,0,0,1,3.46,0,1.83,1.83,0,0,1,.81.82h0a2.33,2.33,0,0,1,.23,1,2.38,2.38,0,0,1-.29,1.13,2.8,2.8,0,0,0-.58-.48,3.61,3.61,0,0,0-3.8,0,3.12,3.12,0,0,0-.58.48,2.38,2.38,0,0,1-.29-1.13A2.33,2.33,0,0,1,74.42,12.41Zm-.63,16L72,24.54l3-3.87,1.95,3Zm6.35,0L77,23.65h0l-3.89-6A2.36,2.36,0,0,1,73,15.39l1.1-2.28a3,3,0,0,0,0,.31,2.4,2.4,0,0,0,.36,1.27h0l.15.21L76.91,18l2,2.64,3,3.94Z"/><path class="cls-12" d="M61.9,15.39a2.32,2.32,0,0,1,.23,1.16,2.4,2.4,0,0,1-.37,1.12L60,20.45l-2-2.53,2.32-3c0-.07.1-.14.14-.21h0a2.49,2.49,0,0,0,.36-1.27,3,3,0,0,0,0-.31Zm-6.52-3a1.83,1.83,0,0,1,.81-.82,3.6,3.6,0,0,1,1.73-.38,3.55,3.55,0,0,1,1.73.38,1.83,1.83,0,0,1,.81.82h0a2.21,2.21,0,0,1,.24,1,2.39,2.39,0,0,1-.3,1.13,2.8,2.8,0,0,0-.58-.48,3.61,3.61,0,0,0-3.8,0,3,3,0,0,0-.57.48,2.28,2.28,0,0,1-.3-1.13A2.33,2.33,0,0,1,55.38,12.41Zm-.63,16-1.83-3.91,3-3.87,2,3Zm6.35,0L58,23.65h0l-3.89-6a2.36,2.36,0,0,1-.15-2.28L55,13.11a3,3,0,0,0,0,.31,2.49,2.49,0,0,0,.36,1.27h0l.15.21L57.87,18l2,2.64,3,3.94Z"/><path class="cls-12" d="M152.89,117.22a2.07,2.07,0,0,1,.19,1,2,2,0,0,1-.32,1l-1.54,2.36-1.65-2.15,2-2.55.12-.19h0a2.14,2.14,0,0,0,.3-1.08,2.46,2.46,0,0,0,0-.26Zm-5.55-2.54A1.58,1.58,0,0,1,148,114a3.54,3.54,0,0,1,2.94,0,1.58,1.58,0,0,1,.69.69h0a2,2,0,0,1,.2.86,2.06,2.06,0,0,1-.25,1,2.36,2.36,0,0,0-.49-.41,3.08,3.08,0,0,0-3.24,0,2.36,2.36,0,0,0-.49.41,2.06,2.06,0,0,1-.25-1A2,2,0,0,1,147.34,114.68Zm-.54,13.65L145.24,125l2.53-3.29,1.66,2.57Zm5.4,0-2.65-4.08h0l-3.31-5.09a2,2,0,0,1-.32-1,2.07,2.07,0,0,1,.19-1l.94-1.94a2.46,2.46,0,0,0,0,.26,2.14,2.14,0,0,0,.3,1.08h0l.12.19,2,2.59,1.72,2.24,2.58,3.35Z"/><path class="cls-12" d="M175.89,117.22a2.07,2.07,0,0,1,.19,1,2,2,0,0,1-.32,1l-1.54,2.36-1.65-2.15,2-2.55.12-.19h0a2.14,2.14,0,0,0,.3-1.08,2.46,2.46,0,0,0,0-.26Zm-5.55-2.54A1.58,1.58,0,0,1,171,114a3.54,3.54,0,0,1,2.94,0,1.58,1.58,0,0,1,.69.69h0a2,2,0,0,1,.2.86,2.06,2.06,0,0,1-.25,1,2.36,2.36,0,0,0-.49-.41,3.08,3.08,0,0,0-3.24,0,2.36,2.36,0,0,0-.49.41,2.06,2.06,0,0,1-.25-1A2,2,0,0,1,170.34,114.68Zm-.54,13.65L168.24,125l2.53-3.29,1.66,2.57Zm5.4,0-2.65-4.08h0l-3.31-5.09a2,2,0,0,1-.32-1,2.07,2.07,0,0,1,.19-1l.94-1.94a2.46,2.46,0,0,0,0,.26,2.14,2.14,0,0,0,.3,1.08h0l.12.19,2,2.59,1.72,2.24,2.58,3.35Z"/><path class="cls-11" d="M163.78,116.88a1.93,1.93,0,0,1,.27,1,2,2,0,0,1-.24,1l-1.36,2.48-1.81-2,1.77-2.7.11-.19h0a2.22,2.22,0,0,0,.19-1.36Zm-5.72-2.11a1.69,1.69,0,0,1,.64-.75,3.52,3.52,0,0,1,2.93-.22,1.62,1.62,0,0,1,.74.64h0a2,2,0,0,1,.26.84,1.92,1.92,0,0,1-.17,1,2.7,2.7,0,0,0-.52-.36,2.92,2.92,0,0,0-1.65-.34,2.89,2.89,0,0,0-1.58.58,2.46,2.46,0,0,0-.46.44,2.07,2.07,0,0,1-.32-.94A2,2,0,0,1,158.06,114.77Zm.5,13.65-1.81-3.2,2.27-3.47,1.86,2.43ZM164,128l-3-3.87h0l-3.69-4.83a2,2,0,0,1-.38-.92,2,2,0,0,1,.11-1l.79-2a1.13,1.13,0,0,0,0,.26,2.13,2.13,0,0,0,.38,1.06h0l.14.18,2.18,2.43,1.89,2.11,2.83,3.14Z"/><path class="cls-12" d="M87.89,117.22a2.07,2.07,0,0,1,.19,1,2,2,0,0,1-.32,1l-1.54,2.36-1.65-2.15,2-2.55.12-.19h0a2.14,2.14,0,0,0,.3-1.08,2.46,2.46,0,0,0,0-.26Zm-5.55-2.54A1.58,1.58,0,0,1,83,114,3.54,3.54,0,0,1,86,114a1.58,1.58,0,0,1,.69.69h0a2,2,0,0,1,.2.86,2.06,2.06,0,0,1-.25,1,2.36,2.36,0,0,0-.49-.41,3.08,3.08,0,0,0-3.24,0,2.36,2.36,0,0,0-.49.41,2.06,2.06,0,0,1-.25-1A2,2,0,0,1,82.34,114.68Zm-.54,13.65L80.24,125l2.53-3.29,1.66,2.57Zm5.4,0-2.65-4.08h0l-3.31-5.09a2,2,0,0,1-.32-1,2.07,2.07,0,0,1,.19-1l.94-1.94a2.46,2.46,0,0,0,0,.26,2.14,2.14,0,0,0,.3,1.08h0l.12.19,2,2.59,1.72,2.24L88.76,125Z"/><path class="cls-12" d="M110.89,117.22a2.07,2.07,0,0,1,.19,1,2,2,0,0,1-.32,1l-1.54,2.36-1.65-2.15,2-2.55.12-.19h0a2.14,2.14,0,0,0,.3-1.08,2.46,2.46,0,0,0,0-.26Zm-5.55-2.54A1.58,1.58,0,0,1,106,114a3.54,3.54,0,0,1,2.94,0,1.58,1.58,0,0,1,.69.69h0a2,2,0,0,1,.2.86,2.06,2.06,0,0,1-.25,1,2.36,2.36,0,0,0-.49-.41,3.08,3.08,0,0,0-3.24,0,2.36,2.36,0,0,0-.49.41,2.06,2.06,0,0,1-.25-1A2,2,0,0,1,105.34,114.68Zm-.54,13.65L103.24,125l2.53-3.29,1.66,2.57Zm5.4,0-2.65-4.08h0l-3.31-5.09a2,2,0,0,1-.32-1,2.07,2.07,0,0,1,.19-1l.94-1.94a2.46,2.46,0,0,0,0,.26,2.14,2.14,0,0,0,.3,1.08h0l.12.19,2,2.59,1.72,2.24,2.58,3.35Z"/><path class="cls-11" d="M98.78,116.88a1.93,1.93,0,0,1,.27,1,2,2,0,0,1-.24,1l-1.36,2.48-1.81-2,1.77-2.7.11-.19h0a2.22,2.22,0,0,0,.19-1.36Zm-5.72-2.11a1.69,1.69,0,0,1,.64-.75,3.52,3.52,0,0,1,2.93-.22,1.62,1.62,0,0,1,.74.64h0a2,2,0,0,1,.26.84,1.92,1.92,0,0,1-.17,1,2.7,2.7,0,0,0-.52-.36,2.92,2.92,0,0,0-1.65-.34,2.89,2.89,0,0,0-1.58.58,2.46,2.46,0,0,0-.46.44,2.07,2.07,0,0,1-.32-.94A2,2,0,0,1,93.06,114.77Zm.5,13.65-1.81-3.2L94,121.75l1.86,2.43ZM99,128l-3-3.87h0l-3.69-4.83a2,2,0,0,1-.38-.92,2,2,0,0,1,.11-1l.79-2a1.13,1.13,0,0,0,0,.26,2.13,2.13,0,0,0,.38,1.06h0l.14.18,2.18,2.43,1.89,2.11,2.83,3.14Z"/><path class="cls-12" d="M22.89,117.22a2.07,2.07,0,0,1,.19,1,2,2,0,0,1-.32,1l-1.54,2.36-1.65-2.15,2-2.55.12-.19h0a2.14,2.14,0,0,0,.3-1.08,2.46,2.46,0,0,0,0-.26Zm-5.55-2.54A1.58,1.58,0,0,1,18,114a3.08,3.08,0,0,1,1.47-.32A3.08,3.08,0,0,1,21,114a1.58,1.58,0,0,1,.69.69h0a2,2,0,0,1,.2.86,2.06,2.06,0,0,1-.25,1,2.36,2.36,0,0,0-.49-.41,3.08,3.08,0,0,0-3.24,0,2.36,2.36,0,0,0-.49.41,2.06,2.06,0,0,1-.25-1A2,2,0,0,1,17.34,114.68Zm-.54,13.65L15.24,125l2.53-3.29,1.66,2.57Zm5.4,0-2.65-4.08h0l-3.31-5.09a2,2,0,0,1-.32-1,2.07,2.07,0,0,1,.19-1l.94-1.94a2.46,2.46,0,0,0,0,.26,2.14,2.14,0,0,0,.3,1.08h0l.12.19,2,2.59,1.72,2.24L23.76,125Z"/><path class="cls-12" d="M45.89,117.22a2.07,2.07,0,0,1,.19,1,2,2,0,0,1-.32,1l-1.54,2.36-1.65-2.15,2-2.55.12-.19h0a2.14,2.14,0,0,0,.3-1.08,2.46,2.46,0,0,0,0-.26Zm-5.55-2.54A1.58,1.58,0,0,1,41,114,3.54,3.54,0,0,1,44,114a1.58,1.58,0,0,1,.69.69h0a2,2,0,0,1,.2.86,2.06,2.06,0,0,1-.25,1,2.36,2.36,0,0,0-.49-.41,3.08,3.08,0,0,0-3.24,0,2.36,2.36,0,0,0-.49.41,2.06,2.06,0,0,1-.25-1A2,2,0,0,1,40.34,114.68Zm-.54,13.65L38.24,125l2.53-3.29,1.66,2.57Zm5.4,0-2.65-4.08h0l-3.31-5.09a2,2,0,0,1-.32-1,2.07,2.07,0,0,1,.19-1l.94-1.94a2.46,2.46,0,0,0,0,.26,2.14,2.14,0,0,0,.3,1.08h0l.12.19,2,2.59,1.72,2.24L46.76,125Z"/><path class="cls-11" d="M33.78,116.88a1.93,1.93,0,0,1,.27,1,2,2,0,0,1-.24,1l-1.36,2.48-1.81-2,1.77-2.7.11-.19h0a2.22,2.22,0,0,0,.19-1.36Zm-5.72-2.11a1.69,1.69,0,0,1,.64-.75,3.52,3.52,0,0,1,2.93-.22,1.62,1.62,0,0,1,.74.64h0a2,2,0,0,1,.26.84,1.92,1.92,0,0,1-.17,1,2.7,2.7,0,0,0-.52-.36,2.92,2.92,0,0,0-1.65-.34,2.89,2.89,0,0,0-1.58.58,2.46,2.46,0,0,0-.46.44,2.07,2.07,0,0,1-.32-.94A2,2,0,0,1,28.06,114.77Zm.5,13.65-1.81-3.2L29,121.75l1.86,2.43ZM34,128l-3-3.87h0l-3.69-4.83a2,2,0,0,1-.38-.92,2,2,0,0,1,.11-1l.79-2a1.13,1.13,0,0,0,0,.26,2.13,2.13,0,0,0,.38,1.06h0l.14.18,2.18,2.43,1.89,2.11,2.83,3.14Z"/></g></g></g></svg>