<svg xmlns="http://www.w3.org/2000/svg" viewBox="0 0 1344.99 597.53"><defs><style>.cls-1{fill:none;stroke:#000;stroke-miterlimit:10;stroke-width:8px;}.cls-2{fill:#fff;}.cls-3{fill:#a6d189;}.cls-4{fill:#eebebe;}</style></defs><g id="Layer_2" data-name="Layer 2"><g id="Layer_1-2" data-name="Layer 1"><g id="edges"><line class="cls-1" x1="73.15" y1="366.05" x2="243.15" y2="195.05"/><line x1="73.15" y1="366.05" x2="243.15" y2="195.05"/><line class="cls-1" x1="243.15" y1="195.05" x2="652.15" y2="63.05"/><line x1="243.15" y1="195.05" x2="652.15" y2="63.05"/><line class="cls-1" x1="652.15" y1="63.05" x2="1000.15" y2="195.05"/><line x1="652.15" y1="63.05" x2="1000.15" y2="195.05"/><line class="cls-1" x1="243.15" y1="195.05" x2="409.15" y2="366.05"/><line x1="243.15" y1="195.05" x2="409.15" y2="366.05"/><line class="cls-1" x1="297.02" y1="477.01" x2="408.73" y2="365.31"/><line x1="297.02" y1="477.01" x2="408.73" y2="365.31"/><line class="cls-1" x1="525.1" y1="484.62" x2="407.58" y2="364.37"/><line x1="525.1" y1="484.62" x2="407.58" y2="364.37"/><line class="cls-1" x1="847.15" y1="356.05" x2="1000.15" y2="195.05"/><line x1="847.15" y1="356.05" x2="1000.15" y2="195.05"/><line class="cls-1" x1="1000.15" y1="195.05" x2="1174.15" y2="366.05"/><line x1="1000.15" y1="195.05" x2="1174.15" y2="366.05"/><line class="cls-1" x1="1069.15" y1="534.05" x2="1174.15" y2="365.05"/><line x1="1069.15" y1="534.05" x2="1174.15" y2="365.05"/><line class="cls-1" x1="1282.15" y1="534.05" x2="1173.15" y2="365.05"/><line x1="1282.15" y1="534.05" x2="1173.15" y2="365.05"/></g><g id="nodes"><circle class="cls-2" cx="242.71" cy="195.54" r="60.52" transform="translate(-3.36 386.83) rotate(-76.72)"/><path d="M242.71,137.52a58,58,0,1,1-58,58,58.09,58.09,0,0,1,58-58m0-5a63,63,0,1,0,63,63,63,63,0,0,0-63-63Z"/><circle class="cls-3" cx="652.56" cy="63.02" r="60.52"/><path d="M652.56,5a58,58,0,1,1-58,58,58.09,58.09,0,0,1,58-58m0-5a63,63,0,1,0,63,63,63,63,0,0,0-63-63Z"/><circle class="cls-4" cx="63.02" cy="359.47" r="60.52" transform="translate(-235.73 149.85) rotate(-45)"/><path d="M63,301.45a58,58,0,1,1-58,58,58.08,58.08,0,0,1,58-58m0-5a63,63,0,1,0,63,63,63,63,0,0,0-63-63Z"/><circle class="cls-2" cx="409.02" cy="359.47" r="60.52" transform="translate(-134.38 394.51) rotate(-45)"/><path d="M409,301.45a58,58,0,1,1-58,58,58.09,58.09,0,0,1,58-58m0-5a63,63,0,1,0,63,63,63,63,0,0,0-63-63Z"/><circle class="cls-4" cx="291.6" cy="534.51" r="60.52" transform="translate(-282.72 736.73) rotate(-80.78)"/><path d="M291.6,476.49a58,58,0,1,1-58,58,58.09,58.09,0,0,1,58-58m0-5a63,63,0,1,0,63,63,63,63,0,0,0-63-63Z"/><circle class="cls-4" cx="529.68" cy="534.51" r="60.52" transform="translate(-82.77 971.74) rotate(-80.78)"/><path d="M529.68,476.49a58,58,0,1,1-58,58,58.09,58.09,0,0,1,58-58m0-5a63,63,0,1,0,63,63,63,63,0,0,0-63-63Z"/><path class="cls-2" d="M1000.29,256.06a60.52,60.52,0,1,1,60.52-60.52A60.59,60.59,0,0,1,1000.29,256.06Z"/><path d="M1000.29,137.52a58,58,0,1,1-58,58,58.09,58.09,0,0,1,58-58m0-5a63,63,0,1,0,63,63,63,63,0,0,0-63-63Z"/><circle class="cls-2" cx="1173.04" cy="359.47" r="60.52"/><path d="M1173,301.45a58,58,0,1,1-58,58,58.09,58.09,0,0,1,58-58m0-5a63,63,0,1,0,63,63,63,63,0,0,0-63-63Z"/><path class="cls-4" d="M1068.89,595a60.52,60.52,0,1,1,60.52-60.52A60.59,60.59,0,0,1,1068.89,595Z"/><path d="M1068.89,476.49a58,58,0,1,1-58,58,58.09,58.09,0,0,1,58-58m0-5a63,63,0,1,0,63,63,63,63,0,0,0-63-63Z"/><path class="cls-4" d="M1282,595a60.52,60.52,0,1,1,60.52-60.52A60.59,60.59,0,0,1,1282,595Z"/><path d="M1282,476.49a58,58,0,1,1-58,58,58.09,58.09,0,0,1,58-58m0-5a63,63,0,1,0,63,63,63,63,0,0,0-63-63Z"/><circle class="cls-2" cx="846.82" cy="359.47" r="60.52"/><path d="M846.82,301.45a58,58,0,1,1-58,58,58.08,58.08,0,0,1,58-58m0-5a63,63,0,1,0,63,63,63,63,0,0,0-63-63Z"/></g><g id="ids"><path d="M645.46,67.18h6.44V50.8h-5V48.91a16,16,0,0,0,5.74-1.65h2.17V67.18h5.81V69.6H645.46Z"/><path d="M1177.84,346.24H1165v-2.52h16.18v1.78c-5.92,6.76-7.35,11.8-7.71,20.55h-3C1170.8,357.61,1172.76,352.47,1177.84,346.24Z"/><path d="M400.48,363.42l1.44-1.92a8.87,8.87,0,0,0,6.3,2.55c3.11,0,5.63-2,5.63-5.07s-2.17-4.87-5.46-4.87a8.39,8.39,0,0,0-4.55,1.33l-1.54-1,.74-10.74h12.63v2.52H405.59l-.59,6.58a9.55,9.55,0,0,1,4.13-.91c4.27,0,7.66,2.17,7.66,7s-4,7.56-8.26,7.56A11.23,11.23,0,0,1,400.48,363.42Z"/><path d="M1051.29,538.67h6.44V522.29h-5V520.4a16.19,16.19,0,0,0,5.74-1.64h2.17v19.91h5.81v2.42h-15.16Z"/><path d="M1081.78,525.72c0-1.22.1-2.73.17-4h-.17c-.74,1.08-1.54,2.17-2.28,3.25l-6,7.56H1088v2.35h-17.71V533l11.13-14.24h3.12v22.33h-2.73Z"/><path d="M234.77,200.4c7.56-6.68,11.69-10.6,11.69-14.31,0-2.56-1.54-4.34-4.83-4.34a7.71,7.71,0,0,0-5.36,2.66l-1.68-1.65a10,10,0,0,1,7.39-3.39c4.48,0,7.28,2.62,7.28,6.58,0,4.2-4.2,8.36-10.26,13.86,1.4-.11,2.84-.18,4.17-.18h7.31v2.49H234.77Z"/><path d="M65.4,350.68c0-1.22.1-2.73.17-3.95H65.4c-.74,1.08-1.54,2.17-2.28,3.25l-6,7.56H71.59v2.35H53.88V358L65,343.72h3.12v22.33H65.4Z"/><path d="M1264.37,538.67h6.44V522.29h-5V520.4a16.06,16.06,0,0,0,5.74-1.64h2.17v19.91h5.81v2.42h-15.15Z"/><path d="M1283.93,538.46l1.44-1.92a8.87,8.87,0,0,0,6.3,2.55c3.11,0,5.63-2,5.63-5.07s-2.17-4.87-5.46-4.87a8.39,8.39,0,0,0-4.55,1.33l-1.54-1,.74-10.74h12.63v2.52H1289l-.59,6.58a9.55,9.55,0,0,1,4.13-.91c4.27,0,7.66,2.17,7.66,7s-4,7.56-8.26,7.56A11.23,11.23,0,0,1,1283.93,538.46Z"/><path d="M991.78,199.39l1.47-1.89a9,9,0,0,0,6.41,2.62c3.05,0,5.32-1.57,5.32-4.06,0-2.66-2.24-4.44-8.09-4.44v-2.21c5.29,0,7.32-1.82,7.32-4.16,0-2.14-1.85-3.5-4.55-3.5a8.42,8.42,0,0,0-5.5,2.24l-1.54-1.82a10.84,10.84,0,0,1,7.14-2.8c4.21,0,7.39,2.06,7.39,5.67,0,2.69-2,4.41-4.76,5.32v.14c3,.63,5.53,2.59,5.53,5.67,0,4-3.64,6.37-8.09,6.37A10.94,10.94,0,0,1,991.78,199.39Z"/><path d="M839,355.72c0-9,4.48-12.42,9.35-12.42a8.85,8.85,0,0,1,6.23,2.38L853,347.5a6.59,6.59,0,0,0-4.45-1.79c-3.64,0-6.79,2.56-6.79,10,0,5.5,2.1,8.47,5.81,8.47a4.63,4.63,0,0,0,4.69-4.9c0-3-1.64-4.72-4.72-4.72a7.82,7.82,0,0,0-5.85,3.15l-.1-2.28a9.45,9.45,0,0,1,6.47-3c4.13,0,7,2.31,7,6.89a7.21,7.21,0,0,1-7.46,7.18C842.69,366.47,839,362.9,839,355.72Z"/><path d="M512.08,538.67h6.44V522.29h-5V520.4a16.19,16.19,0,0,0,5.74-1.64h2.17v19.91h5.81v2.42H512.08Z"/><path d="M533.08,538.67h6.44V522.29h-5V520.4a16.19,16.19,0,0,0,5.74-1.64h2.17v19.91h5.81v2.42H533.08Z"/><path d="M274,538.67h6.44V522.29h-5V520.4a16.06,16.06,0,0,0,5.74-1.64h2.17v19.91h5.81v2.42H274Z"/><path d="M294.09,529.85c0-7.49,3-11.51,8-11.51s8,4,8,11.51-3.05,11.66-8,11.66S294.09,537.27,294.09,529.85Zm13.33,0c0-6.4-2.2-9.17-5.32-9.17s-5.32,2.77-5.32,9.17,2.21,9.31,5.32,9.31S307.42,536.26,307.42,529.85Zm-7.49-.24A2.18,2.18,0,1,1,302.1,532,2.17,2.17,0,0,1,299.93,529.61Z"/></g></g></g></svg>