<svg xmlns="http://www.w3.org/2000/svg" viewBox="0 0 1344.99 597.53"><defs><style>.cls-1{fill:none;stroke:#000;stroke-miterlimit:10;stroke-width:8px;}.cls-2{fill:#fff;}.cls-3{fill:#a6d189;}.cls-4{fill:#eebebe;}</style></defs><g id="Layer_2" data-name="Layer 2"><g id="Layer_1-2" data-name="Layer 1"><g id="edges"><line class="cls-1" x1="73.15" y1="366.05" x2="243.15" y2="195.05"/><line x1="73.15" y1="366.05" x2="243.15" y2="195.05"/><line class="cls-1" x1="243.15" y1="195.05" x2="652.15" y2="63.05"/><line x1="243.15" y1="195.05" x2="652.15" y2="63.05"/><line class="cls-1" x1="652.15" y1="63.05" x2="1000.15" y2="195.05"/><line x1="652.15" y1="63.05" x2="1000.15" y2="195.05"/><line class="cls-1" x1="243.15" y1="195.05" x2="409.15" y2="366.05"/><line x1="243.15" y1="195.05" x2="409.15" y2="366.05"/><line class="cls-1" x1="297.02" y1="477.01" x2="408.73" y2="365.31"/><line x1="297.02" y1="477.01" x2="408.73" y2="365.31"/><line class="cls-1" x1="525.1" y1="484.62" x2="407.58" y2="364.37"/><line x1="525.1" y1="484.62" x2="407.58" y2="364.37"/><line class="cls-1" x1="847.15" y1="356.05" x2="1000.15" y2="195.05"/><line x1="847.15" y1="356.05" x2="1000.15" y2="195.05"/><line class="cls-1" x1="1000.15" y1="195.05" x2="1174.15" y2="366.05"/><line x1="1000.15" y1="195.05" x2="1174.15" y2="366.05"/><line class="cls-1" x1="1069.15" y1="534.05" x2="1174.15" y2="365.05"/><line x1="1069.15" y1="534.05" x2="1174.15" y2="365.05"/><line class="cls-1" x1="1282.15" y1="534.05" x2="1173.15" y2="365.05"/><line x1="1282.15" y1="534.05" x2="1173.15" y2="365.05"/></g><g id="nodes"><circle class="cls-2" cx="242.71" cy="195.54" r="60.52" transform="translate(-3.36 386.83) rotate(-76.72)"/><path d="M242.71,137.52a58,58,0,1,1-58,58,58.09,58.09,0,0,1,58-58m0-5a63,63,0,1,0,63,63,63,63,0,0,0-63-63Z"/><circle class="cls-3" cx="652.56" cy="63.02" r="60.52"/><path d="M652.56,5a58,58,0,1,1-58,58,58.09,58.09,0,0,1,58-58m0-5a63,63,0,1,0,63,63,63,63,0,0,0-63-63Z"/><circle class="cls-4" cx="63.02" cy="359.47" r="60.52" transform="translate(-235.73 149.85) rotate(-45)"/><path d="M63,301.45a58,58,0,1,1-58,58,58.08,58.08,0,0,1,58-58m0-5a63,63,0,1,0,63,63,63,63,0,0,0-63-63Z"/><circle class="cls-2" cx="409.02" cy="359.47" r="60.52" transform="translate(-134.38 394.51) rotate(-45)"/><path d="M409,301.45a58,58,0,1,1-58,58,58.09,58.09,0,0,1,58-58m0-5a63,63,0,1,0,63,63,63,63,0,0,0-63-63Z"/><circle class="cls-4" cx="291.6" cy="534.51" r="60.52" transform="translate(-282.72 736.73) rotate(-80.78)"/><path d="M291.6,476.49a58,58,0,1,1-58,58,58.09,58.09,0,0,1,58-58m0-5a63,63,0,1,0,63,63,63,63,0,0,0-63-63Z"/><circle class="cls-4" cx="529.68" cy="534.51" r="60.52" transform="translate(-82.77 971.74) rotate(-80.78)"/><path d="M529.68,476.49a58,58,0,1,1-58,58,58.09,58.09,0,0,1,58-58m0-5a63,63,0,1,0,63,63,63,63,0,0,0-63-63Z"/><path class="cls-2" d="M1000.29,256.06a60.52,60.52,0,1,1,60.52-60.52A60.59,60.59,0,0,1,1000.29,256.06Z"/><path d="M1000.29,137.52a58,58,0,1,1-58,58,58.09,58.09,0,0,1,58-58m0-5a63,63,0,1,0,63,63,63,63,0,0,0-63-63Z"/><circle class="cls-2" cx="1173.04" cy="359.47" r="60.52"/><path d="M1173,301.45a58,58,0,1,1-58,58,58.09,58.09,0,0,1,58-58m0-5a63,63,0,1,0,63,63,63,63,0,0,0-63-63Z"/><path class="cls-4" d="M1068.89,595a60.52,60.52,0,1,1,60.52-60.52A60.59,60.59,0,0,1,1068.89,595Z"/><path d="M1068.89,476.49a58,58,0,1,1-58,58,58.09,58.09,0,0,1,58-58m0-5a63,63,0,1,0,63,63,63,63,0,0,0-63-63Z"/><path class="cls-4" d="M1282,595a60.52,60.52,0,1,1,60.52-60.52A60.59,60.59,0,0,1,1282,595Z"/><path d="M1282,476.49a58,58,0,1,1-58,58,58.09,58.09,0,0,1,58-58m0-5a63,63,0,1,0,63,63,63,63,0,0,0-63-63Z"/><circle class="cls-2" cx="846.82" cy="359.47" r="60.52"/><path d="M846.82,301.45a58,58,0,1,1-58,58,58.08,58.08,0,0,1,58-58m0-5a63,63,0,1,0,63,63,63,63,0,0,0-63-63Z"/></g><g id="values"><path d="M629.89,46.63h3.36l7.73,23h-3.15l-4-12.81c-.81-2.56-1.58-5.08-2.28-7.74h-.14c-.73,2.66-1.47,5.18-2.27,7.74l-4,12.81h-3Zm-3.65,13.62h10.54v2.38H626.24Z"/><path d="M644.34,58.12c0-7.39,4.31-11.91,10.29-11.91a8.59,8.59,0,0,1,6.3,2.8l-1.68,1.86a6.15,6.15,0,0,0-4.62-2.07c-4.38,0-7.25,3.54-7.25,9.25s2.87,9.38,7.25,9.38a6.64,6.64,0,0,0,5.15-2.52l1.68,1.78A8.89,8.89,0,0,1,654.35,70C648.68,70,644.34,65.61,644.34,58.12Z"/><path d="M664.92,58.12c0-7.43,4.23-11.91,10.18-11.91a8.48,8.48,0,0,1,6.34,2.8l-1.68,1.86a6,6,0,0,0-4.66-2.07c-4.3,0-7.1,3.54-7.1,9.25s2.55,9.38,7,9.38a5.74,5.74,0,0,0,4-1.33v-6h-4.55V57.7h7.28v9.66A9.67,9.67,0,0,1,674.86,70C669.08,70,664.92,65.61,664.92,58.12Z"/><path d="M1150.58,345.57H1143v-2.48h18.13v2.48h-7.59v20.48h-2.94Z"/><path d="M1171.58,345.57H1164v-2.48h18.13v2.48h-7.59v20.48h-2.94Z"/><path d="M1192.58,345.57H1185v-2.48h18.13v2.48h-7.59v20.48h-2.94Z"/><path d="M386.34,343.09h3.36l7.74,23h-3.15l-4-12.81c-.8-2.56-1.57-5.08-2.27-7.74h-.14c-.74,2.66-1.47,5.18-2.28,7.74l-4,12.81h-3ZM382.7,356.7h10.54v2.38H382.7Z"/><path d="M400.8,354.57c0-7.39,4.3-11.9,10.29-11.9a8.62,8.62,0,0,1,6.3,2.8l-1.68,1.85a6.16,6.16,0,0,0-4.62-2.06c-4.38,0-7.25,3.53-7.25,9.24s2.87,9.38,7.25,9.38a6.6,6.6,0,0,0,5.14-2.52l1.68,1.78a8.87,8.87,0,0,1-7.1,3.33C405.14,366.47,400.8,362.06,400.8,354.57Z"/><path d="M421.38,354.57c0-7.42,4.23-11.9,10.18-11.9a8.44,8.44,0,0,1,6.34,2.8l-1.68,1.85a6,6,0,0,0-4.66-2.06c-4.3,0-7.1,3.53-7.1,9.24s2.55,9.38,7,9.38a5.74,5.74,0,0,0,4-1.33v-6H430.9v-2.41h7.28v9.66a9.67,9.67,0,0,1-6.86,2.66C425.54,366.47,421.38,362.06,421.38,354.57Z"/><path d="M1046.43,520.61h-7.6v-2.48H1057v2.48h-7.59v20.48h-2.94Z"/><path d="M1067.22,518.13h3.36l7.73,23h-3.15l-4-12.81c-.81-2.56-1.58-5.08-2.28-7.74h-.14c-.73,2.66-1.47,5.18-2.27,7.74l-4,12.81h-3Zm-3.64,13.61h10.53v2.38h-10.53Z"/><path d="M1081.67,529.61c0-7.39,4.3-11.9,10.29-11.9a8.59,8.59,0,0,1,6.3,2.8l-1.68,1.85a6.16,6.16,0,0,0-4.62-2.06c-4.38,0-7.25,3.53-7.25,9.24s2.87,9.38,7.25,9.38a6.64,6.64,0,0,0,5.15-2.52l1.68,1.78a8.86,8.86,0,0,1-7.11,3.33C1086,541.51,1081.67,537.1,1081.67,529.61Z"/><path d="M213.07,190.64c0-7.42,4.23-11.9,10.18-11.9a8.44,8.44,0,0,1,6.34,2.8l-1.68,1.85a6,6,0,0,0-4.66-2.06c-4.3,0-7.1,3.53-7.1,9.24s2.55,9.38,7,9.38a5.74,5.74,0,0,0,4-1.33v-6h-4.55v-2.41h7.28v9.66a9.67,9.67,0,0,1-6.86,2.66C217.23,202.54,213.07,198.13,213.07,190.64Z"/><path d="M234.49,190.64c0-7.39,4.3-11.9,10.29-11.9a8.62,8.62,0,0,1,6.3,2.8l-1.68,1.85a6.16,6.16,0,0,0-4.62-2.06c-4.38,0-7.25,3.53-7.25,9.24s2.87,9.38,7.25,9.38a6.6,6.6,0,0,0,5.14-2.52l1.68,1.79a8.86,8.86,0,0,1-7.1,3.32C238.83,202.54,234.49,198.13,234.49,190.64Z"/><path d="M255.07,190.64c0-7.42,4.23-11.9,10.18-11.9a8.44,8.44,0,0,1,6.34,2.8l-1.68,1.85a6,6,0,0,0-4.66-2.06c-4.3,0-7.1,3.53-7.1,9.24s2.55,9.38,7,9.38a5.74,5.74,0,0,0,4-1.33v-6h-4.55v-2.41h7.28v9.66a9.67,9.67,0,0,1-6.86,2.66C259.23,202.54,255.07,198.13,255.07,190.64Z"/><path d="M33.37,354.57c0-7.42,4.24-11.9,10.19-11.9a8.42,8.42,0,0,1,6.33,2.8l-1.68,1.85a6,6,0,0,0-4.65-2.06c-4.31,0-7.11,3.53-7.11,9.24s2.56,9.38,7,9.38a5.72,5.72,0,0,0,3.95-1.33v-6H42.89v-2.41h7.28v9.66a9.63,9.63,0,0,1-6.86,2.66C37.54,366.47,33.37,362.06,33.37,354.57Z"/><path d="M54.37,354.57c0-7.42,4.24-11.9,10.19-11.9a8.42,8.42,0,0,1,6.33,2.8l-1.68,1.85a6,6,0,0,0-4.65-2.06c-4.31,0-7.11,3.53-7.11,9.24s2.56,9.38,7,9.38a5.72,5.72,0,0,0,4-1.33v-6H63.89v-2.41h7.28v9.66a9.63,9.63,0,0,1-6.86,2.66C58.54,366.47,54.37,362.06,54.37,354.57Z"/><path d="M75.37,354.57c0-7.42,4.24-11.9,10.19-11.9a8.42,8.42,0,0,1,6.33,2.8l-1.68,1.85a6,6,0,0,0-4.65-2.06c-4.31,0-7.11,3.53-7.11,9.24s2.56,9.38,7,9.38a5.72,5.72,0,0,0,4-1.33v-6H84.89v-2.41h7.28v9.66a9.63,9.63,0,0,1-6.86,2.66C79.54,366.47,75.37,362.06,75.37,354.57Z"/><path d="M1259.29,518.13h3.36l7.74,23h-3.15l-4-12.81c-.8-2.56-1.57-5.08-2.27-7.74h-.14c-.74,2.66-1.47,5.18-2.28,7.74l-4,12.81h-3Zm-3.64,13.61h10.54v2.38h-10.54Z"/><path d="M1273.75,529.61c0-7.39,4.3-11.9,10.29-11.9a8.62,8.62,0,0,1,6.3,2.8l-1.68,1.85a6.16,6.16,0,0,0-4.62-2.06c-4.38,0-7.25,3.53-7.25,9.24s2.87,9.38,7.25,9.38a6.6,6.6,0,0,0,5.14-2.52l1.68,1.78a8.84,8.84,0,0,1-7.1,3.33C1278.08,541.51,1273.75,537.1,1273.75,529.61Z"/><path d="M1294.32,529.61c0-7.42,4.24-11.9,10.19-11.9a8.44,8.44,0,0,1,6.34,2.8l-1.68,1.85a6,6,0,0,0-4.66-2.06c-4.31,0-7.11,3.53-7.11,9.24s2.56,9.38,7,9.38a5.74,5.74,0,0,0,4-1.33v-6h-4.56v-2.41h7.29v9.66a9.68,9.68,0,0,1-6.87,2.66C1298.49,541.51,1294.32,537.1,1294.32,529.61Z"/><path d="M977.61,179.16H981l7.74,23h-3.15l-4-12.81c-.8-2.56-1.57-5.08-2.27-7.74h-.14c-.74,2.66-1.47,5.18-2.28,7.74l-4,12.81h-3ZM974,192.77h10.54v2.38H974Z"/><path d="M992.07,190.64c0-7.39,4.3-11.9,10.29-11.9a8.62,8.62,0,0,1,6.3,2.8l-1.68,1.85a6.16,6.16,0,0,0-4.62-2.06c-4.38,0-7.25,3.53-7.25,9.24S998,200,1002.36,200a6.6,6.6,0,0,0,5.14-2.52l1.68,1.79a8.86,8.86,0,0,1-7.1,3.32C996.41,202.54,992.07,198.13,992.07,190.64Z"/><path d="M1013.06,190.64c0-7.39,4.31-11.9,10.3-11.9a8.62,8.62,0,0,1,6.3,2.8l-1.68,1.85a6.16,6.16,0,0,0-4.62-2.06c-4.38,0-7.25,3.53-7.25,9.24s2.87,9.38,7.25,9.38a6.6,6.6,0,0,0,5.14-2.52l1.68,1.79a8.86,8.86,0,0,1-7.1,3.32C1017.4,202.54,1013.06,198.13,1013.06,190.64Z"/><path d="M817.59,354.57c0-7.39,4.31-11.9,10.29-11.9a8.59,8.59,0,0,1,6.3,2.8l-1.68,1.85a6.14,6.14,0,0,0-4.62-2.06c-4.37,0-7.24,3.53-7.24,9.24s2.87,9.38,7.24,9.38a6.64,6.64,0,0,0,5.15-2.52l1.68,1.78a8.89,8.89,0,0,1-7.11,3.33C821.93,366.47,817.59,362.06,817.59,354.57Z"/><path d="M838.59,354.57c0-7.39,4.31-11.9,10.29-11.9a8.59,8.59,0,0,1,6.3,2.8l-1.68,1.85a6.14,6.14,0,0,0-4.62-2.06c-4.37,0-7.24,3.53-7.24,9.24s2.87,9.38,7.24,9.38a6.64,6.64,0,0,0,5.15-2.52l1.68,1.78a8.89,8.89,0,0,1-7.11,3.33C842.93,366.47,838.59,362.06,838.59,354.57Z"/><path d="M859.17,354.57c0-7.42,4.24-11.9,10.19-11.9a8.42,8.42,0,0,1,6.33,2.8L874,347.32a6,6,0,0,0-4.65-2.06c-4.31,0-7.11,3.53-7.11,9.24s2.56,9.38,7,9.38a5.72,5.72,0,0,0,4-1.33v-6h-4.55v-2.41H876v9.66a9.63,9.63,0,0,1-6.86,2.66C863.34,366.47,859.17,362.06,859.17,354.57Z"/><path d="M507,518.13h3.36l7.73,23H515l-4-12.81c-.81-2.56-1.58-5.08-2.28-7.74h-.14c-.73,2.66-1.47,5.18-2.27,7.74l-4,12.81h-3Zm-3.64,13.61H513.9v2.38H503.37Z"/><path d="M521.46,529.61c0-7.39,4.31-11.9,10.29-11.9a8.59,8.59,0,0,1,6.3,2.8l-1.68,1.85a6.14,6.14,0,0,0-4.62-2.06c-4.37,0-7.24,3.53-7.24,9.24s2.87,9.38,7.24,9.38a6.64,6.64,0,0,0,5.15-2.52l1.68,1.78a8.86,8.86,0,0,1-7.11,3.33C525.8,541.51,521.46,537.1,521.46,529.61Z"/><path d="M542.46,529.61c0-7.39,4.31-11.9,10.29-11.9a8.59,8.59,0,0,1,6.3,2.8l-1.68,1.85a6.14,6.14,0,0,0-4.62-2.06c-4.38,0-7.25,3.53-7.25,9.24s2.87,9.38,7.25,9.38a6.64,6.64,0,0,0,5.15-2.52l1.68,1.78a8.86,8.86,0,0,1-7.11,3.33C546.8,541.51,542.46,537.1,542.46,529.61Z"/><path d="M268.92,518.13h3.36l7.74,23h-3.15l-4-12.81c-.8-2.56-1.57-5.08-2.27-7.74h-.14c-.74,2.66-1.47,5.18-2.28,7.74l-4,12.81h-3Zm-3.64,13.61h10.54v2.38H265.28Z"/><path d="M283.38,529.61c0-7.39,4.3-11.9,10.29-11.9a8.62,8.62,0,0,1,6.3,2.8l-1.68,1.85a6.16,6.16,0,0,0-4.62-2.06c-4.38,0-7.25,3.53-7.25,9.24s2.87,9.38,7.25,9.38a6.6,6.6,0,0,0,5.14-2.52l1.68,1.78a8.84,8.84,0,0,1-7.1,3.33C287.72,541.51,283.38,537.1,283.38,529.61Z"/><path d="M304,529.61c0-7.42,4.23-11.9,10.18-11.9a8.44,8.44,0,0,1,6.34,2.8l-1.68,1.85a6,6,0,0,0-4.66-2.06c-4.3,0-7.1,3.53-7.1,9.24s2.55,9.38,7,9.38a5.74,5.74,0,0,0,4-1.33v-6h-4.55v-2.41h7.28v9.66a9.67,9.67,0,0,1-6.86,2.66C308.12,541.51,304,537.1,304,529.61Z"/></g></g></g></svg>