<?xml version="1.0" encoding="UTF-8"?><svg id="Layer_4" xmlns="http://www.w3.org/2000/svg" viewBox="0 0 150 100.58"><defs><style>.cls-1{fill:#1d1d1b;}</style></defs><path class="cls-1" d="M32.76,68.16c0-.71-.38-1.16-1.28-1.16h-1.22v2.32h1.22c.9,0,1.28-.45,1.28-1.16Z"/><polygon class="cls-1" points="46.53 67.67 45.4 71.05 47.67 71.05 46.53 67.67"/><polygon class="cls-1" points="65 71.05 67.28 71.05 66.13 67.67 65 71.05"/><path class="cls-1" d="M14.79,82.9h-1.07v5.37h1.07c1.7,0,2.7-.97,2.7-2.67s-1-2.7-2.7-2.7Z"/><path class="cls-1" d="M59.38,82.89c-1.5,0-2.45,1.04-2.45,2.69s.95,2.69,2.45,2.69,2.44-1.07,2.44-2.69-.96-2.69-2.44-2.69Z"/><polygon class="cls-1" points="93.66 86.85 95.94 86.85 94.79 83.47 93.66 86.85"/><polygon class="cls-1" points="129.75 71.05 132.02 71.05 130.88 67.67 129.75 71.05"/><path class="cls-1" d="M0,0V100.58H150V0H0ZM110.95,31.73l6.1-6.1c.34-.34,.88-.34,1.22,0l6.71,6.71,14.04,14.04c.34,.34,.34,.88,0,1.22l-6.1,6.1c-.34,.34-.88,.34-1.22,0l-14.04-14.04-6.71-6.71c-.34-.34-.34-.88,0-1.22Zm27.86,33.45v9.24h-2.25v-9.24h2.25Zm-3.27,9.24h-2.38l-.55-1.63h-3.45l-.55,1.63h-2.36l3.34-9.24h2.61l3.34,9.24Zm-24.66-9.37c2.63,0,4.73,1.95,4.73,4.73s-2.11,4.74-4.73,4.74-4.75-1.96-4.75-4.74,2.13-4.73,4.75-4.73Zm-47.81-18.67l14.04-14.04,6.71-6.71c.34-.34,.88-.34,1.22,0l6.71,6.71,14.04,14.04c.34,.34,.34,.88,0,1.22l-6.1,6.1c-.34,.34-.88,.34-1.22,0l-13.43-13.43c-.34-.34-.88-.34-1.22,0l-13.43,13.43c-.34,.34-.88,.34-1.22,0l-6.1-6.1c-.34-.34-.34-.88,0-1.22Zm29.5,23.39c0,2.78-2.11,4.74-4.73,4.74s-4.75-1.96-4.75-4.74,2.13-4.73,4.75-4.73,4.73,1.95,4.73,4.73Zm-10.73-4.59v9.24h-2.25v-9.24h2.25ZM11.27,46.38l13.43-13.43c.34-.34,.34-.88,0-1.22l-13.43-13.43c-.34-.34-.34-.88,0-1.22l6.1-6.1c.34-.34,.88-.34,1.22,0l13.43,13.43c.34,.34,.88,.34,1.22,0l13.43-13.43c.34-.34,.88-.34,1.22,0l6.1,6.1c.34,.34,.34,.88,0,1.22l-13.43,13.43c-.34,.34-.34,.88,0,1.22l13.43,13.43c.34,.34,.34,.88,0,1.22l-6.1,6.1c-.34,.34-.88,.34-1.22,0l-13.43-13.43c-.34-.34-.88-.34-1.22,0l-13.43,13.43c-.34,.34-.88,.34-1.22,0l-6.1-6.1c-.34-.34-.34-.88,0-1.22Zm6.82,18.8h2.62l1.86,2.79,1.63-2.79h2.55l-2.94,4.66,3.05,4.58h-2.62l-1.88-2.83-1.66,2.83h-2.55l2.96-4.7-3.03-4.54Zm-1.36,3.67v1.74h-3.01v2.03h3.41v1.8h-5.66v-9.24h5.66v1.8h-3.41v1.87h3.01Zm-1.8,21.37h-3.46v-9.24h3.46c2.95,0,4.84,1.87,4.84,4.62s-1.9,4.62-4.84,4.62Zm11.93-7.44h-3.41v1.87h3.01v1.74h-3.01v2.03h3.41v1.8h-5.66v-9.24h5.66v1.8Zm.33-6.12h-9.41v-1.13h9.41v1.13Zm.82-11.48h3.65c2.26,0,3.4,1.28,3.4,2.98,0,1.53-1.04,2.95-3.4,2.95h-1.4v3.32h-2.25v-9.24Zm4.71,23.07c.86,0,1.55-.39,1.94-1.18h2.48c-.53,2-2.19,3.23-4.38,3.23-2.73,0-4.65-1.94-4.65-4.7s1.92-4.71,4.65-4.71c2.2,0,3.86,1.24,4.38,3.24h-2.48c-.38-.79-1.08-1.18-1.94-1.18-1.38,0-2.33,1.03-2.33,2.66s.95,2.66,2.33,2.66Zm8.2,1.97h-2.25v-9.24h2.25v9.24Zm.5-15.8h-5.2v-9.24h2.25v7.5h2.95v1.74Zm3.82-9.24h2.61l3.34,9.24h-2.38l-.55-1.63h-3.45l-.55,1.63h-2.36l3.34-9.24Zm.82,25.13c-1.99,0-3.54-.99-3.61-2.86h2.4c.07,.71,.51,1.05,1.15,1.05s1.08-.33,1.08-.87c0-1.71-4.62-.79-4.59-4.07,0-1.75,1.43-2.73,3.37-2.73s3.37,1,3.46,2.76h-2.44c-.04-.59-.46-.95-1.07-.96-.54-.01-.95,.26-.95,.84,0,1.61,4.57,.88,4.57,3.98,0,1.55-1.21,2.84-3.37,2.84Zm7.16-.09h-2.25v-9.24h2.25v9.24Zm1.24-15.8h-2.25v-9.24h2.25l3.77,5.73v-5.73h2.25v9.24h-2.25l-3.77-5.7v5.7Zm4.92,15.89c-2.62,0-4.75-1.96-4.75-4.74s2.13-4.73,4.75-4.73,4.73,1.95,4.73,4.73-2.11,4.74-4.73,4.74Zm4.48-15.89h-2.36l3.34-9.24h2.61l3.34,9.24h-2.38l-.55-1.63h-3.45l-.55,1.63Zm9.93,15.8h-2.25l-3.77-5.7v5.7h-2.25v-9.24h2.25l3.77,5.73v-5.73h2.25v9.24Zm4.67-23.24h-2.45v7.44h-2.25v-7.44h-2.45v-1.8h7.15v1.8Zm10.53,23.24h-2.25v-5.54l-2.07,5.54h-1.82l-2.08-5.56v5.56h-2.25v-9.24h2.66l2.59,6.4,2.57-6.4h2.65v9.24Zm8.08,0l-.55-1.63h-3.45l-.55,1.63h-2.36l3.34-9.24h2.61l3.34,9.24h-2.38Zm-1-21.5v5.7h-2.25v-9.24h2.25l3.77,5.73v-5.73h2.25v9.24h-2.25l-3.77-5.7Zm9.91,21.5l-3.11-4.08v4.08h-2.25v-9.24h2.25v4.05l3.08-4.05h2.65l-3.58,4.53,3.71,4.71h-2.75Zm6.23,0h-2.25v-9.24h2.25v9.24Zm10.06,0h-2.25l-3.77-5.7v5.7h-2.25v-9.24h2.25l3.77,5.73v-5.73h2.25v9.24Zm.61-23.24h-3.77v1.95h2.82v1.75h-2.82v3.74h-2.25v-9.24h6.02v1.8Zm9.97,20.12c-.47,1.59-2.01,3.19-4.45,3.19-2.76,0-4.71-1.94-4.71-4.7s1.94-4.71,4.7-4.71c2.21,0,3.82,1.13,4.3,3.03h-2.49c-.34-.62-.97-.95-1.82-.95-1.45,0-2.41,1.03-2.41,2.63,0,1.71,.97,2.71,2.59,2.71,1.12,0,1.9-.59,2.24-1.63h-2.86v-1.66h4.9v2.09Zm6.8,2.26c0,.48-.39,.86-.86,.86h-1.9c-.48,0-.86-.39-.86-.86v-1.9c0-.48,.39-.86,.86-.86h1.9c.48,0,.86,.39,.86,.86v1.9Zm0-12.69h-13.61v-1.13h13.61v1.13Z"/><path class="cls-1" d="M85.39,69.78c0,1.62,.95,2.69,2.45,2.69s2.44-1.07,2.44-2.69-.96-2.69-2.44-2.69-2.45,1.04-2.45,2.69Z"/><path class="cls-1" d="M110.88,72.46c1.47,0,2.44-1.07,2.44-2.69s-.96-2.69-2.44-2.69-2.45,1.04-2.45,2.69,.95,2.69,2.45,2.69Z"/></svg>