<?xml version="1.0" encoding="UTF-8"?><svg id="Layer_4" xmlns="http://www.w3.org/2000/svg" viewBox="0 0 151 65.79"><defs><style>.cls-1{fill:#1d1d1b;}.cls-2{fill:none;stroke:#1d1d1b;stroke-miterlimit:10;}</style></defs><rect class="cls-2" x=".5" y=".5" width="150" height="64.79"/><path class="cls-1" d="M.5,.48V65.27H150.49V.48H.5ZM40.85,33.51l13.46,13.46c.34,.34,.34,.89,0,1.22l-6.12,6.12c-.34,.34-.89,.34-1.22,0l-13.46-13.46c-.34-.34-.89-.34-1.22,0l-13.46,13.46c-.34,.34-.89,.34-1.22,0l-6.12-6.12c-.34-.34-.34-.89,0-1.22l13.46-13.46c.34-.34,.34-.89,0-1.22l-13.46-13.46c-.34-.34-.34-.89,0-1.22l6.12-6.12c.34-.34,.89-.34,1.22,0l13.46,13.46c.34,.34,.89,.34,1.22,0l13.46-13.46c.34-.34,.89-.34,1.22,0l6.12,6.12c.34,.34,.34,.89,0,1.22l-13.46,13.46c-.34,.34-.34,.89,0,1.22Zm65.36,14.68l-6.12,6.12c-.34,.34-.89,.34-1.22,0l-13.46-13.46c-.34-.34-.89-.34-1.22,0l-13.46,13.46c-.34,.34-.89,.34-1.22,0l-6.12-6.12c-.34-.34-.34-.89,0-1.22l14.07-14.07,6.73-6.73c.34-.34,.89-.34,1.22,0l6.73,6.73,14.07,14.07c.34,.34,.34,.89,0,1.22Zm33.29,0l-6.12,6.12c-.34,.34-.89,.34-1.22,0l-14.07-14.07-6.73-6.73c-.34-.34-.34-.89,0-1.22l6.12-6.12c.34-.34,.89-.34,1.22,0l6.73,6.73,14.07,14.07c.34,.34,.34,.89,0,1.22Z"/></svg>