<?xml version="1.0" encoding="UTF-8"?><svg id="Layer_4" xmlns="http://www.w3.org/2000/svg" viewBox="0 0 150 64.79"><defs><style>.cls-1{fill:#f5df4d;}.cls-2{fill:#98999b;}</style></defs><path class="cls-2" d="M124.94,32.4l14.07,14.07c.34,.34,.34,.89,0,1.22l-6.12,6.12c-.34,.34-.89,.34-1.22,0l-14.07-14.07-6.73-6.73c-.34-.34-.34-.89,0-1.22l6.12-6.12c.34-.34,.89-.34,1.22,0l6.73,6.73Z"/><path class="cls-2" d="M84.92,25.67c-.34-.34-.89-.34-1.22,0l-6.73,6.73-14.07,14.07c-.34,.34-.34,.89,0,1.22l6.12,6.12c.34,.34,.89,.34,1.22,0l13.46-13.46c.34-.34,.89-.34,1.22,0l13.46,13.46c.34,.34,.89,.34,1.22,0l6.12-6.12c.34-.34,.34-.89,0-1.22l-14.07-14.07-6.73-6.73Z"/><path class="cls-1" d="M53.81,17.11l-6.12-6.12c-.34-.34-.89-.34-1.22,0l-13.46,13.46c-.34,.34-.89,.34-1.22,0l-13.46-13.46c-.34-.34-.89-.34-1.22,0l-6.12,6.12c-.34,.34-.34,.89,0,1.22l13.46,13.46c.34,.34,.34,.89,0,1.22l-13.46,13.46c-.34,.34-.34,.89,0,1.22l6.12,6.12c.34,.34,.89,.34,1.22,0l13.46-13.46c.34-.34,.89-.34,1.22,0l13.46,13.46c.34,.34,.89,.34,1.22,0l6.12-6.12c.34-.34,.34-.89,0-1.22l-13.46-13.46c-.34-.34-.34-.89,0-1.22l13.46-13.46c.34-.34,.34-.89,0-1.22Z"/></svg>