<?xml version="1.0" encoding="UTF-8"?><svg id="Layer_4" xmlns="http://www.w3.org/2000/svg" viewBox="0 0 150 100.78"><defs><style>.cls-1{fill:#fff;}</style></defs><g><path class="cls-1" d="M16.86,67.09h-3.42v1.87h3.02v1.74h-3.02v2.03h3.42v1.81h-5.67v-9.26h5.67v1.81Z"/><path class="cls-1" d="M22.12,71.7l-1.66,2.84h-2.56l2.97-4.71-3.03-4.55h2.63l1.86,2.8,1.64-2.8h2.56l-2.94,4.67,3.06,4.59h-2.63l-1.89-2.84Z"/><path class="cls-1" d="M31.42,71.22h-1.4v3.32h-2.26v-9.26h3.65c2.27,0,3.4,1.28,3.4,2.98,0,1.53-1.04,2.95-3.4,2.95Zm-.17-1.79c.9,0,1.28-.45,1.28-1.16s-.38-1.16-1.28-1.16h-1.23v2.32h1.23Z"/><path class="cls-1" d="M38.25,65.28v7.52h2.95v1.74h-5.21v-9.26h2.26Z"/><path class="cls-1" d="M48.05,72.91h-3.46l-.55,1.64h-2.36l3.35-9.26h2.61l3.35,9.26h-2.39l-.55-1.64Zm-1.73-5.13l-1.13,3.39h2.28l-1.15-3.39Z"/><path class="cls-1" d="M60.29,65.28v9.26h-2.26l-3.77-5.71v5.71h-2.26v-9.26h2.26l3.77,5.74v-5.74h2.26Z"/><path class="cls-1" d="M67.69,72.91h-3.46l-.55,1.64h-2.36l3.35-9.26h2.61l3.35,9.26h-2.39l-.55-1.64Zm-1.73-5.13l-1.13,3.39h2.28l-1.15-3.39Z"/><path class="cls-1" d="M71.15,65.28h7.16v1.81h-2.45v7.45h-2.26v-7.45h-2.45v-1.81Z"/><path class="cls-1" d="M79.45,65.28h2.26v9.26h-2.26v-9.26Z"/><path class="cls-1" d="M87.72,74.63c-2.63,0-4.76-1.97-4.76-4.75s2.14-4.74,4.76-4.74,4.74,1.95,4.74,4.74-2.11,4.75-4.74,4.75Zm0-2.06c1.48,0,2.44-1.07,2.44-2.69s-.96-2.69-2.44-2.69-2.45,1.04-2.45,2.69,.95,2.69,2.45,2.69Z"/><path class="cls-1" d="M101.99,65.28v9.26h-2.26l-3.77-5.71v5.71h-2.26v-9.26h2.26l3.77,5.74v-5.74h2.26Z"/><path class="cls-1" d="M110.8,74.63c-2.63,0-4.76-1.97-4.76-4.75s2.14-4.74,4.76-4.74,4.74,1.95,4.74,4.74-2.11,4.75-4.74,4.75Zm0-2.06c1.48,0,2.44-1.07,2.44-2.69s-.96-2.69-2.44-2.69-2.45,1.04-2.45,2.69,.95,2.69,2.45,2.69Z"/><path class="cls-1" d="M116.79,65.28h6.03v1.81h-3.77v1.95h2.82v1.75h-2.82v3.75h-2.26v-9.26Z"/><path class="cls-1" d="M132.57,72.91h-3.46l-.55,1.64h-2.36l3.35-9.26h2.61l3.35,9.26h-2.39l-.55-1.64Zm-1.73-5.13l-1.13,3.39h2.28l-1.15-3.39Z"/><path class="cls-1" d="M136.53,65.28h2.26v9.26h-2.26v-9.26Z"/><path class="cls-1" d="M19.52,85.74c0,2.74-1.9,4.63-4.85,4.63h-3.47v-9.26h3.47c2.95,0,4.85,1.87,4.85,4.63Zm-5,2.68c1.7,0,2.7-.98,2.7-2.68s-1-2.7-2.7-2.7h-1.07v5.38h1.07Z"/><path class="cls-1" d="M26.61,82.92h-3.42v1.87h3.02v1.74h-3.02v2.03h3.42v1.81h-5.67v-9.26h5.67v1.81Z"/><path class="cls-1" d="M32.51,81.01c2.2,0,3.87,1.24,4.39,3.25h-2.48c-.38-.79-1.08-1.19-1.94-1.19-1.39,0-2.33,1.03-2.33,2.66s.95,2.66,2.33,2.66c.86,0,1.56-.4,1.94-1.19h2.48c-.53,2.01-2.19,3.23-4.39,3.23-2.73,0-4.66-1.94-4.66-4.71s1.93-4.72,4.66-4.72Z"/><path class="cls-1" d="M38.45,81.11h2.26v9.26h-2.26v-9.26Z"/><path class="cls-1" d="M45.85,90.46c-1.99,0-3.55-.99-3.61-2.86h2.4c.07,.71,.51,1.06,1.15,1.06s1.08-.33,1.08-.87c0-1.71-4.63-.79-4.6-4.08,0-1.75,1.44-2.73,3.38-2.73s3.38,1,3.47,2.77h-2.44c-.04-.59-.46-.95-1.07-.96-.54-.01-.95,.26-.95,.84,0,1.61,4.58,.88,4.58,3.98,0,1.56-1.21,2.85-3.38,2.85Z"/><path class="cls-1" d="M50.77,81.11h2.26v9.26h-2.26v-9.26Z"/><path class="cls-1" d="M59.2,90.46c-2.63,0-4.76-1.97-4.76-4.75s2.14-4.74,4.76-4.74,4.74,1.95,4.74,4.74-2.11,4.75-4.74,4.75Zm0-2.06c1.48,0,2.44-1.07,2.44-2.69s-.96-2.69-2.44-2.69-2.45,1.04-2.45,2.69,.95,2.69,2.45,2.69Z"/><path class="cls-1" d="M73.63,81.11v9.26h-2.26l-3.77-5.71v5.71h-2.26v-9.26h2.26l3.77,5.74v-5.74h2.26Z"/><path class="cls-1" d="M78.38,81.11h2.66l2.6,6.41,2.57-6.41h2.65v9.26h-2.26v-5.55l-2.07,5.55h-1.82l-2.08-5.57v5.57h-2.26v-9.26Z"/><path class="cls-1" d="M96.41,88.74h-3.46l-.55,1.64h-2.36l3.35-9.26h2.61l3.35,9.26h-2.39l-.55-1.64Zm-1.73-5.13l-1.13,3.39h2.28l-1.15-3.39Z"/><path class="cls-1" d="M102.78,86.28v4.09h-2.26v-9.26h2.26v4.06l3.09-4.06h2.65l-3.59,4.54,3.72,4.72h-2.76l-3.11-4.09Z"/><path class="cls-1" d="M109.88,81.11h2.26v9.26h-2.26v-9.26Z"/><path class="cls-1" d="M122.22,81.11v9.26h-2.26l-3.77-5.71v5.71h-2.26v-9.26h2.26l3.77,5.74v-5.74h2.26Z"/><path class="cls-1" d="M132.65,84.04h-2.49c-.34-.62-.98-.95-1.82-.95-1.45,0-2.41,1.03-2.41,2.64,0,1.71,.98,2.72,2.6,2.72,1.12,0,1.9-.59,2.24-1.64h-2.86v-1.66h4.91v2.1c-.47,1.6-2.02,3.19-4.46,3.19-2.77,0-4.72-1.94-4.72-4.71s1.94-4.72,4.71-4.72c2.22,0,3.83,1.13,4.31,3.03Z"/></g><path class="cls-1" d="M53.81,17.08l-6.12-6.12c-.34-.34-.89-.34-1.22,0l-13.46,13.46c-.34,.34-.89,.34-1.22,0l-13.46-13.46c-.34-.34-.89-.34-1.22,0l-6.12,6.12c-.34,.34-.34,.89,0,1.22l13.46,13.46c.34,.34,.34,.89,0,1.22l-13.46,13.46c-.34,.34-.34,.89,0,1.22l6.12,6.12c.34,.34,.89,.34,1.22,0l13.46-13.46c.34-.34,.89-.34,1.22,0l13.46,13.46c.34,.34,.89,.34,1.22,0l6.12-6.12c.34-.34,.34-.89,0-1.22l-13.46-13.46c-.34-.34-.34-.89,0-1.22l13.46-13.46c.34-.34,.34-.89,0-1.22Z"/><rect class="cls-1" x="135.99" y="86.74" width="3.63" height="3.63" rx=".87" ry=".87"/><path class="cls-1" d="M17.51,76.79v-1.13h9.43v1.13h-9.43Z"/><path class="cls-1" d="M125.99,76.79v-1.13h13.63v1.13h-13.63Z"/><path class="cls-1" d="M124.94,32.38l14.07,14.07c.34,.34,.34,.89,0,1.22l-6.12,6.12c-.34,.34-.89,.34-1.22,0l-14.07-14.07-6.73-6.73c-.34-.34-.34-.89,0-1.22l6.12-6.12c.34-.34,.89-.34,1.22,0l6.73,6.73Z"/><path class="cls-1" d="M84.92,25.65c-.34-.34-.89-.34-1.22,0l-6.73,6.73-14.07,14.07c-.34,.34-.34,.89,0,1.22l6.12,6.12c.34,.34,.89,.34,1.22,0l13.46-13.46c.34-.34,.89-.34,1.22,0l13.46,13.46c.34,.34,.89,.34,1.22,0l6.12-6.12c.34-.34,.34-.89,0-1.22l-14.07-14.07-6.73-6.73Z"/></svg>