<?xml version="1.0" encoding="UTF-8"?><svg id="Layer_4" xmlns="http://www.w3.org/2000/svg" viewBox="0 0 151 65.79"><defs><style>.cls-1{fill:#fff;}</style></defs><path class="cls-1" d="M125.43,32.9l14.07,14.07c.34,.34,.34,.89,0,1.22l-6.12,6.12c-.34,.34-.89,.34-1.22,0l-14.07-14.07-6.73-6.73c-.34-.34-.34-.89,0-1.22l6.12-6.12c.34-.34,.89-.34,1.22,0l6.73,6.73Zm-40.02-6.73c-.34-.34-.89-.34-1.22,0l-6.73,6.73-14.07,14.07c-.34,.34-.34,.89,0,1.22l6.12,6.12c.34,.34,.89,.34,1.22,0l13.46-13.46c.34-.34,.89-.34,1.22,0l13.46,13.46c.34,.34,.89,.34,1.22,0l6.12-6.12c.34-.34,.34-.89,0-1.22l-14.07-14.07-6.73-6.73Zm-31.11-8.56l-6.12-6.12c-.34-.34-.89-.34-1.22,0l-13.46,13.46c-.34,.34-.89,.34-1.22,0l-13.46-13.46c-.34-.34-.89-.34-1.22,0l-6.12,6.12c-.34,.34-.34,.89,0,1.22l13.46,13.46c.34,.34,.34,.89,0,1.22l-13.46,13.46c-.34,.34-.34,.89,0,1.22l6.12,6.12c.34,.34,.89,.34,1.22,0l13.46-13.46c.34-.34,.89-.34,1.22,0l13.46,13.46c.34,.34,.89,.34,1.22,0l6.12-6.12c.34-.34,.34-.89,0-1.22l-13.46-13.46c-.34-.34-.34-.89,0-1.22l13.46-13.46c.34-.34,.34-.89,0-1.22Z"/></svg>