<?xml version="1.0" encoding="utf-8"?>
<!-- Generator: Adobe Illustrator 27.1.0, SVG Export Plug-In . SVG Version: 6.00 Build 0)  -->
<svg version="1.1" id="Layer_4" xmlns="http://www.w3.org/2000/svg" xmlns:xlink="http://www.w3.org/1999/xlink" x="0px" y="0px"
	 viewBox="0 0 150 100.8" style="enable-background:new 0 0 150 100.8;" xml:space="preserve">
<style type="text/css">
	.st0{fill:#1D1D1B;}
</style>
<g>
	<path class="st0" d="M16.9,67.1h-3.4V69h3v1.7h-3v2h3.4v1.8h-5.7v-9.3h5.7C16.9,65.3,16.9,67.1,16.9,67.1z"/>
	<path class="st0" d="M22.1,71.7l-1.7,2.8h-2.6l3-4.7l-3-4.6h2.6l1.9,2.8l1.6-2.8h2.6L23.6,70l3.1,4.6H24L22.1,71.7L22.1,71.7z"/>
	<path class="st0" d="M31.4,71.2H30v3.3h-2.3v-9.3h3.6c2.3,0,3.4,1.3,3.4,3C34.8,69.8,33.8,71.2,31.4,71.2L31.4,71.2z M31.2,69.4
		c0.9,0,1.3-0.4,1.3-1.2s-0.4-1.2-1.3-1.2H30v2.3C30,69.4,31.2,69.4,31.2,69.4z"/>
	<path class="st0" d="M38.2,65.3v7.5h3v1.7H36v-9.3C36,65.3,38.2,65.3,38.2,65.3z"/>
	<path class="st0" d="M48,72.9h-3.5L44,74.6h-2.4l3.3-9.3h2.6l3.3,9.3h-2.4L48,72.9z M46.3,67.8l-1.1,3.4h2.3
		C47.5,71.2,46.3,67.8,46.3,67.8z"/>
	<path class="st0" d="M60.3,65.3v9.3H58l-3.8-5.7v5.7H52v-9.3h2.3L58,71v-5.7H60.3z"/>
	<path class="st0" d="M67.7,72.9h-3.5l-0.5,1.6h-2.4l3.4-9.3h2.6l3.3,9.3h-2.4L67.7,72.9z M66,67.8l-1.1,3.4h2.3L66,67.8z"/>
	<path class="st0" d="M71.2,65.3h7.2v1.8h-2.4v7.4h-2.3v-7.4h-2.4V65.3z"/>
	<path class="st0" d="M79.4,65.3h2.3v9.3h-2.3V65.3z"/>
	<path class="st0" d="M87.7,74.6c-2.6,0-4.8-2-4.8-4.8s2.1-4.7,4.8-4.7s4.7,1.9,4.7,4.7S90.3,74.6,87.7,74.6z M87.7,72.6
		c1.5,0,2.4-1.1,2.4-2.7s-1-2.7-2.4-2.7s-2.4,1-2.4,2.7S86.2,72.6,87.7,72.6z"/>
	<path class="st0" d="M102,65.3v9.3h-2.3L96,68.8v5.7h-2.3v-9.3H96l3.8,5.7v-5.7H102z"/>
	<path class="st0" d="M110.8,74.6c-2.6,0-4.8-2-4.8-4.8s2.1-4.7,4.8-4.7s4.7,1.9,4.7,4.7S113.4,74.6,110.8,74.6z M110.8,72.6
		c1.5,0,2.4-1.1,2.4-2.7s-1-2.7-2.4-2.7s-2.4,1-2.4,2.7S109.3,72.6,110.8,72.6z"/>
	<path class="st0" d="M116.8,65.3h6v1.8h-3.8V69h2.8v1.8h-2.8v3.8h-2.3C116.8,74.5,116.8,65.3,116.8,65.3z"/>
	<path class="st0" d="M132.6,72.9h-3.5l-0.6,1.6h-2.4l3.4-9.3h2.6l3.4,9.3h-2.4L132.6,72.9z M130.8,67.8l-1.1,3.4h2.3L130.8,67.8z"
		/>
	<path class="st0" d="M136.5,65.3h2.3v9.3h-2.3V65.3z"/>
	<path class="st0" d="M19.5,85.8c0,2.7-1.9,4.6-4.9,4.6h-3.5v-9.3h3.5C17.6,81.1,19.5,83,19.5,85.8z M14.5,88.4c1.7,0,2.7-1,2.7-2.7
		s-1-2.7-2.7-2.7h-1.1v5.4C13.5,88.4,14.5,88.4,14.5,88.4z"/>
	<path class="st0" d="M26.6,82.9h-3.4v1.9h3v1.7h-3v2h3.4v1.8h-5.7v-9.3h5.7C26.6,81.1,26.6,82.9,26.6,82.9z"/>
	<path class="st0" d="M32.5,81c2.2,0,3.9,1.2,4.4,3.2h-2.5c-0.4-0.8-1.1-1.2-1.9-1.2c-1.4,0-2.3,1-2.3,2.7s1,2.7,2.3,2.7
		c0.9,0,1.6-0.4,1.9-1.2h2.5c-0.5,2-2.2,3.2-4.4,3.2c-2.7,0-4.7-1.9-4.7-4.7S29.8,81,32.5,81L32.5,81z"/>
	<path class="st0" d="M38.5,81.1h2.3v9.3h-2.3V81.1z"/>
	<path class="st0" d="M45.8,90.5c-2,0-3.5-1-3.6-2.9h2.4c0.1,0.7,0.5,1.1,1.2,1.1s1.1-0.3,1.1-0.9c0-1.7-4.6-0.8-4.6-4.1
		c0-1.8,1.4-2.7,3.4-2.7s3.4,1,3.5,2.8h-2.4c0-0.6-0.5-0.9-1.1-1c-0.5,0-1,0.3-1,0.8c0,1.6,4.6,0.9,4.6,4
		C49.2,89.2,48,90.5,45.8,90.5L45.8,90.5z"/>
	<path class="st0" d="M50.8,81.1H53v9.3h-2.3V81.1z"/>
	<path class="st0" d="M59.2,90.5c-2.6,0-4.8-2-4.8-4.8s2.1-4.7,4.8-4.7s4.7,1.9,4.7,4.7S61.8,90.5,59.2,90.5z M59.2,88.4
		c1.5,0,2.4-1.1,2.4-2.7s-1-2.7-2.4-2.7s-2.5,1-2.5,2.7S57.7,88.4,59.2,88.4z"/>
	<path class="st0" d="M73.6,81.1v9.3h-2.3l-3.8-5.7v5.7h-2.3v-9.3h2.3l3.8,5.7v-5.7H73.6z"/>
	<path class="st0" d="M78.4,81.1H81l2.6,6.4l2.6-6.4h2.7v9.3h-2.3v-5.6l-2.1,5.6h-1.8l-2.1-5.6v5.6h-2.3L78.4,81.1L78.4,81.1z"/>
	<path class="st0" d="M96.4,88.8H93l-0.6,1.6H90l3.3-9.3H96l3.3,9.3H97C97,90.4,96.4,88.8,96.4,88.8z M94.7,83.6L93.6,87h2.3
		L94.7,83.6z"/>
	<path class="st0" d="M102.8,86.3v4.1h-2.3v-9.3h2.3v4.1l3.1-4.1h2.7l-3.6,4.5l3.7,4.7h-2.8C105.9,90.4,102.8,86.3,102.8,86.3z"/>
	<path class="st0" d="M109.9,81.1h2.3v9.3h-2.3V81.1z"/>
	<path class="st0" d="M122.2,81.1v9.3H120l-3.8-5.7v5.7h-2.3v-9.3h2.3l3.8,5.7v-5.7H122.2z"/>
	<path class="st0" d="M132.6,84.1h-2.5c-0.3-0.6-1-0.9-1.8-0.9c-1.4,0-2.4,1-2.4,2.6c0,1.7,1,2.7,2.6,2.7c1.1,0,1.9-0.6,2.2-1.6
		h-2.9v-1.7h4.9v2.1c-0.5,1.6-2,3.2-4.5,3.2c-2.8,0-4.7-1.9-4.7-4.7s1.9-4.7,4.7-4.7C130.6,81,132.2,82.2,132.6,84.1L132.6,84.1z"/>
</g>
<path class="st0" d="M53.8,17.1L47.7,11c-0.3-0.3-0.9-0.3-1.2,0L33,24.4c-0.3,0.3-0.9,0.3-1.2,0L18.3,11c-0.3-0.3-0.9-0.3-1.2,0
	L11,17.1c-0.3,0.3-0.3,0.9,0,1.2l13.5,13.5c0.3,0.3,0.3,0.9,0,1.2L11,46.5c-0.3,0.3-0.3,0.9,0,1.2l6.1,6.1c0.3,0.3,0.9,0.3,1.2,0
	l13.5-13.5c0.3-0.3,0.9-0.3,1.2,0l13.5,13.5c0.3,0.3,0.9,0.3,1.2,0l6.1-6.1c0.3-0.3,0.3-0.9,0-1.2L40.4,33c-0.3-0.3-0.3-0.9,0-1.2
	l13.5-13.5C54.2,18,54.2,17.4,53.8,17.1z"/>
<path class="st0" d="M136.9,86.8h1.9c0.5,0,0.9,0.4,0.9,0.9v1.9c0,0.5-0.4,0.9-0.9,0.9h-1.9c-0.5,0-0.9-0.4-0.9-0.9v-1.9
	C136,87.1,136.4,86.8,136.9,86.8z"/>
<path class="st0" d="M17.5,76.8v-1.1h9.4v1.1H17.5z"/>
<path class="st0" d="M126,76.8v-1.1h13.6v1.1H126z"/>
<path class="st0" d="M124.9,32.4L139,46.5c0.3,0.3,0.3,0.9,0,1.2l-6.1,6.1c-0.3,0.3-0.9,0.3-1.2,0l-14.1-14.1l-6.7-6.7
	c-0.3-0.3-0.3-0.9,0-1.2l6.1-6.1c0.3-0.3,0.9-0.3,1.2,0L124.9,32.4L124.9,32.4z"/>
<path class="st0" d="M84.9,25.7c-0.3-0.3-0.9-0.3-1.2,0L77,32.4L62.9,46.5c-0.3,0.3-0.3,0.9,0,1.2l6.1,6.1c0.3,0.3,0.9,0.3,1.2,0
	l13.5-13.5c0.3-0.3,0.9-0.3,1.2,0l13.5,13.5c0.3,0.3,0.9,0.3,1.2,0l6.1-6.1c0.3-0.3,0.3-0.9,0-1.2L91.7,32.4L84.9,25.7z"/>
</svg>
