<?xml version="1.0" encoding="UTF-8" standalone="no"?>
<!-- Created with Inkscape (http://www.inkscape.org/) -->

<svg
   version="1.1"
   id="svg59"
   width="788.38879"
   height="474.1944"
   viewBox="0 0 788.38879 474.1944"
   sodipodi:docname="Official_logo_SNS.png"
   xmlns:inkscape="http://www.inkscape.org/namespaces/inkscape"
   xmlns:sodipodi="http://sodipodi.sourceforge.net/DTD/sodipodi-0.dtd"
   xmlns="http://www.w3.org/2000/svg"
   xmlns:svg="http://www.w3.org/2000/svg">
  <defs
     id="defs63" />
  <sodipodi:namedview
     id="namedview61"
     pagecolor="#ffffff"
     bordercolor="#000000"
     borderopacity="0.25"
     inkscape:showpageshadow="2"
     inkscape:pageopacity="0.0"
     inkscape:pagecheckerboard="0"
     inkscape:deskcolor="#d1d1d1"
     showgrid="false" />
  <g
     inkscape:groupmode="layer"
     inkscape:label="Image"
     id="g65"
     transform="translate(10.386552,486.32171)">
    <path
       style="fill:#00647b;fill-opacity:1;stroke-width:0.32"
       d="m 154.22348,-12.266477 c -7.54685,-0.29875 -15.90101,-0.94809 -16.86326,-1.31075 -1.05188,-0.39645 -1.80736,-1.72931 -1.55349,-2.7408 0.11758,-0.46851 0.93324,-1.65753 1.81257,-2.64233 0.87933,-0.98477 2.059,-2.72436 2.62148,-3.86576 0.90837,-1.84327 1.0227,-2.38071 1.0227,-4.8074 0,-2.44211 -0.11164,-2.95881 -1.05176,-4.8679 -2.44055,-4.9559 -7.1535,-7.27693 -14.78824,-7.28282 -11.93874,-0.009 -23.06479,4.61738 -29.337781,12.19968 -1.22721,1.48336 -2.41306,2.59959 -2.88844,2.71892 -0.96841,0.24307 -2.84081,-0.48455 -8.510978,-3.30733 -15.078317,-7.50643 -27.875585,-18.552 -38.158247,-32.93514 -8.735236,-12.21862 -15.096228,-27.9759 -17.40624,-43.118303 -1.271892,-8.33741 -2.640567,-34.90915 -3.241153,-62.92445 -0.371638,-17.33572 -0.150371,-42.80787 0.38394,-44.19849 0.379376,-0.98739 1.481728,-1.56151 2.998214,-1.56151 3.77705,0 8.325232,-2.01833 11.338589,-5.03169 4.193706,-4.1937 5.73601,-9.52939 4.330346,-14.98108 -1.032131,-4.00298 -4.599364,-10.07768 -8.905092,-15.16463 -7.043571,-8.32154 -18.435726,-15.36283 -29.803149,-18.42079 -1.7599997,-0.47346 -3.5150827,-1.06103 -3.9001847,-1.30572 -1.242306,-0.78933 -5.460489,-9.20578 -7.817248,-15.59759 -0.531016,-1.44017 -1.457023,-4.4905 -2.057793,-6.7785 -7.7821993,-29.63805 0.675939,-60.49652 22.6975357,-82.80915 1.872289,-1.89703 3.772699,-3.58927 4.223134,-3.76052 1.381952,-0.52542 2.286195,-0.0297 4.020144,2.20375 5.315664,6.84707 13.280973,12.50923 21.394413,15.20826 5.890784,1.95963 8.027981,2.27517 15.36,2.26772 7.859162,-0.008 10.461478,-0.51677 15.52,-3.03433 5.486583,-2.73061 9.633034,-6.82449 12.160035,-12.00586 1.830894,-3.75406 2.241334,-5.78465 2.229474,-11.02987 -0.0101,-4.45967 -0.052,-4.75193 -1.07926,-7.52 -0.58782,-1.584 -1.135964,-3.47143 -1.218095,-4.19428 -0.216362,-1.90431 0.518985,-2.32988 7.337995,-4.2468 14.982691,-4.21185 31.310241,-7.09227 48.569841,-8.56844 8.06199,-0.68952 30.70006,-0.79008 38.4,-0.17057 16.33202,1.31402 30.18737,3.5333 44.48,7.12461 6.7155,1.6874 15.16153,4.15549 16.29335,4.76122 1.21104,0.64813 1.42726,1.83812 0.69818,3.84246 -1.15437,3.17351 -1.62196,5.85254 -1.6268,9.32061 -0.0137,9.80976 5.34562,18.17246 14.55527,22.71216 5.31628,2.62055 9.6018,3.3698 17.6,3.07707 7.61446,-0.27869 13.27752,-1.73879 19.72698,-5.08619 5.35541,-2.77956 10.75769,-7.28399 14.74304,-12.29275 1.8761,-2.35786 2.82058,-2.90361 4.14778,-2.39663 1.05952,0.40473 8.32979,7.96084 11.12032,11.55753 10.14627,13.07736 16.12998,27.37586 18.09344,43.23556 0.62284,5.03087 0.63075,14.59181 0.0163,19.84348 -1.27373,10.88874 -5.10266,22.67236 -10.28128,31.64096 -1.56877,2.71687 -1.57277,2.72066 -3.48864,3.28934 -6.17117,1.83178 -9.50756,3.05982 -13.16944,4.84736 -9.77536,4.77183 -17.58715,11.47059 -23.05066,19.76639 -2.25214,3.41966 -4.29841,7.59872 -4.85664,9.91861 -0.4881,2.02848 -0.44947,5.49882 0.0835,7.50042 1.79693,6.74857 8.86755,12.2488 15.77731,12.27315 0.95263,0.003 1.60274,0.22884 2.24,0.77692 l 0.89785,0.77219 0.10016,22.02781 c 0.15157,33.33133 -1.28599,71.86003 -3.16108,84.7217 -4.32623,29.674533 -22.72694,57.061183 -48.93908,72.838433 -3.31532,1.99549 -11.21696,5.93619 -13.48719,6.7263 -1.67228,0.58202 -2.67397,0.0429 -4.55967,-2.45388 -4.32986,-5.73309 -13.25211,-10.40064 -22.59315,-11.81927 -3.52428,-0.53523 -9.38799,-0.60726 -11.87632,-0.14585 -2.6875,0.49833 -6.09619,2.32883 -7.73883,4.15584 -2.09796,2.33344 -2.86033,4.15619 -3.03499,7.25635 -0.18868,3.34899 0.4862,5.59126 2.4673,8.19753 2.18128,2.8696 2.31703,3.17972 1.9069,4.35623 -0.19326,0.55437 -0.60011,1.14105 -0.90413,1.30377 -0.68201,0.365 -8.10218,1.1648 -14.73993,1.58877 -7.4416,0.4753 -18.27224,0.62365 -25.28,0.34627 z m 24,-5.44684 c 8.7251,-0.58852 9.34966,-0.67335 9.15665,-1.24397 -0.0956,-0.28247 -0.55448,-1.59357 -1.01984,-2.91357 -1.10067,-3.12202 -1.16789,-7.39366 -0.16654,-10.58307 1.84444,-5.87475 7.13549,-10.49072 13.6929,-11.94586 3.35631,-0.74477 10.54776,-0.68297 15.31252,0.13162 9.172,1.56803 17.42475,5.64966 23.05581,11.40288 l 2.27149,2.32077 4.60851,-2.32176 c 9.44413,-4.75802 16.6249,-9.88279 24.23973,-17.29949 15.82736,-15.41559 25.82174,-35.26349 28.8264,-57.246533 0.18804,-1.37581 0.62482,-7.35181 0.9706,-13.28 1.47369,-25.26528 1.92662,-40.90957 1.9295,-66.64654 l 0.002,-20.34799 -2.70184,-0.667 c -8.23616,-2.03327 -14.34474,-7.91229 -16.33771,-15.72376 -0.74216,-2.90891 -0.67357,-7.58987 0.15433,-10.53252 1.59026,-5.65236 6.30558,-13.21348 11.99061,-19.22722 7.63941,-8.08113 19.61666,-14.98865 31.1102,-17.94187 1.29203,-0.33198 1.39408,-0.45758 3.13088,-3.85303 4.09869,-8.01284 6.51696,-15.45231 8.06112,-24.79863 0.44912,-2.71853 0.58262,-5.30509 0.58627,-11.36 0.005,-8.64117 -0.36531,-12.00691 -2.10813,-19.14807 -3.27088,-13.4024 -10.60838,-26.74 -20.21622,-36.74777 l -2.53655,-2.64211 -3.42182,3.42898 c -4.2905,4.29945 -8.30383,7.19369 -13.63114,9.8302 -4.58818,2.27072 -7.6082,3.33548 -12.45931,4.39277 -2.78079,0.60607 -4.22595,0.70358 -10.58069,0.71397 -5.75512,0.009 -7.88333,-0.10501 -9.76,-0.5247 -10.3281,-2.30973 -18.16337,-8.23632 -22.55855,-17.06327 -2.39172,-4.80335 -3.13258,-8.01188 -3.10333,-13.44 0.016,-2.97309 0.19858,-4.86965 0.63986,-6.64724 0.33961,-1.36799 0.52849,-2.53838 0.41974,-2.60088 -0.35956,-0.20664 -8.13125,-2.37144 -12.03772,-3.3531 -39.23134,-9.85854 -80.25999,-10.1912 -119.73608,-0.97081 -5.49423,1.28328 -11.897161,3.01862 -12.179441,3.3009 -0.0823,0.0823 0.0754,0.843 0.35043,1.6904 1.43005,4.40568 1.52917,12.18748 0.21325,16.74073 -3.15889,10.93017 -11.654514,18.92971 -23.351967,21.98838 -2.523459,0.65983 -4.070668,0.82846 -8.876182,0.96741 -6.643927,0.19209 -10.284768,-0.16062 -15.674749,-1.5185 -8.734515,-2.20045 -16.605735,-6.79253 -23.360596,-13.62857 l -3.255346,-3.29447 -2.241723,2.30287 c -8.959085,9.20348 -16.1063187,21.52678 -19.7294777,34.01766 -1.165022,4.01643 -2.307143,9.90416 -2.74673,14.15964 -0.534192,5.1713 -0.210054,15.7831 0.631842,20.68558 1.505764,8.76828 4.46184599,17.43741 8.427441,24.71467 1.151486,2.11309 1.3775047,2.34402 2.5953347,2.65179 5.309071,1.34169 13.241611,4.74846 18.617274,7.99551 10.902451,6.5854 20.425891,17.65891 24.078851,27.99803 1.064839,3.01385 1.344426,8.36655 0.593684,11.36609 -2.060304,8.23178 -8.739485,14.55078 -17.227719,16.29869 l -1.831914,0.37724 -0.08809,10.93899 c -0.194881,24.23521 0.332917,46.76059 1.677455,71.57899 0.932912,17.22029 1.456157,21.47773 3.688806,30.014463 3.277731,12.53268 9.777133,25.46148 18.049956,35.90554 3.15808,3.98694 11.546211,12.42858 15.375971,15.47408 5.595987,4.45002 12.664103,8.89002 18.682679,11.73594 l 3.16267,1.49548 2.59733,-2.5966 c 5.27352,-5.27207 11.572211,-8.56634 20.357321,-10.64701 2.70234,-0.64003 4.5208,-0.8297 9.29069,-0.96912 5.33609,-0.156 6.20232,-0.10525 8.64,0.50621 3.96387,0.99427 6.4919,2.38195 9.1093,5.00025 3.39601,3.39715 4.95241,7.0681 4.95241,11.68077 0,2.85155 -0.50119,4.89718 -1.85518,7.57206 l -0.99824,1.97207 2.63051,0.19232 c 1.44677,0.10576 3.2785,0.23718 4.0705,0.29203 3.61042,0.25002 23.67397,0.17005 27.84,-0.11094 z m -23.84,-33.94957 c -35.74568,-2.93197 -65.935031,-22.19722 -76.421231,-48.767973 -1.444701,-3.6607 -2.519594,-7.96794 -3.553665,-14.24 -2.019673,-12.25014 -2.46208,-18.71699 -2.59416,-37.92 -0.15574,-22.64317 -0.943472,-33.61662 -3.537568,-49.28 -1.961513,-11.84378 -5.45927,-25.95918 -8.427776,-34.01077 -2.993792,-8.12017 -6.421616,-23.5863 -7.852333,-35.42923 -1.495081,-12.37571 -1.500198,-27.31207 -0.01181,-34.51775 1.12545,-5.44864 3.960112,-12.15731 7.28857,-17.24953 14.286477,-21.85692 46.197323,-38.03106 83.429973,-42.28682 15.0878,-1.72456 35.25484,-1.46636 49.44,0.633 35.59017,5.26722 64.83247,20.78976 78.47,41.65382 3.32846,5.09222 6.16312,11.80089 7.28857,17.24953 1.48837,7.20568 1.48326,22.14204 -0.0118,34.51775 -1.43072,11.84293 -4.85854,27.30906 -7.85233,35.42923 -2.96851,8.05159 -6.46627,22.16699 -8.42778,34.01077 -2.59582,15.67379 -3.39481,26.83032 -3.54065,49.43907 -0.12243,18.9793 -0.57004,25.50253 -2.59108,37.76093 -1.45968,8.85357 -2.97198,13.76688 -6.14062,19.950303 -4.8353,9.43575 -13.23253,18.69223 -23.24382,25.62215 -14.35322,9.93549 -31.87045,15.90845 -51.19693,17.45693 -4.71904,0.37811 -15.78362,0.36656 -20.51353,-0.0214 z m 25.55857,-5.71287 c 18.47545,-2.40784 35.02674,-9.17568 48.04143,-19.64416 3.42509,-2.75497 9.18057,-8.70051 11.65212,-12.03683 6.77392,-9.14413 9.50176,-16.632673 11.52405,-31.636133 1.358,-10.0751 2.00545,-22.5462 1.70586,-32.85798 -0.27308,-9.39901 0.63313,-26.49537 2.01831,-38.07719 1.68085,-14.05397 5.0965,-30.10716 8.94356,-42.03376 0.81448,-2.52502 1.43345,-4.63837 1.3755,-4.69632 -0.20782,-0.20782 -15.26351,-3.34577 -21.3794,-4.45595 -25.80416,-4.68408 -48.96798,-6.68811 -77.12,-6.67206 -32.31021,0.0184 -60.29216,2.44941 -85.94327,7.46652 -5.374784,1.05126 -15.837869,3.42324 -16.054099,3.63947 -0.07006,0.0701 0.539005,2.19332 1.353478,4.71834 3.847063,11.9266 7.262714,27.97979 8.943562,42.03376 1.37288,11.47894 2.300016,28.92215 2.023869,38.07719 -0.305904,10.14157 0.351949,22.85443 1.700307,32.85798 1.30744,9.69997 2.554077,14.83088 4.99119,20.54269 4.151927,9.730823 12.900472,19.816833 23.464973,27.052323 13.42673,9.19581 30.40543,14.90471 48.63999,16.35466 5.64708,0.44902 18.38262,0.11504 24.11857,-0.63255 z m -19.63857,-9.47945 c -6.63469,-1.74247 -11.96067,-6.98733 -13.94803,-13.73565 -0.76325,-2.59171 -0.76325,-7.64829 0,-10.24 2.00817,-6.81894 7.36201,-12.043623 14.09526,-13.755203 2.23221,-0.56739 6.46453,-0.63226 8.87702,-0.13597 0.93266,0.19184 2.91975,0.93085 4.41575,1.64218 2.16633,1.03008 3.20971,1.78957 5.1258,3.731173 4.0949,4.1494 6.01069,9.16672 5.63504,14.75782 -0.34408,5.12122 -2.13654,9.03389 -5.80828,12.67853 -2.50799,2.48947 -5.54374,4.21341 -8.93979,5.07667 -2.37557,0.60384 -7.11639,0.59405 -9.45277,-0.0195 z m 8.49277,-5.10919 c 6.82224,-1.76547 11.62097,-9.06384 10.43335,-15.86809 -2.01993,-11.57293 -15.74045,-16.111273 -24.06011,-7.95837 -5.63811,5.52512 -5.63803,14.65395 1.8e-4,20.16 3.72296,3.63568 8.63653,4.95776 13.62658,3.66646 z m -58.57276,-26.27398 c -3.58315,-0.74624 -6.38302,-1.980833 -9.04187,-3.987013 -4.806461,-3.62662 -7.760731,-10.33021 -7.303781,-16.57318 0.3486,-4.76272 2.08264,-8.63255 5.44185,-12.14445 3.792601,-3.96499 8.303591,-5.87229 13.943801,-5.89558 2.91983,-0.0122 3.71817,0.11056 6.09413,0.93609 8.19599,2.84778 13.25017,9.91549 13.23781,18.51165 -0.003,2.13302 -0.19545,3.84019 -0.57698,5.12 -2.03512,6.82672 -7.25288,11.84496 -14.15,13.608963 -2.25626,0.57706 -5.93039,0.78058 -7.64496,0.42352 z m 7.89446,-5.863743 c 11.77004,-4.47226 12.55007,-20.60212 1.26601,-26.17898 -2.35804,-1.16541 -2.48291,-1.18976 -6.10387,-1.18976 -3.48641,0 -3.81814,0.0576 -5.83407,1.01264 -7.576481,3.58941 -10.638141,12.51546 -6.75803,19.7025 1.84374,3.41513 5.93896,6.48742 9.6955,7.27369 2.04939,0.42896 5.75555,0.13184 7.73446,-0.62009 z m 94.50553,5.599873 c -6.81891,-1.49344 -12.25153,-6.639113 -14.49915,-13.733313 -0.80578,-2.54333 -0.72097,-8.08858 0.16695,-10.9153 2.55867,-8.14563 9.92003,-13.64138 18.3322,-13.68621 3.64952,-0.0195 6.24133,0.59731 9.40021,2.23683 2.63754,1.36896 6.34555,4.86906 7.63496,7.20685 2.90025,5.2584 3.43805,11.036 1.53206,16.45888 -3.18839,9.07155 -13.06606,14.513153 -22.56723,12.432263 z m 7.49228,-5.141833 c 4.22196,-0.99516 7.53945,-3.70208 9.56837,-7.80732 1.15336,-2.33367 1.17935,-2.46775 1.17935,-6.08285 0,-3.50013 -0.0548,-3.81229 -1.03091,-5.87312 -1.37201,-2.89667 -4.13592,-5.66055 -7.03257,-7.03258 -2.05906,-0.97526 -2.37511,-1.03091 -5.85652,-1.03091 -3.47987,0 -3.79812,0.0559 -5.85203,1.02883 -5.82305,2.75818 -9.28335,9.02423 -8.2909,15.01347 0.76363,4.60836 3.86437,8.83479 7.84997,10.69988 3.3926,1.58761 6.04293,1.89129 9.46524,1.0846 z M 104.94349,-165.3988 c -4.48824,-1.23136 -8.480201,-4.06755 -11.056571,-7.8554 -2.30011,-3.38171 -3.05866,-5.72699 -3.25265,-10.05666 -0.27457,-6.12786 1.26198,-10.16468 5.4955,-14.43779 4.025191,-4.06283 8.257871,-5.86732 13.786491,-5.87748 8.8142,-0.0162 16.88315,6.35203 18.89381,14.91152 0.70326,2.99386 0.48031,7.84681 -0.49084,10.68375 -1.91759,5.6017 -6.45899,10.22973 -11.94446,12.17229 -2.62808,0.93069 -8.80876,1.17929 -11.43128,0.45977 z m 10.95993,-6.00409 c 6.33252,-3.13736 9.47063,-9.76901 7.74953,-16.37678 -1.28951,-4.95077 -5.28109,-8.94932 -10.21669,-10.23455 -4.859,-1.26527 -9.58563,-0.007 -13.30787,3.54381 -5.809141,5.54099 -5.956351,14.59762 -0.328751,20.22522 3.046451,3.04646 6.199851,4.25942 10.663791,4.10185 2.8211,-0.0996 3.34215,-0.22022 5.43999,-1.25955 z m 99.44006,6.00621 c -6.96962,-1.90381 -12.19848,-7.2353 -13.95417,-14.22809 -0.71936,-2.86515 -0.47018,-8.35235 0.50485,-11.11738 1.56488,-4.43771 5.03677,-8.41683 9.26187,-10.61497 3.48432,-1.81274 6.12183,-2.38141 10.10745,-2.17925 5.28997,0.26831 9.48249,2.18978 13.07123,5.99066 9.57169,10.13747 5.73254,26.50531 -7.40835,31.58471 -1.78429,0.68969 -2.78545,0.84643 -5.98288,0.9367 -2.71801,0.0767 -4.35424,-0.0321 -5.6,-0.37238 z m 10.6879,-5.8522 c 8.9438,-4.18529 11.26745,-15.36897 4.68343,-22.54123 -4.52325,-4.92738 -11.48361,-6.09082 -17.34695,-2.89959 -2.21618,1.20619 -4.90526,4.16696 -6.09636,6.71228 -1.73303,3.70341 -1.62551,8.30308 0.28302,12.10646 1.71504,3.41783 4.51816,5.84861 8.28475,7.18436 1.5626,0.55411 2.45601,0.65392 4.98007,0.55632 2.62843,-0.10164 3.3866,-0.26436 5.21204,-1.1186 z m -64.04876,-33.05688 c -3.93842,-0.65626 -7.17146,-2.27246 -10.12739,-5.0627 -5.69818,-5.37876 -7.60167,-13.3136 -4.98188,-20.76738 1.90669,-5.42487 6.89012,-10.19163 12.46524,-11.92327 10.86156,-3.37361 22.4761,3.45708 24.8051,14.58825 2.78778,13.32386 -8.76273,25.39767 -22.16107,23.1651 z m 7.76086,-5.73003 c 6.41511,-2.19028 10.56663,-9.03261 9.46218,-15.59507 -1.0387,-6.17172 -5.77046,-10.90348 -11.94218,-11.94217 -4.39754,-0.74011 -9.04204,0.85675 -12.23834,4.20774 -4.28744,4.49494 -5.26896,10.66015 -2.57246,16.15831 3.11975,6.36117 10.58953,9.45918 17.2908,7.17119 z m -92.15999,-36.62772 c 17.141869,-3.4928 36.36478,-5.89609 57.59999,-7.20129 2.816,-0.17308 11.29403,-0.48646 18.84006,-0.69639 36.79514,-1.02365 71.72227,2.16268 105.63994,9.63733 3.872,0.85329 7.14824,1.44986 7.28052,1.3257 0.37778,-0.35457 2.71254,-9.92108 3.75666,-15.3927 2.32776,-12.19834 3.03603,-19.65981 3.00719,-31.68 -0.0256,-10.65026 -0.32246,-13.16109 -2.2307,-18.86436 -2.28308,-6.82358 -6.25818,-13.07663 -12.29367,-19.33857 -10.00358,-10.37895 -23.53242,-18.43276 -40.82101,-24.30104 -11.12098,-3.77481 -22.86139,-6.189 -37.09899,-7.6287 -5.60382,-0.56665 -27.03617,-0.56665 -32.64,0 -14.23759,1.4397 -25.978,3.85389 -37.09897,7.6287 -17.311771,5.87615 -30.719756,13.8616 -40.82102,24.31194 -6.023571,6.23174 -10.007693,12.49543 -12.293671,19.32767 -1.908236,5.70327 -2.205142,8.2141 -2.230697,18.86436 -0.02826,11.78099 0.661433,19.23363 2.872582,31.04 0.811933,4.33529 3.092685,14.04945 3.631124,15.46565 l 0.287747,0.75683 4.586457,-1.07334 c 2.522551,-0.59034 7.034458,-1.57215 10.026458,-2.18179 z m 67.09577,-12.74797 c -0.38268,-0.40735 -0.69578,-1.12863 -0.69578,-1.60286 0,-0.47424 3.76463,-10.22432 8.36585,-21.66687 4.60121,-11.44255 8.27447,-20.896 8.16279,-21.00768 -0.26334,-0.26334 -7.81254,0.91946 -14.92864,2.339 -25.33589,5.05408 -48.162531,14.02572 -68.15999,26.78918 -4.391242,2.80272 -5.548749,3.12332 -6.79111,1.88096 -1.507015,-1.50701 -1.312506,-1.88665 7.689552,-15.00829 4.609859,-6.71945 8.381558,-12.35037 8.381558,-12.51316 0,-0.16279 -3.816,-4.00338 -8.48,-8.53464 -8.181686,-7.94883 -8.48,-8.28175 -8.48,-9.46361 0,-2.01692 0.776829,-2.38234 5.993799,-2.81944 11.346681,-0.95067 25.237831,-0.10505 44.406191,2.70323 9.28992,1.36102 24.4685,4.11034 33.55427,6.07772 3.67084,0.79487 6.72773,1.39175 6.79308,1.3264 0.0653,-0.0654 -3.55006,-9.28963 -8.03426,-20.4984 -5.11097,-12.77545 -8.15309,-20.78906 -8.15309,-21.47702 0,-1.23738 1.1706,-2.4239 2.39137,-2.4239 0.38778,0 4.58036,2.39941 9.31685,5.33203 4.73648,2.93261 8.75578,5.33227 8.93178,5.33257 0.176,3.1e-4 4.19866,-2.3991 8.93924,-5.33202 5.8915,-3.64497 8.90891,-5.33258 9.53455,-5.33258 1.13362,0 2.48621,1.28009 2.48621,2.35295 0,0.43012 -3.72879,10.04867 -8.28622,21.37454 -4.55742,11.32588 -8.24528,20.63664 -8.19525,20.69058 0.05,0.054 3.09482,-0.54483 6.76621,-1.33062 20.97295,-4.48881 41.88881,-7.68378 57.87526,-8.84065 9.23455,-0.66826 23.40336,-0.18985 25.05429,0.84597 1.13261,0.71062 1.44931,1.88692 0.83302,3.09406 -0.28449,0.55724 -4.17352,4.53501 -8.64228,8.83949 -4.46877,4.30448 -8.12503,7.92541 -8.12503,8.04651 0,0.12111 3.816,5.8011 8.48,12.62221 5.02102,7.34324 8.48,12.70126 8.48,13.13564 0,0.93348 -1.20065,2.28981 -2.24,2.53045 -0.57193,0.13242 -1.30175,-0.12379 -2.56,-0.8987 -7.32781,-4.51296 -11.32404,-6.86592 -15.2,-8.94968 -14.96585,-8.04582 -32.18177,-14.32358 -50.72,-18.49498 -6.54054,-1.47173 -19.72363,-3.72081 -20.02765,-3.41678 -0.11516,0.11516 3.55207,9.61205 8.14941,21.1042 4.59733,11.49214 8.35867,21.19939 8.35852,21.57165 -1.5e-4,0.37227 -0.29873,1.05627 -0.6635,1.52 -1.25312,1.59309 -1.99889,1.31357 -11.48333,-4.30402 -4.77963,-2.83094 -8.86196,-5.07892 -9.07184,-4.9955 -0.20989,0.0834 -4.18907,2.39965 -8.84264,5.14718 -9.07031,5.35522 -9.85021,5.65248 -11.16319,4.25488 z m 13.61614,-11.73938 c 3.2855,-1.936 6.27713,-3.52 6.64808,-3.52 0.37095,0 3.38028,1.59443 6.6874,3.54317 3.30711,1.94874 6.06847,3.48762 6.13636,3.41974 0.0679,-0.0679 -2.77124,-7.35677 -6.30915,-16.19752 -3.53791,-8.84075 -6.47388,-16.03164 -6.52437,-15.97975 -0.0713,0.0733 -12.04377,29.71372 -12.83621,31.77878 -0.10038,0.26157 -0.091,0.47558 0.0209,0.47558 0.11187,0 2.89152,-1.584 6.17701,-3.52 z m -71.354435,-15.02641 c 16.523125,-8.90937 36.837885,-16.09238 56.980575,-20.14751 2.69393,-0.54235 5.20673,-0.98608 5.584,-0.98608 4.69999,0 -22.00984,-4.92081 -37.20205,-6.85382 -13.014511,-1.65593 -28.324288,-2.58609 -32.430329,-1.97036 l -1.539399,0.23085 7.224864,7.04634 c 6.708063,6.54231 7.224863,7.12664 7.224863,8.16904 0,1.14327 -0.30025,1.62095 -8.559746,13.61795 -1.302573,1.892 -2.286637,3.44 -2.18681,3.44 0.09983,0 2.30664,-1.14588 4.904032,-2.54641 z m 160.838555,2.14641 c -0.13295,-0.22 -1.77211,-2.632 -3.64257,-5.36 -6.9525,-10.13992 -7.03347,-10.27087 -7.03347,-11.37476 0,-0.95423 0.68265,-1.71476 7.21623,-8.03958 6.45366,-6.24747 7.13842,-7.00765 6.48,-7.19376 -1.16482,-0.32925 -10.52648,-0.29659 -15.61623,0.0545 -10.10287,0.69686 -23.70882,2.43008 -36.25808,4.61882 -9.63565,1.68056 -18.78192,3.47819 -18.78192,3.69144 0,0.10693 1.83454,0.52971 4.07674,0.93952 9.26319,1.69303 23.80722,5.66591 32.88353,8.98253 9.22921,3.3725 21.16715,8.76605 27.83973,12.57798 2.71063,1.54853 3.22635,1.74916 2.83604,1.10331 z M 171.533,-330.37604 c 4.20287,-10.43971 6.15081,-15.639 5.81028,-15.50832 -0.28175,0.10811 -2.97097,1.72866 -5.97603,3.6012 -3.78717,2.35989 -5.75835,3.40426 -6.42377,3.40346 -0.66495,-9.6e-4 -2.7239,-1.09804 -6.69934,-3.57016 -3.15663,-1.96295 -5.79145,-3.51688 -5.85514,-3.45318 -0.0637,0.0637 2.71625,7.19574 6.17767,15.84899 3.46142,8.65325 6.3723,15.65436 6.46863,15.55804 0.0963,-0.0963 3.02029,-7.24234 6.4977,-15.88003 z m 228.29049,202.73187 c -1.584,-0.26029 -3.96,-0.72695 -5.28,-1.03706 l -2.4,-0.56384 -0.0912,-3.27289 c -0.0502,-1.8001 0.004,-3.2729 0.12105,-3.2729 0.11674,0 0.94976,0.42048 1.8512,0.9344 6.47146,3.68957 14.02461,4.84106 18.2368,2.78026 3.29002,-1.60967 4.68723,-4.19536 4.67511,-8.65165 -0.0144,-5.30448 -2.232,-7.82333 -11.55568,-13.12554 -2.70452,-1.53798 -5.98772,-3.61059 -7.296,-4.60579 -4.15959,-3.16406 -6.32554,-6.93194 -6.65197,-11.57168 -0.53264,-7.57012 3.59981,-13.01979 11.33027,-14.94188 2.89075,-0.71875 10.27654,-0.70587 14.66042,0.0256 4.73904,0.79069 4.32,0.41601 4.32,3.86263 v 2.98319 l -2.48,-1.06674 c -3.86717,-1.6634 -7.468,-2.49088 -10.96,-2.51861 -2.38797,-0.019 -3.28023,0.10399 -4.16,0.57328 -2.98576,1.59267 -3.99456,3.46066 -3.9977,7.40257 -0.003,2.54953 0.0961,3.04736 0.8551,4.3384 1.56759,2.66646 4.04535,4.58947 10.5026,8.15116 10.64544,5.87181 14.08867,10.16362 14.07526,17.54413 -0.015,8.22205 -4.09779,13.50573 -12.05478,15.60019 -3.33204,0.87709 -9.76061,1.08013 -13.70048,0.4328 z m 49.6,0.0365 c -5.9266,-1.1744 -9.31431,-3.55129 -11.39319,-7.99379 -1.89552,-4.05059 -1.95414,-4.72182 -2.16963,-24.84426 -0.22502,-21.01428 -0.0426,-19.74188 -2.95414,-20.60651 -0.90135,-0.26767 -2.34176,-0.57993 -3.20093,-0.6939 -1.45866,-0.1935 -1.56211,-0.26807 -1.56211,-1.126 0,-0.50532 0.16361,-0.91877 0.36355,-0.91877 0.49958,0 13.99008,-1.56712 15.05475,-1.74883 l 0.85827,-0.14649 0.12925,21.82767 c 0.10963,18.512 0.2064,22.14999 0.63702,23.9496 1.36672,5.71123 4.44944,8.50845 9.75543,8.85194 2.60297,0.16848 5.73549,-0.34343 7.44825,-1.21722 1.69047,-0.8624 3.65821,-3.17113 4.40583,-5.16931 1.21331,-3.24288 1.34765,-5.93536 1.34765,-27.01053 v -20.29679 h 2.73635 2.73638 l -0.11657,21.84 c -0.10282,19.26432 -0.18045,22.07866 -0.65815,23.86362 -1.61693,6.04144 -4.98288,9.55427 -10.61801,11.08128 -2.68378,0.72726 -9.91639,0.92972 -12.8,0.35833 z m 211.2,-0.015 c -4.50227,-0.83248 -7.50851,-2.39318 -10.1913,-5.29091 -4.35654,-4.7056 -6.29177,-11.89373 -6.28608,-23.34877 0.006,-11.93539 1.88471,-18.97338 6.33479,-23.73054 3.68153,-3.93559 7.93392,-5.47019 15.26259,-5.50797 5.03926,-0.026 7.24937,0.40521 10.72,2.09146 7.64189,3.7129 11.38813,14.14577 10.7791,30.01867 -0.45997,11.98803 -3.23939,19.06345 -9.06246,23.06985 -3.97018,2.73152 -11.29127,3.85668 -17.55664,2.69821 z m 10.53705,-4.61289 c 5.51556,-2.7153 7.5344,-9.03428 7.54032,-23.60125 0.005,-13.05642 -1.39382,-19.14803 -5.29452,-23.05159 -2.17072,-2.17232 -5.11232,-3.16826 -8.51511,-2.88298 -6.72905,0.56414 -10.57299,5.67232 -11.78598,15.66234 -0.44144,3.63568 -0.44323,15.38743 -0.003,19.01332 0.67437,5.55292 2.20473,9.76294 4.49453,12.36428 2.45219,2.78583 4.88179,3.78586 8.83603,3.63693 2.17917,-0.0821 2.95872,-0.27024 4.72761,-1.14105 z m -182.53705,-21.16557 c 0,-27.81979 0.0641,-26.89633 -1.95296,-28.12299 -0.56733,-0.34501 -2.01597,-0.80322 -3.21927,-1.01826 -2.09833,-0.37499 -2.18777,-0.42813 -2.18777,-1.29973 v -0.90875 l 13.04,0.003 c 7.37132,0.001 13.94419,0.14567 15.12,0.33194 4.59888,0.72858 8.91744,3.72468 10.6512,7.38953 1.21936,2.57751 1.59616,4.49039 1.59872,8.11611 0.006,8.25405 -3.14999,12.79322 -10.26151,14.75978 -1.23376,0.34118 -3.83184,0.56051 -7.98841,0.67434 l -6.16,0.1687 v 12.59859 12.59859 h -4.32 -4.32 v -25.29027 z m 18.72,-4.73402 c 2.0575,-0.93526 3.79273,-2.63712 4.59843,-4.51001 2.14595,-4.98839 1.47699,-12.92147 -1.31767,-15.62578 -1.92633,-1.86406 -3.78323,-2.44849 -7.83257,-2.46515 -3.50688,-0.0144 -3.61277,0.006 -4.48,0.87208 l -0.88819,0.88685 -0.096,10.90492 -0.0959,10.90493 4.25594,-0.12025 c 3.57795,-0.10112 4.51088,-0.23616 5.85597,-0.84759 z m 24.7326,4.50429 c -0.0869,-23.95498 -0.12825,-25.58532 -0.67385,-26.58521 -0.67399,-1.23513 -2.04429,-1.90103 -4.93875,-2.40001 -1.89444,-0.32658 -2,-0.39202 -2,-1.23978 v -0.895 h 18.83814 18.83811 l 0.19837,1.2 c 0.10909,0.66 0.19991,3.468 0.20186,6.24 l 0.004,5.04 h -0.92999 c -0.87987,0 -0.94211,-0.0905 -1.15548,-1.68 -0.42564,-3.1705 -1.47351,-4.8405 -3.83453,-6.11114 -1.19034,-0.6406 -1.73591,-0.68886 -7.78711,-0.68886 h -6.5071 l -0.7729,0.89784 -0.77289,0.89785 v 9.77266 9.77267 l 5.84,-0.11731 c 6.39702,-0.12851 7.08697,-0.30134 8.65811,-2.16851 0.44787,-0.53229 0.99194,-1.76144 1.20902,-2.73149 0.38215,-1.70758 0.42874,-1.76371 1.46378,-1.76371 h 1.06909 v 8.8 8.8 h -1.12 c -1.07965,0 -1.12026,-0.0432 -1.12704,-1.2 -0.0134,-2.29226 -1.62563,-4.74541 -3.61379,-5.49869 -0.5162,-0.19558 -3.35133,-0.34131 -6.64,-0.34131 h -5.73917 v 10.70493 c 0,11.32358 0.077,11.97584 1.49033,12.61977 0.99856,0.45498 13.58125,0.47629 15.20333,0.0256 2.17047,-0.60284 4.10634,-3.86918 4.10634,-6.92851 0,-1.00889 0.0584,-1.06192 1.16979,-1.06192 h 1.16976 l -0.20861,4.56 c -0.11472,2.508 -0.20912,5.244 -0.20976,6.08 v 1.52 h -15.66787 -15.66739 l -0.0926,-25.52 z m 43.84001,0 c -0.087,-23.95498 -0.12826,-25.58532 -0.67386,-26.58521 -0.67398,-1.23513 -2.04429,-1.90103 -4.93875,-2.40001 -1.89443,-0.32658 -2,-0.39202 -2,-1.23978 v -0.895 l 11.44,0.003 c 6.292,0.002 12.736,0.14688 14.32,0.3232 7.56169,0.84169 12.55501,3.72684 14.82237,8.56439 0.8022,1.71152 0.85763,2.11935 0.85763,6.30979 0,4.18227 -0.0566,4.60067 -0.85133,6.29603 -1.67037,3.5632 -4.93734,6.08739 -9.07805,7.01405 -0.96285,0.21545 -1.75062,0.46182 -1.75062,0.54748 0,0.15792 10.41097,20.08951 13.03302,24.9514 l 1.42858,2.64899 -4.55258,-0.089 -4.55257,-0.089 -6.93223,-12.96 -6.93219,-12.96 -2.46602,-0.0935 -2.46601,-0.0934 v 13.13344 13.13348 h -4.30739 -4.3074 l -0.0926,-25.52 z m 19.17804,-5.43187 c 4.90695,-1.93715 7.16327,-6.62237 6.19492,-12.86355 -0.44768,-2.88523 -1.5289,-5.05805 -3.25008,-6.53133 -1.79348,-1.53514 -3.7106,-2.14617 -7.33549,-2.33799 -2.53187,-0.13398 -3.22647,-0.0635 -4.15555,0.42193 -1.88442,0.9845 -1.91453,1.17626 -1.91975,12.21913 l -0.005,10.03632 4.4,-0.1425 c 3.44503,-0.11155 4.76259,-0.2856 6.07066,-0.80201 z m 28.18388,5.91187 c -0.0887,-23.48896 -0.13053,-25.10598 -0.67578,-26.10521 -0.6849,-1.25515 -1.89469,-1.82523 -5.00544,-2.35867 -2.16179,-0.3707 -2.25331,-0.42274 -2.25331,-1.28126 0,-0.49217 0.16361,-0.89486 0.36355,-0.89486 0.50896,0 14.00259,-1.56912 15.07645,-1.75317 l 0.88,-0.15083 v 28.792 28.792 h -4.14547 -4.14548 z m 76.22496,-0.32 c 0,-23.50282 -0.0415,-25.44202 -0.56,-26.48 -0.68615,-1.37356 -2.65229,-2.43559 -5.06775,-2.73737 -1.65942,-0.20734 -1.73174,-0.25615 -1.73174,-1.16908 v -0.9527 l 13.36,0.15214 c 10.59939,0.12071 13.7945,0.25557 15.46278,0.65267 8.38074,1.99482 12.25453,6.06451 12.69248,13.33434 0.45738,7.59235 -3.07779,12.65094 -10.07526,14.41699 -0.924,0.23319 -1.68,0.55034 -1.68,0.70477 0,0.15443 3.168,6.30963 7.04,13.67824 3.872,7.36861 7.04,13.47904 7.04,13.57872 0,0.0997 -1.98,0.18035 -4.4,0.17926 l -4.4,-0.003 -6.99923,-13.11795 -6.9992,-13.11798 h -2.5208 -2.52077 v 13.12 13.12 h -4.32 -4.32 v -25.36 z m 17.34477,-5.07981 c 3.43248,-0.72829 5.84464,-2.50726 7.32227,-5.40019 0.57632,-1.12832 0.76528,-2.12243 0.87302,-4.59306 0.23456,-5.37748 -1.12502,-8.71074 -4.34006,-10.64032 -2.60275,-1.56211 -7.18407,-2.1939 -10.07898,-1.38994 -2.23158,0.61975 -2.30717,1.00697 -2.41734,12.38332 l -0.0969,10 h 3.52109 c 1.93661,0 4.28419,-0.16192 5.21687,-0.35981 z m 29.30841,5.07981 c -0.0826,-22.61139 -0.14909,-25.48408 -0.61331,-26.50486 -0.62461,-1.3735 -2.06899,-2.1406 -4.96451,-2.63658 -1.93168,-0.33088 -2.03485,-0.39393 -2.03485,-1.24356 v -0.895 h 18.83258 18.83257 l 0.20551,2.64 c 0.11302,1.452 0.20636,4.26 0.20742,6.24 l 0.003,3.6 h -0.92269 c -0.94253,0 -1.30016,-0.56582 -1.31472,-2.08 -0.0221,-2.29327 -1.45478,-4.52931 -3.64285,-5.68532 -1.18252,-0.62477 -1.91673,-0.70984 -7.0614,-0.81815 -3.57316,-0.0752 -6.18058,0.0106 -6.90378,0.2273 -2.02064,0.60539 -2.07456,0.90496 -2.07456,11.52369 v 9.47248 l 5.92,-0.003 c 4.97197,-0.003 6.08045,-0.0899 6.92189,-0.54848 1.54611,-0.84256 2.59229,-2.31062 3.02525,-4.24525 0.38214,-1.70758 0.42873,-1.76371 1.46377,-1.76371 h 1.06909 v 8.8 8.8 h -1.12 c -1.00806,0 -1.12019,-0.088 -1.12179,-0.88 -0.005,-2.44819 -1.4753,-4.91389 -3.41299,-5.72352 -0.75479,-0.31536 -2.69024,-0.43648 -6.97495,-0.43648 h -5.93027 l 0.003,9.36 c 0.003,9.64483 0.26106,12.79955 1.12221,13.66186 0.75721,0.75824 14.1112,0.91494 16.01485,0.18793 2.30195,-0.87913 3.46473,-2.70669 3.85958,-6.06617 l 0.20963,-1.78362 h 1.12419 1.1242 l -0.2066,3.12 c -0.11363,1.716 -0.20736,4.452 -0.20825,6.08 l -0.003,2.96 h -15.66733 -15.6673 l -0.0927,-25.36 z m -280.57267,-69.85761 c -3.47524,-0.7464 -7.01437,-2.70708 -9.20839,-5.10146 -4.49894,-4.90979 -6.28723,-11.61065 -6.27718,-23.52093 0.0106,-12.65194 2.02512,-19.59232 7.05737,-24.31488 3.62967,-3.40631 7.86039,-4.80869 14.4794,-4.79956 7.07891,0.01 11.07158,1.38359 14.78131,5.08607 4.75923,4.74993 6.68371,11.71466 6.68371,24.18837 0,9.55121 -0.91907,14.62483 -3.57827,19.75351 -2.31779,4.47022 -6.41312,7.51785 -11.68112,8.6928 -2.85155,0.636 -9.33088,0.6445 -12.25683,0.0161 z m 9.76,-3.68749 c 4.61795,-1.23218 7.67062,-6.03633 8.82915,-13.8949 0.54368,-3.68772 0.55417,-17.88892 0.016,-21.50175 -1.2488,-8.38214 -3.98339,-12.90426 -8.74951,-14.46879 -0.65142,-0.21384 -2.32102,-0.3863 -3.71024,-0.38325 -9.17936,0.0202 -13.18534,7.6624 -13.18534,25.15379 0,14.92016 2.95139,22.63579 9.56234,24.99821 1.41686,0.50633 5.49808,0.56085 7.23766,0.0967 z m -76.06724,-21.9749 c -0.0835,-22.69069 -0.14528,-25.29567 -0.62,-26.16076 -0.87145,-1.588 -1.65363,-2.0662 -4.5486,-2.78088 -2.66244,-0.65728 -2.76416,-0.71581 -2.76416,-1.59038 v -0.90798 h 8.26697 8.26698 l 12.28125,22.59214 c 6.75468,12.42568 12.46198,22.82968 12.68284,23.12 0.32333,0.42498 0.40359,-3.97842 0.41178,-22.59214 l 0.0102,-23.12 h 2.4 2.4 v 28.32 28.32 h -3.81418 -3.81418 l -12.8479,-23.6 c -7.06637,-12.98 -12.98198,-23.7368 -13.14582,-23.904 -0.18394,-0.1877 -0.29792,8.8409 -0.29792,23.6 v 23.904 h -2.38724 -2.38726 z m 106.23815,-0.32 c -0.0878,-24.64212 -0.11235,-25.55545 -0.71437,-26.55065 -0.70035,-1.15769 -1.97485,-1.76434 -4.92701,-2.34514 -1.88797,-0.37143 -1.99779,-0.44224 -1.90646,-1.22917 l 0.0969,-0.83504 8.48,-0.0917 c 9.82473,-0.10619 18.46646,0.32889 21.44,1.07943 4.91001,1.2393 8.53619,3.81712 10.231,7.27308 1.69066,3.44754 1.90375,8.68929 0.51341,12.6299 -1.19795,3.3954 -4.28726,6.12311 -8.19232,7.23339 -1.13965,0.32403 -2.25603,0.64165 -2.48086,0.70582 -0.29687,0.0847 -0.17619,0.57842 0.44077,1.80335 1.15817,2.29936 10.77456,20.64663 12.33574,23.53555 l 1.25853,2.32886 -4.55296,-0.0889 -4.55299,-0.0889 -6.93146,-12.96 -6.93146,-12.96 -2.4487,-0.0935 -2.4487,-0.0935 v 13.13366 13.13346 h -4.30909 -4.30909 z m 18.87952,-5.27258 c 1.67241,-0.54564 2.51165,-1.06166 3.78067,-2.32462 2.2231,-2.21244 2.85853,-4.08841 2.81907,-8.3228 -0.0634,-6.8026 -2.82947,-10.16611 -9.08134,-11.04263 -4.05261,-0.56818 -6.69923,0.13934 -7.33415,1.96066 -0.23008,0.66002 -0.35468,4.50285 -0.35468,10.93849 v 9.92102 l 4.01043,-0.2144 c 2.77309,-0.14825 4.6736,-0.43077 6.16,-0.91572 z m 27.83885,5.59258 c -0.0841,-23.73941 -0.12346,-25.26873 -0.67904,-26.38586 -0.68999,-1.38739 -2.23354,-2.21498 -5.26695,-2.82387 -1.89843,-0.38107 -2.011,-0.45364 -1.92,-1.23754 l 0.0967,-0.83273 h 8.92365 8.92364 l 7.8442,23.29617 c 4.3143,12.81289 7.94502,23.18089 8.06828,23.04 0.20077,-0.22954 11.57354,-34.49311 14.2912,-43.05617 l 1.09175,-3.44 h 5.26864 5.26864 v 28.32 28.32 h -3.84 -3.84 v -25.01333 c 0,-13.75734 -0.108,-24.91021 -0.24,-24.78415 -0.132,0.12605 -3.91773,11.34605 -8.41271,24.93333 l -8.17267,24.70415 -2.86733,0.0904 -2.86729,0.0904 -8.32,-24.89037 -8.32,-24.89038 -0.082,24.88 -0.082,24.88 h -2.38873 -2.38877 z m 61.19072,24.92765 c 0,-0.16521 3.59088,-10.76709 7.97974,-23.55972 4.38887,-12.79263 8.20749,-24.16746 8.48586,-25.27741 0.80381,-3.20509 -0.18688,-4.63165 -3.69584,-5.322 -1.78099,-0.35039 -1.88976,-0.42464 -1.88976,-1.29016 v -0.91836 h 7.29046 7.29047 l 6.99558,20.56 c 3.84758,11.308 8.19283,24.052 9.65616,28.32 l 2.66054,7.76 -4.06662,-0.003 -4.06659,-0.003 -2.89495,-8.55656 -2.89494,-8.55657 -10.22506,-0.0818 -10.22505,-0.0818 -2.88,8.56181 -2.88,8.5618 -2.32,0.094 c -1.29914,0.0527 -2.32,-0.0382 -2.32,-0.20637 z m 29.44,-20.94508 c 0,-0.0536 -1.9481,-5.41758 -4.32909,-11.92 -2.38099,-6.50241 -4.40666,-12.03857 -4.5015,-12.30257 -0.15328,-0.42667 -0.20141,-0.42667 -0.43322,0 -0.27392,0.5042 -8.33619,23.86331 -8.33619,24.15273 0,0.092 3.96,0.16727 8.8,0.16727 4.84,0 8.8,-0.0438 8.8,-0.0974 z m 24.88934,-3.82257 c -0.0818,-22.92759 -0.13555,-25.12439 -0.63705,-26.04034 -0.58109,-1.06131 -2.09108,-1.83682 -4.27626,-2.19621 -3.11846,-0.51289 -3.05949,-0.48509 -2.95443,-1.39292 l 0.0984,-0.85053 7.36,-0.86372 c 4.048,-0.47504 7.756,-0.87104 8.24,-0.88 l 0.88,-0.0163 v 26.08 c 0,30.08223 -0.36451,27.13295 3.40329,27.53645 2.77104,0.29675 12.06663,-0.0345 13.59968,-0.48462 2.46717,-0.7244 4.0288,-2.86899 4.34912,-5.97266 0.17703,-1.71522 0.18,-1.71917 1.28999,-1.71917 0.9976,0 1.09264,0.0744 0.91962,0.72 -0.10615,0.396 -0.19492,3.06 -0.19732,5.92 l -0.004,5.2 h -15.99104 -15.99065 z m 43.19984,-0.48 c -0.0817,-23.3809 -0.1351,-25.60385 -0.63689,-26.52034 -0.62064,-1.13353 -1.98634,-1.782 -5.00275,-2.37545 -1.88797,-0.37143 -1.9978,-0.44224 -1.90647,-1.22917 l 0.0969,-0.83504 h 18.88 18.88 l 0.0869,6.16 0.0869,6.16 h -0.92569 c -0.87319,0 -0.93811,-0.0938 -1.14506,-1.65371 -0.44237,-3.33475 -1.78637,-5.28365 -4.3175,-6.26061 -1.21175,-0.46771 -2.49088,-0.56568 -7.38557,-0.56568 -6.376,0 -7.13302,0.16136 -7.69533,1.64029 -0.16784,0.4415 -0.30467,5.03123 -0.30467,10.22054 v 9.41917 l 5.68,-0.007 c 4.84611,-0.006 5.87258,-0.0945 6.99165,-0.60271 1.61024,-0.73128 2.59299,-2.05701 3.09667,-4.17734 0.3633,-1.52946 0.43718,-1.61292 1.42742,-1.61292 h 1.04426 v 8.82027 8.82028 l -1.04,-0.10028 c -0.99178,-0.0956 -1.04912,-0.17504 -1.2368,-1.71264 -0.3311,-2.71252 -1.3511,-4.17056 -3.56464,-5.09543 -0.9081,-0.37942 -2.46346,-0.49219 -6.78829,-0.49219 h -5.61027 v 10.73589 c 0,11.33419 0.1,12.18245 1.50816,12.79551 0.94054,0.40946 11.31328,0.56513 13.62941,0.20455 1.18272,-0.18414 2.5623,-0.63135 3.07603,-0.99715 1.224,-0.87157 2.26515,-3.07872 2.49283,-5.28456 0.18205,-1.76397 0.18935,-1.77424 1.25834,-1.77424 h 1.07523 l -0.003,3.76 c 0,2.068 -0.0941,4.732 -0.20627,5.92 l -0.204,2.16 h -15.62455 -15.62454 l -0.0892,-25.52 z m -309.36918,-72.09755 c -2.45722,-0.30198 -6.2609,-1.02835 -8.4,-1.60412 l -1.2,-0.323 v -3.29889 -3.2989 l 3.32489,1.66671 c 4.37127,2.19121 7.83488,3.13888 11.55511,3.16153 4.57942,0.0279 7.29609,-1.28681 8.95657,-4.33442 0.77789,-1.42769 0.95485,-2.17716 1.06755,-4.52144 0.28132,-5.85016 -1.71001,-8.29253 -11.14601,-13.67064 -5.79389,-3.30226 -7.99418,-4.85561 -10.27808,-7.25603 -2.77981,-2.92162 -4.12003,-6.1989 -4.12003,-10.07473 0,-6.96426 3.9038,-12.00015 10.73744,-13.85126 3.97385,-1.07645 11.54272,-0.96518 17.58256,0.25849 l 1.92,0.389 0.092,2.94762 c 0.0506,1.6212 0.007,2.94763 -0.0975,2.94763 -0.10426,0 -1.21674,-0.43712 -2.47222,-0.97137 -4.83847,-2.05895 -10.99834,-3.05091 -13.95124,-2.24665 -1.88803,0.51422 -4.02828,2.53829 -4.66739,4.41402 -0.58317,1.71145 -0.62285,4.90851 -0.0793,6.3829 1.09251,2.96329 3.83753,5.42471 9.6208,8.62688 12.22662,6.76979 15.53913,10.69312 15.55104,18.41847 0.0128,8.20903 -4.18727,13.53672 -12.30871,15.61383 -2.85782,0.73091 -8.40793,1.02741 -11.68748,0.62437 z m 49.6,-0.0106 c -10.04736,-1.28966 -15.85143,-7.96999 -17.76916,-20.45186 -0.71212,-4.63492 -0.62883,-14.37238 0.16256,-19.00142 1.72746,-10.10446 6.31104,-15.841 14.4066,-18.03036 2.93075,-0.79258 10.83948,-0.79096 13.76,0.003 4.6783,1.27155 7.94832,3.67888 9.57619,7.04981 0.52566,1.08853 1.05008,2.51914 1.16537,3.17914 l 0.20967,1.2 h -4.6633 -4.66326 l -0.36573,-1.3582 c -0.52781,-1.96013 -1.37088,-3.45891 -2.59091,-4.60597 -1.9512,-1.83452 -2.9969,-2.19598 -6.34803,-2.19429 -2.68196,0.001 -3.23309,0.10322 -4.67946,0.86485 -3.20096,1.68556 -5.61552,5.41009 -6.82675,10.53047 -1.32563,5.60375 -1.57069,14.02629 -0.61216,21.0369 1.72035,12.58246 7.88528,18.99783 17.44061,18.14911 3.9495,-0.3508 8.36406,-1.85145 11.07776,-3.76569 l 0.88,-0.62076 v 2.5775 2.5775 l -1.11629,0.46642 c -1.93754,0.80955 -7.56394,2.06647 -10.79111,2.41071 -3.49932,0.37326 -5.24208,0.36974 -8.2526,-0.0167 z m 46.14172,0.005 c -7.76281,-1.00783 -12.13382,-4.70561 -14.03484,-11.87321 -0.46154,-1.74013 -0.56266,-4.64597 -0.7218,-20.7436 -0.14179,-14.34041 -0.28089,-18.88767 -0.59456,-19.43669 -0.59043,-1.03335 -1.93571,-1.62597 -4.77513,-2.10353 -2.32621,-0.39124 -2.50211,-0.47647 -2.59447,-1.25727 -0.0906,-0.76547 0.0195,-0.85397 1.28,-1.02802 1.69642,-0.23427 14.733,-1.77072 15.04292,-1.77291 0.1231,-9.6e-4 0.27622,9.97042 0.34025,22.15842 0.12256,23.3298 0.12775,23.41718 1.60173,26.86067 0.76784,1.79386 2.92966,3.93899 4.80154,4.76445 1.37123,0.6047 2.24928,0.74019 4.87264,0.75187 6.58454,0.0293 9.84848,-2.32739 11.48976,-8.29615 0.57289,-2.08337 0.62572,-3.75314 0.7518,-23.76084 l 0.13562,-21.52 h 2.71178 2.7118 l -0.12633,21.36 c -0.1352,22.86543 -0.13504,22.86304 -1.82739,27.35893 -0.79783,2.11943 -3.2434,4.98032 -5.2752,6.17105 -3.77213,2.21061 -9.90858,3.13042 -15.79012,2.36683 z m 52.46986,0.0205 c -5.69888,-0.8001 -10.32307,-3.48804 -13.03853,-7.57905 -2.91373,-4.38969 -4.22409,-9.85895 -4.50893,-18.8196 -0.72972,-22.95364 6.27812,-32.52057 23.25905,-31.75266 6.12374,0.27693 10.09542,1.94751 13.58124,5.71259 4.1857,4.52108 6.25559,12.35788 6.25559,23.68441 0,16.73937 -4.70403,25.68894 -14.85923,28.27008 -2.37936,0.60475 -8.01293,0.85996 -10.68919,0.48423 z m 8.90691,-4.50721 c 1.9649,-0.84527 4.41357,-3.39478 5.50356,-5.73013 1.84518,-3.95354 2.4927,-8.7747 2.4927,-18.56 0,-7.59651 -0.32173,-11.37202 -1.29101,-15.15066 -1.18256,-4.60996 -3.37689,-7.77901 -6.53091,-9.43179 -1.44726,-0.75842 -1.95773,-0.84483 -4.97283,-0.84181 -2.90634,0.003 -3.57603,0.10872 -4.96,0.78359 -4.28301,2.08858 -6.88234,6.97357 -7.82848,14.71228 -0.42861,3.50574 -0.42784,15.40017 0,18.89678 1.13491,9.24897 4.27875,14.30426 9.88464,15.89463 1.97619,0.56063 5.71225,0.2827 7.70112,-0.57289 z m 29.43965,-19.89014 c 0,-13.72723 -0.13216,-24.55562 -0.31043,-25.64422 -0.47094,-2.87587 -1.22349,-3.46922 -5.28771,-4.16923 -2.05341,-0.35367 -2.24819,-0.45487 -2.33824,-1.21497 -0.11559,-0.9755 -0.4688,-0.89333 7.93824,-1.84669 3.08,-0.34928 6.212,-0.71809 6.96,-0.81958 l 1.36,-0.18453 0.0192,24.73961 c 0.0106,13.60679 0.13309,25.43308 0.27248,26.28064 0.43821,2.66525 0.28057,2.61897 8.9207,2.61897 6.95459,0 7.69283,-0.0534 8.8472,-0.64 2.00954,-1.02117 3.07072,-2.62052 3.48519,-5.25262 0.34329,-2.18019 0.3912,-2.26738 1.24617,-2.26738 h 0.88919 v 6.08 6.08 h -16 -16 l -0.003,-23.76 z m 38.70938,19.2 c 0.84809,-2.508 4.24189,-12.408 7.54176,-22 3.29987,-9.592 6.41779,-18.736 6.92867,-20.32 1.78496,-5.53413 1.20688,-6.88951 -3.33795,-7.82617 -1.63095,-0.33612 -1.84,-0.46752 -1.84,-1.15652 v -0.77731 h 7.47619 7.47622 l 5.36068,15.76 c 2.94838,8.668 7.28211,21.412 9.63046,28.32 l 4.26976,12.56 h -4.07101 -4.07104 l -2.90003,-8.72 -2.90006,-8.72 -10.22164,-0.0843 -10.22163,-0.0843 -1.71661,5.20433 c -0.94412,2.86239 -2.28838,6.82434 -2.98726,8.80434 l -1.27062,3.6 h -2.34394 -2.3439 z m 27.24713,-19.36 c -0.50009,-1.364 -2.53657,-6.91906 -4.5255,-12.34458 -2.1337,-5.82049 -3.71088,-9.69052 -3.84714,-9.44 -0.23865,0.43875 -8.30201,23.86679 -8.30201,24.12145 0,0.0787 3.95638,0.14313 8.79193,0.14313 h 8.79197 z M 82.904914,-406.55832 c -0.158105,-0.4139 -4.426246,-10.90454 -9.484752,-23.31254 -5.058509,-12.408 -9.261613,-22.78779 -9.340237,-23.06621 -0.104637,-0.37055 0.327475,-0.6795 1.612355,-1.15282 l 1.755303,-0.6466 0.882051,2.11282 c 6.247546,14.96505 17.497386,29.31352 24.003285,30.6147 1.34853,0.2697 2.6236,-0.86875 4.04669,-3.61309 3.46782,-6.68751 4.602991,-16.59862 3.57448,-31.2088 l -0.17458,-2.48 h 1.929661 1.92965 l 0.31408,1.2 c 0.17275,0.66 0.60728,2.36419 0.96564,3.78709 1.7156,6.812 5.25189,15.60035 7.73406,19.2206 3.31591,4.83627 7.46878,7.68449 9.99081,6.85214 1.16277,-0.38375 2.94733,-2.11168 3.98633,-3.85983 0.95683,-1.60989 2.18559,-5.46605 2.8041,-8.8 0.63937,-3.44633 0.96548,-14.59114 0.55581,-18.99451 -0.19019,-2.04423 -0.1719,-3.03392 0.0576,-3.11867 0.18492,-0.0683 1.03804,-0.16075 1.89583,-0.20549 l 1.55961,-0.0813 1.09523,4.16 c 1.8068,6.86278 4.86234,15.61978 6.87311,19.69791 1.4894,3.02072 2.3144,4.26612 3.8819,5.86002 2.68756,2.73284 4.213,3.25191 8.65713,2.94583 3.89385,-0.26819 4.59017,-0.67485 5.95073,-3.47532 1.24656,-2.56581 1.72686,-5.66793 1.47219,-9.50844 -0.39925,-6.02074 -1.41726,-9.98756 -3.97997,-15.50851 -0.73233,-1.57768 -1.56124,-3.65876 -1.84202,-4.62462 -0.95906,-3.29907 0.0159,-8.53277 2.61307,-14.02749 2.10342,-4.45008 4.1506,-7.15298 6.43119,-8.49114 0.58658,-0.34418 2.93845,1.6386 4.41839,3.725 2.71853,3.83251 4.84775,8.9822 5.62379,13.60158 0.53103,3.16094 0.11202,5.15943 -2.0914,9.97497 -2.12584,4.646 -3.1921,8.23598 -3.64049,12.25722 -0.70406,6.3141 -0.19641,10.64362 1.57563,13.43785 1.36203,2.14769 1.9681,2.42488 5.81697,2.66038 3.16627,0.19372 3.47578,0.15689 5.1597,-0.61403 3.58325,-1.64047 6.00882,-5.00927 9.037,-12.55121 1.70824,-4.25454 4.71503,-13.83303 5.60947,-17.86967 l 0.41428,-1.86968 1.78244,0.22056 c 0.98034,0.1213 1.82918,0.26541 1.88632,0.32023 0.0571,0.0548 -0.0539,2.52492 -0.24666,5.48911 -0.91506,14.06843 1.79743,25.98542 6.54843,28.76969 1.66026,0.97297 2.13263,0.96982 4.2773,-0.0285 5.67176,-2.64027 10.89234,-12.07097 14.5582,-26.29864 l 1.0546,-4.09305 1.98522,-0.0956 1.98521,-0.0956 -0.24548,1.6956 c -0.13501,0.93259 -0.24453,5.29561 -0.24338,9.69561 0.003,11.0799 1.02752,17.18903 3.74539,22.33127 1.04492,1.97702 2.78841,3.74889 3.68842,3.74848 1.43965,-6.4e-4 4.63973,-1.99255 7.29371,-4.53996 6.68243,-6.41412 13.00626,-16.23312 17.52461,-27.21046 l 0.49009,-1.19067 1.70023,0.68838 c 0.93512,0.37861 1.74563,0.71983 1.80114,0.75826 0.0555,0.0384 -0.42761,1.34446 -1.07358,2.90229 -0.64598,1.55783 -4.984,12.18902 -9.64005,23.62488 -4.65605,11.43585 -8.49304,20.81995 -8.52665,20.85356 -0.0336,0.0336 -2.581,-0.64779 -5.66087,-1.51421 -25.82553,-7.26518 -59.32342,-11.31553 -84.71457,-10.24316 -24.14256,1.01965 -48.33346,4.71999 -68.552803,10.48613 -2.193187,0.62546 -4.171187,1.20764 -4.395552,1.29373 -0.224627,0.0862 -0.537116,-0.18161 -0.695411,-0.59598 z m 9.238575,-5.81463 c 18.866611,-4.93284 41.382341,-8.20064 63.359991,-9.19569 25.90394,-1.17282 60.16149,2.89527 86.66859,10.29191 1.29173,0.36045 2.40561,0.59834 2.47531,0.52865 0.15135,-0.15135 6.8561,-16.60336 6.8561,-16.8234 0,-0.0839 -1.28978,1.16334 -2.86618,2.77158 -5.6504,5.76453 -10.51362,7.82043 -14.10547,5.96302 -2.44247,-1.26305 -5.04574,-5.5607 -6.52657,-10.77446 -0.85726,-3.01829 -1.77916,-8.62385 -1.78614,-10.86058 -0.01,-3.12573 -0.31361,-3.06821 -1.75889,0.33294 -3.12066,7.34385 -7.02841,12.24351 -11.79121,14.7842 -1.62528,0.867 -2.32561,1.05105 -4.04554,1.0632 -6.20607,0.0439 -10.47436,-6.50091 -12.08858,-18.53598 l -0.55752,-4.1567 -1.87373,4.70623 c -3.31863,8.33536 -6.28121,12.3405 -10.66365,14.41626 -2.15338,1.01996 -2.22447,1.0304 -6.6881,0.98212 -3.84662,-0.0416 -4.70004,-0.14494 -5.79029,-0.70115 -2.09957,-1.07112 -4.36183,-4.08203 -5.20692,-6.93006 -0.2089,-0.704 -0.45372,-1.496 -0.54405,-1.76 -0.0929,-0.27164 -0.40585,0.28397 -0.72085,1.28 -1.10893,3.50633 -2.79032,5.92999 -5.02066,7.23705 -1.335,0.78237 -1.67693,0.83122 -6.12976,0.87577 -4.60042,0.046 -4.7629,0.0244 -6.63589,-0.88435 -1.23441,-0.5989 -2.73586,-1.75507 -4.20484,-3.23787 -1.87987,-1.89756 -2.62188,-2.98023 -4.18644,-6.10847 -1.04588,-2.09117 -2.39173,-5.17013 -2.99077,-6.84213 l -1.08916,-3.04 -0.22559,1.28 c -0.12408,0.704 -0.45942,2.84366 -0.74519,4.75479 -0.93991,6.28554 -2.95319,11.2451 -5.66613,13.95805 -2.01308,2.01307 -3.5487,2.70355 -6.01188,2.70318 -1.62469,-2.5e-4 -2.48584,-0.19683 -3.93403,-0.89804 -2.20781,-1.06903 -5.16765,-3.72937 -7.34081,-6.59798 -1.43546,-1.89484 -4.61545,-7.79772 -5.68886,-10.56 l -0.43523,-1.12 -0.0974,1.12 c -0.46512,5.34642 -0.92489,8.61423 -1.57582,11.2 -2.3051,9.15692 -6.103171,13.70953 -10.803851,12.95022 -3.18461,-0.51443 -5.921597,-2.28913 -10.198071,-6.61259 -1.712765,-1.73157 -2.987149,-2.82192 -2.831971,-2.42297 0.155178,0.39894 1.608509,3.96534 3.229626,7.92534 1.621116,3.96 3.078067,7.54013 3.237673,7.95583 0.194003,0.50531 0.473914,0.70453 0.844487,0.60104 0.304834,-0.0851 3.074266,-0.81367 6.154266,-1.61896 z m 73.578701,-38.50224 c 0.60095,-2.92112 1.90876,-6.569 4.05683,-11.31567 1.05233,-2.32538 1.225,-3.02176 1.19016,-4.8 -0.0686,-3.49873 -2.34247,-9.56572 -4.89825,-13.06886 -0.99616,-1.3654 -1.02427,-1.37891 -1.6646,-0.8 -1.13324,1.02455 -4.04374,7.43993 -4.76761,10.50886 -0.88902,3.7691 -0.72691,5.07194 1.13587,9.12884 1.96308,4.27532 3.21892,7.98707 3.72854,11.01999 0.2214,1.31761 0.455,2.34319 0.51912,2.27908 0.0641,-0.0641 0.37909,-1.39262 0.69994,-2.95224 z m -11.96081,14.81699 c -0.6328,-0.46271 -0.64694,-0.69011 -0.32181,-5.17266 0.30274,-4.17371 -0.8268,-8.15352 -2.85001,-10.04175 -0.75587,-0.70543 -0.92242,-0.735 -2.25285,-0.4 -2.38431,0.60038 -4.95403,0.44826 -6.77846,-0.40128 -2.67868,-1.2473 -3.90456,-3.31826 -4.20084,-7.0967 -0.29487,-3.76053 1.20346,-6.09184 4.72805,-7.35652 4.26285,-1.52959 8.47988,0.65675 12.26476,6.35873 2.11262,3.18268 3.18673,5.54866 4.23905,9.33752 0.96682,3.48097 1.37026,9.33335 0.76901,11.15517 -0.51413,1.55782 -1.81512,3.06749 -3.10958,3.60834 -1.30621,0.54577 -1.75121,0.54741 -2.48732,0.009 z m -1.40603,-20.1171 c -2.30224,-3.98761 -5.48383,-6.97556 -7.42765,-6.97556 -1.22659,0 -3.10136,0.84727 -3.49268,1.57844 -0.87689,1.63848 0.0766,5.15977 1.61223,5.95386 1.10114,0.56942 2.1569,0.58559 5.11489,0.0784 2.11894,-0.36336 2.34903,-0.34431 3.44594,0.28529 1.73225,0.99427 1.80264,0.90758 0.74727,-0.92038 z m 21.54813,20.09272 c -3.51109,-1.56052 -4.35338,-6.43456 -2.4283,-14.05173 1.95102,-7.71983 5.98877,-13.74621 10.85183,-16.19647 3.37871,-1.70236 8.49898,-0.012 10.00427,3.30278 1.07365,2.36423 0.5933,6.36219 -1.06517,8.86543 -1.08152,1.63241 -3.71819,2.85364 -6.14001,2.84389 -1.06844,-0.004 -2.5906,-0.15711 -3.38258,-0.33958 -1.40317,-0.32328 -1.46546,-0.30392 -2.43817,0.75749 -1.64282,1.79262 -2.45875,4.3818 -2.49265,7.90991 -0.0161,1.672 0.093,3.70979 0.24238,4.52841 0.23664,1.29684 0.18516,1.57484 -0.4,2.16 -0.77122,0.77121 -1.39835,0.82133 -2.7516,0.21987 z m 4.72905,-19.22021 c 1.09654,-0.55798 1.41721,-0.57954 3.44594,-0.23165 2.92378,0.50137 3.98292,0.48384 5.08124,-0.0841 1.43373,-0.74141 2.42014,-3.99857 1.74431,-5.75975 -0.2679,-0.69813 -2.4336,-1.77254 -3.57293,-1.77254 -1.27887,0 -3.68403,1.68185 -5.22292,3.65224 -1.44118,1.84527 -3.43051,5.14917 -2.97646,4.94333 0.16047,-0.0728 0.83585,-0.40913 1.50082,-0.74751 z"
       id="path177" />
  </g>
</svg>
