<?xml version="1.0" encoding="UTF-8"?>
<svg id="Layer_1" data-name="Layer 1" xmlns="http://www.w3.org/2000/svg" viewBox="0 0 173.76 111.56">
  <defs>
    <style>
      .cls-1 {
        fill: #19365e;
        stroke-width: 0px;
      }
    </style>
  </defs>
  <path class="cls-1" d="M84.21,56.91c-12.51,0-22.67-10.9-22.67-24.35s10.14-24.33,22.66-24.33h8.43v5.05h-8.24c-9.91,0-18.13,8.65-18.13,19.28s8.04,19.28,17.95,19.28h18.94v5.07h-18.94Z"/>
  <path class="cls-1" d="M92.63,28.46h-8.37c-2.13,0-3.86,1.86-3.86,4.16v15.62c-2.23-.39-3.38-1.07-4.81-2.04l-.05-13.44c0-5.14,3.87-9.31,8.65-9.31h8.44v5.01Z"/>
  <path class="cls-1" d="M94.57,15.78c8.54,0,15.5,7.36,15.65,16.49v24.63h-4.65v-24.69c0-6.48-4.91-11.39-10.95-11.39h-10.42c-6.03,0-11.01,4.88-11.01,11.36l.03,11.97c-2.89-3.05-4.68-6.91-4.68-11.6,0-9.28,7-16.8,15.64-16.8l10.37.03Z"/>
  <path class="cls-1" d="M12.33,82.15c-1.01,0-1.94-.23-2.78-.7-.85-.47-1.53-1.16-2.04-2.07-.51-.92-.77-2.04-.77-3.38s.26-2.46.78-3.4c.52-.94,1.22-1.66,2.08-2.16.87-.5,1.8-.75,2.81-.75.77,0,1.47.16,2.08.47.61.31,1.13.68,1.53,1.1l-1.44,1.73c-.31-.28-.63-.51-.97-.69-.34-.18-.72-.27-1.15-.27-.54,0-1.04.15-1.48.46-.45.31-.81.75-1.07,1.33-.26.58-.4,1.27-.4,2.08,0,1.23.26,2.19.79,2.88.53.69,1.24,1.03,2.12,1.03.49,0,.93-.11,1.32-.33.39-.22.73-.49,1.02-.79l1.44,1.7c-1.01,1.18-2.31,1.77-3.89,1.77"/>
  <path class="cls-1" d="M21.76,79.96c.55,0,.97-.24,1.25-.71.28-.47.42-1.1.42-1.89s-.14-1.43-.42-1.9c-.28-.47-.7-.7-1.25-.7s-.99.23-1.26.7c-.28.47-.41,1.1-.41,1.9s.14,1.42.41,1.89c.28.47.7.71,1.26.71M21.76,82.15c-.77,0-1.5-.19-2.19-.56-.68-.37-1.23-.92-1.65-1.64-.42-.72-.63-1.58-.63-2.59s.21-1.89.63-2.6c.42-.71.97-1.26,1.65-1.63s1.41-.56,2.19-.56,1.5.19,2.18.56c.68.38,1.22.92,1.64,1.63.42.71.63,1.58.63,2.6s-.21,1.87-.63,2.59c-.42.72-.97,1.27-1.64,1.64-.68.38-1.4.56-2.18.56Z"/>
  <path class="cls-1" d="M28.06,81.93v-9.15h2.21l.18,1.16h.07c.39-.37.83-.69,1.3-.97.47-.28,1.02-.41,1.63-.41,1,0,1.72.33,2.17.99.45.66.67,1.56.67,2.7v5.68h-2.71v-5.33c0-.66-.09-1.12-.27-1.36-.18-.25-.46-.37-.86-.37-.34,0-.64.08-.89.23-.25.15-.52.37-.81.65v6.18h-2.71Z"/>
  <path class="cls-1" d="M41.31,82.15c-.6,0-1.22-.12-1.85-.35-.63-.23-1.18-.54-1.65-.92l1.22-1.7c.42.31.82.54,1.21.71.39.17.77.25,1.15.25.41,0,.7-.07.89-.21.18-.14.28-.33.28-.56,0-.21-.09-.38-.27-.52s-.41-.26-.69-.38c-.28-.12-.58-.24-.9-.36-.37-.15-.73-.33-1.1-.55-.36-.22-.67-.51-.91-.86-.25-.35-.37-.78-.37-1.28,0-.85.32-1.54.97-2.07.65-.53,1.49-.79,2.54-.79.7,0,1.32.12,1.85.36.53.24.99.51,1.37.8l-1.22,1.62c-.32-.25-.64-.44-.96-.57-.32-.14-.64-.2-.96-.2-.7,0-1.05.24-1.05.72,0,.3.18.52.53.67.35.15.76.32,1.23.49.39.14.78.31,1.15.53.38.22.69.5.94.85.25.35.38.81.38,1.37,0,.82-.32,1.52-.96,2.09-.64.57-1.57.86-2.8.86"/>
  <path class="cls-1" d="M48.13,71.44c-.45,0-.82-.13-1.11-.39-.28-.26-.42-.6-.42-1.03s.14-.77.42-1.03c.28-.26.65-.39,1.11-.39s.82.13,1.11.39c.28.26.42.6.42,1.03s-.14.77-.42,1.03c-.28.26-.65.39-1.11.39M46.78,81.93v-9.15h2.71v9.15h-2.71Z"/>
  <path class="cls-1" d="M55.56,84.13c.61,0,1.12-.11,1.51-.33.39-.22.59-.49.59-.79,0-.28-.12-.47-.36-.57-.24-.1-.59-.15-1.04-.15h-.94c-.31,0-.56,0-.77-.03-.2-.02-.38-.05-.53-.08-.33.3-.5.6-.5.9,0,.34.19.61.56.78.38.18.86.27,1.47.27M55.34,77.4c.36,0,.65-.13.89-.39.24-.26.36-.64.36-1.14s-.12-.85-.36-1.1c-.24-.25-.54-.38-.89-.38s-.65.12-.89.37c-.24.25-.36.61-.36,1.11s.12.89.36,1.14c.24.26.54.39.89.39ZM55.14,85.82c-.71,0-1.36-.08-1.94-.24-.58-.16-1.04-.41-1.38-.76-.34-.34-.52-.79-.52-1.33,0-.74.44-1.35,1.31-1.84v-.07c-.23-.16-.43-.36-.6-.61-.17-.25-.25-.56-.25-.94,0-.33.1-.65.29-.96.2-.31.44-.56.74-.76v-.07c-.32-.22-.61-.54-.86-.96-.25-.42-.38-.89-.38-1.42,0-.74.18-1.35.53-1.83.36-.49.82-.85,1.4-1.1.58-.25,1.19-.37,1.84-.37.54,0,1.01.07,1.42.22h3.34v1.97h-1.46c.09.14.16.31.21.52.06.21.08.44.08.68,0,.7-.16,1.28-.48,1.73-.32.45-.75.79-1.29,1.01-.54.22-1.15.33-1.83.33-.36,0-.73-.06-1.11-.18-.22.18-.33.41-.33.68,0,.23.1.41.31.52.21.11.57.17,1.07.17h1.48c1.13,0,1.99.18,2.59.54.6.36.89.96.89,1.78,0,.63-.21,1.19-.63,1.69-.42.5-1.01.89-1.77,1.17-.76.28-1.67.42-2.71.42Z"/>
  <path class="cls-1" d="M64.21,82.15c-.93,0-1.58-.28-1.95-.84-.36-.56-.54-1.3-.54-2.22v-10.09h2.71v10.2c0,.28.05.48.16.59.1.11.21.17.32.17.06,0,.11,0,.16,0,.04,0,.1-.02.18-.03l.33,2.01c-.15.06-.33.11-.56.16-.23.04-.49.06-.8.06"/>
  <path class="cls-1" d="M68.34,71.44c-.46,0-.82-.13-1.11-.39-.28-.26-.42-.6-.42-1.03s.14-.77.42-1.03c.28-.26.65-.39,1.11-.39s.82.13,1.11.39c.28.26.42.6.42,1.03s-.14.77-.42,1.03c-.28.26-.65.39-1.11.39M67,81.93v-9.15h2.71v9.15h-2.71Z"/>
  <path class="cls-1" d="M76.01,79.96c.55,0,.97-.24,1.25-.71.28-.47.42-1.1.42-1.89s-.14-1.43-.42-1.9c-.28-.47-.7-.7-1.25-.7s-.99.23-1.26.7c-.28.47-.41,1.1-.41,1.9s.14,1.42.41,1.89c.28.47.7.71,1.26.71M76.01,82.15c-.77,0-1.5-.19-2.19-.56-.68-.37-1.23-.92-1.65-1.64-.42-.72-.63-1.58-.63-2.59s.21-1.89.63-2.6c.42-.71.97-1.26,1.65-1.63.68-.38,1.41-.56,2.19-.56s1.5.19,2.18.56c.68.38,1.22.92,1.64,1.63.42.71.63,1.58.63,2.6s-.21,1.87-.63,2.59c-.42.72-.97,1.27-1.64,1.64-.68.38-1.4.56-2.18.56Z"/>
  <path class="cls-1" d="M86.23,81.93v-12.02h2.78l3.14,5.98,1.18,2.66h.07c-.05-.64-.12-1.35-.2-2.14-.09-.79-.13-1.54-.13-2.25v-4.24h2.58v12.02h-2.78l-3.14-5.99-1.18-2.62h-.07c.06.66.13,1.38.21,2.14.08.76.12,1.5.12,2.21v4.26h-2.58Z"/>
  <path class="cls-1" d="M101.5,80.05c.31,0,.57-.07.8-.21.23-.14.46-.33.69-.56v-1.6c-.96.12-1.62.32-1.99.58-.37.26-.55.57-.55.93,0,.3.1.51.29.65.19.14.45.21.77.21M100.58,82.15c-.84,0-1.5-.27-1.99-.8-.49-.53-.74-1.19-.74-1.96,0-.96.41-1.71,1.22-2.25.81-.54,2.12-.9,3.93-1.09-.02-.41-.14-.73-.36-.97-.22-.24-.57-.36-1.08-.36-.38,0-.77.07-1.16.22-.39.15-.81.35-1.25.61l-.98-1.79c.58-.36,1.2-.65,1.85-.87.66-.22,1.34-.33,2.06-.33,1.17,0,2.07.34,2.69,1.01.63.68.94,1.72.94,3.12v5.24h-2.21l-.18-.94h-.07c-.38.34-.79.62-1.23.84-.44.22-.91.32-1.43.32Z"/>
  <polygon class="cls-1" points="107.5 81.93 107.5 80.48 111.33 74.91 107.92 74.91 107.92 72.78 114.71 72.78 114.71 74.22 110.87 79.81 114.84 79.81 114.84 81.93 107.5 81.93"/>
  <path class="cls-1" d="M117.82,71.44c-.45,0-.82-.13-1.11-.39-.28-.26-.42-.6-.42-1.03s.14-.77.42-1.03c.28-.26.65-.39,1.11-.39s.82.13,1.11.39c.28.26.42.6.42,1.03s-.14.77-.42,1.03c-.28.26-.65.39-1.11.39M116.48,81.93v-9.15h2.71v9.15h-2.71Z"/>
  <path class="cls-1" d="M125.5,79.96c.55,0,.97-.24,1.25-.71.28-.47.42-1.1.42-1.89s-.14-1.43-.42-1.9c-.28-.47-.7-.7-1.25-.7s-.99.23-1.26.7c-.28.47-.42,1.1-.42,1.9s.14,1.42.42,1.89c.28.47.7.71,1.26.71M125.5,82.15c-.77,0-1.5-.19-2.19-.56-.68-.37-1.23-.92-1.65-1.64-.42-.72-.63-1.58-.63-2.59s.21-1.89.63-2.6c.42-.71.97-1.26,1.65-1.63.68-.38,1.41-.56,2.19-.56s1.5.19,2.18.56c.68.38,1.22.92,1.64,1.63.42.71.63,1.58.63,2.6s-.21,1.87-.63,2.59c-.42.72-.97,1.27-1.64,1.64-.68.38-1.4.56-2.18.56Z"/>
  <path class="cls-1" d="M131.8,81.93v-9.15h2.21l.18,1.16h.07c.39-.37.83-.69,1.3-.97.47-.28,1.02-.41,1.63-.41,1,0,1.72.33,2.17.99.45.66.67,1.56.67,2.7v5.68h-2.71v-5.33c0-.66-.09-1.12-.27-1.36-.18-.25-.46-.37-.86-.37-.34,0-.64.08-.89.23-.25.15-.52.37-.81.65v6.18h-2.71Z"/>
  <path class="cls-1" d="M145.58,80.05c.31,0,.57-.07.8-.21.23-.14.46-.33.69-.56v-1.6c-.96.12-1.62.32-1.99.58-.37.26-.55.57-.55.93,0,.3.1.51.29.65.19.14.45.21.77.21M144.66,82.15c-.84,0-1.5-.27-1.99-.8-.49-.53-.74-1.19-.74-1.96,0-.96.41-1.71,1.22-2.25.81-.54,2.12-.9,3.93-1.09-.02-.41-.14-.73-.36-.97-.22-.24-.57-.36-1.08-.36-.38,0-.77.07-1.16.22-.39.15-.81.35-1.25.61l-.98-1.79c.58-.36,1.2-.65,1.85-.87.66-.22,1.34-.33,2.06-.33,1.17,0,2.07.34,2.69,1.01.63.68.94,1.72.94,3.12v5.24h-2.21l-.18-.94h-.07c-.38.34-.79.62-1.23.84-.44.22-.91.32-1.43.32Z"/>
  <path class="cls-1" d="M154.56,82.15c-.93,0-1.58-.28-1.95-.84-.36-.56-.54-1.3-.54-2.22v-10.09h2.71v10.2c0,.28.05.48.16.59.1.11.21.17.32.17.06,0,.11,0,.16,0,.04,0,.1-.02.18-.03l.33,2.01c-.15.06-.33.11-.56.16-.23.04-.49.06-.8.06"/>
  <path class="cls-1" d="M159.41,76.36h3.3c0-.5-.12-.92-.36-1.24-.24-.33-.63-.49-1.17-.49-.42,0-.79.14-1.12.43-.33.29-.55.72-.65,1.3M161.44,82.15c-.87,0-1.66-.19-2.36-.57-.7-.38-1.25-.93-1.66-1.64-.41-.71-.61-1.57-.61-2.58s.21-1.85.62-2.56c.41-.71.95-1.26,1.61-1.65.66-.39,1.36-.58,2.08-.58.87,0,1.6.19,2.17.58s1,.91,1.29,1.57c.29.66.43,1.4.43,2.24,0,.23-.01.46-.04.69-.02.23-.05.4-.07.51h-5.48c.12.66.4,1.15.83,1.47s.95.47,1.55.47c.65,0,1.31-.2,1.97-.61l.9,1.64c-.47.32-.99.57-1.57.76-.58.18-1.14.28-1.68.28Z"/>
  <path class="cls-1" d="M75.79,98.62h1.4c.71,0,1.26-.15,1.63-.45.38-.3.56-.75.56-1.34s-.19-1-.56-1.24c-.38-.23-.92-.35-1.63-.35h-1.4v3.37ZM73.08,105.11v-12.02h4.33c.85,0,1.62.11,2.32.34.7.23,1.26.61,1.68,1.15.42.54.63,1.29.63,2.25,0,.89-.19,1.61-.58,2.19-.39.57-.91,1-1.56,1.28l2.73,4.81h-3.04l-2.31-4.33h-1.49v4.33h-2.71Z"/>
  <path class="cls-1" d="M85.51,94.62c-.46,0-.82-.13-1.11-.39-.28-.26-.42-.6-.42-1.03s.14-.77.42-1.03c.28-.26.65-.39,1.11-.39s.82.13,1.11.39c.28.26.42.6.42,1.03s-.14.77-.42,1.03c-.28.26-.65.39-1.11.39M84.17,105.11v-9.15h2.71v9.15h-2.71Z"/>
  <path class="cls-1" d="M93.24,105.34c-.85,0-1.61-.19-2.3-.56-.68-.37-1.22-.92-1.62-1.64-.4-.72-.6-1.58-.6-2.59s.22-1.89.66-2.6c.44-.71,1.03-1.26,1.75-1.63.73-.38,1.51-.56,2.34-.56.57,0,1.07.09,1.5.28.44.18.83.42,1.17.7l-1.27,1.75c-.43-.36-.84-.53-1.24-.53-.65,0-1.17.23-1.56.7-.39.47-.58,1.1-.58,1.9s.19,1.42.58,1.89c.39.47.88.71,1.47.71.3,0,.58-.06.87-.19.28-.13.54-.29.77-.47l1.07,1.77c-.45.39-.95.67-1.48.84-.53.17-1.05.25-1.55.25"/>
  <path class="cls-1" d="M99.42,99.54h3.3c0-.5-.12-.92-.36-1.24-.24-.33-.63-.49-1.17-.49-.42,0-.79.14-1.12.43-.33.29-.55.72-.65,1.3M101.45,105.34c-.87,0-1.66-.19-2.36-.57-.7-.38-1.25-.93-1.66-1.64-.41-.71-.61-1.57-.61-2.58s.21-1.85.62-2.56c.41-.71.95-1.26,1.61-1.65.66-.39,1.36-.58,2.08-.58.87,0,1.6.19,2.17.58.57.39,1,.91,1.29,1.57.29.66.43,1.4.43,2.24,0,.23-.01.46-.04.69-.02.23-.05.4-.07.51h-5.48c.12.66.4,1.15.83,1.47.43.31.95.47,1.55.47.65,0,1.31-.2,1.97-.61l.9,1.64c-.47.32-.99.57-1.57.76-.58.18-1.14.28-1.68.28Z"/>
  <path class="cls-1" d="M106.91,105.11v-9.15h2.21l.18,1.6h.07c.33-.61.73-1.07,1.2-1.37.47-.3.93-.45,1.4-.45.26,0,.47.02.65.05.17.03.32.08.44.14l-.44,2.34c-.16-.05-.32-.09-.47-.11-.15-.02-.33-.04-.53-.04-.34,0-.7.13-1.08.38s-.69.69-.93,1.3v5.31h-2.71Z"/>
  <path class="cls-1" d="M118.04,105.34c-.85,0-1.61-.19-2.3-.56-.68-.37-1.22-.92-1.62-1.64-.4-.72-.6-1.58-.6-2.59s.22-1.89.66-2.6c.44-.71,1.03-1.26,1.75-1.63.73-.38,1.51-.56,2.34-.56.57,0,1.07.09,1.5.28.44.18.83.42,1.17.7l-1.27,1.75c-.43-.36-.84-.53-1.24-.53-.65,0-1.17.23-1.56.7-.39.47-.58,1.1-.58,1.9s.19,1.42.58,1.89c.39.47.88.71,1.47.71.3,0,.58-.06.87-.19.28-.13.54-.29.77-.47l1.07,1.77c-.46.39-.95.67-1.48.84-.53.17-1.05.25-1.55.25"/>
  <path class="cls-1" d="M122.67,105.11v-12.93h2.71v3.17l-.13,1.64c.34-.31.75-.59,1.21-.86.46-.26,1-.4,1.61-.4,1,0,1.72.33,2.17.99.45.66.67,1.56.67,2.7v5.68h-2.71v-5.33c0-.66-.09-1.12-.27-1.36-.18-.25-.46-.37-.86-.37-.34,0-.64.08-.89.23-.25.15-.52.37-.81.65v6.18h-2.71Z"/>
  <path class="cls-1" d="M135.27,99.54h3.3c0-.5-.12-.92-.36-1.24-.24-.33-.63-.49-1.17-.49-.42,0-.79.14-1.12.43-.33.29-.55.72-.65,1.3M137.3,105.34c-.87,0-1.66-.19-2.36-.57-.7-.38-1.25-.93-1.66-1.64-.41-.71-.61-1.57-.61-2.58s.21-1.85.62-2.56c.41-.71.95-1.26,1.61-1.65.66-.39,1.36-.58,2.08-.58.87,0,1.6.19,2.17.58.57.39,1,.91,1.29,1.57.29.66.43,1.4.43,2.24,0,.23-.01.46-.04.69-.02.23-.05.4-.07.51h-5.48c.12.66.4,1.15.83,1.47.43.31.95.47,1.55.47.65,0,1.31-.2,1.97-.61l.9,1.64c-.47.32-.99.57-1.57.76-.58.18-1.14.28-1.68.28Z"/>
  <path class="cls-1" d="M34.94,104.06c.79,0,1.55-.41,2.29-1.24v-4.68c-.38-.34-.75-.59-1.1-.73-.35-.14-.71-.21-1.08-.21-.48,0-.91.14-1.3.43-.39.29-.7.69-.93,1.2-.23.51-.35,1.11-.35,1.8,0,1.07.22,1.91.65,2.52.43.61,1.04.91,1.83.91M34.61,105.34c-1.12,0-2.02-.41-2.69-1.23-.68-.82-1.01-1.97-1.01-3.46,0-.97.18-1.81.54-2.52.36-.71.84-1.25,1.44-1.63.6-.38,1.23-.57,1.91-.57.52,0,.97.09,1.35.28.38.18.77.44,1.16.76l-.07-1.53v-3.45h1.53v13.13h-1.25l-.13-1.05h-.06c-.34.34-.75.64-1.22.89-.47.25-.97.38-1.49.38Z"/>
  <path class="cls-1" d="M42.6,99.91h4.79c0-.91-.19-1.6-.58-2.07-.39-.47-.93-.71-1.63-.71-.63,0-1.19.24-1.69.73-.5.49-.8,1.17-.89,2.06M45.42,105.34c-.8,0-1.52-.19-2.18-.56-.65-.37-1.17-.91-1.55-1.61-.38-.7-.57-1.54-.57-2.51s.19-1.83.58-2.53c.39-.7.89-1.24,1.5-1.62.61-.38,1.26-.57,1.94-.57,1.14,0,2.03.38,2.65,1.14s.93,1.78.93,3.06c0,.16,0,.32,0,.47,0,.15-.02.29-.05.4h-6.05c.06.95.36,1.7.89,2.27.53.57,1.23.85,2.09.85.43,0,.83-.06,1.19-.19.36-.13.71-.3,1.04-.51l.53,1c-.38.25-.81.46-1.3.65-.49.18-1.04.28-1.65.28Z"/>
  <path class="cls-1" d="M52.54,105.34c-.57,0-.97-.18-1.23-.53-.25-.35-.38-.85-.38-1.5v-11.32h1.51v11.43c0,.23.04.4.13.51.09.1.18.16.29.16.05,0,.1,0,.14,0,.04,0,.11-.02.19-.03l.2,1.14c-.1.05-.22.09-.35.11-.14.02-.31.04-.52.04"/>
  <path class="cls-1" d="M57.24,105.34c-.57,0-.97-.18-1.23-.53-.25-.35-.38-.85-.38-1.5v-11.32h1.51v11.43c0,.23.04.4.13.51.09.1.18.16.3.16.05,0,.1,0,.14,0,.04,0,.11-.02.19-.03l.2,1.14c-.1.05-.22.09-.35.11-.14.02-.31.04-.52.04"/>
  <path class="cls-1" d="M61.15,99.91h4.79c0-.91-.19-1.6-.58-2.07-.39-.47-.93-.71-1.63-.71-.63,0-1.19.24-1.69.73-.5.49-.8,1.17-.89,2.06M63.97,105.34c-.8,0-1.52-.19-2.18-.56-.65-.37-1.17-.91-1.55-1.61-.38-.7-.57-1.54-.57-2.51s.19-1.83.58-2.53c.39-.7.89-1.24,1.5-1.62.61-.38,1.26-.57,1.94-.57,1.14,0,2.03.38,2.65,1.14.62.76.93,1.78.93,3.06,0,.16,0,.32,0,.47,0,.15-.02.29-.05.4h-6.05c.06.95.36,1.7.89,2.27s1.23.85,2.09.85c.43,0,.83-.06,1.19-.19.36-.13.71-.3,1.04-.51l.53,1c-.38.25-.81.46-1.3.65-.49.18-1.04.28-1.65.28Z"/>
</svg>