<?xml version="1.0" encoding="UTF-8"?>
<svg id="Layer_1" data-name="Layer 1" xmlns="http://www.w3.org/2000/svg" viewBox="0 0 317.43 85.69">
  <defs>
    <style>
      .cls-1 {
        fill: #19365e;
        stroke-width: 0px;
      }
    </style>
  </defs>
  <path class="cls-1" d="M89.88,47.42c-1.46,0-2.8-.34-4.03-1.01-1.23-.68-2.21-1.68-2.95-3-.74-1.32-1.11-2.96-1.11-4.89s.38-3.56,1.13-4.92c.76-1.36,1.76-2.4,3.01-3.12,1.25-.72,2.61-1.08,4.07-1.08,1.12,0,2.12.23,3.01.68.89.45,1.63.98,2.21,1.59l-2.08,2.51c-.44-.41-.91-.74-1.4-1-.49-.26-1.04-.39-1.67-.39-.78,0-1.5.22-2.15.67-.65.44-1.16,1.08-1.55,1.92-.38.84-.57,1.84-.57,3.01,0,1.78.38,3.16,1.15,4.16.76,1,1.79,1.49,3.07,1.49.71,0,1.35-.16,1.91-.48.56-.32,1.05-.7,1.48-1.15l2.08,2.45c-1.46,1.71-3.33,2.56-5.63,2.56"/>
  <path class="cls-1" d="M103.5,44.24c.8,0,1.4-.34,1.81-1.03.41-.68.61-1.6.61-2.73s-.2-2.07-.61-2.75c-.41-.68-1.01-1.01-1.81-1.01s-1.43.34-1.83,1.01c-.4.68-.6,1.59-.6,2.75s.2,2.05.6,2.73,1.01,1.03,1.83,1.03M103.5,47.42c-1.12,0-2.17-.27-3.16-.81-.99-.54-1.78-1.33-2.39-2.37-.6-1.04-.91-2.29-.91-3.75s.3-2.73.91-3.76c.6-1.03,1.4-1.82,2.39-2.36.99-.54,2.04-.81,3.16-.81s2.17.27,3.15.81c.98.54,1.77,1.33,2.37,2.36.6,1.03.91,2.28.91,3.76s-.3,2.71-.91,3.75c-.6,1.04-1.4,1.83-2.37,2.37-.98.54-2.03.81-3.15.81Z"/>
  <path class="cls-1" d="M112.62,47.1v-13.22h3.2l.27,1.68h.11c.57-.53,1.2-1,1.88-1.4.68-.4,1.47-.6,2.36-.6,1.44,0,2.48.48,3.13,1.43.65.95.97,2.25.97,3.91v8.21h-3.92v-7.71c0-.96-.13-1.62-.39-1.97-.26-.36-.67-.53-1.24-.53-.5,0-.92.11-1.28.33-.36.22-.75.54-1.17.95v8.93h-3.92Z"/>
  <path class="cls-1" d="M131.76,47.42c-.87,0-1.76-.17-2.68-.51-.92-.34-1.71-.78-2.39-1.33l1.76-2.45c.6.44,1.19.79,1.75,1.03.56.24,1.12.36,1.67.36.59,0,1.01-.1,1.28-.31.27-.2.4-.48.4-.81,0-.3-.13-.55-.39-.75-.26-.2-.59-.38-1-.55-.41-.17-.84-.34-1.31-.52-.53-.21-1.06-.48-1.59-.8-.52-.32-.96-.73-1.32-1.24-.36-.51-.53-1.12-.53-1.85,0-1.23.47-2.22,1.4-2.99.93-.76,2.16-1.15,3.67-1.15,1.01,0,1.91.17,2.68.52.77.35,1.44.73,1.99,1.16l-1.76,2.35c-.46-.36-.92-.63-1.39-.83-.46-.2-.92-.29-1.39-.29-1.01,0-1.52.35-1.52,1.04,0,.43.25.75.76.97.51.22,1.1.46,1.77.71.57.2,1.12.45,1.67.76.54.31,1,.72,1.36,1.23.36.51.55,1.17.55,1.99,0,1.19-.46,2.2-1.39,3.03-.92.83-2.28,1.24-4.05,1.24"/>
  <path class="cls-1" d="M141.63,31.93c-.66,0-1.19-.19-1.6-.56-.41-.37-.61-.87-.61-1.49s.2-1.12.61-1.49c.41-.37.94-.56,1.6-.56s1.19.19,1.6.56c.41.37.61.87.61,1.49s-.2,1.12-.61,1.49c-.41.37-.94.56-1.6.56M139.68,47.1v-13.22h3.92v13.22h-3.92Z"/>
  <path class="cls-1" d="M152.37,50.27c.89,0,1.62-.16,2.19-.48.57-.32.85-.7.85-1.15,0-.41-.17-.68-.52-.83-.35-.14-.85-.21-1.51-.21h-1.36c-.44,0-.81-.01-1.11-.04-.29-.03-.55-.07-.76-.12-.48.43-.72.86-.72,1.31,0,.5.27.88.81,1.13.54.26,1.25.39,2.12.39M152.05,40.54c.52,0,.95-.19,1.29-.56.35-.37.52-.92.52-1.65s-.17-1.22-.52-1.59c-.35-.36-.78-.55-1.29-.55s-.95.18-1.29.53c-.35.36-.52.89-.52,1.6s.17,1.28.52,1.65c.35.37.78.56,1.29.56ZM151.76,52.72c-1.03,0-1.96-.12-2.8-.35-.84-.23-1.5-.6-2-1.09-.5-.5-.75-1.14-.75-1.92,0-1.07.63-1.96,1.89-2.67v-.11c-.34-.23-.63-.52-.87-.88-.24-.36-.36-.81-.36-1.36,0-.48.14-.94.43-1.39.28-.44.64-.81,1.07-1.09v-.11c-.46-.32-.88-.78-1.24-1.39-.36-.6-.55-1.29-.55-2.05,0-1.07.26-1.95.77-2.65.52-.7,1.19-1.23,2.03-1.59.84-.36,1.72-.53,2.67-.53.78,0,1.47.11,2.05.32h4.83v2.85h-2.11c.12.2.23.44.31.75.08.3.12.63.12.99,0,1.01-.23,1.85-.69,2.51-.46.66-1.08,1.15-1.87,1.47-.78.32-1.66.48-2.64.48-.52,0-1.05-.09-1.6-.27-.32.27-.48.6-.48.99,0,.34.15.59.45.75.3.16.82.24,1.55.24h2.13c1.64,0,2.88.26,3.75.79.86.52,1.29,1.38,1.29,2.57,0,.91-.3,1.72-.91,2.44-.6.72-1.46,1.28-2.56,1.69-1.1.41-2.41.61-3.92.61Z"/>
  <path class="cls-1" d="M164.88,47.42c-1.35,0-2.29-.4-2.81-1.21-.52-.81-.79-1.88-.79-3.21v-14.58h3.92v14.74c0,.41.08.69.23.85.15.16.31.24.47.24.09,0,.16,0,.23-.01.06,0,.15-.02.25-.04l.48,2.91c-.21.09-.48.16-.81.23-.33.06-.72.09-1.16.09"/>
  <path class="cls-1" d="M170.85,31.93c-.66,0-1.19-.19-1.6-.56-.41-.37-.61-.87-.61-1.49s.2-1.12.61-1.49c.41-.37.94-.56,1.6-.56s1.19.19,1.6.56c.41.37.61.87.61,1.49s-.2,1.12-.61,1.49c-.41.37-.94.56-1.6.56M168.9,47.1v-13.22h3.92v13.22h-3.92Z"/>
  <path class="cls-1" d="M181.94,44.24c.8,0,1.4-.34,1.81-1.03.41-.68.61-1.6.61-2.73s-.2-2.07-.61-2.75c-.41-.68-1.01-1.01-1.81-1.01s-1.43.34-1.83,1.01c-.4.68-.6,1.59-.6,2.75s.2,2.05.6,2.73c.4.68,1.01,1.03,1.83,1.03M181.94,47.42c-1.12,0-2.17-.27-3.16-.81-.99-.54-1.78-1.33-2.39-2.37-.6-1.04-.91-2.29-.91-3.75s.3-2.73.91-3.76c.6-1.03,1.4-1.82,2.39-2.36.99-.54,2.04-.81,3.16-.81s2.17.27,3.15.81c.98.54,1.77,1.33,2.37,2.36.6,1.03.91,2.28.91,3.76s-.3,2.71-.91,3.75c-.6,1.04-1.4,1.83-2.37,2.37-.98.54-2.03.81-3.15.81Z"/>
  <path class="cls-1" d="M196.71,47.1v-17.38h4.03l4.53,8.64,1.71,3.84h.11c-.07-.92-.17-1.96-.29-3.09-.12-1.14-.19-2.22-.19-3.25v-6.13h3.73v17.38h-4.03l-4.53-8.67-1.71-3.79h-.11c.09.96.19,1.99.31,3.09.12,1.1.17,2.17.17,3.2v6.16h-3.73Z"/>
  <path class="cls-1" d="M218.79,44.38c.44,0,.83-.1,1.16-.31.33-.2.66-.48,1-.81v-2.32c-1.39.18-2.35.46-2.88.84-.53.38-.8.83-.8,1.35,0,.43.14.74.41.95.28.2.64.31,1.11.31M217.46,47.42c-1.21,0-2.17-.39-2.88-1.16-.71-.77-1.07-1.72-1.07-2.84,0-1.39.59-2.47,1.76-3.25,1.17-.78,3.07-1.31,5.68-1.57-.04-.59-.21-1.05-.52-1.4-.31-.35-.83-.52-1.56-.52-.55,0-1.11.11-1.68.32-.57.21-1.17.51-1.81.88l-1.41-2.59c.84-.52,1.73-.93,2.68-1.25.95-.32,1.94-.48,2.97-.48,1.69,0,2.99.49,3.89,1.47.91.98,1.36,2.48,1.36,4.51v7.57h-3.2l-.27-1.36h-.11c-.55.5-1.14.9-1.77,1.21-.63.31-1.32.47-2.07.47Z"/>
  <polygon class="cls-1" points="227.46 47.1 227.46 44.99 233 36.94 228.07 36.94 228.07 33.87 237.88 33.87 237.88 35.95 232.34 44.03 238.07 44.03 238.07 47.1 227.46 47.1"/>
  <path class="cls-1" d="M242.39,31.93c-.66,0-1.19-.19-1.6-.56-.41-.37-.61-.87-.61-1.49s.2-1.12.61-1.49c.41-.37.94-.56,1.6-.56s1.19.19,1.6.56c.41.37.61.87.61,1.49s-.2,1.12-.61,1.49c-.41.37-.94.56-1.6.56M240.44,47.1v-13.22h3.92v13.22h-3.92Z"/>
  <path class="cls-1" d="M253.48,44.24c.8,0,1.4-.34,1.81-1.03.41-.68.61-1.6.61-2.73s-.2-2.07-.61-2.75c-.41-.68-1.01-1.01-1.81-1.01s-1.43.34-1.83,1.01c-.4.68-.6,1.59-.6,2.75s.2,2.05.6,2.73c.4.68,1.01,1.03,1.83,1.03M253.48,47.42c-1.12,0-2.17-.27-3.16-.81-.99-.54-1.78-1.33-2.39-2.37-.6-1.04-.91-2.29-.91-3.75s.3-2.73.91-3.76c.6-1.03,1.4-1.82,2.39-2.36.99-.54,2.04-.81,3.16-.81s2.17.27,3.15.81c.98.54,1.77,1.33,2.37,2.36.6,1.03.91,2.28.91,3.76s-.3,2.71-.91,3.75c-.6,1.04-1.4,1.83-2.37,2.37-.98.54-2.03.81-3.15.81Z"/>
  <path class="cls-1" d="M262.6,47.1v-13.22h3.2l.27,1.68h.11c.57-.53,1.2-1,1.88-1.4.68-.4,1.47-.6,2.36-.6,1.44,0,2.48.48,3.13,1.43.65.95.97,2.25.97,3.91v8.21h-3.92v-7.71c0-.96-.13-1.62-.39-1.97-.26-.36-.67-.53-1.24-.53-.5,0-.92.11-1.28.33-.36.22-.75.54-1.17.95v8.93h-3.92Z"/>
  <path class="cls-1" d="M282.52,44.38c.44,0,.83-.1,1.16-.31.33-.2.66-.48,1-.81v-2.32c-1.39.18-2.35.46-2.88.84s-.8.83-.8,1.35c0,.43.14.74.41.95.28.2.64.31,1.11.31M281.18,47.42c-1.21,0-2.17-.39-2.88-1.16-.71-.77-1.07-1.72-1.07-2.84,0-1.39.59-2.47,1.76-3.25,1.17-.78,3.07-1.31,5.68-1.57-.04-.59-.21-1.05-.52-1.4-.31-.35-.83-.52-1.56-.52-.55,0-1.11.11-1.68.32-.57.21-1.17.51-1.81.88l-1.41-2.59c.84-.52,1.73-.93,2.68-1.25.95-.32,1.94-.48,2.97-.48,1.69,0,2.99.49,3.89,1.47.91.98,1.36,2.48,1.36,4.51v7.57h-3.2l-.27-1.36h-.11c-.55.5-1.14.9-1.77,1.21-.63.31-1.32.47-2.07.47Z"/>
  <path class="cls-1" d="M295.5,47.42c-1.35,0-2.29-.4-2.81-1.21-.52-.81-.79-1.88-.79-3.21v-14.58h3.92v14.74c0,.41.08.69.23.85.15.16.31.24.47.24.09,0,.16,0,.23-.01.06,0,.15-.02.25-.04l.48,2.91c-.21.09-.48.16-.81.23-.33.06-.72.09-1.16.09"/>
  <path class="cls-1" d="M302.51,39.05h4.77c0-.73-.17-1.33-.52-1.8-.35-.47-.91-.71-1.69-.71-.6,0-1.15.21-1.63.63-.48.42-.79,1.04-.93,1.88M305.45,47.42c-1.26,0-2.4-.28-3.41-.83-1.01-.55-1.81-1.34-2.4-2.37-.59-1.03-.88-2.28-.88-3.73s.3-2.68.89-3.71c.6-1.03,1.37-1.83,2.33-2.39.96-.56,1.96-.84,3.01-.84,1.26,0,2.31.28,3.13.84.83.56,1.45,1.32,1.87,2.27.42.95.63,2.03.63,3.24,0,.34-.02.67-.05,1-.04.33-.07.57-.11.73h-7.92c.18.96.58,1.67,1.2,2.12.62.45,1.37.68,2.24.68.94,0,1.89-.29,2.85-.88l1.31,2.37c-.68.46-1.43.83-2.27,1.09-.84.27-1.64.4-2.43.4Z"/>
  <path class="cls-1" d="M87.66,75.07c1.14,0,2.24-.6,3.31-1.79v-6.77c-.55-.5-1.08-.85-1.59-1.05-.51-.2-1.03-.31-1.56-.31-.69,0-1.32.21-1.88.63-.56.42-1.01,1-1.35,1.73-.34.74-.51,1.6-.51,2.6,0,1.55.31,2.76.93,3.64.62.88,1.5,1.32,2.64,1.32M87.18,76.91c-1.62,0-2.92-.59-3.89-1.77-.98-1.18-1.47-2.85-1.47-5,0-1.4.26-2.62.79-3.64.52-1.02,1.22-1.81,2.08-2.36.86-.55,1.78-.83,2.76-.83.75,0,1.4.13,1.95.4.55.27,1.11.63,1.68,1.09l-.11-2.21v-4.99h2.21v18.98h-1.81l-.19-1.52h-.08c-.5.5-1.08.93-1.76,1.29-.68.36-1.4.55-2.16.55Z"/>
  <path class="cls-1" d="M98.73,69.07h6.93c0-1.32-.28-2.32-.84-3-.56-.68-1.35-1.03-2.36-1.03-.91,0-1.72.35-2.44,1.05-.72.7-1.15,1.69-1.29,2.97M102.81,76.91c-1.16,0-2.2-.27-3.15-.81-.94-.54-1.69-1.32-2.24-2.33-.55-1.01-.83-2.22-.83-3.63s.28-2.64.84-3.65c.56-1.01,1.28-1.8,2.17-2.35.89-.55,1.82-.83,2.8-.83,1.65,0,2.93.55,3.83,1.65.9,1.1,1.35,2.58,1.35,4.43,0,.23,0,.46-.01.68,0,.22-.03.41-.07.57h-8.75c.09,1.37.52,2.46,1.29,3.28.77.82,1.78,1.23,3.03,1.23.62,0,1.2-.09,1.72-.28.52-.19,1.03-.43,1.51-.73l.77,1.44c-.55.36-1.18.67-1.88.93-.7.27-1.5.4-2.39.4Z"/>
  <path class="cls-1" d="M113.1,76.91c-.82,0-1.41-.25-1.77-.76-.36-.51-.55-1.23-.55-2.17v-16.37h2.19v16.53c0,.34.06.58.19.73.12.15.27.23.43.23.07,0,.14,0,.2-.01.06,0,.16-.02.28-.04l.29,1.65c-.14.07-.31.12-.51.16-.2.04-.44.05-.75.05"/>
  <path class="cls-1" d="M119.9,76.91c-.82,0-1.41-.25-1.77-.76-.36-.51-.55-1.23-.55-2.17v-16.37h2.19v16.53c0,.34.06.58.19.73.12.15.27.23.43.23.07,0,.14,0,.2-.01.06,0,.16-.02.28-.04l.29,1.65c-.14.07-.31.12-.51.16-.2.04-.44.05-.75.05"/>
  <path class="cls-1" d="M125.55,69.07h6.93c0-1.32-.28-2.32-.84-3-.56-.68-1.35-1.03-2.36-1.03-.91,0-1.72.35-2.44,1.05-.72.7-1.15,1.69-1.29,2.97M129.63,76.91c-1.16,0-2.2-.27-3.15-.81-.94-.54-1.69-1.32-2.24-2.33-.55-1.01-.83-2.22-.83-3.63s.28-2.64.84-3.65c.56-1.01,1.28-1.8,2.17-2.35.89-.55,1.82-.83,2.8-.83,1.65,0,2.93.55,3.83,1.65.9,1.1,1.35,2.58,1.35,4.43,0,.23,0,.46-.01.68,0,.22-.03.41-.07.57h-8.75c.09,1.37.52,2.46,1.29,3.28.77.82,1.78,1.23,3.03,1.23.62,0,1.2-.09,1.72-.28.52-.19,1.03-.43,1.51-.73l.77,1.44c-.55.36-1.18.67-1.88.93-.7.27-1.5.4-2.39.4Z"/>
  <path class="cls-1" d="M146.72,67.21h2.03c1.03,0,1.82-.22,2.36-.65.54-.44.81-1.08.81-1.93s-.27-1.45-.81-1.79c-.54-.34-1.33-.51-2.36-.51h-2.03v4.88ZM142.8,76.59v-17.38h6.27c1.23,0,2.35.16,3.36.49,1.01.33,1.82.88,2.43,1.67.6.78.91,1.87.91,3.25,0,1.28-.28,2.33-.84,3.16-.56.83-1.31,1.44-2.25,1.85l3.95,6.96h-4.4l-3.33-6.27h-2.16v6.27h-3.92Z"/>
  <path class="cls-1" d="M160.77,61.42c-.66,0-1.19-.19-1.6-.56-.41-.37-.61-.87-.61-1.49s.2-1.12.61-1.49c.41-.37.94-.56,1.6-.56s1.19.19,1.6.56c.41.37.61.87.61,1.49s-.2,1.12-.61,1.49c-.41.37-.94.56-1.6.56M158.83,76.59v-13.22h3.92v13.22h-3.92Z"/>
  <path class="cls-1" d="M171.94,76.91c-1.23,0-2.33-.27-3.32-.81-.99-.54-1.77-1.33-2.35-2.37-.58-1.04-.87-2.29-.87-3.75s.32-2.73.96-3.76c.64-1.03,1.48-1.82,2.53-2.36,1.05-.54,2.18-.81,3.39-.81.82,0,1.54.13,2.17.4.63.27,1.2.6,1.69,1.01l-1.84,2.53c-.62-.52-1.22-.77-1.79-.77-.94,0-1.69.34-2.25,1.01-.56.68-.84,1.59-.84,2.75s.28,2.05.84,2.73c.56.68,1.27,1.03,2.12,1.03.43,0,.84-.09,1.25-.28.41-.19.78-.41,1.12-.68l1.55,2.56c-.66.57-1.37.97-2.13,1.21-.76.24-1.51.36-2.24.36"/>
  <path class="cls-1" d="M180.88,68.54h4.77c0-.73-.17-1.33-.52-1.8-.35-.47-.91-.71-1.69-.71-.6,0-1.15.21-1.63.63-.48.42-.79,1.04-.93,1.88M183.81,76.91c-1.26,0-2.4-.28-3.41-.83-1.01-.55-1.81-1.34-2.4-2.37-.59-1.03-.88-2.27-.88-3.73s.3-2.68.89-3.71c.6-1.03,1.37-1.83,2.33-2.39.96-.56,1.96-.84,3.01-.84,1.26,0,2.31.28,3.13.84.83.56,1.45,1.32,1.87,2.27.42.95.63,2.03.63,3.24,0,.34-.02.67-.05,1-.04.33-.07.57-.11.73h-7.92c.18.96.58,1.67,1.2,2.12.62.45,1.37.68,2.24.68.94,0,1.89-.29,2.85-.88l1.31,2.37c-.68.46-1.43.83-2.27,1.09-.84.27-1.64.4-2.43.4Z"/>
  <path class="cls-1" d="M191.7,76.59v-13.22h3.2l.27,2.32h.11c.48-.89,1.06-1.55,1.73-1.99.68-.44,1.35-.65,2.03-.65.37,0,.68.02.93.07.25.04.46.11.64.2l-.64,3.39c-.23-.07-.46-.12-.68-.16-.22-.04-.48-.05-.76-.05-.5,0-1.02.18-1.56.55-.54.36-.99.99-1.35,1.88v7.68h-3.92Z"/>
  <path class="cls-1" d="M207.81,76.91c-1.23,0-2.33-.27-3.32-.81-.99-.54-1.77-1.33-2.35-2.37-.58-1.04-.87-2.29-.87-3.75s.32-2.73.96-3.76c.64-1.03,1.48-1.82,2.53-2.36,1.05-.54,2.18-.81,3.39-.81.82,0,1.54.13,2.17.4.63.27,1.2.6,1.69,1.01l-1.84,2.53c-.62-.52-1.22-.77-1.79-.77-.94,0-1.69.34-2.25,1.01-.56.68-.84,1.59-.84,2.75s.28,2.05.84,2.73c.56.68,1.27,1.03,2.12,1.03.43,0,.84-.09,1.25-.28.41-.19.78-.41,1.12-.68l1.55,2.56c-.66.57-1.37.97-2.13,1.21-.76.24-1.51.36-2.24.36"/>
  <path class="cls-1" d="M214.5,76.59v-18.69h3.92v4.59l-.19,2.37c.5-.44,1.08-.86,1.75-1.24.67-.38,1.44-.57,2.33-.57,1.44,0,2.48.48,3.13,1.43.65.95.97,2.25.97,3.91v8.21h-3.92v-7.71c0-.96-.13-1.62-.39-1.97-.26-.36-.67-.53-1.24-.53-.5,0-.92.11-1.28.33-.36.22-.75.54-1.17.95v8.93h-3.92Z"/>
  <path class="cls-1" d="M232.71,68.54h4.77c0-.73-.17-1.33-.52-1.8-.35-.47-.91-.71-1.69-.71-.6,0-1.15.21-1.63.63-.48.42-.79,1.04-.93,1.88M235.64,76.91c-1.26,0-2.4-.28-3.41-.83-1.01-.55-1.81-1.34-2.4-2.37-.59-1.03-.88-2.27-.88-3.73s.3-2.68.89-3.71c.6-1.03,1.37-1.83,2.33-2.39.96-.56,1.96-.84,3.01-.84,1.26,0,2.31.28,3.13.84.83.56,1.45,1.32,1.87,2.27.42.95.63,2.03.63,3.24,0,.34-.02.67-.05,1-.04.33-.07.57-.11.73h-7.92c.18.96.58,1.67,1.2,2.12.62.45,1.37.68,2.24.68.94,0,1.89-.29,2.85-.88l1.31,2.37c-.68.46-1.43.83-2.27,1.09-.84.27-1.64.4-2.43.4Z"/>
  <path class="cls-1" d="M35.66,76.96c-17.02,0-30.84-14.83-30.84-33.13S18.61,10.73,35.64,10.73h11.47v6.87h-11.21c-13.49,0-24.66,11.76-24.66,26.23s10.95,26.23,24.42,26.23h25.77v6.9h-25.77Z"/>
  <path class="cls-1" d="M47.11,38.25h-11.39c-2.9,0-5.25,2.53-5.25,5.66v21.25c-3.03-.52-4.6-1.46-6.54-2.77l-.07-18.29c0-7,5.26-12.67,11.77-12.67h11.48v6.82Z"/>
  <path class="cls-1" d="M49.75,21.01c11.62,0,21.09,10.01,21.29,22.44v33.51h-6.32v-33.6c0-8.82-6.68-15.5-14.89-15.5h-14.18c-8.2,0-14.98,6.64-14.98,15.46l.05,16.28c-3.93-4.15-6.36-9.4-6.36-15.78,0-12.62,9.53-22.86,21.28-22.86l14.11.04Z"/>
</svg>