<?xml version="1.0" encoding="UTF-8"?><svg id="Layer_2" xmlns="http://www.w3.org/2000/svg" viewBox="0 0 3100.52 901.52"><defs><style>.cls-1{font-family:Rajdhani-SemiBold, Rajdhani;font-size:132.46px;font-weight:600;}.cls-1,.cls-2,.cls-3,.cls-4,.cls-5,.cls-6{fill:#fff;}.cls-3{opacity:.6;}.cls-4{opacity:.9;}.cls-5{opacity:.8;}.cls-6{opacity:.7;}</style></defs><path class="cls-2" d="m810.27,431.88v-16.65c0-3.39,1.69-5.09,5.08-5.09h13.42c3.38,0,5.08,1.7,5.08,5.09v15.26c0,30.83,14.95,46.23,44.85,46.23h48.08c29.89,0,44.85-15.55,44.85-46.69v-19.43c0-13.56-5.56-24.19-16.65-31.89-11.09-7.7-24.5-13.25-40.22-16.65-15.71-3.4-31.52-6.93-47.38-10.64-15.88-3.7-29.36-10.47-40.46-20.34-11.1-9.86-16.65-23.11-16.65-39.77v-25.43c0-20.34,5.86-36.36,17.57-48.08,11.72-11.71,27.58-17.57,47.62-17.57h53.62c20.03,0,35.91,5.86,47.62,17.57,11.71,11.72,17.57,27.74,17.57,48.08v12.95c0,3.4-1.71,5.09-5.09,5.09h-13.41c-3.4,0-5.09-1.69-5.09-5.09v-11.56c0-30.82-14.96-46.23-44.84-46.23h-47.62c-29.59,0-44.38,15.71-44.38,47.16v23.11c0,21.27,18.95,35.6,56.86,43,15.73,3.08,31.52,6.63,47.4,10.64,15.86,4,29.36,11.25,40.45,21.72,11.09,10.49,16.65,24.66,16.65,42.54v22.65c0,20.34-5.87,36.37-17.58,48.08-11.72,11.72-27.59,17.57-47.61,17.57h-54.55c-20.04,0-35.9-5.85-47.62-17.57-11.71-11.71-17.57-27.74-17.57-48.08"/><path class="cls-2" d="m1133.88,476.72h52.72c14.17,0,25.03-3.93,32.59-11.79,7.55-7.86,11.33-19.18,11.33-33.98v-164.12c0-14.8-3.78-26.12-11.33-33.98-7.57-7.86-18.43-11.78-32.59-11.78h-52.72c-14.17,0-24.96,4-32.36,12.02-7.4,8.01-11.1,19.27-11.1,33.75v164.12c0,14.5,3.7,25.74,11.1,33.76,7.4,8.01,18.18,12.02,32.36,12.02m55.02,20.81h-56.87c-20.04,0-35.83-5.85-47.39-17.57-11.55-11.71-17.34-27.74-17.34-48.08v-165.98c0-20.34,5.78-36.37,17.34-48.08,11.56-11.71,27.35-17.57,47.39-17.57h56.87c20.02,0,35.83,5.86,47.39,17.57,11.55,11.71,17.34,27.74,17.34,48.08v165.98c0,20.34-5.78,36.37-17.34,48.08-11.56,11.72-27.37,17.57-47.39,17.57"/><path class="cls-2" d="m1363.2,468.86h75.83c26.5,0,39.76-13.09,39.76-39.29v-30.05c0-26.19-14.18-39.3-42.54-39.3h-73.05c-3.08,0-4.63,1.39-4.63,4.16v99.86c0,3.08,1.55,4.62,4.63,4.62m0-136.85h71.2c27.12,0,40.69-13.09,40.69-39.3v-24.49c0-26.19-13.12-39.3-39.3-39.3h-72.59c-3.08,0-4.63,1.55-4.63,4.62v94.32c0,2.77,1.55,4.15,4.63,4.15m-38.38,159.05V206.72c0-4.31,2.16-6.47,6.47-6.47h108.64c21.27,0,37.92,5.93,49.94,17.79,12.02,11.88,18.03,28.44,18.03,49.7v25.43c0,27.44-12.95,45.16-38.83,53.17,11.71.92,21.71,6.08,30.05,15.49,8.32,9.4,12.48,21.81,12.48,37.21v30.98c0,21.27-6.08,37.84-18.26,49.7-12.18,11.87-28.9,17.8-50.16,17.8h-111.88c-4.32,0-6.47-2.16-6.47-6.48"/><path class="cls-2" d="m1614.71,206.72v284.33c0,4.32-2.17,6.47-6.48,6.47h-20.81c-4.33,0-6.48-2.15-6.48-6.47V206.72c0-4.32,2.15-6.47,6.48-6.47h20.81c4.3,0,6.48,2.16,6.48,6.47"/><path class="cls-2" d="m1803.8,497.53h-49.94c-21.26,0-37.98-6.01-50.15-18.04-12.18-12.02-18.26-28.81-18.26-50.39v-160.43c0-21.56,6.08-38.37,18.26-50.39,12.17-12.02,28.9-18.03,50.15-18.03h49.94c21.27,0,37.91,6.09,49.93,18.26,12.02,12.18,18.03,28.9,18.03,50.16v18.95c0,4.63-2.16,6.94-6.47,6.94h-20.81c-4.33,0-6.47-2.31-6.47-6.94v-17.56c0-26.82-12.79-40.22-38.38-40.22h-42.08c-25.58,0-38.36,13.41-38.36,40.22v157.66c0,26.81,12.78,40.21,38.36,40.21h42.08c25.58,0,38.38-13.41,38.38-40.21v-51.78c0-3.08-1.39-4.64-4.16-4.64h-45.77c-4.31,0-6.48-2-6.48-6v-17.11c0-4.31,2.16-6.47,6.48-6.47h74.45c6.16,0,9.24,3.23,9.24,9.7v77.67c0,21.58-6.01,38.38-18.03,50.39-12.02,12.03-28.65,18.04-49.93,18.04"/><path class="cls-2" d="m1997.5,446.67h50.41c9.85,0,16.86-2.08,21.03-6.24,4.16-4.16,6.24-11.17,6.24-21.04v-141.01c0-9.86-2.08-16.87-6.24-21.03-4.17-4.16-11.18-6.24-21.03-6.24h-50.41c-3.38,0-5.08,1.7-5.08,5.09v185.4c0,3.4,1.7,5.09,5.08,5.09m-63.79,41.15V209.96c0-6.48,3.24-9.71,9.7-9.71h114.2c24.04,0,42.76,6.56,56.18,19.65,13.4,13.11,20.1,31.68,20.1,55.71v146.55c0,24.04-6.7,42.62-20.1,55.72-13.42,13.1-32.14,19.65-56.18,19.65h-114.2c-6.47,0-9.7-3.24-9.7-9.71"/><path class="cls-2" d="m2287.39,256.19l-33.28,133.61h68.42l-33.29-133.61h-1.85Zm-67.04,241.34h-44.38c-5.54,0-7.4-3.24-5.54-9.71l73.04-277.86c2.16-6.47,6.79-9.7,13.87-9.7h61.49c7.71,0,12.33,3.24,13.87,9.7l73.05,277.86c1.85,6.48,0,9.71-5.55,9.71h-44.38c-3.4,0-5.7-.7-6.93-2.08-1.23-1.39-2.16-3.93-2.77-7.63l-12.94-50.85h-90.16l-12.94,50.85c-.62,3.7-1.62,6.24-3,7.63-1.4,1.38-3.65,2.08-6.72,2.08"/><path class="cls-2" d="m2538.89,497.53h-38.83c-6.77,0-10.17-3.24-10.17-9.71v-231.63c0-3.38-1.71-5.08-5.09-5.08h-52.7c-6.48,0-9.71-3.25-9.71-9.71v-31.44c0-6.47,3.24-9.7,9.71-9.7h174.76c6.47,0,9.7,3.24,9.7,9.7v31.44c0,6.47-3.24,9.71-9.7,9.71h-52.7c-3.7,0-5.56,1.7-5.56,5.08v231.63c0,6.48-3.24,9.71-9.7,9.71"/><path class="cls-2" d="m2749.72,256.19l-33.29,133.61h68.42l-33.28-133.61h-1.85Zm-67.04,241.34h-44.38c-5.54,0-7.4-3.24-5.54-9.71l73.04-277.86c2.16-6.47,6.79-9.7,13.87-9.7h61.49c7.71,0,12.33,3.24,13.87,9.7l73.05,277.86c1.85,6.48,0,9.71-5.55,9.71h-44.38c-3.4,0-5.7-.7-6.94-2.08-1.22-1.39-2.15-3.93-2.77-7.63l-12.93-50.85h-90.16l-12.95,50.85c-.61,3.7-1.61,6.24-2.99,7.63-1.4,1.38-3.65,2.08-6.72,2.08"/><text class="cls-1" transform="translate(800.27 701.9)"><tspan x="0" y="0">RESEARCH INFRASTRUCTURE</tspan></text><g><polyline class="cls-3" points="275.27 226.52 225.27 226.52 225.27 276.52 275.27 276.52 275.27 226.52"/><polyline class="cls-6" points="280.27 321.52 220.27 321.52 220.27 381.52 280.27 381.52 280.27 321.52"/><polyline class="cls-5" points="285.27 416.52 215.27 416.52 215.27 486.52 285.27 486.52 285.27 416.52"/><polyline class="cls-6" points="280.27 521.52 220.27 521.52 220.27 581.52 280.27 581.52 280.27 521.52"/><polyline class="cls-3" points="275.27 626.52 225.27 626.52 225.27 676.52 275.27 676.52 275.27 626.52"/><polyline class="cls-5" points="485.27 216.52 415.27 216.52 415.27 286.52 485.27 286.52 485.27 216.52"/><polyline class="cls-4" points="490.27 311.52 410.27 311.52 410.27 391.52 490.27 391.52 490.27 311.52"/><rect class="cls-2" x="405.27" y="406.52" width="90" height="90"/><polyline class="cls-4" points="490.27 511.52 410.27 511.52 410.27 591.52 490.27 591.52 490.27 511.52"/><polyline class="cls-5" points="485.27 616.52 415.27 616.52 415.27 686.52 485.27 686.52 485.27 616.52"/><polyline class="cls-3" points="675.27 226.52 625.27 226.52 625.27 276.52 675.27 276.52 675.27 226.52"/><polyline class="cls-6" points="680.27 321.52 620.27 321.52 620.27 381.52 680.27 381.52 680.27 321.52"/><polyline class="cls-5" points="685.27 416.52 615.27 416.52 615.27 486.52 685.27 486.52 685.27 416.52"/><polyline class="cls-6" points="680.27 521.52 620.27 521.52 620.27 581.52 680.27 581.52 680.27 521.52"/><polyline class="cls-3" points="675.27 626.52 625.27 626.52 625.27 676.52 675.27 676.52 675.27 626.52"/><polyline class="cls-6" points="580.27 621.52 520.27 621.52 520.27 681.52 580.27 681.52 580.27 621.52"/><polyline class="cls-5" points="585.27 516.52 515.27 516.52 515.27 586.52 585.27 586.52 585.27 516.52"/><polyline class="cls-4" points="590.27 411.52 510.27 411.52 510.27 491.52 590.27 491.52 590.27 411.52"/><polyline class="cls-5" points="585.27 316.52 515.27 316.52 515.27 386.52 585.27 386.52 585.27 316.52"/><polyline class="cls-6" points="580.27 221.52 520.27 221.52 520.27 281.52 580.27 281.52 580.27 221.52"/><polyline class="cls-6" points="380.27 621.52 320.27 621.52 320.27 681.52 380.27 681.52 380.27 621.52"/><polyline class="cls-5" points="385.27 516.52 315.27 516.52 315.27 586.52 385.27 586.52 385.27 516.52"/><polyline class="cls-4" points="390.27 411.52 310.27 411.52 310.27 491.52 390.27 491.52 390.27 411.52"/><polyline class="cls-5" points="385.27 316.52 315.27 316.52 315.27 386.52 385.27 386.52 385.27 316.52"/><polyline class="cls-6" points="380.27 221.52 320.27 221.52 320.27 281.52 380.27 281.52 380.27 221.52"/></g></svg>