<svg xmlns="http://www.w3.org/2000/svg" xmlns:xlink="http://www.w3.org/1999/xlink" height="800" width="1200" viewBox="-42.7065 -16.965 370.123 101.79"><defs><path d="M0 0h285v68.15H0z" id="a"/></defs><clipPath id="b"><use height="100%" width="100%" overflow="visible" xlink:href="#a"/></clipPath><path transform="translate(-.26 -.13)" d="M5.06 27.22c.6.13.78.07.87-.37l.13.04-.4 1.73-.12-.04c.1-.36.02-.6-.65-.75L1.12 27l-.17.72c-.15.65-.02 1 .48 1.17l-.04.14-1.13-.26.04-.13c.08-.07.14-.1.2-.24.05-.1.12-.25.16-.45l.6-2.6c.08-.42.08-.62 0-.82l.03-.15 1.12.26-.02.1c-.43 0-.76.12-.93.9l-.17.77 3.76.82z" fill="#092040" clip-path="url(#b)"/><defs><path d="M0 0h285v68.15H0z" id="c"/></defs><clipPath id="d"><use height="100%" width="100%" overflow="visible" xlink:href="#c"/></clipPath><path transform="translate(-.26 -.13)" d="M5.35 21.6l1.33.64c.54.26.78.22.98-.17l.13.07L7 23.8l-.16-.08c.17-.35.13-.6-.48-.87l-2.83-1.37c-.54-.26-.76-.24-.98.15l-.1-.07.8-1.63.1.07c-.17.35-.1.6.48.87l1.3.63 1.2-2.48-1.3-.63c-.54-.27-.78-.23-.96.16l-.15-.1.78-1.62.13.07c-.2.4-.07.62.48.88l2.84 1.37c.54.26.78.22.98-.17l.13.07-.76 1.67-.16-.1c.17-.34.13-.56-.48-.86l-1.3-.63-1.2 2.48z" fill="#092040" clip-path="url(#d)"/><defs><path d="M0 0h285v68.15H0z" id="e"/></defs><clipPath id="f"><use height="100%" width="100%" overflow="visible" xlink:href="#e"/></clipPath><path transform="translate(-.26 -.13)" d="M11.3 13.3l-.1.13c-.4-.22-.5-.17-.82.22l-.8.98 1.4 1.15c.2.15.32.15.5-.07l.56-.66c.48-.57.57-.74.26-1.4l.1-.12.58.78-2.35 2.8-.1-.1c.25-.3.25-.5-.25-.92l-2.43-2.04c-.48-.4-.7-.4-.98-.07l-.13-.1 2.33-2.8.65.55-.04.07c-.5-.27-.65-.18-1 .25l-.93 1.13 1.65 1.37.9-1.1c.23-.25.27-.4-.03-.73l.1-.1z" fill="#092040" clip-path="url(#f)"/><defs><path d="M0 0h285v68.15H0z" id="g"/></defs><clipPath id="h"><use height="100%" width="100%" overflow="visible" xlink:href="#g"/></clipPath><path transform="translate(-.26 -.13)" d="M20.76 7.63c-.13.72-.48 1.22-1.04 1.54-1.1.6-1.93.1-2.37-.67l-1.22-2.17c-.33-.6-.54-.6-.9-.4l-.06-.14 1.6-.9.06.13c-.35.2-.4.4-.1.98l1.25 2.23c.37.67 1.04.96 1.78.52.5-.26.8-.78.85-1.4l-1.5-2.66c-.27-.53-.5-.64-.86-.47l-.07-.13 1.54-.87.08.13c-.37.22-.4.46-.1.98l1.53 2.74c.34.6.55.6.9.4l.07.14-1.1.6-.3-.6z" fill="#092040" clip-path="url(#h)"/><defs><path d="M0 0h285v68.15H0z" id="i"/></defs><clipPath id="j"><use height="100%" width="100%" overflow="visible" xlink:href="#i"/></clipPath><path transform="translate(-.26 -.13)" d="M28.78 5.63l-.15.02-4.54-3.37h-.03l.9 3.43c.12.5.36.64.8.5l.03.14-1.48.37-.04-.12c.4-.1.6-.28.4-.98l-.75-2.87c-.13-.54-.37-.8-.96-.72l-.07-.12 1.26-.33 4.04 3.02h.04l-.74-2.85c-.17-.63-.37-.76-.8-.65l-.04-.15 1.48-.37.04.13c-.48.1-.6.37-.43.93l1.03 4.03z" fill="#092040" clip-path="url(#j)"/><defs><path d="M0 0h285v68.15H0z" id="k"/></defs><clipPath id="l"><use height="100%" width="100%" overflow="visible" xlink:href="#k"/></clipPath><path transform="translate(-.26 -.13)" d="M32.9 4.26c.03.6.2.78.6.78v.16l-1.8.1-.02-.16c.4-.02.57-.2.52-.83l-.15-3.14c-.05-.64-.18-.8-.62-.77L31.4.23l1.8-.1.03.16c-.4.02-.57.22-.52.83l.2 3.13z" fill="#092040" clip-path="url(#l)"/><defs><path d="M0 0h285v68.15H0z" id="m"/></defs><clipPath id="n"><use height="100%" width="100%" overflow="visible" xlink:href="#m"/></clipPath><path transform="translate(-.26 -.13)" d="M38 5.54l-.13-.02-1-4.26c-.15-.63-.24-.9-.72-.98l.02-.15 1.8.24-.02.15c-.35-.04-.54.1-.46.52l.77 3.4 1.6-2.97c.2-.4.16-.67-.3-.76l.03-.14 1.46.2-.02.15c-.37-.03-.7.2-1.04.86l-2 3.78z" fill="#092040" clip-path="url(#n)"/><defs><path d="M0 0h285v68.15H0z" id="o"/></defs><clipPath id="p"><use height="100%" width="100%" overflow="visible" xlink:href="#o"/></clipPath><path transform="translate(-.26 -.13)" d="M45.97 5.63l-.13-.04c.04-.47-.02-.53-.5-.7l-1.17-.44-.63 1.7c-.1.24-.04.35.22.46l.83.3c.7.24.88.28 1.38-.24l.13.04-.53.8-3.43-1.24.04-.13c.37.13.6.1.8-.54l1.1-2.95c.2-.6.12-.8-.27-.96l.05-.14 3.43 1.24-.3.8-.1-.04c.1-.56-.06-.65-.58-.84l-1.37-.5-.74 2.04 1.32.48c.33.1.48.1.67-.26l.12.04-.35 1.1z" fill="#092040" clip-path="url(#p)"/><defs><path d="M0 0h285v68.15H0z" id="q"/></defs><clipPath id="r"><use height="100%" width="100%" overflow="visible" xlink:href="#q"/></clipPath><path transform="translate(-.26 -.13)" d="M51.7 5.3l.47.3c.65.4.8 1.1.43 1.65-.33.48-.9.78-1.63.33l-.54-.37 1.28-1.9zm-1.38 2.1l.35.2c.78.5.35 1.66.5 3.12l.87.57.1-.12c-.66-.52-.03-2.1-.5-3.1.75.2 1.25 0 1.55-.5.36-.56.25-1.38-.68-2.03L50.78 4.4l-.1.17c.36.22.42.4.05.96L49 8.15c-.37.57-.6.57-.9.35l-.1.13 1.52 1 .08-.13c-.35-.22-.37-.48-.04-.98l.76-1.13z" fill="#092040" clip-path="url(#r)"/><defs><path d="M0 0h285v68.15H0z" id="s"/></defs><clipPath id="t"><use height="100%" width="100%" overflow="visible" xlink:href="#s"/></clipPath><path transform="translate(-.26 -.13)" d="M58.37 11.98l-.1-.1c.47-.6.32-1.18-.05-1.53-.37-.37-.85-.46-1.17-.1-.68.64.05 1.75.05 2.75 0 .5-.17.78-.4 1.02-.6.54-1.5.54-2.05-.02-.37-.4-.5-.9-.63-1.02-.07-.07-.15-.07-.26 0l-.1-.1.97-.97.1.12c-.64.65-.34 1.4-.03 1.74.4.43.96.48 1.35.1.63-.62-.04-1.88-.04-2.66 0-.43.18-.78.47-1.04.54-.54 1.33-.52 1.9.07.36.37.4.7.53.83.07.07.1.07.2 0l.1.1-.83.82z" fill="#092040" clip-path="url(#t)"/><defs><path d="M0 0h285v68.15H0z" id="u"/></defs><clipPath id="v"><use height="100%" width="100%" overflow="visible" xlink:href="#u"/></clipPath><path transform="translate(-.26 -.13)" d="M58.8 17.4c-.5.34-.6.58-.33.92l-.1.1-1.05-1.5.1-.1c.25.35.47.37 1 .02L61 15.06c.52-.37.6-.6.33-.93l.1-.1 1.05 1.5-.1.1c-.25-.35-.5-.37-1-.02l-2.58 1.8z" fill="#092040" clip-path="url(#v)"/><defs><path d="M0 0h285v68.15H0z" id="w"/></defs><clipPath id="x"><use height="100%" width="100%" overflow="visible" xlink:href="#w"/></clipPath><path transform="translate(-.26 -.13)" d="M61.32 21.98c-.54.26-.65.4-.48.83l-.13.08-.73-1.63.13-.07c.15.33.33.48.96.2l3.5-1.6-.3-.66c-.28-.63-.6-.8-1.1-.63l-.06-.14 1.04-.48.07.12c0 .1-.03.17 0 .3 0 .1.06.26.16.46l1.1 2.4c.18.38.34.56.5.64l.08.13-1.04.48-.04-.08c.35-.26.54-.54.22-1.26l-.35-.7-3.5 1.62z" fill="#092040" clip-path="url(#x)"/><defs><path d="M0 0h285v68.15H0z" id="y"/></defs><clipPath id="z"><use height="100%" width="100%" overflow="visible" xlink:href="#y"/></clipPath><path transform="translate(-.26 -.13)" d="M63.3 28.1c-.6.14-.76.3-.67.7l-.13.05-.4-1.8.13-.05c.1.37.22.6.9.43l1.58-.33 1.42-1.4c.48-.45.54-.62.48-1l.13-.05.4 1.93-.12.04c-.1-.54-.32-.57-.58-.3l-1.3 1.3 1.4.52c.44.15.8.1.73-.33l.13-.03.28 1.35-.13.04c-.1-.37-.24-.48-.74-.67l-2-.75-1.5.36z" fill="#092040" clip-path="url(#z)"/><defs><path d="M0 0h285v68.15H0z" id="A"/></defs><clipPath id="B"><use height="100%" width="100%" overflow="visible" xlink:href="#A"/></clipPath><path transform="translate(-.26 -.13)" d="M3.4 40.93c1.38-.4 2.53.04 2.88 1.2.28 1-.33 2.07-1.87 2.5-1.16.35-2.5.04-2.86-1.2-.32-1.1.44-2.1 1.85-2.5m-.23-.76c-1.43.4-2.24 1.87-1.83 3.33.4 1.46 1.87 2.26 3.33 1.85 1.4-.4 2.2-1.87 1.78-3.33-.43-1.46-1.82-2.26-3.28-1.85" fill="#092040" clip-path="url(#B)"/><defs><path d="M0 0h285v68.15H0z" id="C"/></defs><clipPath id="D"><use height="100%" width="100%" overflow="visible" xlink:href="#C"/></clipPath><path transform="translate(-.26 -.13)" d="M5.2 49.97c-.54.3-.63.54-.4.9l-.14.06-.9-1.6.14-.06c.22.37.43.4.98.1l2.74-1.56c.54-.32.63-.5.4-.88l.14-.07 1.72 3.02-.78.46-.07-.1c.48-.4.43-.56.17-1.03l-.63-1.1-1.85 1 .65 1.16c.2.33.4.35.8.2l.07.1L7 51.3l-.07-.1c.3-.2.4-.47.22-.77l-.65-1.14-1.3.7z" fill="#092040" clip-path="url(#D)"/><defs><path d="M0 0h285v68.15H0z" id="E"/></defs><clipPath id="F"><use height="100%" width="100%" overflow="visible" xlink:href="#E"/></clipPath><path transform="translate(-.26 -.13)" d="M14.9 59.7l-.12-.08c.2-.4.17-.5-.24-.83l-.95-.8-1.16 1.4c-.15.2-.15.32.07.5l.68.53c.6.48.74.57 1.4.24l.1.1-.76.6-2.83-2.3.08-.1c.3.25.52.25.93-.25l2-2.43c.4-.5.4-.73.08-1l.1-.1 2.8 2.3-.55.65-.07-.07c.26-.5.15-.65-.26-1l-1.13-.9-1.33 1.64 1.1.9c.25.2.4.25.73-.05l.1.1-.78.94z" fill="#092040" clip-path="url(#F)"/><defs><path d="M0 0h285v68.15H0z" id="G"/></defs><clipPath id="H"><use height="100%" width="100%" overflow="visible" xlink:href="#G"/></clipPath><path transform="translate(-.26 -.13)" d="M20.63 59.87l.87.4c1.46.66 1.5 2 .98 3.1-.6 1.24-1.63 1.72-2.76 1.2l-.48-.22c-.4-.2-.52-.4-.2-1.1l1.6-3.38zm-2.24 3.28c-.27.6-.5.65-.88.5l-.07.13 2.17 1c1.8.83 3.02.1 3.54-1.04.54-1.2.26-2.76-1.5-3.56l-2.1-.98-.08.13c.4.17.43.4.2.96l-1.3 2.85z" fill="#092040" clip-path="url(#H)"/><defs><path d="M0 0h285v68.15H0z" id="I"/></defs><clipPath id="J"><use height="100%" width="100%" overflow="visible" xlink:href="#I"/></clipPath><path transform="translate(-.26 -.13)" d="M27.28 66.34c-.13.6-.02.83.4.9l-.05.14-1.78-.4.04-.14c.38.1.58-.04.73-.65l.67-3.07c.13-.63.04-.8-.4-.9l.05-.14 1.78.38-.04.13c-.42-.08-.62.08-.75.66l-.67 3.08z" fill="#092040" clip-path="url(#J)"/><defs><path d="M0 0h285v68.15H0z" id="K"/></defs><clipPath id="L"><use height="100%" width="100%" overflow="visible" xlink:href="#K"/></clipPath><path transform="translate(-.26 -.13)" d="M36.4 67.95h-.14l-3.6-4.35h-.03l.04 3.54c0 .5.22.7.67.67v.16l-1.52.02v-.15c.4 0 .63-.13.6-.87L32.4 64c-.03-.57-.18-.9-.77-.93v-.15l1.3-.02 3.2 3.9h.02l-.04-2.97c0-.65-.2-.83-.62-.83v-.15H37v.12c-.5 0-.65.22-.65.8l.06 4.18z" fill="#092040" clip-path="url(#L)"/><defs><path d="M0 0h285v68.15H0z" id="M"/></defs><clipPath id="N"><use height="100%" width="100%" overflow="visible" xlink:href="#M"/></clipPath><path transform="translate(-.26 -.13)" d="M41.7 64.34l-.58-2.07.48-.13c.78-.22 1.28.1 1.46.74.17.6-.15 1.15-.87 1.33l-.5.14zm-.18 1.87c.17.62.07.8-.35.94l.04.13 2.25-.63c.9-.24 1.43-.9 1.24-1.6-.18-.66-.86-1.1-1.64-1.03.6-.4.83-.83.67-1.37-.17-.63-.85-1.04-2.02-.72l-1.82.5.04.14c.4-.1.6 0 .76.63l.84 3.04zm.22-1.68l.46-.13c.87-.25 1.54.08 1.74.8.2.7-.17 1.16-.67 1.3l-.4.1c-.36.1-.53-.02-.73-.67z" fill="#092040" clip-path="url(#N)"/><defs><path d="M0 0h285v68.15H0z" id="O"/></defs><clipPath id="P"><use height="100%" width="100%" overflow="visible" xlink:href="#O"/></clipPath><path transform="translate(-.26 -.13)" d="M51.97 62.08c-.13.74-.46 1.22-1.04 1.57-1.07.63-1.9.1-2.35-.63l-1.26-2.15c-.35-.6-.54-.6-.9-.4l-.06-.12 1.6-.9.06.12c-.35.22-.4.4-.1.98l1.3 2.2c.38.67 1.03.93 1.77.5.5-.3.8-.8.82-1.46l-1.52-2.64c-.3-.5-.5-.6-.87-.4l-.1-.14 1.55-.9.07.14c-.37.22-.4.46-.1.98l1.6 2.72c.33.6.57.6.9.4l.08.12-1.07.63-.4-.62z" fill="#092040" clip-path="url(#P)"/><defs><path d="M0 0h285v68.15H0z" id="Q"/></defs><clipPath id="R"><use height="100%" width="100%" overflow="visible" xlink:href="#Q"/></clipPath><path transform="translate(-.26 -.13)" d="M54 55.23l.37-.37c.54-.54 1.24-.6 1.72-.1.4.4.58 1.06-.03 1.66l-.43.43zm1.8 1.8l.28-.3c.65-.66 1.67-.03 3.17.1l.72-.74-.1-.12c-.64.54-2.05-.4-3.16-.13.38-.67.25-1.22-.14-1.6-.48-.5-1.33-.55-2.13.25l-1.46 1.48.1.1c.3-.27.5-.32.97.14l2.26 2.22c.48.48.46.7.17.98l.1.1 1.27-1.3-.1-.1c-.3.3-.53.26-1-.15l-.94-.95z" fill="#092040" clip-path="url(#R)"/><defs><path d="M0 0h285v68.15H0z" id="S"/></defs><clipPath id="T"><use height="100%" width="100%" overflow="visible" xlink:href="#S"/></clipPath><path transform="translate(-.26 -.13)" d="M64.1 49.97c-.1.28-.5 1.1-.63 1.26-1.15 1.9-2.67 1.83-3.67 1.22-1.52-.93-1.67-2.6-1.04-3.67.37-.6.72-.72.9-1.04.1-.13.1-.22 0-.33l.1-.12 1.26.78-.07.1c-.9-.38-1.67.14-2.04.73-.53.88-.16 2 1.03 2.75 1.26.78 2.65.6 3.28-.43.2-.3.38-.76 0-1l-.5-.28c-.5-.33-.77-.33-1 .04l-.1.17-.13-.1 1.07-1.73.13.07c-.26.4-.1.64.26.88l1.17.7z" fill="#092040" clip-path="url(#T)"/><defs><path d="M0 0h285v68.15H0z" id="U"/></defs><clipPath id="V"><use height="100%" width="100%" overflow="visible" xlink:href="#U"/></clipPath><path transform="translate(-.26 -.13)" d="M63.95 44.15l1.4.4c.58.16.8.08.92-.36l.13.03-.5 1.77-.12-.04c.1-.37.04-.6-.6-.78l-3.03-.87c-.6-.16-.8-.1-.93.34l-.13-.04.5-1.76.12.04c-.1.4-.02.6.6.78l1.38.4.76-2.64-1.37-.4c-.62-.16-.8-.08-.94.34l-.13-.04.5-1.74.13.04c-.1.4.04.6.6.78l3.03.87c.58.17.8.1.92-.33l.17.06-.5 1.74-.14-.04c.1-.37.04-.6-.6-.76l-1.42-.4-.8 2.6z" fill="#092040" clip-path="url(#V)"/><defs><path d="M0 0h285v68.15H0z" id="W"/></defs><clipPath id="X"><use height="100%" width="100%" overflow="visible" xlink:href="#W"/></clipPath><path transform="translate(-.26 -.13)" d="M2.93 34.54c0 .24-.2.46-.46.43-.24 0-.46-.2-.46-.46 0-.23.2-.45.47-.45.27.03.46.23.46.5" fill="#092040" clip-path="url(#X)"/><defs><path d="M0 0h285v68.15H0z" id="Y"/></defs><clipPath id="Z"><use height="100%" width="100%" overflow="visible" xlink:href="#Y"/></clipPath><path transform="translate(-.26 -.13)" d="M66.08 34.54c0 .24-.2.46-.46.43-.24 0-.46-.2-.46-.46 0-.25.2-.45.46-.45.27.06.46.25.46.5" fill="#092040" clip-path="url(#Z)"/><defs><path d="M0 0h285v68.15H0z" id="aa"/></defs><clipPath id="ab"><use height="100%" width="100%" overflow="visible" xlink:href="#aa"/></clipPath><path transform="translate(-.26 -.13)" d="M47.02 57.47c.35-.2.67-.4 1.02-.65l.87-.52.77-.6.83-.62.17-.17.2-.1c.24-.17.48-.4.7-.6l.5-.53.6-.5c.08-.07.1-.15.2-.22.14-.15.32-.3.45-.46l.3-.36c.35-.33.67-.7.96-1.07l.7-.85c.15-.22.33-.43.48-.65l.24-.26.76-1.06c.07-.1.1-.24.2-.37.07-.1.1-.17.17-.24.04-.1.1-.2.13-.3l.5-.9c.13-.2.26-.45.4-.66.1-.24.16-.48.27-.7.1-.24.24-.5.35-.74.4-1.04.78-2.1 1.1-3.2 0-.13.03-.26.06-.4.1-.38.2-.8.26-1.2l.07-.64c.07-.36.13-.7.17-1.05l.07-.83.08-.33.04-.7.07-.36v-.5c.06-1.07.08-2.2.03-3.24-.04-.54-.15-1.1-.22-1.6-.06-.58-.1-1.12-.2-1.66-.3-1.48-.73-2.9-1.25-4.3-.07-.2-.2-.37-.26-.6-.18-.4-.38-.77-.55-1.16l-.2-.33c-.17-.35-.26-.72-.46-1.04-.12-.2-.25-.36-.38-.58l-.3-.63c-.37-.6-.76-1.18-1.15-1.75l-.43-.5-.5-.63c-.15-.15-.33-.3-.46-.48-.1-.1-.13-.22-.22-.3-.1-.13-.24-.26-.37-.4l-.23-.2c-.2-.2-.37-.4-.54-.62l-.5-.48-.48-.5-.67-.52-.7-.6c-.15-.12-.33-.2-.48-.3l-.6-.44c-.16-.1-.3-.22-.42-.35l-.33-.2-.43-.3c-.48-.3-.98-.52-1.48-.76-.17-.1-.37-.22-.54-.35-.33-.15-.63-.33-.93-.48l-.78-.33c-.14-.06-.27-.12-.4-.2l-.3-.12c-.2-.03-.35-.1-.53-.18-.5-.17-1-.3-1.5-.46-.24-.07-.48-.17-.74-.24-.52-.15-1.07-.24-1.6-.35-.36-.1-.73-.17-1.08-.24l-.7-.08c-.4-.1-.8-.15-1.22-.2l-.48-.02-.33-.04-.63-.02c-.5-.04-1-.07-1.5-.07-.2.07-.45.02-.66.02h-.74c-.07 0-.13 0-.22.03l-.54.02-.28.07-.28.04c-.1 0-.17-.02-.26.02-.04.02-.1.02-.17.02-.1 0-.24 0-.33.04-.24 0-.63.04-.8.13-.07.02-.1.02-.17.02-.15 0-.37 0-.5.08-.4 0-.76.17-1.13.26-.2.04-.43.07-.6.17-.18 0-.36.05-.5.12-.25 0-.47.15-.7.24-.12.04-.3.04-.4.13-.26 0-.5.14-.7.23l-.46.2c-.8.35-1.6.72-2.35 1.1-.12.1-.25.18-.38.25-.9.52-1.8 1.02-2.6 1.7-.25.17-.5.33-.73.52-.14.1-.27.22-.4.33-.22.17-.48.33-.7.52-.46.37-.9.83-1.33 1.24-.26.23-.54.5-.8.7-.1.12-.17.23-.26.3-.12.14-.25.25-.36.36-.2.2-.33.43-.5.63-.17.16-.33.3-.48.5l-.2.25c-.28.33-.54.63-.78.96l-.5.8c-.24.3-.5.7-.7 1-.04.12-.1.23-.15.34l-.48.8c-.13.28-.24.6-.37.87l-.13.25c-.13.24-.24.5-.4.76-.06.16-.12.34-.2.5-.08.16-.16.32-.23.5l-.2.58c-.1.2-.15.4-.24.6-.4 1.3-.74 2.58-1 3.92l-.07.76c-.03.3-.12.63-.16.9-.02.23-.02.5-.07.7-.02.18-.04.36-.04.55-.04 1.1-.02 2.16.02 3.2.02.5.1 1.03.15 1.53l.04.65c.07.67.2 1.37.3 2.04.04.17.1.35.13.52.1.52.24 1.04.4 1.57l.12.36c0 .1.06.24.08.37l.6 1.7c.12.22.2.4.3.63.08.13.1.3.14.43.15.36.37.7.57 1.03.12.28.32.54.45.85 0 .1.02.2.1.3.03.07.1.1.14.2.06.1.1.24.16.37.13.24.3.48.48.7l.3.4c.13.18.3.36.43.53l.3.46c.2.22.37.46.6.67.16.2.32.4.47.62.2.22.4.4.6.63.16.2.3.4.5.6.25.23.5.5.77.73l.4.4c.22.2.48.32.67.5l.6.6.44.33c.18.16.34.34.53.5l.7.5c.17.08.35.12.5.23.17.13.37.26.54.4l.57.32c.67.4 1.4.78 2.1 1.13.34.15.64.35.97.46.34.13.64.24.94.37.1.05.22.08.35.1.3.1.6.24.9.35l.24.07c.26.1.52.22.8.3l1 .2c.5.1 1.02.24 1.52.33.2.02.37.04.54.04.24.03.5.08.76.1l.6.04.36.07c.13 0 .26.03.4.03.3.04.6.1.9.13.15.02.3.02.48.02l.28-.04c.28 0 .6.04.9.04.16 0 .34-.02.5 0 .36.02.68-.04 1-.1h.47c.2-.03.4-.08.6-.08.73-.07 1.42-.15 2.12-.28.24-.07.48-.1.7-.2l.9-.2c.14-.04.27-.1.42-.17.23-.07.47-.13.7-.22l.3-.1.5-.12c.36-.1.7-.23 1.08-.36l.63-.3c.2-.1.42-.17.62-.26l.17-.1c.2-.12.42-.2.62-.3l.72-.42c.12-.1.25-.14.38-.2" fill="#092040" clip-path="url(#ab)"/><defs><path d="M0 0h285v68.15H0z" id="ac"/></defs><clipPath id="ad"><use height="100%" width="100%" overflow="visible" xlink:href="#ac"/></clipPath><path transform="translate(-.26 -.13)" d="M33.8 58.54h-.02v-.02c-.04 0-.07-.04-.07-.07l-.25-.43-.57-.65c-.57-.54-1.22-1-1.9-1.3l-.44-.15c-.17-.07-.3-.17-.48-.22-.15-.07-.33-.07-.5-.1-.17-.05-.35-.1-.52-.12l-1.07-.24c-.35-.04-.7-.1-1.04-.13-.28 0-.54 0-.8-.03-1.26-.13-2.52-.24-3.74-.46-.42-.06-.84-.06-1.25-.12-.4-.07-.8-.2-1.2-.33-.22-.07-.43-.1-.63-.2s-.4-.17-.6-.26c-.14-.08-.3-.14-.42-.2-.1-.08-.2-.14-.3-.2-.04-.03-.1-.05-.13-.1-.33-.26-.6-.63-.87-.96-.2-.24-.3-.54-.4-.85-.03-.16-.08-.3-.12-.47-.17-.7-.17-1.4-.17-2.17 0-.15 0-.3-.03-.46.02-.57.07-1.15.07-1.7l-.02-.37.02-1.7c0-.37.04-.74.02-1.1-.02-1.5.02-3.08.04-4.62l-.04-.64.02-.7-.02-.33.1-1.04c0-.27-.03-.55-.03-.8 0-.2.04-.38.02-.58-.02-.17-.04-.33-.04-.5.03-.15.03-.3.03-.46l-.02-.93c0-.17.05-.37.03-.57-.02-.22-.04-.4-.04-.63 0-.24.03-.52.06-.76s-.02-.5-.02-.74l.02-1.63.02-.33-.04-.7.07-.6c.03-.97.03-1.97.05-2.92v-.98c-.02-.24-.04-.46-.04-.7.03-.15.03-.33.03-.48l-.02-2.5c0-.3.03-.58.03-.86l-.02-1.02.03-.67c0-.2-.04-.46.02-.6 0-.05.07-.05.1-.05.45-.07.86-.1 1.23-.07.46.07.9 0 1.35 0h1.24c.24 0 .48-.02.74-.04.5 0 .9.03 1.36 0h2.2c.24 0 .48 0 .7-.03.2 0 .37.04.6.04h.73c.38 0 .8 0 1.2.03l.53.04c.54 0 1.1-.02 1.65-.04l1.1.04c.3 0 .6-.07.92-.07l.7.02.63-.02.74.07c.2-.02.37-.02.57-.02l1.1.04c.16-.03.34-.03.5-.05 1-.02 1.94 0 2.94-.02l.65-.04c.46-.03.9 0 1.35-.03.03.03.14.03.23.03.38.04.8 0 1.23.02.17 0 .3.04.48.04.18-.02.36-.02.55-.02.28.02.63.04.9.04.2 0 .4-.04.62-.04l.46.04.65-.02.46.07.37-.02c.14.03.27.03.4.03l.4-.02.7.03c.38-.02.77.02 1.16.02l.57-.04c.13.03.24.03.37.03.1 0 .26-.02.37.02l.02.02c.08.13.03.35.03.52 0 .5-.02 1.03 0 1.56.02.33.02.7.02 1.02l-.02.33c.02.25.02.5.02.7l-.04.7.08.92-.04.35c-.02.2.04.4.04.6l-.04.6-.02.74-.04.58.07.9c-.05.1-.05.2-.05.32-.02.24-.04.5-.02.74 0 .43.04.9.04 1.33l-.04.28c.02.2.02.4.02.6-.02.2-.04.47-.04.73 0 .17.04.35.04.52l-.04.28c.02.13.02.24.02.37-.02.48-.04.9-.04 1.4.02.23.02.47.02.7l.04.27-.02.48.02.3-.04.5c0 .24.07.48.04.74-.02.67-.07 1.33-.07 2.02 0 .28.04.52.04.78-.02.15-.04.3-.04.46 0 .33 0 .65-.02.96l-.03.52c.02.65.02 1.3.02 1.93 0 .47-.05.94-.05 1.38l.04.74c0 .1-.03.2-.03.28v.52l.02 1.24c0 .48 0 1-.03 1.52l-.02.4.04.27c-.03.3-.03.6-.05.9-.02.23.02.5.02.75-.02.15-.07.33-.1.48 0 .17-.03.35-.06.5-.06.3-.25.7-.4.96-.13.22-.35.33-.52.5-.1.1-.22.17-.33.26-.2.17-.4.35-.63.48-.13.07-.3.1-.43.17-.3.1-.6.24-.9.37-.26.1-.57.17-.83.28l-.22.07c-.15 0-.35.07-.48.13-.13 0-.26.02-.37.07-.2 0-.35.07-.5.1-.04.03-.1.05-.15.05-.1 0-.17.02-.24.04-.14 0-.5.07-.62.13-.13 0-.3-.03-.4 0-.1 0-.18.03-.25.05-.13 0-.26-.02-.37.04h-.2c-.1 0-.2 0-.28.05-.1 0-.2.02-.26.04-.17 0-.4-.03-.54.03l-.2.02c-.17 0-.35-.07-.5.02-.1 0-.2-.02-.28.02h-.13c-.15 0-.35 0-.48.03-.08.02-.14.02-.2.02l-.14.02c-.04.02-.1.02-.13.02h-.22s-.2 0-.27.05l-.2.02c-.1 0-.22 0-.3.04-.1 0-.2 0-.28.05-.1 0-.17.02-.24.04-.06 0-.14 0-.2.03l-.14.02c-.1 0-.28.04-.37.1-.08 0-.16 0-.23.03-.24 0-.46.1-.65.2-.17.07-.33.1-.48.17-.33 0-.65.28-.87.48-.2.17-.46.24-.65.43-.53.63-.86 1.3-1.12 1.98" fill="#FFF" clip-path="url(#ad)"/><defs><path d="M0 0h285v68.15H0z" id="ae"/></defs><clipPath id="af"><use height="100%" width="100%" overflow="visible" xlink:href="#ae"/></clipPath><path transform="translate(-.26 -.13)" d="M36.4 55.23c.12-.07.27-.1.42-.17.28-.1.6-.13.9-.2.56-.1 1.1-.26 1.64-.4h.4c.23-.05.44-.1.66-.12l.9-.04c.34-.02.7-.1 1.06-.13l.96-.07c.28-.04.57-.1.85-.13.08-.02.2-.02.27-.02.43-.07.87-.17 1.26-.26.13-.05.28-.05.4-.1.4-.1.8-.26 1.18-.4.34-.1.64-.2.94-.34.26-.1.5-.3.74-.46.43-.28.9-.6 1.2-1.04.1-.2.24-.52.26-.76.02-.1.02-.24.02-.35.1-.5.07-1.07.07-1.6.02-.2.02-.36.02-.56-.02-.1-.02-.2-.02-.3v-.62l-.04-.24v-.42c0-.13.03-.24.03-.4 0-.14-.04-.25-.04-.4 0-.17.03-.3.03-.48.02-.6 0-1.22.02-1.83l-.02-.45.02-1.6c.04-1.47.02-3.03.04-4.5-.03-.14-.03-.32-.03-.47-.02-.04-.02-.1-.02-.13.02-.1.04-.24.02-.37-.02-.1-.02-.17-.02-.26 0-.1.04-.24.04-.37 0-.26-.08-.5-.08-.76 0-.2.02-.36.04-.53 0-.1 0-.17-.02-.26l.04-.25-.04-.3.04-.35c0-.1-.04-.2-.04-.3l.02-1.9c0-.14.04-.27.04-.4s-.04-.24-.04-.37l.04-.22.04-.62-.02-1-.04-.33c0-.26.04-.5.04-.74l-.04-.58c.02-1.5-.04-2.93 0-4.43.02-.8.02-1.64.02-2.47.02-.46-.02-.93-.02-1.35 0-.43 0-.83.02-1.28 0-.04-.22-.02-.26 0l-1.3-.02c-.28-.02-.57-.04-.87-.04-.1 0-.2-.02-.26.02l-.32.04-.48-.07-1.63-.02c-.15 0-.54-.03-.65 0H44c-.23-.03-.53-.12-.75-.03-.07.02-.13.02-.2.02-.2 0-.4 0-.6-.03-.3-.02-.62-.07-.92-.07-.24.07-.57-.04-.8.04-.07.02-.1.02-.2.02h-.74c-.12 0-.3-.02-.38.02-.07 0-.17-.02-.24.02-.2 0-.37-.04-.57-.04l-1.45-.02c-.17 0-.43-.04-.6.02 0 .04-.03.04-.1.04-.07.02-.13.02-.22.02-.26 0-.72-.13-.96-.04-.02.02-.07.02-.13.02-.1 0-.22 0-.3.04l-2.07-.02h-.54c-.1 0-.22-.04-.28 0-.17 0-.35 0-.52-.02-.24-.02-.76-.1-.98-.02h-.48c-.1-.02-.22-.04-.33 0-.13 0-.33-.02-.46.02-.28 0-.52-.04-.8-.04-.1 0-.2-.02-.28.02-.17 0-.4-.04-.57.02h-.78c-.13 0-.3-.02-.4.02-.32 0-.66 0-1 .02-.2-.02-.62-.1-.8-.02-.2 0-.58-.07-.73-.02-.46 0-.85-.02-1.28-.07-.15-.02-.4-.07-.54 0-.1 0-.2-.02-.26.02-.17 0-.4-.04-.54.02-.13 0-.37-.04-.5.02-.54 0-1.15-.03-1.74-.05-.17 0-.4-.04-.57.02-.23 0-.68-.04-.84.02-.1 0-.35-.05-.4.03-.14.2-.05.8-.05.98v1.6l-.06 1.78c0 .17-.04.28-.04.46l.02.46-.07.46c.05.34.05.67.05.97-.02.52-.04 1.1-.04 1.65.02.22.02.43.02.65.02.07.02.14.02.22-.02.13-.04.26-.04.4.02.95-.02 1.86-.02 2.82l.02 1.22c-.02.2-.04.38-.04.6l.02.9-.02 1.86c.02.22.02.43.02.65l-.04.84.02 3.37c0 .27-.04.5-.04.8v.88c.02.13.02.26.02.4-.02 1-.07 1.95-.07 2.97 0 .46-.04.87-.07 1.3v.6l.04.23-.04.24c-.02.22-.02.46-.02.67 0 .25 0 .58.02.86 0 .13.04.24.04.37s-.07.22-.07.35c0 .17.04.28.04.46-.02 1.2.02 2.37.54 3.28.38.63 1.08 1.02 1.7 1.3.44.2.9.4 1.38.52.35.1.7.13 1.07.2l.87.15c.28 0 .57.03.83.06.6.07 1.2.17 1.8.26.28.02.6.04.87.04.1.02.24.04.37.1h.66l.74.08c.1.02.24.02.37.02.1.04.22.04.33.1l.9.12.3.1c.2.06.38.1.6.2.3.1.6.2.9.32l.62.33.35.22c.24.13.48.24.67.4.26.23.46.5.67.75.08.1.12.2.23.24 0 .04.02.02.04.02 0-.04.1-.1.15-.15l.13-.2c.5-.75 1.26-1.3 2.04-1.7.25-.18.38-.24.5-.27" fill="#092040" clip-path="url(#af)"/><defs><path d="M0 0h285v68.15H0z" id="ag"/></defs><clipPath id="ah"><use height="100%" width="100%" overflow="visible" xlink:href="#ag"/></clipPath><path transform="translate(-.26 -.13)" d="M36.52 19.7h-.07v-.23c.04-.24.22-.35.35-.52.24.22-.13.57-.28.74" fill="#FFF" clip-path="url(#ah)"/><defs><path d="M0 0h285v68.15H0z" id="ai"/></defs><clipPath id="aj"><use height="100%" width="100%" overflow="visible" xlink:href="#ai"/></clipPath><path transform="translate(-.26 -.13)" d="M37.74 17.74c.1-.1.15-.24.24-.35l.22-.23c.17.02.33.04.5.04v.08c-.24 0-.9.83-1.07 1.04-.07.1-.15.3-.26.35-.07.04-.15 0-.2-.04-.17-.1-.04-.26.02-.4 0-.06.03-.14.08-.2.07-.05.13-.08.2-.1.08-.04.17-.13.26-.2" fill="#FFF" clip-path="url(#aj)"/><defs><path d="M0 0h285v68.15H0z" id="ak"/></defs><clipPath id="al"><use height="100%" width="100%" overflow="visible" xlink:href="#ak"/></clipPath><path transform="translate(-.26 -.13)" d="M36.15 18.3c.04-.1.04-.24.1-.37.06-.13.23-.17.36-.28.12-.1.12-.22.2-.33.1-.1.2-.13.3-.17h.3c0 .1-.16.24-.23.33-.07.15-.13.28-.22.4-.1.12-.17.25-.26.38-.08.1-.1.2-.18.3-.07.04-.1.1-.17.13-.04.06-.1.1-.15.16l-.15.15c-.1.12-.1.3-.22.4-.1.1-.33.13-.48.1h-.05c0-.08.3-.55.37-.62.07-.07.15-.07.22-.13.03-.07.03-.15.08-.22.04-.1.15-.12.17-.23" fill="#FFF" clip-path="url(#al)"/><defs><path d="M0 0h285v68.15H0z" id="am"/></defs><clipPath id="an"><use height="100%" width="100%" overflow="visible" xlink:href="#am"/></clipPath><path transform="translate(-.26 -.13)" d="M34.4 17.98c0-.1.12-.2.16-.3.04-.13-.02-.24.1-.37.1-.12.7 0 .88-.12h.37v.04c-.03 0-.03.02-.03.04-.17.26-.26.54-.4.83l-.16.3-.12.34c-.1.22-.4.6-.67.65-.03 0 0-.23-.03-.27-.02-.1-.07-.2-.04-.3.02-.13.1-.22.1-.35-.1-.16-.18-.33-.14-.5" fill="#FFF" clip-path="url(#an)"/><g transform="translate(-.26 -.13)"><defs><path d="M0 0h285v68.15H0z" id="ao"/></defs><clipPath id="ap"><use height="100%" width="100%" overflow="visible" xlink:href="#ao"/></clipPath><path d="M32.54 17.2c.1-.1.4-.05.54-.08.15.04.52.04.7.04l.02.3c.02.1.04.15.04.24l-.04.26c-.02.37-.07.74-.07 1.1l.04.66h-.02v-.02c-.3 0-.63-.9-.76-1.1-.08-.12-.18-.2-.25-.3-.17-.24-.47-.84-.2-1.1" fill="#FFF" clip-path="url(#ap)"/></g><g transform="translate(-.26 -.13)"><defs><path d="M0 0h285v68.15H0z" id="aq"/></defs><clipPath id="ar"><use height="100%" width="100%" overflow="visible" xlink:href="#aq"/></clipPath><path d="M30.63 17.37c.04-.15.4-.15.54-.24.13 0 .33-.02.4.04.34.17.47.65.6.96l.3.6.2.3c.04.1.07.2.07.34 0 .1.02.24-.07.3-.07.04-.17.02-.24-.02-.1-.04-1.8-2.13-1.8-2.24v-.03" fill="#FFF" clip-path="url(#ar)"/></g><g transform="translate(-.26 -.13)"><defs><path d="M0 0h285v68.15H0z" id="as"/></defs><clipPath id="at"><use height="100%" width="100%" overflow="visible" xlink:href="#as"/></clipPath><path d="M29.74 17.15c.17.04.26.1.4.2.2.17.34.4.5.6.06.12.1.23.2.34.12.12.25.23.36.36.11.13.22.26.3.4l.1.16.23.2c.15.15.3.35.37.52-.04 0-.04.04-.04.07-.13 0-.28-.03-.37-.1l-.47-.46c-.1-.1-.22-.13-.3-.24-.17-.22-.28-.48-.48-.67-.1-.1-.26-.13-.37-.24l-.02-.03c-.1-.13-.17-.3-.26-.43-.1-.15-.3-.26-.4-.4v-.05c-.05-.16.13-.2.24-.25" fill="#FFF" clip-path="url(#at)"/></g><g transform="translate(-.26 -.13)"><defs><path d="M0 0h285v68.15H0z" id="au"/></defs><clipPath id="av"><use height="100%" width="100%" overflow="visible" xlink:href="#au"/></clipPath><path d="M34.95 22.02c.07.02.13.02.2.02.2.07.37.37.3.6-.04.1-.17.2-.26.3-.08.03-.18.12-.27.12-.13-.02-.1-.3-.04-.37.03-.12.16-.14.16-.27 0-.2-.1-.28-.1-.4" fill="#FFF" clip-path="url(#av)"/></g><g transform="translate(-.26 -.13)"><defs><path d="M0 0h285v68.15H0z" id="aw"/></defs><clipPath id="ax"><use height="100%" width="100%" overflow="visible" xlink:href="#aw"/></clipPath><path d="M35.28 21.04c-.1.04-.17.17-.26.17-.13 0-.2-.2-.3-.3-.1-.1-.33-.14-.28-.34.02-.1.1-.1.13-.13v-.02c.15.05.26.12.4.18.16.07.32.1.5.17.03.02.03.04.03.1-.05.1-.15.15-.22.2" fill="#FFF" clip-path="url(#ax)"/></g><g transform="translate(-.26 -.13)"><defs><path d="M0 0h285v68.15H0z" id="ay"/></defs><clipPath id="az"><use height="100%" width="100%" overflow="visible" xlink:href="#ay"/></clipPath><path d="M34.98 23.93c-.04.17-.4.24-.54.15-.2-.1.17-.37.26-.43.08.04.3.15.28.28" fill="#FFF" clip-path="url(#az)"/></g><g transform="translate(-.26 -.13)"><defs><path d="M0 0h285v68.15H0z" id="aA"/></defs><clipPath id="aB"><use height="100%" width="100%" overflow="visible" xlink:href="#aA"/></clipPath><path d="M33.95 23.78c-.07.02-.1-.04-.13-.07-.07-.03-.1-.03-.17-.08-.1-.13-.1-.26-.1-.46 0-.1 0-.22.03-.3.02-.07.1-.1.17-.15.1 0 .13.03.2.05.07.04.54.5.54.54.02.2-.4.46-.55.48" fill="#FFF" clip-path="url(#aB)"/></g><g transform="translate(-.26 -.13)"><defs><path d="M0 0h285v68.15H0z" id="aC"/></defs><clipPath id="aD"><use height="100%" width="100%" overflow="visible" xlink:href="#aC"/></clipPath><path d="M36.7 22.3c0 .17-.1.35-.25.4 0 .05-.1 0-.1 0 0-.18.2-.3.32-.4h.02z" fill="#FFF" clip-path="url(#aD)"/></g><g transform="translate(-.26 -.13)"><defs><path d="M0 0h285v68.15H0z" id="aE"/></defs><clipPath id="aF"><use height="100%" width="100%" overflow="visible" xlink:href="#aE"/></clipPath><path d="M36.26 22c-.07.04-.1.1-.2.1s-.1-.05-.13-.12c-.02-.07-.02-.8.02-.9.02-.08.15-.14.22-.2.17.06.17.16.22.32.08.28.16.58-.14.8" fill="#FFF" clip-path="url(#aF)"/></g><g transform="translate(-.26 -.13)"><defs><path d="M0 0h285v68.15H0z" id="aG"/></defs><clipPath id="aH"><use height="100%" width="100%" overflow="visible" xlink:href="#aG"/></clipPath><path d="M35.98 23.35c.02 0 .02.02 0 .02 0 .1-.3.3-.4.2-.12-.13.05-.26.12-.35.12.02.2.04.28.13" fill="#FFF" clip-path="url(#aH)"/></g><g transform="translate(-.26 -.13)"><defs><path d="M0 0h285v68.15H0z" id="aI"/></defs><clipPath id="aJ"><use height="100%" width="100%" overflow="visible" xlink:href="#aI"/></clipPath><path d="M33.85 20.9h.24c.12.05.6.42.56.62-.04.17-.2.26-.33.37-.13.1-.26.25-.46.27-.17.02-.4-.76-.4-.9.03-.06.3-.34.36-.36h.02" fill="#FFF" clip-path="url(#aJ)"/></g><g transform="translate(-.26 -.13)"><defs><path d="M0 0h285v68.15H0z" id="aK"/></defs><clipPath id="aL"><use height="100%" width="100%" overflow="visible" xlink:href="#aK"/></clipPath><path d="M33.3 22.78c-.1.1-.22.22-.32.22-.1.02-.13-.07-.22-.1-.15-.14-.26-.42-.22-.64l.1-.2c.08-.2.05-.22.2-.37.2.08.8.5.73.77-.05.14-.2.25-.27.3" fill="#FFF" clip-path="url(#aL)"/></g><g transform="translate(-.26 -.13)"><defs><path d="M0 0h285v68.15H0z" id="aM"/></defs><clipPath id="aN"><use height="100%" width="100%" overflow="visible" xlink:href="#aM"/></clipPath><path d="M33.4 24.06h-.03c0 .04-.1.02-.1.02-.36-.07-.75-.17-.47-.6.07 0 .1 0 .13.03.1.08.1.16.17.23.1.14.25.18.3.33" fill="#FFF" clip-path="url(#aN)"/></g><g transform="translate(-.26 -.13)"><defs><path d="M0 0h285v68.15H0z" id="aO"/></defs><clipPath id="aP"><use height="100%" width="100%" overflow="visible" xlink:href="#aO"/></clipPath><path d="M31.78 21.1s.17-.2.24-.25v-.02c.3.2.52.52.22.85-.07.07-.15.13-.24.15-.26.04-.15-.3-.17-.43.02-.12-.03-.23-.05-.3" fill="#FFF" clip-path="url(#aP)"/></g><g transform="translate(-.26 -.13)"><defs><path d="M0 0h285v68.15H0z" id="aQ"/></defs><clipPath id="aR"><use height="100%" width="100%" overflow="visible" xlink:href="#aQ"/></clipPath><path d="M32.32 20.65v-.07c.04-.02.1-.02.13-.04.3-.04.48-.1.72-.22.07.02.2.02.24.1.14.2-.47.62-.64.6-.2-.02-.3-.26-.44-.37" fill="#FFF" clip-path="url(#aR)"/></g><g transform="translate(-.26 -.13)"><defs><path d="M0 0h285v68.15H0z" id="aS"/></defs><clipPath id="aT"><use height="100%" width="100%" overflow="visible" xlink:href="#aS"/></clipPath><path d="M31.95 22.6c.04 0 .1 0 .13.03.1.07.52.46.52.6.02.12-.33.36-.46.38-.1.03-.1-.06-.13-.12-.1-.3-.15-.6-.05-.9" fill="#FFF" clip-path="url(#aT)"/></g><g transform="translate(-.26 -.13)"><defs><path d="M0 0h285v68.15H0z" id="aU"/></defs><clipPath id="aV"><use height="100%" width="100%" overflow="visible" xlink:href="#aU"/></clipPath><path d="M31.48 22.32c-.22.07-.17-.37-.17-.52.18.07.52.46.18.52" fill="#FFF" clip-path="url(#aV)"/></g><g transform="translate(-.26 -.13)"><defs><path d="M0 0h285v68.15H0z" id="aW"/></defs><clipPath id="aX"><use height="100%" width="100%" overflow="visible" xlink:href="#aW"/></clipPath><path d="M34.37 46.6c0-.06.5-.8.6-.88.03-.04.08-.1.12-.1v-.03h.34c0 .12-.54.95-.7 1-.1.05-.24.03-.37.03v-.02z" fill="#FFF" clip-path="url(#aX)"/></g><g transform="translate(-.26 -.13)"><defs><path d="M0 0h285v68.15H0z" id="aY"/></defs><clipPath id="aZ"><use height="100%" width="100%" overflow="visible" xlink:href="#aY"/></clipPath><path d="M30.82 46.54c-.13.07-.33.02-.48.02 0-.22.87-.83 1.04-1h.35c-.02.18-.75.9-.9.98" fill="#FFF" clip-path="url(#aZ)"/></g><g transform="translate(-.26 -.13)"><defs><path d="M0 0h285v68.15H0z" id="ba"/></defs><clipPath id="bb"><use height="100%" width="100%" overflow="visible" xlink:href="#ba"/></clipPath><path d="M37.17 51.13c-.15.07-.35-.07-.43-.17-.08-.1-.1-.26-.17-.4-.07-.2-.13-.45-.24-.66-.07-.13-.17-.35-.15-.52.02-.1.1-.15.2-.22.07.02.1.04.15.1l.1.2.2.66c.08.26.18.52.3.76.02.05.13.22.04.25" fill="#FFF" clip-path="url(#bb)"/></g><g transform="translate(-.26 -.13)"><defs><path d="M0 0h285v68.15H0z" id="bc"/></defs><clipPath id="bd"><use height="100%" width="100%" overflow="visible" xlink:href="#bc"/></clipPath><path d="M36.4 45.54c.1.17.77.9.73 1.04-.02.04-.04.04-.1.04h-1.67v-.02h-.02c0-.1.07-.15.1-.22.1-.22.53-.8.5-1.02 0-.07-.06-.13-.12-.13-.28-.1-.63-.02-.93-.02-.18 0-.53-.08-.68 0-.3 0-1.37-.16-1.5.1-.04.07.02.13.04.2.1.24.33.48.48.7.1.13.17.26.26.4v.03c-.02.02-.04.02-.07.02-.65-.02-1.3-.04-1.96-.04v-.03c.02 0 .96-1.13 1.07-1.26 0-.03-.02-.03-.02-.03-.1-.02-.24-.04-.35-.04l-.6-.04c-.53-.03-1.14 0-1.66-.05 0-.07.8-.83.92-.93.67-.7 1.37-1.4 2.1-2.1.23-.23.47-.5.73-.75.1-.07.15-.15.24-.2v-.04c.14.1.3.24.4.37.22.22.4.43.63.65.13.1.26.24.4.37.6.63 1.23 1.22 1.84 1.83.24.26.6.52.78.8l-.13.02h-.6c-.06 0-.16-.02-.23 0-.27 0-.6-.04-.8.07 0 .13.12.23.2.3" fill="#FFF" clip-path="url(#bd)"/></g><g transform="translate(-.26 -.13)"><defs><path d="M0 0h285v68.15H0z" id="be"/></defs><clipPath id="bf"><use height="100%" width="100%" overflow="visible" xlink:href="#be"/></clipPath><path d="M29.78 48.2c.1-.18 1.9-.03 2.2-.03.48 0 .9-.07 1.33-.07.62 0 1.25.04 1.88.04l.98-.02c.74-.02 1.5.02 2.22.02v-.02c.04 0 .04-.22.04-.26l.02-1.46c0-.33-.02-.67.04-.98.37.2.33.67.35 1.1l.02.82-.04.46c0 .22.05.48-.03.67v.04h-.02c0-.03-.13 0-.2 0h-1.1c-.16 0-.38-.03-.53.03-.13 0-.33-.02-.46.02-.4 0-.83 0-1.26-.04-.2 0-.46-.08-.63 0-.33 0-.63-.03-.93-.03-.07 0-.15-.02-.22.02-.17 0-.57-.08-.7 0-.1 0-.22-.03-.3 0h-.9c-.16-.03-.36-.03-.56-.03h-.2c-.07.02-.13.02-.22.02-.35 0-.63.08-.78-.23.02.03 0-.03.02-.08" fill="#FFF" clip-path="url(#bf)"/></g><g transform="translate(-.26 -.13)"><defs><path d="M0 0h285v68.15H0z" id="bg"/></defs><clipPath id="bh"><use height="100%" width="100%" overflow="visible" xlink:href="#bg"/></clipPath><path d="M38.7 54.02c-.08.1-.3.1-.4.13l-.02-1.8c.02-.17-.02-.37.02-.52.02-.07.04-.1.1-.1.1 0 .23 0 .32.03.04 0 .04.24.04.3-.02.13.02.26.02.4 0 .2-.04.38-.02.6-.02.22.04.8-.07.96" fill="#FFF" clip-path="url(#bh)"/></g><g transform="translate(-.26 -.13)"><defs><path d="M0 0h285v68.15H0z" id="bi"/></defs><clipPath id="bj"><use height="100%" width="100%" overflow="visible" xlink:href="#bi"/></clipPath><path d="M45.7 53.26c-.1 0-.18.02-.25.04-.1 0-.35.07-.46.1-.23 0-.4.1-.6.12l-.4.07c-.08 0-.2 0-.27.03-.07.02-.1.02-.17.02s-.1.04-.15.07c-.12 0-.32-.02-.4.04-.07.02-.1.02-.17.02-.22 0-.5-.04-.67.07-.1 0-.2-.02-.26.02-.1 0-.2-.02-.28-.04 0 .04-.28.1-.33.1-.16 0-.36 0-.5.03-.05.02-.12.02-.18.02-.15 0-.35-.02-.48.04-.1 0-.22 0-.3.04-.15 0-.54.04-.63-.04-.14-.1-.06-1.6-.06-1.9l-.02-.4c0-.15.04-.63-.22-.57-.13 0-.46-.04-.54.02-.15 0-.57.02-.65-.07-.16-.15-.23-.7-.32-.93-.13-.33-.33-.65-.37-1.02 0-.04 0-.1.03-.13.07-.1.37-.07.5-.07.26 0 1.52.02 1.63-.17.07-.1.04-.48.02-.63.02-.22.02-.46.02-.67.02-.35-.07-.76.04-1.07.8.88 1.7 1.66 2.52 2.5.1.1.15.2.22.3.2.2.43.38.65.58.57.54 1.1 1.17 1.65 1.72l1.3 1.28c.1.1.22.17.24.26.05.15-.08.2-.13.22" fill="#FFF" clip-path="url(#bj)"/></g><g transform="translate(-.26 -.13)"><defs><path d="M0 0h285v68.15H0z" id="bk"/></defs><clipPath id="bl"><use height="100%" width="100%" overflow="visible" xlink:href="#bk"/></clipPath><path d="M44.15 31.1l.4-.45c.14-.17.32-.28.47-.4.2-.23.4-.42.6-.64.25-.2.47-.45.7-.64l1.36-1.4c.7-.64 1.4-1.32 2.04-2 .17-.2.4-.36.52-.55.1.16.04.6.04.8.04.5 0 1.06.02 1.6l.04.8c-.02.28-.04.57-.04.85l.04.5-.02.24c.02.08.02.2.02.27l-.04.22c-.04.42-.04.86-.04 1.3l.07.66-.04.37c0 .28 0 .57-.03.83-.02.1-.02.2-.02.28 0 .17.04.37.04.54-.03.24-.08.5-.08.76l.07.96c-.03.2-.05.4-.05.6.02.06.02.12.02.2l-.02.64.04.46c0 .1-.03.22-.05.33-.02.22 0 .46.02.65.04.33.02.76 0 1.07l-.04.24c-.02.2.04.36.04.56l-.04.33.02.34c-.02.15-.02.33-.02.48 0 .15.1.98-.04.98-.1 0-.84-.8-.97-.93l-2.8-2.83c-.15-.15-.26-.33-.4-.46l-.4-.37-.2-.23c-.9-.9-1.8-1.78-2.7-2.65-.17-.15-1.33-1.33-1.33-1.4l.02-.06c.1-.22.46-.48.63-.63.2-.2.35-.4.52-.6l.52-.5.2-.16c.12-.15.3-.3.42-.46.15-.2.28-.34.43-.5" fill="#FFF" clip-path="url(#bl)"/></g><g transform="translate(-.26 -.13)"><defs><path d="M0 0h285v68.15H0z" id="bm"/></defs><clipPath id="bn"><use height="100%" width="100%" overflow="visible" xlink:href="#bm"/></clipPath><path d="M38.8 18.1c.1-.06.15-.06.22-.14.04-.07.1-.13.13-.22.13-.2.26-.35.4-.5l.18-.15c.1-.08.28-.03.4-.03.25 0 .5-.02.75-.04.12-.03.23-.03.33-.05.18 0 .36 0 .55.02.19.02.4.07.63.07.2 0 .35-.07.54-.07l.2.04c.22.02.5.02.7-.04v.02h.02c0 .04 0 .02-.02.02l-.02.04c-.22.3-.54.54-.8.8l-1.5 1.48c-.1.1-.24.2-.35.3-.46.46-.87.96-1.33 1.4l-.5.47c-.1.1-.2.17-.28.24-.1.1-.22.24-.3.37-.28.3-.6.6-.87.87-.13.18-.28.34-.4.5-.3.3-.62.62-.94.9-.52.52-1.04 1.04-1.6 1.54-.16.17-.32.37-.5.5v.02h-.03v-.02h-.02c.02-.07.02-.13.02-.22l-.02-.5.07-.26c.02-.17-.04-.3.02-.43.04-.1.15-.1.22-.2.12-.13.2-.3.36-.4.17-.12.4-.16.57-.25l.33-.22c.24-.17.54-.3.72-.54l.15-.3.2-.26c.04-.1.04-.26.1-.4.03-.16.12-.32.12-.53l-.07-.54c-.02-.25-.15-.44-.3-.62-.07-.07-.13-.13-.17-.24-.03 0 0-.07.03-.1.04-.03.07-.1.1-.14.18-.24.34-.5.58-.67.12-.1.14-.22.25-.33.1-.13.26-.2.4-.33.06-.1.1-.17.16-.24.05-.1.08-.2.14-.26.07-.1.17-.1.24-.17l.22-.2" fill="#FFF" clip-path="url(#bn)"/></g><g transform="translate(-.26 -.13)"><defs><path d="M0 0h285v68.15H0z" id="bo"/></defs><clipPath id="bp"><use height="100%" width="100%" overflow="visible" xlink:href="#bo"/></clipPath><path d="M25.28 17.1c.22 0 .52.03.72-.03.17.04.35.02.54.02h1c.1.03.17.05.26.05.17 0 .4-.1.57-.07.22.07.4.3.54.46.25.24.5.5.77.74.17.17.33.4.5.57.22.22.43.37.65.6.13.12.2.25.33.38.07.07.13.1.22.17.13.1.26.26.33.4-.07 0-.2.18-.24.23-.2.2-.35.4-.4.67-.04.1-.06.22-.06.33-.04.17-.1.35-.07.54l.1.37.16.4c.06.12.08.3.2.4.06.1.2.13.27.2.1.07.13.17.22.24.08.04.16.1.25.1.1.1.24.18.37.25.17.1.35.17.5.3l.26.37c.1.1.22.17.28.3l.1.3c0 .1-.03.2 0 .28.03.22.12.5.08.72-.2 0-.6-.48-.72-.6l-.87-.8c-.22-.23-.4-.47-.63-.68-.4-.43-.87-.83-1.28-1.26-.22-.24-.46-.46-.67-.67l-.28-.34c-.77-.74-1.53-1.48-2.27-2.22l-.6-.65c-.44-.44-.84-.88-1.3-1.3-.23-.23-.7-.5-.8-.8h.95" fill="#FFF" clip-path="url(#bp)"/></g><g transform="translate(-.26 -.13)"><defs><path d="M0 0h285v68.15H0z" id="bq"/></defs><clipPath id="br"><use height="100%" width="100%" overflow="visible" xlink:href="#bq"/></clipPath><path d="M20.35 40.08c-.35.33-.63.7-.96 1.02l-1.5 1.46c-.16.17-.38.35-.5.52h-.03c0 .04-.07-.1-.07-.1 0-.18 0-.36-.02-.5l.04-1.55c0-.4.02-.83 0-1.24l-.02-.42c.02-.4.04-.8.02-1.22l-.02-.52.02-.76-.02-.48c0-.43 0-.9.02-1.33-.02-.13-.02-.26-.02-.4.02-.16.04-.32.04-.5.04-.38 0-.73.02-1.08 0-.3.02-.55.04-.84 0-.6-.04-1.15-.02-1.74l.07-.83-.04-.47c0-.6.03-1.2.03-1.78-.02-.13-.02-.24-.02-.37.03-.15.03-.3.03-.46 0-.17-.04-.35-.02-.52.03-.1.03-.2.05-.3l-.02-.85c.24.1.4.35.6.52.4.4.8.78 1.23 1.17.13.15.28.3.4.46.3.28.62.6.9.9l.28.32c.2.2.4.35.6.57.1.08.14.2.23.25.48.46.96.87 1.43 1.3.46.46.9.9 1.35 1.4.28.25 2.07 1.95 1.96 2.2l-.08.16c-.22.38-.7.77-1.02 1.08-.1.1-.17.24-.3.35l-.78.78-1.1 1.1-.75.74c-.07.07-.1.13-.2.22l-1.82 1.72" fill="#FFF" clip-path="url(#br)"/></g><g transform="translate(-.26 -.13)"><defs><path d="M0 0h285v68.15H0z" id="bs"/></defs><clipPath id="bt"><use height="100%" width="100%" overflow="visible" xlink:href="#bs"/></clipPath><path d="M30.26 51.2c-.2 0-.87-.05-.98.03-.04.04-.04.1-.07.13v1.87c0 .26.03.65-.03.93-.02.07-.04.13-.1.17v.02c-.2 0-.38-.1-.55-.1-.17-.03-.35 0-.5 0-.1 0-.24-.03-.37-.03l-.74-.07c-.08-.02-.23-.02-.32.02-.54 0-1.07-.1-1.6-.17-.24 0-.48 0-.72-.05l-.6-.1c-.08 0-.16-.03-.25-.06-.1-.03-.23-.03-.36-.03l-.85-.15c-.23-.04-.5-.04-.68-.13h-.02v-.05c.04 0 .02.02.04-.02.13-.2.37-.4.54-.6l.5-.5c.24-.23.52-.47.78-.7l.37-.38c.1-.1.22-.24.3-.35.63-.6 1.3-1.22 1.93-1.87.4-.4.74-.8 1.15-1.2.55-.52 1.1-1.04 1.64-1.6l.46-.5c.1.14.04.68.02.88-.02.3-.04.62-.04.92 0 .2-.02.4.04.6.07.16.17.3.26.45.07.1.1.2.2.24.13.1.6.1.78.1.33-.02.67-.04 1.02-.04 0 .22-.13.5-.22.7-.13.35-.28.7-.4 1.07-.05.13-.1.3-.2.4-.08.08-.18.03-.27.08-.05.07-.1.1-.14.1" fill="#FFF" clip-path="url(#bt)"/></g><g transform="translate(-.26 -.13)"><defs><path d="M0 0h285v68.15H0z" id="bu"/></defs><clipPath id="bv"><use height="100%" width="100%" overflow="visible" xlink:href="#bu"/></clipPath><path d="M31.85 55.37c-.24-.02-.46-.2-.67-.28-.17-.08-.37-.12-.52-.2h-.02v-.03h.02c0-.04-.02-.02.02-.02.35 0 1.96.07 2.1-.1.08-.06.08-.36.08-.5 0-.75-.1-1.75.6-2.14.12-.06.23-.06.34-.1.2 0 .65.07.63.33 0 .07-.1.07-.13.07-.46.07-.54.3-.74.65-.15.28-.13.78-.13 1.17-.02.37-.02.72-.02 1.1 0 .03-.23 0-.3 0-.12 0-.23.05-.34.05h-.9" fill="#FFF" clip-path="url(#bv)"/></g><g transform="translate(-.26 -.13)"><defs><path d="M0 0h285v68.15H0z" id="bw"/></defs><clipPath id="bx"><use height="100%" width="100%" overflow="visible" xlink:href="#bw"/></clipPath><path d="M34.48 55.82c-.1.1-.17.2-.24.3-.2.22-.4.4-.54.65h-.02c-.13-.17-.28-.33-.43-.48-.13-.14-.4-.3-.6-.38v-.02h-.03v-.04h.02c0-.04.04-.02.07-.04.1-.02.18-.04.27-.04.26-.02.54-.02.8-.02.02-.04.02-.1.04-.13.03-.1.03-.24.05-.35l-.04-.33c.03-.1.03-.22.03-.33 0-.24-.04-.5-.02-.74.03-.13.08-.26.1-.4.04-.16.07-.34.2-.47.1-.12.26-.1.4-.16.05.02.1.04.12.1.04.16.02.38.02.53.02.4.02.8.02 1.22.02.08.1.16.1.25.08.13.12.26.18.4H35c-.1.2-.33.34-.48.47" fill="#FFF" clip-path="url(#bx)"/></g><g transform="translate(-.26 -.13)"><defs><path d="M0 0h285v68.15H0z" id="by"/></defs><clipPath id="bz"><use height="100%" width="100%" overflow="visible" xlink:href="#by"/></clipPath><path d="M35.4 55.2c-.12-.1-.2-.3-.2-.47.1 0 .23.02.34-.02l.78.03v.04c-.1 0-.2.07-.26.1l-.65.3v.02" fill="#FFF" clip-path="url(#bz)"/></g><g transform="translate(-.26 -.13)"><defs><path d="M0 0h285v68.15H0z" id="bA"/></defs><clipPath id="bB"><use height="100%" width="100%" overflow="visible" xlink:href="#bA"/></clipPath><path d="M27.3 36.04c0-.22.04-.43.04-.65l-.04-.73c0-.4.04-.78.04-1.17l-.04-.7c.02-.17.02-.37.02-.54l-.04-.54c0-.3.1-.54.1-.83-.03-.18-.03-.34-.05-.5.02-.1.02-.2.02-.3.02-.34.07-.66.07-1 0-.25-.04-.62.02-.8.07-.23.7-.94.9-1.03v-.02c.05.17.03.4 0 .6 0 .23-.03.47 0 .7 0 .16 0 .3.03.5v.88l-.04.4c.02.14.02.32.02.47-.02.4-.04.9-.02 1.3.02.46-.04.93-.04 1.4 0 .16 0 .34.03.5 0 .36 0 .7.02 1.05l-.04.5v.8c0 .33.05.9-.03 1.17-.04.1-.13.13-.2.22l-.22.33c-.07.07-.15.13-.22.22-.1.14-.15.3-.24.45v.02h-.03c0-.43-.07-.9-.07-1.35 0-.26.04-.54.07-.78-.02-.25-.07-.43-.07-.6" fill="#FFF" clip-path="url(#bB)"/></g><g transform="translate(-.26 -.13)"><defs><path d="M0 0h285v68.15H0z" id="bC"/></defs><clipPath id="bD"><use height="100%" width="100%" overflow="visible" xlink:href="#bC"/></clipPath><path d="M27.76 38.93c.1-.28.22-.37.43-.54.1-.12.2-.25.36-.34.6-.4 1.52-.4 2.26-.24.13.04.28.1.4.1.5.1.9.14 1.3.38.27.15.5.37.73.57.07.04.13.1.2.1.1.1.22.27.37.27.22 0 .35-.28.52-.4.17-.12.35-.25.57-.36.55-.26 1.1-.54 1.7-.7.23-.04.44-.1.66-.15.13-.02.26-.02.37-.07l.54.02c.3.04.63.2.87.37l.33.35c.17.2.35.37.4.63h-.03c0 .04-.2.02-.24.02-.5 0-.98 0-1.48-.02-.17 0-.4-.04-.57.04-.17 0-.4-.1-.54-.02-.03.02-.1.02-.16.02-.2 0-.4-.04-.57.04-.1 0-.17.03-.24.05-.15 0-.5-.04-.6.02-.03.04-.1.04-.18.04-.07.03-.13.03-.22.03-.1 0-.26.02-.33.1-.04 0-.02.12-.02.16.02.4-.3.77-.72.77-.35 0-.6-.24-.67-.57-.03-.1 0-.26-.08-.35-.04-.04-.1-.07-.13-.04h-.62c-.37 0-.72-.03-1.1-.06-.12 0-.25-.02-.34.02l-.83-.02c-.12 0-.3-.02-.4.04-.4 0-.83-.04-1.24-.04-.13 0-.35-.04-.48.02-.13 0-.24 0-.35-.04.04 0 .1-.1.13-.2" fill="#FFF" clip-path="url(#bD)"/></g><g transform="translate(-.26 -.13)"><defs><path d="M0 0h285v68.15H0z" id="bE"/></defs><clipPath id="bF"><use height="100%" width="100%" overflow="visible" xlink:href="#bE"/></clipPath><path d="M40.45 29.67c0-.22-.04-.46-.07-.65l-.02-.35c0-.04.02-.26-.02-.26h-.07c-.04.45-.02.95-.04 1.45 0 .2-.1.33-.1.5v.28c-.03.1-.03.17-.03.26-.1 0-.2-.03-.22-.12-.04-.15.04-.3.04-.43l-.04-.3c0-.54.04-1.15.04-1.67-.02-.1-.02-.2-.02-.28-.02-.04-.02-.1-.04-.13h-.07V28h-.03c-.02.38-.07.75-.1 1.14 0 .07-.03.13-.03.22h-.07c-.1-.3-.1-.7-.1-1.07 0-.2.03-.4-.03-.58-.07.13-.07.26-.1.4v.62c0 .22.03.43.03.65-.1 1.34-.07 2.64-.07 4-.02.27-.02.55-.02.8-.02.25-.07.5-.07.75 0 .35.03.7.03 1.04-.02.32-.04.7-.02 1.03 0 .04.03.17.08.17v.02h.02v-.02h.02c.07-.2.04-.4.04-.65.02-.37.07-.74.04-1.1 0-.25-.07-.55.02-.77.02-.04.04-.04.1-.04.08.02.1.17.1.24.04.28-.02.57-.02.87v.7c0 .26-.02.52.02.76.02.14-.02.27.02.4.02.07.04.24.13.24.02-.4.04-.83.04-1.22v-.57c0-.2.03-.37.03-.54l.07-.36c0-.17-.07-.35-.07-.48-.04-.24-.02-.52-.02-.8 0-.13 0-.28.05-.4.02-.05.1-.1.1-.12H40c.1.07.13.15.15.26.04.28.02.63 0 .93-.02.1-.04.2-.04.3 0 .26.08.52.08.8-.02.1-.02.22-.02.33 0 .48 0 .9-.02 1.37 0 .35.04.7.07 1.02v.2h.08c.1-.2.07-.46.07-.7.02-.26.04-.57.02-.83-.02-.17-.04-.37-.1-.54 0-.2.08-.37.08-.57.02-.3-.04-.53-.04-.82.03-.3.05-.6.05-.9v-.7l-.04-.3c0-.14.05-.25.05-.4l-.02-.74.02-1.1c.08-.53.1-.9.1-1.27m-.82 3.6c-.02 0-.13.2-.13.08-.04-.07-.02-.17-.02-.26-.02-.23 0-.47-.02-.68v-.9c0-.23-.02-.47.07-.66.07.04.13.1.13.17.07.26.02.54.02.83 0 .4.08 1.07-.05 1.4m.06-3.4c-.2-.03-.23-.16-.12-.32.1.07.2.3.1.3m.36 2.87H40c-.1-.2-.04-.36-.04-.58 0-.28-.07-.57.07-.8.07.02.13.04.17.1.06.2.06 1.32-.16 1.3" fill="#FFF" clip-path="url(#bF)"/></g><g transform="translate(-.26 -.13)"><defs><path d="M0 0h285v68.15H0z" id="bG"/></defs><clipPath id="bH"><use height="100%" width="100%" overflow="visible" xlink:href="#bG"/></clipPath><path d="M39 32.15l-.04-.4c0-.6.02-1.2.04-1.77l-.02-.54c0-.46 0-.9-.02-1.3l-.07-.4c-.03-.14 0-.32 0-.47 0-.07.03-.22-.03-.22-.1-.05-.24-.03-.37-.05-.15-.02-.3-.04-.48-.04-.17.07-.4.04-.6.1-.86.16-1.66.27-2.42.66-.2.1-.37.2-.52.37-.1.12-.1.27-.13.45-.07.4-.07.83-.07 1.26-.02.23-.04.44-.04.66 0 .33 0 .63-.02.96l-.04.37-.04.9c-.02.46.02.9.02 1.33.02.4-.02.87-.02 1.28.02.12.02.25.02.36-.02.07-.02.13-.02.22 0 .2.04.4.04.6 0 .6-.02 1.34.22 1.77.02.02.1.13.1.07.25-.1.47-.3.73-.43.22-.12.46-.2.65-.3.26-.14.4-.25.74-.25.1-.07.4-.1.52-.1.07-.03.1-.03.17-.03l.14-.02c.24-.13.83-.02 1.07.04l.38.1c.07-.38 0-.77-.02-1.12l.04-.6-.02-.75.04-.37c.02-.3 0-.6.02-.87.02-.17.04-.35.04-.52.02-.28.02-.6.02-.95m-4.33.9c.57-.53 1.3-.8 1.98-1.08.22-.1.48-.24.74-.24.08-.07.27-.17.38-.17v-.02c.13.02.24.1.24.24 0 .13-.07.24-.17.3-.2.13-.46.15-.67.24-.26.1-.54.2-.8.26-.17.07-.37.1-.54.17-.33.13-.63.3-.9.48-.12.07-.23.15-.36.17-.04 0-.07 0-.1-.02-.13-.12.13-.27.2-.34m3.23 1.9c-.2.12-.45.12-.64.18l-.6.15c-.7.17-1.27.46-1.88.8-.07.04-.26.22-.35.1-.07-.1.1-.2.13-.25.24-.2.48-.35.72-.5.28-.17.54-.33.87-.46.1-.07.2-.1.3-.17.37-.16.78-.25 1.17-.38.1 0 .22 0 .33.04.18.1.13.4-.04.5m.05-5.72c-.1.07-.22.1-.33.1-.26.1-.52.18-.78.25-.37.1-.74.23-1.07.4l-.72.4c-.04.03-.37.2-.37.12h-.02c.04-.24.33-.4.5-.52.1-.07.2-.13.28-.2.24-.15.5-.3.74-.4.26-.14.54-.2.83-.3l.3-.12c.12-.04.23-.1.36-.13.1 0 .22-.02.3.02.2.04.12.28 0 .37" fill="#FFF" clip-path="url(#bH)"/></g><g transform="translate(-.26 -.13)"><defs><path d="M0 0h285v68.15H0z" id="bI"/></defs><clipPath id="bJ"><use height="100%" width="100%" overflow="visible" xlink:href="#bI"/></clipPath><path d="M33.63 29.04c-.04-.35.02-.7-.17-.96-.37-.5-.87-.67-1.4-.87-.14-.06-.3-.1-.42-.14l-.48-.1c-.24-.06-.52-.1-.8-.12l-1.1-.02c-.12.04-.3.04-.38.13-.07.1-.04.52-.04.7 0 .63-.04 1.26-.04 1.9 0 .38 0 .77-.02 1.16l-.07.97c0 .22.1.43.1.67l-.04 1.48c-.02.2-.04.4-.04.6-.02.42.02.8.02 1.23-.02.2-.04.4-.04.6 0 .2.07.38.07.55 0 .22-.04.4-.04.63H29c.06-.04.14-.04.23-.04.07-.05.15-.05.24-.05.07-.02.1-.02.17-.02.22-.1.83.02 1.04.07.28.04.54.04.83.1.34.06.84.25 1.12.4.1.07.67.5.74.5v-.02c.15-.24.13-.48.17-.78.04-.35.07-.7.07-1.07.02-.52.04-1.1.04-1.63l-.02-.7.04-1.98c0-1.05.05-2.16-.03-3.18m-.83 7.1c-.4-.2-.83-.36-1.26-.5l-.46-.08-.7-.15c-.26-.03-.52-.03-.78-.1l-.1-.04c-.2-.1-.2-.52.1-.52v-.02c.2 0 .33.04.5.1.17.03.35.03.5.08l.4.15c.42.13.8.26 1.2.46.1.05.2.08.3.1.2.1.53.35.7.52.06.07.16.1.16.22-.23.05-.4-.15-.56-.2m.55-2.58l-.04.02v.02c-.18.02-.84-.52-1.03-.6-.24-.12-.48-.2-.72-.3-.33-.14-.65-.27-1.02-.34l-.4-.07c-.2-.03-.5.03-.64-.1-.18-.13-.08-.5.16-.5v-.02c1.04.07 1.9.54 2.76 1.02.22.13.8.48.93.72 0 .03.04.16 0 .14m.08-2.9c-.02.05-.1.05-.17.05-.13-.03-.24-.14-.37-.2-.14-.1-.27-.16-.42-.25-.74-.37-1.54-.6-2.33-.8-.22-.07-.52-.04-.72-.17-.17-.1-.17-.33-.02-.43.36 0 .62.1.92.2l.26.07c.2.04.4.13.6.22.16.07.32.1.5.17.08.05.14.1.23.14.23.1.47.22.68.33.16.03.94.5.85.7" fill="#FFF" clip-path="url(#bJ)"/></g><g transform="translate(-.26 -.13)"><defs><path d="M0 0h285v68.15H0z" id="bK"/></defs><clipPath id="bL"><use height="100%" width="100%" overflow="visible" xlink:href="#bK"/></clipPath><path d="M32.17 8.52c-.35.04-.7.1-1.07.13-.3.04-.6.1-.93.1-.74.14-1.45.3-2.17.42-1.02.22-1.98.63-2.9 1.02-1.77.7-3.4 1.56-5 2.6-.38.26-3 2.1-3 2.4l1.27.08c1.04.07 2.1.02 3.13.02l1.9.1c.25-.12.66-.08.97-.08.87 0 1.7.07 2.52.07.4-.18 1.1-.03 1.56-.03h4.2l4.7.1c2.9-.03 5.78-.08 8.67-.1.22-.1.54 0 .78 0 .5.02 1.03.04 1.5.04.27 0 .53 0 .8-.03.5.02 1.03.07 1.56.04l.57.03c.35 0-.28-.5-.4-.63-.36-.4-.75-.7-1.2-.98l-.77-.6c-.52-.36-1.07-.7-1.6-1.08-3.3-1.98-6.5-3.17-10.58-3.6-.6 0-1.2 0-1.78-.03-.9.04-1.84.02-2.73.02" fill="#DD1E34" clip-path="url(#bL)"/></g><g transform="translate(-.26 -.13)"><defs><path d="M0 0h285v68.15H0z" id="bM"/></defs><clipPath id="bN"><use height="100%" width="100%" overflow="visible" xlink:href="#bM"/></clipPath><path d="M15.7 16.48c-.36.37-.9.9-1.25 1.28l-2.24 3c-1.56 2.63-2.5 5.4-3.2 8.48-.1.5-.1.98-.14 1.5-.24 2.54-.3 5.4.1 7.9.1.4.2.82.32 1.23.13.67.22 1.3.46 1.93.22.52.4 1.04.65 1.6.25.77.64 1.47 1 2.16.88 1.7 1.9 3.3 3.12 4.85.17.23.63.86.93.86v-.07c.24-.5.07-1.9.07-2.47 0-.96 0-1.93-.02-2.9 0-.88-.04-1.8.02-2.68.1-1.93.02-3.9.04-5.87.02-1.65.1-3.35.1-5.04 0-1.6-.08-3.33.05-4.87 0-.17 0-.35-.03-.52V25.4c.02-.68.07-1.36.1-2.03-.08-1.4-.08-2.87-.12-4.33-.04-1.02.1-2 .04-2.56" fill="#DD1E34" clip-path="url(#bN)"/></g><g transform="translate(-.26 -.13)"><defs><path d="M0 0h285v68.15H0z" id="bO"/></defs><clipPath id="bP"><use height="100%" width="100%" overflow="visible" xlink:href="#bO"/></clipPath><path d="M52.56 16.63c-.1.98.1 2.52.07 3.54-.04 2.24-.04 4.46-.04 6.76v10.85c0 2.04-.1 4.06 0 6.15v2.52c0 1.54.16 3.15-.14 4.63-.02.1-.22.76-.07.76.5 0 2.95-3.5 3.3-4.06.23-.46.47-.9.73-1.35l.4-.9c.47-.84 1-1.86 1.32-2.8.65-1.92 1.07-3.92 1.35-6.05.1-.7.07-1.37.1-2.1 0-.4.03-.8.03-1.18-.04-2.1-.28-4.3-.83-6.17-.54-1.85-1.37-3.63-2.28-5.28-.33-.6-.72-1.1-1.07-1.67-.52-.76-2.56-3.87-2.9-3.65" fill="#DD1E34" clip-path="url(#bP)"/></g><g transform="translate(-.26 -.13)"><defs><path d="M0 0h285v68.15H0z" id="bQ"/></defs><clipPath id="bR"><use height="100%" width="100%" overflow="visible" xlink:href="#bQ"/></clipPath><path d="M49.2 54.52c-1.42 1.1-4.4 1.2-6.3 1.4-.47.08-.97.14-1.45.2-2.37.12-5.48.34-6.33 2.77-.1.25-.1.32-.17.58-.04.24 1.07.02 1.54.02.12-.07.36-.07.56-.07l.35-.07c.3-.15.7-.17 1.08-.17.24-.12.54-.12.83-.12.3-.17 1.08-.28 1.47-.28.67-.22 1.35-.46 2-.7 1.9-.76 3.9-1.54 5.52-2.83.22-.2.52-.25.9-.75" fill="#DD1E34" clip-path="url(#bR)"/></g><g transform="translate(-.26 -.13)"><defs><path d="M0 0h285v68.15H0z" id="bS"/></defs><clipPath id="bT"><use height="100%" width="100%" overflow="visible" xlink:href="#bS"/></clipPath><path d="M19.76 55c.4.5 1.02.63 1.54.98.3.22.74.46 1.04.67 1.15.54 2.02 1 3.17 1.4 1.3.4 2.55.82 3.94 1.08.48.1 3.65.67 3.78.37.2-.48-.85-1.67-1.22-1.98-.35-.28-.74-.48-1.1-.67-.36-.2-.8-.3-1.18-.4-.52-.14-1.02-.3-1.6-.4-.5-.1-1.06-.1-1.6-.13-.48-.1-.96-.17-1.46-.24-.63-.1-1.26-.1-1.9-.15-1.16-.2-2.23-.47-3.4-.53" fill="#DD1E34" clip-path="url(#bT)"/></g><g transform="translate(-.26 -.13)"><defs><path d="M0 0h285v68.15H0z" id="bU"/></defs><clipPath id="bV"><use height="100%" width="100%" overflow="visible" xlink:href="#bU"/></clipPath><path d="M95.25 15.32h-2.43v12.35c0 .96.1 1.63.35 1.96.24.35.7.5 1.37.5v.48h-5.67v-.47c.7 0 1.2-.2 1.43-.6.23-.4.37-1.03.37-1.95V15.32h-2.3c-1.1 0-1.9.17-2.43.52-.5.35-.78.93-.87 1.76h-.48v-3.67h.47c.43.4 1.24.6 2.4.6h8.42c1.2 0 2.06-.2 2.53-.6h.5v3.67h-.33c-.2-.9-.54-1.5-1.07-1.8-.5-.32-1.25-.48-2.28-.48" fill="#092040" clip-path="url(#bV)"/></g><g transform="translate(-.26 -.13)"><defs><path d="M0 0h285v68.15H0z" id="bW"/></defs><clipPath id="bX"><use height="100%" width="100%" overflow="visible" xlink:href="#bW"/></clipPath><path d="M113.6 27.58v-4.65h-8.74v4.65c0 .96.13 1.6.4 1.98.27.38.75.57 1.45.57v.46h-5.8v-.5c.7 0 1.18-.2 1.44-.56.26-.37.4-1.04.4-1.98v-10c0-.98-.14-1.65-.4-2.02-.26-.37-.74-.54-1.4-.54v-.48h5.8V15c-.7 0-1.2.2-1.47.6-.26.38-.4 1.03-.4 1.97v4.56h8.75v-4.56c0-.98-.13-1.65-.37-2.02-.24-.35-.72-.54-1.4-.54v-.47h5.75V15c-.67 0-1.15.2-1.4.57-.27.37-.4 1.04-.4 2V27.6c0 .95.13 1.62.4 1.97.25.37.73.54 1.4.54v.5h-5.76v-.5c.72 0 1.2-.2 1.43-.53.2-.38.33-1.03.33-2" fill="#092040" clip-path="url(#bX)"/></g><g transform="translate(-.26 -.13)"><defs><path d="M0 0h285v68.15H0z" id="bY"/></defs><clipPath id="bZ"><use height="100%" width="100%" overflow="visible" xlink:href="#bY"/></clipPath><path d="M130.08 20.6h.48v3.9h-.48c-.17-.67-.4-1.1-.63-1.28-.24-.17-.78-.26-1.6-.26h-4v5.74c0 .4.1.67.27.85.17.17.48.24.9.24h2.8c1 0 1.7-.08 2.1-.18.37-.1.7-.33.96-.6.26-.3.54-.8.85-1.47h.48l-.75 3.02H119.9v-.48c.7 0 1.2-.2 1.45-.55.24-.37.37-1.02.37-1.96V17.55c0-.98-.13-1.65-.37-2.02-.26-.37-.74-.54-1.43-.54v-.46h11.56v2.67h-.3c-.17-.75-.4-1.25-.7-1.5-.3-.25-.96-.38-1.98-.38h-4.63v6.87h4.48c.6 0 1.02-.12 1.24-.34.22-.23.37-.64.48-1.25" fill="#092040" clip-path="url(#bZ)"/></g><g transform="translate(-.26 -.13)"><defs><path d="M0 0h285v68.15H0z" id="ca"/></defs><clipPath id="cb"><use height="100%" width="100%" overflow="visible" xlink:href="#ca"/></clipPath><path d="M152.92 27.22v-9.65c0-.93-.13-1.6-.37-1.96-.24-.36-.7-.56-1.35-.6v-.48h5.67V15c-.67 0-1.15.2-1.4.57-.27.37-.4 1.04-.4 2V27.6c0 .92.13 1.6.4 1.97.25.37.73.57 1.4.57v.48h-3.96v-2.24c-1.5 1.76-3.3 2.63-5.34 2.63-1.7 0-3.04-.5-4-1.5s-1.46-2.36-1.46-4.03v-7.9c0-.95-.13-1.62-.37-2-.24-.36-.74-.56-1.48-.56v-.47h5.8V15c-.72 0-1.22.17-1.48.54s-.37 1.02-.37 1.98v8.13c0 1.33.37 2.35 1.1 3.1.7.75 1.7 1.12 3 1.12 1.95.02 3.47-.87 4.62-2.65" fill="#092040" clip-path="url(#cb)"/></g><g transform="translate(-.26 -.13)"><defs><path d="M0 0h285v68.15H0z" id="cc"/></defs><clipPath id="cd"><use height="100%" width="100%" overflow="visible" xlink:href="#cc"/></clipPath><path d="M171.3 15v-.48h4.84V15c-.78 0-1.3.17-1.6.54-.3.37-.47 1.02-.47 1.98v13.04h-.5L162.2 16.6v11.28c0 .8.17 1.37.48 1.7.33.35.87.52 1.63.52v.46h-4.86v-.48c.78 0 1.3-.2 1.6-.6.25-.42.4-1.12.4-2.16v-9.35c0-1.02-.2-1.74-.54-2.2-.35-.46-.98-.7-1.83-.78v-.5h4.1l10.1 12.5v-9.36c0-.98-.13-1.67-.4-2.07-.32-.38-.82-.57-1.58-.57" fill="#092040" clip-path="url(#cd)"/></g><g transform="translate(-.26 -.13)"><defs><path d="M0 0h285v68.15H0z" id="ce"/></defs><clipPath id="cf"><use height="100%" width="100%" overflow="visible" xlink:href="#ce"/></clipPath><path d="M184.2 14.54v.48c-.67 0-1.15.2-1.4.57-.27.36-.4 1.03-.4 2v10c0 .97.13 1.64.4 2 .25.36.73.53 1.4.53v.46h-5.78v-.5c.7 0 1.17-.2 1.43-.53.26-.37.4-1.04.4-2v-10c0-.98-.14-1.65-.38-2.02-.24-.37-.74-.54-1.46-.54v-.47h5.8z" fill="#092040" clip-path="url(#cf)"/></g><g transform="translate(-.26 -.13)"><defs><path d="M0 0h285v68.15H0z" id="cg"/></defs><clipPath id="ch"><use height="100%" width="100%" overflow="visible" xlink:href="#cg"/></clipPath><path d="M201.9 14.54v.5c-1.17 0-2.15 1.04-2.9 3.1l-4.75 12.66h-.46l-4.97-13.02c-.48-1.2-.87-1.96-1.2-2.28-.35-.33-.83-.48-1.46-.5v-.46H192v.48c-.93 0-1.4.37-1.4 1.1 0 .23.08.5.18.8l3.93 10.34 3.75-10c.15-.4.24-.8.24-1.1 0-.77-.5-1.16-1.44-1.16v-.46z" fill="#092040" clip-path="url(#ch)"/></g><g transform="translate(-.26 -.13)"><defs><path d="M0 0h285v68.15H0z" id="ci"/></defs><clipPath id="cj"><use height="100%" width="100%" overflow="visible" xlink:href="#ci"/></clipPath><path d="M213.66 20.6h.48v3.9h-.48c-.17-.67-.4-1.1-.63-1.28-.24-.17-.78-.26-1.6-.26h-4v5.74c0 .4.1.67.27.85.17.17.48.24.9.24h2.8c1 0 1.7-.08 2.1-.18.4-.1.7-.33.98-.6.26-.3.54-.8.85-1.47h.48l-.75 3.02H203.5v-.48c.7 0 1.2-.2 1.45-.55.24-.37.37-1.02.37-1.96V17.55c0-.98-.13-1.65-.4-2.02-.25-.37-.73-.54-1.42-.54v-.46h11.56v2.67h-.3c-.17-.75-.4-1.25-.7-1.5-.3-.25-.96-.38-1.98-.38h-4.63v6.87h4.48c.6 0 1.02-.12 1.24-.34.23-.23.38-.64.5-1.25" fill="#092040" clip-path="url(#cj)"/></g><g transform="translate(-.26 -.13)"><defs><path d="M0 0h285v68.15H0z" id="ck"/></defs><clipPath id="cl"><use height="100%" width="100%" overflow="visible" xlink:href="#ck"/></clipPath><path d="M223.14 23.15h-1.3v4.4c0 .97.13 1.62.4 2 .25.36.73.56 1.42.56v.5h-5.78v-.5c.72 0 1.2-.2 1.46-.56.24-.37.37-1.04.37-1.98V17.5c0-.96-.12-1.6-.36-1.96-.24-.37-.74-.54-1.46-.54v-.48h6.6c1.62 0 2.9.4 3.88 1.2.98.78 1.46 1.8 1.46 3.02 0 1.96-1.1 3.28-3.33 3.93.47.3.95.74 1.4 1.28.46.54 1.07 1.46 1.8 2.7.83 1.4 1.5 2.33 1.96 2.76.48.44.96.68 1.48.7v.47h-3.28c-.67-.8-1.5-2-2.46-3.6-1.02-1.64-1.83-2.7-2.4-3.16-.54-.4-1.2-.65-1.86-.65m.36-8h-1.67v7.33h1.98c1.18 0 2.12-.35 2.77-1.02.67-.67 1-1.57 1-2.67 0-1.1-.37-1.97-1.1-2.64-.75-.66-1.75-1-2.97-1" fill="#092040" clip-path="url(#cl)"/></g><g transform="translate(-.26 -.13)"><defs><path d="M0 0h285v68.15H0z" id="cm"/></defs><clipPath id="cn"><use height="100%" width="100%" overflow="visible" xlink:href="#cm"/></clipPath><path d="M242.68 14.3h.46v3.76h-.48c-.1-1.04-.48-1.85-1.13-2.43-.65-.6-1.46-.87-2.43-.87-.87 0-1.57.22-2.1.65-.5.44-.77 1.03-.77 1.77 0 .67.22 1.3.65 1.85.43.54 1.4 1.26 2.85 2.15 1.7 1.02 2.83 1.9 3.43 2.65.6.76.87 1.63.87 2.6 0 1.27-.46 2.36-1.35 3.23-.9.9-1.96 1.35-3.22 1.35-.74 0-1.65-.2-2.78-.6-.46-.18-.76-.25-.9-.25-.25 0-.47.22-.6.6h-.48v-4.34h.48c.02 1.2.4 2.16 1.17 2.88.76.72 1.67 1.1 2.7 1.1.98 0 1.76-.27 2.35-.8.6-.5.9-1.2.9-2.08 0-.65-.25-1.26-.75-1.87-.48-.6-1.5-1.35-3.02-2.3-1.24-.78-2.1-1.37-2.5-1.83-.4-.46-.74-.93-.93-1.48-.22-.5-.33-1.1-.33-1.72 0-1.24.4-2.24 1.22-3 .8-.76 1.86-1.15 3.14-1.15.7 0 1.48.13 2.33.4.4.14.67.2.83.2.13 0 .22 0 .26-.08 0-.04.05-.17.12-.37" fill="#092040" clip-path="url(#cn)"/></g><g transform="translate(-.26 -.13)"><defs><path d="M0 0h285v68.15H0z" id="co"/></defs><clipPath id="cp"><use height="100%" width="100%" overflow="visible" xlink:href="#co"/></clipPath><path d="M252.46 14.54v.48c-.67 0-1.17.2-1.4.57-.27.36-.4 1.03-.4 2v10c0 .97.13 1.64.4 2 .25.36.73.53 1.4.53v.46h-5.78v-.5c.7 0 1.17-.2 1.43-.53.27-.37.4-1.04.4-2v-10c0-.98-.13-1.65-.37-2.02-.24-.37-.74-.54-1.46-.54v-.47h5.8z" fill="#092040" clip-path="url(#cp)"/></g><g transform="translate(-.26 -.13)"><defs><path d="M0 0h285v68.15H0z" id="cq"/></defs><clipPath id="cr"><use height="100%" width="100%" overflow="visible" xlink:href="#cq"/></clipPath><path d="M265.22 15.32h-2.43v12.35c0 .96.1 1.63.34 1.96.24.35.7.5 1.37.5v.48h-5.66v-.47c.7 0 1.2-.2 1.43-.6.23-.4.37-1.03.37-1.95V15.32h-2.33c-1.1 0-1.9.17-2.42.52-.5.35-.78.93-.87 1.76h-.47v-3.67h.47c.4.4 1.24.6 2.4.6h8.42c1.22 0 2.07-.2 2.54-.6h.5v3.67h-.33c-.2-.9-.54-1.5-1.07-1.8-.46-.32-1.22-.48-2.24-.48" fill="#092040" clip-path="url(#cr)"/></g><g transform="translate(-.26 -.13)"><defs><path d="M0 0h285v68.15H0z" id="cs"/></defs><clipPath id="ct"><use height="100%" width="100%" overflow="visible" xlink:href="#cs"/></clipPath><path d="M282.43 16.82l-3.6 5.7v5.06c0 .98.12 1.65.36 2.02.23.37.7.54 1.38.54v.46h-5.87v-.48c.8 0 1.34-.2 1.6-.6.26-.4.4-1.03.4-1.97V22.5l-3.44-5.33c-.57-.9-1.02-1.46-1.37-1.74-.36-.26-.86-.4-1.5-.46v-.46h6.3v.5c-1.12 0-1.66.24-1.66.76 0 .22.1.5.33.85l3.17 4.88 2.54-4.02c.37-.6.57-1.1.57-1.54 0-.6-.35-.9-1.07-.9v-.47h4.4v.48c-.6.04-1.05.17-1.38.4-.3.2-.7.66-1.17 1.4" fill="#092040" clip-path="url(#ct)"/></g><g transform="translate(-.26 -.13)"><defs><path d="M0 0h285v68.15H0z" id="cu"/></defs><clipPath id="cv"><use height="100%" width="100%" overflow="visible" xlink:href="#cu"/></clipPath><path d="M90.36 42.95c.76 0 1.4.33 1.98.93.57.63.85 1.37.85 2.22 0 1.48-.58 2.98-1.68 4.46s-2.46 2.22-4 2.22c-.87 0-1.54-.3-2.1-.9-.55-.62-.8-1.4-.8-2.36 0-1.65.6-3.17 1.8-4.54 1.18-1.35 2.5-2.03 3.94-2.03m-2.24 9c.9 0 1.7-.57 2.4-1.67.66-1.13 1.03-2.48 1.03-4.02 0-.7-.17-1.3-.54-1.76-.36-.48-.82-.72-1.36-.72-.87 0-1.65.57-2.35 1.67-.7 1.1-1.05 2.43-1.05 3.96 0 .8.17 1.42.52 1.88.3.43.8.67 1.35.67" fill="#092040" clip-path="url(#cv)"/></g><g transform="translate(-.26 -.13)"><defs><path d="M0 0h285v68.15H0z" id="cw"/></defs><clipPath id="cx"><use height="100%" width="100%" overflow="visible" xlink:href="#cw"/></clipPath><path d="M100.1 43.24l-.1.76h-1.9l-1.57 8.17c-.4 2.22-.86 3.8-1.36 4.8-.5 1-1.2 1.78-2.1 2.33-.88.54-1.86.83-2.88.83-1.37 0-2.48-.24-3.26-.76l.4-1.96h.5c.3 1.44 1.1 2.16 2.45 2.16 1 0 1.9-.37 2.65-1.1.76-.73 1.4-2.4 1.9-5.03l1.77-9.48h-2l.1-.76h1.98l.7-3.4c.37-1.8.96-3.04 1.78-3.74.83-.67 1.8-1.02 2.96-1.02.52 0 1.17.13 1.9.37l.1-.34h.57l-.53 2.52h-.57c-.1-1.33-.7-2-1.76-2-1.35 0-2.26 1.15-2.74 3.43l-.9 4.18 1.9.06z" fill="#092040" clip-path="url(#cx)"/></g><g transform="translate(-.26 -.13)"><defs><path d="M0 0h285v68.15H0z" id="cy"/></defs><clipPath id="cz"><use height="100%" width="100%" overflow="visible" xlink:href="#cy"/></clipPath><path d="M119.43 42.5h.48v3.9h-.47c-.17-.68-.4-1.12-.63-1.3-.23-.18-.78-.25-1.6-.25h-4v5.76c0 .4.1.68.27.86.17.17.48.24.9.24h2.8c1 0 1.7-.07 2.1-.17.4-.1.7-.33.98-.6.28-.3.54-.8.85-1.47h.48l-.74 3h-11.56v-.48c.72 0 1.2-.2 1.46-.54.24-.37.37-1.02.37-1.96V39.43c0-.98-.12-1.65-.38-2.02-.26-.37-.74-.53-1.43-.53v-.48h11.55v2.66h-.3c-.17-.76-.4-1.26-.7-1.52-.3-.24-.96-.37-1.98-.37h-4.63v6.87h4.48c.6 0 1.02-.1 1.24-.33.2-.18.36-.6.47-1.2" fill="#092040" clip-path="url(#cz)"/></g><g transform="translate(-.26 -.13)"><defs><path d="M0 0h285v68.15H0z" id="cA"/></defs><clipPath id="cB"><use height="100%" width="100%" overflow="visible" xlink:href="#cA"/></clipPath><path d="M123.8 52.45V52c.66 0 1.16-.2 1.4-.57.26-.37.4-1.04.4-1.98V39.43c0-.96-.14-1.63-.4-2-.26-.37-.74-.57-1.4-.57v-.48h7.42c2.74 0 4.93.78 6.6 2.35 1.64 1.57 2.47 3.54 2.47 5.96 0 2.36-.8 4.23-2.36 5.64-1.57 1.4-3.74 2.1-6.5 2.1h-7.65zm7-15.43h-3.05v11.85c0 1.15.13 1.9.4 2.35.27.4.84.63 1.66.63h1.66c1.98 0 3.52-.63 4.65-1.9 1.14-1.27 1.7-3.03 1.7-5.23 0-2.35-.6-4.2-1.86-5.6-1.23-1.38-2.95-2.1-5.15-2.1" fill="#092040" clip-path="url(#cB)"/></g><g transform="translate(-.26 -.13)"><defs><path d="M0 0h285v68.15H0z" id="cC"/></defs><clipPath id="cD"><use height="100%" width="100%" overflow="visible" xlink:href="#cC"/></clipPath><path d="M148.16 36.4v.5c-.67 0-1.15.2-1.4.56-.25.36-.4 1.04-.4 2v10.02c0 .96.13 1.63.4 1.98.25.37.73.54 1.4.54v.48h-5.78V52c.7 0 1.17-.2 1.43-.54.27-.37.4-1.04.4-2V39.43c0-.98-.13-1.65-.37-2.02-.24-.36-.74-.53-1.46-.53v-.48h5.8z" fill="#092040" clip-path="url(#cD)"/></g><g transform="translate(-.26 -.13)"><defs><path d="M0 0h285v68.15H0z" id="cE"/></defs><clipPath id="cF"><use height="100%" width="100%" overflow="visible" xlink:href="#cE"/></clipPath><path d="M162.42 36.87v-.48h4.85v.47c-.78 0-1.33.17-1.6.54-.3.38-.47 1.03-.47 2v13.05h-.5L153.34 38.5v11.28c0 .8.17 1.37.48 1.7.31.33.87.52 1.63.52v.48h-4.87V52c.78 0 1.3-.2 1.6-.6.25-.42.4-1.12.4-2.16v-9.4c0-1-.2-1.73-.54-2.2-.37-.45-.98-.7-1.83-.77v-.48h4.12l10.1 12.5v-9.4c0-.98-.14-1.67-.42-2.07-.32-.35-.84-.56-1.58-.56" fill="#092040" clip-path="url(#cF)"/></g><g transform="translate(-.26 -.13)"><defs><path d="M0 0h285v68.15H0z" id="cG"/></defs><clipPath id="cH"><use height="100%" width="100%" overflow="visible" xlink:href="#cG"/></clipPath><path d="M176.44 52.45h-7.4v-.48c.68 0 1.16-.2 1.42-.54.26-.37.4-1.04.4-1.98V39.43c0-.98-.14-1.65-.38-2.02-.24-.36-.74-.53-1.46-.53v-.48h6.06c1.74 0 3.1.34 4.1 1.06 1 .72 1.5 1.65 1.5 2.83 0 1.7-1.08 2.92-3.23 3.62V44c1.22.23 2.22.77 2.98 1.62.76.83 1.15 1.8 1.15 2.9 0 1.2-.48 2.14-1.4 2.86-.93.72-2.2 1.07-3.74 1.07M173 37.02v6.8h1.64c1.17 0 2.1-.3 2.78-.9.67-.62 1.02-1.42 1.02-2.47 0-1.1-.35-1.93-1.02-2.52-.67-.6-1.63-.9-2.85-.9H173zm1.5 7.4h-1.53v4.73c0 1.04.1 1.76.35 2.13.22.37.67.57 1.33.57h1.33c.93 0 1.7-.33 2.28-.93.6-.63.9-1.46.9-2.5 0-1.2-.42-2.15-1.27-2.87-.87-.75-2-1.12-3.4-1.12" fill="#092040" clip-path="url(#cH)"/></g><g transform="translate(-.26 -.13)"><defs><path d="M0 0h285v68.15H0z" id="cI"/></defs><clipPath id="cJ"><use height="100%" width="100%" overflow="visible" xlink:href="#cI"/></clipPath><path d="M195.88 49.1v-9.65c0-.93-.13-1.6-.37-1.96-.23-.38-.7-.58-1.32-.6v-.48h5.65v.48c-.67 0-1.15.2-1.4.57-.27.37-.4 1.04-.4 2V49.5c0 .93.13 1.6.4 1.98.25.37.73.57 1.4.57v.48h-3.96V50.3c-1.5 1.75-3.3 2.62-5.35 2.62-1.7 0-3.04-.5-4-1.52s-1.46-2.35-1.46-4.02v-7.9c0-.95-.13-1.62-.37-2-.25-.36-.75-.56-1.47-.56v-.48h5.8v.48c-.72 0-1.22.17-1.46.54-.26.37-.4 1.02-.4 1.98v8.13c0 1.33.38 2.35 1.1 3.1.72.75 1.72 1.12 3.02 1.12 1.92-.02 3.45-.93 4.58-2.7" fill="#092040" clip-path="url(#cJ)"/></g><g transform="translate(-.26 -.13)"><defs><path d="M0 0h285v68.15H0z" id="cK"/></defs><clipPath id="cL"><use height="100%" width="100%" overflow="visible" xlink:href="#cK"/></clipPath><path d="M207.46 45.02h-1.3v4.4c0 .97.13 1.62.4 2 .25.36.73.56 1.4.56v.46h-5.78v-.46c.7 0 1.2-.2 1.46-.57.24-.36.37-1.03.37-1.97V39.37c0-.96-.1-1.6-.36-1.96-.24-.36-.74-.53-1.46-.53v-.48h6.6c1.62 0 2.9.38 3.88 1.2.98.77 1.46 1.8 1.46 3 0 1.97-1.1 3.3-3.33 3.94.47.3.95.74 1.4 1.28.46.54 1.07 1.46 1.8 2.7.83 1.4 1.5 2.33 1.98 2.76.48.43.96.67 1.48.7v.46h-3.28c-.67-.8-1.5-2-2.46-3.6-1.02-1.64-1.83-2.7-2.4-3.16-.5-.42-1.16-.66-1.86-.66m.37-8h-1.67v7.33h1.96c1.17 0 2.1-.35 2.76-1.02.67-.67 1-1.57 1-2.67 0-1.1-.37-1.96-1.1-2.63-.73-.66-1.7-1-2.95-1" fill="#092040" clip-path="url(#cL)"/></g><g transform="translate(-.26 -.13)"><defs><path d="M0 0h285v68.15H0z" id="cM"/></defs><clipPath id="cN"><use height="100%" width="100%" overflow="visible" xlink:href="#cM"/></clipPath><path d="M233.46 45.52v.46c-.72 0-1.22.17-1.52.48-.3.33-.46.9-.46 1.67v4.33c-.37.1-1.07.2-2.1.26-1 .1-1.82.13-2.38.13-2.96 0-5.26-.74-6.93-2.2-1.67-1.46-2.48-3.4-2.48-5.78 0-1.67.36-3.17 1.08-4.52.72-1.35 1.74-2.4 3.04-3.2 1.3-.78 2.67-1.17 4.15-1.17.87 0 1.83.15 2.87.48.65.2 1.15.28 1.5.28.46 0 .76-.17.9-.52h.5v4.74h-.45c-.18-1.33-.8-2.37-1.8-3.15-1-.77-2.2-1.2-3.53-1.2-1.7 0-3.1.68-4.17 2.05-1.1 1.35-1.63 3.1-1.63 5.24 0 2.34.63 4.3 1.9 5.86 1.27 1.56 2.82 2.33 4.73 2.33 1.8 0 2.7-.6 2.7-1.73v-1.74c0-.98-.13-1.67-.4-2.07-.25-.4-.7-.6-1.36-.6h-.6v-.45c-.06.02 6.42.02 6.42.02z" fill="#092040" clip-path="url(#cN)"/></g><g transform="translate(-.26 -.13)"><defs><path d="M0 0h285v68.15H0z" id="cO"/></defs><clipPath id="cP"><use height="100%" width="100%" overflow="visible" xlink:href="#cO"/></clipPath><path d="M247.46 49.45V44.8h-8.74v4.65c0 .96.13 1.6.4 1.98.25.37.75.57 1.45.57v.48h-5.8V52c.7 0 1.17-.2 1.43-.57.26-.37.4-1.04.4-1.98V39.43c0-.98-.14-1.65-.4-2.02-.26-.36-.74-.53-1.43-.53v-.48h5.8v.47c-.7 0-1.2.2-1.46.6-.25.38-.38 1.03-.38 1.97V44h8.74v-4.56c0-.98-.13-1.65-.37-2.02-.24-.37-.73-.54-1.42-.54v-.48h5.76v.48c-.67 0-1.17.2-1.4.57-.23.37-.4 1.04-.4 2v10.02c0 .96.13 1.63.4 1.98.25.35.73.54 1.4.54v.47h-5.76V52c.7 0 1.2-.2 1.43-.55.23-.37.36-1.04.36-2" fill="#092040" clip-path="url(#cP)"/></g></svg>