<svg xmlns="http://www.w3.org/2000/svg" xmlns:xlink="http://www.w3.org/1999/xlink" viewBox="0 0 194.7 133"><defs><style>.cls-1{fill:#604cc3;}.cls-2{fill:#d83c65;}.cls-3{fill:#eeccb4;}.cls-4{fill:#00712d;}.cls-5,.cls-6,.cls-7,.cls-8,.cls-9{fill:none;stroke:#000;stroke-miterlimit:10;}.cls-5{stroke-width:2px;}.cls-7{stroke-dasharray:0.97 0.97;}.cls-8{stroke-dasharray:1.05 1.05;}.cls-9{stroke-dasharray:1 1;}.cls-10{font-size:20.33px;font-family:Arvo;}</style></defs><g id="Layer_2" data-name="Layer 2"><g id="alternative_pipeline" data-name="alternative pipeline"><g id="pivots"><circle class="cls-1" cx="127.7" cy="32.4" r="10.8"/><image width="1111" height="1110" transform="translate(118.77 23.48) scale(0.02)" xlink:href="../308_img_pivots_round.png"/><circle class="cls-2" cx="116.27" cy="10.8" r="10.8"/><image width="1098" height="1098" transform="translate(107.27 1.8) scale(0.02)" xlink:href="../p65.png"/><circle class="cls-3" cx="93.4" cy="19.7" r="10.8"/><image width="1102" height="1106" transform="translate(84.15 10.41) scale(0.02)" xlink:href="../781_round.png"/><circle class="cls-4" cx="106.1" cy="45.11" r="10.8"/><image width="1102" height="1106" transform="translate(106.13 32.37) rotate(45) scale(0.02)" xlink:href="../285_round.png"/><circle class="cls-2" cx="80.69" cy="42.57" r="10.8"/><image width="1102" height="1106" transform="translate(71.61 33.46) scale(0.02)" xlink:href="../501_round.png"/></g><line class="cls-5" x1="101.66" y1="63.53" x2="71.07" y2="94.12"/><polygon points="66.08 99.11 70.24 89.2 71.44 93.75 75.98 94.95 66.08 99.11"/><line class="cls-5" x1="109.28" y1="63.53" x2="139.23" y2="93.49"/><polygon points="144.22 98.48 134.31 94.32 138.86 93.11 140.06 88.57 144.22 98.48"/><line class="cls-5" x1="105.15" y1="71.16" x2="105.15" y2="98.66"/><polygon points="105.15 105.72 101.08 95.77 105.15 98.13 109.21 95.77 105.15 105.72"/><g id="knn"><g id="edges_copy" data-name="edges copy"><line class="cls-6" x1="174.72" y1="116.27" x2="174.61" y2="115.78"/><line class="cls-7" x1="174.4" y1="114.83" x2="172.39" y2="105.8"/><line class="cls-6" x1="172.29" y1="105.32" x2="172.18" y2="104.83"/><line class="cls-6" x1="174.72" y1="116.27" x2="174.23" y2="116.39"/><line class="cls-8" x1="173.21" y1="116.64" x2="165.55" y2="118.56"/><line class="cls-6" x1="165.04" y1="118.69" x2="164.55" y2="118.81"/><line class="cls-6" x1="181.07" y1="126.43" x2="180.81" y2="126.01"/><line class="cls-9" x1="180.28" y1="125.16" x2="175.25" y2="117.12"/><line class="cls-6" x1="174.98" y1="116.69" x2="174.72" y2="116.27"/></g><g id="nodes_copy" data-name="nodes copy"><path d="M174.24,118.91a2.52,2.52,0,1,1,2.52-2.52A2.52,2.52,0,0,1,174.24,118.91Z"/><path d="M174.24,114.37a2,2,0,1,1-2,2,2,2,0,0,1,2-2m0-1a3,3,0,1,0,3,3,3,3,0,0,0-3-3Z"/><path d="M172.12,107.47a2.52,2.52,0,1,1,2.52-2.52A2.53,2.53,0,0,1,172.12,107.47Z"/><path d="M172.12,102.93a2,2,0,1,1-2,2,2,2,0,0,1,2-2m0-1a3,3,0,1,0,3,3,3,3,0,0,0-3-3Z"/><path d="M160.93,100.84a2.52,2.52,0,1,1,2.52-2.52A2.52,2.52,0,0,1,160.93,100.84Z"/><path d="M160.93,96.3a2,2,0,1,1-2,2,2,2,0,0,1,2-2m0-1a3,3,0,1,0,3,3,3,3,0,0,0-3-3Z"/><path d="M154.23,112.17a2.52,2.52,0,1,1,2.52-2.52A2.52,2.52,0,0,1,154.23,112.17Z"/><path d="M154.23,107.63a2,2,0,1,1-2,2,2,2,0,0,1,2-2m0-1a3,3,0,1,0,3,3,3,3,0,0,0-3-3Z"/><path d="M181.52,128.69a2.52,2.52,0,1,1,2.52-2.52A2.52,2.52,0,0,1,181.52,128.69Z"/><path d="M181.52,124.15a2,2,0,1,1-2,2,2,2,0,0,1,2-2m0-1a3,3,0,1,0,3,3,3,3,0,0,0-3-3Z"/><path d="M162.46,122.33a2.52,2.52,0,1,1,2.51-2.52A2.53,2.53,0,0,1,162.46,122.33Z"/><path d="M162.45,117.79a2,2,0,1,1-2,2,2,2,0,0,1,2-2m0-1a3,3,0,1,0,3,3,3,3,0,0,0-3-3Z"/><path d="M191.68,107.09a2.52,2.52,0,1,1,2.52-2.52A2.52,2.52,0,0,1,191.68,107.09Z"/><path d="M191.68,102.55a2,2,0,1,1-2,2,2,2,0,0,1,2-2m0-1a3,3,0,1,0,3,3,3,3,0,0,0-3-3Z"/><path d="M190.41,117.25a2.52,2.52,0,1,1,2.52-2.52A2.52,2.52,0,0,1,190.41,117.25Z"/><path d="M190.41,112.71a2,2,0,1,1-2,2,2,2,0,0,1,2-2m0-1a3,3,0,1,0,3,3,3,3,0,0,0-3-3Z"/><path d="M167.54,132.5a2.52,2.52,0,1,1,2.52-2.52A2.52,2.52,0,0,1,167.54,132.5Z"/><path d="M167.54,128a2,2,0,1,1-2,2,2,2,0,0,1,2-2m0-1a3,3,0,1,0,3,3,3,3,0,0,0-3-3Z"/></g><text class="cls-10" transform="translate(97.95 116.74)">...</text></g><g id="tree"><g id="edges"><line class="cls-6" x1="3.04" y1="128.73" x2="19.64" y2="117.69"/><line class="cls-6" x1="19.61" y1="117.69" x2="49.25" y2="107.34"/><line class="cls-6" x1="49.25" y1="107.34" x2="72.46" y2="117.69"/><line class="cls-6" x1="19.64" y1="117.69" x2="36.68" y2="128.73"/></g><g id="nodes"><path d="M72.58,120.18a2.52,2.52,0,1,1,2.52-2.52A2.52,2.52,0,0,1,72.58,120.18Z"/><path d="M72.58,115.64a2,2,0,1,1-2,2,2,2,0,0,1,2-2m0-1a3,3,0,1,0,3,3,3,3,0,0,0-3-3Z"/><path d="M19.64,120.18a2.52,2.52,0,1,1,2.52-2.52A2.52,2.52,0,0,1,19.64,120.18Z"/><path d="M19.64,115.64a2,2,0,1,1-2,2,2,2,0,0,1,2-2m0-1a3,3,0,1,0,3,3,3,3,0,0,0-3-3Z"/><path d="M49.11,109.74a2.52,2.52,0,1,1,2.52-2.52A2.52,2.52,0,0,1,49.11,109.74Z"/><path d="M49.11,105.2a2,2,0,1,1-2,2,2,2,0,0,1,2-2m0-1a3,3,0,1,0,3,3,3,3,0,0,0-3-3Z"/><path d="M3,131.23a2.52,2.52,0,1,1,2.52-2.52A2.52,2.52,0,0,1,3,131.23Z"/><path d="M3,126.69a2,2,0,1,1-2,2,2,2,0,0,1,2-2m0-1a3,3,0,1,0,3,3,3,3,0,0,0-3-3Z"/><path d="M36.66,131.23a2.52,2.52,0,1,1,2.52-2.52A2.52,2.52,0,0,1,36.66,131.23Z"/><path d="M36.66,126.69a2,2,0,1,1-2,2,2,2,0,0,1,2-2m0-1a3,3,0,1,0,3,3,3,3,0,0,0-3-3Z"/></g></g></g></g></svg>