<svg xmlns="http://www.w3.org/2000/svg" xmlns:xlink="http://www.w3.org/1999/xlink" viewBox="0 0 153.22 104.67"><defs><style>.cls-1{fill:#604cc3;}.cls-2{fill:#d83c65;}.cls-3{fill:#eeccb4;}.cls-4{fill:#00712d;}.cls-5,.cls-6,.cls-7,.cls-8,.cls-9{fill:none;stroke:#000;stroke-miterlimit:10;}.cls-5{stroke-width:2px;}.cls-7{stroke-dasharray:0.91 0.91;}.cls-8{stroke-dasharray:1.04 1.04;}.cls-9{stroke-dasharray:0.94 0.94;}.cls-10{font-size:16px;font-family:Arvo;}</style></defs><g id="Layer_2" data-name="Layer 2"><g id="alternative_pipeline" data-name="alternative pipeline"><g id="pivots"><circle class="cls-1" cx="100.5" cy="25.5" r="8.5"/><image width="1111" height="1110" transform="translate(93.47 18.48) scale(0.01)" xlink:href="../308_img_pivots_round.png"/><circle class="cls-2" cx="91.5" cy="8.5" r="8.5"/><image width="1098" height="1098" transform="translate(84.42 1.42) scale(0.01)" xlink:href="../p65.png"/><circle class="cls-3" cx="73.5" cy="15.5" r="8.5"/><image width="1102" height="1106" transform="translate(66.22 8.19) scale(0.01)" xlink:href="../781_round.png"/><circle class="cls-4" cx="83.5" cy="35.5" r="8.5"/><image width="1102" height="1106" transform="matrix(0.01, 0.01, -0.01, 0.01, 83.52, 25.48)" xlink:href="../285_round.png"/><circle class="cls-2" cx="63.5" cy="33.5" r="8.5"/><image width="1102" height="1106" transform="translate(56.36 26.33) scale(0.01)" xlink:href="../501_round.png"/></g><line class="cls-5" x1="80" y1="50" x2="56.99" y2="73.01"/><polygon points="52 78 56.16 68.09 57.37 72.63 61.91 73.84 52 78"/><line class="cls-5" x1="86" y1="50" x2="108.51" y2="72.51"/><polygon points="113.5 77.5 103.59 73.34 108.13 72.13 109.34 67.59 113.5 77.5"/><line class="cls-5" x1="82.75" y1="56" x2="82.75" y2="76.13"/><polygon points="82.75 83.19 78.69 73.25 82.75 75.61 86.81 73.25 82.75 83.19"/><g id="knn"><g id="edges_copy" data-name="edges copy"><line class="cls-6" x1="137.5" y1="91.5" x2="137.39" y2="91.01"/><line class="cls-7" x1="137.19" y1="90.12" x2="135.71" y2="83.43"/><line class="cls-6" x1="135.61" y1="82.99" x2="135.5" y2="82.5"/><line class="cls-6" x1="137.5" y1="91.5" x2="137.01" y2="91.62"/><line class="cls-8" x1="136.01" y1="91.87" x2="130.49" y2="93.25"/><line class="cls-6" x1="129.99" y1="93.38" x2="129.5" y2="93.5"/><line class="cls-6" x1="142.5" y1="99.5" x2="142.23" y2="99.08"/><line class="cls-9" x1="141.74" y1="98.28" x2="138.01" y2="92.32"/><line class="cls-6" x1="137.77" y1="91.92" x2="137.5" y2="91.5"/></g><g id="nodes_copy" data-name="nodes copy"><path d="M137.12,93.47A1.88,1.88,0,1,1,139,91.6,1.88,1.88,0,0,1,137.12,93.47Z"/><path d="M137.12,90.22a1.38,1.38,0,1,1-1.38,1.38,1.38,1.38,0,0,1,1.38-1.38m0-1a2.38,2.38,0,1,0,2.38,2.38,2.38,2.38,0,0,0-2.38-2.38Z"/><path d="M135.46,84.47a1.88,1.88,0,1,1,1.87-1.87A1.88,1.88,0,0,1,135.46,84.47Z"/><path d="M135.46,81.22a1.38,1.38,0,1,1-1.38,1.38,1.37,1.37,0,0,1,1.38-1.38m0-1a2.38,2.38,0,1,0,2.37,2.38,2.38,2.38,0,0,0-2.37-2.38Z"/><path d="M126.65,79.25a1.88,1.88,0,1,1,1.88-1.87A1.88,1.88,0,0,1,126.65,79.25Z"/><path d="M126.65,76a1.38,1.38,0,1,1-1.38,1.38A1.38,1.38,0,0,1,126.65,76m0-1A2.38,2.38,0,1,0,129,77.38,2.38,2.38,0,0,0,126.65,75Z"/><path d="M121.38,88.17a1.88,1.88,0,1,1,1.87-1.88A1.88,1.88,0,0,1,121.38,88.17Z"/><path d="M121.38,84.91A1.38,1.38,0,1,1,120,86.29a1.37,1.37,0,0,1,1.38-1.38m0-1a2.38,2.38,0,1,0,2.37,2.38,2.38,2.38,0,0,0-2.37-2.38Z"/><circle cx="142.85" cy="99.29" r="1.88"/><path d="M142.85,97.91a1.38,1.38,0,1,1-1.38,1.38,1.37,1.37,0,0,1,1.38-1.38m0-1a2.38,2.38,0,1,0,2.37,2.38,2.39,2.39,0,0,0-2.37-2.38Z"/><circle cx="127.85" cy="94.29" r="1.88"/><path d="M127.85,92.91a1.38,1.38,0,1,1-1.38,1.38,1.37,1.37,0,0,1,1.38-1.38m0-1a2.38,2.38,0,1,0,2.37,2.38,2.39,2.39,0,0,0-2.37-2.38Z"/><circle cx="150.85" cy="82.29" r="1.88"/><path d="M150.85,80.91a1.38,1.38,0,1,1-1.38,1.38,1.37,1.37,0,0,1,1.38-1.38m0-1a2.38,2.38,0,1,0,2.37,2.38,2.39,2.39,0,0,0-2.37-2.38Z"/><circle cx="149.85" cy="90.29" r="1.88"/><path d="M149.85,88.91a1.38,1.38,0,1,1-1.38,1.38,1.37,1.37,0,0,1,1.38-1.38m0-1a2.38,2.38,0,1,0,2.37,2.38,2.39,2.39,0,0,0-2.37-2.38Z"/><circle cx="131.85" cy="102.29" r="1.88"/><path d="M131.85,100.91a1.38,1.38,0,1,1-1.38,1.38,1.37,1.37,0,0,1,1.38-1.38m0-1a2.38,2.38,0,1,0,2.37,2.38,2.39,2.39,0,0,0-2.37-2.38Z"/></g><text class="cls-10" transform="translate(77.09 91.87)">...</text></g><g id="tree"><g id="edges"><line class="cls-6" x1="2.4" y1="101.31" x2="15.46" y2="92.62"/><line class="cls-6" x1="15.44" y1="92.62" x2="38.76" y2="84.47"/><line class="cls-6" x1="38.76" y1="84.47" x2="57.02" y2="92.62"/><line class="cls-6" x1="15.46" y1="92.62" x2="28.87" y2="101.31"/></g><g id="nodes"><path d="M57.12,94.47A1.88,1.88,0,1,1,59,92.6,1.88,1.88,0,0,1,57.12,94.47Z"/><path d="M57.12,91.22a1.38,1.38,0,1,1-1.38,1.38,1.38,1.38,0,0,1,1.38-1.38m0-1A2.38,2.38,0,1,0,59.5,92.6a2.38,2.38,0,0,0-2.38-2.38Z"/><path d="M15.46,94.47a1.88,1.88,0,1,1,1.87-1.87A1.88,1.88,0,0,1,15.46,94.47Z"/><path d="M15.46,91.22a1.38,1.38,0,1,1-1.38,1.38,1.37,1.37,0,0,1,1.38-1.38m0-1a2.38,2.38,0,1,0,2.37,2.38,2.38,2.38,0,0,0-2.37-2.38Z"/><path d="M38.65,86.25a1.88,1.88,0,1,1,1.88-1.87A1.88,1.88,0,0,1,38.65,86.25Z"/><path d="M38.65,83a1.38,1.38,0,1,1-1.38,1.38A1.38,1.38,0,0,1,38.65,83m0-1A2.38,2.38,0,1,0,41,84.38,2.38,2.38,0,0,0,38.65,82Z"/><path d="M2.38,103.17a1.88,1.88,0,1,1,1.87-1.88A1.88,1.88,0,0,1,2.38,103.17Z"/><path d="M2.38,99.91A1.38,1.38,0,1,1,1,101.29a1.37,1.37,0,0,1,1.38-1.38m0-1a2.38,2.38,0,1,0,2.37,2.38,2.38,2.38,0,0,0-2.37-2.38Z"/><circle cx="28.85" cy="101.29" r="1.88"/><path d="M28.85,99.91a1.38,1.38,0,1,1-1.38,1.38,1.37,1.37,0,0,1,1.38-1.38m0-1a2.38,2.38,0,1,0,2.37,2.38,2.39,2.39,0,0,0-2.37-2.38Z"/></g></g></g></g></svg>