<svg xmlns="http://www.w3.org/2000/svg" xmlns:xlink="http://www.w3.org/1999/xlink" viewBox="0 0 1261.91 407.48"><defs><style>.cls-1{fill:none;stroke:#000;stroke-miterlimit:10;stroke-width:8px;}.cls-2{fill:#fff;}.cls-3{fill:#eeccb4;}.cls-4{fill:#604cc3;}.cls-5{fill:#d83c65;}.cls-6{font-size:34px;font-family:CMUConcrete-Roman, CMU Concrete;}</style></defs><g id="Layer_2" data-name="Layer 2"><g id="Layer_1-2" data-name="Layer 1"><g id="lines"><line class="cls-1" x1="30.44" y1="273.92" x2="196.41" y2="163.44"/><line class="cls-1" x1="196.91" y1="163.48" x2="608.91" y2="30.48"/><line class="cls-1" x1="608.91" y1="30.48" x2="961.91" y2="163.48"/><line class="cls-1" x1="196.41" y1="163.44" x2="366.79" y2="273.92"/><line class="cls-1" x1="254.34" y1="385.38" x2="366.05" y2="273.68"/><line class="cls-1" x1="482.42" y1="392.99" x2="363.35" y2="273.92"/><line class="cls-1" x1="795.44" y1="273.92" x2="961.41" y2="163.44"/><line class="cls-1" x1="961.41" y1="163.44" x2="1131.79" y2="273.92"/><line class="cls-1" x1="1019.34" y1="385.38" x2="1131.05" y2="273.68"/><line class="cls-1" x1="1247.42" y1="392.99" x2="1128.35" y2="273.92"/></g><g id="imgs"><image width="1111" height="1110" transform="translate(934.41 136.22) scale(0.05)" xlink:href="../308_img_pivots_round.png"/><image width="1098" height="1098" transform="translate(583.62 4.91) scale(0.05)" xlink:href="../p65.png"/><image width="1102" height="1106" transform="translate(1105.55 247.59) scale(0.05)" xlink:href="../781_round.png"/><image width="1102" height="1106" transform="matrix(0.03, 0.03, -0.03, 0.03, 196.47, 127.42)" xlink:href="../285_round.png"/><image width="1102" height="1106" transform="translate(341.04 248.08) scale(0.05)" xlink:href="../501_round.png"/></g><g id="nodes"><path d="M196.41,138a25.2,25.2,0,1,1-25.2,25.2,25.22,25.22,0,0,1,25.2-25.2m0-5a30.2,30.2,0,1,0,30.19,30.2A30.2,30.2,0,0,0,196.41,133Z"/><path d="M608.91,5a25.2,25.2,0,1,1-25.2,25.2A25.22,25.22,0,0,1,608.91,5m0-5A30.2,30.2,0,1,0,639.1,30.2,30.2,30.2,0,0,0,608.91,0Z"/><circle class="cls-2" cx="30.2" cy="273.68" r="27.7"/><path d="M30.2,248.48A25.2,25.2,0,1,1,5,273.68a25.22,25.22,0,0,1,25.2-25.2m0-5a30.2,30.2,0,1,0,30.19,30.2,30.2,30.2,0,0,0-30.19-30.2Z"/><path d="M366.54,248.48a25.2,25.2,0,1,1-25.2,25.2,25.22,25.22,0,0,1,25.2-25.2m0-5a30.2,30.2,0,1,0,30.2,30.2,30.2,30.2,0,0,0-30.2-30.2Z"/><path class="cls-3" d="M262.45,405a27.7,27.7,0,1,1,27.69-27.7A27.73,27.73,0,0,1,262.45,405Z"/><path class="cls-3" d="M262.45,352.08a25.2,25.2,0,1,1-25.2,25.2,25.23,25.23,0,0,1,25.2-25.2m0-5a30.2,30.2,0,1,0,30.19,30.2,30.2,30.2,0,0,0-30.19-30.2Z"/><circle class="cls-4" cx="466.71" cy="377.28" r="27.7"/><path class="cls-4" d="M466.71,352.08a25.2,25.2,0,1,1-25.2,25.2,25.24,25.24,0,0,1,25.2-25.2m0-5a30.2,30.2,0,1,0,30.2,30.2,30.2,30.2,0,0,0-30.2-30.2Z"/><path d="M961.41,138a25.2,25.2,0,1,1-25.2,25.2,25.22,25.22,0,0,1,25.2-25.2m0-5a30.2,30.2,0,1,0,30.19,30.2A30.2,30.2,0,0,0,961.41,133Z"/><path d="M1131.54,248.48a25.2,25.2,0,1,1-25.2,25.2,25.22,25.22,0,0,1,25.2-25.2m0-5a30.2,30.2,0,1,0,30.2,30.2,30.2,30.2,0,0,0-30.2-30.2Z"/><circle class="cls-2" cx="1027.45" cy="377.28" r="27.7"/><path d="M1027.45,352.08a25.2,25.2,0,1,1-25.2,25.2,25.23,25.23,0,0,1,25.2-25.2m0-5a30.2,30.2,0,1,0,30.19,30.2,30.2,30.2,0,0,0-30.19-30.2Z"/><circle class="cls-5" cx="1231.71" cy="377.28" r="27.7"/><path class="cls-5" d="M1231.71,352.08a25.2,25.2,0,1,1-25.2,25.2,25.24,25.24,0,0,1,25.2-25.2m0-5a30.2,30.2,0,1,0,30.2,30.2,30.2,30.2,0,0,0-30.2-30.2Z"/><circle class="cls-4" cx="795.2" cy="273.68" r="27.7"/><path class="cls-4" d="M795.2,248.48a25.2,25.2,0,1,1-25.2,25.2,25.22,25.22,0,0,1,25.2-25.2m0-5a30.2,30.2,0,1,0,30.19,30.2,30.2,30.2,0,0,0-30.19-30.2Z"/><text class="cls-6" transform="translate(1013.28 385.79)">...</text><text class="cls-6" transform="translate(16.03 282.19)">...</text></g></g></g></svg>