<svg xmlns="http://www.w3.org/2000/svg" xmlns:xlink="http://www.w3.org/1999/xlink" viewBox="0 0 402.11 432.62"><defs><style>.cls-1,.cls-9{fill:#eeccb4;}.cls-1,.cls-2,.cls-3,.cls-4{opacity:0.33;}.cls-2,.cls-6{fill:#604cc3;}.cls-3,.cls-7{fill:#3a9f5d;stroke:#3a9f5d;}.cls-3,.cls-5,.cls-6,.cls-7,.cls-8,.cls-9{stroke-miterlimit:10;}.cls-3,.cls-6,.cls-7,.cls-8,.cls-9{stroke-width:2px;}.cls-4,.cls-8{fill:#d83c65;}.cls-5{fill:none;stroke:#000;stroke-width:5px;}.cls-6{stroke:#604cc3;}.cls-8{stroke:#d83c65;}.cls-9{stroke:#eeccb4;}</style></defs><g id="Layer_2" data-name="Layer 2"><g id="space"><g id="cut_bubbles" data-name="cut bubbles"><path class="cls-1" d="M154.93,260A90.84,90.84,0,0,1,175.72,202a125.6,125.6,0,0,1-12.81-20.8,85.93,85.93,0,0,1-109,9.15A117.15,117.15,0,1,0,218.89,347,91.26,91.26,0,0,1,154.93,260Z"/><path class="cls-2" d="M276.14,0A125.89,125.89,0,0,0,167.22,62.67a85.93,85.93,0,0,1-4.3,118.54A126.5,126.5,0,0,0,175.71,202a91.23,91.23,0,0,1,158.87,35.57A126,126,0,0,0,276.14,0Z"/></g><g id="bubbles"><circle class="cls-3" cx="102.86" cy="118.68" r="86"/><circle class="cls-4" cx="246.14" cy="259.96" r="91.21"/></g><line class="cls-5" x1="209.9" y1="77.27" x2="211.38" y2="414.97"/><polygon points="209.82 59.62 199.77 84.53 209.91 78.59 220.09 84.44 209.82 59.62"/><polygon points="211.46 432.62 201.19 407.79 211.38 413.65 221.51 407.7 211.46 432.62"/><line class="cls-5" x1="379.97" y1="245.37" x2="41.31" y2="246.86"/><polygon points="397.62 245.3 372.7 235.24 378.65 245.38 372.79 255.57 397.62 245.3"/><polygon points="23.66 246.94 48.49 236.66 42.63 246.85 48.58 256.99 23.66 246.94"/><circle id="_4" data-name="4" class="cls-6" cx="276.14" cy="125.96" r="26.76"/><image width="1111" height="1110" transform="translate(251.14 100.99) scale(0.05)" xlink:href="../308_img_pivots_round.png"/><circle id="_4-2" data-name="4" class="cls-7" cx="103.14" cy="119.96" r="26.76"/><image width="1098" height="1098" transform="translate(77.86 94.68) scale(0.05)" xlink:href="../p65.png"/><circle id="_4-3" data-name="4" class="cls-8" cx="246.14" cy="259.96" r="26.76"/><image width="1102" height="1106" transform="translate(246.21 224.67) rotate(45) scale(0.05)" xlink:href="../285_round.png"/><circle id="_4-4" data-name="4" class="cls-9" cx="117.14" cy="288.96" r="26.76"/><image width="1102" height="1106" transform="translate(91.64 263.37) scale(0.05)" xlink:href="../501_round.png"/></g></g></svg>