<svg xmlns="http://www.w3.org/2000/svg" xmlns:xlink="http://www.w3.org/1999/xlink" viewBox="0 0 1263.23 436.39"><defs><style>.cls-1{fill:none;stroke:#000;stroke-miterlimit:10;stroke-width:8px;}.cls-2{fill:#fff;}.cls-3{fill:#eeccb4;}.cls-4{fill:#604cc3;}.cls-5{fill:#d83c65;}.cls-6{font-size:47.88px;font-family:CMUConcrete-Roman, CMU Concrete;}</style></defs><g id="Layer_2" data-name="Layer 2"><g id="Layer_1-2" data-name="Layer 1"><g id="large"><g id="lines_copy" data-name="lines copy"><line class="cls-1" x1="31.76" y1="286.25" x2="197.73" y2="175.77"/><line class="cls-1" x1="198.23" y1="175.8" x2="610.23" y2="42.8"/><line class="cls-1" x1="610.23" y1="42.8" x2="963.23" y2="175.8"/><line class="cls-1" x1="197.73" y1="175.77" x2="368.11" y2="286.25"/><line class="cls-1" x1="255.67" y1="397.71" x2="367.37" y2="286"/><line class="cls-1" x1="483.74" y1="405.32" x2="366.23" y2="285.07"/><line class="cls-1" x1="796.76" y1="286.25" x2="962.73" y2="175.77"/><line class="cls-1" x1="962.73" y1="175.77" x2="1133.11" y2="286.25"/><line class="cls-1" x1="1020.67" y1="397.71" x2="1132.37" y2="286"/><line class="cls-1" x1="1248.74" y1="405.32" x2="1132.23" y2="286.07"/></g><g id="imgs_copy" data-name="imgs copy"><image width="1111" height="1110" transform="translate(924.05 137.83) scale(0.07)" xlink:href="../308_img_pivots_round.png"/><image width="1098" height="1098" transform="translate(570.08 1.92) scale(0.07)" xlink:href="../p65.png"/><image width="1102" height="1106" transform="translate(1093.14 246.73) scale(0.08)" xlink:href="../781_round.png"/><image width="1102" height="1106" transform="translate(197.9 121.07) rotate(45) scale(0.07)" xlink:href="../285_round.png"/><image width="1102" height="1106" transform="translate(328.85 249.71) scale(0.07)" xlink:href="../501_round.png"/></g><g id="nodes_copy" data-name="nodes copy"><path d="M197.8,138.29a37.53,37.53,0,1,1-37.52,37.52,37.57,37.57,0,0,1,37.52-37.52m0-5a42.53,42.53,0,1,0,42.53,42.52,42.52,42.52,0,0,0-42.53-42.52Z"/><path d="M610.68,5a37.53,37.53,0,1,1-37.52,37.52A37.56,37.56,0,0,1,610.68,5m0-5A42.53,42.53,0,1,0,653.2,42.52,42.52,42.52,0,0,0,610.68,0Z"/><circle class="cls-2" cx="42.52" cy="288.39" r="40.02"/><path d="M42.52,250.86A37.53,37.53,0,1,1,5,288.39a37.58,37.58,0,0,1,37.52-37.53m0-5a42.53,42.53,0,1,0,42.53,42.53,42.53,42.53,0,0,0-42.53-42.53Z"/><path d="M367.39,250.86a37.53,37.53,0,1,1-37.53,37.53,37.57,37.57,0,0,1,37.53-37.53m0-5a42.53,42.53,0,1,0,42.52,42.53,42.53,42.53,0,0,0-42.52-42.53Z"/><circle class="cls-3" cx="263.7" cy="393.87" r="40.02"/><path class="cls-3" d="M263.7,356.34a37.53,37.53,0,1,1-37.52,37.53,37.58,37.58,0,0,1,37.52-37.53m0-5a42.53,42.53,0,1,0,42.53,42.53,42.53,42.53,0,0,0-42.53-42.53Z"/><circle class="cls-4" cx="479.86" cy="393.87" r="40.02" transform="translate(-114.2 213.62) rotate(-22.5)"/><path class="cls-4" d="M479.86,356.34a37.53,37.53,0,1,1-37.52,37.53,37.58,37.58,0,0,1,37.52-37.53m0-5a42.53,42.53,0,1,0,42.53,42.53,42.53,42.53,0,0,0-42.53-42.53Z"/><path d="M962.07,138.29a37.53,37.53,0,1,1-37.53,37.52,37.56,37.56,0,0,1,37.53-37.52m0-5a42.53,42.53,0,1,0,42.52,42.52,42.53,42.53,0,0,0-42.52-42.52Z"/><path d="M1134.65,250.86a37.53,37.53,0,1,1-37.52,37.53,37.57,37.57,0,0,1,37.52-37.53m0-5a42.53,42.53,0,1,0,42.52,42.53,42.52,42.52,0,0,0-42.52-42.53Z"/><circle class="cls-2" cx="1025.3" cy="393.87" r="40.02"/><path d="M1025.3,356.34a37.53,37.53,0,1,1-37.52,37.53,37.57,37.57,0,0,1,37.52-37.53m0-5a42.53,42.53,0,1,0,42.52,42.53,42.52,42.52,0,0,0-42.52-42.53Z"/><circle class="cls-5" cx="1220.7" cy="393.87" r="40.02"/><path class="cls-5" d="M1220.7,356.34a37.53,37.53,0,1,1-37.52,37.53,37.58,37.58,0,0,1,37.52-37.53m0-5a42.53,42.53,0,1,0,42.53,42.53,42.53,42.53,0,0,0-42.53-42.53Z"/><circle class="cls-4" cx="820.12" cy="288.39" r="40.02"/><path class="cls-4" d="M820.12,250.86a37.53,37.53,0,1,1-37.53,37.53,37.57,37.57,0,0,1,37.53-37.53m0-5a42.53,42.53,0,1,0,42.52,42.53,42.53,42.53,0,0,0-42.52-42.53Z"/><text class="cls-6" transform="translate(1005.35 405.85)">...</text><text class="cls-6" transform="translate(22.57 300.37)">...</text></g></g></g></g></svg>