<svg xmlns="http://www.w3.org/2000/svg" xmlns:xlink="http://www.w3.org/1999/xlink" viewBox="0 0 1334.49 479.53"><defs><style>.cls-1{fill:none;stroke:#000;stroke-miterlimit:10;stroke-width:8px;}.cls-2{fill:#fff;}.cls-3{fill:#eeccb4;}.cls-4{fill:#604cc3;}.cls-5{fill:#d83c65;}.cls-6{font-size:70.95px;font-family:CMUConcrete-Roman, CMU Concrete;}</style></defs><g id="Layer_2" data-name="Layer 2"><g id="Layer_1-2" data-name="Layer 1"><g id="Xlarge"><g id="lines_copy_2" data-name="lines copy 2"><line class="cls-1" x1="62.62" y1="306.55" x2="228.59" y2="196.07"/><line class="cls-1" x1="229.09" y1="196.11" x2="641.09" y2="63.11"/><line class="cls-1" x1="641.09" y1="63.11" x2="994.09" y2="196.11"/><line class="cls-1" x1="228.59" y1="196.07" x2="398.97" y2="306.55"/><line class="cls-1" x1="286.52" y1="418.01" x2="398.23" y2="306.31"/><line class="cls-1" x1="514.6" y1="425.62" x2="397.09" y2="305.37"/><line class="cls-1" x1="827.62" y1="306.55" x2="993.59" y2="196.07"/><line class="cls-1" x1="993.59" y1="196.07" x2="1163.97" y2="306.55"/><line class="cls-1" x1="1051.52" y1="418.01" x2="1163.23" y2="306.31"/><line class="cls-1" x1="1279.6" y1="425.62" x2="1163.09" y2="306.37"/></g><g id="imgs_copy_2" data-name="imgs copy 2"><image width="1111" height="1110" transform="translate(927.29 133.1) scale(0.11)" xlink:href="../308_img_pivots_round.png"/><image width="1098" height="1098" transform="translate(581.89 2.85) scale(0.11)" xlink:href="../p65.png"/><image width="1102" height="1106" transform="translate(1101.03 238.73) scale(0.11)" xlink:href="../781_round.png"/><image width="1102" height="1106" transform="translate(232.37 109.55) rotate(45) scale(0.11)" xlink:href="../285_round.png"/><image width="1102" height="1106" transform="translate(338.68 240.41) scale(0.11)" xlink:href="../501_round.png"/></g><g id="nodes_copy_2" data-name="nodes copy 2"><path d="M232.21,137.52a58,58,0,1,1-58,58,58.09,58.09,0,0,1,58-58m0-5a63,63,0,1,0,63,63,63,63,0,0,0-63-63Z"/><path d="M642.06,5a58,58,0,1,1-58,58,58.09,58.09,0,0,1,58-58m0-5a63,63,0,1,0,63,63,63,63,0,0,0-63-63Z"/><circle class="cls-2" cx="63.02" cy="300.47" r="60.52" transform="translate(-243.67 314.54) rotate(-80.78)"/><path d="M63,242.45a58,58,0,1,1-58,58,58.08,58.08,0,0,1,58-58m0-5a63,63,0,1,0,63,63,63,63,0,0,0-63-63Z"/><path d="M398.52,242.45a58,58,0,1,1-58,58,58.09,58.09,0,0,1,58-58m0-5a63,63,0,1,0,63,63,63,63,0,0,0-63-63Z"/><path class="cls-3" d="M281.1,477a60.52,60.52,0,1,1,60.52-60.52A60.58,60.58,0,0,1,281.1,477Z"/><path class="cls-3" d="M281.1,358.49a58,58,0,1,1-58,58,58.09,58.09,0,0,1,58-58m0-5a63,63,0,1,0,63,63,63,63,0,0,0-63-63Z"/><path class="cls-4" d="M519.18,477a60.52,60.52,0,1,1,60.52-60.52A60.59,60.59,0,0,1,519.18,477Z"/><path class="cls-4" d="M519.18,358.49a58,58,0,1,1-58,58,58.09,58.09,0,0,1,58-58m0-5a63,63,0,1,0,63,63,63,63,0,0,0-63-63Z"/><path d="M989.79,137.52a58,58,0,1,1-58,58,58.09,58.09,0,0,1,58-58m0-5a63,63,0,1,0,63,63,63,63,0,0,0-63-63Z"/><path d="M1162.54,242.45a58,58,0,1,1-58,58,58.09,58.09,0,0,1,58-58m0-5a63,63,0,1,0,63,63,63,63,0,0,0-63-63Z"/><path class="cls-2" d="M1058.39,477a60.52,60.52,0,1,1,60.52-60.52A60.59,60.59,0,0,1,1058.39,477Z"/><path d="M1058.39,358.49a58,58,0,1,1-58,58,58.09,58.09,0,0,1,58-58m0-5a63,63,0,1,0,63,63,63,63,0,0,0-63-63Z"/><path class="cls-5" d="M1271.47,477A60.52,60.52,0,1,1,1332,416.51,60.59,60.59,0,0,1,1271.47,477Z"/><path class="cls-5" d="M1271.47,358.49a58,58,0,1,1-58,58,58.09,58.09,0,0,1,58-58m0-5a63,63,0,1,0,63,63,63,63,0,0,0-63-63Z"/><circle class="cls-4" cx="836.32" cy="300.47" r="60.52"/><path class="cls-4" d="M836.32,242.45a58,58,0,1,1-58,58,58.08,58.08,0,0,1,58-58m0-5a63,63,0,1,0,63,63,63,63,0,0,0-63-63Z"/><text class="cls-6" transform="translate(1028.83 434.27)">...</text><text class="cls-6" transform="translate(33.45 318.23)">...</text></g></g></g></g></svg>