<?xml version="1.0" encoding="UTF-8" standalone="no"?>
<!-- Created with Inkscape (http://www.inkscape.org/) -->

<svg
   version="1.1"
   id="svg2"
   width="1333.3333"
   height="1333.3333"
   viewBox="0 0 1333.3333 1333.3333"
   sodipodi:docname="Logo FAIR_vector.ai"
   xmlns:inkscape="http://www.inkscape.org/namespaces/inkscape"
   xmlns:sodipodi="http://sodipodi.sourceforge.net/DTD/sodipodi-0.dtd"
   xmlns="http://www.w3.org/2000/svg"
   xmlns:svg="http://www.w3.org/2000/svg">
  <defs
     id="defs6">
    <clipPath
       clipPathUnits="userSpaceOnUse"
       id="clipPath20">
      <path
         d="M 0,1000 H 1000 V 0 H 0 Z"
         id="path18" />
    </clipPath>
  </defs>
  <sodipodi:namedview
     id="namedview4"
     pagecolor="#ffffff"
     bordercolor="#000000"
     borderopacity="0.25"
     inkscape:showpageshadow="2"
     inkscape:pageopacity="0.0"
     inkscape:pagecheckerboard="0"
     inkscape:deskcolor="#d1d1d1" />
  <g
     id="g8"
     inkscape:groupmode="layer"
     inkscape:label="Logo FAIR_vector"
     transform="matrix(1.3333333,0,0,-1.3333333,0,1333.3333)">
    <g
       id="g10"
       transform="translate(589.4089,610.488)">
      <path
         d="m 0,0 v -8.118 h 18.795 v -7.246 H 0 V -30.182 H -8.064 V 7.245 h 28.82 V 0 Z"
         style="fill:#78579f;fill-opacity:1;fill-rule:nonzero;stroke:none"
         id="path12" />
    </g>
    <g
       id="g14">
      <g
         id="g16"
         clip-path="url(#clipPath20)">
        <g
           id="g22"
           transform="translate(642.3016,608.4715)">
          <path
             d="m 0,0 v -28.165 h -7.955 v 3.541 c -1.688,-2.561 -4.848,-4.196 -8.497,-4.196 -6.103,0 -10.46,4.522 -10.46,10.897 V 0 h 7.682 v -16.234 c 0,-3.487 2.179,-5.884 5.339,-5.884 3.322,0 5.883,2.397 5.883,5.447 l 0.053,-0.163 V 0 Z"
             style="fill:#78579f;fill-opacity:1;fill-rule:nonzero;stroke:none"
             id="path24" />
        </g>
        <g
           id="g26"
           transform="translate(665.8306,582.1038)">
          <path
             d="m 0,0 c -1.635,-1.471 -4.195,-2.452 -6.482,-2.452 -4.957,0 -8.444,3.541 -8.444,8.608 V 19.94 h -3.869 v 6.428 h 3.869 v 7.736 H -7.3 v -7.736 h 6.103 V 19.94 H -7.3 V 7.41 c 0,-1.854 1.2,-3.16 2.67,-3.16 1.09,0 2.178,0.38 2.725,0.926 z"
             style="fill:#78579f;fill-opacity:1;fill-rule:nonzero;stroke:none"
             id="path28" />
        </g>
        <g
           id="g30"
           transform="translate(697.426,608.4715)">
          <path
             d="m 0,0 v -28.165 h -7.955 v 3.541 c -1.688,-2.561 -4.848,-4.196 -8.497,-4.196 -6.103,0 -10.46,4.522 -10.46,10.897 V 0 h 7.682 v -16.234 c 0,-3.487 2.179,-5.884 5.339,-5.884 3.322,0 5.883,2.397 5.883,5.447 l 0.053,-0.163 V 0 Z"
             style="fill:#78579f;fill-opacity:1;fill-rule:nonzero;stroke:none"
             id="path32" />
        </g>
        <g
           id="g34"
           transform="translate(721.8279,609.1255)">
          <path
             d="m 0,0 v -6.701 c -5.885,0 -9.643,-3.378 -9.643,-8.663 V -28.82 h -7.955 v 28.166 h 7.955 v -5.23 C -7.791,-2.233 -4.304,0 0,0"
             style="fill:#78579f;fill-opacity:1;fill-rule:nonzero;stroke:none"
             id="path36" />
        </g>
        <g
           id="g38"
           transform="translate(733.1028,597.5218)">
          <path
             d="M 0,0 H 12.583 C 11.821,2.778 9.752,4.576 6.536,4.576 3.54,4.576 1.035,2.833 0,0 m 13.074,-8.336 5.068,-5.175 c -2.508,-2.616 -7.356,-4.359 -11.497,-4.359 -8.388,0 -14.926,6.156 -14.926,14.819 0,8.499 6.264,14.655 14.49,14.655 8.826,0 14.003,-6.702 14.003,-17.325 H -0.109 c 0.926,-3.05 3.376,-5.121 6.7,-5.121 2.235,0 4.957,1.036 6.483,2.506"
             style="fill:#78579f;fill-opacity:1;fill-rule:nonzero;stroke:none"
             id="path40" />
        </g>
        <g
           id="g42"
           transform="translate(603.6265,536.0527)">
          <path
             d="M 0,0 -5.556,13.673 -11.113,0 Z m 2.778,-6.81 h -16.669 l -2.399,-5.884 h -8.987 l 15.252,37.427 h 8.99 L 14.22,-12.694 H 5.177 Z"
             style="fill:#78579f;fill-opacity:1;fill-rule:nonzero;stroke:none"
             id="path44" />
        </g>
        <g
           id="g46"
           transform="translate(639.6322,552.178)">
          <path
             d="m 0,0 v -6.701 c -5.885,0 -9.643,-3.378 -9.643,-8.663 V -28.82 h -7.955 v 28.166 h 7.955 v -5.23 C -7.791,-2.233 -4.304,0 0,0"
             style="fill:#78579f;fill-opacity:1;fill-rule:nonzero;stroke:none"
             id="path48" />
        </g>
        <g
           id="g50"
           transform="translate(660.9294,525.1562)">
          <path
             d="m 0,0 c -1.635,-1.471 -4.195,-2.452 -6.482,-2.452 -4.957,0 -8.444,3.541 -8.444,8.608 V 19.94 h -3.869 v 6.428 h 3.869 v 7.736 H -7.3 v -7.736 h 6.103 V 19.94 H -7.3 V 7.41 c 0,-1.854 1.2,-3.16 2.67,-3.16 1.09,0 2.178,0.38 2.725,0.926 z"
             style="fill:#78579f;fill-opacity:1;fill-rule:nonzero;stroke:none"
             id="path52" />
        </g>
        <path
           d="m 665.831,551.524 h 7.953 v -28.165 h -7.953 z m -0.327,8.227 c 0,2.233 1.906,4.25 4.357,4.25 2.343,0 4.249,-2.017 4.249,-4.25 0,-2.397 -1.906,-4.358 -4.249,-4.358 -2.451,0 -4.357,1.961 -4.357,4.358"
           style="fill:#78579f;fill-opacity:1;fill-rule:nonzero;stroke:none"
           id="path54" />
        <g
           id="g56"
           transform="translate(690.1262,551.5239)">
          <path
             d="M 0,0 H 6.1 V -6.428 H 0 v -21.737 h -7.629 v 21.737 h -3.866 V 0 h 3.866 v 2.452 c 0,5.067 3.487,8.608 8.446,8.608 2.288,0 4.848,-0.981 6.483,-2.452 L 5.392,3.76 C 4.848,4.304 3.757,4.686 2.669,4.686 1.197,4.686 0,3.378 0,1.526 Z"
             style="fill:#78579f;fill-opacity:1;fill-rule:nonzero;stroke:none"
             id="path58" />
        </g>
        <path
           d="m 701.29,551.524 h 7.955 v -28.165 h -7.955 z m -0.327,8.227 c 0,2.233 1.908,4.25 4.36,4.25 2.341,0 4.248,-2.017 4.248,-4.25 0,-2.397 -1.907,-4.358 -4.248,-4.358 -2.452,0 -4.36,1.961 -4.36,4.358"
           style="fill:#78579f;fill-opacity:1;fill-rule:nonzero;stroke:none"
           id="path60" />
        <g
           id="g62"
           transform="translate(714.5814,537.4684)">
          <path
             d="m 0,0 c 0,8.008 7.082,14.71 15.417,14.71 4.577,0 8.334,-1.853 11.06,-4.794 L 21.193,5.393 c -1.417,1.58 -3.651,2.615 -5.829,2.615 -4.142,0 -7.629,-3.65 -7.629,-7.954 0,-4.412 3.487,-8.117 7.682,-8.117 2.178,0 4.468,1.09 5.938,2.724 l 5.286,-4.467 C 23.863,-12.857 20.047,-14.764 15.364,-14.764 7.027,-14.764 0,-8.008 0,0"
             style="fill:#78579f;fill-opacity:1;fill-rule:nonzero;stroke:none"
             id="path64" />
        </g>
        <path
           d="m 745.957,551.524 h 7.953 v -28.165 h -7.953 z m -0.327,8.227 c 0,2.233 1.906,4.25 4.357,4.25 2.343,0 4.249,-2.017 4.249,-4.25 0,-2.397 -1.906,-4.358 -4.249,-4.358 -2.451,0 -4.357,1.961 -4.357,4.358"
           style="fill:#78579f;fill-opacity:1;fill-rule:nonzero;stroke:none"
           id="path66" />
        <g
           id="g68"
           transform="translate(778.096,532.2384)">
          <path
             d="m 0,0 v 2.615 c -1.797,0.654 -3.869,1.035 -6.047,1.035 -2.887,0 -5.175,-1.689 -5.175,-3.976 0,-2.289 2.014,-3.705 4.74,-3.705 3.051,0 5.938,1.416 6.482,4.031 M 7.682,7.954 V -8.88 H 0 v 2.833 c -2.014,-2.288 -5.23,-3.487 -8.281,-3.487 -5.992,0 -10.623,3.596 -10.623,8.99 0,5.556 5.175,9.37 11.713,9.37 2.287,0 4.795,-0.49 7.191,-1.416 v 0.544 c 0,2.997 -1.852,5.612 -6.482,5.612 -2.617,0 -5.066,-0.872 -7.3,-2.017 l -2.67,5.285 c 3.978,2.016 7.844,3.106 11.766,3.106 7.355,0 12.368,-4.631 12.368,-11.986"
             style="fill:#78579f;fill-opacity:1;fill-rule:nonzero;stroke:none"
             id="path70" />
        </g>
        <path
           d="m 792.473,561.44 h 7.955 v -38.081 h -7.955 z"
           style="fill:#78579f;fill-opacity:1;fill-rule:nonzero;stroke:none"
           id="path72" />
        <path
           d="m 581.454,503.838 h 8.064 v -37.427 h -8.064 z"
           style="fill:#78579f;fill-opacity:1;fill-rule:nonzero;stroke:none"
           id="path74" />
        <g
           id="g76"
           transform="translate(623.5093,484.3352)">
          <path
             d="m 0,0 v -17.924 h -7.682 v 16.235 c 0,3.487 -2.181,5.883 -5.339,5.883 -3.324,0 -5.885,-2.396 -5.885,-5.448 l -0.053,0.163 v -16.833 h -7.955 v 28.165 h 7.955 V 6.7 c 1.688,2.561 4.848,4.195 8.499,4.195 C -4.36,10.895 0,6.374 0,0"
             style="fill:#78579f;fill-opacity:1;fill-rule:nonzero;stroke:none"
             id="path78" />
        </g>
        <g
           id="g80"
           transform="translate(646.9296,468.2087)">
          <path
             d="m 0,0 c -1.635,-1.471 -4.195,-2.452 -6.483,-2.452 -4.959,0 -8.445,3.541 -8.445,8.608 V 19.94 h -3.867 v 6.428 h 3.867 v 7.736 H -7.3 v -7.736 h 6.101 V 19.94 H -7.3 V 7.41 c 0,-1.854 1.197,-3.16 2.67,-3.16 1.088,0 2.178,0.38 2.722,0.926 z"
             style="fill:#78579f;fill-opacity:1;fill-rule:nonzero;stroke:none"
             id="path82" />
        </g>
        <g
           id="g84"
           transform="translate(658.584,483.6267)">
          <path
             d="M 0,0 H 12.585 C 11.821,2.778 9.752,4.576 6.538,4.576 3.542,4.576 1.035,2.833 0,0 m 13.076,-8.336 5.066,-5.176 c -2.505,-2.615 -7.356,-4.358 -11.495,-4.358 -8.39,0 -14.928,6.156 -14.928,14.819 0,8.499 6.264,14.655 14.493,14.655 8.825,0 14,-6.702 14,-17.325 H -0.109 c 0.926,-3.05 3.378,-5.121 6.7,-5.121 2.235,0 4.96,1.036 6.485,2.506"
             style="fill:#78579f;fill-opacity:1;fill-rule:nonzero;stroke:none"
             id="path86" />
        </g>
        <path
           d="m 684.185,504.492 h 7.953 v -38.081 h -7.953 z"
           style="fill:#78579f;fill-opacity:1;fill-rule:nonzero;stroke:none"
           id="path88" />
        <path
           d="m 699.056,504.492 h 7.953 v -38.081 h -7.953 z"
           style="fill:#78579f;fill-opacity:1;fill-rule:nonzero;stroke:none"
           id="path90" />
        <path
           d="m 713.87,494.576 h 7.955 v -28.165 h -7.955 z m -0.326,8.227 c 0,2.233 1.908,4.25 4.36,4.25 2.34,0 4.248,-2.017 4.248,-4.25 0,-2.397 -1.908,-4.358 -4.248,-4.358 -2.452,0 -4.36,1.961 -4.36,4.358"
           style="fill:#78579f;fill-opacity:1;fill-rule:nonzero;stroke:none"
           id="path92" />
        <g
           id="g94"
           transform="translate(749.1169,481.8834)">
          <path
             d="m 0,0 c 0,3.922 -2.834,6.646 -6.809,6.646 -3.977,0 -6.811,-2.724 -6.811,-6.646 0,-3.923 2.834,-6.701 6.811,-6.701 C -2.834,-6.701 0,-3.923 0,0 m 8.008,12.693 v -25.17 c 0,-7.245 -6.265,-12.366 -15.146,-12.366 -4.957,0 -9.643,1.58 -12.421,3.76 l 2.778,5.611 c 1.853,-1.635 5.122,-2.67 8.391,-2.67 5.121,0 8.39,2.343 8.39,5.993 v 3.105 c -2.234,-2.724 -5.612,-4.359 -9.316,-4.359 -7.082,0 -12.477,5.558 -12.477,13.403 0,7.845 5.395,13.347 12.477,13.347 3.813,0 7.408,-1.798 9.316,-4.467 v 3.813 z"
             style="fill:#78579f;fill-opacity:1;fill-rule:nonzero;stroke:none"
             id="path96" />
        </g>
        <g
           id="g98"
           transform="translate(770.7938,483.6267)">
          <path
             d="M 0,0 H 12.585 C 11.821,2.778 9.752,4.576 6.538,4.576 3.542,4.576 1.035,2.833 0,0 m 13.076,-8.336 5.066,-5.176 c -2.505,-2.615 -7.356,-4.358 -11.495,-4.358 -8.39,0 -14.928,6.156 -14.928,14.819 0,8.499 6.264,14.655 14.493,14.655 8.825,0 14,-6.702 14,-17.325 H -0.109 c 0.926,-3.05 3.378,-5.121 6.7,-5.121 2.235,0 4.96,1.036 6.485,2.506"
             style="fill:#78579f;fill-opacity:1;fill-rule:nonzero;stroke:none"
             id="path100" />
        </g>
        <g
           id="g102"
           transform="translate(823.1448,484.3352)">
          <path
             d="m 0,0 v -17.924 h -7.682 v 16.235 c 0,3.487 -2.181,5.883 -5.339,5.883 -3.324,0 -5.885,-2.396 -5.885,-5.448 l -0.053,0.163 v -16.833 h -7.955 v 28.165 h 7.955 V 6.7 c 1.688,2.561 4.848,4.195 8.499,4.195 C -4.36,10.895 0,6.374 0,0"
             style="fill:#78579f;fill-opacity:1;fill-rule:nonzero;stroke:none"
             id="path104" />
        </g>
        <g
           id="g106"
           transform="translate(828.2588,480.5209)">
          <path
             d="m 0,0 c 0,8.008 7.082,14.71 15.419,14.71 4.575,0 8.335,-1.853 11.06,-4.794 L 21.193,5.393 c -1.417,1.58 -3.651,2.615 -5.829,2.615 -4.14,0 -7.627,-3.65 -7.627,-7.954 0,-4.412 3.487,-8.117 7.682,-8.117 2.179,0 4.466,1.09 5.939,2.724 l 5.283,-4.467 C 23.863,-12.857 20.05,-14.764 15.364,-14.764 7.029,-14.764 0,-8.008 0,0"
             style="fill:#78579f;fill-opacity:1;fill-rule:nonzero;stroke:none"
             id="path108" />
        </g>
        <g
           id="g110"
           transform="translate(866.3898,483.6267)">
          <path
             d="M 0,0 H 12.585 C 11.821,2.778 9.752,4.576 6.538,4.576 3.542,4.576 1.035,2.833 0,0 m 13.076,-8.336 5.066,-5.176 c -2.505,-2.615 -7.356,-4.358 -11.495,-4.358 -8.39,0 -14.928,6.156 -14.928,14.819 0,8.499 6.264,14.655 14.493,14.655 8.825,0 14,-6.702 14,-17.325 H -0.109 c 0.926,-3.05 3.378,-5.121 6.7,-5.121 2.235,0 4.96,1.036 6.485,2.506"
             style="fill:#78579f;fill-opacity:1;fill-rule:nonzero;stroke:none"
             id="path112" />
        </g>
        <g
           id="g114"
           transform="translate(589.3533,428.9666)">
          <path
             d="m 0,0 h 7.955 c 3.975,0 6.7,2.071 6.7,5.284 0,3.215 -2.725,5.286 -6.7,5.286 H 0 Z M 14.491,-19.503 5.938,-7.354 H 0 V -19.503 H -8.008 V 17.924 H 8.826 c 8.117,0 14.111,-5.23 14.111,-12.64 0,-5.556 -3.378,-9.914 -8.499,-11.712 l 9.207,-13.075 z"
             style="fill:#78579f;fill-opacity:1;fill-rule:nonzero;stroke:none"
             id="path116" />
        </g>
        <g
           id="g118"
           transform="translate(624.7594,426.6792)">
          <path
             d="M 0,0 H 12.585 C 11.821,2.778 9.752,4.576 6.538,4.576 3.542,4.576 1.035,2.833 0,0 m 13.076,-8.336 5.066,-5.176 c -2.505,-2.614 -7.356,-4.358 -11.495,-4.358 -8.39,0 -14.928,6.156 -14.928,14.819 0,8.499 6.264,14.655 14.493,14.655 8.825,0 14,-6.702 14,-17.325 H -0.109 c 0.926,-3.05 3.378,-5.121 6.7,-5.121 2.235,0 4.96,1.036 6.485,2.506"
             style="fill:#78579f;fill-opacity:1;fill-rule:nonzero;stroke:none"
             id="path120" />
        </g>
        <g
           id="g122"
           transform="translate(648.2352,413.0589)">
          <path
             d="m 0,0 3.433,5.502 c 2.505,-1.798 5.666,-3.159 9.423,-3.159 2.126,0 3.651,0.872 3.651,2.124 0,1.744 -2.069,2.289 -4.956,3.052 -5.777,1.415 -10.243,2.995 -10.298,8.553 -0.054,5.339 4.359,9.152 11.006,9.152 4.031,0 8.008,-1.417 11.113,-3.487 l -3.214,-5.665 c -2.56,1.579 -5.503,2.505 -7.899,2.505 -1.963,0 -3.325,-0.707 -3.325,-1.689 0,-1.524 1.144,-1.961 4.96,-2.996 4.848,-1.252 10.24,-2.887 10.24,-9.043 0,-5.557 -4.522,-9.099 -11.44,-9.099 C 8.173,-4.25 3.378,-2.724 0,0"
             style="fill:#78579f;fill-opacity:1;fill-rule:nonzero;stroke:none"
             id="path124" />
        </g>
        <g
           id="g126"
           transform="translate(684.4053,426.6792)">
          <path
             d="M 0,0 H 12.585 C 11.821,2.778 9.752,4.576 6.538,4.576 3.542,4.576 1.035,2.833 0,0 m 13.076,-8.336 5.066,-5.176 c -2.505,-2.614 -7.356,-4.358 -11.495,-4.358 -8.39,0 -14.928,6.156 -14.928,14.819 0,8.499 6.264,14.655 14.493,14.655 8.825,0 14,-6.702 14,-17.325 H -0.109 c 0.926,-3.05 3.378,-5.121 6.7,-5.121 2.235,0 4.96,1.036 6.485,2.506"
             style="fill:#78579f;fill-opacity:1;fill-rule:nonzero;stroke:none"
             id="path128" />
        </g>
        <g
           id="g130"
           transform="translate(727.2756,418.3433)">
          <path
             d="m 0,0 v 2.615 c -1.797,0.654 -3.869,1.035 -6.047,1.035 -2.887,0 -5.175,-1.689 -5.175,-3.976 0,-2.289 2.014,-3.705 4.739,-3.705 3.052,0 5.939,1.416 6.483,4.031 M 7.682,7.954 V -8.88 H 0 v 2.833 c -2.014,-2.288 -5.23,-3.487 -8.281,-3.487 -5.992,0 -10.623,3.596 -10.623,8.99 0,5.556 5.175,9.37 11.713,9.37 2.287,0 4.795,-0.49 7.191,-1.416 v 0.544 c 0,2.997 -1.852,5.612 -6.483,5.612 -2.616,0 -5.065,-0.872 -7.299,-2.017 l -2.67,5.285 c 3.978,2.016 7.844,3.106 11.766,3.106 7.355,0 12.368,-4.631 12.368,-11.986"
             style="fill:#78579f;fill-opacity:1;fill-rule:nonzero;stroke:none"
             id="path132" />
        </g>
        <g
           id="g134"
           transform="translate(759.2505,438.2829)">
          <path
             d="m 0,0 v -6.701 c -5.885,0 -9.643,-3.378 -9.643,-8.663 V -28.82 h -7.955 v 28.166 h 7.955 v -5.23 C -7.791,-2.233 -4.304,0 0,0"
             style="fill:#78579f;fill-opacity:1;fill-rule:nonzero;stroke:none"
             id="path136" />
        </g>
        <g
           id="g138"
           transform="translate(762.244,423.5733)">
          <path
             d="m 0,0 c 0,8.008 7.082,14.71 15.417,14.71 4.577,0 8.335,-1.853 11.06,-4.794 L 21.193,5.393 c -1.417,1.58 -3.651,2.615 -5.829,2.615 -4.142,0 -7.629,-3.65 -7.629,-7.954 0,-4.412 3.487,-8.117 7.682,-8.117 2.178,0 4.468,1.09 5.938,2.724 l 5.286,-4.467 C 23.863,-12.857 20.047,-14.764 15.364,-14.764 7.027,-14.764 0,-8.008 0,0"
             style="fill:#78579f;fill-opacity:1;fill-rule:nonzero;stroke:none"
             id="path140" />
        </g>
        <g
           id="g142"
           transform="translate(820.4222,427.3877)">
          <path
             d="m 0,0 v -17.924 h -7.682 v 16.235 c 0,3.487 -2.178,5.883 -5.339,5.883 -3.322,0 -5.883,-2.396 -5.883,-5.448 v -16.67 h -7.955 v 38.081 h 7.955 V 6.809 c 1.744,2.452 4.848,4.086 8.444,4.086 C -4.357,10.895 0,6.374 0,0"
             style="fill:#78579f;fill-opacity:1;fill-rule:nonzero;stroke:none"
             id="path144" />
        </g>
        <g
           id="g146"
           transform="translate(213.6647,539.7985)">
          <path
             d="M 0,0 H -16.019 V -40.997 H 0 c 11.305,0 20.498,9.194 20.498,20.499 C 20.498,-9.193 11.305,0 0,0"
             style="fill:#64a9dd;fill-opacity:1;fill-rule:nonzero;stroke:none"
             id="path148" />
        </g>
        <g
           id="g150"
           transform="translate(199.9967,604.4168)">
          <path
             d="m 0,0 v -173.491 c 0,-11.062 -9.194,-20.057 -20.498,-20.057 -11.295,0 -20.499,8.995 -20.499,20.057 V 0 c 0,11.061 9.204,20.057 20.499,20.057 C -9.194,20.057 0,11.061 0,0"
             style="fill:#64a9dd;fill-opacity:1;fill-rule:nonzero;stroke:none"
             id="path152" />
        </g>
        <g
           id="g154"
           transform="translate(305.2967,624.6741)">
          <path
             d="m 0,0 c 0.015,0 -3.463,-4.571 -10.298,-16.033 l -12.825,-21.051 h -94.604 v 18.569 c -0.076,10.934 -3.993,15.378 -8.433,18.568 z"
             style="fill:#64a9dd;fill-opacity:1;fill-rule:nonzero;stroke:none"
             id="path156" />
        </g>
        <g
           id="g158"
           transform="translate(351.3587,595.0208)">
          <path
             d="m 0,0 -7.196,-11.961 -3.842,-6.382 -20.215,-33.595 -3.015,-5.017 -3.015,-5.017 -24.152,-40.138 -3.015,-5.017 -3.025,-5.018 -37.405,-62.173 c -1.316,-2.158 -2.993,-3.998 -4.944,-5.471 -2.115,-1.595 -4.554,-2.753 -7.203,-3.393 -0.935,-0.221 -1.882,-0.373 -2.83,-0.456 -4.175,-0.382 -8.346,0.6 -11.982,2.86 -0.439,0.276 -0.868,0.561 -1.278,0.877 -3.776,2.761 -6.428,6.756 -7.519,11.383 -1.222,5.128 -0.38,10.436 2.374,14.953 l 13.518,22.467 25.165,41.823 4.143,6.884 13.029,21.644 4.124,6.864 20.394,33.886 3.015,5.017 3.025,5.017 18.477,30.716 c 2.754,4.516 6.906,7.664 11.687,8.852 C -11.682,31.899 0.205,25.486 2.374,14.953 3.596,9.815 2.754,4.516 0,0"
             style="fill:#eb6666;fill-opacity:1;fill-rule:nonzero;stroke:none"
             id="path160" />
        </g>
        <g
           id="g162"
           transform="translate(290.7589,497.6305)">
          <path
             d="m 0,0 h 32.808 c 11.304,0 20.498,8.996 20.498,20.057 0,11.061 -9.194,20.057 -20.498,20.057 l -8.746,-0.095 z"
             style="fill:#eb6666;fill-opacity:1;fill-rule:nonzero;stroke:none"
             id="path164" />
        </g>
        <g
           id="g166"
           transform="translate(521.0273,441.8236)">
          <path
             d="m 0,0 c 12.086,-24.631 -23.432,-43.595 -36.401,-19.519 l -38.806,69.804 c -8.774,15.716 4.059,29.546 20.997,30.712 17.996,1.239 26.62,16.493 26.62,32.481 0,16.543 -12.429,32.837 -28.2,32.719 l -0.378,0.05 -51.456,-0.366 c 4.071,5.053 6.514,11.529 6.514,18.569 0,7.159 -2.52,13.724 -6.708,18.817 4.276,-0.291 52.375,-0.266 56.865,-0.573 C -16.813,180.353 8.52,148.382 8.52,113.478 8.52,89.105 -3.675,66.867 -24.1,54.013 l -4.527,-2.857 z"
             style="fill:#78579f;fill-opacity:1;fill-rule:nonzero;stroke:none"
             id="path168" />
        </g>
        <g
           id="g170"
           transform="translate(406.1484,604.3326)">
          <path
             d="m 0,0 c 0,-9.17 -6.151,-16.927 -14.553,-19.353 -1.771,-0.512 -3.643,-0.788 -5.578,-0.788 -1.852,0 -3.643,0.246 -5.342,0.727 -8.515,2.333 -14.799,10.152 -14.799,19.414 0,9.016 5.957,16.672 14.134,19.22 0.01,0.01 0.01,0.01 0.02,0.01 1.894,0.594 3.9,0.911 5.987,0.911 1.935,0 3.807,-0.276 5.578,-0.798 C -6.151,16.927 0,9.17 0,0"
             style="fill:#f8b258;fill-opacity:1;fill-rule:nonzero;stroke:none"
             id="path172" />
        </g>
        <g
           id="g174"
           transform="translate(406.1778,549.8591)">
          <path
             d="m 0,0 v -116.876 c 0,-11.883 -9.193,-21.547 -20.498,-21.547 -11.295,0 -20.499,9.664 -20.499,21.547 V 0 c 0,11.884 9.204,21.548 20.499,21.548 C -9.193,21.548 0,11.884 0,0"
             style="fill:#f8b258;fill-opacity:1;fill-rule:nonzero;stroke:none"
             id="path176" />
        </g>
      </g>
    </g>
  </g>
</svg>
