<svg version="1.1" id="Layer_1" xmlns="http://www.w3.org/2000/svg" xmlns:xlink="http://www.w3.org/1999/xlink" x="0px" y="0px" viewBox="263.9 30 180 180" style="enable-background:new 263.9 30 180 180;" xml:space="preserve">
 <style type="text/css">
  .st0{fill:#DEB630;}
	.st1{fill:#008652;}
	.st2{fill:#006CA5;}
	.st3{fill:#E98A42;}
 </style>
 <g>
  <path class="st0" d="M424.9,80.8L424.9,80.8L424.9,80.8c-1.2-0.7-2.8-1.1-3.9-0.6c-7.1-0.7-13.9-0.6-21.1-0.5h-0.2l-0.3,0
		c-3.6,0-7.3,0.1-11,0c-30.1-0.6-30.1-0.6-30.1-0.6c-7.1-0.2-14.8-0.1-22.4,0.2c-5.6,0-11.1,0.2-16.6,0.4
		c-5.8,0.1-19.6,0.2-27.9,0.2c-4.4,0-6.7,0-7,0c-1,0.1-2.2,1.4-2.2,2.5c0,0.6,0.3,1.3,1.4,1.4c0.8,0.1,5.8,0.1,14.8,0.1l9.3,0
		c2.5,0,3.6,0,4.2,0h0.1c6.8-0.7,13.7-0.6,20.3-0.6h0.5c4.3,0,8.7,0,13.2-0.1c0.9,0.2,1.9,0,2.8-0.2l0.1,0c0.4-0.1,0.9-0.2,1.3-0.2
		c1,0.3,2.2,0.3,3.4,0.2c1.2,0,2.4,0,3.5,0.2l0,0l0.2,0v0c1-0.3,1.8-0.2,2.8,0c0,0,0.2,0,0.2,0c0.4,0.1,0.9,0.2,1.3,0.2
		c8.6-0.2,18.1,0.1,30,1c0,0,5.6,0.6,5.6,0.6v0v0h0.1c5-0.5,10.2-0.1,15.1,0.2c0,0,0.1,0,0.1,0c3.8,0.3,7.3,0.5,10.8,0.5l0,0
		l0.2-0.1l0,0l1.9-1.5l0,0l0.1-0.1l0,0C425.9,83,425.7,81.6,424.9,80.8">
  </path>
  <path class="st1" d="M375,144.8l0.2-0.1v-0.4l-0.1-11.7v0l0,0c-0.2-1.8-0.2-3.7-0.3-5.8c0-2.3-0.1-4.7-0.4-6.8
		c-0.1-3-0.7-6.3-1.2-9.5l-0.4-2.1l0-0.2l-0.1-0.1c-0.5-0.5-0.6-1.1-0.8-1.7c-0.2-0.6-0.3-1.2-0.7-1.7c-0.8-1.4-2-2.8-3.1-4.1
		l-0.1-0.1c-0.3-0.4-0.6-0.6-0.9-0.7c-0.2-0.1-0.3-0.2-0.5-0.4l-0.3-0.2l-0.1,0l-0.2-0.2c-1-0.8-1.9-1.1-3-1.5l0,0
		c-0.3-0.4-0.9-0.5-1.3-0.5v-0.3l-0.6-0.1l-2.6-0.4l-0.4-0.1l-0.2,0.3c-0.1,0.1-0.1,0.2-0.7-0.1c-0.3-0.1-0.5-0.2-0.8-0.2l-0.3,0
		l-0.2,0.1c-0.1-0.1-0.2-0.1-0.3-0.2l-1.1-0.3l-0.1,0.5c-0.5,0-0.9,0.1-1.2,0.3h-1.7l-1.6,0l0.2,0.6l0,0c-0.7-0.2-1.2,0.2-1.5,0.5
		c-0.1,0-0.1,0.1-0.1,0.1c-0.6,0.1-0.9,0.3-1.1,0.5c-0.2,0.1-0.2,0.2-0.4,0.2l-0.3,0l-0.2,0.2c-0.2,0.3-1,0.6-1.4,0.8L344,100
		l0.2,0.2c-0.1,0.1-0.3,0.1-0.4,0.3H343v0.7c0,0-0.1,0-0.1,0l-0.5-0.2c0,0-0.3,0.4-0.3,0.4c-0.5,0.7-1.2,1.4-1.9,2.2
		c-0.8,0.9-1.7,1.8-2.3,2.8l-0.2,0.3l0.1,0.3c-0.2,0.1-0.6,0.3-0.6,0.8c-0.3,0.4-0.4,0.8-0.5,1.1c0,0.1,0,0.2-0.1,0.3
		c-0.4,0.4-0.4,0.8-0.5,1.2c-0.1,0.2-0.1,0.4-0.2,0.5l-0.4,0.5l0.2,0.1c-0.1,0.3-0.1,0.6-0.1,0.8c0,0.1,0,0.2,0,0.3l-0.3,0.2
		l0.1,0.4c0.1,0.8,0,1.6-0.1,2.4c-0.1,0.8-0.2,1.6-0.1,2.5c-0.3,0.5-0.2,1.1-0.2,1.4c0,0.1,0,0.3,0,0.4l-0.4,0.3l0.3,0.5
		c0.2,0.4,0,1-0.1,1.6c-0.2,0.6-0.4,1.2-0.2,1.8c0,0-0.1,0.1-0.1,0.2c-0.1,0.1-0.1,0.3-0.1,0.5c0,0.5,0,0.6-0.1,0.6l-0.3,0.6l0,0.2
		l0.6,0.4c-0.1,0.4,0,0.7,0,1c0.1,0.4,0.1,0.6,0,0.8l-0.3,0.6l0.3,0.4c0,0,0,0.1,0,0.1c0,0.3,0,0.8,0.3,1.2c0,0.1,0,0.1,0,0.2
		l-0.6,0.2l0.4,0.9c0,0.1,0,0.1,0,0.2c-0.1,0.3-0.2,0.8,0.1,1.2c-0.2,0.5-0.1,1,0,1.3c0,0.1,0.1,0.2,0.1,0.3
		c-0.6,0.6-0.3,1.5-0.1,1.9c-0.3,0.4-0.2,0.9-0.2,1.2l-0.8,0.3l0.8,0.8c0,0.2,0,0.4,0.1,0.6c0.1,0.1,0.2,0.2,0.3,0.3l-0.3,0.1
		c0,0,0,0.1,0,0.1l0,0l0.3,0.8l0,0.1c-0.1,0.4,0,0.9,0.2,1.2c-0.1,0.1-0.1,0.2-0.1,0.4l-0.3,0.3l0.3,0.5c0.2,0.3,0.2,0.8,0,1.5
		c-0.2,0.6-0.4,1.4,0,2.1l-0.5,0.4l0.6,0.4c0,0,0,0.1,0,0.1c-0.1,0.3-0.4,0.8-0.1,1.3l0-0.1c0.1,0.3,0.1,0.7,0,1.1
		c-0.1,0.7-0.2,1.5,0.2,2.3l-0.1,0.8l0-0.1c-0.1,0.3,0,0.6,0.1,0.8l-0.3,0.1l0.2,0.6c0.2,0.6,0.2,1.3,0.2,2c0,1.4,0,3,1.3,4.2
		l0.3,0.3l0.4-0.1c1-0.3,1-1.2,1-1.7c0-0.1,0-0.2,0-0.3l0-0.1l0-0.1c-0.4-1.3-0.2-3-0.1-4.5c0-0.4,0.1-0.8,0.1-1.1l0-0.2l-0.1-0.2
		c-0.3-0.5-0.2-1-0.1-1.6c0.1-0.5,0.1-1.1-0.1-1.8c0.2-2.8,0.1-6,0-8.9c0-1.2-0.1-2.4-0.1-3.4v0v0c-0.2-1.3-0.1-2.8-0.1-4.2
		c0-1.3,0.1-2.6,0-3.8c0.3-1.4,0.3-2.6,0.3-3.9c0-0.6,0-1.2,0-1.9l0-0.2l0-0.1c0.3-0.3,0.4-0.7,0.2-1.1c0.1-0.5,0.2-1,0.2-1.4
		c0-0.4,0-0.7,0.1-1l0-0.2l0-0.2c-0.1-0.3,0-0.6,0.1-1c0.1-0.4,0.2-0.9,0-1.4c0.5-1,0.6-2.3,0.7-3.5l0-0.4c0-0.3-0.1-0.5-0.3-0.7
		c0,0,0,0,0,0c0-0.5,0.3-1,0.6-1.5c0.4-0.6,0.8-1.3,0.9-2.2l0-0.2l0,0c0.1-0.1,0.1-0.1,0.1-0.1c0.2-0.2,0.6-0.5,0.6-1
		c0-0.1,0-0.2,0-0.3c0.5-0.4,0.7-0.9,1-1.3c0.4-0.6,0.6-1.1,1.4-1.3l0.3-0.1l0.1-0.4c0.1-0.4,0.5-0.6,1-1c0.4-0.3,0.9-0.6,1.2-1
		c0.5,0,0.8-0.1,0.9-0.3c0.6-0.1,1-0.5,1.4-0.8c0.6-0.5,0.8-0.6,1.2-0.4l0.4,0.2l0.3-0.3c0,0,0,0,0.1,0c0.2-0.1,0.5-0.1,0.7-0.5
		c0.2,0,0.3-0.1,0.5-0.1c0.3-0.1,0.4-0.1,0.5-0.1c0.1,0.1,0.3,0.2,0.6,0.1l0,0l0.5-0.1l0.6-0.1c1.9-0.2,3.5-0.5,5,0.3l0.5,0.3
		l0.3-0.5c0.1,0.1,0.1,0.1,0.2,0.2c0.4,0.4,1,1.1,2,1c0.2,0.2,0.4,0.3,0.7,0.5c0.1,0,0.2,0.1,0.3,0.2v0l0.1,0.2
		c0.3,0.4,0.9,0.6,1.4,0.6c1.1,1.2,2.2,2.8,2.2,3.4v0.6h0.5c0,0,0,0,0,0c0.2,0.9,0.4,1.9,1.1,2.6c-0.2,0.4,0,1,0,1.2
		c0,0.1,0,0.2,0.1,0.2l-0.2,0.5l0.4,0.4l0.1,0.1c0,0.4,0.2,0.9,0.3,1.1c0,0.1,0.1,0.2,0.1,0.3l-0.1,0.2c-0.6,1.1,0.2,1.7,0.6,2
		c0.1,0.1,0.1,0.1,0.1,0.1c-0.3,0.2-0.3,0.5-0.3,0.9l0,0.5l0.2,0.3c0,0,0,0,0,0c0,0,0,0,0,0.1c0,0.1,0.1,0.2,0.2,0.4l-0.2,0.2
		l-0.2,0.6l0.3,0.5l0.3,0.1c0,0.3,0.1,0.5,0.2,0.7c0,0,0,0.1,0,0.1l-0.1,0.3c-0.2,1.1-0.5,2.5,0.2,3.6c0,0-0.1,0-0.1,0.1
		c-0.3,0.4-0.2,0.9-0.2,1.2c0,0.1,0.1,0.3,0,0.3l-0.2,0.7c0,0,0.2,0.1,0.4,0.1c0,0.1,0,0.1-0.1,0.2l-0.1,0.8h0.3
		c0,0.3-0.1,0.5-0.1,0.7c0,0.4,0,0.7-0.2,0.8l-0.1,0.1l0,0.1c-0.2,0.7,0.1,1.4,0.3,1.9c0,0.1,0.1,0.2,0.1,0.3
		c-0.1,0.1-0.2,0.3-0.2,0.6c0,0.1,0,0.1,0,0.1l-0.1,0.1l0.1,0.4c0.1,0.2,0.2,0.4,0.4,0.4l-0.1,0c0,0,0,0.5,0,0.5v0.2l-0.4,0.1
		l0.2,0.4c-0.1,0.2-0.2,0.5-0.1,0.8l-0.3,0.5c0,0,0.1,0.3,0.3,0.4c-0.3,0.9,0.4,1.5,0.8,1.9c0.2,0.2,0.3,0.3,0.3,0.4h-0.3l0.2,0.8v0
		c-0.1,0-0.1,0.1-0.2,0.2l-0.5,0.3l0.2,0.7l-0.1,0.2c-0.1,0.4,0,0.6,0.1,0.8c0,0,0,0,0.1,0.1c-0.2,0.2-0.4,0.5-0.5,0.9l-0.1,0.6
		l0.5,0.1c0,0.1-0.1,0.3-0.1,0.4c-0.1,0.2-0.1,0.4-0.2,0.6v0c0,0,0,0.1,0,0.1l0.9,0.5c-0.1,0.2-0.2,0.5-0.3,0.6
		c0,0.1-0.1,0.2-0.1,0.3c0,0,0,0-0.1,0l-0.7,0l0,0.8c0,0.1,0.1,0.3,0.1,0.5c0,0.2,0,0.3,0.1,0.5v0.9c0,0.1,0,0.3,0,0.5l-0.1,0.1
		l0.1,0.5c0,0.2,0,0.5,0,0.7c0,0.1,0,0.3,0,0.4l-0.6,0.3l0.7,0.8l0,0c-0.1,0.2-0.2,0.4-0.2,0.8h-0.5l0.9,1.1
		c0.1,0.1,0.1,0.3,0.2,0.5c0,0,0,0,0,0.1c-0.4,0.3-0.4,0.9-0.4,1.1c0,0.1,0,0.3-0.1,0.4c0,0,0,0,0,0l0.2,0.3
		c-0.2,0.1-0.3,0.3-0.3,0.4c-0.1,0.2-0.1,0.4-0.1,0.6h-0.8l0.7,0.7l-0.7,0.2l0.5,0.4v1.7c0,0.3,0.2,0.6,0.4,0.7c0,0,0,0,0,0
		c0.4,0.2,0.7,0.2,1,0.2v0.7l0.9-0.3c0.6-0.2,1.1-0.2,1.6-0.1l0.7,0.1l0.1-0.7c0.3-2.6,0.3-5.1,0.2-7.6c-0.1-2.4-0.1-4.6,0.2-6.9
		C375.4,145.4,375.2,145,375,144.8">
  </path>
  <path class="st2" d="M325,144.8l0.2-0.1v-0.4l-0.1-11.7v0v0c-0.2-1.8-0.3-3.7-0.3-5.8c0-2.3-0.1-4.7-0.4-6.8
		c-0.1-3-0.7-6.3-1.2-9.5l-0.4-2.1l0-0.2l-0.2-0.1c-0.5-0.5-0.6-1.1-0.8-1.7c-0.1-0.6-0.3-1.2-0.7-1.7c-0.8-1.4-2-2.8-3.1-4.1
		l-0.1-0.1c-0.3-0.4-0.6-0.6-0.9-0.7c-0.2-0.1-0.3-0.2-0.5-0.4l-0.2-0.2l-0.1,0l-0.2-0.2c-1-0.8-1.9-1.1-3-1.5l0,0
		c-0.3-0.4-0.9-0.5-1.3-0.5v-0.3l-0.6-0.1l-2.6-0.4l-0.4-0.1l-0.2,0.3c-0.1,0.1-0.1,0.2-0.7-0.1c-0.3-0.1-0.5-0.2-0.8-0.2l-0.3,0
		l-0.1,0.1c-0.1-0.1-0.2-0.1-0.3-0.2l-1.1-0.3l-0.1,0.5c-0.5,0-0.9,0.1-1.2,0.3h-1.7l-1.6,0l0.2,0.6l0,0c-0.7-0.2-1.2,0.2-1.5,0.5
		c-0.1,0-0.1,0.1-0.2,0.1c-0.6,0.1-0.9,0.3-1.1,0.5c-0.2,0.1-0.2,0.2-0.4,0.2l-0.3,0l-0.2,0.2c-0.2,0.3-1,0.6-1.4,0.8L294,100
		l0.2,0.2c-0.1,0.1-0.3,0.1-0.4,0.3H293v0.7c0,0-0.1,0-0.1,0l-0.5-0.2c0,0-0.3,0.4-0.3,0.4c-0.5,0.7-1.2,1.4-1.9,2.2
		c-0.8,0.9-1.7,1.8-2.3,2.8l-0.2,0.3l0.1,0.3c-0.2,0.1-0.6,0.3-0.6,0.8c-0.3,0.4-0.4,0.8-0.5,1.1c0,0.1,0,0.2-0.1,0.3
		c-0.3,0.4-0.4,0.8-0.5,1.2c0,0.2-0.1,0.4-0.2,0.5l-0.4,0.5l0.2,0.1c-0.1,0.3-0.1,0.6-0.1,0.8c0,0.1,0,0.2,0,0.3l-0.3,0.2l0.1,0.4
		c0.1,0.8,0,1.6-0.1,2.4c-0.1,0.8-0.2,1.6-0.1,2.5c-0.3,0.5-0.3,1.1-0.2,1.4c0,0.1,0,0.3,0,0.4l-0.4,0.3l0.3,0.5
		c0.2,0.4,0,1-0.1,1.6c-0.2,0.6-0.3,1.2-0.1,1.8c-0.1,0-0.1,0.1-0.2,0.2c-0.1,0.1-0.1,0.3-0.1,0.5c0,0.5,0,0.6-0.1,0.6l-0.3,0.6
		l-0.1,0.2l0.6,0.4c-0.1,0.4,0,0.7,0,1c0.1,0.4,0.1,0.6,0,0.8l-0.4,0.6l0.3,0.4c0,0,0,0.1,0,0.1c0,0.3,0,0.8,0.3,1.2
		c0,0.1,0,0.1,0,0.2l-0.6,0.2l0.4,0.9c0,0.1,0,0.1,0,0.2c-0.1,0.3-0.2,0.8,0.1,1.2c-0.2,0.5-0.1,1,0,1.3c0,0.1,0.1,0.2,0.1,0.3
		c-0.6,0.6-0.3,1.5-0.1,1.9c-0.3,0.4-0.2,0.9-0.2,1.2l-0.8,0.3l0.8,0.8c0,0.2,0,0.4,0.1,0.6c0.1,0.1,0.2,0.2,0.3,0.3l-0.3,0.1
		c0,0,0,0.1,0,0.1h0l0.3,0.8l0,0.1c-0.1,0.4,0,0.9,0.3,1.2c-0.1,0.1-0.1,0.2-0.1,0.4l-0.3,0.3l0.3,0.5c0.2,0.3,0.2,0.8,0,1.5
		c-0.2,0.6-0.4,1.4,0,2.1l-0.5,0.4l0.6,0.4c0,0,0,0.1,0,0.1c-0.2,0.3-0.4,0.8-0.1,1.3l0-0.1c0.1,0.3,0.1,0.7,0,1.1
		c-0.1,0.7-0.2,1.5,0.2,2.3l-0.1,0.8l0-0.1c-0.1,0.3,0,0.6,0.1,0.8l-0.3,0.1l0.2,0.6c0.2,0.6,0.2,1.3,0.2,2c0,1.4,0,3,1.3,4.2
		l0.3,0.3l0.4-0.1c1-0.3,1-1.2,1-1.7c0-0.1,0-0.2,0-0.3l0-0.1l0-0.1c-0.4-1.3-0.2-3-0.1-4.5c0-0.4,0.1-0.8,0.1-1.1l0-0.2l-0.1-0.2
		c-0.3-0.5-0.2-1-0.1-1.6c0.1-0.5,0.1-1.1-0.1-1.8c0.2-2.8,0.1-6,0-8.9c0-1.2-0.1-2.4-0.1-3.4v0l0,0c-0.2-1.3-0.1-2.8-0.1-4.2
		c0-1.3,0.1-2.6,0-3.8c0.3-1.4,0.3-2.6,0.3-3.9c0-0.6,0-1.2,0-1.9v-0.2l0-0.1c0.3-0.3,0.4-0.7,0.2-1.1c0.1-0.5,0.2-1,0.2-1.4
		c0-0.4,0-0.7,0.1-1l0-0.2l0-0.2c-0.1-0.3,0-0.6,0.1-1c0.1-0.4,0.2-0.9,0-1.4c0.5-1,0.6-2.3,0.7-3.5l0-0.4c0-0.3,0-0.5-0.3-0.7
		c0,0,0,0,0,0c0-0.5,0.3-1,0.6-1.5c0.4-0.6,0.8-1.3,0.9-2.2l0-0.2l0,0c0-0.1,0.1-0.1,0.1-0.1c0.2-0.2,0.6-0.5,0.6-1
		c0-0.1,0-0.2,0-0.3c0.5-0.4,0.7-0.9,1-1.3c0.4-0.6,0.6-1.1,1.4-1.3l0.3-0.1l0.1-0.4c0.1-0.4,0.5-0.6,1-1c0.4-0.3,0.9-0.6,1.2-1
		c0.5,0,0.8-0.1,0.9-0.3c0.6-0.1,1-0.5,1.4-0.8c0.6-0.5,0.8-0.6,1.2-0.4l0.4,0.2l0.3-0.3c0,0,0,0,0,0c0.2-0.1,0.5-0.1,0.7-0.5
		c0.2,0,0.3-0.1,0.5-0.1c0.3-0.1,0.4-0.1,0.5-0.1c0.1,0.1,0.3,0.2,0.6,0.1l0,0l0.5-0.1l0.6-0.1c1.9-0.2,3.5-0.5,5,0.3l0.5,0.3
		l0.3-0.5c0.1,0.1,0.1,0.1,0.2,0.2c0.4,0.4,1,1.1,2,1c0.2,0.2,0.4,0.3,0.6,0.5c0.1,0,0.2,0.1,0.3,0.2v0l0.1,0.2
		c0.3,0.4,0.9,0.6,1.4,0.6c1.1,1.2,2.2,2.8,2.2,3.4v0.6h0.5c0,0,0,0,0,0c0.2,0.9,0.4,1.9,1.1,2.6c-0.2,0.4,0,1,0,1.2
		c0,0.1,0,0.2,0.1,0.2l-0.2,0.5l0.4,0.4l0.1,0.1c0,0.4,0.2,0.9,0.3,1.1c0,0.1,0.1,0.2,0.1,0.3l-0.1,0.2c-0.6,1.1,0.2,1.7,0.6,2
		c0.1,0.1,0.1,0.1,0.1,0.1c-0.3,0.2-0.3,0.5-0.3,0.9l0.1,0.5l0.2,0.3c0,0,0,0,0,0c0,0,0,0,0,0.1c0,0.1,0.1,0.2,0.2,0.4l-0.2,0.2
		l-0.2,0.6l0.3,0.5l0.3,0.1c0,0.3,0.1,0.5,0.2,0.7c0,0,0,0.1,0,0.1l-0.1,0.3c-0.2,1.1-0.5,2.5,0.2,3.6c0,0,0,0-0.1,0.1
		c-0.3,0.4-0.2,0.9-0.2,1.2c0,0.1,0,0.3,0,0.3l-0.2,0.7c0,0,0.2,0.1,0.4,0.1c0,0.1,0,0.1-0.1,0.2l-0.2,0.8h0.3c0,0.3,0,0.5-0.1,0.7
		c0,0.4,0,0.7-0.2,0.8l-0.1,0.1l0,0.1c-0.2,0.7,0.1,1.4,0.3,1.9c0,0.1,0.1,0.2,0.1,0.3c-0.1,0.1-0.2,0.3-0.2,0.6c0,0.1,0,0.1,0,0.1
		l-0.2,0.1l0.1,0.4c0.1,0.2,0.2,0.4,0.4,0.4l-0.1,0c0,0,0,0.5,0,0.5v0.2l-0.4,0.1l0.2,0.4c-0.1,0.2-0.2,0.5-0.1,0.8l-0.3,0.5
		c0,0,0.1,0.3,0.3,0.4c-0.3,0.9,0.4,1.5,0.8,1.9c0.2,0.2,0.3,0.3,0.3,0.4h-0.3l0.2,0.8l0,0c-0.1,0-0.1,0.1-0.2,0.2l-0.5,0.3l0.2,0.7
		l-0.1,0.2c-0.1,0.4,0,0.6,0.1,0.8c0,0,0.1,0,0.1,0.1c-0.2,0.2-0.4,0.5-0.5,0.9l-0.1,0.6l0.5,0.1c-0.1,0.1-0.1,0.3-0.1,0.4
		c-0.1,0.2-0.1,0.4-0.2,0.6l0,0c0,0,0,0.1,0,0.1l0.9,0.5c-0.1,0.2-0.2,0.5-0.2,0.6c0,0.1-0.1,0.2-0.1,0.3c0,0,0,0-0.1,0l-0.7,0
		l0,0.8c0,0.1,0.1,0.3,0.1,0.5c0,0.2,0,0.3,0.1,0.5v0.9c0,0.1,0,0.3,0,0.5l-0.1,0.1l0.1,0.5c0,0.2,0,0.5,0,0.7c0,0.1,0,0.3,0,0.4
		l-0.6,0.3l0.7,0.8c0,0,0,0,0,0c-0.1,0.2-0.2,0.5-0.2,0.8h-0.5l0.9,1.1c0.1,0.1,0.1,0.3,0.2,0.5c0,0,0,0,0,0.1
		c-0.4,0.3-0.4,0.9-0.4,1.1c0,0.1,0,0.3-0.1,0.4c0,0,0,0,0,0l0.2,0.3c-0.2,0.1-0.3,0.3-0.3,0.4c-0.1,0.2-0.1,0.4-0.1,0.6h-0.9
		l0.7,0.7l-0.7,0.2l0.5,0.4v1.7c0,0.3,0.2,0.6,0.4,0.7c0,0,0,0,0,0c0.4,0.2,0.7,0.2,1.1,0.2v0.7l0.8-0.3c0.6-0.2,1.1-0.2,1.6-0.1
		l0.7,0.1l0.1-0.7c0.3-2.6,0.3-5.1,0.2-7.6c-0.1-2.4-0.1-4.6,0.2-6.9C325.4,145.4,325.2,145,325,144.8">
  </path>
  <path class="st3" d="M424.2,145.7l0.2-0.1l0-0.4l-0.1-11.7v0v0c-0.2-1.8-0.3-3.7-0.3-5.8c-0.1-2.3-0.1-4.7-0.4-6.8
		c-0.1-3-0.7-6.3-1.2-9.5l-0.4-2.2l0-0.2l-0.1-0.2c-0.5-0.5-0.6-1.1-0.8-1.7c-0.2-0.6-0.3-1.2-0.7-1.7c-0.8-1.4-2-2.8-3.1-4.1
		l-0.1-0.1c-0.3-0.4-0.6-0.6-0.9-0.7c-0.2-0.1-0.3-0.2-0.5-0.4l-0.3-0.2l-0.2,0l-0.2-0.2c-1-0.8-1.9-1.1-3-1.5l0,0
		c-0.3-0.4-0.9-0.5-1.3-0.5v-0.3l-0.6-0.1l-2.6-0.4l-0.4-0.1l-0.2,0.3c-0.1,0.1-0.1,0.1-0.7,0c-0.2-0.1-0.5-0.2-0.8-0.2l-0.3,0
		l-0.2,0.1c-0.1-0.1-0.2-0.1-0.3-0.2l-1.1-0.3l-0.1,0.5c-0.5,0-0.9,0.1-1.2,0.3h-1.7l-1.6,0l0.2,0.6c0,0,0,0,0,0
		c-0.7-0.2-1.2,0.2-1.5,0.5c-0.1,0-0.1,0.1-0.1,0.1c-0.6,0.1-0.9,0.3-1.1,0.5c-0.2,0.1-0.2,0.2-0.4,0.2l-0.3,0l-0.2,0.2
		c-0.2,0.3-1,0.6-1.4,0.8l-0.9,0.4l0.2,0.2c-0.1,0.1-0.3,0.2-0.4,0.3h-0.8v0.7c0,0-0.1,0-0.1,0l-0.5-0.2c0,0-0.3,0.4-0.3,0.4
		c-0.5,0.7-1.2,1.4-1.9,2.2c-0.8,0.9-1.7,1.8-2.3,2.8l-0.2,0.3l0.1,0.3c-0.2,0.1-0.6,0.3-0.6,0.8c-0.3,0.3-0.4,0.8-0.4,1.1
		c0,0.1,0,0.2-0.1,0.3c-0.3,0.4-0.4,0.9-0.5,1.2c0,0.2-0.1,0.4-0.2,0.5l-0.4,0.5l0.2,0.1c-0.1,0.3-0.1,0.7-0.1,0.8
		c0,0.1,0,0.2,0,0.3l-0.3,0.2l0.1,0.4c0.1,0.8,0,1.6-0.1,2.4c-0.1,0.8-0.2,1.6-0.1,2.5c-0.3,0.5-0.2,1.1-0.2,1.4c0,0.1,0,0.3,0,0.4
		l-0.4,0.3l0.3,0.5c0.2,0.4,0,1-0.1,1.6c-0.2,0.6-0.4,1.2-0.2,1.8c0,0-0.1,0.1-0.1,0.2c-0.1,0.1-0.1,0.3-0.1,0.5
		c0,0.4-0.1,0.6-0.1,0.6l-0.3,0.6l-0.1,0.3l0.6,0.4c-0.1,0.4,0,0.7,0,1c0.1,0.4,0.1,0.6,0,0.8l-0.4,0.6l0.3,0.4c0,0,0,0.1,0,0.1
		c0,0.3,0,0.8,0.3,1.2c0,0.1,0,0.1,0,0.2l-0.6,0.2l0.4,0.9c0,0.1,0,0.1,0,0.2c-0.1,0.3-0.2,0.8,0.1,1.2c-0.2,0.5-0.1,1,0,1.4
		c0,0.1,0.1,0.2,0.1,0.3c-0.6,0.6-0.3,1.5-0.1,1.9c-0.3,0.4-0.2,1-0.2,1.3l-0.8,0.3l0.8,0.9c0,0.2,0,0.4,0.1,0.6
		c0.1,0.1,0.2,0.2,0.3,0.3l-0.3,0.1c0,0,0,0.1,0,0.1h0l0.3,0.8l0,0.1c-0.1,0.4,0,0.9,0.3,1.2c-0.1,0.1-0.1,0.2-0.1,0.4l-0.3,0.3
		l0.3,0.5c0.2,0.4,0.2,0.8,0,1.5c-0.2,0.6-0.4,1.4,0,2.1l-0.5,0.4l0.6,0.4c0,0,0,0.1,0,0.1c-0.2,0.3-0.4,0.8-0.1,1.3l0-0.1
		c0.1,0.3,0.1,0.7,0,1.1c-0.1,0.7-0.2,1.5,0.2,2.3l-0.1,0.8l0-0.1c-0.1,0.3,0,0.6,0.1,0.8l-0.3,0.1l0.2,0.5c0.2,0.6,0.2,1.3,0.2,2
		c0,1.4,0,3,1.3,4.2l0.3,0.3l0.4-0.1c1-0.3,1-1.2,1-1.7c0-0.1,0-0.2,0-0.3l0-0.1l0-0.1c-0.4-1.3-0.2-3-0.1-4.5
		c0-0.4,0.1-0.8,0.1-1.1l0-0.2l-0.1-0.2c-0.3-0.5-0.2-1-0.1-1.6c0.1-0.5,0.1-1.1-0.1-1.8c0.2-2.7,0.1-6,0-8.9c0-1.2-0.1-2.4-0.1-3.4
		l0,0v0c-0.2-1.3-0.1-2.8-0.1-4.2c0-1.3,0.1-2.6,0-3.8c0.3-1.4,0.3-2.6,0.3-3.9c0-0.6,0-1.2,0-1.9v-0.2l0-0.1
		c0.3-0.3,0.4-0.7,0.2-1.1c0.1-0.5,0.2-1,0.2-1.4c0-0.3,0-0.7,0.1-1l0-0.2l0-0.2c-0.1-0.3,0-0.6,0.1-1c0.1-0.4,0.2-0.9,0-1.5
		c0.5-1,0.6-2.3,0.7-3.5l0-0.4c0-0.3,0-0.5-0.3-0.7v0c0-0.5,0.3-1,0.6-1.5c0.4-0.6,0.8-1.3,0.9-2.2l0-0.1l0,0c0,0,0.1-0.1,0.1-0.1
		c0.2-0.2,0.6-0.5,0.6-1c0-0.1,0-0.2,0-0.3c0.5-0.4,0.7-0.9,1-1.3c0.4-0.6,0.6-1.1,1.4-1.3l0.4-0.1l0.1-0.3c0.1-0.4,0.5-0.6,1-1
		c0.4-0.3,0.9-0.6,1.2-1c0.5,0,0.8-0.1,0.9-0.3c0.6-0.1,1-0.5,1.4-0.8c0.6-0.5,0.8-0.6,1.2-0.4l0.4,0.2l0.3-0.3c0,0,0,0,0.1,0
		c0.2,0,0.5-0.2,0.7-0.5c0.2,0,0.3-0.1,0.5-0.1c0.3-0.1,0.4-0.1,0.5-0.1c0.1,0.1,0.3,0.1,0.6,0.1l0,0l0.5-0.1l0.6-0.1
		c1.9-0.2,3.5-0.5,5,0.3l0.5,0.3l0.3-0.5c0.1,0.1,0.1,0.2,0.2,0.2c0.4,0.4,1,1.1,2,1c0.2,0.2,0.4,0.3,0.7,0.5c0.1,0,0.2,0.1,0.3,0.2
		v0l0.1,0.2c0.3,0.4,0.9,0.6,1.4,0.6c1.1,1.2,2.2,2.7,2.2,3.4v0.6h0.5l0,0c0.2,0.9,0.4,1.9,1.1,2.6c-0.2,0.4,0,1,0,1.2
		c0,0.1,0,0.2,0.1,0.2l-0.2,0.5l0.4,0.4l0.1,0.1c0,0.4,0.2,0.9,0.3,1.2c0,0.1,0.1,0.2,0.1,0.2l-0.1,0.2c-0.6,1.1,0.2,1.7,0.6,2
		c0.1,0,0.1,0.1,0.1,0.1c-0.3,0.2-0.3,0.5-0.3,0.9l0,0.5l0.2,0.3l0,0c0,0,0,0,0,0.1c0,0.1,0.1,0.2,0.2,0.4l-0.2,0.2l-0.2,0.6
		l0.3,0.5l0.2,0.1c0,0.3,0.1,0.5,0.2,0.7c0,0,0,0.1,0,0.1l-0.1,0.3c-0.2,1.1-0.5,2.5,0.2,3.6c0,0,0,0,0,0c-0.3,0.4-0.2,0.9-0.2,1.2
		c0,0.1,0,0.3,0,0.4l-0.2,0.7c0,0,0.2,0.1,0.4,0.1c0,0.1-0.1,0.1-0.1,0.2l-0.1,0.8h0.3c-0.1,0.3-0.1,0.5-0.1,0.7
		c0,0.4,0,0.7-0.2,0.9l-0.1,0.1l0,0.1c-0.2,0.7,0.1,1.4,0.3,1.9c0,0.1,0.1,0.2,0.1,0.3c-0.1,0.1-0.2,0.3-0.2,0.5c0,0.1,0,0.1,0,0.2
		l-0.1,0.1l0.1,0.4c0.1,0.2,0.2,0.3,0.4,0.4l-0.1,0c0,0,0,0.5,0,0.5v0.2l-0.4,0.1l0.2,0.4c-0.1,0.2-0.2,0.5-0.1,0.8l-0.3,0.5
		c0,0,0,0.3,0.3,0.4c-0.3,0.9,0.4,1.5,0.8,1.9c0.2,0.2,0.3,0.3,0.4,0.4h-0.3l0.2,0.8l0,0c-0.1,0.1-0.1,0.1-0.2,0.2l-0.5,0.3l0.2,0.7
		l-0.1,0.2c-0.1,0.4,0,0.6,0.1,0.8c0,0,0.1,0,0.1,0.1c-0.2,0.2-0.4,0.5-0.4,0.9l-0.1,0.6l0.5,0.1c0,0.1-0.1,0.3-0.1,0.4
		c-0.1,0.2-0.1,0.4-0.2,0.6h0c0,0,0,0.1,0,0.1l0.9,0.5c-0.1,0.2-0.2,0.5-0.2,0.6c0,0.1-0.1,0.2-0.1,0.3c0,0,0,0-0.1,0l-0.7,0l0,0.9
		c0,0.1,0.1,0.3,0.1,0.4c0,0.2,0,0.3,0.1,0.5v0.8c0,0.1,0,0.3,0,0.5l-0.1,0.1l0.1,0.5c0,0.2,0,0.5,0,0.7c0,0.1,0,0.3,0,0.4l-0.6,0.3
		l0.7,0.8c0,0,0,0,0,0.1c-0.1,0.2-0.2,0.5-0.2,0.7h-0.5l0.9,1.1c0.1,0.1,0.1,0.3,0.2,0.5c0,0,0,0.1,0,0.1c-0.4,0.3-0.4,0.9-0.4,1.1
		c0,0.1,0,0.3-0.1,0.3v0l0.2,0.3c-0.2,0.1-0.3,0.3-0.3,0.4c-0.1,0.2-0.1,0.4-0.1,0.6h-0.9l0.7,0.7l-0.7,0.2l0.5,0.5v1.8
		c0,0.3,0.2,0.6,0.4,0.7c0,0,0,0,0.1,0c0.3,0.2,0.7,0.2,1,0.1v0.7l0.8-0.2c0.6-0.2,1.1-0.2,1.6-0.1l0.7,0.1l0.1-0.7
		c0.3-2.6,0.3-5.1,0.2-7.6c-0.1-2.4-0.1-4.6,0.2-6.8C424.5,146.3,424.3,145.9,424.2,145.7">
  </path>
  <path class="st3" d="M443.9,30h-180v180h180L443.9,30z M434.4,200.5h-161v-161h161V200.5z">
  </path>
 </g>
</svg>