<svg xmlns="http://www.w3.org/2000/svg" viewBox="0 0 373.96 373"><defs><style>.cls-1{fill:none;stroke-width:5px;}.cls-1,.cls-2,.cls-3,.cls-4,.cls-5,.cls-6,.cls-7{stroke:#000;stroke-miterlimit:10;}.cls-2{fill:#60d2c3;}.cls-2,.cls-3,.cls-4,.cls-5,.cls-6,.cls-7{stroke-width:2px;}.cls-3{fill:#12ac4f;}.cls-4{fill:#604cc3;}.cls-5{fill:#d83c65;}.cls-6{fill:#dd6449;}.cls-7{fill:#eeccb4;}</style></defs><g id="Layer_2" data-name="Layer 2"><g id="Layer_1-2" data-name="Layer 1"><line class="cls-1" x1="186.24" y1="17.65" x2="187.72" y2="355.35"/><polygon points="186.16 0 176.11 24.92 186.25 18.97 196.43 24.83 186.16 0"/><polygon points="187.8 373 177.53 348.17 187.72 354.03 197.85 348.08 187.8 373"/><line class="cls-1" x1="356.31" y1="185.76" x2="17.65" y2="187.24"/><polygon points="373.96 185.68 349.05 175.63 354.99 185.76 349.13 195.95 373.96 185.68"/><polygon points="0 187.32 24.83 177.05 18.97 187.24 24.92 197.37 0 187.32"/><circle class="cls-2" cx="298.17" cy="150.51" r="9.6"/><circle id="_1" data-name="1" class="cls-3" cx="325.63" cy="89.21" r="9.6"/><circle id="_2" data-name="2" class="cls-2" cx="263.86" cy="131.13" r="9.6"/><circle id="_3" data-name="3" class="cls-4" cx="279.03" cy="208.12" r="9.6"/><circle id="_4" data-name="4" class="cls-4" cx="307.27" cy="217.74" r="9.6"/><circle class="cls-5" cx="146.75" cy="171.37" r="9.6"/><circle id="_1-2" data-name="1" class="cls-5" cx="127.89" cy="153.29" r="9.6"/><circle id="_1-3" data-name="1" class="cls-6" cx="55.95" cy="239.49" r="9.6"/><circle id="_2-2" data-name="2" class="cls-5" cx="117" cy="179.84" r="9.6"/><circle id="_2-3" data-name="2" class="cls-5" cx="127.41" cy="204.62" r="9.6"/><circle id="_3-2" data-name="3" class="cls-7" cx="149.89" cy="108.98" r="9.6"/><circle id="_4-2" data-name="4" class="cls-7" cx="119.49" cy="99.17" r="9.6"/></g></g></svg>