<svg xmlns="http://www.w3.org/2000/svg" viewBox="0 0 386.29 285.01"><defs><style>.cls-1,.cls-2,.cls-4,.cls-5,.cls-6,.cls-7,.cls-8{fill:none;}.cls-1,.cls-2{stroke:#000;}.cls-1,.cls-4,.cls-5,.cls-6,.cls-7,.cls-8{stroke-linecap:round;stroke-linejoin:round;stroke-width:3px;}.cls-10,.cls-11,.cls-12,.cls-2,.cls-3,.cls-9{stroke-miterlimit:10;}.cls-2{stroke-width:5px;}.cls-3{fill:#ff0028;}.cls-3,.cls-7{stroke:#ff0028;}.cls-10,.cls-11,.cls-12,.cls-3,.cls-9{stroke-width:2px;}.cls-11,.cls-4{stroke:#ff00d2;}.cls-4,.cls-5,.cls-6,.cls-7,.cls-8{stroke-dasharray:12;opacity:0.5;}.cls-10,.cls-5{stroke:#ff00b2;}.cls-12,.cls-6{stroke:#ff007c;}.cls-8,.cls-9{stroke:#1700aa;}.cls-9{fill:#1700aa;}.cls-10{fill:#ff00b2;}.cls-11{fill:#ff00d2;}.cls-12{fill:#ff007c;}</style></defs><g id="Layer_2" data-name="Layer 2"><g id="distance"><line id="base" class="cls-1" x1="209.29" y1="283.51" x2="209.29" y2="13.01"/><path class="cls-2" d="M383.79,275.74c0-110.15-133.24-100.23-133.5-263.23"/><path class="cls-2" d="M188.77,12.53C188.46,175.67,2.5,164.27,2.5,274.51"/><circle class="cls-3" cx="209.78" cy="264.03" r="15"/><line id="line_3" data-name="line 3" class="cls-4" x1="177.29" y1="88.51" x2="209.29" y2="88.51"/><line id="line_3-2" data-name="line 3" class="cls-5" x1="209.29" y1="160.51" x2="290.29" y2="160.51"/><line id="line_3-3" data-name="line 3" class="cls-5" x1="112.29" y1="160.51" x2="209.29" y2="160.51"/><line id="line_3-4" data-name="line 3" class="cls-6" x1="39.29" y1="213.51" x2="209.29" y2="213.51"/><line id="line_3-5" data-name="line 3" class="cls-7" x1="11.29" y1="264.51" x2="209.29" y2="264.51"/><line id="line_3-6" data-name="line 3" class="cls-7" x1="209.29" y1="264.51" x2="377.29" y2="264.51"/><line id="line_3-7" data-name="line 3" class="cls-6" x1="209.29" y1="213.51" x2="353.29" y2="213.51"/><line id="line_3-8" data-name="line 3" class="cls-4" x1="209.29" y1="88.51" x2="255.29" y2="88.51"/><line id="line_3-9" data-name="line 3" class="cls-8" x1="216.29" y1="15.51" x2="241.29" y2="15.51"/><circle id="_4" data-name="4" class="cls-9" cx="209.78" cy="16" r="15"/><circle id="_2" data-name="2" class="cls-10" cx="209.78" cy="161" r="15"/><circle id="_3" data-name="3" class="cls-11" cx="209.78" cy="89" r="15"/><circle id="_1" data-name="1" class="cls-12" cx="209.78" cy="213.03" r="15"/></g></g></svg>