<svg xmlns="http://www.w3.org/2000/svg" viewBox="0 0 794.01 335.52"><defs><style>.cls-1,.cls-11,.cls-12,.cls-13,.cls-2,.cls-3,.cls-4,.cls-5{fill:none;}.cls-1{stroke:#000;stroke-width:5px;}.cls-1,.cls-10,.cls-14,.cls-15,.cls-16,.cls-6,.cls-7,.cls-8,.cls-9{stroke-miterlimit:10;}.cls-2,.cls-7{stroke:#ff007c;}.cls-11,.cls-12,.cls-13,.cls-2,.cls-3,.cls-4,.cls-5{stroke-linecap:round;stroke-linejoin:round;stroke-width:6px;stroke-dasharray:12;opacity:0.75;}.cls-3,.cls-8{stroke:#ff00b2;}.cls-10,.cls-4{stroke:#1700aa;}.cls-5,.cls-9{stroke:#ff00d2;}.cls-6{fill:#ff0028;stroke:#ff0028;}.cls-10,.cls-14,.cls-15,.cls-16,.cls-6,.cls-7,.cls-8,.cls-9{stroke-width:2px;}.cls-7{fill:#ff007c;}.cls-8{fill:#ff00b2;}.cls-9{fill:#ff00d2;}.cls-10{fill:#1700aa;}.cls-11,.cls-14{stroke:#ff0062;}.cls-12,.cls-16{stroke:#6300aa;}.cls-13,.cls-15{stroke:#a70070;}.cls-14{fill:#ff0062;}.cls-15{fill:#a70070;}.cls-16{fill:#6300aa;}.cls-17{font-size:60px;font-family:CMUConcrete-Roman, CMU Concrete;}</style></defs><g id="Layer_2" data-name="Layer 2"><g id="scree_plot" data-name="scree plot"><line class="cls-1" x1="758.71" y1="250.41" x2="0.01" y2="248.5"/><polygon points="794.01 250.5 744.31 230.05 756.07 250.41 744.21 270.7 794.01 250.5"/><line id="line_1" data-name="line 1" class="cls-2" x1="71.5" y1="19" x2="139.5" y2="46"/><line id="line_2" data-name="line 2" class="cls-3" x1="71.5" y1="16" x2="56.5" y2="82"/><line id="line_4" data-name="line 4" class="cls-4" x1="71.5" y1="16" x2="229.5" y2="198"/><line id="line_3" data-name="line 3" class="cls-5" x1="71.5" y1="16" x2="113.5" y2="123"/><circle class="cls-6" cx="71.5" cy="16" r="15"/><circle id="_1" data-name="1" class="cls-7" cx="139.5" cy="46" r="15"/><circle id="_2" data-name="2" class="cls-8" cx="56.5" cy="82" r="15"/><circle id="_3" data-name="3" class="cls-9" cx="113.5" cy="123" r="15"/><circle id="_4" data-name="4" class="cls-10" cx="229.5" cy="198" r="15"/><line id="line_1-2" data-name="line 1" class="cls-11" x1="316.5" y1="19" x2="384.5" y2="46"/><line id="line_2-2" data-name="line 2" class="cls-3" x1="316.5" y1="16" x2="301.5" y2="82"/><line id="line_4-2" data-name="line 4" class="cls-12" x1="316.5" y1="16" x2="474.5" y2="198"/><line id="line_3-2" data-name="line 3" class="cls-13" x1="316.5" y1="16" x2="358.5" y2="123"/><circle class="cls-6" cx="316.5" cy="16" r="15"/><circle id="_1-2" data-name="1" class="cls-14" cx="384.5" cy="46" r="15"/><circle id="_2-2" data-name="2" class="cls-14" cx="301.5" cy="82" r="15"/><circle id="_3-2" data-name="3" class="cls-15" cx="358.5" cy="123" r="15"/><circle id="_4-2" data-name="4" class="cls-16" cx="474.5" cy="198" r="15"/><text class="cls-17" transform="translate(370.29 295.09)">σ</text><text class="cls-17" transform="translate(404.42 315.07) scale(0.58)">i</text><line id="line_1-3" data-name="line 1" class="cls-2" x1="558.5" y1="19" x2="626.5" y2="46"/><line id="line_2-3" data-name="line 2" class="cls-2" x1="558.5" y1="16" x2="543.5" y2="82"/><line id="line_4-3" data-name="line 4" class="cls-5" x1="558.5" y1="16" x2="716.5" y2="198"/><line id="line_3-3" data-name="line 3" class="cls-5" x1="558.5" y1="16" x2="600.5" y2="123"/><circle class="cls-6" cx="558.5" cy="16" r="15"/><circle id="_1-3" data-name="1" class="cls-7" cx="626.5" cy="46" r="15"/><circle id="_2-3" data-name="2" class="cls-7" cx="543.5" cy="82" r="15"/><circle id="_3-3" data-name="3" class="cls-8" cx="600.5" cy="123" r="15"/><circle id="_4-3" data-name="4" class="cls-9" cx="716.5" cy="198" r="15"/></g></g></svg>