<svg xmlns="http://www.w3.org/2000/svg" viewBox="0 0 373 372.04"><defs><style>.cls-1,.cls-2,.cls-3{fill:none;}.cls-1{stroke:#ef0012;}.cls-1,.cls-3,.cls-4{stroke-miterlimit:10;}.cls-1,.cls-3{stroke-width:5px;}.cls-2{stroke:gray;stroke-linecap:round;stroke-linejoin:round;stroke-width:6px;stroke-dasharray:12;}.cls-3,.cls-4{stroke:#000;}.cls-4{fill:#fff;stroke-width:2px;}</style></defs><g id="Layer_2" data-name="Layer 2"><g id="LS"><g id="projections"><line class="cls-1" x1="85.5" y1="267.52" x2="97.5" y2="279.52"/><line class="cls-1" x1="139.5" y1="220.52" x2="146.5" y2="227.52"/><line class="cls-1" x1="142.5" y1="257.52" x2="132" y2="247.02"/><line class="cls-1" x1="173.5" y1="225.52" x2="162.5" y2="214.52"/><line class="cls-1" x1="164.5" y1="183.52" x2="178.5" y2="197.52"/><line class="cls-1" x1="228.5" y1="180.52" x2="212" y2="164.02"/><line class="cls-1" x1="214.5" y1="139.52" x2="225.5" y2="150.52"/><line class="cls-1" x1="275.5" y1="148.52" x2="251.5" y2="124.52"/><line class="cls-1" x1="242.5" y1="104.52" x2="257.5" y2="119.52"/></g><line class="cls-2" x1="75.46" y1="300.89" x2="307.11" y2="69.24"/><g id="covariant_data" data-name="covariant data"><line class="cls-3" x1="186.5" y1="17.65" x2="186.5" y2="354.39"/><polygon points="186.5 0 176.34 24.87 186.5 18.97 196.66 24.87 186.5 0"/><polygon points="186.5 372.04 176.34 347.17 186.5 353.07 196.66 347.17 186.5 372.04"/><line class="cls-3" x1="355.35" y1="186.02" x2="17.65" y2="186.02"/><polygon points="373 186.02 348.13 175.86 354.03 186.02 348.13 196.18 373 186.02"/><polygon points="0 186.02 24.87 175.86 18.97 186.02 24.87 196.18 0 186.02"/><circle class="cls-4" cx="242.01" cy="104.32" r="9.57"/><circle id="_1" data-name="1" class="cls-4" cx="287.96" cy="107.51" r="9.57"/><circle id="_2" data-name="2" class="cls-4" cx="214.57" cy="139.42" r="9.57"/><circle id="_3" data-name="3" class="cls-4" cx="228.61" cy="180.26" r="9.57"/><circle id="_4" data-name="4" class="cls-4" cx="275.19" cy="148.99" r="9.57"/><circle class="cls-4" cx="142.86" cy="257.6" r="9.57"/><circle id="_1-2" data-name="1" class="cls-4" cx="85.05" cy="267.72" r="9.57"/><circle id="_2-2" data-name="2" class="cls-4" cx="173.86" cy="225.6" r="9.57"/><circle id="_3-2" data-name="3" class="cls-4" cx="164.21" cy="183.51" r="9.57"/><circle id="_4-2" data-name="4" class="cls-4" cx="139.93" cy="220.49" r="9.57"/></g></g></g></svg>