<svg xmlns="http://www.w3.org/2000/svg" viewBox="0 0 373.96 373"><defs><style>.cls-1{fill:none;stroke-width:5px;}.cls-1,.cls-2{stroke:#000;stroke-miterlimit:10;}.cls-2{fill:#fff;stroke-width:2px;}</style></defs><g id="Layer_2" data-name="Layer 2"><g id="pca"><line class="cls-1" x1="186.24" y1="17.65" x2="187.72" y2="355.35"/><polygon points="186.16 0 176.11 24.92 186.25 18.97 196.43 24.83 186.16 0"/><polygon points="187.8 373 177.53 348.17 187.72 354.03 197.85 348.08 187.8 373"/><line class="cls-1" x1="356.31" y1="185.76" x2="17.65" y2="187.24"/><polygon points="373.96 185.68 349.05 175.63 354.99 185.76 349.13 195.95 373.96 185.68"/><polygon points="0 187.32 24.83 177.05 18.97 187.24 24.92 197.37 0 187.32"/><circle class="cls-2" cx="222.17" cy="135.51" r="9.6"/><circle id="_1" data-name="1" class="cls-2" cx="249.63" cy="171.21" r="9.6"/><circle id="_2" data-name="2" class="cls-2" cx="225.86" cy="98.13" r="9.6"/><circle id="_3" data-name="3" class="cls-2" cx="180.03" cy="202.12" r="9.6"/><circle id="_4" data-name="4" class="cls-2" cx="226.27" cy="211.74" r="9.6"/><circle class="cls-2" cx="143.38" cy="206.67" r="9.6"/><circle id="_1-2" data-name="1" class="cls-2" cx="128.08" cy="145.06" r="9.6"/><circle id="_2-2" data-name="2" class="cls-2" cx="199.04" cy="177.76" r="9.6"/><circle id="_3-2" data-name="3" class="cls-2" cx="172.89" cy="121.98" r="9.6"/><circle id="_4-2" data-name="4" class="cls-2" cx="162.49" cy="163.17" r="9.6"/></g></g></svg>