<svg xmlns="http://www.w3.org/2000/svg" viewBox="0 0 277.3 262.47"><defs><style>.cls-1{fill:#eeccb4;stroke:#eeccb4;stroke-width:8px;}.cls-1,.cls-4,.cls-5{stroke-miterlimit:10;}.cls-2{fill:#604cc3;}.cls-3{fill:#d83c65;}.cls-4{fill:none;stroke-width:5px;}.cls-4,.cls-5{stroke:#000;}.cls-5{fill:#fff;}</style></defs><g id="Layer_2" data-name="Layer 2"><g id="svm_copy" data-name="svm copy"><path class="cls-1" d="M212.63,79.4c44.69,41.8-13,88.6,17.86,146.61L258.8,252.5C181.73,180.16,269.22,124.55,217,75.74S88.16,92.63,10.8,20.5L39.61,47.44C105.27,79.77,167.94,37.59,212.63,79.4Z"/><g id="blue_copy" data-name="blue copy"><circle class="cls-2" cx="71.35" cy="183.02" r="14.5"/><circle class="cls-2" cx="77.35" cy="100.01" r="14.5"/><circle class="cls-2" cx="175.35" cy="193.02" r="14.5"/><circle class="cls-2" cx="126.36" cy="158.02" r="14.5"/><circle class="cls-2" cx="215.36" cy="122.01" r="14.5"/><circle class="cls-2" cx="174.36" cy="74.01" r="14.5"/></g><g id="red_copy" data-name="red copy"><rect class="cls-3" x="68.8" y="32.5" width="27" height="27"/><rect class="cls-3" x="245.8" y="72.5" width="27" height="27"/><rect class="cls-3" x="155.8" y="10.5" width="27" height="27"/><rect class="cls-3" x="225.8" y="151.5" width="27" height="27"/></g><line class="cls-4" x1="10.16" y1="17.65" x2="10.16" y2="252.62"/><polygon points="10.16 0 0 24.87 10.16 18.97 20.32 24.87 10.16 0"/><line class="cls-4" x1="259.65" y1="252.31" x2="10.16" y2="252.31"/><polygon points="277.3 252.31 252.43 242.15 258.33 252.31 252.43 262.47 277.3 252.31"/><circle class="cls-5" cx="9.93" cy="252.12" r="9"/></g></g></svg>