<svg xmlns="http://www.w3.org/2000/svg" viewBox="0 0 287.8 265.97"><defs><style>.cls-1,.cls-4{fill:none;}.cls-1{stroke:#eeccb4;stroke-width:8px;}.cls-1,.cls-4,.cls-5{stroke-miterlimit:10;}.cls-2{fill:#604cc3;}.cls-3{fill:#d83c65;}.cls-4,.cls-5{stroke:#000;}.cls-4{stroke-width:5px;}.cls-5{fill:#fff;}</style></defs><g id="Layer_2" data-name="Layer 2"><g id="rbf_kernel" data-name="rbf kernel"><circle class="cls-1" cx="143.8" cy="130" r="84"/><g id="blue_copy_3" data-name="blue copy 3"><circle class="cls-2" cx="88.35" cy="161.53" r="14.5"/><circle class="cls-2" cx="106.35" cy="83.53" r="14.5"/><circle class="cls-2" cx="168.36" cy="195.53" r="14.5"/><circle class="cls-2" cx="132.36" cy="129.53" r="14.5"/><circle class="cls-2" cx="200.36" cy="151.53" r="14.5"/><circle class="cls-2" cx="174.36" cy="77.51" r="14.5"/></g><g id="red_copy_3" data-name="red copy 3"><rect class="cls-3" x="102.8" y="22" width="27" height="27"/><rect class="cls-3" x="29.8" y="56" width="27" height="27"/><rect class="cls-3" x="188.8" width="27" height="27"/><rect class="cls-3" x="260.8" y="185" width="27" height="27"/><rect class="cls-3" x="239.8" y="102" width="27" height="27"/><rect class="cls-3" x="203.8" y="217" width="27" height="27"/><rect class="cls-3" x="21.8" y="182" width="27" height="27"/></g><line class="cls-4" x1="10.16" y1="21.15" x2="10.16" y2="256.12"/><polygon points="10.16 3.5 0 28.37 10.16 22.47 20.32 28.37 10.16 3.5"/><line class="cls-4" x1="259.65" y1="255.81" x2="10.16" y2="255.81"/><polygon points="277.3 255.81 252.43 245.65 258.33 255.81 252.43 265.97 277.3 255.81"/><circle class="cls-5" cx="9.93" cy="255.62" r="9"/></g></g></svg>