<svg xmlns="http://www.w3.org/2000/svg" viewBox="0 0 341.99 355.38"><defs><style>.cls-1,.cls-4{fill:#6300aa;}.cls-1{opacity:0.5;}.cls-2{fill:#ff0028;}.cls-3,.cls-5,.cls-6,.cls-7{fill:none;stroke-miterlimit:10;stroke-width:5px;}.cls-3,.cls-7{stroke:#6300aa;}.cls-5,.cls-6{stroke:#000;}.cls-6{stroke-dasharray:12.14 12.14;}.cls-7{stroke-dasharray:13.06 13.06;}.cls-8{fill:#1700aa;}</style></defs><g id="Layer_2" data-name="Layer 2"><g id="svm_copy" data-name="svm copy"><rect class="cls-1" x="1.44" y="100.36" width="339.11" height="154.65" transform="translate(188.37 -68.3) rotate(47.94)"/><rect class="cls-2" x="128.51" y="12.32" width="42" height="42"/><line class="cls-3" x1="216.54" y1="139.23" x2="171.01" y2="177.82"/><polygon class="cls-4" points="230.01 127.82 204.46 136.15 215.54 140.09 217.6 151.66 230.01 127.82"/><g id="separator"><line class="cls-5" x1="57.01" y1="51.82" x2="61.03" y2="56.27"/><line class="cls-6" x1="69.18" y1="65.28" x2="276.91" y2="294.87"/><line class="cls-5" x1="280.98" y1="299.37" x2="285.01" y2="303.82"/></g><line class="cls-5" x1="150.77" y1="55.39" x2="175.01" y2="297.82"/><polygon points="149.01 37.82 141.37 63.58 150.9 56.7 161.59 61.56 149.01 37.82"/><line class="cls-3" x1="160.82" y1="50.94" x2="164.83" y2="55.4"/><line class="cls-7" x1="173.57" y1="65.11" x2="221.63" y2="118.51"/><line class="cls-3" x1="226" y1="123.36" x2="230.01" y2="127.82"/><polygon class="cls-4" points="149.01 37.82 158.09 63.11 161.7 51.92 173.2 49.51 149.01 37.82"/><circle class="cls-8" cx="175.31" cy="297.93" r="21.51"/></g></g></svg>