<svg xmlns="http://www.w3.org/2000/svg" viewBox="0 0 120 26"><g id="Layer_2" data-name="Layer 2"><g id="Layer_1-2" data-name="Layer 1"><path d="M4.52,8.63A4.63,4.63,0,0,1,1.31,7.36a4.2,4.2,0,0,1,0-6.1,4.63,4.63,0,0,1,6.35,0A4.24,4.24,0,0,1,9,4.36a4.27,4.27,0,0,0,1.33,3,4.6,4.6,0,0,0,3.13,1.27,4.61,4.61,0,0,1,3.2,1.27,4.2,4.2,0,0,1,0,6.1,4.6,4.6,0,0,1-3.22,1.26,4.59,4.59,0,0,0-3.11,1.27,4.31,4.31,0,0,0-1.33,3,4.21,4.21,0,0,1-1.31,3.09,4.63,4.63,0,0,1-6.35,0,4.2,4.2,0,0,1,0-6.1A4.56,4.56,0,0,1,4.5,17.24,4.62,4.62,0,0,0,7.65,16,4.29,4.29,0,0,0,9,13v0a4.3,4.3,0,0,0-1.33-3A4.62,4.62,0,0,0,4.52,8.63Z"/><path d="M25.61,7.37a4.63,4.63,0,0,1-6.35,0,4.2,4.2,0,0,1,0-6.1,4.61,4.61,0,0,1,6.35,0A4.2,4.2,0,0,1,25.61,7.37Z"/><path d="M25.62,24.61a4.61,4.61,0,0,1-6.35,0,4.2,4.2,0,0,1,0-6.1,4.63,4.63,0,0,1,6.35,0A4.2,4.2,0,0,1,25.62,24.61Z"/><path d="M40.41,11.77,51.2.14h6.09L47.56,10.37,58,25.54H51.86L44.05,14.08,40.41,17.9v7.64H35.19V.14h5.22Z"/><path d="M67.24,10.05a4.13,4.13,0,0,0-3.43,1.58,7.27,7.27,0,0,0-1.2,4.52,7.25,7.25,0,0,0,1.2,4.52,4.16,4.16,0,0,0,3.43,1.55,4,4,0,0,0,3.39-1.55,7.06,7.06,0,0,0,1.24-4.52,7.08,7.08,0,0,0-1.24-4.52A4,4,0,0,0,67.24,10.05Zm0,16a11.22,11.22,0,0,1-3.68-.6,9.27,9.27,0,0,1-3.1-1.85A9.06,9.06,0,0,1,58.3,20.5a11,11,0,0,1-.8-4.35,10.91,10.91,0,0,1,.8-4.34,8.94,8.94,0,0,1,2.16-3.09,8.73,8.73,0,0,1,3.1-1.82,11,11,0,0,1,7.33,0A8.68,8.68,0,0,1,74,8.72a8.94,8.94,0,0,1,2.16,3.09,10.91,10.91,0,0,1,.8,4.34,11,11,0,0,1-.8,4.35A9.06,9.06,0,0,1,74,23.55a9.21,9.21,0,0,1-3.13,1.85A11.22,11.22,0,0,1,67.24,26Z"/><path d="M93,25.54V23.16a5.11,5.11,0,0,1-2.55,2.21,8.29,8.29,0,0,1-3.1.63A7.93,7.93,0,0,1,84,25.3a8,8,0,0,1-2.66-2,9.73,9.73,0,0,1-1.79-3.12,12.79,12.79,0,0,1-.62-4.1,12.53,12.53,0,0,1,.62-4A9.11,9.11,0,0,1,81.28,9a7.75,7.75,0,0,1,2.66-2,8.21,8.21,0,0,1,3.4-.7A7.25,7.25,0,0,1,90.69,7,5.39,5.39,0,0,1,93,9.11v-9h5v25.4Zm-4.41-3.25a4,4,0,0,0,3.32-1.62,7.26,7.26,0,0,0,1.27-4.55,7.15,7.15,0,0,0-1.27-4.49A4,4,0,0,0,88.58,10a3.73,3.73,0,0,0-3.25,1.72,7.89,7.89,0,0,0-1.13,4.45,7.87,7.87,0,0,0,1.13,4.45A3.75,3.75,0,0,0,88.58,22.29Z"/><path d="M110.62,26a11.14,11.14,0,0,1-4.27-.77,9.36,9.36,0,0,1-3.1-2.17,9.66,9.66,0,0,1-1.9-3.16,12,12,0,0,1-.62-3.85,10.51,10.51,0,0,1,.7-3.89,9.07,9.07,0,0,1,5-5.16,10.46,10.46,0,0,1,4-.73,9.82,9.82,0,0,1,4.09.81,8.34,8.34,0,0,1,3.06,2.27,9.31,9.31,0,0,1,1.83,3.54,14.42,14.42,0,0,1,.54,4.56H105.77a5.1,5.1,0,0,0,1.38,3.47,4.6,4.6,0,0,0,3.43,1.33,5.17,5.17,0,0,0,2.23-.46,4.38,4.38,0,0,0,1.78-1.71h5.18a9.39,9.39,0,0,1-1.13,2.1,8.23,8.23,0,0,1-1.82,1.93,9.18,9.18,0,0,1-2.63,1.36A11,11,0,0,1,110.62,26Zm-.26-16.19a4.35,4.35,0,0,0-1.53.28,4,4,0,0,0-1.42.81,4.58,4.58,0,0,0-1.06,1.33,5.11,5.11,0,0,0-.55,1.89h9.09a4.84,4.84,0,0,0-.44-2,3.54,3.54,0,0,0-1.06-1.33,3.58,3.58,0,0,0-1.42-.74A5.36,5.36,0,0,0,110.36,9.81Z"/></g></g></svg>