<svg version="1.1" viewBox="0.0 0.0 960.0 720.0" fill="none" stroke="none" stroke-linecap="square" stroke-miterlimit="10" xmlns:xlink="http://www.w3.org/1999/xlink" xmlns="http://www.w3.org/2000/svg"><clipPath id="p.0"><path d="m0 0l960.0 0l0 720.0l-960.0 0l0 -720.0z" clip-rule="nonzero"/></clipPath><g clip-path="url(#p.0)"><path fill="#000000" fill-opacity="0.0" d="m0 0l960.0 0l0 720.0l-960.0 0z" fill-rule="evenodd"/><path fill="#d0deaa" d="m478.14648 95.76736l481.85828 0l0 93.51182l-481.85828 0z" fill-rule="evenodd"/><path stroke="#d0deaa" stroke-width="1.0" stroke-linejoin="round" stroke-linecap="butt" d="m478.14648 95.76736l481.85828 0l0 93.51182l-481.85828 0z" fill-rule="evenodd"/><path fill="#d0deaa" d="m478.14648 240.75185l367.5276 0l0 93.511826l-367.5276 0z" fill-rule="evenodd"/><path stroke="#d0deaa" stroke-width="1.0" stroke-linejoin="round" stroke-linecap="butt" d="m478.14648 240.75185l367.5276 0l0 93.511826l-367.5276 0z" fill-rule="evenodd"/><path fill="#d0deaa" d="m478.14648 385.73633l177.19684 0l0 93.51181l-177.19684 0z" fill-rule="evenodd"/><path stroke="#d0deaa" stroke-width="1.0" stroke-linejoin="round" stroke-linecap="butt" d="m478.14648 385.73633l177.19684 0l0 93.51181l-177.19684 0z" fill-rule="evenodd"/><path fill="#fbdad3" d="m478.14648 530.7208l-67.653534 0l0 93.51184l67.653534 0z" fill-rule="evenodd"/><path stroke="#fbdad3" stroke-width="1.0" stroke-linejoin="round" stroke-linecap="butt" d="m478.14648 530.7208l-67.653534 0l0 93.51184l67.653534 0z" fill-rule="evenodd"/><path fill="#000000" fill-opacity="0.0" d="m0.030385565 104.55465l410.4882 0l0 75.937004l-410.4882 0z" fill-rule="evenodd"/><path fill="#000000" d="m28.342886 141.04214q-0.953125 -1.703125 -2.421875 -2.5q-1.46875 -0.796875 -3.40625 -0.796875q-1.484375 0 -2.78125 0.609375q-1.296875 0.609375 -2.265625 1.75q-0.96875 1.140625 -1.53125 2.78125q-0.546875 1.625 -0.546875 3.625q0 1.984375 0.546875 3.578125q0.5625 1.59375 1.546875 2.71875q0.984375 1.125 2.265625 1.734375q1.28125 0.59375 2.765625 0.59375q2.1875 0 3.796875 -1.046875q1.625 -1.0625 2.578125 -3.109375l3.515623 1.71875q-0.6874981 1.46875 -1.6874981 2.625q-1.0 1.15625 -2.265625 1.984375q-1.265625 0.8125 -2.78125 1.25q-1.515625 0.453125 -3.203125 0.453125q-2.453125 0 -4.546875 -0.921875q-2.078125 -0.921875 -3.59375 -2.578125q-1.515625 -1.671875 -2.359375 -3.96875q-0.84375 -2.296875 -0.84375 -5.03125q0 -2.734375 0.890625 -5.03125q0.890625 -2.3125 2.4375 -3.953125q1.546875 -1.65625 3.625 -2.59375q2.078125 -0.9375 4.4375 -0.9375q2.234375 0 4.21875 0.78125q2.0 0.78125 3.5 2.34375l2.390623 0l0 3.921875l-4.281248 0zm8.110197 5.515625q0.03125 -2.8125 0.90625 -5.109375q0.875 -2.296875 2.4375 -3.953125q1.578125 -1.65625 3.734375 -2.53125q2.171875 -0.890625 4.78125 -0.890625q2.609375 0 4.78125 0.890625q2.1875 0.875 3.734375 2.515625q1.546875 1.625 2.40625 3.9375q0.875 2.296875 0.875 5.09375q0 2.75 -0.875 5.0625q-0.859375 2.3125 -2.40625 3.984375q-1.546875 1.65625 -3.734375 2.578125q-2.171875 0.921875 -4.78125 0.921875q-2.671875 0 -4.84375 -0.90625q-2.15625 -0.90625 -3.703125 -2.5625q-1.546875 -1.65625 -2.421875 -3.953125q-0.859375 -2.296875 -0.890625 -5.078125zm4.5 0q0 2.03125 0.578125 3.671875q0.578125 1.625 1.59375 2.78125q1.015625 1.15625 2.34375 1.78125q1.328125 0.625 2.84375 0.625q1.5625 0 2.921875 -0.609375q1.359375 -0.625 2.359375 -1.765625q1.0 -1.15625 1.5625 -2.796875q0.578125 -1.640625 0.578125 -3.6875q0 -2.140625 -0.578125 -3.796875q-0.5625 -1.671875 -1.5625 -2.78125q-0.984375 -1.125 -2.359375 -1.6875q-1.359375 -0.578125 -2.921875 -0.578125q-1.515625 0 -2.84375 0.578125q-1.328125 0.5625 -2.34375 1.6875q-1.015625 1.109375 -1.59375 2.78125q-0.578125 1.65625 -0.578125 3.796875zm37.95406 -11.796875l7.609375 0l0 19.671875l2.609375 0l0 3.921875l-6.875 0l0 -2.1875q-1.59375 1.234375 -3.484375 1.921875q-1.875 0.671875 -4.015625 0.671875q-1.765625 0 -3.21875 -0.5q-1.453125 -0.515625 -2.46875 -1.59375q-1.0 -1.09375 -1.546875 -2.75q-0.546875 -1.671875 -0.546875 -3.96875l0 -11.28125l-3.2031288 0l0 -3.90625l7.609379 0l0 14.6875q0 2.703125 1.25 4.09375q1.265625 1.390625 3.609375 1.390625q1.390625 0 2.921875 -0.5q1.546875 -0.5 2.90625 -1.390625l0 -14.375l-3.15625 0l0 -3.90625zm33.801727 21.515625q-1.15625 1.234375 -2.703125 1.921875q-1.53125 0.6875 -3.5 0.6875q-2.390625 0 -4.453125 -0.828125q-2.0625 -0.84375 -3.578125 -2.4375q-1.515625 -1.609375 -2.375 -3.9375q-0.84375 -2.34375 -0.84375 -5.359375q0 -2.734375 0.8125 -4.96875q0.828125 -2.25 2.328125 -3.828125q1.515625 -1.59375 3.625 -2.46875q2.125 -0.875 4.71875 -0.875q1.78125 0 3.203125 0.40625q1.421875 0.390625 2.765625 1.375l0 -1.203125l4.234375 0l0 22.65625q0 5.609375 -2.65625 8.46875q-2.65625 2.875 -8.25 2.875q-1.234375 0 -2.578125 -0.1875q-1.34375 -0.171875 -2.65625 -0.578125q-1.3125 -0.390625 -2.5625 -1.015625q-1.234375 -0.609375 -2.28125 -1.5l2.28125 -3.4375q0.6875 0.59375 1.5625 1.09375q0.875 0.5 1.875 0.84375q1.0 0.359375 2.078125 0.5625q1.078125 0.21875 2.140625 0.21875q1.75 0 3.03125 -0.375q1.296875 -0.359375 2.125 -1.28125q0.828125 -0.921875 1.234375 -2.5q0.421875 -1.5625 0.421875 -3.984375l0 -0.34375zm-5.65625 -1.09375q1.046875 0 1.90625 -0.203125q0.875 -0.203125 1.578125 -0.53125q0.71875 -0.328125 1.25 -0.765625q0.53125 -0.4375 0.921875 -0.90625l0 -12.921875q-1.15625 -1.03125 -2.671875 -1.484375q-1.515625 -0.453125 -3.109375 -0.453125q-1.515625 0 -2.84375 0.5625q-1.3125 0.5625 -2.3125 1.640625q-0.984375 1.0625 -1.546875 2.609375q-0.5625 1.546875 -0.5625 3.546875q0 2.1875 0.546875 3.859375q0.546875 1.65625 1.515625 2.78125q0.984375 1.125 2.34375 1.703125q1.375 0.5625 2.984375 0.5625zm16.040771 -32.28125l7.4687424 0l0 14.453125l0.140625 0q0.640625 -0.640625 1.46875 -1.203125q0.828125 -0.5625 1.734375 -0.96875q0.921875 -0.40625 1.890625 -0.625q0.984375 -0.234375 2.0625 -0.234375q1.890625 0 3.40625 0.53125q1.53125 0.515625 2.59375 1.59375q1.078125 1.0625 1.65625 2.734375q0.59375 1.671875 0.59375 3.953125l0 11.296875l3.546875 0l0 3.921875l-11.203125 0l0 -3.921875l3.234375 0l0 -10.765625q0 -2.71875 -1.375 -4.109375q-1.375 -1.40625 -3.953125 -1.40625q-1.46875 0 -2.96875 0.703125q-1.5 0.6875 -2.828125 1.734375l0 13.84375l3.421875 0l0 3.921875l-11.203117 0l0 -3.921875l3.546875 0l0 -27.609375l-3.234375 0l0 -3.921875z" fill-rule="nonzero"/><path fill="#000000" fill-opacity="0.0" d="m0.030385565 249.53789l410.4882 0l0 75.937l-410.4882 0z" fill-rule="evenodd"/><path fill="#000000" d="m25.186636 301.1504q-1.34375 1.25 -2.984375 2.046875q-1.625 0.796875 -3.6875 0.796875q-1.734375 0 -3.1875 -0.546875q-1.4375 -0.546875 -2.5 -1.484375q-1.046875 -0.953125 -1.625 -2.203125q-0.578125 -1.25 -0.578125 -2.65625q0 -1.515625 0.4375 -2.671875q0.453125 -1.15625 1.1875 -2.015625q0.75 -0.859375 1.734375 -1.4375q1.0 -0.578125 2.078125 -0.921875q1.078125 -0.359375 2.203125 -0.5q1.125 -0.15625 2.15625 -0.15625q1.640625 0 2.75 0.109375q1.125 0.09375 2.03125 0.265625l0.03125 -1.921875q0 -1.265625 -0.375 -2.1875q-0.359375 -0.921875 -1.03125 -1.515625q-0.65625 -0.609375 -1.578125 -0.90625q-0.921875 -0.296875 -2.0625 -0.296875q-1.0625 0 -2.046875 0.15625q-0.96875 0.140625 -1.828125 0.390625q-0.859375 0.234375 -1.578125 0.546875q-0.71875 0.296875 -1.21875 0.640625l-1.390625 -2.9375q0.84375 -0.546875 1.84375 -1.015625q1.015625 -0.46875 2.109375 -0.796875q1.109375 -0.328125 2.25 -0.515625q1.15625 -0.203125 2.28125 -0.203125q2.046875 0 3.6875 0.5q1.640625 0.484375 2.78125 1.515625q1.140625 1.015625 1.75 2.609375q0.609375 1.578125 0.609375 3.78125l-0.015625 11.796875l2.624998 0l0 3.921875l-6.859373 0l0 -2.1875zm-5.75 -0.703125q0.84375 0 1.6875 -0.203125q0.84375 -0.203125 1.59375 -0.5625q0.75 -0.359375 1.390625 -0.8125q0.640625 -0.46875 1.078125 -0.96875l0.015625 -5.34375l-4.921875 0q-1.21875 0 -2.234375 0.28125q-1.015625 0.265625 -1.765625 0.796875q-0.734375 0.515625 -1.140625 1.296875q-0.40625 0.78125 -0.40625 1.78125q0 0.921875 0.328125 1.625q0.34375 0.6875 0.96875 1.15625q0.625 0.46875 1.484375 0.71875q0.875 0.234375 1.921875 0.234375zm34.65576 0.8125q-1.15625 1.234375 -2.703125 1.921875q-1.53125 0.6875 -3.5 0.6875q-2.390625 0 -4.453125 -0.828125q-2.0625 -0.84375 -3.578125 -2.4375q-1.515625 -1.609375 -2.375 -3.9375q-0.84375 -2.34375 -0.84375 -5.359375q0 -2.734375 0.8125 -4.96875q0.828125 -2.25 2.328125 -3.828125q1.515625 -1.59375 3.625 -2.46875q2.125 -0.875 4.71875 -0.875q1.78125 0 3.203125 0.40625q1.421875 0.390625 2.765625 1.375l0 -1.203125l4.234375 0l0 22.65625q0 5.609375 -2.65625 8.46875q-2.65625 2.875 -8.25 2.875q-1.234375 0 -2.578125 -0.1875q-1.34375 -0.171875 -2.65625 -0.578125q-1.3125 -0.390625 -2.5625 -1.015625q-1.234375 -0.609375 -2.28125 -1.5l2.28125 -3.4375q0.6875 0.59375 1.5625 1.09375q0.875 0.5 1.875 0.84375q1.0 0.359375 2.078125 0.5625q1.078125 0.21875 2.140625 0.21875q1.75 0 3.03125 -0.375q1.296875 -0.359375 2.125 -1.28125q0.828125 -0.921875 1.234375 -2.5q0.421875 -1.5625 0.421875 -3.984375l0 -0.34375zm-5.65625 -1.09375q1.046875 0 1.90625 -0.203125q0.875 -0.203125 1.578125 -0.53125q0.71875 -0.328125 1.25 -0.765625q0.53125 -0.4375 0.921875 -0.90625l0 -12.921875q-1.15625 -1.03125 -2.671875 -1.484375q-1.515625 -0.453125 -3.109375 -0.453125q-1.515625 0 -2.84375 0.5625q-1.3125 0.5625 -2.3125 1.640625q-0.984375 1.0625 -1.546875 2.609375q-0.5625 1.546875 -0.5625 3.546875q0 2.1875 0.546875 3.859375q0.546875 1.65625 1.515625 2.78125q0.984375 1.125 2.34375 1.703125q1.375 0.5625 2.984375 0.5625zm19.728275 -8.078125q0 1.0 0.140625 1.828125q0.15625 0.828125 0.4375 1.578125q0.84375 2.28125 2.6875 3.4375q1.859375 1.15625 4.21875 1.15625q1.84375 0 3.578125 -0.515625q1.75 -0.515625 3.65625 -1.609375l1.71875 2.890625q-2.328125 1.59375 -4.671875 2.375q-2.34375 0.765625 -4.875 0.765625q-2.390625 0 -4.4375 -0.796875q-2.03125 -0.796875 -3.5 -2.359375q-1.46875 -1.578125 -2.3125 -3.921875q-0.8281288 -2.34375 -0.8281288 -5.46875q0 -2.53125 0.7031288 -4.765625q0.71875 -2.25 2.109375 -3.921875q1.40625 -1.671875 3.46875 -2.65625q2.078125 -0.984375 4.84375 -0.984375q2.65625 0 4.4375 0.8125q1.796875 0.8125 2.921875 2.140625q1.125 1.328125 1.703125 3.046875q0.59375 1.703125 0.8125 3.484375q0.125 0.859375 0.15625 1.75q0.03125 0.890625 0.03125 1.734375l-17.0 0zm6.640625 -9.40625q-1.484375 0 -2.59375 0.421875q-1.109375 0.421875 -1.890625 1.203125q-0.765625 0.78125 -1.234375 1.921875q-0.453125 1.140625 -0.6875 2.546875l12.234375 0q-0.09375 -1.3125 -0.421875 -2.421875q-0.328125 -1.125 -1.015625 -1.9375q-0.6875 -0.828125 -1.765625 -1.28125q-1.0625 -0.453125 -2.625 -0.453125z" fill-rule="nonzero"/><path fill="#000000" fill-opacity="0.0" d="m0.031496063 394.52237l410.4882 0l0 75.93701l-410.4882 0z" fill-rule="evenodd"/><path fill="#000000" d="m11.125246 412.86926l7.65625 0l0 31.53125l3.546875 0l0 3.921875l-11.203125 0l0 -3.921875l3.421875 0l0 -27.609375l-3.421875 0l0 -3.921875zm29.578646 11.859375l7.609375 0l0 19.671875l2.609375 0l0 3.921875l-6.875 0l0 -2.1875q-1.59375 1.234375 -3.484375 1.921875q-1.875 0.671875 -4.015625 0.671875q-1.765625 0 -3.21875 -0.5q-1.4531269 -0.515625 -2.468752 -1.59375q-1.0 -1.09375 -1.546875 -2.75q-0.546875 -1.671875 -0.546875 -3.96875l0 -11.28125l-3.203125 0l0 -3.90625l7.609377 0l0 14.6875q0 2.703125 1.25 4.09375q1.265625 1.390625 3.609375 1.390625q1.390625 0 2.921875 -0.5q1.546875 -0.5 2.90625 -1.390625l0 -14.375l-3.15625 0l0 -3.90625zm32.06735 19.671875l3.328125 0l0 -10.765625q0 -2.71875 -1.375 -4.109375q-1.375 -1.40625 -3.953125 -1.40625q-1.484375 0 -2.984375 0.703125q-1.5 0.703125 -2.84375 1.75l0 13.828125l3.3125 0l0 3.921875l-11.015621 0l0 -3.921875l3.28125 0l0 -15.765625l-3.28125 0l0 -3.90625l7.515621 0l0 2.765625l0.046875 0q0.75 -0.65625 1.59375 -1.25q0.859375 -0.59375 1.796875 -1.015625q0.9375 -0.4375 1.953125 -0.6875q1.015625 -0.25 2.125 -0.25q1.890625 0 3.40625 0.53125q1.53125 0.515625 2.609375 1.59375q1.078125 1.0625 1.65625 2.734375q0.578125 1.671875 0.578125 3.953125l0 11.296875l3.28125 0l0 3.921875l-11.03125 0l0 -3.921875zm32.85373 1.84375q-1.15625 1.234375 -2.703125 1.921875q-1.53125 0.6875 -3.5 0.6875q-2.390625 0 -4.453125 -0.828125q-2.0625 -0.84375 -3.578125 -2.4375q-1.515625 -1.609375 -2.375 -3.9375q-0.84375 -2.34375 -0.84375 -5.359375q0 -2.734375 0.8125 -4.96875q0.828125 -2.25 2.328125 -3.828125q1.515625 -1.59375 3.625 -2.46875q2.125 -0.875 4.71875 -0.875q1.78125 0 3.203125 0.40625q1.421875 0.390625 2.765625 1.375l0 -1.203125l4.234375 0l0 22.65625q0 5.609375 -2.65625 8.46875q-2.65625 2.875 -8.25 2.875q-1.234375 0 -2.578125 -0.1875q-1.34375 -0.171875 -2.65625 -0.578125q-1.3125 -0.390625 -2.5625 -1.015625q-1.234375 -0.609375 -2.28125 -1.5l2.28125 -3.4375q0.6875 0.59375 1.5625 1.09375q0.875 0.5 1.875 0.84375q1.0 0.359375 2.078125 0.5625q1.078125 0.21875 2.140625 0.21875q1.75 0 3.03125 -0.375q1.296875 -0.359375 2.125 -1.28125q0.828125 -0.921875 1.234375 -2.5q0.421875 -1.5625 0.421875 -3.984375l0 -0.34375zm-5.65625 -1.09375q1.046875 0 1.90625 -0.203125q0.875 -0.203125 1.578125 -0.53125q0.71875 -0.328125 1.25 -0.765625q0.53125 -0.4375 0.921875 -0.90625l0 -12.921875q-1.15625 -1.03125 -2.671875 -1.484375q-1.515625 -0.453125 -3.109375 -0.453125q-1.515625 0 -2.84375 0.5625q-1.3125 0.5625 -2.3125 1.640625q-0.984375 1.0625 -1.546875 2.609375q-0.5625 1.546875 -0.5625 3.546875q0 2.1875 0.546875 3.859375q0.546875 1.65625 1.515625 2.78125q0.984375 1.125 2.34375 1.703125q1.375 0.5625 2.984375 0.5625zm13.4470215 3.171875q0 0 0 0zm26.112305 -17.265625q0 -0.953125 -0.453125 -1.625q-0.4375 -0.671875 -1.15625 -1.09375q-0.703125 -0.421875 -1.5625 -0.609375q-0.859375 -0.203125 -1.6875 -0.203125q-0.90625 0 -1.671875 0.203125q-0.765625 0.203125 -1.3125 0.59375q-0.546875 0.390625 -0.859375 0.953125q-0.296875 0.546875 -0.296875 1.234375q0 1.1875 0.71875 1.890625q0.71875 0.6875 2.40625 1.28125l4.53125 1.59375q2.90625 0.96875 4.25 2.65625q1.34375 1.6875 1.34375 4.03125q0 1.578125 -0.625 2.890625q-0.625 1.296875 -1.78125 2.234375q-1.140625 0.921875 -2.765625 1.421875q-1.609375 0.515625 -3.59375 0.515625q-2.75 0 -4.484375 -0.890625q-1.734375 -0.890625 -2.671875 -2.34375l-2.359375 0l0 -3.921875l4.703125 0q0 0.984375 0.421875 1.6875q0.421875 0.6875 1.109375 1.125q0.703125 0.421875 1.578125 0.640625q0.890625 0.203125 1.796875 0.203125q0.890625 0 1.703125 -0.21875q0.828125 -0.21875 1.453125 -0.640625q0.625 -0.421875 0.984375 -1.015625q0.375 -0.59375 0.375 -1.34375q0 -1.140625 -0.75 -1.9375q-0.734375 -0.796875 -2.515625 -1.4375l-4.515625 -1.6875q-2.75 -0.96875 -4.09375 -2.484375q-1.328125 -1.515625 -1.328125 -3.796875q0 -1.5 0.5625 -2.78125q0.5625 -1.28125 1.609375 -2.203125q1.0625 -0.921875 2.59375 -1.4375q1.53125 -0.53125 3.484375 -0.53125q2.53125 0 4.234375 0.71875q1.71875 0.703125 3.078125 2.40625l2.21875 0l0 3.921875l-4.671875 0zm15.825027 -6.328125l5.53125 0l0 3.4375l-5.578125 0l-0.0625 13.625q0 1.375 0.3125 2.25q0.328125 0.859375 1.03125 1.203125q0.703125 0.328125 1.59375 0.328125q0.953125 0 1.6875 -0.171875q0.734375 -0.171875 1.59375 -0.59375l0.984375 2.859375q-1.09375 0.5625 -2.3125 0.890625q-1.203125 0.328125 -2.84375 0.328125q-1.546875 0 -2.703125 -0.375q-1.140625 -0.375 -1.9375 -1.25q-0.78125 -0.890625 -1.171875 -2.375q-0.375 -1.5 -0.375 -3.734375l0.0625 -12.984375l-3.765625 0l0 -3.4375l3.8125 0l0 -5.65625l4.140625 -1.953125l0 7.609375zm24.40628 21.40625q-1.34375 1.25 -2.984375 2.046875q-1.625 0.796875 -3.6875 0.796875q-1.734375 0 -3.1875 -0.546875q-1.4375 -0.546875 -2.5 -1.484375q-1.046875 -0.953125 -1.625 -2.203125q-0.578125 -1.25 -0.578125 -2.65625q0 -1.515625 0.4375 -2.671875q0.453125 -1.15625 1.1875 -2.015625q0.75 -0.859375 1.734375 -1.4375q1.0 -0.578125 2.078125 -0.921875q1.078125 -0.359375 2.203125 -0.5q1.125 -0.15625 2.15625 -0.15625q1.640625 0 2.75 0.109375q1.125 0.09375 2.03125 0.265625l0.03125 -1.921875q0 -1.265625 -0.375 -2.1875q-0.359375 -0.921875 -1.03125 -1.515625q-0.65625 -0.609375 -1.578125 -0.90625q-0.921875 -0.296875 -2.0625 -0.296875q-1.0625 0 -2.046875 0.15625q-0.96875 0.140625 -1.828125 0.390625q-0.859375 0.234375 -1.578125 0.546875q-0.71875 0.296875 -1.21875 0.640625l-1.390625 -2.9375q0.84375 -0.546875 1.84375 -1.015625q1.015625 -0.46875 2.109375 -0.796875q1.109375 -0.328125 2.25 -0.515625q1.15625 -0.203125 2.28125 -0.203125q2.046875 0 3.6875 0.5q1.640625 0.484375 2.78125 1.515625q1.140625 1.015625 1.75 2.609375q0.609375 1.578125 0.609375 3.78125l-0.015625 11.796875l2.625 0l0 3.921875l-6.859375 0l0 -2.1875zm-5.75 -0.703125q0.84375 0 1.6875 -0.203125q0.84375 -0.203125 1.59375 -0.5625q0.75 -0.359375 1.390625 -0.8125q0.640625 -0.46875 1.078125 -0.96875l0.015625 -5.34375l-4.921875 0q-1.21875 0 -2.234375 0.28125q-1.015625 0.265625 -1.765625 0.796875q-0.734375 0.515625 -1.140625 1.296875q-0.40625 0.78125 -0.40625 1.78125q0 0.921875 0.328125 1.625q0.34375 0.6875 0.96875 1.15625q0.625 0.46875 1.484375 0.71875q0.875 0.234375 1.921875 0.234375zm24.218262 -20.703125l5.53125 0l0 3.4375l-5.578125 0l-0.0625 13.625q0 1.375 0.3125 2.25q0.328125 0.859375 1.03125 1.203125q0.703125 0.328125 1.59375 0.328125q0.953125 0 1.6875 -0.171875q0.734375 -0.171875 1.59375 -0.59375l0.984375 2.859375q-1.09375 0.5625 -2.3125 0.890625q-1.203125 0.328125 -2.84375 0.328125q-1.546875 0 -2.703125 -0.375q-1.140625 -0.375 -1.9375 -1.25q-0.78125 -0.890625 -1.171875 -2.375q-0.375 -1.5 -0.375 -3.734375l0.0625 -12.984375l-3.765625 0l0 -3.4375l3.8125 0l0 -5.65625l4.140625 -1.953125l0 7.609375zm24.75003 0l7.609375 0l0 19.671875l2.609375 0l0 3.921875l-6.875 0l0 -2.1875q-1.59375 1.234375 -3.484375 1.921875q-1.875 0.671875 -4.015625 0.671875q-1.765625 0 -3.21875 -0.5q-1.453125 -0.515625 -2.46875 -1.59375q-1.0 -1.09375 -1.546875 -2.75q-0.546875 -1.671875 -0.546875 -3.96875l0 -11.28125l-3.203125 0l0 -3.90625l7.609375 0l0 14.6875q0 2.703125 1.25 4.09375q1.265625 1.390625 3.609375 1.390625q1.390625 0 2.921875 -0.5q1.546875 -0.5 2.90625 -1.390625l0 -14.375l-3.15625 0l0 -3.90625zm30.161102 6.328125q0 -0.953125 -0.453125 -1.625q-0.4375 -0.671875 -1.15625 -1.09375q-0.703125 -0.421875 -1.5625 -0.609375q-0.859375 -0.203125 -1.6875 -0.203125q-0.90625 0 -1.671875 0.203125q-0.765625 0.203125 -1.3125 0.59375q-0.546875 0.390625 -0.859375 0.953125q-0.296875 0.546875 -0.296875 1.234375q0 1.1875 0.71875 1.890625q0.71875 0.6875 2.40625 1.28125l4.53125 1.59375q2.90625 0.96875 4.2499847 2.65625q1.34375 1.6875 1.34375 4.03125q0 1.578125 -0.625 2.890625q-0.625 1.296875 -1.7812347 2.234375q-1.140625 0.921875 -2.765625 1.421875q-1.609375 0.515625 -3.59375 0.515625q-2.75 0 -4.484375 -0.890625q-1.734375 -0.890625 -2.671875 -2.34375l-2.359375 0l0 -3.921875l4.703125 0q0 0.984375 0.421875 1.6875q0.421875 0.6875 1.109375 1.125q0.703125 0.421875 1.578125 0.640625q0.890625 0.203125 1.796875 0.203125q0.890625 0 1.703125 -0.21875q0.828125 -0.21875 1.453125 -0.640625q0.625 -0.421875 0.984375 -1.015625q0.375 -0.59375 0.375 -1.34375q0 -1.140625 -0.75 -1.9375q-0.734375 -0.796875 -2.515625 -1.4375l-4.515625 -1.6875q-2.75 -0.96875 -4.09375 -2.484375q-1.328125 -1.515625 -1.328125 -3.796875q0 -1.5 0.5625 -2.78125q0.5625 -1.28125 1.609375 -2.203125q1.0625 -0.921875 2.59375 -1.4375q1.53125 -0.53125 3.484375 -0.53125q2.53125 0 4.234375 0.71875q1.71875 0.703125 3.078125 2.40625l2.2187347 0l0 3.921875l-4.6718597 0z" fill-rule="nonzero"/><path fill="#000000" fill-opacity="0.0" d="m0.030385565 539.5069l410.4882 0l0 75.93695l-410.4882 0z" fill-rule="evenodd"/><path fill="#000000" d="m24.936636 576.04126q0 -0.953125 -0.453125 -1.625q-0.4375 -0.671875 -1.15625 -1.09375q-0.703125 -0.421875 -1.5625 -0.609375q-0.859375 -0.203125 -1.6875 -0.203125q-0.90625 0 -1.671875 0.203125q-0.765625 0.203125 -1.3125 0.59375q-0.546875 0.390625 -0.859375 0.953125q-0.296875 0.546875 -0.296875 1.234375q0 1.1875 0.71875 1.890625q0.71875 0.6875 2.40625 1.28125l4.53125 1.59375q2.90625 0.96875 4.25 2.65625q1.34375 1.6875 1.34375 4.03125q0 1.578125 -0.625 2.890625q-0.625 1.296875 -1.78125 2.234375q-1.140625 0.921875 -2.765625 1.421875q-1.609375 0.515625 -3.59375 0.515625q-2.75 0 -4.484375 -0.890625q-1.734375 -0.890625 -2.671875 -2.34375l-2.359375 0l0 -3.921875l4.703125 0q0 0.984375 0.421875 1.6875q0.421875 0.6875 1.109375 1.125q0.703125 0.421875 1.578125 0.640625q0.890625 0.203125 1.796875 0.203125q0.890625 0 1.703125 -0.21875q0.828125 -0.21875 1.453125 -0.640625q0.625 -0.421875 0.984375 -1.015625q0.375 -0.59375 0.375 -1.34375q0 -1.140625 -0.75 -1.9375q-0.734375 -0.796875 -2.515625 -1.4375l-4.515625 -1.6875q-2.75 -0.96875 -4.09375 -2.484375q-1.328125 -1.515625 -1.328125 -3.796875q0 -1.5 0.5625 -2.78125q0.5625 -1.28125 1.609375 -2.203125q1.0625 -0.921875 2.59375 -1.4375q1.53125 -0.53125 3.484375 -0.53125q2.53125 0 4.234375 0.71875q1.71875 0.703125 3.078125 2.40625l2.21875 0l0 3.921875l-4.671875 0zm12.996901 6.015625q0 1.0 0.140625 1.828125q0.15625 0.828125 0.4375 1.578125q0.84375 2.28125 2.6875 3.4375q1.859375 1.15625 4.21875 1.15625q1.84375 0 3.578125 -0.515625q1.75 -0.515625 3.65625 -1.609375l1.71875 2.890625q-2.328125 1.59375 -4.671875 2.375q-2.34375 0.765625 -4.875 0.765625q-2.390625 0 -4.4375 -0.796875q-2.03125 -0.796875 -3.5 -2.359375q-1.46875 -1.578125 -2.3125 -3.921875q-0.828125 -2.34375 -0.828125 -5.46875q0 -2.53125 0.703125 -4.765625q0.71875 -2.25 2.109375 -3.921875q1.40625 -1.671875 3.46875 -2.65625q2.078125 -0.984375 4.84375 -0.984375q2.65625 0 4.4375 0.8125q1.796875 0.8125 2.921875 2.140625q1.125 1.328125 1.703125 3.046875q0.59375 1.703125 0.8125 3.484375q0.125 0.859375 0.15625 1.75q0.03125 0.890625 0.03125 1.734375l-17.0 0zm6.640625 -9.40625q-1.484375 0 -2.59375 0.421875q-1.109375 0.421875 -1.890625 1.203125q-0.765625 0.78125 -1.234375 1.921875q-0.453125 1.140625 -0.6875 2.546875l12.234375 0q-0.09375 -1.3125 -0.421875 -2.421875q-0.328125 -1.125 -1.015625 -1.9375q-0.6875 -0.828125 -1.765625 -1.28125q-1.0625 -0.453125 -2.625 -0.453125zm29.658741 16.734375l1.34375 0l-4.6875 -5.828125l-4.59375 5.828125l1.171875 0l0 3.921875l-7.843754 0l0 -3.921875l1.921875 0l7.171879 -8.359375l-6.750004 -7.40625l-2.390625 0l0 -3.90625l7.843754 0l0 3.90625l-0.890625 0l4.359375 5.609375l4.390625 -5.609375l-1.140625 0l0 -3.90625l7.84375 0l0 3.90625l-2.03125 0l-6.671875 7.703125l7.0625 8.0625l1.71875 0l0 3.921875l-7.828125 0l0 -3.921875z" fill-rule="nonzero"/></g></svg>