<svg xmlns="http://www.w3.org/2000/svg" viewBox="0 0 174 174"><defs><style>.cls-1{fill:#fff;}.cls-2{fill:#604cc3;}.cls-3{fill:none;stroke:#604cc3;stroke-miterlimit:10;stroke-width:3px;}</style></defs><g id="Layer_2" data-name="Layer 2"><g id="clusterlets"><g id="blue_clusterlet" data-name="blue clusterlet"><circle class="cls-1" cx="87" cy="87" r="85.5"/><path class="cls-2" d="M87,3A84,84,0,1,1,3,87,84.09,84.09,0,0,1,87,3m0-3a87,87,0,1,0,87,87A87,87,0,0,0,87,0Z"/></g><g id="blue_points" data-name="blue points"><polygon class="cls-3" points="107.5 63.5 62.5 63.5 85.5 29 107.5 63.5"/><polygon class="cls-2" points="107.5 63.5 62.5 63.5 85.5 29 107.5 63.5"/><polygon class="cls-3" points="73.5 97.5 28.5 97.5 51.5 63 73.5 97.5"/><polygon class="cls-2" points="73.5 97.5 28.5 97.5 51.5 63 73.5 97.5"/><polygon class="cls-3" points="142.5 106.5 97.5 106.5 120.5 72 142.5 106.5"/><polygon class="cls-2" points="142.5 106.5 97.5 106.5 120.5 72 142.5 106.5"/><polygon class="cls-3" points="106.5 139.5 61.5 139.5 84.5 105 106.5 139.5"/><polygon class="cls-2" points="106.5 139.5 61.5 139.5 84.5 105 106.5 139.5"/></g></g></g></svg>