<svg xmlns="http://www.w3.org/2000/svg" viewBox="0 0 478.96 260.96"><defs><style>.cls-1,.cls-3{fill:none;}.cls-1,.cls-2,.cls-3{stroke:#000;stroke-miterlimit:10;}.cls-1{stroke-width:2px;}.cls-2{fill:#fff;}.cls-3{stroke-width:3px;}</style></defs><g id="Layer_2" data-name="Layer 2"><g id="pla"><g id="segments"><line class="cls-1" x1="32.46" y1="205.5" x2="118.46" y2="171.5"/><line class="cls-1" x1="116.46" y1="149.5" x2="241.46" y2="116.5"/><line class="cls-1" x1="246.46" y1="115.5" x2="369.46" y2="101.5"/><line class="cls-1" x1="373.46" y1="106.5" x2="439.46" y2="56.5"/></g><g id="data"><circle class="cls-2" cx="57.96" cy="194" r="13.5"/><circle class="cls-2" cx="95.46" cy="180.5" r="13.5"/><circle class="cls-2" cx="152.01" cy="142.5" r="13.5"/><circle class="cls-2" cx="179.46" cy="132.5" r="13.5"/><circle class="cls-2" cx="271.46" cy="111.5" r="13.5"/><circle class="cls-2" cx="216.46" cy="122.5" r="13.5"/><circle class="cls-2" cx="306.46" cy="111.5" r="13.5"/><circle class="cls-2" cx="345.46" cy="101.5" r="13.5"/><circle class="cls-2" cx="391.46" cy="92.5" r="13.5"/><circle class="cls-2" cx="420.46" cy="71.5" r="13.5"/></g><g id="parameters"><path id="MJX-6-TEX-I-1D703" d="M59.54,160.23A24.07,24.07,0,0,1,61,152.38a23.06,23.06,0,0,1,3.87-7.12,8.6,8.6,0,0,1,5.08-3.43h.29a1.94,1.94,0,0,0,.44,0,3.84,3.84,0,0,1,3.06,1.79,10.66,10.66,0,0,1,1.43,5.88A23.91,23.91,0,0,1,73.49,158a21.48,21.48,0,0,1-4.2,7.12q-2.55,2.77-4.89,2.78h-.25a3.59,3.59,0,0,1-2.27-.73,4.39,4.39,0,0,1-1.42-1.94,12.54,12.54,0,0,1-.7-2.44A15.33,15.33,0,0,1,59.54,160.23Zm12.71-13.36c0-2.49-.64-3.73-1.93-3.73a3.37,3.37,0,0,0-2.56,1.65,14.8,14.8,0,0,0-2,3.72c-.54,1.39-1,2.6-1.25,3.65S64,153.82,64,154l3.54,0,3.54,0a9.19,9.19,0,0,0,.3-1.21c.17-.78.36-1.75.58-2.92A13.91,13.91,0,0,0,72.25,146.87Zm-9.86,15.84c0,2.59.65,3.88,1.94,3.88a2.41,2.41,0,0,0,1.17-.37A6.6,6.6,0,0,0,67,164.83a11.89,11.89,0,0,0,1.76-3.17,49.38,49.38,0,0,0,1.75-5.34l.18-.62H63.56c0,.08-.11.54-.33,1.39s-.41,1.8-.58,2.85A17.62,17.62,0,0,0,62.39,162.71Z"/><path id="MJX-6-TEX-N-31" d="M82.1,137.53l-.34.13a7.18,7.18,0,0,1-1,.26,14.71,14.71,0,0,1-1.5.18h-.49v-1.19h.49a8,8,0,0,0,2.25-.39,5.73,5.73,0,0,0,1.44-.62,5.58,5.58,0,0,0,.73-.56c0-.05.13-.08.31-.08a.7.7,0,0,1,.43.15v7.72l0,7.75a.9.9,0,0,0,.31.23,2.53,2.53,0,0,0,.62.1,14.89,14.89,0,0,0,1.6.06h.67v1.18h-.28c-.36,0-1.73-.07-4.11-.07s-3.69,0-4,.07h-.31v-1.18h1.65a5.43,5.43,0,0,0,.65,0,2.29,2.29,0,0,0,.41-.08l.21,0a.49.49,0,0,0,.15-.13c.09-.08.14-.12.16-.1Z"/><path id="MJX-6-TEX-I-1D703-2" data-name="MJX-6-TEX-I-1D703" d="M164.35,106.85A24.27,24.27,0,0,1,165.77,99a22.82,22.82,0,0,1,3.88-7.13,8.66,8.66,0,0,1,5.07-3.43H175a2.76,2.76,0,0,0,.44,0,3.83,3.83,0,0,1,3.07,1.78,10.71,10.71,0,0,1,1.42,5.88,24,24,0,0,1-1.64,8.55,21.82,21.82,0,0,1-4.2,7.12q-2.55,2.78-4.89,2.77H169a3.58,3.58,0,0,1-2.26-.73,4.38,4.38,0,0,1-1.43-1.93,13.35,13.35,0,0,1-.69-2.45A14.31,14.31,0,0,1,164.35,106.85Zm12.71-13.37c0-2.48-.65-3.72-1.94-3.72a3.34,3.34,0,0,0-2.55,1.64,15.52,15.52,0,0,0-2,3.72c-.53,1.39-1,2.61-1.24,3.66s-.45,1.65-.47,1.82c1.19,0,2.37,0,3.54,0l3.54,0a12.1,12.1,0,0,0,.29-1.2c.17-.78.37-1.76.59-2.92A14.61,14.61,0,0,0,177.06,93.48Zm-9.86,15.85c0,2.58.64,3.87,1.93,3.87a2.25,2.25,0,0,0,1.17-.37,6.32,6.32,0,0,0,1.5-1.38,11.83,11.83,0,0,0,1.75-3.18,48.93,48.93,0,0,0,1.76-5.33l.18-.62h-7.12c0,.07-.11.53-.33,1.39s-.41,1.8-.59,2.84A17.61,17.61,0,0,0,167.2,109.33Z"/><path id="MJX-6-TEX-N-32" d="M184.22,88a1.39,1.39,0,0,1-1.11-.46,1.64,1.64,0,0,1-.42-1.14,4.29,4.29,0,0,1,1.37-3.17,4.68,4.68,0,0,1,3.41-1.35,5.61,5.61,0,0,1,3.93,1.45,4.93,4.93,0,0,1,1.6,3.74,4.64,4.64,0,0,1-.52,2.12,7.31,7.31,0,0,1-1.24,1.76c-.48.49-1.17,1.13-2.07,1.91-.61.53-1.48,1.32-2.58,2.37l-1.52,1.45,2,0a30.13,30.13,0,0,0,4.31-.13,6.87,6.87,0,0,0,.62-2.29v-.08h1v.08s-.13.83-.34,2.35a20.18,20.18,0,0,1-.39,2.37v.08h-9.58v-.8a.71.71,0,0,1,.16-.39c.1-.14.36-.44.77-.9l1.3-1.45.87-1,.88-1c.16-.17.41-.46.75-.85s.58-.69.72-.88.34-.45.6-.77a5.62,5.62,0,0,0,.54-.83q.15-.33.39-.75a3.52,3.52,0,0,0,.33-.82q.1-.42.18-.78a4.16,4.16,0,0,0,.08-.85,4.6,4.6,0,0,0-.88-2.82,2.92,2.92,0,0,0-2.5-1.18,2.55,2.55,0,0,0-1.5.44,3,3,0,0,0-.9.85,1.59,1.59,0,0,0-.26.49s0,0,.13,0a1.61,1.61,0,0,1,1,.37,1.35,1.35,0,0,1,.49,1.18,1.51,1.51,0,0,1-.41,1.09A1.58,1.58,0,0,1,184.22,88Z"/><path id="MJX-6-TEX-I-1D703-3" data-name="MJX-6-TEX-I-1D703" d="M295,82.78a24.13,24.13,0,0,1,1.43-7.86,23.06,23.06,0,0,1,3.87-7.12,8.66,8.66,0,0,1,5.07-3.43h.3a1.8,1.8,0,0,0,.43,0,3.87,3.87,0,0,1,3.07,1.79A10.66,10.66,0,0,1,310.57,72a24,24,0,0,1-1.64,8.55,21.48,21.48,0,0,1-4.2,7.12q-2.55,2.77-4.89,2.77h-.26a3.58,3.58,0,0,1-2.26-.73,4.36,4.36,0,0,1-1.42-1.93,12.64,12.64,0,0,1-.7-2.45A15.3,15.3,0,0,1,295,82.78Zm12.71-13.37c0-2.48-.65-3.72-1.94-3.72a3.36,3.36,0,0,0-2.55,1.64,15.33,15.33,0,0,0-2.05,3.72c-.53,1.39-.95,2.61-1.24,3.66s-.45,1.65-.47,1.82c1.19,0,2.37,0,3.54,0l3.54,0a9.35,9.35,0,0,0,.29-1.2c.17-.78.37-1.76.59-2.92A14.61,14.61,0,0,0,307.69,69.41Zm-9.86,15.85c0,2.58.65,3.87,1.94,3.87a2.25,2.25,0,0,0,1.16-.37,6.32,6.32,0,0,0,1.5-1.38,11.56,11.56,0,0,0,1.75-3.18,48.93,48.93,0,0,0,1.76-5.33l.18-.62H299c0,.07-.11.53-.33,1.39s-.41,1.8-.58,2.84A17.74,17.74,0,0,0,297.83,85.26Z"/><path id="MJX-6-TEX-N-33" d="M315.31,63a1.37,1.37,0,0,1-1.08-.43,1.74,1.74,0,0,1-.41-1.14,3.31,3.31,0,0,1,1.24-2.53,4.31,4.31,0,0,1,3-1.11q.9,0,1.14,0a5,5,0,0,1,2.91,1.36,3.4,3.4,0,0,1,1,2.3,4.55,4.55,0,0,1-.88,2.61A5,5,0,0,1,319.83,66l-.08.05s.08,0,.24.08.4.11.75.23a3.31,3.31,0,0,1,1,.55,4.13,4.13,0,0,1,2.11,3.61,4.74,4.74,0,0,1-1.6,3.56,5.62,5.62,0,0,1-4.05,1.53,5.8,5.8,0,0,1-3.56-1.11,3.37,3.37,0,0,1-1.5-2.82,1.51,1.51,0,0,1,.46-1.16,1.71,1.71,0,0,1,1.17-.46,1.59,1.59,0,0,1,1.65,1.62,1.72,1.72,0,0,1-.08.52,2.2,2.2,0,0,1-.18.41,1,1,0,0,1-.28.31l-.31.21a1.06,1.06,0,0,1-.26.1.51.51,0,0,0-.21.08l-.1,0a4.64,4.64,0,0,0,3.2,1.17,2.3,2.3,0,0,0,2.14-1.37,5.84,5.84,0,0,0,.44-2.61V70a3.32,3.32,0,0,0-1.65-3.28,5.65,5.65,0,0,0-1.58-.18l-1.08,0-.08,0a1.1,1.1,0,0,1-.05-.42c0-.31.07-.46.21-.46a8.78,8.78,0,0,0,1.5-.13,2.57,2.57,0,0,0,1.6-1.08,4.82,4.82,0,0,0,.72-2.9v-.2a2.11,2.11,0,0,0-2.12-2.4,4,4,0,0,0-1.52.28,2.81,2.81,0,0,0-1,.59l-.29.31h.08l.21.06a.67.67,0,0,1,.26.12,1.27,1.27,0,0,0,.31.19.44.44,0,0,1,.25.28,1.83,1.83,0,0,0,.21.39.68.68,0,0,1,.08.51,1.54,1.54,0,0,1-.36,1A1.48,1.48,0,0,1,315.31,63Z"/><path id="MJX-6-TEX-I-1D703-4" data-name="MJX-6-TEX-I-1D703" d="M384.65,58.83A24,24,0,0,1,386.07,51a23.06,23.06,0,0,1,3.87-7.12A8.6,8.6,0,0,1,395,40.43h.29a1.94,1.94,0,0,0,.44,0,3.84,3.84,0,0,1,3.06,1.79,10.66,10.66,0,0,1,1.43,5.88,23.91,23.91,0,0,1-1.65,8.54,21.48,21.48,0,0,1-4.2,7.12q-2.55,2.77-4.89,2.78h-.25a3.61,3.61,0,0,1-2.27-.73,4.39,4.39,0,0,1-1.42-1.94,12.54,12.54,0,0,1-.7-2.44A15.34,15.34,0,0,1,384.65,58.83Zm12.7-13.36c0-2.49-.64-3.73-1.93-3.73a3.37,3.37,0,0,0-2.56,1.65,14.8,14.8,0,0,0-2,3.72c-.54,1.39-.95,2.6-1.25,3.65s-.45,1.66-.47,1.83l3.54,0,3.54,0a9.19,9.19,0,0,0,.3-1.21c.17-.78.36-1.75.58-2.92A13.91,13.91,0,0,0,397.35,45.47Zm-9.86,15.84c0,2.59.65,3.88,1.94,3.88a2.41,2.41,0,0,0,1.17-.37,6.6,6.6,0,0,0,1.49-1.39,11.89,11.89,0,0,0,1.76-3.17,49.38,49.38,0,0,0,1.75-5.34l.18-.62h-7.12c0,.08-.11.54-.33,1.39s-.41,1.8-.58,2.85A17.62,17.62,0,0,0,387.49,61.31Z"/><path id="MJX-6-TEX-N-34" d="M413.63,51.05c-.31,0-1.42-.07-3.33-.07s-3.15,0-3.46.07h-.24V49.87h1.5a2,2,0,0,0,.44-.06.93.93,0,0,0,.36-.12.91.91,0,0,0,.18-.21,13.42,13.42,0,0,0,0-1.4V46.79h-6.69V45.61l3.9-6c2.63-4,4-6,4-6a1.29,1.29,0,0,1,.54-.05h.47l.15.15V45.61h2.38v1.18h-2.38v2.56a.38.38,0,0,0,.16.31,3.32,3.32,0,0,0,1.47.21h.75v1.18Zm-4.37-5.44V37l-5.65,8.6,2.81,0Z"/></g><line class="cls-3" x1="14.96" y1="246" x2="457.43" y2="246"/><polygon points="453.05 260.96 478.96 246 453.05 231.04 453.05 260.96"/><line class="cls-3" x1="14.96" y1="246" x2="14.96" y2="21.53"/><polygon points="29.92 25.91 14.96 0 0 25.91 29.92 25.91"/><g id="xs"><path id="MJX-8-TEX-I-1D465" d="M51.5,191.8a3.26,3.26,0,0,1,.83-1.5,2.3,2.3,0,0,1,1.79-.86,1.89,1.89,0,0,1,1,.27,1.76,1.76,0,0,1,.66.7,1.85,1.85,0,0,1,1.56-1,1.46,1.46,0,0,1,1,.34,1.13,1.13,0,0,1,.44.9,1.2,1.2,0,0,1-.22.73.9.9,0,0,1-.42.34,1.22,1.22,0,0,1-.35.06.69.69,0,0,1-.48-.17.58.58,0,0,1-.18-.45,1,1,0,0,1,.77-1,.81.81,0,0,0-.62-.2,1,1,0,0,0-.29,0,1.67,1.67,0,0,0-.87,1,28.67,28.67,0,0,0-.92,4,.72.72,0,0,0,.25.62.88.88,0,0,0,.54.18,1.66,1.66,0,0,0,1.12-.51,2.6,2.6,0,0,0,.76-1.25c0-.1.06-.16.09-.17l.25,0h.06c.15,0,.23,0,.23.13l0,.17a3.48,3.48,0,0,1-1,1.55,2.31,2.31,0,0,1-1.65.68,1.76,1.76,0,0,1-1.63-1,1.78,1.78,0,0,1-1.45,1h-.09a1.29,1.29,0,0,1-1.08-.41,1.37,1.37,0,0,1-.34-.84,1.12,1.12,0,0,1,.29-.81,1,1,0,0,1,.69-.3c.45,0,.67.21.67.64a.79.79,0,0,1-.19.54,1,1,0,0,1-.35.31l-.2.08h0s0,0,.09.07l.25.1a.51.51,0,0,0,.29,0,1.15,1.15,0,0,0,1-.69,5.8,5.8,0,0,0,.35-1c.15-.54.29-1.09.44-1.67s.22-.91.24-1a4.05,4.05,0,0,0,.08-.61.75.75,0,0,0-.23-.61A.8.8,0,0,0,54,190a1.68,1.68,0,0,0-1.15.5,2.65,2.65,0,0,0-.76,1.26c0,.09,0,.14-.08.15l-.24,0h-.22A.24.24,0,0,1,51.5,191.8Z"/><path id="MJX-8-TEX-N-31" d="M62.35,192.26l-.14.06-.44.11a5.51,5.51,0,0,1-.63.07h-.21V192h.21a3.56,3.56,0,0,0,1-.16,2.94,2.94,0,0,0,.61-.26l.3-.24s.06,0,.13,0a.34.34,0,0,1,.19.07v6.53a.5.5,0,0,0,.13.1,1.4,1.4,0,0,0,.26,0,5.87,5.87,0,0,0,.68,0h.28v.5h-.12c-.15,0-.73,0-1.73,0s-1.56,0-1.71,0H61v-.5h1l.17,0,.09,0,.06-.06s.06-.05.07,0Z"/><path id="MJX-8-TEX-I-1D465-2" data-name="MJX-8-TEX-I-1D465" d="M88.88,178.3a3.26,3.26,0,0,1,.83-1.5,2.3,2.3,0,0,1,1.79-.86,1.89,1.89,0,0,1,1,.27,1.76,1.76,0,0,1,.66.7,1.85,1.85,0,0,1,1.56-1,1.46,1.46,0,0,1,1,.34,1.13,1.13,0,0,1,.44.9,1.2,1.2,0,0,1-.22.73.9.9,0,0,1-.42.34,1.22,1.22,0,0,1-.35.06.69.69,0,0,1-.48-.17.58.58,0,0,1-.18-.45,1,1,0,0,1,.77-1,.81.81,0,0,0-.62-.2,1,1,0,0,0-.29,0,1.67,1.67,0,0,0-.87,1,28.67,28.67,0,0,0-.92,4,.72.72,0,0,0,.25.62.88.88,0,0,0,.54.18,1.66,1.66,0,0,0,1.12-.51,2.6,2.6,0,0,0,.76-1.25c0-.1.06-.16.09-.17l.25,0h.06c.15,0,.23,0,.23.13l0,.17a3.48,3.48,0,0,1-1,1.55,2.31,2.31,0,0,1-1.65.68,1.76,1.76,0,0,1-1.63-1,1.78,1.78,0,0,1-1.45,1H90A1.29,1.29,0,0,1,89,182.5a1.37,1.37,0,0,1-.34-.84,1.12,1.12,0,0,1,.29-.81,1,1,0,0,1,.69-.3c.45,0,.67.21.67.64a.79.79,0,0,1-.19.54,1,1,0,0,1-.35.31l-.2.08h0s0,0,.09.07l.25.1a.51.51,0,0,0,.29,0,1.15,1.15,0,0,0,1-.69,5.8,5.8,0,0,0,.35-1c.15-.54.29-1.09.44-1.67s.22-.91.24-1a4.05,4.05,0,0,0,.08-.61.75.75,0,0,0-.23-.61.8.8,0,0,0-.53-.19,1.68,1.68,0,0,0-1.15.5,2.65,2.65,0,0,0-.76,1.26c0,.09,0,.14-.08.15l-.24,0H89A.24.24,0,0,1,88.88,178.3Z"/><path id="MJX-8-TEX-N-32" d="M98.59,180.39a.58.58,0,0,1-.46-.2.68.68,0,0,1-.18-.48,1.81,1.81,0,0,1,.58-1.34,2,2,0,0,1,1.44-.57,2.37,2.37,0,0,1,1.65.61,2.08,2.08,0,0,1,.68,1.58,1.87,1.87,0,0,1-.22.9,3.07,3.07,0,0,1-.52.74q-.3.31-.87.81c-.26.22-.63.56-1.09,1l-.65.61h.83a15,15,0,0,0,1.82-.05,3,3,0,0,0,.26-1v0h.44v0s0,.35-.14,1a10,10,0,0,1-.16,1v0H98v-.33a.27.27,0,0,1,.07-.17c0-.06.15-.18.32-.38l.55-.61.37-.4.37-.41.32-.36c.14-.16.24-.29.3-.37s.14-.19.25-.32a1.85,1.85,0,0,0,.23-.35c0-.1.1-.2.16-.32a1.19,1.19,0,0,0,.15-.35c0-.11,0-.22.07-.32a2,2,0,0,0,0-.36,1.92,1.92,0,0,0-.38-1.19,1.21,1.21,0,0,0-1-.5,1.17,1.17,0,0,0-.64.18,1.48,1.48,0,0,0-.38.36,1,1,0,0,0-.11.21s0,0,.06,0a.69.69,0,0,1,.4.15.58.58,0,0,1,.21.5.62.62,0,0,1-.18.46A.67.67,0,0,1,98.59,180.39Z"/><path id="MJX-8-TEX-I-1D465-3" data-name="MJX-8-TEX-I-1D465" d="M145.39,140.18a3.26,3.26,0,0,1,.83-1.5,2.29,2.29,0,0,1,1.79-.86,1.89,1.89,0,0,1,1,.27,1.76,1.76,0,0,1,.66.7,1.85,1.85,0,0,1,1.56-1,1.46,1.46,0,0,1,1,.34,1.13,1.13,0,0,1,.44.91,1.19,1.19,0,0,1-.22.72.9.9,0,0,1-.42.34,1.22,1.22,0,0,1-.35.06.69.69,0,0,1-.48-.17.58.58,0,0,1-.18-.45,1,1,0,0,1,.77-1,.81.81,0,0,0-.62-.2,1,1,0,0,0-.29,0,1.67,1.67,0,0,0-.87,1,28.67,28.67,0,0,0-.92,4,.72.72,0,0,0,.25.62.88.88,0,0,0,.54.18,1.66,1.66,0,0,0,1.12-.51,2.6,2.6,0,0,0,.76-1.25c0-.1.06-.16.09-.17l.25,0h.06c.15,0,.23,0,.23.13l0,.17a3.48,3.48,0,0,1-1,1.55,2.31,2.31,0,0,1-1.65.68,1.76,1.76,0,0,1-1.63-1,1.78,1.78,0,0,1-1.45,1h-.09a1.29,1.29,0,0,1-1.08-.41,1.37,1.37,0,0,1-.34-.84,1.12,1.12,0,0,1,.29-.81,1,1,0,0,1,.69-.3c.45,0,.67.21.67.64a.79.79,0,0,1-.19.54,1,1,0,0,1-.35.31l-.2.08h0s0,0,.09.07l.25.1a.51.51,0,0,0,.29,0,1.15,1.15,0,0,0,1-.69,5.8,5.8,0,0,0,.35-1c.15-.54.29-1.09.43-1.67s.23-.91.25-1a4.05,4.05,0,0,0,.08-.61.75.75,0,0,0-.23-.61.8.8,0,0,0-.53-.19,1.68,1.68,0,0,0-1.15.5,2.65,2.65,0,0,0-.76,1.26c0,.09,0,.14-.08.15l-.24,0h-.22A.24.24,0,0,1,145.39,140.18Z"/><path id="MJX-8-TEX-N-33" d="M155.3,141.9a.56.56,0,0,1-.46-.19.73.73,0,0,1-.17-.48,1.41,1.41,0,0,1,.52-1.07,1.85,1.85,0,0,1,1.27-.47,4.06,4.06,0,0,1,.48,0,2.15,2.15,0,0,1,1.23.57,1.41,1.41,0,0,1,.43,1,1.87,1.87,0,0,1-.37,1.1,2.05,2.05,0,0,1-1,.78l0,0,.09,0,.32.1a1.53,1.53,0,0,1,.41.23,1.75,1.75,0,0,1,.9,1.53,2,2,0,0,1-.68,1.5,2.37,2.37,0,0,1-1.71.64,2.45,2.45,0,0,1-1.5-.46,1.42,1.42,0,0,1-.64-1.19.63.63,0,0,1,.2-.49.7.7,0,0,1,.49-.2.69.69,0,0,1,.5.2.71.71,0,0,1,.17.7,1.59,1.59,0,0,1-.08.18.49.49,0,0,1-.12.13l-.13.09-.11,0-.09,0h0a2,2,0,0,0,1.35.5,1,1,0,0,0,.9-.58,2.41,2.41,0,0,0,.19-1.1v-.22a1.41,1.41,0,0,0-.7-1.39,2.21,2.21,0,0,0-.66-.07h-.46l0,0s0-.08,0-.17,0-.2.08-.2a3.35,3.35,0,0,0,.63,0,1.06,1.06,0,0,0,.68-.46,2,2,0,0,0,.31-1.22v-.09a.93.93,0,0,0-.39-.86,1,1,0,0,0-.51-.15,1.69,1.69,0,0,0-.64.12,1.13,1.13,0,0,0-.42.25l-.12.13h0l.08,0a.24.24,0,0,1,.11.06l.13.07a.21.21,0,0,1,.11.12.91.91,0,0,0,.09.17.26.26,0,0,1,0,.22.6.6,0,0,1-.64.62Z"/><path id="MJX-8-TEX-I-1D465-4" data-name="MJX-8-TEX-I-1D465" d="M172.76,130.3a3.26,3.26,0,0,1,.83-1.5,2.3,2.3,0,0,1,1.79-.86,1.89,1.89,0,0,1,1,.27,1.76,1.76,0,0,1,.66.7,1.85,1.85,0,0,1,1.56-1,1.46,1.46,0,0,1,1,.34,1.13,1.13,0,0,1,.44.9,1.2,1.2,0,0,1-.22.73.9.9,0,0,1-.42.34,1.22,1.22,0,0,1-.35.06.69.69,0,0,1-.48-.17.58.58,0,0,1-.18-.45,1,1,0,0,1,.77-1,.81.81,0,0,0-.62-.2,1,1,0,0,0-.29,0,1.67,1.67,0,0,0-.87,1,28.67,28.67,0,0,0-.92,4,.72.72,0,0,0,.25.62.88.88,0,0,0,.54.18,1.66,1.66,0,0,0,1.12-.51,2.6,2.6,0,0,0,.76-1.25c0-.1.06-.16.09-.17l.25,0h.06c.15,0,.23,0,.23.13l0,.17a3.48,3.48,0,0,1-1,1.55,2.31,2.31,0,0,1-1.65.68,1.76,1.76,0,0,1-1.63-1,1.78,1.78,0,0,1-1.45,1h-.09a1.29,1.29,0,0,1-1.08-.41,1.37,1.37,0,0,1-.34-.84,1.16,1.16,0,0,1,.29-.81,1,1,0,0,1,.69-.3c.45,0,.67.21.67.64a.79.79,0,0,1-.19.54,1,1,0,0,1-.35.31l-.2.08h0s0,0,.09.07l.25.1a.51.51,0,0,0,.29,0,1.15,1.15,0,0,0,1-.69,5.8,5.8,0,0,0,.35-1c.15-.54.29-1.09.44-1.67s.22-.91.24-1a4.05,4.05,0,0,0,.08-.61.75.75,0,0,0-.23-.61.8.8,0,0,0-.53-.19,1.68,1.68,0,0,0-1.15.5,2.65,2.65,0,0,0-.76,1.26c0,.09,0,.14-.08.15l-.24,0h-.22A.24.24,0,0,1,172.76,130.3Z"/><path id="MJX-8-TEX-N-34" d="M186.32,137.06c-.13,0-.6,0-1.4,0s-1.33,0-1.46,0h-.1v-.5H184a.62.62,0,0,0,.18,0,.37.37,0,0,0,.16,0,.31.31,0,0,0,.07-.09,5.71,5.71,0,0,0,0-.59v-.54h-2.82v-.51l1.65-2.51c1.11-1.69,1.67-2.54,1.69-2.54s.09,0,.23,0h.19l.07.07v5h1v.51h-1v1.07a.18.18,0,0,0,.06.14,1.35,1.35,0,0,0,.62.08h.32v.5Zm-1.84-2.3v-3.64l-2.39,3.63h2.39Z"/><path id="MJX-8-TEX-I-1D465-5" data-name="MJX-8-TEX-I-1D465" d="M264.84,109.18a3.26,3.26,0,0,1,.83-1.5,2.3,2.3,0,0,1,1.79-.86,1.89,1.89,0,0,1,1,.27,1.76,1.76,0,0,1,.66.7,1.85,1.85,0,0,1,1.56-1,1.51,1.51,0,0,1,1,.34,1.15,1.15,0,0,1,.43.91,1.12,1.12,0,0,1-.22.72.94.94,0,0,1-.41.34,1.34,1.34,0,0,1-.36.06.72.72,0,0,1-.48-.17.58.58,0,0,1-.18-.45,1,1,0,0,1,.77-1,.79.79,0,0,0-.62-.2,1,1,0,0,0-.29,0,1.63,1.63,0,0,0-.86,1,27.86,27.86,0,0,0-.93,4,.72.72,0,0,0,.25.62.88.88,0,0,0,.54.18,1.66,1.66,0,0,0,1.12-.51,2.6,2.6,0,0,0,.76-1.25c0-.1.06-.16.09-.17l.25,0h.06c.15,0,.23,0,.23.13l0,.17a3.32,3.32,0,0,1-1,1.55,2.31,2.31,0,0,1-1.65.68,1.76,1.76,0,0,1-1.63-1,1.78,1.78,0,0,1-1.45,1H266a1.29,1.29,0,0,1-1.08-.41,1.37,1.37,0,0,1-.34-.84,1.16,1.16,0,0,1,.29-.81,1,1,0,0,1,.7-.3c.44,0,.66.21.66.64a.79.79,0,0,1-.19.54,1,1,0,0,1-.35.31l-.2.08h-.05s0,0,.1.07l.24.1a.51.51,0,0,0,.29,0,1.15,1.15,0,0,0,1-.69,6.45,6.45,0,0,0,.36-1.05l.43-1.67c.14-.57.22-.91.24-1a3,3,0,0,0,.08-.61.75.75,0,0,0-.23-.61.78.78,0,0,0-.52-.19,1.69,1.69,0,0,0-1.16.5,2.65,2.65,0,0,0-.76,1.26c0,.09,0,.14-.07.15l-.25,0h-.22A.24.24,0,0,1,264.84,109.18Z"/><path id="MJX-8-TEX-N-36" d="M273.83,112.53a4.19,4.19,0,0,1,.88-2.81,2.56,2.56,0,0,1,2-1,1.26,1.26,0,0,1,1.41,1.27.56.56,0,0,1-.16.43.54.54,0,0,1-.42.17.56.56,0,0,1-.41-.15.58.58,0,0,1-.17-.43.55.55,0,0,1,.51-.58,1,1,0,0,0-.67-.27,1.56,1.56,0,0,0-1.28.65A3.86,3.86,0,0,0,275,112v0a.42.42,0,0,0,.09-.14,1.36,1.36,0,0,1,1.16-.66h0a1.79,1.79,0,0,1,.88.21,2.07,2.07,0,0,1,.52.44,2.38,2.38,0,0,1,.43.62,2.93,2.93,0,0,1,.23,1.16v.2a1.78,1.78,0,0,1-.06.47,2.49,2.49,0,0,1-.69,1.25,1.93,1.93,0,0,1-1.46.61,2.27,2.27,0,0,1-.59-.08,2,2,0,0,1-.61-.33,2,2,0,0,1-.56-.64,4.4,4.4,0,0,1-.39-1.06A6,6,0,0,1,273.83,112.53Zm2.34-.91a.92.92,0,0,0-.57.18,1.3,1.3,0,0,0-.37.49,2.42,2.42,0,0,0-.18.62,4.73,4.73,0,0,0-.07.68,4.47,4.47,0,0,0,.13,1.3,1.4,1.4,0,0,0,.42.63.92.92,0,0,0,.57.2,1,1,0,0,0,.85-.42,1.15,1.15,0,0,0,.2-.49,7,7,0,0,0,.06-1.14,7.18,7.18,0,0,0-.06-1.17,1.15,1.15,0,0,0-.2-.49A.91.91,0,0,0,276.17,111.62Z"/><path id="MJX-8-TEX-I-1D465-6" data-name="MJX-8-TEX-I-1D465" d="M209.88,120.18a3.26,3.26,0,0,1,.83-1.5,2.3,2.3,0,0,1,1.79-.86,1.89,1.89,0,0,1,1,.27,1.76,1.76,0,0,1,.66.7,1.85,1.85,0,0,1,1.56-1,1.46,1.46,0,0,1,1,.34,1.13,1.13,0,0,1,.44.91,1.19,1.19,0,0,1-.22.72.9.9,0,0,1-.42.34,1.22,1.22,0,0,1-.35.06.69.69,0,0,1-.48-.17.58.58,0,0,1-.18-.45,1,1,0,0,1,.77-1,.81.81,0,0,0-.62-.2,1,1,0,0,0-.29,0,1.67,1.67,0,0,0-.87,1,28.67,28.67,0,0,0-.92,4,.72.72,0,0,0,.25.62.88.88,0,0,0,.54.18,1.66,1.66,0,0,0,1.12-.51,2.6,2.6,0,0,0,.76-1.25c0-.1.06-.16.09-.17l.25,0h.06c.15,0,.23,0,.23.13l0,.17a3.48,3.48,0,0,1-1,1.55,2.31,2.31,0,0,1-1.65.68,1.76,1.76,0,0,1-1.63-1,1.78,1.78,0,0,1-1.45,1H211a1.29,1.29,0,0,1-1.08-.41,1.37,1.37,0,0,1-.34-.84,1.12,1.12,0,0,1,.29-.81,1,1,0,0,1,.69-.3c.45,0,.67.21.67.64a.79.79,0,0,1-.19.54,1,1,0,0,1-.35.31l-.2.08h-.05s0,0,.09.07l.25.1a.51.51,0,0,0,.29,0,1.15,1.15,0,0,0,1-.69,5.8,5.8,0,0,0,.35-1.05c.15-.54.29-1.09.44-1.67s.22-.91.24-1a4.05,4.05,0,0,0,.08-.61.75.75,0,0,0-.23-.61.8.8,0,0,0-.53-.19,1.68,1.68,0,0,0-1.15.5,2.65,2.65,0,0,0-.76,1.26c0,.09,0,.14-.08.15l-.24,0H210A.24.24,0,0,1,209.88,120.18Z"/><path id="MJX-8-TEX-N-35" d="M220.19,125.23a.58.58,0,0,1-.17.44.61.61,0,0,1-.43.17h-.07a1.49,1.49,0,0,0,1.33.86,1.16,1.16,0,0,0,1.11-.65,3.1,3.1,0,0,0,.21-1.4,2.67,2.67,0,0,0-.3-1.51.81.81,0,0,0-.63-.36h-.07a1.41,1.41,0,0,0-1.28.74.24.24,0,0,1-.08.09l-.16,0c-.12,0-.19,0-.21-.07s0-.66,0-1.9v-1.41c0-.36,0-.54.05-.54s0,0,.05,0l.23.09a3.73,3.73,0,0,0,.6.18,4.12,4.12,0,0,0,.81.08,3.81,3.81,0,0,0,1.49-.3.3.3,0,0,1,.14,0c.06,0,.09.07.09.2V120a2.82,2.82,0,0,1-2.24,1.06A2.32,2.32,0,0,1,220,121l-.11,0v1.88l.33-.24a1.44,1.44,0,0,1,.39-.18,1.77,1.77,0,0,1,.56-.08,1.89,1.89,0,0,1,1.49.7,2.5,2.5,0,0,1,.61,1.68,2.32,2.32,0,0,1-.7,1.71,2.27,2.27,0,0,1-1.7.72,1.8,1.8,0,0,1-1.41-.58,1.94,1.94,0,0,1-.54-1.33.66.66,0,0,1,.12-.42.57.57,0,0,1,.25-.2,1.18,1.18,0,0,1,.25,0,.61.61,0,0,1,.62.62Z"/><path id="MJX-8-TEX-I-1D465-7" data-name="MJX-8-TEX-I-1D465" d="M299.68,109.18a3.29,3.29,0,0,1,.84-1.5,2.28,2.28,0,0,1,1.78-.86,1.89,1.89,0,0,1,1,.27,1.76,1.76,0,0,1,.66.7,1.88,1.88,0,0,1,1.56-1,1.51,1.51,0,0,1,1,.34,1.22,1.22,0,0,1,.21,1.63.94.94,0,0,1-.41.34,1.29,1.29,0,0,1-.36.06.68.68,0,0,1-.47-.17.55.55,0,0,1-.19-.45,1,1,0,0,1,.77-1,.79.79,0,0,0-.62-.2,1,1,0,0,0-.29,0,1.63,1.63,0,0,0-.86,1,27.86,27.86,0,0,0-.93,4,.75.75,0,0,0,.25.62.88.88,0,0,0,.54.18,1.66,1.66,0,0,0,1.12-.51,2.53,2.53,0,0,0,.76-1.25c0-.1.06-.16.09-.17l.25,0h.06c.16,0,.23,0,.23.13l0,.17a3.38,3.38,0,0,1-.95,1.55,2.35,2.35,0,0,1-1.65.68,1.78,1.78,0,0,1-1.64-1,1.76,1.76,0,0,1-1.45,1h-.09a1.32,1.32,0,0,1-1.08-.41,1.37,1.37,0,0,1-.34-.84,1.16,1.16,0,0,1,.29-.81,1,1,0,0,1,.7-.3c.44,0,.66.21.66.64a.84.84,0,0,1-.18.54,1.06,1.06,0,0,1-.36.31l-.2.08h-.05s0,0,.1.07l.24.1a.55.55,0,0,0,.3,0,1.12,1.12,0,0,0,.95-.69,5.58,5.58,0,0,0,.36-1.05c.14-.54.29-1.09.43-1.67s.23-.91.25-1a3.73,3.73,0,0,0,.07-.61.72.72,0,0,0-.23-.61.78.78,0,0,0-.52-.19,1.7,1.7,0,0,0-1.16.5,2.56,2.56,0,0,0-.75,1.26c0,.09-.05.14-.08.15l-.25,0h-.21A.22.22,0,0,1,299.68,109.18Z"/><path id="MJX-8-TEX-N-37" d="M308.81,111s.07-.41.18-1.19l.18-1.16s.07,0,.22,0h.22v.05c0,.07.05.13.16.18a1.62,1.62,0,0,0,.57.1c.26,0,.88,0,1.84,0h1.32v.43l-.74,1-.33.44-.3.4c0,.07-.12.18-.22.35a2.13,2.13,0,0,0-.22.39l-.16.41a3.43,3.43,0,0,0-.14.5,5.67,5.67,0,0,0-.08.59c0,.23-.06.48-.07.74s0,.56,0,.89v.31c0,.1,0,.19,0,.26v.1a.54.54,0,0,1-.21.31.56.56,0,0,1-.37.13.85.85,0,0,1-.23,0,.48.48,0,0,1-.23-.21.73.73,0,0,1-.12-.43,7.19,7.19,0,0,1,1.06-3.58c.14-.23.45-.67.91-1.32l.51-.68h-1a13.84,13.84,0,0,0-2,.06c-.05,0-.09.11-.12.26s-.08.31-.11.47l0,.23v0h-.44Z"/><path id="MJX-8-TEX-I-1D465-8" data-name="MJX-8-TEX-I-1D465" d="M338.84,99.18a3.26,3.26,0,0,1,.83-1.5,2.29,2.29,0,0,1,1.79-.86,1.83,1.83,0,0,1,1,.27,1.14,1.14,0,0,0,2.22-.27,1.51,1.51,0,0,1,1,.34,1.12,1.12,0,0,1,.43.91,1.18,1.18,0,0,1-.21.72,1,1,0,0,1-.42.34,1.22,1.22,0,0,1-.35.06.69.69,0,0,1-.48-.17.55.55,0,0,1-.19-.45,1,1,0,0,1,.77-1,.77.77,0,0,0-.61-.2,1.1,1.1,0,0,0-.3,0,1.66,1.66,0,0,0-.86,1,27.1,27.1,0,0,0-.92,4,.74.74,0,0,0,.24.62.92.92,0,0,0,.54.18,1.68,1.68,0,0,0,1.13-.51,2.51,2.51,0,0,0,.75-1.25c0-.1.06-.16.1-.17l.24,0h.06c.16,0,.24,0,.24.13s0,.06,0,.17a3.38,3.38,0,0,1-.95,1.55,2.31,2.31,0,0,1-1.65.68,1.72,1.72,0,0,0-3.09,0H340a1.32,1.32,0,0,1-1.08-.41,1.43,1.43,0,0,1-.34-.84,1.13,1.13,0,0,1,.3-.81.92.92,0,0,1,.69-.3c.44,0,.66.21.66.64a.84.84,0,0,1-.18.54.91.91,0,0,1-.36.31l-.2.08h0s0,0,.09.07l.25.1a.51.51,0,0,0,.29,0,1.15,1.15,0,0,0,1-.69,5.8,5.8,0,0,0,.35-1.05c.14-.54.29-1.09.43-1.67s.23-.91.25-1a4.05,4.05,0,0,0,.08-.61.72.72,0,0,0-.24-.61.76.76,0,0,0-.52-.19,1.7,1.7,0,0,0-1.16.5,2.56,2.56,0,0,0-.75,1.26c0,.09-.05.14-.08.15l-.25,0h-.21A.24.24,0,0,1,338.84,99.18Z"/><path id="MJX-8-TEX-N-38" d="M348.13,101.4v-.84a1.7,1.7,0,0,1,.58-1.35,2.11,2.11,0,0,1,1.36-.53,2.24,2.24,0,0,1,1.37.46,1.43,1.43,0,0,1,.6,1.19,1.54,1.54,0,0,1-.12.61,1.81,1.81,0,0,1-.28.46,3,3,0,0,1-.34.3,2.21,2.21,0,0,1-.29.2.35.35,0,0,0-.12.09l.16.1.3.21a.6.6,0,0,0,.18.12,2,2,0,0,1,.81,1.63,2,2,0,0,1-.63,1.49,2.21,2.21,0,0,1-1.63.64,2.36,2.36,0,0,1-1.62-.55,1.76,1.76,0,0,1-.63-1.38,2.29,2.29,0,0,1,1.41-2l-.2-.14a1.22,1.22,0,0,1-.29-.22,1.69,1.69,0,0,1-.62-1.37Zm2.35.34.07,0,.09-.06.11-.08a.75.75,0,0,0,.13-.11.77.77,0,0,0,.12-.13l.12-.14a.5.5,0,0,0,.11-.18l.1-.18a.42.42,0,0,0,.05-.22q0-.14,0-.24a1.09,1.09,0,0,0-.32-.79,1.39,1.39,0,0,0-.73-.42H350a1.46,1.46,0,0,0-.84.28.89.89,0,0,0-.4.71.83.83,0,0,0,.14.46,1.52,1.52,0,0,0,.28.32c.1.07.28.19.55.35l.12.07Zm-.39,4a1.68,1.68,0,0,0,1.09-.38,1.11,1.11,0,0,0,.46-.89,1,1,0,0,0-.06-.35,1.13,1.13,0,0,0-.13-.27,1.34,1.34,0,0,0-.24-.24l-.25-.2c-.06,0-.16-.11-.32-.2l-.29-.19-.33-.21-.28-.18-.09-.06a1,1,0,0,0-.31.19,2.16,2.16,0,0,0-.53.6,1.67,1.67,0,0,0-.28.89,1.37,1.37,0,0,0,.47,1.06A1.62,1.62,0,0,0,350.09,105.72Z"/><path id="MJX-8-TEX-I-1D465-9" data-name="MJX-8-TEX-I-1D465" d="M384.84,90.18a3.26,3.26,0,0,1,.83-1.5,2.3,2.3,0,0,1,1.79-.86,1.89,1.89,0,0,1,1,.27,1.76,1.76,0,0,1,.66.7,1.85,1.85,0,0,1,1.56-1,1.51,1.51,0,0,1,1,.34,1.15,1.15,0,0,1,.43.91,1.12,1.12,0,0,1-.22.72.94.94,0,0,1-.41.34,1.34,1.34,0,0,1-.36.06.72.72,0,0,1-.48-.17.58.58,0,0,1-.18-.45,1,1,0,0,1,.77-1,.79.79,0,0,0-.62-.2,1,1,0,0,0-.29,0,1.63,1.63,0,0,0-.86,1,27.86,27.86,0,0,0-.93,4,.72.72,0,0,0,.25.62.88.88,0,0,0,.54.18,1.66,1.66,0,0,0,1.12-.51,2.6,2.6,0,0,0,.76-1.25c0-.1.06-.16.09-.17l.25,0h.06c.15,0,.23,0,.23.13l0,.17a3.32,3.32,0,0,1-1,1.55,2.31,2.31,0,0,1-1.65.68,1.71,1.71,0,0,0-3.08,0H386a1.29,1.29,0,0,1-1.08-.41,1.37,1.37,0,0,1-.34-.84,1.16,1.16,0,0,1,.29-.81,1,1,0,0,1,.7-.3c.44,0,.66.21.66.64a.79.79,0,0,1-.19.54,1,1,0,0,1-.35.31l-.2.08h-.05s0,0,.1.07l.24.1a.51.51,0,0,0,.29,0,1.15,1.15,0,0,0,1-.69,6.45,6.45,0,0,0,.36-1.05l.43-1.67c.14-.57.22-.91.24-1a3,3,0,0,0,.08-.61.75.75,0,0,0-.23-.61.78.78,0,0,0-.52-.19,1.69,1.69,0,0,0-1.16.5,2.65,2.65,0,0,0-.76,1.26c0,.09,0,.14-.07.15l-.25,0h-.22A.24.24,0,0,1,384.84,90.18Z"/><path id="MJX-8-TEX-N-39" d="M397.21,93.82a1.53,1.53,0,0,1-1.31.82,1.74,1.74,0,0,1-1.4-.64,2.75,2.75,0,0,1-.65-1.37,2.82,2.82,0,0,1,0-.44V92.1a2.41,2.41,0,0,1,.75-1.76,2,2,0,0,1,1.44-.66h.19l.28,0a1.47,1.47,0,0,1,.4.13,1.73,1.73,0,0,1,.51.35,2.59,2.59,0,0,1,.47.64,5.65,5.65,0,0,1,.47,2.46,4.82,4.82,0,0,1-.66,2.59,3,3,0,0,1-.91,1,2.13,2.13,0,0,1-1.13.34,1.76,1.76,0,0,1-1.09-.31,1.12,1.12,0,0,1-.44-.94c0-.41.18-.62.58-.61a.57.57,0,0,1,.4.15.56.56,0,0,1,.16.43.64.64,0,0,1-.09.34.54.54,0,0,1-.18.17l-.14,0,0,0s0,0,.07.06a1.36,1.36,0,0,0,.29.11,1.3,1.3,0,0,0,.45,0h.07a1.3,1.3,0,0,0,1.1-.69,3.93,3.93,0,0,0,.43-2.12Zm-1.18.42a1,1,0,0,0,.84-.53,2.86,2.86,0,0,0,.32-1.45,5.89,5.89,0,0,0-.08-1.22,1.42,1.42,0,0,0-.07-.22,2,2,0,0,0-.15-.29.86.86,0,0,0-.33-.29.92.92,0,0,0-.51-.11,1,1,0,0,0-.71.3,1.08,1.08,0,0,0-.29.56,6.75,6.75,0,0,0-.08,1.15,10.21,10.21,0,0,0,0,1.22,1.09,1.09,0,0,0,.22.51A.92.92,0,0,0,396,94.24Z"/><path id="MJX-8-TEX-I-1D465-10" data-name="MJX-8-TEX-I-1D465" d="M411.09,69.18a3.29,3.29,0,0,1,.84-1.5,2.29,2.29,0,0,1,1.79-.86,1.8,1.8,0,0,0,3.2,0,1.51,1.51,0,0,1,1,.34,1.12,1.12,0,0,1,.43.91,1.18,1.18,0,0,1-.21.72,1,1,0,0,1-.42.34,1.23,1.23,0,0,1-.36.06.68.68,0,0,1-.47-.17.55.55,0,0,1-.19-.45,1,1,0,0,1,.77-1,.78.78,0,0,0-.61-.2,1.05,1.05,0,0,0-.3,0,1.63,1.63,0,0,0-.86,1,27.86,27.86,0,0,0-.93,4,.75.75,0,0,0,.25.62.9.9,0,0,0,.54.18,1.68,1.68,0,0,0,1.13-.51,2.51,2.51,0,0,0,.75-1.25c0-.1.06-.16.09-.17l.25,0h.06c.16,0,.23,0,.23.13l0,.17a3.38,3.38,0,0,1-.95,1.55,2.35,2.35,0,0,1-1.65.68,1.72,1.72,0,0,0-3.09,0h-.09a1.32,1.32,0,0,1-1.08-.41,1.43,1.43,0,0,1-.34-.84,1.13,1.13,0,0,1,.3-.81.92.92,0,0,1,.69-.3c.44,0,.66.21.66.64a.84.84,0,0,1-.18.54,1,1,0,0,1-.36.31l-.2.08h0s0,0,.09.07l.24.1a.56.56,0,0,0,.3,0,1.12,1.12,0,0,0,.95-.69,5.58,5.58,0,0,0,.36-1.05c.14-.54.29-1.09.43-1.67s.23-.91.25-1a3.73,3.73,0,0,0,.07-.61.72.72,0,0,0-.23-.61.78.78,0,0,0-.52-.19,1.7,1.7,0,0,0-1.16.5,2.56,2.56,0,0,0-.75,1.26c0,.09-.05.14-.08.15l-.25,0h-.21C411.13,69.28,411.09,69.23,411.09,69.18Z"/><path id="MJX-8-TEX-N-31-2" data-name="MJX-8-TEX-N-31" d="M421.94,69.64l-.14.06-.44.11a5,5,0,0,1-.63.07h-.2v-.5h.2a3.56,3.56,0,0,0,.95-.16,2.71,2.71,0,0,0,.61-.26,2.79,2.79,0,0,0,.31-.24s0,0,.13,0a.34.34,0,0,1,.18.07v6.53a.76.76,0,0,0,.13.1,1.57,1.57,0,0,0,.27,0,5.67,5.67,0,0,0,.67,0h.29v.5h-.12c-.16,0-.73,0-1.74,0s-1.56,0-1.71,0h-.13v-.5h1l.17,0,.09,0,.07-.06s.06,0,.06,0Z"/><path id="MJX-8-TEX-N-30" d="M426.12,69.57a1.92,1.92,0,0,1,1.67-.89,2.18,2.18,0,0,1,1,.29,2,2,0,0,1,.85,1,6.2,6.2,0,0,1,.41,2.49,5.74,5.74,0,0,1-.47,2.58,2,2,0,0,1-.6.73,2.22,2.22,0,0,1-.67.34,2.67,2.67,0,0,1-.55.07,2.76,2.76,0,0,1-.57-.06,2.06,2.06,0,0,1-.67-.35A1.93,1.93,0,0,1,426,75a5.6,5.6,0,0,1-.47-2.58A5.42,5.42,0,0,1,426.12,69.57Zm2.45-.13a1,1,0,0,0-.77-.35,1,1,0,0,0-.79.35,1.49,1.49,0,0,0-.36.78,15,15,0,0,0-.09,2.09,17.6,17.6,0,0,0,.09,2.27,1.6,1.6,0,0,0,.39.86,1,1,0,0,0,.76.33,1,1,0,0,0,.74-.33,1.56,1.56,0,0,0,.39-.91c.05-.4.08-1.13.09-2.22a14.93,14.93,0,0,0-.09-2.08A1.53,1.53,0,0,0,428.57,69.44Z"/></g></g></g></svg>