<svg xmlns="http://www.w3.org/2000/svg" viewBox="0 0 174 174"><defs><style>.cls-1{fill:#fff;}.cls-2{fill:#d83c65;}</style></defs><g id="Layer_2" data-name="Layer 2"><g id="clusterlets"><g id="red_clusterlet" data-name="red clusterlet"><circle class="cls-1" cx="87" cy="87" r="85.5"/><path class="cls-2" d="M87,3A84,84,0,1,1,3,87,84.09,84.09,0,0,1,87,3m0-3a87,87,0,1,0,87,87A87,87,0,0,0,87,0Z"/></g><g id="red_points" data-name="red points"><rect class="cls-2" x="35.5" y="43.5" width="42" height="42"/><path class="cls-2" d="M76,45V84H37V45H76m3-3H34V87H79V42Z"/><rect class="cls-2" x="48.5" y="103.5" width="42" height="42"/><path class="cls-2" d="M89,105v39H50V105H89m3-3H47v45H92V102Z"/><rect class="cls-2" x="97.5" y="51.5" width="42" height="42"/><path class="cls-2" d="M138,53V92H99V53h39m3-3H96V95h45V50Z"/></g></g></g></svg>