<svg xmlns="http://www.w3.org/2000/svg" xmlns:xlink="http://www.w3.org/1999/xlink" viewBox="0 0 275 140.75"><defs><style>.cls-1,.cls-5{fill:none;}.cls-2{clip-path:url(#clip-path);}.cls-3{fill:#fff;}.cls-4{clip-path:url(#clip-path-2);}.cls-5{stroke:#000;stroke-miterlimit:10;stroke-width:0.72px;}.cls-6,.cls-7{font-size:12.27px;}.cls-6{font-family:CourierNewPSMT, Courier New;}.cls-7{font-family:CourierNewPS-ItalicMT, Courier New;font-style:italic;}</style><clipPath id="clip-path"><rect class="cls-1" width="275" height="140.75"/></clipPath><clipPath id="clip-path-2"><rect class="cls-1" width="275" height="139.3"/></clipPath></defs><g id="Layer_2" data-name="Layer 2"><g id="Layer_1-2" data-name="Layer 1"><g class="cls-2"><rect class="cls-3" width="275" height="140.75"/></g><g class="cls-4"><line class="cls-5" x1="50.89" y1="131" x2="50.89" y2="1.08"/><line class="cls-5" x1="22.01" y1="116.57" x2="267.49" y2="116.7"/><polygon class="cls-5" points="50.89 116.57 50.89 29.95 123.06 116.57 50.89 116.57"/><text class="cls-6" transform="translate(10.6 129.92)">age</text><text class="cls-6" transform="translate(50.38 129.92)">15</text><text class="cls-6" transform="translate(115.34 129.92)">25</text><text class="cls-6" transform="translate(245.26 129.92)">45</text><text class="cls-7" transform="translate(50.23 28.87)">teen</text><text class="cls-7" transform="translate(104.29 28.87)">young</text><text class="cls-7" transform="translate(219.77 28.87)">adult</text><path class="cls-5" d="M43.67,116.57q36.09,0,57.74-25.26T123.06,30"/><path class="cls-5" d="M253,116.57q-79.41-14.44-97.45-28.87T123.06,30"/><path class="cls-5" d="M123.06,116.57q0-36.09,25.27-57.74T253,30"/><line class="cls-5" x1="252.99" y1="116.57" x2="252.99" y2="29.23"/></g></g></g></svg>